<svg width="1440" height="440" viewBox="0 0 1440 440" fill="none" xmlns="http://www.w3.org/2000/svg">
<path fill-rule="evenodd" clip-rule="evenodd" d="M71.9519 0L143.466 71.5137H144.449L215.963 0L287.476 71.5137H288.46L359.973 0L431.487 71.5137H432.47L503.984 0L575.497 71.5137H576.481L647.994 0L719.508 71.5137H720.491L792.005 0L863.519 71.5137H864.502L936.015 0L1007.53 71.5137H1008.51L1080.03 0L1151.54 71.5137H1152.52L1224.04 0L1295.55 71.5137H1296.53L1368.05 0L1439.56 71.5137H1440L1440 71.9524L1440 385.5H-0.000282654V71.9526L-0.000488281 71.9524L-0.000282654 71.9521V71.5137H0.438194L71.9519 0Z" fill="#0038FF"/>
<mask id="path-2-outside-1_399_211" maskUnits="userSpaceOnUse" x="-15.0005" y="39" width="1466" height="411" fill="black">
<rect fill="white" x="-15.0005" y="39" width="1466" height="411"/>
<path fill-rule="evenodd" clip-rule="evenodd" d="M71.9519 54L143.466 125.514H144.449L215.963 54L287.476 125.514H288.46L359.973 54L431.487 125.514H432.47L503.984 54L575.497 125.514H576.481L647.994 54L719.508 125.514H720.491L792.005 54L863.519 125.514H864.502L936.015 54L1007.53 125.514H1008.51L1080.03 54L1151.54 125.514H1152.52L1224.04 54L1295.55 125.514H1296.53L1368.05 54L1439.56 125.514H1440L1440 125.952L1440 439.5H-0.000282654V125.953L-0.000488281 125.952L-0.000282654 125.952V125.514H0.438194L71.9519 54Z"/>
</mask>
<path fill-rule="evenodd" clip-rule="evenodd" d="M71.9519 54L143.466 125.514H144.449L215.963 54L287.476 125.514H288.46L359.973 54L431.487 125.514H432.47L503.984 54L575.497 125.514H576.481L647.994 54L719.508 125.514H720.491L792.005 54L863.519 125.514H864.502L936.015 54L1007.53 125.514H1008.51L1080.03 54L1151.54 125.514H1152.52L1224.04 54L1295.55 125.514H1296.53L1368.05 54L1439.56 125.514H1440L1440 125.952L1440 439.5H-0.000282654V125.953L-0.000488281 125.952L-0.000282654 125.952V125.514H0.438194L71.9519 54Z" fill="#FFF500"/>
<path d="M143.466 125.514L136.394 132.585L139.323 135.514H143.466V125.514ZM71.9519 54L79.0229 46.9289L71.9519 39.8579L64.8808 46.9289L71.9519 54ZM144.449 125.514V135.514H148.591L151.52 132.585L144.449 125.514ZM215.963 54L223.034 46.9289L215.963 39.8579L208.892 46.9289L215.963 54ZM287.476 125.514L280.405 132.585L283.334 135.514H287.476V125.514ZM288.46 125.514V135.514H292.602L295.531 132.585L288.46 125.514ZM359.973 54L367.044 46.9289L359.973 39.8579L352.902 46.9289L359.973 54ZM431.487 125.514L424.416 132.585L427.345 135.514H431.487V125.514ZM432.47 125.514V135.514H436.612L439.541 132.585L432.47 125.514ZM503.984 54L511.055 46.9289L503.984 39.8579L496.913 46.9289L503.984 54ZM575.497 125.514L568.426 132.585L571.355 135.514H575.497V125.514ZM576.481 125.514V135.514H580.623L583.552 132.585L576.481 125.514ZM647.994 54L655.065 46.9289L647.994 39.8579L640.923 46.9289L647.994 54ZM719.508 125.514L712.437 132.585L715.366 135.514H719.508V125.514ZM720.491 125.514V135.514H724.634L727.562 132.585L720.491 125.514ZM792.005 54L799.076 46.9289L792.005 39.8579L784.934 46.9289L792.005 54ZM863.519 125.514L856.448 132.585L859.377 135.514H863.519V125.514ZM864.502 125.514V135.514H868.644L871.573 132.585L864.502 125.514ZM936.015 54L943.086 46.9289L936.015 39.8579L928.944 46.9289L936.015 54ZM1007.53 125.514L1000.46 132.585L1003.39 135.514H1007.53V125.514ZM1008.51 125.514V135.514H1012.65L1015.58 132.585L1008.51 125.514ZM1080.03 54L1087.1 46.9289L1080.03 39.8579L1072.96 46.9289L1080.03 54ZM1151.54 125.514L1144.47 132.585L1147.4 135.514H1151.54V125.514ZM1152.52 125.514V135.514H1156.67L1159.59 132.585L1152.52 125.514ZM1224.04 54L1231.11 46.9289L1224.04 39.8579L1216.97 46.9289L1224.04 54ZM1295.55 125.514L1288.48 132.585L1291.41 135.514H1295.55V125.514ZM1296.53 125.514V135.514H1300.68L1303.6 132.585L1296.53 125.514ZM1368.05 54L1375.12 46.9289L1368.05 39.8579L1360.98 46.9289L1368.05 54ZM1439.56 125.514L1432.49 132.585L1435.42 135.514H1439.56V125.514ZM1440 125.514L1450 125.508L1449.99 115.514H1440V125.514ZM1440 125.952L1450 125.952V125.947L1440 125.952ZM1440 439.5V449.5H1450V439.5H1440ZM-0.000282654 439.5H-10.0003V449.5H-0.000282654V439.5ZM-0.000282654 125.953H9.99972V121.816L7.07708 118.888L-0.000282654 125.953ZM-0.000488281 125.952L-7.07785 118.888L-14.13 125.952L-7.07785 133.017L-0.000488281 125.952ZM-0.000282654 125.952L7.07708 133.017L9.99972 130.089V125.952H-0.000282654ZM-0.000282654 125.514V115.514H-10.0003V125.514H-0.000282654ZM0.438194 125.514V135.514H4.58033L7.50926 132.585L0.438194 125.514ZM150.537 118.443L79.0229 46.9289L64.8808 61.0711L136.394 132.585L150.537 118.443ZM144.449 115.514H143.466V135.514H144.449V115.514ZM208.892 46.9289L137.378 118.443L151.52 132.585L223.034 61.0711L208.892 46.9289ZM294.547 118.443L223.034 46.9289L208.892 61.0711L280.405 132.585L294.547 118.443ZM288.46 115.514H287.476V135.514H288.46V115.514ZM352.902 46.9289L281.389 118.443L295.531 132.585L367.044 61.0711L352.902 46.9289ZM438.558 118.443L367.044 46.9289L352.902 61.0711L424.416 132.585L438.558 118.443ZM432.47 115.514H431.487V135.514H432.47V115.514ZM496.913 46.9289L425.399 118.443L439.541 132.585L511.055 61.0711L496.913 46.9289ZM582.568 118.443L511.055 46.9289L496.913 61.0711L568.426 132.585L582.568 118.443ZM576.481 115.514H575.497V135.514H576.481V115.514ZM640.923 46.9289L569.41 118.443L583.552 132.585L655.065 61.0711L640.923 46.9289ZM726.579 118.443L655.065 46.9289L640.923 61.0711L712.437 132.585L726.579 118.443ZM720.491 115.514H719.508V135.514H720.491V115.514ZM784.934 46.9289L713.42 118.443L727.562 132.585L799.076 61.0711L784.934 46.9289ZM870.59 118.443L799.076 46.9289L784.934 61.0711L856.448 132.585L870.59 118.443ZM864.502 115.514H863.519V135.514H864.502V115.514ZM928.944 46.9289L857.431 118.443L871.573 132.585L943.086 61.0711L928.944 46.9289ZM1014.6 118.443L943.086 46.9289L928.944 61.0711L1000.46 132.585L1014.6 118.443ZM1008.51 115.514H1007.53V135.514H1008.51V115.514ZM1072.96 46.9289L1001.44 118.443L1015.58 132.585L1087.1 61.0711L1072.96 46.9289ZM1158.61 118.443L1087.1 46.9289L1072.96 61.0711L1144.47 132.585L1158.61 118.443ZM1152.52 115.514H1151.54V135.514H1152.52V115.514ZM1216.97 46.9289L1145.45 118.443L1159.59 132.585L1231.11 61.0711L1216.97 46.9289ZM1302.62 118.443L1231.11 46.9289L1216.97 61.0711L1288.48 132.585L1302.62 118.443ZM1296.53 115.514H1295.55V135.514H1296.53V115.514ZM1303.6 132.585L1375.12 61.0711L1360.98 46.9289L1289.46 118.443L1303.6 132.585ZM1360.98 61.0711L1432.49 132.585L1446.63 118.443L1375.12 46.9289L1360.98 61.0711ZM1440 115.514H1439.56V135.514H1440V115.514ZM1450 125.947L1450 125.508L1430 125.519L1430 125.958L1450 125.947ZM1450 439.5L1450 125.952L1430 125.952L1430 439.5H1450ZM-0.000282654 449.5H1440V429.5H-0.000282654V449.5ZM-10.0003 125.953V439.5H9.99972V125.953H-10.0003ZM-7.07785 133.017L-7.07765 133.017L7.07708 118.888L7.07688 118.888L-7.07785 133.017ZM-7.07765 118.887L-7.07785 118.888L7.07688 133.017L7.07708 133.017L-7.07765 118.887ZM-10.0003 125.514V125.952H9.99972V125.514H-10.0003ZM0.438194 115.514H-0.000282654V135.514H0.438194V115.514ZM64.8808 46.9289L-6.63287 118.443L7.50926 132.585L79.0229 61.0711L64.8808 46.9289Z" fill="black" mask="url(#path-2-outside-1_399_211)"/>
</svg>
