<svg width="390" height="456" viewBox="0 0 390 456" fill="none" xmlns="http://www.w3.org/2000/svg">
<path fill-rule="evenodd" clip-rule="evenodd" d="M-203.529 0L-159.33 44.1994H-158.722L-114.523 0L-70.3234 44.1994H-69.7156L-25.5162 0L18.6833 44.1994H19.291L63.4905 0L107.69 44.1994H108.298L152.497 0L196.697 44.1994H197.304L241.504 0L285.703 44.1994H286.31L330.51 0L374.709 44.1994H375.317L419.516 0L463.716 44.1994H464.324L508.523 0L552.723 44.1994H553.33L597.53 0L641.729 44.1994H642L642 44.4706L642 238.26H-248V44.4707L-248 44.4706L-248 44.4704V44.1994H-247.729L-203.529 0Z" fill="#0038FF"/>
<mask id="path-2-outside-1_408_1245" maskUnits="userSpaceOnUse" x="-263" y="18.375" width="916" height="448" fill="black">
<rect fill="white" x="-263" y="18.375" width="916" height="448"/>
<path fill-rule="evenodd" clip-rule="evenodd" d="M-203.529 33.375L-159.33 77.5744H-158.722L-114.523 33.375L-70.3234 77.5744H-69.7156L-25.5162 33.375L18.6833 77.5744H19.291L63.4905 33.375L107.69 77.5744H108.298L152.497 33.375L196.697 77.5744H197.304L241.504 33.375L285.703 77.5744H286.31L330.51 33.375L374.709 77.5744H375.317L419.516 33.375L463.716 77.5744H464.324L508.523 33.375L552.723 77.5744H553.33L597.53 33.375L641.729 77.5744H642L642 77.8456L642 456H-248V77.8457L-248 77.8456L-248 77.8454V77.5744H-247.729L-203.529 33.375Z"/>
</mask>
<path fill-rule="evenodd" clip-rule="evenodd" d="M-203.529 33.375L-159.33 77.5744H-158.722L-114.523 33.375L-70.3234 77.5744H-69.7156L-25.5162 33.375L18.6833 77.5744H19.291L63.4905 33.375L107.69 77.5744H108.298L152.497 33.375L196.697 77.5744H197.304L241.504 33.375L285.703 77.5744H286.31L330.51 33.375L374.709 77.5744H375.317L419.516 33.375L463.716 77.5744H464.324L508.523 33.375L552.723 77.5744H553.33L597.53 33.375L641.729 77.5744H642L642 77.8456L642 456H-248V77.8457L-248 77.8456L-248 77.8454V77.5744H-247.729L-203.529 33.375Z" fill="#FFF500"/>
<path d="M-159.33 77.5744L-166.401 84.6455L-163.472 87.5744H-159.33V77.5744ZM-203.529 33.375L-196.458 26.3039L-203.529 19.2329L-210.601 26.3039L-203.529 33.375ZM-158.722 77.5744V87.5744H-154.58L-151.651 84.6455L-158.722 77.5744ZM-114.523 33.375L-107.452 26.3039L-114.523 19.2329L-121.594 26.3039L-114.523 33.375ZM-70.3234 77.5744L-77.3945 84.6455L-74.4655 87.5744H-70.3234V77.5744ZM-69.7156 77.5744V87.5744H-65.5735L-62.6445 84.6455L-69.7156 77.5744ZM-25.5162 33.375L-18.4451 26.3039L-25.5162 19.2329L-32.5872 26.3039L-25.5162 33.375ZM18.6833 77.5744L11.6122 84.6455L14.5411 87.5744H18.6833V77.5744ZM19.291 77.5744V87.5744H23.4332L26.3621 84.6455L19.291 77.5744ZM63.4905 33.375L70.5616 26.3039L63.4905 19.2329L56.4194 26.3039L63.4905 33.375ZM107.69 77.5744L100.619 84.6455L103.548 87.5744H107.69V77.5744ZM108.298 77.5744V87.5744H112.44L115.369 84.6455L108.298 77.5744ZM152.497 33.375L159.568 26.3039L152.497 19.2329L145.426 26.3039L152.497 33.375ZM196.697 77.5744L189.625 84.6455L192.554 87.5744H196.697V77.5744ZM197.304 77.5744V87.5744H201.446L204.375 84.6455L197.304 77.5744ZM241.504 33.375L248.575 26.3039L241.504 19.2329L234.433 26.3039L241.504 33.375ZM285.703 77.5744L278.632 84.6455L281.561 87.5744H285.703V77.5744ZM286.31 77.5744V87.5744H290.452L293.381 84.6455L286.31 77.5744ZM330.51 33.375L337.581 26.3039L330.51 19.2329L323.439 26.3039L330.51 33.375ZM374.709 77.5744L367.638 84.6455L370.567 87.5744H374.709V77.5744ZM375.317 77.5744V87.5744H379.459L382.388 84.6455L375.317 77.5744ZM419.516 33.375L426.587 26.3039L419.516 19.2329L412.445 26.3039L419.516 33.375ZM463.716 77.5744L456.645 84.6455L459.574 87.5744H463.716V77.5744ZM464.324 77.5744V87.5744H468.466L471.395 84.6455L464.324 77.5744ZM508.523 33.375L515.594 26.3039L508.523 19.2329L501.452 26.3039L508.523 33.375ZM552.723 77.5744L545.651 84.6455L548.58 87.5744H552.723V77.5744ZM553.33 77.5744V87.5744H557.472L560.401 84.6455L553.33 77.5744ZM597.53 33.375L604.601 26.3039L597.53 19.2329L590.459 26.3039L597.53 33.375ZM641.729 77.5744L634.658 84.6455L637.587 87.5744H641.729V77.5744ZM642 77.5744L652 77.5677L651.993 67.5744H642V77.5744ZM642 77.8456L652 77.8456V77.8388L642 77.8456ZM642 456V466H652V456H642ZM-248 456H-258V466H-248V456ZM-248 77.8457H-238V73.6884L-240.947 70.7563L-248 77.8457ZM-248 77.8456L-255.053 70.7562L-262.179 77.8456L-255.053 84.9349L-248 77.8456ZM-248 77.8454L-240.947 84.9348L-238 82.0027V77.8454H-248ZM-248 77.5744V67.5744H-258V77.5744H-248ZM-247.729 77.5744V87.5744H-243.587L-240.658 84.6455L-247.729 77.5744ZM-152.259 70.5034L-196.458 26.3039L-210.601 40.4461L-166.401 84.6455L-152.259 70.5034ZM-158.722 67.5744H-159.33V87.5744H-158.722V67.5744ZM-121.594 26.3039L-165.793 70.5034L-151.651 84.6455L-107.452 40.4461L-121.594 26.3039ZM-63.2523 70.5034L-107.452 26.3039L-121.594 40.4461L-77.3945 84.6455L-63.2523 70.5034ZM-69.7156 67.5744H-70.3234V87.5744H-69.7156V67.5744ZM-32.5872 26.3039L-76.7867 70.5034L-62.6445 84.6455L-18.4451 40.4461L-32.5872 26.3039ZM25.7543 70.5034L-18.4451 26.3039L-32.5872 40.4461L11.6122 84.6455L25.7543 70.5034ZM19.291 67.5744H18.6833V87.5744H19.291V67.5744ZM56.4194 26.3039L12.22 70.5034L26.3621 84.6455L70.5616 40.4461L56.4194 26.3039ZM114.761 70.5034L70.5616 26.3039L56.4194 40.4461L100.619 84.6455L114.761 70.5034ZM108.298 67.5744H107.69V87.5744H108.298V67.5744ZM145.426 26.3039L101.227 70.5034L115.369 84.6455L159.568 40.4461L145.426 26.3039ZM203.768 70.5034L159.568 26.3039L145.426 40.4461L189.625 84.6455L203.768 70.5034ZM197.304 67.5744H196.697V87.5744H197.304V67.5744ZM234.433 26.3039L190.233 70.5034L204.375 84.6455L248.575 40.4461L234.433 26.3039ZM292.774 70.5034L248.575 26.3039L234.433 40.4461L278.632 84.6455L292.774 70.5034ZM286.31 67.5744H285.703V87.5744H286.31V67.5744ZM323.439 26.3039L279.239 70.5033L293.381 84.6455L337.581 40.4461L323.439 26.3039ZM381.78 70.5033L337.581 26.3039L323.439 40.4461L367.638 84.6455L381.78 70.5033ZM375.317 67.5744H374.709V87.5744H375.317V67.5744ZM412.445 26.3039L368.246 70.5033L382.388 84.6455L426.587 40.4461L412.445 26.3039ZM470.787 70.5033L426.587 26.3039L412.445 40.4461L456.645 84.6455L470.787 70.5033ZM464.324 67.5744H463.716V87.5744H464.324V67.5744ZM501.452 26.3039L457.253 70.5033L471.395 84.6455L515.594 40.4461L501.452 26.3039ZM559.794 70.5033L515.594 26.3039L501.452 40.4461L545.651 84.6455L559.794 70.5033ZM553.33 67.5744H552.723V87.5744H553.33V67.5744ZM560.401 84.6455L604.601 40.4461L590.459 26.3039L546.259 70.5033L560.401 84.6455ZM590.459 40.4461L634.658 84.6455L648.8 70.5033L604.601 26.3039L590.459 40.4461ZM642 67.5744H641.729V87.5744H642V67.5744ZM652 77.8388L652 77.5677L632 77.5812L632 77.8523L652 77.8388ZM652 456L652 77.8456L632 77.8455L632 456H652ZM-248 466H642V446H-248V466ZM-258 77.8457V456H-238V77.8457H-258ZM-255.053 84.9349L-255.053 84.935L-240.947 70.7563L-240.947 70.7562L-255.053 84.9349ZM-255.053 70.7561L-255.053 70.7562L-240.947 84.9349L-240.947 84.9348L-255.053 70.7561ZM-258 77.5744V77.8454H-238V77.5744H-258ZM-247.729 67.5744H-248V87.5744H-247.729V67.5744ZM-210.601 26.3039L-254.8 70.5034L-240.658 84.6455L-196.458 40.4461L-210.601 26.3039Z" fill="black" mask="url(#path-2-outside-1_408_1245)"/>
</svg>
