<svg width="80" height="97" viewBox="0 0 80 97" fill="none" xmlns="http://www.w3.org/2000/svg">
<path d="M43.5255 0C25.3761 0 10.6652 14.7132 10.6652 32.8603V45.8611L0.62673 58.6879C-0.875035 60.6063 0.491729 63.4107 2.92752 63.4107H10.6652V76.6335C10.6652 79.6989 13.1491 82.1827 16.2145 82.1827H29.2084V96.8341H66.7525V74.8685C66.7525 72.4693 67.6178 70.1549 69.186 68.3395C83.7458 51.4835 84.5791 21.5238 65.6788 7.41039C59.3169 2.66243 51.4739 0 43.5255 0Z" fill="#225AA8"/>
<path d="M44.089 65.4733C60.0196 65.4733 72.9339 52.559 72.9339 36.6284C72.9339 20.6979 60.0196 7.78357 44.089 7.78357C28.1584 7.78357 15.2441 20.6979 15.2441 36.6284C15.2441 52.559 28.1584 65.4733 44.089 65.4733Z" fill="white"/>
<path d="M37.4499 24.4954C39.35 24.4954 41.0166 23.4881 41.9415 21.9772H54.1616C55.6794 21.9772 56.9088 20.7478 56.9088 19.2301C56.9088 17.7123 55.6794 16.4829 54.1616 16.4829H41.9415C41.0166 14.972 39.35 13.9647 37.4499 13.9647C34.5425 13.9647 32.1846 16.3227 32.1846 19.2301C32.1846 22.1374 34.5425 24.4954 37.4499 24.4954Z" fill="#428DCC"/>
<path d="M60.3428 37.0864C58.4427 37.0864 56.7761 38.0937 55.8512 39.6046H33.7872C32.2694 39.6046 31.04 40.834 31.04 42.3518C31.04 43.8696 32.2694 45.0989 33.7872 45.0989H55.8512C56.7761 46.6098 58.4427 47.6171 60.3428 47.6171C63.2502 47.6171 65.6081 45.2591 65.6081 42.3518C65.6081 39.4444 63.2502 37.0864 60.3428 37.0864Z" fill="#428DCC"/>
<path d="M54.1622 50.822H48.1231C47.1983 49.3111 45.5316 48.3038 43.6315 48.3038C40.7242 48.3038 38.3662 50.6618 38.3662 53.5692C38.3662 56.4765 40.7242 58.8345 43.6315 58.8345C45.5316 58.8345 47.1983 57.8272 48.1231 56.3163H54.1622C55.68 56.3163 56.9093 55.087 56.9093 53.5692C56.9093 52.0514 55.68 50.822 54.1622 50.822Z" fill="#428DCC"/>
<path d="M62.6323 33.4236C64.1501 33.4236 65.3795 32.1943 65.3795 30.6765C65.3795 29.1587 64.1501 27.9293 62.6323 27.9293H31.4112C30.4864 26.4184 28.8197 25.4111 26.9196 25.4111C24.0123 25.4111 21.6543 27.7691 21.6543 30.6765C21.6543 33.5838 24.0123 35.9418 26.9196 35.9418C28.8197 35.9418 30.4864 34.9345 31.4112 33.4236H62.6323Z" fill="#428DCC"/>
</svg>
