<svg width="120" height="70" viewBox="0 0 120 70" fill="none" xmlns="http://www.w3.org/2000/svg">
<path d="M93.7225 69.9422H10.5732C4.73455 69.9422 0 65.2076 0 59.369V10.5732C0 4.73455 4.73455 0 10.5732 0H93.7225C99.5611 0 104.296 4.73455 104.296 10.5732V59.369C104.296 65.2076 99.5611 69.9422 93.7225 69.9422Z" fill="#D7687D"/>
<path d="M95.6054 4.18958H8.69238V65.5398H95.6054V4.18958Z" fill="#99B43E"/>
<path d="M30.7179 25.5979C28.3015 29.895 25.9436 39.6939 31.8127 42.4378C38.2057 45.425 44.5543 40.8167 48.9543 36.4752C54.1965 31.3032 57.9813 24.9733 64.5381 21.2072C68.9475 18.6738 75.1441 17.0949 79.2236 21.013C87.0132 28.4915 76.8142 42.3115 72.0329 48.4215" stroke="white" stroke-width="8" stroke-miterlimit="10" stroke-linecap="round"/>
<path d="M72.7346 53.8672L67.7334 47.0367L113.327 13.6586C115.147 12.3253 117.703 12.7206 119.037 14.5428L119.21 14.7791C120.543 16.599 120.148 19.1557 118.326 20.4891L72.7346 53.8672Z" fill="#D7687D"/>
<path d="M72.8423 53.7946L67.8364 46.9572L65.2539 51.6356L67.6025 54.8426L72.8423 53.7946Z" fill="white"/>
<path d="M65.2544 51.6356L62.9736 55.7689L67.6029 54.8426L65.2544 51.6356Z" fill="#D7687D"/>
</svg>
