<svg width="120" height="110" viewBox="0 0 120 110" fill="none" xmlns="http://www.w3.org/2000/svg">
<path d="M48.6934 13.8526C56.3074 20.6749 63.6556 27.9804 70.7107 35.7519C82.4004 34.3542 94.1237 33.6356 105.816 33.5928C98.4165 42.3944 91.5374 51.0792 85.1337 59.6016C88.9049 69.4725 92.5336 79.5031 96.0212 89.6911C86.2989 85.5287 76.2467 82.1099 65.9477 79.4762C58.0183 85.855 50.4824 92.2499 43.3032 98.6233C41.8172 89.4812 40.4474 80.1885 39.1947 70.749C29.5316 66.8613 19.6001 63.7316 9.4811 61.3854C19.5484 55.4391 29.9199 49.8749 40.5784 44.7137C42.9504 34.6924 45.6467 24.3987 48.6934 13.8526Z" fill="#FF2626"/>
<path d="M67.594 10.6805C73.0474 15.5669 78.3105 20.7995 83.3636 26.3656C91.7361 25.3646 100.133 24.8499 108.507 24.8192C103.207 31.1232 98.2804 37.3436 93.6938 43.4477C96.3949 50.5176 98.9939 57.7018 101.492 64.9988C94.5284 62.0176 87.3287 59.5689 79.9522 57.6826C74.2728 62.2513 68.8754 66.8315 63.7333 71.3964C62.669 64.8485 61.6879 58.1927 60.7907 51.4318C53.8696 48.6473 46.7563 46.4057 39.5087 44.7253C46.7193 40.4664 54.1477 36.481 61.7818 32.7844C63.4806 25.6068 65.4118 18.2341 67.594 10.6805Z" stroke="black" stroke-width="10"/>
</svg>
