<svg width="106" height="121" viewBox="0 0 106 121" fill="none" xmlns="http://www.w3.org/2000/svg">
<path d="M52.9999 89.5461L78.001 46.2443H28.001L52.9999 89.5461Z" fill="#D7B646" stroke="#C5654B" stroke-width="5" stroke-miterlimit="10" stroke-linejoin="round"/>
<path d="M53 3L78.0011 46.3017L103 31.8678L53 3Z" fill="#D7B646" stroke="#C5654B" stroke-width="5" stroke-miterlimit="10" stroke-linejoin="round"/>
<path d="M78.0011 46.2443L53 89.5461H103L78.0011 46.2443Z" fill="#D7B646" stroke="#C5654B" stroke-width="5" stroke-miterlimit="10" stroke-linejoin="round"/>
<path d="M28.0011 46.2443L3 89.5461H53L28.0011 46.2443Z" fill="#D7B646" stroke="#C5654B" stroke-width="5" stroke-miterlimit="10" stroke-linejoin="round"/>
<path d="M103 89.6035L78.001 46.3017L103 31.8678V89.6035Z" fill="#C5654B" stroke="#C5654B" stroke-width="5" stroke-miterlimit="10" stroke-linejoin="round"/>
<path d="M53 89.5461V118.471L3 89.5461H53Z" fill="#D7B646" stroke="#C5654B" stroke-width="5" stroke-miterlimit="10" stroke-linejoin="round"/>
<path d="M103 89.5461H53V118.471L103 89.5461Z" fill="#C5654B" stroke="#C5654B" stroke-width="5" stroke-miterlimit="10" stroke-linejoin="round"/>
<path d="M53 3L28.0011 46.3017L3 31.8678L53 3Z" fill="white" stroke="#D7B646" stroke-width="5" stroke-miterlimit="10" stroke-linejoin="round"/>
<path d="M3 89.6035L28.0011 46.3017L3 31.8678V89.6035Z" fill="white" stroke="#C5654B" stroke-width="5" stroke-miterlimit="10" stroke-linejoin="round"/>
<path d="M52.9999 3L28.001 46.3017H78.001L52.9999 3Z" fill="white" stroke="#C5654B" stroke-width="5" stroke-miterlimit="10" stroke-linejoin="round"/>
</svg>
