<svg width="934" height="538" viewBox="0 0 934 538" fill="none" xmlns="http://www.w3.org/2000/svg">
<path d="M137.178 268.912H5.20703V400.869H137.178V268.912Z" fill="black" stroke="black" stroke-width="10" stroke-miterlimit="10"/>
<path d="M269.149 268.912H137.178V400.869H269.149V268.912Z" fill="white" stroke="black" stroke-width="10" stroke-miterlimit="10"/>
<path d="M401.118 268.912H269.147V400.869H401.118V268.912Z" fill="#00E309" stroke="black" stroke-width="10" stroke-miterlimit="10"/>
<path d="M401.118 136.957H269.147V268.914H401.118V136.957Z" fill="white" stroke="black" stroke-width="10" stroke-miterlimit="10"/>
<path d="M269.149 5H137.178V136.957H269.149V5Z" fill="#0038FF" stroke="black" stroke-width="10" stroke-miterlimit="10"/>
<path d="M533.089 268.912H401.118V400.869H533.089V268.912Z" fill="white" stroke="black" stroke-width="10" stroke-miterlimit="10"/>
<path d="M665.06 268.912H533.089V400.869H665.06V268.912Z" fill="white" stroke="black" stroke-width="10" stroke-miterlimit="10"/>
<path d="M797.029 268.912H665.058V400.869H797.029V268.912Z" fill="black" stroke="black" stroke-width="10" stroke-miterlimit="10"/>
<path d="M796.971 137H665V268.957H796.971V137Z" fill="#FFED00" stroke="black" stroke-width="10" stroke-miterlimit="10"/>
<path d="M797.029 400.867H665.058V532.824H797.029V400.867Z" fill="white" stroke="black" stroke-width="10" stroke-miterlimit="10"/>
<path d="M929 400.867H797.029V532.824H929V400.867Z" fill="#FF2626" stroke="black" stroke-width="10" stroke-miterlimit="10"/>
<path d="M79.8934 299.567C85.136 299.202 91.1109 298.713 95.9882 298.47C105.376 297.983 113.546 304.566 109.034 313.222C94.1583 341.627 77.333 366.376 43.0717 379.908C32.7083 383.93 27.7092 371.984 37.8291 368.448C64.8961 359.061 85.0142 334.679 94.0365 313.953C95.0124 311.636 94.0365 309.319 91.1109 309.443C85.9901 309.565 77.0895 310.419 71.6034 311.027C63.3134 322 52.5829 334.801 44.1712 340.53C36.003 346.015 28.8087 335.531 37.0987 330.411C48.8032 323.217 64.6545 300.787 70.2623 291.155C74.2856 284.328 86.4789 290.179 80.7475 298.348L79.8934 299.567Z" fill="white"/>
<path d="M220.962 369.424C205.843 369.91 197.431 369.789 185.603 369.424C173.166 368.937 166.948 362.597 166.583 352.357C166.217 340.286 166.217 331.51 166.583 321.024C166.948 312.003 172.436 304.809 185.238 304.201C198.894 303.592 210.233 303.836 222.059 304.201C232.179 304.566 239.128 312.003 239.374 319.683C239.739 330.778 239.739 341.627 239.374 352.111C239.006 362.352 232.423 369.058 220.962 369.424ZM226.572 323.828C226.328 318.586 223.768 315.539 217.549 315.294C207.064 314.928 197.431 314.928 187.922 315.294C181.095 315.537 179.021 318.951 178.778 323.95C178.291 331.874 178.291 341.384 178.778 349.673C179.021 355.037 181.46 357.353 188.165 357.597C199.261 357.962 206.575 358.205 217.671 357.597C222.792 357.353 226.206 354.55 226.45 349.429C226.815 341.384 226.937 331.995 226.572 323.828Z" fill="#06AD9B"/>
<path d="M302.775 374.3C293.875 377.592 289.73 365.644 298.874 362.475C321.063 354.794 340.327 335.289 349.96 317.123C351.058 315.049 350.569 313.1 347.887 313.1C340.206 312.978 323.38 313.587 312.65 313.832C305.334 314.076 304.847 302.372 312.65 302.007C321.55 301.642 339.473 301.398 351.788 301.398C362.762 301.398 368.979 308.347 364.225 316.638C360.08 323.831 355.69 330.779 350.691 337.362C360.811 343.458 376.295 353.699 381.903 361.501C386.78 368.327 377.636 377.837 371.905 370.644C365.93 363.207 353.371 352.112 343.375 346.14C332.646 358.085 319.479 367.96 302.775 374.3Z" fill="white"/>
<path d="M445.915 376.251C444.817 373.082 446.28 369.057 451.89 367.838C479.933 361.742 493.711 337.603 494.808 317.854C495.052 312.977 493.224 310.906 488.468 310.661C479.811 310.174 460.425 310.539 454.45 310.783C450.549 311.026 447.988 313.464 447.867 316.635C447.745 319.806 447.988 328.338 448.354 332.483C448.962 340.65 435.917 342.358 435.308 333.459C434.943 328.338 435.065 315.781 435.308 312.123C435.673 305.541 438.966 300.053 452.622 299.81C462.62 299.566 477.007 299.323 490.785 299.444C504.928 299.566 509.319 304.2 508.221 318.341C506.269 345.04 488.957 370.763 455.428 380.395C450.671 381.736 447.013 379.298 445.915 376.251Z" fill="#06AD9B"/>
<path d="M565.158 336.264C560.77 336.264 558.696 333.338 558.696 330.411C558.696 327.364 561.013 324.193 565.158 324.193H641.727C645.872 324.193 647.946 327.24 647.946 330.289C647.946 333.215 645.872 336.264 641.727 336.264H565.158Z" fill="#06AD9B"/>
<path d="M720.37 375.031C720.613 384.906 706.714 385.271 707.203 375.518C708.057 355.769 708.422 307.978 707.935 290.422C707.691 282.133 720.859 282.255 720.615 290.544C720.493 296.518 720.372 307.124 720.25 319.071C720.859 319.071 721.591 319.071 722.323 319.193C729.151 320.29 745.002 324.191 751.586 329.798C757.926 335.162 750.977 345.768 744.026 340.648C738.784 336.747 726.712 331.991 720.25 330.772C720.126 347.601 720.126 365.155 720.37 375.031ZM738.049 303.468C731.587 301.152 736.098 293.35 742.073 295.177C745.487 296.275 751.949 299.2 754.875 302.004C759.995 307.002 753.168 314.926 748.778 310.293C747.072 308.467 740.61 304.444 738.049 303.468ZM748.9 292.13C742.316 290.057 746.583 282.133 752.558 283.718C755.972 284.693 762.556 287.375 765.603 290.057C770.968 294.812 764.262 303.101 759.75 298.592C757.922 296.764 751.46 292.984 748.9 292.13Z" fill="white"/>
</svg>
