<svg width="100" height="110" viewBox="0 0 100 110" fill="none" xmlns="http://www.w3.org/2000/svg">
<path d="M86.0651 60.3552C85.2909 57.9955 83.7624 55.9285 81.0875 55.8119C79.4622 55.7424 77.8792 56.2511 76.2812 56.5538C72.9115 57.189 69.5046 55.7871 66.9365 53.6208C59.7952 47.6011 57.5867 36.177 59.9341 27.4675C61.0259 23.413 64.4824 19.9143 64.3484 15.5943C64.2169 11.3165 61.5891 8.24208 60.8745 7.40587C56.6885 2.5077 50.4901 1.88241 46.2346 1.45065C37.6095 0.57722 30.9272 3.19255 27.8727 4.42826C23.2326 6.30664 18.9324 9.07581 15.1682 12.3611C-3.98029 29.0853 -4.88598 58.2213 11.811 77.0273C17.5131 83.4515 24.7512 88.2604 33.1704 90.2752C44.8054 93.0568 59.6661 91.0916 70.3036 85.5681C79.1049 80.9975 89.7102 71.4567 86.0651 60.3552ZM13.9772 54.7995C10.0021 54.7995 6.78128 51.5787 6.78128 47.6036C6.78128 43.6285 10.0021 40.4077 13.9772 40.4077C17.9523 40.4077 21.173 43.6285 21.173 47.6036C21.173 51.5787 17.9523 54.7995 13.9772 54.7995ZM23.1581 77.1315C19.183 77.1315 15.9622 73.9108 15.9622 69.9357C15.9622 65.9605 19.183 62.7398 23.1581 62.7398C27.1332 62.7398 30.354 65.9605 30.354 69.9357C30.354 73.9108 27.1332 77.1315 23.1581 77.1315ZM23.1581 32.4674C19.183 32.4674 15.9622 29.2466 15.9622 25.2715C15.9622 21.2964 19.183 18.0756 23.1581 18.0756C27.1332 18.0756 30.354 21.2964 30.354 25.2715C30.354 29.2466 27.1332 32.4674 23.1581 32.4674ZM44.9939 23.2865C41.0188 23.2865 37.798 20.0657 37.798 16.0906C37.798 12.1155 41.0188 8.89467 44.9939 8.89467C48.969 8.89467 52.1898 12.1155 52.1898 16.0906C52.1898 20.0657 48.969 23.2865 44.9939 23.2865Z" fill="#D98D42"/>
<path d="M23.1578 77.1315C27.132 77.1315 30.3537 73.9098 30.3537 69.9356C30.3537 65.9615 27.132 62.7397 23.1578 62.7397C19.1836 62.7397 15.9619 65.9615 15.9619 69.9356C15.9619 73.9098 19.1836 77.1315 23.1578 77.1315Z" fill="white"/>
<path d="M13.9771 54.7995C17.9513 54.7995 21.173 51.5778 21.173 47.6036C21.173 43.6294 17.9513 40.4077 13.9771 40.4077C10.003 40.4077 6.78125 43.6294 6.78125 47.6036C6.78125 51.5778 10.003 54.7995 13.9771 54.7995Z" fill="white"/>
<path d="M23.1578 32.4674C27.132 32.4674 30.3537 29.2457 30.3537 25.2715C30.3537 21.2973 27.132 18.0756 23.1578 18.0756C19.1836 18.0756 15.9619 21.2973 15.9619 25.2715C15.9619 29.2457 19.1836 32.4674 23.1578 32.4674Z" fill="white"/>
<path d="M44.9937 23.2864C48.9679 23.2864 52.1896 20.0647 52.1896 16.0905C52.1896 12.1164 48.9679 8.89465 44.9937 8.89465C41.0196 8.89465 37.7979 12.1164 37.7979 16.0905C37.7979 20.0647 41.0196 23.2864 44.9937 23.2864Z" fill="white"/>
<path d="M98.4368 14.6886L65.3257 72.4492L49.5146 63.3849L82.6257 5.62424C85.5016 0.606973 91.3749 -1.43269 95.7396 1.06851C97.9231 2.3191 99.3152 4.47041 99.804 6.93438C100.293 9.40084 99.876 12.1775 98.4368 14.6886Z" fill="#8F549E"/>
<path d="M49.4972 63.3457L45.3066 70.6566L61.1169 79.7189L65.3074 72.408L49.4972 63.3457Z" fill="white"/>
<path d="M61.1347 79.7593L45.3236 70.6949L25.6416 96.6051L29.2768 98.6894L45.0879 107.751L48.723 109.836L61.1347 79.7593Z" fill="#8F549E"/>
</svg>
