<svg width="100" height="88" viewBox="0 0 100 88" fill="none" xmlns="http://www.w3.org/2000/svg">
<path d="M0 33.7634H0.638329C0.21785 35.8494 0 38.0064 0 40.215V33.7634Z" fill="#BD9048"/>
<path d="M67.1022 33.7634V40.215C67.1022 38.0064 66.8843 35.8494 66.4639 33.7634H67.1022Z" fill="#BD9048"/>
<path d="M89.76 40.215H52.0693V77.4193H89.76V40.215Z" fill="#C7BF4D"/>
<path d="M84.096 45.8065H57.7344V71.828H84.096V45.8065Z" fill="#5BAB4A"/>
<path d="M78.2132 51.6129H63.6162V66.0215H78.2132V51.6129Z" fill="#C7BF4D"/>
<path d="M73.856 73.5484H67.9736V87.957H73.856V73.5484Z" fill="#C7BF4D"/>
<path d="M63.6167 73.5484H57.7344V87.957H63.6167V73.5484Z" fill="#C7BF4D"/>
<path d="M84.0962 73.5484H78.2139V87.957H84.0962V73.5484Z" fill="#C7BF4D"/>
<path d="M67.1024 23.2258H0V33.7635H67.1024V23.2258Z" fill="white"/>
<path d="M67.1024 40.215C67.1024 38.0064 66.8845 35.8494 66.4641 33.7634H0.638329C0.21785 35.8494 0 38.0064 0 40.215C0 57.1957 12.9477 71.1892 29.6296 73.1075V87.957H37.4728V73.1075C54.1547 71.1892 67.1024 57.1957 67.1024 40.215Z" fill="#5BAB4A"/>
<path d="M23.3113 0H12.2002V23.2258H23.3113V0Z" fill="#C7BF4D"/>
<path d="M54.6844 0H43.5732V23.2258H54.6844V0Z" fill="#C7BF4D"/>
<path d="M73.856 29.6774H67.9736V44.086H73.856V29.6774Z" fill="#C7BF4D"/>
<path d="M84.0962 29.6774H78.2139V44.086H84.0962V29.6774Z" fill="#C7BF4D"/>
<path d="M100 51.6129V45.8065H85.4031V51.6129H100Z" fill="#C7BF4D"/>
<path d="M100 61.7205V55.914H85.4031V61.7205H100Z" fill="#C7BF4D"/>
<path d="M100 71.8279V66.0215H85.4031V71.8279H100Z" fill="#C7BF4D"/>
</svg>
