<svg width="491" height="128" viewBox="0 0 491 128" fill="none" xmlns="http://www.w3.org/2000/svg">
<mask id="mask0_1217_1841" style="mask-type:alpha" maskUnits="userSpaceOnUse" x="-12" y="0" width="503" height="128">
<rect x="-6" y="6" width="491" height="116" fill="#FFED00" stroke="black" stroke-width="12"/>
</mask>
<g mask="url(#mask0_1217_1841)">
<path d="M487.692 117.311C487.805 120.672 484.784 123.73 481.461 123.693C478.289 123.655 475.419 120.861 475.306 117.689C475.193 114.366 478.214 111.269 481.537 111.307C484.746 111.307 487.616 114.101 487.692 117.311Z" fill="#FCAA3B"/>
<path d="M466.734 117.61C466.658 120.82 463.751 123.652 460.541 123.577C457.331 123.501 454.499 120.593 454.575 117.384C454.65 114.174 457.558 111.342 460.768 111.417C463.977 111.493 466.809 114.401 466.734 117.61Z" fill="#FCAA3B"/>
<path d="M445.663 117.305C445.626 120.892 442.869 123.573 439.546 123.309C436.072 123.007 434.108 120.93 434.033 117.418C433.957 114.057 436.79 111.414 440.113 111.678C443.624 111.98 445.399 114.057 445.663 117.305Z" fill="#FCAA3B"/>
<path d="M487.276 96.4653C487.088 99.9393 485.351 102.205 481.801 102.356C478.289 102.507 476.137 100.619 475.759 97.0695C475.419 93.671 477.987 90.8767 481.386 90.9144C484.973 90.9522 486.899 92.9535 487.276 96.4653Z" fill="#FCAA3B"/>
<path d="M420.136 123.162C416.625 122.974 414.397 121.274 414.284 117.687C414.17 114.138 416.096 111.985 419.646 111.872C423.195 111.759 425.31 113.684 425.461 117.234C425.612 120.821 423.61 122.747 420.136 123.162Z" fill="#FCAA3B"/>
<path d="M399.029 123.049C395.743 122.671 393.704 121.01 393.553 117.573C393.402 114.326 396.046 111.758 399.255 111.985C402.616 112.249 404.542 114.213 404.466 117.573C404.428 121.01 402.352 122.709 399.029 123.049Z" fill="#FCAA3B"/>
<path d="M460.73 102.315C457.218 102.05 455.104 100.275 455.066 96.6881C455.028 93.1386 457.03 91.0617 460.617 91.024C464.166 90.9862 466.243 92.9875 466.281 96.5748C466.319 100.162 464.204 101.975 460.73 102.315Z" fill="#FCAA3B"/>
<path d="M440.566 102.168C436.715 102.243 434.147 99.8263 434.298 96.5789C434.449 93.2181 436.299 91.3301 439.66 91.1413C442.907 90.9902 445.437 93.4825 445.324 96.7299C445.211 100.128 443.247 101.828 440.566 102.168Z" fill="#FCAA3B"/>
<path d="M481.234 70.2559C484.595 70.4824 486.634 72.1062 486.936 75.4669C487.238 78.6388 484.671 81.3576 481.461 81.2443C478.1 81.131 476.137 79.243 476.061 75.8823C475.986 72.4838 478.062 70.7845 481.234 70.2559Z" fill="#FCAA3B"/>
<path d="M384.566 117.423C384.15 120.671 382.451 122.861 379.09 122.823C375.767 122.785 373.728 120.708 373.804 117.348C373.842 114.213 375.843 112.25 378.939 112.174C382.3 112.061 384.075 114.138 384.566 117.423Z" fill="#FCAA3B"/>
<path d="M358.209 122.748C355.112 122.257 353.035 120.52 353.111 117.386C353.186 114.252 355.263 112.251 358.36 112.326C361.494 112.402 363.457 114.441 363.42 117.575C363.382 120.747 361.267 122.371 358.209 122.748Z" fill="#FCAA3B"/>
<path d="M419.874 102.164C416.588 101.749 414.474 100.05 414.511 96.6511C414.549 93.2904 416.551 91.2891 419.911 91.2891C423.272 91.2891 425.273 93.3282 425.273 96.6889C425.273 100.05 423.159 101.749 419.874 102.164Z" fill="#FCAA3B"/>
<path d="M404.429 96.8391C403.825 100.049 402.012 102.126 398.651 101.899C395.593 101.673 393.629 99.5957 393.78 96.4993C393.931 93.2141 396.121 91.2127 399.444 91.4393C402.503 91.5903 404.127 93.7427 404.429 96.8391Z" fill="#FCAA3B"/>
<path d="M466.167 75.8434C465.563 79.2419 463.826 81.3187 460.465 81.1677C457.142 81.0166 455.179 78.9398 455.33 75.6168C455.481 72.2938 457.558 70.368 460.881 70.4813C464.242 70.5568 465.79 72.7847 466.167 75.8434Z" fill="#FCAA3B"/>
<path d="M439.961 81.1745C436.789 80.7969 434.599 79.1354 434.561 75.7747C434.523 72.6783 436.525 70.6392 439.621 70.5259C442.944 70.4126 445.059 72.4895 445.096 75.7747C445.134 78.9466 443.057 80.6081 439.961 81.1745Z" fill="#FCAA3B"/>
<path d="M481.876 50.5877C484.708 51.0408 486.747 52.7778 486.747 55.8742C486.709 58.9706 484.746 60.8587 481.612 61.0852C478.817 61.3118 476.098 58.3664 476.249 55.5721C476.363 52.9288 478.968 50.5121 481.876 50.5877Z" fill="#FCAA3B"/>
<path d="M384.189 96.6559C383.811 99.8278 382.036 101.791 378.864 101.64C375.919 101.527 374.069 99.5635 374.107 96.6181C374.144 93.4462 376.183 91.5204 379.355 91.6336C382.301 91.7469 383.887 93.7105 384.189 96.6559Z" fill="#FCAA3B"/>
<path d="M425.084 75.7294C424.744 78.7502 423.082 80.8271 419.986 80.9026C416.89 80.9781 414.851 79.0146 414.775 75.9182C414.7 72.8218 416.663 70.7827 419.76 70.7071C422.894 70.6316 424.593 72.6329 425.084 75.7294Z" fill="#FCAA3B"/>
<path d="M465.865 55.7194C465.525 58.8158 463.864 60.8926 460.767 60.9304C457.671 61.0059 455.632 59.0423 455.556 55.9459C455.481 52.8495 457.444 50.8104 460.541 50.7349C463.675 50.6971 465.374 52.6985 465.865 55.7194Z" fill="#FCAA3B"/>
<path d="M486.295 35.2546C485.842 38.4266 484.029 39.9748 481.008 39.7104C477.912 39.4461 476.515 37.407 476.817 34.4239C477.119 31.5541 478.969 30.1569 481.763 30.3079C484.897 30.459 486.219 32.4225 486.295 35.2546Z" fill="#FCAA3B"/>
<path d="M424.631 55.7204C424.48 58.7412 423.008 60.516 419.911 60.516C416.853 60.516 415.191 58.779 415.229 55.7581C415.267 52.926 416.853 51.3023 419.647 51.189C422.706 51.0757 424.329 52.7372 424.631 55.7204Z" fill="#FCAA3B"/>
<path d="M439.999 50.9629C442.982 51.3027 444.757 52.9642 444.682 55.9473C444.606 59.1948 442.605 60.894 439.433 60.6675C436.45 60.4787 434.864 58.4773 435.015 55.532C435.166 52.5489 437.054 51.0762 439.999 50.9629Z" fill="#FCAA3B"/>
<path d="M465.374 34.5384C465.185 37.8614 463.712 39.6739 460.616 39.6739C457.784 39.6739 456.122 38.0502 456.047 35.2181C455.971 32.1595 457.633 30.4602 460.729 30.4225C463.599 30.3847 464.959 32.1595 465.374 34.5384Z" fill="#FCAA3B"/>
<path d="M379.355 80.5268C376.107 80.2625 374.37 78.7143 374.484 75.6179C374.559 72.7858 376.221 71.1621 379.053 71.1621C382.149 71.1621 383.773 72.8991 383.735 75.9578C383.697 78.8654 381.885 80.187 379.355 80.5268Z" fill="#FCAA3B"/>
<path d="M403.976 75.6537C403.749 78.7124 402.239 80.6004 399.218 80.6382C396.008 80.7137 394.158 78.8257 394.233 75.616C394.309 72.6328 396.159 70.9336 399.142 70.9336C402.125 70.9714 403.674 72.8216 403.976 75.6537Z" fill="#FCAA3B"/>
<path d="M363.042 96.6541C362.816 99.675 361.23 101.45 358.171 101.374C355.075 101.299 353.451 99.4862 353.564 96.4276C353.64 93.5955 355.301 91.9718 358.171 91.934C361.23 91.8585 362.816 93.5955 363.042 96.6541Z" fill="#FCAA3B"/>
<path d="M337.176 122.328C334.042 121.875 332.456 120.1 332.682 117.117C332.909 114.058 334.835 112.51 337.818 112.737C340.877 112.925 342.387 114.889 342.198 117.872C342.009 120.931 340.008 122.252 337.176 122.328Z" fill="#FCAA3B"/>
<path d="M322.109 117.57C321.769 120.288 320.372 121.988 317.502 121.988C314.708 121.988 313.008 120.402 312.933 117.57C312.895 114.549 314.632 112.812 317.653 112.887C320.523 113 321.882 114.813 322.109 117.57Z" fill="#FCAA3B"/>
<path d="M444.417 35.1413C444.04 37.8601 442.567 39.5971 439.735 39.5216C436.903 39.4461 435.279 37.7469 435.317 34.9148C435.355 32.0827 437.092 30.459 439.886 30.4967C442.756 30.5723 444.153 32.347 444.417 35.1413Z" fill="#FCAA3B"/>
<path d="M399.255 51.2285C401.936 51.6061 403.636 53.041 403.598 55.8731C403.56 58.7052 401.936 60.3667 399.142 60.3667C396.083 60.3667 394.422 58.5919 394.535 55.571C394.611 52.7767 396.423 51.4173 399.255 51.2285Z" fill="#FCAA3B"/>
<path d="M358.435 80.4188C355.452 79.9279 353.677 78.4552 353.791 75.6231C353.904 73.0176 355.528 71.3939 358.133 71.3561C360.965 71.3183 362.702 72.9798 362.74 75.7741C362.778 78.644 360.852 79.9279 358.435 80.4188Z" fill="#FCAA3B"/>
<path d="M342.085 96.2396C341.82 99.3361 340.461 101.111 337.629 101.186C334.608 101.262 332.833 99.5626 332.909 96.504C332.946 93.7097 334.646 92.0859 337.478 92.0859C340.31 92.1237 341.669 93.8985 342.085 96.2396Z" fill="#FCAA3B"/>
<path d="M424.404 35.1402C423.913 37.8213 422.441 39.6338 419.571 39.445C417.003 39.2939 415.341 37.5947 415.417 34.9514C415.53 32.1571 417.305 30.4579 420.137 30.6089C422.743 30.76 424.102 32.497 424.404 35.1402Z" fill="#FCAA3B"/>
<path d="M398.952 39.4037C396.385 38.9505 394.685 37.5156 394.761 34.9101C394.836 32.3423 396.573 30.6809 399.141 30.7564C401.709 30.8319 403.37 32.5689 403.295 35.1367C403.257 37.7422 401.482 39.0638 398.952 39.4037Z" fill="#FCAA3B"/>
<path d="M321.921 96.5769C321.581 99.1068 320.222 100.919 317.654 100.957C314.86 101.033 313.085 99.2579 313.123 96.4636C313.161 93.9336 314.935 92.2343 317.503 92.2721C320.109 92.3099 321.506 94.0469 321.921 96.5769Z" fill="#FCAA3B"/>
<path d="M301.114 117.419C300.774 119.949 299.415 121.761 296.847 121.799C294.053 121.874 292.278 120.1 292.316 117.305C292.353 114.775 294.128 113.076 296.696 113.114C299.264 113.152 300.661 114.889 301.114 117.419Z" fill="#FCAA3B"/>
<path d="M481.687 10.5605C484.33 11.0892 486.143 12.5996 485.916 15.4695C485.69 17.9995 483.99 19.661 481.347 19.5099C478.553 19.3589 476.854 17.5463 477.08 14.7143C477.269 12.1465 479.082 10.8249 481.687 10.5605Z" fill="#FCAA3B"/>
<path d="M460.655 10.6348C463.185 11.0124 464.96 12.4095 464.998 14.9773C465.035 17.7716 463.223 19.5464 460.428 19.4331C457.899 19.3198 456.237 17.5828 456.313 14.9773C456.388 12.4095 458.125 11.0501 460.655 10.6348Z" fill="#FCAA3B"/>
<path d="M383.622 55.7995C383.244 58.4805 381.809 60.2931 379.015 60.2553C376.485 60.2175 374.786 58.5183 374.748 55.9883C374.71 53.2317 376.447 51.457 379.242 51.4947C381.772 51.4947 383.169 53.2695 383.622 55.7995Z" fill="#FCAA3B"/>
<path d="M341.822 75.7312C341.52 78.2612 340.16 80.036 337.555 80.1115C334.949 80.187 333.25 78.5255 333.174 75.9578C333.099 73.3523 334.76 71.653 337.328 71.5775C339.934 71.4264 341.368 73.1634 341.822 75.7312Z" fill="#FCAA3B"/>
<path d="M439.924 19.392C437.281 19.0521 435.544 17.655 435.62 15.0117C435.657 12.4062 437.394 10.7825 440 10.858C442.379 10.9335 443.965 12.5195 444.04 14.8984C444.116 17.5417 442.454 18.9766 439.924 19.392Z" fill="#FCAA3B"/>
<path d="M362.59 55.8328C362.099 58.6271 360.589 60.2886 357.983 60.0998C355.415 59.911 353.829 58.1362 354.056 55.4929C354.245 53.114 355.906 51.6036 358.323 51.6413C360.966 51.6791 362.25 53.4916 362.59 55.8328Z" fill="#FCAA3B"/>
<path d="M317.464 79.7711C314.972 79.5445 313.537 78.2229 313.575 75.7684C313.612 73.2762 315.085 71.879 317.54 71.9168C320.032 71.9545 321.429 73.4272 321.391 75.8817C321.391 78.3361 319.881 79.5822 317.464 79.7711Z" fill="#FCAA3B"/>
<path d="M279.78 117.572C279.515 120.102 278.118 121.461 275.664 121.386C273.172 121.31 271.812 119.762 271.926 117.307C272.001 114.815 273.549 113.456 276.004 113.569C278.458 113.645 279.667 115.193 279.78 117.572Z" fill="#FCAA3B"/>
<path d="M337.365 51.9805C339.819 52.0938 341.292 53.3399 341.292 55.8699C341.292 58.3999 339.819 59.7215 337.327 59.6837C335.024 59.646 333.702 58.3243 333.627 56.0587C333.513 53.5664 334.835 52.207 337.365 51.9805Z" fill="#FCAA3B"/>
<path d="M419.873 11.1211C422.289 11.2721 423.8 12.556 423.8 15.0482C423.837 17.5027 422.403 18.9754 419.948 19.0132C417.494 19.0509 416.021 17.616 415.983 15.1615C415.945 12.6693 417.38 11.3477 419.873 11.1211Z" fill="#FCAA3B"/>
<path d="M383.055 34.9917C382.904 37.4084 381.62 38.9188 379.128 38.9188C376.674 38.9566 375.201 37.5217 375.163 35.0672C375.126 32.6127 376.56 31.1401 379.015 31.1023C381.545 31.0645 382.867 32.4994 383.055 34.9917Z" fill="#FCAA3B"/>
<path d="M300.623 96.5054C300.396 99.1486 299.075 100.584 296.582 100.546C294.09 100.508 292.693 99.0354 292.731 96.5809C292.768 94.0887 294.241 92.6915 296.696 92.7293C299.188 92.7293 300.434 94.2775 300.623 96.5054Z" fill="#FCAA3B"/>
<path d="M279.514 96.6571C279.212 98.9227 278.042 100.358 275.7 100.244C273.397 100.131 272.113 98.6962 272.226 96.3927C272.34 94.3159 273.624 93.0698 275.738 93.032C278.079 92.9942 279.25 94.3914 279.514 96.6571Z" fill="#FCAA3B"/>
<path d="M341.028 35.066C340.689 37.1051 339.631 38.5023 337.554 38.5401C335.289 38.5778 333.854 37.2184 333.892 34.9528C333.892 32.9137 335.213 31.5543 337.29 31.5165C339.594 31.441 340.726 32.8759 341.028 35.066Z" fill="#FCAA3B"/>
<path d="M358.17 31.248C360.663 31.5501 362.022 32.7207 361.947 35.0619C361.909 37.6297 360.361 38.9135 357.906 38.7247C355.603 38.5737 354.432 37.0632 354.545 34.7976C354.696 32.4186 356.207 31.4369 358.17 31.248Z" fill="#FCAA3B"/>
<path d="M402.804 14.8615C402.728 17.1649 401.633 18.6376 399.33 18.7887C396.838 18.902 395.365 17.5803 395.365 15.0503C395.365 12.7469 396.687 11.4253 398.99 11.3875C401.293 11.3497 402.502 12.6714 402.804 14.8615Z" fill="#FCAA3B"/>
<path d="M382.792 14.7472C382.49 17.2772 381.319 18.7121 379.053 18.6744C376.788 18.6366 375.466 17.2017 375.542 14.936C375.617 12.8969 376.901 11.6131 378.94 11.5375C381.281 11.3865 382.301 12.9347 382.792 14.7472Z" fill="#FCAA3B"/>
<path d="M296.546 79.4722C294.28 79.1323 292.883 77.924 293.034 75.5828C293.185 73.2794 294.658 71.9955 296.961 72.1843C299.038 72.3353 300.284 73.657 300.246 75.7716C300.246 78.1505 298.812 79.2834 296.546 79.4722Z" fill="#FCAA3B"/>
<path d="M259.539 117.304C259.35 119.57 258.217 121.043 255.952 121.043C253.686 121.081 252.327 119.683 252.327 117.418C252.327 115.379 253.611 114.057 255.612 113.906C257.915 113.755 259.124 115.114 259.539 117.304Z" fill="#FCAA3B"/>
<path d="M321.166 55.7979C320.901 58.0258 319.731 59.4607 317.465 59.423C315.199 59.3852 313.878 57.9503 313.953 55.6846C314.029 53.6455 315.313 52.3616 317.352 52.2861C319.617 52.2106 320.788 53.6078 321.166 55.7979Z" fill="#FCAA3B"/>
<path d="M255.764 93.2148C257.765 93.4036 259.162 94.4987 259.238 96.5756C259.313 98.4259 258.105 99.7475 256.292 99.9741C254.178 100.238 252.743 98.9168 252.554 96.9532C252.328 94.8763 253.687 93.668 255.764 93.2148Z" fill="#FCAA3B"/>
<path d="M320.749 35.0261C320.561 36.8386 319.541 38.1225 317.653 38.2358C315.765 38.3491 314.406 37.1407 314.292 35.2904C314.141 33.1758 315.425 31.8164 317.54 31.8164C319.428 31.8164 320.523 33.0625 320.749 35.0261Z" fill="#FCAA3B"/>
<path d="M300.094 55.7207C299.83 57.7598 298.735 59.1569 296.658 59.1947C294.808 59.2324 293.486 57.9863 293.297 56.1738C293.071 54.0969 294.392 52.662 296.394 52.4732C298.508 52.3599 299.641 53.7571 300.094 55.7207Z" fill="#FCAA3B"/>
<path d="M354.772 15.011C355.15 12.9719 356.32 11.5748 358.397 11.6881C360.436 11.7636 361.796 13.1607 361.72 15.2376C361.644 17.2767 360.247 18.6361 358.17 18.5606C356.094 18.4473 354.999 17.0124 354.772 15.011Z" fill="#FCAA3B"/>
<path d="M275.853 72.373C277.93 72.7507 279.289 73.959 279.138 75.9981C278.987 78.0372 277.552 79.3211 275.475 79.1323C273.663 78.9812 272.417 77.6596 272.454 75.8093C272.492 73.7324 273.852 72.6374 275.853 72.373Z" fill="#FCAA3B"/>
<path d="M234.995 120.747C233.031 120.445 231.785 119.349 231.823 117.461C231.86 115.347 233.258 114.063 235.372 114.289C237.222 114.478 238.393 115.8 238.242 117.726C238.091 119.576 236.807 120.596 234.995 120.747Z" fill="#FCAA3B"/>
<path d="M278.647 55.345C278.647 57.3841 277.854 58.5169 276.041 58.6679C274.266 58.7812 273.171 57.9127 273.02 56.1002C272.907 54.3254 273.776 53.2303 275.588 53.0793C277.401 52.9282 278.345 53.9478 278.647 55.345Z" fill="#FCAA3B"/>
<path d="M237.828 96.8425C237.525 98.5795 236.506 99.5235 234.731 99.3347C232.956 99.1459 232.088 97.9376 232.314 96.2006C232.503 94.6901 233.561 93.8216 235.109 93.8971C236.921 94.0104 237.752 95.1055 237.828 96.8425Z" fill="#FCAA3B"/>
<path d="M258.708 75.8475C258.557 77.6223 257.613 78.6418 255.801 78.5663C253.988 78.5285 253.044 77.4712 253.082 75.6965C253.12 73.8839 254.177 72.9399 255.952 72.9777C257.764 73.0532 258.633 74.1105 258.708 75.8475Z" fill="#FCAA3B"/>
<path d="M217.851 117.537C217.586 119.236 216.642 120.293 214.868 120.142C213.357 120.029 212.375 119.01 212.413 117.424C212.489 115.649 213.584 114.629 215.359 114.78C216.869 114.931 217.7 115.951 217.851 117.537Z" fill="#FCAA3B"/>
<path d="M317.427 17.8429C315.728 17.5786 314.671 16.6346 314.822 14.8598C314.935 13.3494 315.955 12.3676 317.541 12.4053C319.315 12.4809 320.335 13.5759 320.184 15.3507C320.071 16.8611 319.013 17.6919 317.427 17.8429Z" fill="#FCAA3B"/>
<path d="M337.44 18.0682C335.287 17.8416 334.343 16.6332 334.532 14.7074C334.683 12.9704 335.854 12.0642 337.591 12.1774C339.63 12.2907 340.536 13.5746 340.347 15.5004C340.196 17.2374 338.988 17.9926 337.44 18.0682Z" fill="#FCAA3B"/>
<path d="M296.508 37.7818C294.771 37.5175 293.751 36.5357 293.902 34.7609C294.053 32.9862 295.262 32.0799 296.999 32.2687C298.547 32.4197 299.416 33.4393 299.378 35.0253C299.34 36.8378 298.283 37.7063 296.508 37.7818Z" fill="#FCAA3B"/>
<path d="M275.853 37.5218C274.229 37.1065 273.172 36.238 273.436 34.6898C273.625 33.4436 274.569 32.4996 275.928 32.6507C277.439 32.8017 278.383 33.859 278.194 35.4072C278.043 36.6533 276.986 37.333 275.853 37.5218Z" fill="#FCAA3B"/>
<path d="M237.488 75.9968C237.035 77.4317 236.204 78.489 234.618 78.1869C233.372 77.9604 232.428 76.9786 232.617 75.6192C232.843 74.1465 233.863 73.1647 235.411 73.4668C236.695 73.6556 237.45 74.6374 237.488 75.9968Z" fill="#FCAA3B"/>
<path d="M255.952 58.3227C254.593 58.1716 253.611 57.4164 253.498 56.1325C253.347 54.5843 254.329 53.5648 255.839 53.4515C257.199 53.376 258.143 54.32 258.294 55.5661C258.445 57.1521 257.425 58.0206 255.952 58.3227Z" fill="#FCAA3B"/>
<path d="M194.289 119.422C193.081 119.384 192.363 118.78 192.326 117.534C192.288 116.288 192.93 115.608 194.176 115.533C195.422 115.495 196.102 116.137 196.177 117.383C196.215 118.667 195.573 119.309 194.289 119.422Z" fill="#FCAA3B"/>
<path d="M215.321 98.8821C213.66 98.6933 212.829 97.9004 212.942 96.5032C213.056 95.106 213.962 94.3886 215.359 94.5019C216.492 94.6152 217.209 95.3704 217.247 96.5787C217.323 98.0514 216.303 98.5801 215.321 98.8821Z" fill="#FCAA3B"/>
<path d="M298.886 14.8653C298.697 16.5268 297.905 17.3575 296.507 17.2443C295.11 17.131 294.393 16.2247 294.506 14.8276C294.619 13.6947 295.375 12.9773 296.583 12.9395C298.056 12.864 298.584 13.8835 298.886 14.8653Z" fill="#FCAA3B"/>
<path d="M275.891 16.7859C274.909 16.7104 274.229 16.144 274.154 15.2C274.078 14.2182 274.758 13.5385 275.702 13.463C276.684 13.3497 277.363 14.0671 277.439 15.0112C277.59 15.9929 276.835 16.4838 275.891 16.7859Z" fill="#FCAA3B"/>
<path d="M255.838 36.8015C254.857 36.6504 254.139 36.1218 254.139 35.1022C254.139 33.8561 254.932 33.1764 256.103 33.3274C257.047 33.4407 257.689 34.1582 257.575 35.1777C257.5 36.1595 256.858 36.6882 255.838 36.8015Z" fill="#FCAA3B"/>
<path d="M236.844 55.6071C236.693 56.891 236.165 57.5707 235.183 57.6084C233.937 57.6462 233.219 56.891 233.332 55.6826C233.408 54.7386 234.125 54.0966 235.145 54.1344C236.165 54.1722 236.542 54.9651 236.844 55.6071Z" fill="#FCAA3B"/>
<path d="M215.056 74.0312C216.076 74.069 216.755 74.6354 216.831 75.6172C216.944 76.8256 216.189 77.5808 214.981 77.5053C213.999 77.4675 213.357 76.75 213.395 75.7305C213.395 74.7487 214.037 74.2201 215.056 74.0312Z" fill="#FCAA3B"/>
<path d="M195.837 96.5028C195.875 97.3713 195.271 97.9755 194.591 98.1265C193.572 98.3908 192.892 97.6734 192.703 96.7671C192.514 95.8986 193.232 95.3322 193.911 95.1434C194.931 94.879 195.497 95.5965 195.837 96.5028Z" fill="#FCAA3B"/>
</g>
</svg>
