<svg width="194" height="204" viewBox="0 0 194 204" fill="none" xmlns="http://www.w3.org/2000/svg">
<path fill-rule="evenodd" clip-rule="evenodd" d="M164.066 97.9344L38.4109 49.1008L87.2445 174.756L115.373 146.628L144.455 175.71L165.019 155.147L135.936 126.064L164.066 97.9344Z" fill="black"/>
<path fill-rule="evenodd" clip-rule="evenodd" d="M161.385 78.9981L47.6064 34.7803L91.8242 148.559L117.294 123.089L143.627 149.422L162.247 130.802L135.914 104.469L161.385 78.9981Z" fill="white"/>
<path d="M47.6064 34.7803L49.4176 30.1199L38.8321 26.0061L42.946 36.5915L47.6064 34.7803ZM161.385 78.9981L164.92 82.5336L170.34 77.114L163.196 74.3377L161.385 78.9981ZM91.8242 148.559L87.1637 150.37L89.9401 157.514L95.3597 152.094L91.8242 148.559ZM117.294 123.089L120.829 119.553L117.294 116.018L113.758 119.553L117.294 123.089ZM143.627 149.422L140.091 152.958L143.627 156.493L147.162 152.958L143.627 149.422ZM162.247 130.802L165.782 134.338L169.318 130.802L165.782 127.267L162.247 130.802ZM135.914 104.469L132.378 100.933L128.843 104.469L132.378 108.005L135.914 104.469ZM45.7952 39.4408L159.573 83.6585L163.196 74.3377L49.4176 30.1199L45.7952 39.4408ZM96.4846 146.747L52.2668 32.9691L42.946 36.5915L87.1637 150.37L96.4846 146.747ZM113.758 119.553L88.2886 145.023L95.3597 152.094L120.829 126.625L113.758 119.553ZM147.162 145.887L120.829 119.553L113.758 126.625L140.091 152.958L147.162 145.887ZM158.711 127.267L140.091 145.887L147.162 152.958L165.782 134.338L158.711 127.267ZM132.378 108.005L158.711 134.338L165.782 127.267L139.449 100.933L132.378 108.005ZM157.849 75.4626L132.378 100.933L139.449 108.005L164.92 82.5336L157.849 75.4626Z" fill="black"/>
</svg>
