<svg width="240" height="334" viewBox="0 0 240 334" fill="none" xmlns="http://www.w3.org/2000/svg">
<path d="M5.68671 328.446C19.1555 314.977 2.4688 298.29 15.9323 284.827C29.4011 271.358 46.0879 288.045 59.5567 274.576C73.0255 261.107 56.3388 244.421 69.8076 230.952C83.2764 217.483 99.9631 234.17 113.432 220.701C126.901 207.232 110.214 190.545 123.683 177.076C137.152 163.608 153.838 180.294 167.307 166.826C180.776 153.357 164.089 136.67 177.558 123.201C191.027 109.732 207.714 126.419 221.182 112.95C234.651 99.4816 217.964 82.7948 231.433 69.326C244.902 55.8572 261.589 72.5439 275.058 59.0751C288.526 45.6063 271.84 28.9196 285.314 15.4455C298.783 1.97668 315.469 18.6634 328.943 5.18933" stroke="#FF31D2" stroke-width="10" stroke-miterlimit="10" stroke-linecap="round"/>
</svg>
