<svg width="120" height="78" viewBox="0 0 120 78" fill="none" xmlns="http://www.w3.org/2000/svg">
<path d="M120 26.354C120 26.3483 119.997 26.3426 119.997 26.3397C119.997 25.8936 119.997 25.4447 119.997 24.9986C119.951 25.0243 119.914 25.0443 119.868 25.0701C119.185 11.1238 107.758 0 93.6403 0H26.3569C12.239 0 0.812111 11.1267 0.128668 25.0729C0.0829143 25.0472 0.0428939 25.0243 0 25.0014C0 25.4532 0 25.9079 0 26.3597C0 34.9786 0 43.5974 0 52.2162V55.0014H0.00851735C0.0313941 59.3166 0.245861 63.7261 2.00737 67.618C4.29791 72.6737 9.05917 76.4455 14.0606 77.2863C26.2396 79.3337 32.7394 66.4455 35.8393 55.0014H84.1549C87.2547 66.4455 93.7547 79.3337 105.934 77.2863C110.938 76.4455 115.699 72.6737 117.987 67.618C119.748 63.7289 119.963 59.3194 119.986 55.0014H119.997V26.354H120Z" fill="#CF4C2D"/>
<path d="M77.7129 29.9941C77.7129 36.7756 83.2231 42.2808 89.9996 42.2808C96.776 42.2808 102.286 36.7756 102.286 29.9941C102.286 23.2137 96.78 17.7075 89.9996 17.7075C83.2192 17.7075 77.7129 23.2137 77.7129 29.9941Z" fill="white" stroke="#9FB0DA" stroke-width="9"/>
<path d="M47.5005 24.9957H35.0012V12.4965H25.0012V24.9957H12.502V34.9958H25.0012V47.495H35.0012V34.9958H47.5005V24.9957Z" fill="#9FB0DA"/>
</svg>
