<svg width="100" height="73" viewBox="0 0 100 73" fill="none" xmlns="http://www.w3.org/2000/svg">
<path d="M90.861 7.68099V52.3737H9.13867V7.68099C9.13867 3.43825 12.5769 0 16.8197 0H83.18C87.4205 0 90.861 3.43825 90.861 7.68099Z" fill="#3470B8"/>
<path d="M55.692 9.2338C55.692 10.9799 54.2763 12.3956 52.5302 12.3956H47.4695C45.7234 12.3956 44.3076 10.9799 44.3076 9.2338C44.3076 7.48771 45.7234 6.07196 47.4695 6.07196H52.5302C54.2763 6.07196 55.692 7.48771 55.692 9.2338Z" fill="white"/>
<path d="M97.1377 72.3604H2.86234C0.356686 72.3604 -0.935463 69.3649 0.785907 67.5424L1.11624 67.1918H98.8837L99.2141 67.5424C100.935 69.3649 99.6433 72.3604 97.1377 72.3604Z" fill="#3470B8"/>
<path d="M90.8591 52.3737H9.13672V58.6996H90.8591V52.3737Z" fill="white"/>
<path d="M98.8837 67.1919H1.11621L9.13877 58.6974H90.8611L98.8837 67.1919Z" fill="#6DB651"/>
<path d="M21.0855 33.962C20.4226 33.6429 20.1035 33.1395 20.1035 32.6092C20.1035 32.1058 20.4226 31.5755 21.0855 31.2833C23.9215 30.0114 26.8137 28.6586 29.7283 27.3058C29.8609 27.2518 29.9935 27.2271 30.0991 27.2271C30.5239 27.2271 30.7891 27.5709 30.7891 27.944C30.7891 28.2091 30.6565 28.5013 30.3374 28.6339C28.2699 29.535 24.6631 31.153 22.144 32.1867C21.8518 32.3193 21.7193 32.4789 21.7193 32.6114C21.7193 32.771 21.8518 32.9036 22.0631 33.0092C23.9463 33.8047 27.8968 35.5553 30.362 36.5351C30.6812 36.6677 30.8137 36.9328 30.8137 37.198C30.8137 37.5958 30.4946 37.9935 30.0721 37.9935C29.7553 37.9913 29.2519 37.8317 21.0855 33.962Z" fill="white" stroke="white" stroke-width="3" stroke-miterlimit="10"/>
<path d="M37.4722 38.8384C36.7553 38.8384 36.2002 38.2811 36.2002 37.6721C36.2002 36.798 36.9957 36.3732 37.4722 36.3732C38.6115 36.3732 38.6924 37.4069 38.6924 37.6452C38.6901 38.4676 38.0025 38.8384 37.4722 38.8384ZM37.4182 33.4047C37.0744 33.4047 36.7553 33.1664 36.7553 32.7148V31.6271C36.7553 28.9754 36.6227 23.7798 36.5171 20.4112V20.3573C36.5171 19.7483 36.9688 19.4292 37.4452 19.4292C37.9216 19.4292 38.4002 19.7483 38.4002 20.4112C38.4002 23.5394 38.1351 29.5327 38.1351 32.0765V32.6608C38.1351 33.1395 37.762 33.4047 37.4182 33.4047Z" fill="white" stroke="white" stroke-width="3" stroke-miterlimit="10"/>
<path d="M52.0272 31.8136C52.5845 31.8136 52.8497 32.2114 52.8497 32.6091C52.8497 33.0338 52.5575 33.4586 51.9755 33.4586C49.935 33.4316 48.6092 33.4046 47.4676 33.4046C46.5126 33.4046 45.6654 33.4316 44.6047 33.4586C44.3665 33.4586 43.7305 33.4316 43.7305 32.6361C43.7305 32.2114 43.9956 31.8136 44.526 31.8136H44.553C45.6137 31.8406 46.8586 31.8406 48.1597 31.8406C49.4856 31.8406 50.8115 31.8406 52.0047 31.8136H52.0272Z" fill="white" stroke="white" stroke-width="3" stroke-miterlimit="10"/>
<path d="M64.5692 31.8136C65.1265 31.8136 65.3917 32.2114 65.3917 32.6091C65.3917 33.0338 65.0995 33.4586 64.5175 33.4586C62.477 33.4316 61.1511 33.4046 60.0096 33.4046C59.0545 33.4046 58.2073 33.4316 57.1466 33.4586C56.9084 33.4586 56.2725 33.4316 56.2725 32.6361C56.2725 32.2114 56.5376 31.8136 57.068 31.8136H57.0949C58.1556 31.8406 59.4006 31.8406 60.7017 31.8406C62.0276 31.8406 63.3535 31.8406 64.5467 31.8136H64.5692Z" fill="white" stroke="white" stroke-width="3" stroke-miterlimit="10"/>
<path d="M69.9511 37.9912C69.4995 37.9912 69.1826 37.5935 69.1826 37.1957C69.1826 36.9305 69.3422 36.6654 69.6591 36.5328C72.1243 35.5507 76.0748 33.8024 77.958 33.0069C78.1693 32.9013 78.3018 32.7687 78.3018 32.6091C78.3018 32.4765 78.1692 32.317 77.8771 32.1844C75.358 31.1507 71.7265 29.5327 69.6568 28.6316C69.3377 28.499 69.2051 28.2068 69.2051 27.9417C69.2051 27.5709 69.4702 27.2248 69.895 27.2248C70.0006 27.2248 70.1332 27.2518 70.2658 27.3034C73.1827 28.6563 76.0726 30.0069 78.9086 31.281C79.5715 31.5732 79.8906 32.1035 79.8906 32.6069C79.8906 33.1372 79.5715 33.6406 78.9086 33.9597C73.3714 36.5867 70.3219 37.9912 69.9511 37.9912Z" fill="white" stroke="white" stroke-width="3" stroke-miterlimit="10"/>
</svg>
