<svg width="368" height="291" viewBox="0 0 368 291" fill="none" xmlns="http://www.w3.org/2000/svg">
<path d="M344.596 122.895C356.127 136.278 373.734 174.213 351.912 218.893" stroke="black" stroke-width="10" stroke-linecap="round"/>
<path d="M70.9097 149.362C65.4978 135.037 64.6328 120.809 69.7629 107.792C88.0676 61.3234 168.492 39.5476 236.674 66.4179C304.856 93.2882 351.854 153.97 333.542 200.435C315.23 246.901 245.92 269.821 177.73 242.947C146.645 230.697 117.661 211.183 97.0498 189.165C69.5011 183.934 43.2906 161.912 30.2849 129.59C27.7488 123.295 25.8572 116.932 24.5548 110.598C36.3416 129.291 52.9613 142.847 70.9097 149.362Z" fill="white" stroke="black" stroke-width="10" stroke-linejoin="round"/>
<circle cx="159.09" cy="135.804" r="12" transform="rotate(21.5092 159.09 135.804)" fill="black"/>
<circle cx="203.747" cy="153.404" r="12" transform="rotate(21.5092 203.747 153.404)" fill="black"/>
<circle cx="248.404" cy="171.003" r="12" transform="rotate(21.5092 248.404 171.003)" fill="black"/>
<path d="M113 42.1044C120.333 36.4378 141.9 27.1044 169.5 35.1044" stroke="black" stroke-width="10" stroke-linecap="round"/>
<path d="M108 27C120.33 17.4662 156.593 1.76354 203 15.223" stroke="black" stroke-width="10" stroke-linecap="round"/>
</svg>
