<svg width="497" height="692" viewBox="0 0 497 692" fill="none" xmlns="http://www.w3.org/2000/svg">
<path fill-rule="evenodd" clip-rule="evenodd" d="M361.747 388.726C353.974 370.996 346.487 353.142 338.141 335.643C336.839 332.922 331.753 330.463 328.248 330.149C306.663 328.218 285.892 324.938 270.3 307.932C268.957 306.473 264.353 305.602 262.999 306.592C252.905 313.952 243.245 321.851 233.452 329.594C216.599 343.376 199.749 357.171 182.893 370.964C208.804 367.52 229.06 377.382 245.451 396.345C248.266 398.91 251.076 401.473 253.895 404.026C257.502 404.046 261.135 404.367 264.703 404.069C291.401 401.845 317.575 404.613 343.116 413.271C366.707 421.266 383.27 440.8 382.247 459.11C391.08 464.608 398.605 461.058 400.341 459.6C387.476 435.975 374.617 412.352 361.747 388.726Z" fill="#0B2845"/>
<path fill-rule="evenodd" clip-rule="evenodd" d="M315.458 349.629C314.391 353.876 309.064 358.541 303.473 358.757C292.902 359.07 282.181 356.408 272.979 351.185C268.138 348.379 265.612 341.764 266.656 337.511C268.892 328.508 271.127 319.506 273.364 310.497C274.408 306.22 279.578 303.714 284.834 304.942C294.768 307.409 304.697 309.874 314.626 312.34C319.846 313.713 323.243 318.346 322.165 322.615C319.928 331.623 317.694 340.62 315.458 349.629Z" fill="white"/>
<path fill-rule="evenodd" clip-rule="evenodd" d="M366.758 366.826C365.692 371.074 360.359 375.737 354.773 375.96C344.203 376.267 333.482 373.605 324.278 368.388C319.443 365.583 316.911 358.967 317.957 354.709C320.192 345.706 322.428 336.703 324.662 327.706C325.706 323.429 330.878 320.917 336.133 322.145C346.062 324.611 355.996 327.077 365.925 329.543C371.139 330.914 374.534 335.559 373.463 339.823C371.229 348.821 368.995 357.818 366.758 366.826Z" fill="white"/>
<path fill-rule="evenodd" clip-rule="evenodd" d="M264.531 330.924C263.465 335.171 258.138 339.836 252.547 340.052C241.972 340.358 231.256 337.697 222.052 332.48C217.212 329.674 214.686 323.059 215.73 318.806C217.965 309.803 224.098 316.371 226.335 307.363C227.378 303.092 241.847 295.569 247.097 296.796C257.032 299.263 253.771 291.169 263.7 293.634C268.919 295.008 272.311 299.64 271.239 303.91C269.002 312.918 266.767 321.921 264.531 330.924Z" fill="white"/>
<path fill-rule="evenodd" clip-rule="evenodd" d="M450.493 454.233C443.142 431.397 435.795 414.454 429.253 391.41C419.796 358.138 412.683 324.18 400.987 291.602C391.221 264.394 367.15 253.277 337.823 257.649C329.141 258.94 320.801 262.021 311.993 264.37C311.024 262.714 309.974 260.884 308.949 259.196C287.304 223.472 256.018 217.392 226.431 245.754C198.211 272.809 182.178 308.665 158.034 338.858C154.975 342.688 151.619 346.284 147.825 349.399C146.784 350.253 135.29 357.455 135.266 357.312C136.887 365.763 138.639 377.07 140.928 385.165C155.234 381.523 168.582 374.604 182.887 370.967C199.742 357.173 216.593 343.378 233.448 329.585C243.245 321.85 252.904 313.956 262.999 306.591C264.353 305.6 268.962 306.473 270.3 307.93C285.892 324.936 306.67 328.212 328.248 330.147C331.753 330.461 336.839 332.92 338.141 335.642C346.487 353.141 353.975 370.989 361.747 388.724C374.617 412.35 387.482 435.975 400.341 459.599C398.374 460.798 391.085 464.608 382.247 459.109C378.723 460.709 375.346 462.672 371.662 463.842C336.76 474.925 302.638 487.783 280.943 517.749C266.158 538.18 254.012 560.385 240.683 581.799C248.323 583.797 260.052 587.408 267.973 587.705C303.194 589.025 330.764 569.287 358.066 548.885C391.47 523.922 417.554 490.16 459.448 475.098C455.871 469.615 452.111 459.26 450.493 454.233Z" fill="#ED0035" stroke="black" stroke-width="10" stroke-miterlimit="10" stroke-linejoin="round"/>
<path fill-rule="evenodd" clip-rule="evenodd" d="M352.726 534.809C350.899 531.768 346.248 530.204 343.177 532.438C335.121 538.29 327.204 544.319 318.598 549.359C316.403 550.638 314.165 551.829 311.882 552.939C311.396 553.179 310.903 553.4 310.407 553.632C310.523 553.572 309.22 554.143 309.181 554.157C307.961 554.659 306.713 555.107 305.459 555.53C304.237 555.944 302.997 556.287 301.746 556.604C301.134 556.754 300.514 556.89 299.898 557.01C299.71 557.052 299.566 557.081 299.466 557.104C299.399 557.111 299.318 557.126 299.228 557.134C298.025 557.303 296.811 557.374 295.596 557.404C294.998 557.427 294.4 557.403 293.806 557.386C293.541 557.38 291.572 557.175 293.298 557.379C289.534 556.918 285.865 558.435 284.866 562.456C284.038 565.792 286.168 570.425 289.945 570.883C312.965 573.691 332.915 557.024 350.356 544.353C353.419 542.129 354.804 538.269 352.726 534.809Z" fill="white"/>
<path fill-rule="evenodd" clip-rule="evenodd" d="M364.11 514.742C355.397 512.578 352.043 526.088 360.756 528.252C369.464 530.408 372.817 516.904 364.11 514.742Z" fill="white"/>
<path fill-rule="evenodd" clip-rule="evenodd" d="M428.206 427.297C419.498 425.135 416.144 438.645 424.851 440.807C433.557 442.975 436.913 429.459 428.206 427.297Z" fill="white"/>
<path fill-rule="evenodd" clip-rule="evenodd" d="M269.87 560.556C261.157 558.393 257.803 571.903 266.515 574.066C275.23 576.224 278.583 562.72 269.87 560.556Z" fill="white"/>
<path fill-rule="evenodd" clip-rule="evenodd" d="M377.054 270.868C364.108 264.337 348.754 264.308 334.769 266.829C331.031 267.499 329.065 272.128 330.054 275.465C331.212 279.388 334.957 280.857 338.69 280.179C338.733 280.172 339.863 279.985 339.987 279.962C340.546 279.882 341.102 279.813 341.664 279.745C343.111 279.571 344.567 279.453 346.019 279.352C349.055 279.146 352.106 279.164 355.14 279.325C357.676 279.463 359.968 279.795 363.091 280.5C364.532 280.828 365.953 281.258 367.353 281.724C367.567 281.795 367.726 281.846 367.84 281.886C367.953 281.932 368.104 281.993 368.3 282.083C368.955 282.358 369.585 282.681 370.217 282.997C373.596 284.701 377.775 283.755 379.694 280.341C381.504 277.154 380.439 272.573 377.054 270.868Z" fill="white"/>
<path fill-rule="evenodd" clip-rule="evenodd" d="M318.275 272.746C309.562 270.582 306.208 284.092 314.92 286.255C323.633 288.419 326.988 274.909 318.275 272.746Z" fill="white"/>
<path fill-rule="evenodd" clip-rule="evenodd" d="M424.572 410.665C420.325 397.216 415.361 384.01 411.115 370.561C409.974 366.95 406.753 364.397 402.81 365.277C399.347 366.058 396.383 369.958 397.526 373.582C401.778 387.033 406.735 400.243 410.987 413.694C412.129 417.299 415.349 419.858 419.294 418.972C422.748 418.201 425.715 414.289 424.572 410.665Z" fill="white"/>
<path fill-rule="evenodd" clip-rule="evenodd" d="M188.823 332.131C197.171 320.761 204.911 308.956 213.258 297.592C215.497 294.536 215.658 290.431 212.618 287.769C209.949 285.424 205.049 285.339 202.796 288.403C194.447 299.773 186.707 311.578 178.361 322.942C176.123 325.993 175.961 330.104 179.001 332.766C181.67 335.11 186.575 335.197 188.823 332.131Z" fill="#F29FA7"/>
<path fill-rule="evenodd" clip-rule="evenodd" d="M343.116 413.268C328.105 408.185 312.377 405.008 296.533 403.851C288.501 403.266 280.437 403.188 272.39 403.565C265.771 403.869 258.753 404.253 252.68 401.14C246.996 398.225 243.192 392.845 238.158 389.03C231.731 384.148 224.366 377.99 216.832 374.894C160.104 351.582 101.099 404.309 73.9879 448.671C42.8868 499.563 28.6253 560.624 82.2718 601.333C101.007 615.555 123.237 624.261 146.708 625.564C168.378 626.77 191.331 624.268 209.629 611.727C221.289 603.737 232.89 592.767 241.038 581.176C250.212 568.128 257.546 553.593 266.017 540.08C270.774 532.491 275.69 525.001 280.937 517.746C302.626 487.778 336.75 474.915 371.656 463.839C375.34 462.669 378.717 460.707 382.24 459.112C383.27 440.797 366.707 421.264 343.116 413.268Z" fill="#EE008F" stroke="black" stroke-width="10" stroke-miterlimit="10" stroke-linejoin="round"/>
<path fill-rule="evenodd" clip-rule="evenodd" d="M154.431 405.29C153.419 401.853 149.353 399.245 145.795 400.576C122.164 409.436 106.771 429.621 91.204 448.383C88.779 451.304 88.4608 455.424 91.3298 458.227C93.8805 460.714 98.75 461.017 101.175 458.095C108.461 449.31 115.513 440.325 123.543 432.192C125.528 430.181 127.584 428.245 129.7 426.378C130.662 425.533 131.647 424.712 132.637 423.898C132.523 424 133.732 423.045 133.73 423.05C134.284 422.631 134.85 422.215 135.418 421.811C137.677 420.175 140.036 418.688 142.461 417.318C145.436 415.641 147.065 414.92 149.721 413.933C153.256 412.596 155.562 409.13 154.431 405.29Z" fill="white"/>
<path fill-rule="evenodd" clip-rule="evenodd" d="M85.0673 466.253C76.3545 464.09 73.0014 477.594 81.7141 479.758C90.4227 481.914 93.7745 468.415 85.0673 466.253Z" fill="white"/>
<path fill-rule="evenodd" clip-rule="evenodd" d="M217.907 576.243C215.24 573.65 210.64 573.598 208.069 576.37C206.088 578.502 204.038 580.557 201.896 582.53C200.926 583.432 199.925 584.291 198.92 585.143C198.501 585.495 198.078 585.84 197.655 586.185C197.904 585.968 196.377 587.159 196.211 587.277C193.981 588.938 191.643 590.46 189.243 591.872C188.148 592.512 187.03 593.105 185.903 593.684C185.341 593.97 184.775 594.244 184.203 594.523C183.97 594.625 183.735 594.738 183.495 594.844C183.423 594.874 183.244 594.948 182.953 595.071C180.45 596.114 177.856 596.95 175.233 597.637C174.017 597.957 172.788 598.208 171.552 598.44C171.403 598.468 171.284 598.492 171.191 598.511C171.093 598.522 170.983 598.536 170.841 598.56C170.002 598.671 169.158 598.758 168.32 598.84C165.519 599.104 162.702 599.097 159.902 598.923C159.239 598.877 158.574 598.812 157.913 598.755C159.347 598.892 156.668 598.546 156.417 598.508C154.815 598.258 153.225 597.911 151.645 597.524C142.925 595.412 139.565 608.921 148.291 611.034C160.926 614.094 174.169 613.421 186.297 608.651C198.547 603.84 209.131 595.679 218.034 586.081C220.618 583.306 220.665 578.942 217.907 576.243Z" fill="white"/>
<path fill-rule="evenodd" clip-rule="evenodd" d="M234.784 557.235C226.077 555.073 222.723 568.583 231.43 570.745C240.137 572.907 243.491 559.397 234.784 557.235Z" fill="white"/>
<path fill-rule="evenodd" clip-rule="evenodd" d="M124.178 590.712C115.465 588.549 112.111 602.059 120.824 604.222C129.536 606.386 132.891 592.876 124.178 590.712Z" fill="white"/>
<path d="M252.686 401.143C251.472 400.522 250.348 399.781 249.276 398.97C233.853 408.234 219.439 419.205 206.171 431.331C187.127 448.738 170.315 469.08 157.98 491.807C156.215 495.052 154.576 498.364 153.027 501.716C151.965 504.011 152.465 506.723 154.797 508.036C156.871 509.202 160.056 508.56 161.119 506.26C171.806 483.159 187.421 462.722 205.427 444.844C221.697 428.69 240.138 414.639 260.133 403.395C257.558 403.034 255.055 402.359 252.686 401.143Z" fill="black"/>
<mask id="mask0_398_204" style="mask-type:luminance" maskUnits="userSpaceOnUse" x="19" y="212" width="419" height="403">
<path d="M428.176 440.751C420.748 417.686 413.326 400.574 406.717 377.3C397.162 343.695 389.975 309.397 378.159 276.493C368.292 249.018 343.978 237.792 314.358 242.205C305.589 243.509 297.167 246.622 288.27 248.995C287.291 247.323 286.231 245.475 285.195 243.77C263.33 207.689 231.73 201.55 201.849 230.2C173.348 257.529 157.157 293.745 132.774 324.243C129.684 328.112 126.294 331.744 122.463 334.891C121.406 335.753 109.803 343.028 109.778 342.885C111.264 350.634 112.865 360.763 114.878 368.679C86.7907 384.388 62.653 411.006 47.8922 435.172C16.4834 486.577 2.08409 548.251 56.2721 589.364C75.1961 603.727 97.6502 612.518 121.356 613.833C143.244 615.049 166.427 612.52 184.907 599.851C196.683 591.781 208.4 580.699 216.629 568.991C216.723 568.853 216.817 568.715 216.918 568.573C216.701 568.919 216.487 569.273 216.27 569.62C223.987 571.637 235.834 575.283 243.834 575.583C279.409 576.912 307.253 556.975 334.828 536.366C368.564 511.15 394.906 477.052 437.22 461.83C433.608 456.286 429.81 445.828 428.176 440.751Z" fill="white"/>
</mask>
<g mask="url(#mask0_398_204)">
<path d="M436.138 534.095C438.322 534.637 440.533 533.306 441.075 531.122C441.617 528.937 440.286 526.727 438.102 526.185C435.917 525.643 433.707 526.974 433.165 529.158C432.623 531.343 433.954 533.553 436.138 534.095Z" fill="#FFED00"/>
<path d="M430.396 557.228C432.58 557.77 434.791 556.439 435.333 554.254C435.875 552.07 434.544 549.86 432.359 549.318C430.175 548.775 427.965 550.107 427.423 552.291C426.88 554.475 428.212 556.686 430.396 557.228Z" fill="#FFED00"/>
<path d="M424.654 580.363C426.838 580.905 429.048 579.574 429.591 577.389C430.133 575.205 428.802 572.995 426.617 572.452C424.433 571.91 422.223 573.241 421.68 575.426C421.138 577.61 422.469 579.82 424.654 580.363Z" fill="#FFED00"/>
<path d="M418.912 603.495C421.096 604.038 423.306 602.706 423.848 600.522C424.391 598.338 423.059 596.127 420.875 595.585C418.691 595.043 416.48 596.374 415.938 598.559C415.396 600.743 416.727 602.953 418.912 603.495Z" fill="#FFED00"/>
<path d="M30.8466 212.47C33.031 213.012 35.2412 211.681 35.7834 209.497C36.3256 207.312 34.9944 205.102 32.8101 204.56C30.6257 204.018 28.4155 205.349 27.8733 207.533C27.3311 209.718 28.6623 211.928 30.8466 212.47Z" fill="#FFED00"/>
<path d="M25.1049 235.603C27.2893 236.145 29.4995 234.814 30.0417 232.629C30.5839 230.445 29.2527 228.235 27.0684 227.693C24.884 227.15 22.6738 228.482 22.1316 230.666C21.5894 232.85 22.9206 235.061 25.1049 235.603Z" fill="#FFED00"/>
<path d="M19.3623 258.736C21.5466 259.278 23.7569 257.947 24.299 255.762C24.8412 253.578 23.51 251.368 21.3257 250.825C19.1413 250.283 16.9311 251.615 16.3889 253.799C15.8467 255.983 17.1779 258.193 19.3623 258.736Z" fill="#FFED00"/>
<path d="M56.2338 218.771C58.4182 219.313 60.6284 217.982 61.1706 215.797C61.7128 213.613 60.3816 211.403 58.1973 210.861C56.0129 210.318 53.8027 211.65 53.2605 213.834C52.7183 216.018 54.0495 218.229 56.2338 218.771Z" fill="#FFED00"/>
<path d="M50.4916 241.904C52.676 242.446 54.8862 241.115 55.4284 238.93C55.9706 236.746 54.6394 234.536 52.4551 233.993C50.2707 233.451 48.0605 234.782 47.5183 236.967C46.9761 239.151 48.3073 241.361 50.4916 241.904Z" fill="#FFED00"/>
<path d="M44.7495 265.038C46.9338 265.581 49.1441 264.249 49.6862 262.065C50.2284 259.881 48.8972 257.67 46.7129 257.128C44.5286 256.586 42.3183 257.917 41.7761 260.102C41.2339 262.286 42.5651 264.496 44.7495 265.038Z" fill="#FFED00"/>
<path d="M39.0078 288.171C41.1921 288.713 43.4024 287.382 43.9445 285.198C44.4867 283.013 43.1555 280.803 40.9712 280.261C38.7869 279.719 36.5766 281.05 36.0344 283.234C35.4922 285.419 36.8234 287.629 39.0078 288.171Z" fill="#FFED00"/>
<path d="M33.2656 311.302C35.4499 311.844 37.6602 310.513 38.2024 308.329C38.7445 306.144 37.4133 303.934 35.229 303.392C33.0447 302.85 30.8344 304.181 30.2922 306.365C29.75 308.55 31.0812 310.76 33.2656 311.302Z" fill="#FFED00"/>
<path d="M27.5234 334.437C29.7077 334.979 31.918 333.648 32.4602 331.463C33.0024 329.279 31.6711 327.069 29.4868 326.527C27.3025 325.984 25.0922 327.316 24.55 329.5C24.0078 331.684 25.3391 333.895 27.5234 334.437Z" fill="#FFED00"/>
<path d="M21.7817 357.57C23.966 358.112 26.1763 356.781 26.7185 354.596C27.2607 352.412 25.9294 350.202 23.7451 349.659C21.5608 349.117 19.3505 350.448 18.8083 352.633C18.2661 354.817 19.5974 357.027 21.7817 357.57Z" fill="#FFED00"/>
<path d="M16.039 380.704C18.2233 381.247 20.4336 379.915 20.9758 377.731C21.518 375.547 20.1868 373.336 18.0024 372.794C15.8181 372.252 13.6078 373.583 13.0657 375.768C12.5235 377.952 13.8547 380.162 16.039 380.704Z" fill="#FFED00"/>
<path d="M81.6259 225.072C83.8103 225.614 86.0205 224.283 86.5627 222.098C87.1049 219.914 85.7737 217.704 83.5894 217.161C81.405 216.619 79.1947 217.95 78.6526 220.135C78.1104 222.319 79.4416 224.529 81.6259 225.072Z" fill="#FFED00"/>
<path d="M75.8838 248.206C78.0681 248.749 80.2784 247.417 80.8205 245.233C81.3627 243.049 80.0315 240.838 77.8472 240.296C75.6629 239.754 73.4526 241.085 72.9104 243.27C72.3682 245.454 73.6994 247.664 75.8838 248.206Z" fill="#FFED00"/>
<path d="M70.1421 271.341C72.3264 271.883 74.5367 270.552 75.0788 268.368C75.621 266.183 74.2898 263.973 72.1055 263.431C69.9212 262.889 67.7109 264.22 67.1687 266.404C66.6265 268.589 67.9577 270.799 70.1421 271.341Z" fill="#FFED00"/>
<path d="M64.3999 294.474C66.5842 295.016 68.7945 293.685 69.3367 291.501C69.8788 289.316 68.5476 287.106 66.3633 286.564C64.179 286.022 61.9687 287.353 61.4265 289.537C60.8843 291.721 62.2155 293.932 64.3999 294.474Z" fill="#FFED00"/>
<path d="M58.6577 317.607C60.842 318.149 63.0523 316.818 63.5945 314.633C64.1367 312.449 62.8054 310.239 60.6211 309.697C58.4368 309.154 56.2265 310.486 55.6843 312.67C55.1421 314.854 56.4734 317.065 58.6577 317.607Z" fill="#FFED00"/>
<path d="M52.9155 340.74C55.0998 341.282 57.3101 339.95 57.8523 337.766C58.3945 335.582 57.0632 333.372 54.8789 332.829C52.6946 332.287 50.4843 333.618 49.9421 335.803C49.3999 337.987 50.7312 340.197 52.9155 340.74Z" fill="#FFED00"/>
<path d="M47.1738 363.87C49.3581 364.413 51.5684 363.081 52.1106 360.897C52.6528 358.713 51.3215 356.502 49.1372 355.96C46.9529 355.418 44.7426 356.749 44.2004 358.934C43.6582 361.118 44.9895 363.328 47.1738 363.87Z" fill="#FFED00"/>
<path d="M41.4316 387.005C43.6159 387.547 45.8262 386.216 46.3684 384.032C46.9106 381.847 45.5794 379.637 43.395 379.095C41.2107 378.553 39.0004 379.884 38.4582 382.068C37.916 384.253 39.2473 386.463 41.4316 387.005Z" fill="#FFED00"/>
<path d="M35.6899 410.14C37.8742 410.682 40.0845 409.351 40.6267 407.167C41.1689 404.982 39.8377 402.772 37.6533 402.23C35.469 401.688 33.2587 403.019 32.7165 405.203C32.1743 407.387 33.5056 409.598 35.6899 410.14Z" fill="#FFED00"/>
<path d="M29.9477 433.273C32.132 433.815 34.3423 432.484 34.8845 430.299C35.4267 428.115 34.0955 425.905 31.9111 425.363C29.7268 424.82 27.5165 426.152 26.9743 428.336C26.4322 430.52 27.7634 432.731 29.9477 433.273Z" fill="#FFED00"/>
<path d="M24.2055 456.406C26.3899 456.948 28.6001 455.616 29.1423 453.432C29.6845 451.248 28.3533 449.038 26.169 448.495C23.9846 447.953 21.7743 449.284 21.2322 451.469C20.69 453.653 22.0212 455.863 24.2055 456.406Z" fill="#FFED00"/>
<path d="M18.4633 479.538C20.6477 480.081 22.8579 478.749 23.4001 476.565C23.9423 474.381 22.6111 472.17 20.4268 471.628C18.2424 471.086 16.0322 472.417 15.49 474.602C14.9478 476.786 16.279 478.996 18.4633 479.538Z" fill="#FFED00"/>
<path d="M107.013 231.374C109.197 231.916 111.407 230.585 111.949 228.401C112.492 226.217 111.16 224.006 108.976 223.464C106.792 222.922 104.581 224.253 104.039 226.437C103.497 228.622 104.828 230.832 107.013 231.374Z" fill="#FFED00"/>
<path d="M101.271 254.507C103.455 255.049 105.666 253.718 106.208 251.534C106.75 249.349 105.419 247.139 103.234 246.597C101.05 246.055 98.8398 247.386 98.2976 249.57C97.7554 251.755 99.0866 253.965 101.271 254.507Z" fill="#FFED00"/>
<path d="M95.5288 277.642C97.7131 278.184 99.9234 276.853 100.466 274.669C101.008 272.484 99.6765 270.274 97.4922 269.732C95.3079 269.19 93.0976 270.521 92.5554 272.705C92.0132 274.889 93.3444 277.1 95.5288 277.642Z" fill="#FFED00"/>
<path d="M89.7871 300.775C91.9714 301.317 94.1817 299.986 94.7239 297.801C95.266 295.617 93.9348 293.407 91.7505 292.865C89.5662 292.322 87.3559 293.654 86.8137 295.838C86.2715 298.022 87.6027 300.232 89.7871 300.775Z" fill="#FFED00"/>
<path d="M84.0449 323.907C86.2292 324.45 88.4395 323.118 88.9817 320.934C89.5239 318.75 88.1926 316.54 86.0083 315.997C83.824 315.455 81.6137 316.786 81.0715 318.971C80.5293 321.155 81.8606 323.365 84.0449 323.907Z" fill="#FFED00"/>
<path d="M78.3027 347.042C80.487 347.584 82.6973 346.253 83.2395 344.069C83.7817 341.885 82.4505 339.674 80.2661 339.132C78.0818 338.59 75.8715 339.921 75.3293 342.105C74.7871 344.29 76.1184 346.5 78.3027 347.042Z" fill="#FFED00"/>
<path d="M72.561 370.173C74.7453 370.715 76.9556 369.384 77.4978 367.2C78.04 365.015 76.7088 362.805 74.5244 362.263C72.3401 361.721 70.1298 363.052 69.5876 365.236C69.0454 367.421 70.3767 369.631 72.561 370.173Z" fill="#FFED00"/>
<path d="M66.8188 393.308C69.0031 393.85 71.2134 392.519 71.7556 390.335C72.2978 388.15 70.9666 385.94 68.7822 385.398C66.5979 384.856 64.3876 386.187 63.8454 388.371C63.3033 390.555 64.6345 392.766 66.8188 393.308Z" fill="#FFED00"/>
<path d="M61.0766 416.441C63.261 416.983 65.4712 415.652 66.0134 413.467C66.5556 411.283 65.2244 409.073 63.0401 408.531C60.8557 407.988 58.6454 409.32 58.1032 411.504C57.5611 413.688 58.8923 415.899 61.0766 416.441Z" fill="#FFED00"/>
<path d="M55.3344 439.575C57.5188 440.118 59.729 438.786 60.2712 436.602C60.8134 434.418 59.4822 432.207 57.2979 431.665C55.1135 431.123 52.9032 432.454 52.3611 434.639C51.8189 436.823 53.1501 439.033 55.3344 439.575Z" fill="#FFED00"/>
<path d="M49.5927 462.706C51.7771 463.249 53.9873 461.917 54.5295 459.733C55.0717 457.549 53.7405 455.338 51.5562 454.796C49.3718 454.254 47.1616 455.585 46.6194 457.77C46.0772 459.954 47.4084 462.164 49.5927 462.706Z" fill="#FFED00"/>
<path d="M43.8506 485.841C46.0349 486.383 48.2452 485.052 48.7873 482.868C49.3295 480.683 47.9983 478.473 45.814 477.931C43.6296 477.389 41.4194 478.72 40.8772 480.904C40.335 483.089 41.6662 485.299 43.8506 485.841Z" fill="#FFED00"/>
<path d="M38.1084 508.974C40.2927 509.516 42.503 508.185 43.0452 506.001C43.5873 503.816 42.2561 501.606 40.0718 501.064C37.8875 500.522 35.6772 501.853 35.135 504.037C34.5928 506.221 35.924 508.432 38.1084 508.974Z" fill="#FFED00"/>
<path d="M32.3662 532.107C34.5505 532.649 36.7608 531.318 37.303 529.133C37.8452 526.949 36.5139 524.739 34.3296 524.197C32.1453 523.654 29.935 524.986 29.3928 527.17C28.8506 529.354 30.1818 531.565 32.3662 532.107Z" fill="#FFED00"/>
<path d="M26.6245 555.241C28.8088 555.784 31.0191 554.452 31.5613 552.268C32.1035 550.084 30.7722 547.874 28.5879 547.331C26.4036 546.789 24.1933 548.12 23.6511 550.305C23.1089 552.489 24.4401 554.699 26.6245 555.241Z" fill="#FFED00"/>
<path d="M20.8838 578.368C23.0681 578.911 25.2784 577.579 25.8205 575.395C26.3627 573.211 25.0315 571 22.8472 570.458C20.6629 569.916 18.4526 571.247 17.9104 573.432C17.3682 575.616 18.6994 577.826 20.8838 578.368Z" fill="#FFED00"/>
<path d="M15.1416 601.501C17.3259 602.043 19.5362 600.712 20.0783 598.528C20.6205 596.344 19.2893 594.133 17.105 593.591C14.9207 593.049 12.7104 594.38 12.1682 596.564C11.626 598.749 12.9572 600.959 15.1416 601.501Z" fill="#FFED00"/>
<path d="M138.142 214.542C140.326 215.084 142.537 213.753 143.079 211.569C143.621 209.385 142.29 207.174 140.105 206.632C137.921 206.09 135.711 207.421 135.169 209.605C134.626 211.79 135.958 214 138.142 214.542Z" fill="#FFED00"/>
<path d="M132.4 237.675C134.585 238.217 136.795 236.886 137.337 234.702C137.879 232.517 136.548 230.307 134.364 229.765C132.179 229.223 129.969 230.554 129.427 232.738C128.885 234.923 130.216 237.133 132.4 237.675Z" fill="#FFED00"/>
<path d="M126.658 260.81C128.842 261.352 131.052 260.021 131.594 257.836C132.137 255.652 130.805 253.442 128.621 252.9C126.437 252.357 124.226 253.689 123.684 255.873C123.142 258.057 124.473 260.268 126.658 260.81Z" fill="#FFED00"/>
<path d="M120.916 283.943C123.1 284.485 125.311 283.154 125.853 280.969C126.395 278.785 125.064 276.575 122.879 276.032C120.695 275.49 118.485 276.822 117.943 279.006C117.4 281.19 118.732 283.4 120.916 283.943Z" fill="#FFED00"/>
<path d="M115.174 307.075C117.358 307.618 119.568 306.286 120.111 304.102C120.653 301.918 119.322 299.707 117.137 299.165C114.953 298.623 112.743 299.954 112.2 302.139C111.658 304.323 112.989 306.533 115.174 307.075Z" fill="#FFED00"/>
<path d="M109.432 330.21C111.616 330.752 113.827 329.421 114.369 327.237C114.911 325.053 113.58 322.842 111.396 322.3C109.211 321.758 107.001 323.089 106.459 325.273C105.917 327.458 107.248 329.668 109.432 330.21Z" fill="#FFED00"/>
<path d="M103.689 353.343C105.874 353.885 108.084 352.554 108.626 350.37C109.168 348.185 107.837 345.975 105.653 345.433C103.468 344.891 101.258 346.222 100.716 348.406C100.174 350.591 101.505 352.801 103.689 353.343Z" fill="#FFED00"/>
<path d="M97.9482 376.476C100.133 377.018 102.343 375.687 102.885 373.502C103.427 371.318 102.096 369.108 99.9116 368.566C97.7273 368.024 95.517 369.355 94.9748 371.539C94.4326 373.723 95.7639 375.934 97.9482 376.476Z" fill="#FFED00"/>
<path d="M92.2055 399.609C94.3898 400.151 96.6001 398.82 97.1423 396.635C97.6845 394.451 96.3533 392.241 94.1689 391.699C91.9846 391.156 89.7743 392.488 89.2322 394.672C88.69 396.856 90.0212 399.066 92.2055 399.609Z" fill="#FFED00"/>
<path d="M86.4638 422.741C88.6481 423.284 90.8584 421.952 91.4006 419.768C91.9428 417.584 90.6116 415.374 88.4272 414.831C86.2429 414.289 84.0326 415.62 83.4905 417.805C82.9483 419.989 84.2795 422.199 86.4638 422.741Z" fill="#FFED00"/>
<path d="M80.7211 445.876C82.9055 446.418 85.1157 445.087 85.6579 442.903C86.2001 440.719 84.8689 438.508 82.6846 437.966C80.5002 437.424 78.29 438.755 77.7478 440.939C77.2056 443.124 78.5368 445.334 80.7211 445.876Z" fill="#FFED00"/>
<path d="M74.9794 469.007C77.1638 469.549 79.374 468.218 79.9162 466.034C80.4584 463.849 79.1272 461.639 76.9429 461.097C74.7585 460.555 72.5483 461.886 72.0061 464.07C71.4639 466.255 72.7951 468.465 74.9794 469.007Z" fill="#FFED00"/>
<path d="M69.2373 492.142C71.4216 492.684 73.6319 491.353 74.174 489.168C74.7162 486.984 73.385 484.774 71.2007 484.232C69.0163 483.69 66.8061 485.021 66.2639 487.205C65.7217 489.389 67.0529 491.6 69.2373 492.142Z" fill="#FFED00"/>
<path d="M63.4956 515.275C65.6799 515.817 67.8902 514.486 68.4323 512.301C68.9745 510.117 67.6433 507.907 65.459 507.365C63.2746 506.822 61.0644 508.154 60.5222 510.338C59.98 512.522 61.3112 514.732 63.4956 515.275Z" fill="#FFED00"/>
<path d="M57.7529 538.409C59.9372 538.952 62.1475 537.62 62.6897 535.436C63.2319 533.252 61.9006 531.041 59.7163 530.499C57.532 529.957 55.3217 531.288 54.7795 533.473C54.2373 535.657 55.5685 537.867 57.7529 538.409Z" fill="#FFED00"/>
<path d="M52.0112 561.542C54.1955 562.084 56.4058 560.753 56.948 558.569C57.4902 556.385 56.1589 554.174 53.9746 553.632C51.7903 553.09 49.58 554.421 49.0378 556.605C48.4956 558.79 49.8268 561 52.0112 561.542Z" fill="#FFED00"/>
<path d="M46.2705 584.669C48.4548 585.211 50.6651 583.88 51.2072 581.696C51.7494 579.512 50.4182 577.301 48.2339 576.759C46.0496 576.217 43.8393 577.548 43.2971 579.732C42.7549 581.917 44.0861 584.127 46.2705 584.669Z" fill="#FFED00"/>
<path d="M40.5283 607.804C42.7126 608.346 44.9229 607.015 45.4651 604.831C46.0072 602.646 44.676 600.436 42.4917 599.894C40.3074 599.352 38.0971 600.683 37.5549 602.867C37.0127 605.052 38.3439 607.262 40.5283 607.804Z" fill="#FFED00"/>
<path d="M163.529 220.845C165.713 221.387 167.923 220.056 168.466 217.872C169.008 215.687 167.677 213.477 165.492 212.935C163.308 212.393 161.098 213.724 160.555 215.908C160.013 218.093 161.344 220.303 163.529 220.845Z" fill="#FFED00"/>
<path d="M157.787 243.978C159.971 244.52 162.182 243.189 162.724 241.004C163.266 238.82 161.935 236.61 159.751 236.068C157.566 235.525 155.356 236.857 154.814 239.041C154.272 241.225 155.603 243.436 157.787 243.978Z" fill="#FFED00"/>
<path d="M152.045 267.113C154.229 267.655 156.44 266.324 156.982 264.139C157.524 261.955 156.193 259.745 154.008 259.202C151.824 258.66 149.614 259.991 149.072 262.176C148.529 264.36 149.861 266.57 152.045 267.113Z" fill="#FFED00"/>
<path d="M146.303 290.243C148.487 290.786 150.697 289.454 151.24 287.27C151.782 285.086 150.45 282.875 148.266 282.333C146.082 281.791 143.872 283.122 143.329 285.307C142.787 287.491 144.118 289.701 146.303 290.243Z" fill="#FFED00"/>
<path d="M140.561 313.376C142.745 313.918 144.956 312.587 145.498 310.403C146.04 308.219 144.709 306.008 142.524 305.466C140.34 304.924 138.13 306.255 137.588 308.439C137.045 310.624 138.377 312.834 140.561 313.376Z" fill="#FFED00"/>
<path d="M134.819 336.511C137.003 337.053 139.213 335.722 139.756 333.538C140.298 331.353 138.967 329.143 136.782 328.601C134.598 328.059 132.388 329.39 131.845 331.574C131.303 333.759 132.634 335.969 134.819 336.511Z" fill="#FFED00"/>
<path d="M129.077 359.644C131.261 360.186 133.471 358.855 134.013 356.67C134.556 354.486 133.224 352.276 131.04 351.734C128.856 351.191 126.645 352.523 126.103 354.707C125.561 356.891 126.892 359.102 129.077 359.644Z" fill="#FFED00"/>
<path d="M123.334 382.777C125.519 383.319 127.729 381.988 128.271 379.803C128.813 377.619 127.482 375.409 125.298 374.866C123.114 374.324 120.903 375.656 120.361 377.84C119.819 380.024 121.15 382.234 123.334 382.777Z" fill="#FFED00"/>
<path d="M117.593 405.909C119.777 406.452 121.987 405.12 122.53 402.936C123.072 400.752 121.74 398.541 119.556 397.999C117.372 397.457 115.162 398.788 114.619 400.973C114.077 403.157 115.408 405.367 117.593 405.909Z" fill="#FFED00"/>
<path d="M111.85 429.044C114.034 429.586 116.245 428.255 116.787 426.071C117.329 423.887 115.998 421.676 113.813 421.134C111.629 420.592 109.419 421.923 108.877 424.107C108.335 426.292 109.666 428.502 111.85 429.044Z" fill="#FFED00"/>
<path d="M106.108 452.177C108.293 452.719 110.503 451.388 111.045 449.204C111.587 447.019 110.256 444.809 108.072 444.267C105.887 443.725 103.677 445.056 103.135 447.24C102.593 449.425 103.924 451.635 106.108 452.177Z" fill="#FFED00"/>
<path d="M100.366 475.312C102.551 475.854 104.761 474.523 105.303 472.338C105.845 470.154 104.514 467.944 102.33 467.402C100.145 466.859 97.935 468.191 97.3928 470.375C96.8506 472.559 98.1818 474.77 100.366 475.312Z" fill="#FFED00"/>
<path d="M94.6245 498.443C96.8088 498.985 99.0191 497.654 99.5613 495.469C100.103 493.285 98.7722 491.075 96.5879 490.532C94.4036 489.99 92.1933 491.322 91.6511 493.506C91.1089 495.69 92.4401 497.9 94.6245 498.443Z" fill="#FFED00"/>
<path d="M88.8818 521.577C91.0661 522.12 93.2764 520.788 93.8186 518.604C94.3608 516.42 93.0296 514.209 90.8452 513.667C88.6609 513.125 86.4506 514.456 85.9084 516.641C85.3662 518.825 86.6975 521.035 88.8818 521.577Z" fill="#FFED00"/>
<path d="M83.1401 544.71C85.3244 545.252 87.5347 543.921 88.0769 541.737C88.6191 539.553 87.2879 537.342 85.1035 536.8C82.9192 536.258 80.7089 537.589 80.1667 539.773C79.6245 541.958 80.9558 544.168 83.1401 544.71Z" fill="#FFED00"/>
<path d="M77.3979 567.843C79.5822 568.385 81.7925 567.054 82.3347 564.87C82.8769 562.685 81.5457 560.475 79.3613 559.933C77.177 559.391 74.9667 560.722 74.4245 562.906C73.8824 565.091 75.2136 567.301 77.3979 567.843Z" fill="#FFED00"/>
<path d="M71.6572 590.97C73.8415 591.512 76.0518 590.181 76.594 587.997C77.1362 585.812 75.8049 583.602 73.6206 583.06C71.4363 582.518 69.226 583.849 68.6838 586.033C68.1416 588.218 69.4729 590.428 71.6572 590.97Z" fill="#FFED00"/>
<path d="M65.9155 614.105C68.0998 614.647 70.3101 613.316 70.8523 611.131C71.3945 608.947 70.0632 606.737 67.8789 606.195C65.6946 605.652 63.4843 606.984 62.9421 609.168C62.3999 611.352 63.7312 613.563 65.9155 614.105Z" fill="#FFED00"/>
<path d="M188.915 227.146C191.1 227.688 193.31 226.357 193.852 224.172C194.394 221.988 193.063 219.778 190.879 219.236C188.695 218.693 186.484 220.025 185.942 222.209C185.4 224.393 186.731 226.604 188.915 227.146Z" fill="#FFED00"/>
<path d="M183.174 250.279C185.358 250.821 187.568 249.49 188.111 247.305C188.653 245.121 187.322 242.911 185.137 242.368C182.953 241.826 180.743 243.157 180.2 245.342C179.658 247.526 180.989 249.736 183.174 250.279Z" fill="#FFED00"/>
<path d="M177.432 273.413C179.616 273.956 181.826 272.624 182.368 270.44C182.911 268.256 181.579 266.045 179.395 265.503C177.211 264.961 175 266.292 174.458 268.477C173.916 270.661 175.247 272.871 177.432 273.413Z" fill="#FFED00"/>
<path d="M171.689 296.546C173.874 297.088 176.084 295.757 176.626 293.573C177.168 291.388 175.837 289.178 173.653 288.636C171.469 288.094 169.258 289.425 168.716 291.609C168.174 293.794 169.505 296.004 171.689 296.546Z" fill="#FFED00"/>
<path d="M165.948 319.679C168.132 320.221 170.342 318.89 170.885 316.706C171.427 314.521 170.095 312.311 167.911 311.769C165.727 311.227 163.517 312.558 162.974 314.742C162.432 316.927 163.763 319.137 165.948 319.679Z" fill="#FFED00"/>
<path d="M160.206 342.812C162.39 343.354 164.6 342.023 165.142 339.838C165.685 337.654 164.353 335.444 162.169 334.902C159.985 334.359 157.774 335.691 157.232 337.875C156.69 340.059 158.021 342.27 160.206 342.812Z" fill="#FFED00"/>
<path d="M154.463 365.947C156.648 366.489 158.858 365.158 159.4 362.973C159.942 360.789 158.611 358.579 156.427 358.036C154.242 357.494 152.032 358.825 151.49 361.01C150.948 363.194 152.279 365.404 154.463 365.947Z" fill="#FFED00"/>
<path d="M148.722 389.077C150.906 389.62 153.116 388.288 153.658 386.104C154.201 383.92 152.869 381.709 150.685 381.167C148.501 380.625 146.29 381.956 145.748 384.141C145.206 386.325 146.537 388.535 148.722 389.077Z" fill="#FFED00"/>
<path d="M142.979 412.212C145.164 412.754 147.374 411.423 147.916 409.239C148.458 407.054 147.127 404.844 144.943 404.302C142.759 403.76 140.548 405.091 140.006 407.275C139.464 409.46 140.795 411.67 142.979 412.212Z" fill="#FFED00"/>
<path d="M137.237 435.345C139.422 435.887 141.632 434.556 142.174 432.372C142.716 430.187 141.385 427.977 139.201 427.435C137.016 426.893 134.806 428.224 134.264 430.408C133.722 432.593 135.053 434.803 137.237 435.345Z" fill="#FFED00"/>
<path d="M131.495 458.478C133.679 459.02 135.89 457.689 136.432 455.504C136.974 453.32 135.643 451.11 133.459 450.568C131.274 450.025 129.064 451.357 128.522 453.541C127.98 455.725 129.311 457.936 131.495 458.478Z" fill="#FFED00"/>
<path d="M125.753 481.613C127.938 482.155 130.148 480.824 130.69 478.639C131.232 476.455 129.901 474.245 127.717 473.702C125.532 473.16 123.322 474.491 122.78 476.676C122.238 478.86 123.569 481.07 125.753 481.613Z" fill="#FFED00"/>
<path d="M120.011 504.745C122.196 505.288 124.406 503.956 124.948 501.772C125.49 499.588 124.159 497.377 121.975 496.835C119.79 496.293 117.58 497.624 117.038 499.809C116.496 501.993 117.827 504.203 120.011 504.745Z" fill="#FFED00"/>
<path d="M114.269 527.88C116.453 528.422 118.664 527.091 119.206 524.907C119.748 522.722 118.417 520.512 116.232 519.97C114.048 519.428 111.838 520.759 111.296 522.943C110.753 525.128 112.085 527.338 114.269 527.88Z" fill="#FFED00"/>
<path d="M108.527 551.011C110.711 551.553 112.921 550.222 113.464 548.038C114.006 545.853 112.675 543.643 110.49 543.101C108.306 542.559 106.096 543.89 105.553 546.074C105.011 548.259 106.342 550.469 108.527 551.011Z" fill="#FFED00"/>
<path d="M102.785 574.144C104.969 574.686 107.18 573.355 107.722 571.17C108.264 568.986 106.933 566.776 104.749 566.234C102.564 565.691 100.354 567.023 99.8117 569.207C99.2696 571.391 100.601 573.602 102.785 574.144Z" fill="#FFED00"/>
<path d="M97.0449 597.273C99.2292 597.815 101.44 596.484 101.982 594.299C102.524 592.115 101.193 589.905 99.0083 589.363C96.824 588.82 94.6137 590.152 94.0715 592.336C93.5293 594.52 94.8606 596.731 97.0449 597.273Z" fill="#FFED00"/>
<path d="M91.3022 620.406C93.4865 620.948 95.6968 619.617 96.239 617.432C96.7812 615.248 95.45 613.038 93.2656 612.495C91.0813 611.953 88.871 613.284 88.3288 615.469C87.7866 617.653 89.1179 619.863 91.3022 620.406Z" fill="#FFED00"/>
<path d="M214.303 233.449C216.488 233.991 218.698 232.659 219.24 230.475C219.782 228.291 218.451 226.081 216.267 225.538C214.082 224.996 211.872 226.327 211.33 228.512C210.788 230.696 212.119 232.906 214.303 233.449Z" fill="#FFED00"/>
<path d="M208.561 256.581C210.745 257.124 212.955 255.792 213.497 253.608C214.039 251.424 212.708 249.213 210.524 248.671C208.34 248.129 206.129 249.46 205.587 251.645C205.045 253.829 206.376 256.039 208.561 256.581Z" fill="#FFED00"/>
<path d="M202.819 279.714C205.003 280.256 207.213 278.925 207.756 276.741C208.298 274.556 206.967 272.346 204.782 271.804C202.598 271.262 200.388 272.593 199.845 274.777C199.303 276.962 200.634 279.172 202.819 279.714Z" fill="#FFED00"/>
<path d="M197.076 302.847C199.26 303.389 201.471 302.058 202.013 299.874C202.555 297.689 201.224 295.479 199.04 294.937C196.855 294.395 194.645 295.726 194.103 297.91C193.561 300.094 194.892 302.305 197.076 302.847Z" fill="#FFED00"/>
<path d="M191.334 325.98C193.519 326.522 195.729 325.191 196.271 323.006C196.813 320.822 195.482 318.612 193.298 318.07C191.114 317.527 188.903 318.859 188.361 321.043C187.819 323.227 189.15 325.438 191.334 325.98Z" fill="#FFED00"/>
<path d="M185.592 349.113C187.777 349.655 189.987 348.324 190.529 346.139C191.071 343.955 189.74 341.745 187.556 341.202C185.371 340.66 183.161 341.991 182.619 344.176C182.077 346.36 183.408 348.57 185.592 349.113Z" fill="#FFED00"/>
<path d="M179.851 372.247C182.035 372.79 184.245 371.458 184.787 369.274C185.33 367.09 183.998 364.879 181.814 364.337C179.63 363.795 177.419 365.126 176.877 367.311C176.335 369.495 177.666 371.705 179.851 372.247Z" fill="#FFED00"/>
<path d="M174.108 395.378C176.293 395.92 178.503 394.589 179.045 392.405C179.587 390.221 178.256 388.01 176.072 387.468C173.887 386.926 171.677 388.257 171.135 390.441C170.593 392.626 171.924 394.836 174.108 395.378Z" fill="#FFED00"/>
<path d="M168.366 418.513C170.551 419.055 172.761 417.724 173.303 415.54C173.845 413.355 172.514 411.145 170.33 410.603C168.145 410.061 165.935 411.392 165.393 413.576C164.851 415.76 166.182 417.971 168.366 418.513Z" fill="#FFED00"/>
<path d="M162.624 441.646C164.808 442.188 167.019 440.857 167.561 438.672C168.103 436.488 166.772 434.278 164.587 433.736C162.403 433.193 160.193 434.525 159.651 436.709C159.108 438.893 160.44 441.104 162.624 441.646Z" fill="#FFED00"/>
<path d="M156.882 464.781C159.067 465.323 161.277 463.992 161.819 461.807C162.361 459.623 161.03 457.413 158.846 456.87C156.661 456.328 154.451 457.659 153.909 459.844C153.367 462.028 154.698 464.238 156.882 464.781Z" fill="#FFED00"/>
<path d="M151.14 487.913C153.324 488.456 155.535 487.124 156.077 484.94C156.619 482.756 155.288 480.545 153.104 480.003C150.919 479.461 148.709 480.792 148.167 482.977C147.625 485.161 148.956 487.371 151.14 487.913Z" fill="#FFED00"/>
<path d="M145.398 511.048C147.583 511.59 149.793 510.259 150.335 508.075C150.877 505.89 149.546 503.68 147.362 503.138C145.177 502.596 142.967 503.927 142.425 506.111C141.883 508.296 143.214 510.506 145.398 511.048Z" fill="#FFED00"/>
<path d="M139.656 534.181C141.841 534.723 144.051 533.392 144.593 531.208C145.135 529.023 143.804 526.813 141.62 526.271C139.435 525.729 137.225 527.06 136.683 529.244C136.141 531.428 137.472 533.639 139.656 534.181Z" fill="#FFED00"/>
<path d="M133.914 557.314C136.098 557.856 138.309 556.525 138.851 554.34C139.393 552.156 138.062 549.946 135.877 549.404C133.693 548.861 131.483 550.193 130.941 552.377C130.398 554.561 131.73 556.772 133.914 557.314Z" fill="#FFED00"/>
<path d="M128.172 580.447C130.357 580.989 132.567 579.658 133.109 577.473C133.651 575.289 132.32 573.079 130.136 572.536C127.951 571.994 125.741 573.325 125.199 575.51C124.657 577.694 125.988 579.904 128.172 580.447Z" fill="#FFED00"/>
<path d="M122.431 603.574C124.615 604.116 126.826 602.784 127.368 600.6C127.91 598.416 126.579 596.206 124.395 595.663C122.21 595.121 120 596.452 119.458 598.637C118.916 600.821 120.247 603.031 122.431 603.574Z" fill="#FFED00"/>
<path d="M245.432 216.615C247.616 217.157 249.826 215.825 250.368 213.641C250.911 211.457 249.579 209.247 247.395 208.704C245.211 208.162 243 209.493 242.458 211.678C241.916 213.862 243.247 216.072 245.432 216.615Z" fill="#FFED00"/>
<path d="M239.689 239.747C241.874 240.29 244.084 238.958 244.626 236.774C245.168 234.59 243.837 232.379 241.653 231.837C239.469 231.295 237.258 232.626 236.716 234.811C236.174 236.995 237.505 239.205 239.689 239.747Z" fill="#FFED00"/>
<path d="M233.948 262.882C236.132 263.424 238.342 262.093 238.885 259.909C239.427 257.724 238.095 255.514 235.911 254.972C233.727 254.43 231.517 255.761 230.974 257.945C230.432 260.13 231.763 262.34 233.948 262.882Z" fill="#FFED00"/>
<path d="M228.206 286.015C230.39 286.557 232.6 285.226 233.142 283.042C233.685 280.857 232.353 278.647 230.169 278.105C227.985 277.563 225.774 278.894 225.232 281.078C224.69 283.262 226.021 285.473 228.206 286.015Z" fill="#FFED00"/>
<path d="M222.463 309.15C224.648 309.692 226.858 308.361 227.4 306.176C227.942 303.992 226.611 301.782 224.427 301.24C222.242 300.697 220.032 302.029 219.49 304.213C218.948 306.397 220.279 308.607 222.463 309.15Z" fill="#FFED00"/>
<path d="M216.721 332.281C218.905 332.823 221.116 331.492 221.658 329.307C222.2 327.123 220.869 324.913 218.685 324.37C216.5 323.828 214.29 325.159 213.748 327.344C213.206 329.528 214.537 331.738 216.721 332.281Z" fill="#FFED00"/>
<path d="M210.979 355.415C213.164 355.957 215.374 354.626 215.916 352.442C216.458 350.258 215.127 348.047 212.943 347.505C210.759 346.963 208.548 348.294 208.006 350.479C207.464 352.663 208.795 354.873 210.979 355.415Z" fill="#FFED00"/>
<path d="M205.237 378.548C207.421 379.09 209.631 377.759 210.174 375.575C210.716 373.39 209.385 371.18 207.2 370.638C205.016 370.096 202.806 371.427 202.263 373.611C201.721 375.796 203.052 378.006 205.237 378.548Z" fill="#FFED00"/>
<path d="M199.496 401.683C201.68 402.225 203.89 400.894 204.432 398.71C204.975 396.525 203.643 394.315 201.459 393.773C199.275 393.231 197.064 394.562 196.522 396.746C195.98 398.93 197.311 401.141 199.496 401.683Z" fill="#FFED00"/>
<path d="M193.753 424.816C195.937 425.358 198.148 424.027 198.69 421.842C199.232 419.658 197.901 417.448 195.716 416.906C193.532 416.363 191.322 417.695 190.78 419.879C190.237 422.063 191.569 424.274 193.753 424.816Z" fill="#FFED00"/>
<path d="M188.011 447.947C190.196 448.489 192.406 447.158 192.948 444.973C193.49 442.789 192.159 440.579 189.975 440.036C187.79 439.494 185.58 440.825 185.038 443.01C184.496 445.194 185.827 447.404 188.011 447.947Z" fill="#FFED00"/>
<path d="M182.269 471.081C184.453 471.624 186.664 470.292 187.206 468.108C187.748 465.924 186.417 463.713 184.232 463.171C182.048 462.629 179.838 463.96 179.296 466.145C178.753 468.329 180.085 470.539 182.269 471.081Z" fill="#FFED00"/>
<path d="M176.527 494.214C178.712 494.756 180.922 493.425 181.464 491.241C182.006 489.056 180.675 486.846 178.491 486.304C176.306 485.762 174.096 487.093 173.554 489.277C173.012 491.462 174.343 493.672 176.527 494.214Z" fill="#FFED00"/>
<path d="M170.785 517.349C172.969 517.891 175.18 516.56 175.722 514.376C176.264 512.191 174.933 509.981 172.749 509.439C170.564 508.897 168.354 510.228 167.812 512.412C167.27 514.596 168.601 516.807 170.785 517.349Z" fill="#FFED00"/>
<path d="M165.043 540.482C167.227 541.024 169.438 539.693 169.98 537.508C170.522 535.324 169.191 533.114 167.006 532.572C164.822 532.029 162.612 533.361 162.07 535.545C161.527 537.729 162.859 539.94 165.043 540.482Z" fill="#FFED00"/>
<path d="M159.301 563.616C161.485 564.159 163.695 562.827 164.238 560.643C164.78 558.459 163.449 556.249 161.264 555.706C159.08 555.164 156.87 556.495 156.327 558.68C155.785 560.864 157.116 563.074 159.301 563.616Z" fill="#FFED00"/>
<path d="M153.559 586.747C155.743 587.29 157.954 585.958 158.496 583.774C159.038 581.59 157.707 579.379 155.522 578.837C153.338 578.295 151.128 579.626 150.586 581.811C150.043 583.995 151.375 586.205 153.559 586.747Z" fill="#FFED00"/>
<path d="M147.818 609.876C150.003 610.418 152.213 609.087 152.755 606.903C153.297 604.719 151.966 602.508 149.782 601.966C147.597 601.424 145.387 602.755 144.845 604.939C144.303 607.124 145.634 609.334 147.818 609.876Z" fill="#FFED00"/>
<path d="M270.819 222.915C273.003 223.457 275.213 222.126 275.756 219.942C276.298 217.758 274.967 215.547 272.782 215.005C270.598 214.463 268.388 215.794 267.845 217.979C267.303 220.163 268.634 222.373 270.819 222.915Z" fill="#FFED00"/>
<path d="M265.077 246.05C267.261 246.592 269.471 245.261 270.013 243.077C270.556 240.892 269.224 238.682 267.04 238.14C264.856 237.598 262.645 238.929 262.103 241.113C261.561 243.298 262.892 245.508 265.077 246.05Z" fill="#FFED00"/>
<path d="M259.334 269.183C261.519 269.725 263.729 268.394 264.271 266.21C264.813 264.025 263.482 261.815 261.298 261.273C259.114 260.731 256.903 262.062 256.361 264.246C255.819 266.43 257.15 268.641 259.334 269.183Z" fill="#FFED00"/>
<path d="M253.592 292.318C255.777 292.86 257.987 291.529 258.529 289.344C259.071 287.16 257.74 284.95 255.556 284.407C253.371 283.865 251.161 285.197 250.619 287.381C250.077 289.565 251.408 291.775 253.592 292.318Z" fill="#FFED00"/>
<path d="M247.851 315.45C250.035 315.993 252.245 314.661 252.787 312.477C253.33 310.293 251.998 308.082 249.814 307.54C247.63 306.998 245.419 308.329 244.877 310.514C244.335 312.698 245.666 314.908 247.851 315.45Z" fill="#FFED00"/>
<path d="M242.108 338.581C244.293 339.124 246.503 337.792 247.045 335.608C247.587 333.424 246.256 331.213 244.072 330.671C241.887 330.129 239.677 331.46 239.135 333.645C238.593 335.829 239.924 338.039 242.108 338.581Z" fill="#FFED00"/>
<path d="M236.366 361.716C238.551 362.258 240.761 360.927 241.303 358.743C241.845 356.558 240.514 354.348 238.33 353.806C236.145 353.264 233.935 354.595 233.393 356.779C232.851 358.964 234.182 361.174 236.366 361.716Z" fill="#FFED00"/>
<path d="M230.624 384.849C232.809 385.391 235.019 384.06 235.561 381.876C236.103 379.691 234.772 377.481 232.588 376.939C230.404 376.397 228.193 377.728 227.651 379.912C227.109 382.096 228.44 384.307 230.624 384.849Z" fill="#FFED00"/>
<path d="M224.882 407.984C227.067 408.526 229.277 407.195 229.819 405.01C230.361 402.826 229.03 400.616 226.846 400.074C224.661 399.531 222.451 400.863 221.909 403.047C221.367 405.231 222.698 407.441 224.882 407.984Z" fill="#FFED00"/>
<path d="M219.141 431.116C221.325 431.659 223.535 430.327 224.077 428.143C224.62 425.959 223.288 423.749 221.104 423.206C218.92 422.664 216.709 423.995 216.167 426.18C215.625 428.364 216.956 430.574 219.141 431.116Z" fill="#FFED00"/>
<path d="M213.398 454.251C215.582 454.793 217.793 453.462 218.335 451.278C218.877 449.094 217.546 446.883 215.361 446.341C213.177 445.799 210.967 447.13 210.425 449.314C209.882 451.499 211.214 453.709 213.398 454.251Z" fill="#FFED00"/>
<path d="M207.656 477.382C209.841 477.924 212.051 476.593 212.593 474.409C213.135 472.224 211.804 470.014 209.62 469.472C207.435 468.93 205.225 470.261 204.683 472.445C204.141 474.63 205.472 476.84 207.656 477.382Z" fill="#FFED00"/>
<path d="M201.914 500.515C204.098 501.057 206.309 499.726 206.851 497.542C207.393 495.357 206.062 493.147 203.877 492.605C201.693 492.063 199.483 493.394 198.941 495.578C198.398 497.762 199.73 499.973 201.914 500.515Z" fill="#FFED00"/>
<path d="M196.172 523.65C198.357 524.192 200.567 522.861 201.109 520.676C201.651 518.492 200.32 516.282 198.136 515.74C195.951 515.197 193.741 516.529 193.199 518.713C192.657 520.897 193.988 523.107 196.172 523.65Z" fill="#FFED00"/>
<path d="M190.43 546.782C192.614 547.325 194.824 545.993 195.366 543.809C195.909 541.625 194.577 539.415 192.393 538.872C190.209 538.33 187.998 539.661 187.456 541.846C186.914 544.03 188.245 546.24 190.43 546.782Z" fill="#FFED00"/>
<path d="M184.688 569.917C186.872 570.459 189.083 569.128 189.625 566.944C190.167 564.76 188.836 562.549 186.651 562.007C184.467 561.465 182.257 562.796 181.715 564.98C181.172 567.165 182.504 569.375 184.688 569.917Z" fill="#FFED00"/>
<path d="M178.946 593.048C181.13 593.59 183.34 592.259 183.883 590.075C184.425 587.89 183.094 585.68 180.909 585.138C178.725 584.596 176.515 585.927 175.972 588.111C175.43 590.296 176.761 592.506 178.946 593.048Z" fill="#FFED00"/>
<path d="M173.205 616.177C175.389 616.719 177.6 615.388 178.142 613.204C178.684 611.019 177.353 608.809 175.168 608.267C172.984 607.725 170.774 609.056 170.232 611.24C169.689 613.425 171.021 615.635 173.205 616.177Z" fill="#FFED00"/>
<path d="M296.205 229.218C298.39 229.76 300.6 228.429 301.142 226.245C301.684 224.06 300.353 221.85 298.169 221.308C295.985 220.766 293.774 222.097 293.232 224.281C292.69 226.466 294.021 228.676 296.205 229.218Z" fill="#FFED00"/>
<path d="M290.463 252.351C292.647 252.893 294.857 251.562 295.4 249.377C295.942 247.193 294.611 244.983 292.426 244.441C290.242 243.899 288.032 245.23 287.489 247.414C286.947 249.598 288.278 251.809 290.463 252.351Z" fill="#FFED00"/>
<path d="M284.721 275.484C286.905 276.026 289.116 274.695 289.658 272.51C290.2 270.326 288.869 268.116 286.685 267.574C284.5 267.031 282.29 268.363 281.748 270.547C281.206 272.731 282.537 274.941 284.721 275.484Z" fill="#FFED00"/>
<path d="M278.979 298.618C281.163 299.161 283.374 297.829 283.916 295.645C284.458 293.461 283.127 291.25 280.942 290.708C278.758 290.166 276.548 291.497 276.006 293.682C275.463 295.866 276.795 298.076 278.979 298.618Z" fill="#FFED00"/>
<path d="M273.237 321.751C275.421 322.293 277.631 320.962 278.174 318.778C278.716 316.594 277.385 314.383 275.2 313.841C273.016 313.299 270.806 314.63 270.263 316.814C269.721 318.999 271.052 321.209 273.237 321.751Z" fill="#FFED00"/>
<path d="M267.495 344.884C269.679 345.426 271.89 344.095 272.432 341.911C272.974 339.726 271.643 337.516 269.458 336.974C267.274 336.432 265.064 337.763 264.522 339.947C263.98 342.132 265.311 344.342 267.495 344.884Z" fill="#FFED00"/>
<path d="M261.753 368.017C263.937 368.559 266.147 367.228 266.69 365.043C267.232 362.859 265.901 360.649 263.716 360.107C261.532 359.565 259.322 360.896 258.78 363.08C258.237 365.264 259.569 367.475 261.753 368.017Z" fill="#FFED00"/>
<path d="M256.011 391.152C258.195 391.694 260.405 390.363 260.947 388.178C261.49 385.994 260.158 383.784 257.974 383.241C255.79 382.699 253.58 384.031 253.037 386.215C252.495 388.399 253.826 390.609 256.011 391.152Z" fill="#FFED00"/>
<path d="M250.269 414.284C252.453 414.827 254.664 413.495 255.206 411.311C255.748 409.127 254.417 406.916 252.232 406.374C250.048 405.832 247.838 407.163 247.296 409.348C246.753 411.532 248.085 413.742 250.269 414.284Z" fill="#FFED00"/>
<path d="M244.527 437.417C246.711 437.959 248.921 436.628 249.464 434.444C250.006 432.26 248.675 430.049 246.49 429.507C244.306 428.965 242.096 430.296 241.553 432.48C241.011 434.665 242.342 436.875 244.527 437.417Z" fill="#FFED00"/>
<path d="M238.785 460.552C240.969 461.094 243.179 459.763 243.721 457.579C244.264 455.394 242.932 453.184 240.748 452.642C238.564 452.1 236.353 453.431 235.811 455.615C235.269 457.8 236.6 460.01 238.785 460.552Z" fill="#FFED00"/>
<path d="M233.042 483.685C235.227 484.227 237.437 482.896 237.979 480.711C238.521 478.527 237.19 476.317 235.006 475.775C232.822 475.232 230.611 476.564 230.069 478.748C229.527 480.932 230.858 483.143 233.042 483.685Z" fill="#FFED00"/>
<path d="M227.301 506.818C229.485 507.36 231.695 506.029 232.238 503.844C232.78 501.66 231.448 499.45 229.264 498.907C227.08 498.365 224.87 499.697 224.327 501.881C223.785 504.065 225.116 506.275 227.301 506.818Z" fill="#FFED00"/>
<path d="M221.559 529.948C223.743 530.491 225.953 529.159 226.495 526.975C227.038 524.791 225.706 522.581 223.522 522.038C221.338 521.496 219.127 522.827 218.585 525.012C218.043 527.196 219.374 529.406 221.559 529.948Z" fill="#FFED00"/>
<path d="M215.816 553.083C218.001 553.625 220.211 552.294 220.753 550.11C221.295 547.926 219.964 545.715 217.78 545.173C215.595 544.631 213.385 545.962 212.843 548.146C212.301 550.331 213.632 552.541 215.816 553.083Z" fill="#FFED00"/>
<path d="M210.074 576.218C212.258 576.76 214.469 575.429 215.011 573.245C215.553 571.06 214.222 568.85 212.038 568.308C209.853 567.766 207.643 569.097 207.101 571.281C206.559 573.466 207.89 575.676 210.074 576.218Z" fill="#FFED00"/>
<path d="M204.332 599.351C206.517 599.893 208.727 598.562 209.269 596.377C209.811 594.193 208.48 591.983 206.296 591.441C204.112 590.899 201.901 592.23 201.359 594.414C200.817 596.598 202.148 598.809 204.332 599.351Z" fill="#FFED00"/>
<path d="M198.592 622.48C200.776 623.022 202.986 621.691 203.529 619.506C204.071 617.322 202.739 615.112 200.555 614.57C198.371 614.027 196.161 615.359 195.618 617.543C195.076 619.727 196.407 621.938 198.592 622.48Z" fill="#FFED00"/>
<path d="M327.334 212.386C329.518 212.928 331.729 211.597 332.271 209.413C332.813 207.228 331.482 205.018 329.297 204.476C327.113 203.934 324.903 205.265 324.361 207.449C323.818 209.634 325.15 211.844 327.334 212.386Z" fill="#FFED00"/>
<path d="M321.592 235.519C323.776 236.061 325.986 234.73 326.529 232.545C327.071 230.361 325.739 228.151 323.555 227.609C321.371 227.066 319.161 228.398 318.618 230.582C318.076 232.766 319.407 234.977 321.592 235.519Z" fill="#FFED00"/>
<path d="M315.851 258.654C318.035 259.196 320.245 257.865 320.787 255.68C321.33 253.496 319.998 251.286 317.814 250.743C315.63 250.201 313.419 251.532 312.877 253.717C312.335 255.901 313.666 258.111 315.851 258.654Z" fill="#FFED00"/>
<path d="M310.108 281.786C312.292 282.329 314.502 280.997 315.045 278.813C315.587 276.629 314.256 274.418 312.071 273.876C309.887 273.334 307.677 274.665 307.134 276.85C306.592 279.034 307.924 281.244 310.108 281.786Z" fill="#FFED00"/>
<path d="M304.366 304.919C306.55 305.461 308.761 304.13 309.303 301.946C309.845 299.762 308.514 297.551 306.33 297.009C304.145 296.467 301.935 297.798 301.393 299.982C300.851 302.167 302.182 304.377 304.366 304.919Z" fill="#FFED00"/>
<path d="M298.623 328.054C300.808 328.596 303.018 327.265 303.56 325.081C304.102 322.896 302.771 320.686 300.587 320.144C298.403 319.602 296.192 320.933 295.65 323.117C295.108 325.302 296.439 327.512 298.623 328.054Z" fill="#FFED00"/>
<path d="M292.882 351.187C295.067 351.729 297.277 350.398 297.819 348.213C298.361 346.029 297.03 343.819 294.846 343.277C292.661 342.734 290.451 344.066 289.909 346.25C289.367 348.434 290.698 350.645 292.882 351.187Z" fill="#FFED00"/>
<path d="M287.14 374.318C289.324 374.86 291.534 373.529 292.076 371.344C292.619 369.16 291.287 366.95 289.103 366.407C286.919 365.865 284.708 367.197 284.166 369.381C283.624 371.565 284.955 373.775 287.14 374.318Z" fill="#FFED00"/>
<path d="M281.398 397.452C283.582 397.995 285.792 396.663 286.335 394.479C286.877 392.295 285.546 390.084 283.361 389.542C281.177 389 278.967 390.331 278.425 392.516C277.882 394.7 279.214 396.91 281.398 397.452Z" fill="#FFED00"/>
<path d="M275.656 420.585C277.84 421.127 280.05 419.796 280.592 417.612C281.135 415.428 279.803 413.217 277.619 412.675C275.435 412.133 273.225 413.464 272.682 415.648C272.14 417.833 273.471 420.043 275.656 420.585Z" fill="#FFED00"/>
<path d="M269.914 443.72C272.098 444.262 274.308 442.931 274.85 440.747C275.392 438.562 274.061 436.352 271.877 435.81C269.693 435.268 267.482 436.599 266.94 438.783C266.398 440.968 267.729 443.178 269.914 443.72Z" fill="#FFED00"/>
<path d="M264.171 466.853C266.356 467.395 268.566 466.064 269.108 463.879C269.65 461.695 268.319 459.485 266.135 458.943C263.95 458.4 261.74 459.732 261.198 461.916C260.656 464.1 261.987 466.311 264.171 466.853Z" fill="#FFED00"/>
<path d="M258.43 489.986C260.614 490.528 262.824 489.197 263.366 487.012C263.909 484.828 262.577 482.618 260.393 482.075C258.209 481.533 255.998 482.864 255.456 485.049C254.914 487.233 256.245 489.443 258.43 489.986Z" fill="#FFED00"/>
<path d="M252.687 513.118C254.872 513.661 257.082 512.329 257.624 510.145C258.166 507.961 256.835 505.75 254.651 505.208C252.467 504.666 250.256 505.997 249.714 508.182C249.172 510.366 250.503 512.576 252.687 513.118Z" fill="#FFED00"/>
<path d="M246.946 536.251C249.13 536.793 251.34 535.462 251.883 533.278C252.425 531.094 251.093 528.883 248.909 528.341C246.725 527.799 244.515 529.13 243.972 531.314C243.43 533.499 244.761 535.709 246.946 536.251Z" fill="#FFED00"/>
<path d="M241.204 559.386C243.388 559.928 245.598 558.597 246.14 556.413C246.683 554.228 245.351 552.018 243.167 551.476C240.983 550.934 238.772 552.265 238.23 554.449C237.688 556.634 239.019 558.844 241.204 559.386Z" fill="#FFED00"/>
<path d="M235.461 582.519C237.646 583.061 239.856 581.73 240.398 579.545C240.94 577.361 239.609 575.151 237.425 574.609C235.24 574.066 233.03 575.398 232.488 577.582C231.946 579.766 233.277 581.977 235.461 582.519Z" fill="#FFED00"/>
<path d="M229.72 605.652C231.904 606.194 234.114 604.863 234.656 602.678C235.199 600.494 233.867 598.284 231.683 597.741C229.499 597.199 227.289 598.53 226.746 600.715C226.204 602.899 227.535 605.109 229.72 605.652Z" fill="#FFED00"/>
<path d="M352.721 218.689C354.905 219.231 357.116 217.9 357.658 215.715C358.2 213.531 356.869 211.321 354.685 210.779C352.5 210.236 350.29 211.568 349.748 213.752C349.206 215.936 350.537 218.147 352.721 218.689Z" fill="#FFED00"/>
<path d="M346.979 241.822C349.163 242.364 351.374 241.033 351.916 238.848C352.458 236.664 351.127 234.454 348.942 233.911C346.758 233.369 344.548 234.7 344.006 236.885C343.463 239.069 344.795 241.279 346.979 241.822Z" fill="#FFED00"/>
<path d="M341.237 264.954C343.422 265.497 345.632 264.165 346.174 261.981C346.716 259.797 345.385 257.586 343.201 257.044C341.016 256.502 338.806 257.833 338.264 260.018C337.722 262.202 339.053 264.412 341.237 264.954Z" fill="#FFED00"/>
<path d="M335.495 288.087C337.679 288.629 339.89 287.298 340.432 285.114C340.974 282.929 339.643 280.719 337.458 280.177C335.274 279.635 333.064 280.966 332.522 283.15C331.98 285.335 333.311 287.545 335.495 288.087Z" fill="#FFED00"/>
<path d="M329.753 311.22C331.937 311.762 334.147 310.431 334.69 308.247C335.232 306.062 333.901 303.852 331.716 303.31C329.532 302.768 327.322 304.099 326.78 306.283C326.237 308.468 327.569 310.678 329.753 311.22Z" fill="#FFED00"/>
<path d="M324.011 334.355C326.195 334.897 328.405 333.566 328.947 331.381C329.49 329.197 328.158 326.987 325.974 326.445C323.79 325.902 321.58 327.234 321.037 329.418C320.495 331.602 321.826 333.813 324.011 334.355Z" fill="#FFED00"/>
<path d="M318.268 357.488C320.453 358.03 322.663 356.699 323.205 354.514C323.747 352.33 322.416 350.12 320.232 349.577C318.048 349.035 315.837 350.366 315.295 352.551C314.753 354.735 316.084 356.945 318.268 357.488Z" fill="#FFED00"/>
<path d="M312.527 380.62C314.711 381.163 316.921 379.831 317.464 377.647C318.006 375.463 316.675 373.252 314.49 372.71C312.306 372.168 310.096 373.499 309.553 375.684C309.011 377.868 310.342 380.078 312.527 380.62Z" fill="#FFED00"/>
<path d="M306.784 403.753C308.968 404.295 311.179 402.964 311.721 400.78C312.263 398.595 310.932 396.385 308.748 395.843C306.563 395.301 304.353 396.632 303.811 398.816C303.269 401.001 304.6 403.211 306.784 403.753Z" fill="#FFED00"/>
<path d="M301.043 426.886C303.227 427.428 305.438 426.097 305.98 423.913C306.522 421.728 305.191 419.518 303.006 418.976C300.822 418.434 298.612 419.765 298.07 421.949C297.527 424.134 298.859 426.344 301.043 426.886Z" fill="#FFED00"/>
<path d="M295.3 450.021C297.485 450.563 299.695 449.232 300.237 447.047C300.779 444.863 299.448 442.653 297.264 442.111C295.079 441.568 292.869 442.9 292.327 445.084C291.785 447.268 293.116 449.479 295.3 450.021Z" fill="#FFED00"/>
<path d="M289.559 473.154C291.743 473.696 293.954 472.365 294.496 470.18C295.038 467.996 293.707 465.786 291.522 465.243C289.338 464.701 287.128 466.032 286.586 468.217C286.043 470.401 287.375 472.611 289.559 473.154Z" fill="#FFED00"/>
<path d="M283.816 496.288C286.001 496.831 288.211 495.499 288.753 493.315C289.295 491.131 287.964 488.92 285.78 488.378C283.595 487.836 281.385 489.167 280.843 491.352C280.301 493.536 281.632 495.746 283.816 496.288Z" fill="#FFED00"/>
<path d="M278.075 519.419C280.259 519.961 282.469 518.63 283.011 516.446C283.554 514.261 282.222 512.051 280.038 511.509C277.854 510.967 275.643 512.298 275.101 514.482C274.559 516.667 275.89 518.877 278.075 519.419Z" fill="#FFED00"/>
<path d="M272.332 542.554C274.517 543.096 276.727 541.765 277.269 539.581C277.811 537.396 276.48 535.186 274.296 534.644C272.112 534.102 269.901 535.433 269.359 537.617C268.817 539.801 270.148 542.012 272.332 542.554Z" fill="#FFED00"/>
<path d="M266.59 565.687C268.775 566.229 270.985 564.898 271.527 562.713C272.069 560.529 270.738 558.319 268.554 557.777C266.369 557.234 264.159 558.566 263.617 560.75C263.075 562.934 264.406 565.145 266.59 565.687Z" fill="#FFED00"/>
<path d="M260.848 588.82C263.032 589.362 265.243 588.031 265.785 585.846C266.327 583.662 264.996 581.452 262.812 580.909C260.627 580.367 258.417 581.698 257.875 583.883C257.333 586.067 258.664 588.277 260.848 588.82Z" fill="#FFED00"/>
<path d="M255.106 611.954C257.291 612.497 259.501 611.165 260.043 608.981C260.585 606.797 259.254 604.586 257.07 604.044C254.885 603.502 252.675 604.833 252.133 607.018C251.591 609.202 252.922 611.412 255.106 611.954Z" fill="#FFED00"/>
<path d="M378.108 224.99C380.292 225.532 382.502 224.2 383.045 222.016C383.587 219.832 382.256 217.622 380.071 217.079C377.887 216.537 375.677 217.868 375.134 220.053C374.592 222.237 375.924 224.447 378.108 224.99Z" fill="#FFED00"/>
<path d="M372.366 248.122C374.55 248.665 376.761 247.333 377.303 245.149C377.845 242.965 376.514 240.754 374.33 240.212C372.145 239.67 369.935 241.001 369.393 243.186C368.851 245.37 370.182 247.58 372.366 248.122Z" fill="#FFED00"/>
<path d="M366.623 271.257C368.808 271.799 371.018 270.468 371.56 268.284C372.102 266.099 370.771 263.889 368.587 263.347C366.403 262.805 364.192 264.136 363.65 266.32C363.108 268.505 364.439 270.715 366.623 271.257Z" fill="#FFED00"/>
<path d="M360.882 294.388C363.066 294.93 365.276 293.599 365.819 291.415C366.361 289.23 365.03 287.02 362.845 286.478C360.661 285.936 358.451 287.267 357.908 289.451C357.366 291.636 358.697 293.846 360.882 294.388Z" fill="#FFED00"/>
<path d="M355.14 317.521C357.324 318.063 359.534 316.732 360.076 314.547C360.619 312.363 359.287 310.153 357.103 309.611C354.919 309.068 352.708 310.4 352.166 312.584C351.624 314.768 352.955 316.979 355.14 317.521Z" fill="#FFED00"/>
<path d="M349.398 340.656C351.582 341.198 353.792 339.867 354.335 337.682C354.877 335.498 353.546 333.288 351.361 332.745C349.177 332.203 346.967 333.534 346.425 335.719C345.882 337.903 347.214 340.113 349.398 340.656Z" fill="#FFED00"/>
<path d="M343.656 363.788C345.84 364.331 348.05 362.999 348.592 360.815C349.135 358.631 347.803 356.42 345.619 355.878C343.435 355.336 341.225 356.667 340.682 358.852C340.14 361.036 341.471 363.246 343.656 363.788Z" fill="#FFED00"/>
<path d="M337.914 386.923C340.098 387.465 342.308 386.134 342.85 383.95C343.392 381.765 342.061 379.555 339.877 379.013C337.693 378.471 335.482 379.802 334.94 381.986C334.398 384.171 335.729 386.381 337.914 386.923Z" fill="#FFED00"/>
<path d="M332.172 410.056C334.356 410.598 336.566 409.267 337.109 407.083C337.651 404.898 336.32 402.688 334.135 402.146C331.951 401.604 329.741 402.935 329.198 405.119C328.656 407.303 329.987 409.514 332.172 410.056Z" fill="#FFED00"/>
<path d="M326.43 433.189C328.614 433.731 330.824 432.4 331.366 430.215C331.909 428.031 330.577 425.821 328.393 425.279C326.209 424.736 323.998 426.068 323.456 428.252C322.914 430.436 324.245 432.647 326.43 433.189Z" fill="#FFED00"/>
<path d="M320.688 456.322C322.872 456.864 325.083 455.533 325.625 453.348C326.167 451.164 324.836 448.954 322.651 448.411C320.467 447.869 318.257 449.2 317.715 451.385C317.172 453.569 318.504 455.779 320.688 456.322Z" fill="#FFED00"/>
<path d="M314.945 479.454C317.13 479.997 319.34 478.665 319.882 476.481C320.424 474.297 319.093 472.086 316.909 471.544C314.724 471.002 312.514 472.333 311.972 474.518C311.43 476.702 312.761 478.912 314.945 479.454Z" fill="#FFED00"/>
<path d="M309.204 502.589C311.388 503.131 313.598 501.8 314.14 499.616C314.683 497.431 313.351 495.221 311.167 494.679C308.983 494.137 306.772 495.468 306.23 497.652C305.688 499.837 307.019 502.047 309.204 502.589Z" fill="#FFED00"/>
<path d="M303.461 525.722C305.646 526.264 307.856 524.933 308.398 522.749C308.94 520.564 307.609 518.354 305.425 517.812C303.24 517.27 301.03 518.601 300.488 520.785C299.946 522.969 301.277 525.18 303.461 525.722Z" fill="#FFED00"/>
<path d="M297.72 548.855C299.904 549.397 302.114 548.066 302.656 545.881C303.199 543.697 301.867 541.487 299.683 540.945C297.499 540.402 295.289 541.734 294.746 543.918C294.204 546.102 295.535 548.313 297.72 548.855Z" fill="#FFED00"/>
<path d="M291.977 571.988C294.161 572.53 296.372 571.199 296.914 569.014C297.456 566.83 296.125 564.62 293.94 564.077C291.756 563.535 289.546 564.866 289.004 567.051C288.461 569.235 289.793 571.445 291.977 571.988Z" fill="#FFED00"/>
<path d="M286.235 595.122C288.42 595.665 290.63 594.333 291.172 592.149C291.714 589.965 290.383 587.754 288.199 587.212C286.014 586.67 283.804 588.001 283.262 590.186C282.72 592.37 284.051 594.58 286.235 595.122Z" fill="#FFED00"/>
<path d="M280.493 618.255C282.677 618.797 284.888 617.466 285.43 615.282C285.972 613.097 284.641 610.887 282.457 610.345C280.272 609.803 278.062 611.134 277.52 613.318C276.978 615.503 278.309 617.713 280.493 618.255Z" fill="#FFED00"/>
<path d="M403.495 231.29C405.679 231.832 407.89 230.501 408.432 228.317C408.974 226.133 407.643 223.922 405.458 223.38C403.274 222.838 401.064 224.169 400.522 226.354C399.98 228.538 401.311 230.748 403.495 231.29Z" fill="#FFED00"/>
<path d="M397.753 254.423C399.937 254.965 402.147 253.634 402.69 251.45C403.232 249.265 401.901 247.055 399.716 246.513C397.532 245.971 395.322 247.302 394.78 249.486C394.237 251.671 395.569 253.881 397.753 254.423Z" fill="#FFED00"/>
<path d="M392.011 277.558C394.195 278.1 396.405 276.769 396.947 274.585C397.49 272.4 396.158 270.19 393.974 269.648C391.79 269.106 389.58 270.437 389.037 272.621C388.495 274.805 389.826 277.016 392.011 277.558Z" fill="#FFED00"/>
<path d="M386.268 300.691C388.453 301.233 390.663 299.902 391.205 297.717C391.747 295.533 390.416 293.323 388.232 292.781C386.048 292.238 383.837 293.57 383.295 295.754C382.753 297.938 384.084 300.149 386.268 300.691Z" fill="#FFED00"/>
<path d="M380.527 323.824C382.711 324.366 384.921 323.034 385.464 320.85C386.006 318.666 384.675 316.456 382.49 315.913C380.306 315.371 378.096 316.702 377.553 318.887C377.011 321.071 378.342 323.281 380.527 323.824Z" fill="#FFED00"/>
<path d="M374.785 346.956C376.969 347.499 379.179 346.167 379.721 343.983C380.264 341.799 378.932 339.588 376.748 339.046C374.564 338.504 372.353 339.835 371.811 342.02C371.269 344.204 372.6 346.414 374.785 346.956Z" fill="#FFED00"/>
<path d="M369.043 370.091C371.227 370.633 373.438 369.302 373.98 367.118C374.522 364.933 373.191 362.723 371.006 362.181C368.822 361.639 366.612 362.97 366.07 365.154C365.527 367.339 366.859 369.549 369.043 370.091Z" fill="#FFED00"/>
<path d="M363.3 393.224C365.485 393.766 367.695 392.435 368.237 390.251C368.779 388.066 367.448 385.856 365.264 385.314C363.079 384.772 360.869 386.103 360.327 388.287C359.785 390.471 361.116 392.682 363.3 393.224Z" fill="#FFED00"/>
<path d="M357.559 416.357C359.743 416.899 361.953 415.568 362.495 413.383C363.038 411.199 361.706 408.989 359.522 408.447C357.338 407.904 355.127 409.236 354.585 411.42C354.043 413.604 355.374 415.815 357.559 416.357Z" fill="#FFED00"/>
<path d="M351.816 439.49C354.001 440.032 356.211 438.7 356.753 436.516C357.295 434.332 355.964 432.122 353.78 431.579C351.595 431.037 349.385 432.368 348.843 434.553C348.301 436.737 349.632 438.947 351.816 439.49Z" fill="#FFED00"/>
<path d="M346.075 462.622C348.259 463.165 350.469 461.833 351.011 459.649C351.554 457.465 350.222 455.254 348.038 454.712C345.854 454.17 343.643 455.501 343.101 457.686C342.559 459.87 343.89 462.08 346.075 462.622Z" fill="#FFED00"/>
<path d="M340.332 485.757C342.517 486.299 344.727 484.968 345.269 482.784C345.811 480.599 344.48 478.389 342.296 477.847C340.112 477.305 337.901 478.636 337.359 480.82C336.817 483.005 338.148 485.215 340.332 485.757Z" fill="#FFED00"/>
<path d="M334.59 508.89C336.775 509.432 338.985 508.101 339.527 505.917C340.069 503.732 338.738 501.522 336.554 500.98C334.369 500.438 332.159 501.769 331.617 503.953C331.075 506.137 332.406 508.348 334.59 508.89Z" fill="#FFED00"/>
<path d="M328.849 532.023C331.033 532.565 333.243 531.234 333.785 529.049C334.328 526.865 332.996 524.655 330.812 524.113C328.628 523.57 326.417 524.902 325.875 527.086C325.333 529.27 326.664 531.481 328.849 532.023Z" fill="#FFED00"/>
<path d="M323.106 555.156C325.291 555.698 327.501 554.366 328.043 552.182C328.585 549.998 327.254 547.788 325.07 547.245C322.885 546.703 320.675 548.034 320.133 550.219C319.591 552.403 320.922 554.613 323.106 555.156Z" fill="#FFED00"/>
<path d="M317.364 578.29C319.549 578.832 321.759 577.501 322.301 575.317C322.843 573.133 321.512 570.922 319.328 570.38C317.143 569.838 314.933 571.169 314.391 573.353C313.849 575.538 315.18 577.748 317.364 578.29Z" fill="#FFED00"/>
<path d="M311.622 601.423C313.806 601.965 316.017 600.634 316.559 598.45C317.101 596.265 315.77 594.055 313.585 593.513C311.401 592.971 309.191 594.302 308.649 596.486C308.106 598.671 309.438 600.881 311.622 601.423Z" fill="#FFED00"/>
<path d="M428.882 237.591C431.066 238.133 433.276 236.802 433.819 234.618C434.361 232.433 433.03 230.223 430.845 229.681C428.661 229.139 426.451 230.47 425.908 232.654C425.366 234.839 426.697 237.049 428.882 237.591Z" fill="#FFED00"/>
<path d="M423.14 260.726C425.324 261.268 427.534 259.937 428.076 257.752C428.619 255.568 427.287 253.358 425.103 252.816C422.919 252.274 420.708 253.605 420.166 255.789C419.624 257.973 420.955 260.184 423.14 260.726Z" fill="#FFED00"/>
<path d="M417.397 283.859C419.582 284.401 421.792 283.07 422.334 280.885C422.876 278.701 421.545 276.491 419.361 275.949C417.176 275.406 414.966 276.738 414.424 278.922C413.882 281.106 415.213 283.316 417.397 283.859Z" fill="#FFED00"/>
<path d="M411.656 306.991C413.84 307.534 416.05 306.202 416.592 304.018C417.135 301.834 415.803 299.624 413.619 299.081C411.435 298.539 409.225 299.87 408.682 302.055C408.14 304.239 409.471 306.449 411.656 306.991Z" fill="#FFED00"/>
<path d="M405.914 330.126C408.098 330.668 410.308 329.337 410.85 327.153C411.392 324.969 410.061 322.758 407.877 322.216C405.693 321.674 403.482 323.005 402.94 325.189C402.398 327.374 403.729 329.584 405.914 330.126Z" fill="#FFED00"/>
<path d="M400.171 353.257C402.356 353.799 404.566 352.468 405.108 350.284C405.65 348.099 404.319 345.889 402.135 345.347C399.95 344.805 397.74 346.136 397.198 348.32C396.656 350.505 397.987 352.715 400.171 353.257Z" fill="#FFED00"/>
<path d="M394.43 376.392C396.614 376.934 398.824 375.603 399.366 373.419C399.909 371.234 398.577 369.024 396.393 368.482C394.209 367.94 391.998 369.271 391.456 371.455C390.914 373.639 392.245 375.85 394.43 376.392Z" fill="#FFED00"/>
<path d="M388.687 399.525C390.872 400.067 393.082 398.736 393.624 396.551C394.166 394.367 392.835 392.157 390.651 391.615C388.467 391.072 386.256 392.404 385.714 394.588C385.172 396.772 386.503 398.982 388.687 399.525Z" fill="#FFED00"/>
<path d="M382.945 422.659C385.13 423.202 387.34 421.87 387.882 419.686C388.424 417.502 387.093 415.291 384.909 414.749C382.724 414.207 380.514 415.538 379.972 417.723C379.43 419.907 380.761 422.117 382.945 422.659Z" fill="#FFED00"/>
<path d="M377.204 445.79C379.388 446.332 381.598 445.001 382.14 442.817C382.683 440.633 381.351 438.422 379.167 437.88C376.983 437.338 374.772 438.669 374.23 440.854C373.688 443.038 375.019 445.248 377.204 445.79Z" fill="#FFED00"/>
<path d="M371.461 468.925C373.646 469.467 375.856 468.136 376.398 465.952C376.94 463.767 375.609 461.557 373.425 461.015C371.24 460.473 369.03 461.804 368.488 463.988C367.946 466.173 369.277 468.383 371.461 468.925Z" fill="#FFED00"/>
<path d="M365.719 492.058C367.903 492.6 370.114 491.269 370.656 489.085C371.198 486.9 369.867 484.69 367.683 484.148C365.498 483.606 363.288 484.937 362.746 487.121C362.204 489.305 363.535 491.516 365.719 492.058Z" fill="#FFED00"/>
<path d="M359.977 515.191C362.161 515.733 364.372 514.402 364.914 512.217C365.456 510.033 364.125 507.823 361.94 507.281C359.756 506.738 357.546 508.07 357.004 510.254C356.461 512.438 357.793 514.649 359.977 515.191Z" fill="#FFED00"/>
<path d="M354.235 538.325C356.42 538.868 358.63 537.536 359.172 535.352C359.714 533.168 358.383 530.957 356.199 530.415C354.014 529.873 351.804 531.204 351.262 533.389C350.72 535.573 352.051 537.783 354.235 538.325Z" fill="#FFED00"/>
<path d="M348.493 561.458C350.677 562 352.888 560.669 353.43 558.485C353.972 556.301 352.641 554.09 350.457 553.548C348.272 553.006 346.062 554.337 345.52 556.521C344.978 558.706 346.309 560.916 348.493 561.458Z" fill="#FFED00"/>
<path d="M342.751 584.591C344.935 585.133 347.146 583.802 347.688 581.618C348.23 579.433 346.899 577.223 344.714 576.681C342.53 576.139 340.32 577.47 339.778 579.654C339.235 581.839 340.567 584.049 342.751 584.591Z" fill="#FFED00"/>
<path d="M337.009 607.724C339.193 608.266 341.403 606.935 341.946 604.751C342.488 602.566 341.156 600.356 338.972 599.814C336.788 599.272 334.578 600.603 334.035 602.787C333.493 604.971 334.824 607.182 337.009 607.724Z" fill="#FFED00"/>
<path d="M437.042 313.294C439.227 313.836 441.437 312.505 441.979 310.321C442.521 308.137 441.19 305.926 439.006 305.384C436.822 304.842 434.611 306.173 434.069 308.357C433.527 310.542 434.858 312.752 437.042 313.294Z" fill="#FFED00"/>
<path d="M431.3 336.427C433.485 336.969 435.695 335.638 436.237 333.454C436.779 331.269 435.448 329.059 433.264 328.517C431.079 327.975 428.869 329.306 428.327 331.49C427.785 333.675 429.116 335.885 431.3 336.427Z" fill="#FFED00"/>
<path d="M425.558 359.56C427.742 360.102 429.953 358.771 430.495 356.586C431.037 354.402 429.706 352.192 427.521 351.65C425.337 351.107 423.127 352.439 422.585 354.623C422.043 356.807 423.374 359.018 425.558 359.56Z" fill="#FFED00"/>
<path d="M419.816 382.693C422.001 383.235 424.211 381.904 424.753 379.719C425.295 377.535 423.964 375.325 421.78 374.782C419.595 374.24 417.385 375.572 416.843 377.756C416.301 379.94 417.632 382.15 419.816 382.693Z" fill="#FFED00"/>
<path d="M414.074 405.827C416.259 406.37 418.469 405.038 419.011 402.854C419.553 400.67 418.222 398.459 416.038 397.917C413.853 397.375 411.643 398.706 411.101 400.891C410.559 403.075 411.89 405.285 414.074 405.827Z" fill="#FFED00"/>
<path d="M408.332 428.96C410.516 429.502 412.727 428.171 413.269 425.987C413.811 423.803 412.48 421.592 410.295 421.05C408.111 420.508 405.901 421.839 405.359 424.023C404.816 426.208 406.148 428.418 408.332 428.96Z" fill="#FFED00"/>
<path d="M402.59 452.091C404.775 452.633 406.985 451.302 407.527 449.118C408.069 446.933 406.738 444.723 404.554 444.181C402.369 443.639 400.159 444.97 399.617 447.154C399.075 449.339 400.406 451.549 402.59 452.091Z" fill="#FFED00"/>
<path d="M396.848 475.226C399.032 475.768 401.243 474.437 401.785 472.252C402.327 470.068 400.996 467.858 398.812 467.316C396.627 466.774 394.417 468.105 393.875 470.289C393.333 472.473 394.664 474.684 396.848 475.226Z" fill="#FFED00"/>
<path d="M391.106 498.359C393.29 498.901 395.501 497.57 396.043 495.385C396.585 493.201 395.254 490.991 393.069 490.449C390.885 489.906 388.675 491.238 388.133 493.422C387.59 495.606 388.922 497.816 391.106 498.359Z" fill="#FFED00"/>
<path d="M385.364 521.493C387.548 522.036 389.758 520.704 390.301 518.52C390.843 516.336 389.511 514.125 387.327 513.583C385.143 513.041 382.933 514.372 382.39 516.557C381.848 518.741 383.179 520.951 385.364 521.493Z" fill="#FFED00"/>
<path d="M379.622 544.626C381.806 545.168 384.017 543.837 384.559 541.653C385.101 539.469 383.77 537.258 381.585 536.716C379.401 536.174 377.191 537.505 376.649 539.689C376.106 541.874 377.438 544.084 379.622 544.626Z" fill="#FFED00"/>
<path d="M373.88 567.761C376.064 568.303 378.274 566.972 378.817 564.788C379.359 562.603 378.028 560.393 375.843 559.851C373.659 559.309 371.449 560.64 370.906 562.824C370.364 565.009 371.696 567.219 373.88 567.761Z" fill="#FFED00"/>
<path d="M368.138 590.894C370.322 591.436 372.533 590.105 373.075 587.92C373.617 585.736 372.286 583.526 370.102 582.984C367.917 582.441 365.707 583.773 365.165 585.957C364.623 588.141 365.954 590.352 368.138 590.894Z" fill="#FFED00"/>
<path d="M362.396 614.025C364.58 614.567 366.791 613.236 367.333 611.051C367.875 608.867 366.544 606.657 364.359 606.115C362.175 605.572 359.965 606.904 359.423 609.088C358.88 611.272 360.212 613.482 362.396 614.025Z" fill="#FFED00"/>
<path d="M439.461 412.128C441.646 412.67 443.856 411.339 444.398 409.155C444.94 406.971 443.609 404.76 441.425 404.218C439.24 403.676 437.03 405.007 436.488 407.191C435.946 409.376 437.277 411.586 439.461 412.128Z" fill="#FFED00"/>
<path d="M433.719 435.261C435.903 435.803 438.113 434.472 438.656 432.288C439.198 430.103 437.866 427.893 435.682 427.351C433.498 426.809 431.288 428.14 430.745 430.324C430.203 432.509 431.534 434.719 433.719 435.261Z" fill="#FFED00"/>
<path d="M427.977 458.394C430.161 458.936 432.372 457.605 432.914 455.42C433.456 453.236 432.125 451.026 429.94 450.484C427.756 449.941 425.546 451.273 425.004 453.457C424.461 455.641 425.793 457.852 427.977 458.394Z" fill="#FFED00"/>
<path d="M422.235 481.527C424.419 482.069 426.629 480.738 427.172 478.553C427.714 476.369 426.383 474.159 424.198 473.616C422.014 473.074 419.804 474.406 419.261 476.59C418.719 478.774 420.05 480.984 422.235 481.527Z" fill="#FFED00"/>
<path d="M416.493 504.659C418.677 505.202 420.887 503.87 421.429 501.686C421.972 499.502 420.64 497.291 418.456 496.749C416.272 496.207 414.061 497.538 413.519 499.723C412.977 501.907 414.308 504.117 416.493 504.659Z" fill="#FFED00"/>
<path d="M410.751 527.794C412.935 528.336 415.146 527.005 415.688 524.821C416.23 522.637 414.899 520.426 412.714 519.884C410.53 519.342 408.32 520.673 407.778 522.857C407.235 525.042 408.567 527.252 410.751 527.794Z" fill="#FFED00"/>
<path d="M405.009 550.927C407.193 551.469 409.403 550.138 409.946 547.954C410.488 545.769 409.157 543.559 406.972 543.017C404.788 542.475 402.578 543.806 402.035 545.99C401.493 548.175 402.824 550.385 405.009 550.927Z" fill="#FFED00"/>
<path d="M399.267 574.062C401.451 574.604 403.662 573.273 404.204 571.088C404.746 568.904 403.415 566.694 401.23 566.152C399.046 565.609 396.836 566.941 396.294 569.125C395.751 571.309 397.083 573.52 399.267 574.062Z" fill="#FFED00"/>
<path d="M393.524 597.195C395.709 597.737 397.919 596.406 398.461 594.221C399.003 592.037 397.672 589.827 395.488 589.284C393.303 588.742 391.093 590.073 390.551 592.258C390.009 594.442 391.34 596.652 393.524 597.195Z" fill="#FFED00"/>
<path d="M387.783 620.329C389.967 620.872 392.177 619.54 392.719 617.356C393.262 615.172 391.93 612.961 389.746 612.419C387.562 611.877 385.351 613.208 384.809 615.393C384.267 617.577 385.598 619.787 387.783 620.329Z" fill="#FFED00"/>
</g>
<path d="M149.504 236.565L83.0109 152.529L109.972 136.963L149.504 236.565Z" fill="#FF2626" stroke="black" stroke-width="10" stroke-linejoin="round"/>
<path d="M119.411 303.668L36.5555 316.267L37.6732 285.155L119.411 303.668Z" fill="#FF2626" stroke="black" stroke-width="10" stroke-linejoin="round"/>
<path d="M217.783 202.859L206.715 50.497L250.977 53.7454L217.783 202.859Z" fill="#FF2626" stroke="black" stroke-width="10" stroke-linejoin="round"/>
</svg>
