<svg width="1118" height="1239" viewBox="0 0 1118 1239" fill="none" xmlns="http://www.w3.org/2000/svg">
<rect x="5" y="1154" width="206" height="24" fill="#FF00C7" stroke="black" stroke-width="10"/>
<path d="M1113 1141C1099.33 1141 608.3 1141 445.5 1141C305.5 1141 295.711 1195.6 432.5 1188C531.5 1182.5 543 1224.23 474.5 1228C380.5 1233.17 210 1237.9 118 1225.5C26.0002 1213.1 10.6669 1145.33 14.5002 1113V228.5C14.5001 223.667 17.1 213.9 27.5 213.5" stroke="#1549FF" stroke-width="10" stroke-linecap="round"/>
<path d="M66.109 223.664L35.4481 234.598L15.7322 199.427L41.073 179.002L66.109 223.664Z" fill="black" stroke="black" stroke-width="10"/>
<path d="M260.977 143.562C260.277 143.954 259.565 144.335 258.846 144.693C234.674 156.788 205.005 147.851 191.654 124.024C178.296 100.195 186.161 70.2464 209.104 55.9584L209.121 55.9489C209.794 55.5275 210.482 55.1251 211.182 54.7331C212.958 53.7388 214.774 52.8565 216.62 52.0976C240.131 42.3465 267.755 51.5259 280.505 74.2707C293.26 97.0241 286.663 125.354 266.065 140.303C264.462 141.475 262.761 142.563 260.977 143.562Z" fill="#E1CECE" stroke="black" stroke-width="10"/>
<path d="M217.826 146.642L51.5004 231.849L26.4596 187.179L186.02 89.9038L217.826 146.642Z" fill="#969694" stroke="black" stroke-width="10"/>
<path d="M260.976 143.561C260.276 143.953 259.565 144.335 258.846 144.693L209.11 55.9599L209.127 55.9504L216.619 52.0972L266.069 140.311C264.462 141.475 262.76 142.562 260.976 143.561Z" fill="black" stroke="black" stroke-width="10"/>
<path d="M178.743 151.289L174.292 143.347L154.522 154.417L158.974 162.359L178.743 151.289Z" fill="black" stroke="black" stroke-width="10"/>
<rect x="97" y="238" width="23" height="892" fill="#FF00C7" stroke="black" stroke-width="10"/>
<rect x="66" y="1130" width="84" height="24" fill="#FF00C7" stroke="black" stroke-width="10"/>
</svg>
