<svg width="268" height="265" viewBox="0 0 268 265" fill="none" xmlns="http://www.w3.org/2000/svg">
<path d="M238.859 181.709L261.024 205.549L236.512 237.564L207.733 222.362L238.859 181.709Z" fill="black" stroke="black" stroke-width="10"/>
<path d="M88.243 34.3847C88.8798 34.8727 89.5115 35.3754 90.1246 35.8945C110.79 53.316 114.311 84.1012 97.7035 105.784C81.0969 127.474 50.4782 132.09 28.284 116.665L28.2685 116.653C27.6156 116.202 26.9738 115.728 26.337 115.24C24.7217 114.002 23.1933 112.683 21.7665 111.288C3.51453 93.5464 1.02531 64.5441 16.8765 43.8408C32.7337 23.1297 61.364 17.9889 83.2382 30.9992C84.9488 32.0081 86.6199 33.1408 88.243 34.3847Z" fill="#E1CECE" stroke="black" stroke-width="10"/>
<path d="M108.132 72.8014L252.154 191.891L221.022 232.552L68.5902 124.447L108.132 72.8014Z" fill="#969694" stroke="black" stroke-width="10"/>
<path d="M88.243 34.385C88.8798 34.873 89.5115 35.3757 90.1245 35.8948L28.2831 116.658L28.2675 116.646L21.7664 111.288L83.2442 30.9917C84.9488 32.0084 86.6199 33.1411 88.243 34.385Z" fill="black" stroke="black" stroke-width="10"/>
<path d="M127.851 106.864L122.316 114.093L140.3 127.875L145.835 120.646L127.851 106.864Z" fill="black" stroke="black" stroke-width="10"/>
</svg>
