<svg width="132" height="114" viewBox="0 0 132 114" fill="none" xmlns="http://www.w3.org/2000/svg">
<path d="M73.8159 7.46383C79.0134 18.2066 83.7095 29.3533 87.8826 40.8731C101.125 44.5464 114.104 48.9678 126.749 54.1053C114.856 60.3292 103.577 66.6578 92.8839 73.0218C92.5801 85.3529 92.0516 97.7933 91.301 110.341C82.6476 101.536 73.3084 93.3876 63.3545 85.9777C51.964 89.3504 40.9911 92.915 30.413 96.6146C32.8614 86.0836 35.502 75.4415 38.3342 64.6928C29.623 56.2106 20.2859 48.4279 10.399 41.4082C23.9064 39.4503 37.573 38.0398 51.3709 37.1918C58.3751 27.4218 65.8504 17.5015 73.8159 7.46383Z" fill="#00FFE4"/>
<path d="M61.7714 9.51064C66.3052 18.8815 70.4016 28.6047 74.0418 38.6533C85.5934 41.8575 96.9141 45.7143 107.944 50.1956C97.5705 55.6247 87.7321 61.1451 78.4043 66.6964C78.1393 77.4527 77.6783 88.3043 77.0236 99.2496C69.4753 91.5691 61.3287 84.4613 52.6461 77.9977C42.7102 80.9397 33.1387 84.049 23.9114 87.2762C26.0472 78.0901 28.3505 68.807 30.821 59.4311C23.2223 52.0321 15.0776 45.2433 6.45334 39.1201C18.2358 37.4122 30.1571 36.1818 42.1929 35.4421C48.3026 26.9198 54.8232 18.2664 61.7714 9.51064Z" fill="#FF2626"/>
</svg>
