<svg width="80" height="87" viewBox="0 0 80 87" fill="none" xmlns="http://www.w3.org/2000/svg">
<path d="M73.3848 6.52305C69.8143 3.39763 65.1569 1.91737 59.9015 1.91737C56.5278 1.91737 52.9056 2.52934 49.1662 3.7056C46.9945 1.42462 43.9307 0 40.5331 0C33.9484 0 28.6116 5.33686 28.6116 11.9215C28.6116 12.9726 28.7487 13.9919 29.005 14.9635C25.4405 17.8445 21.9733 21.1666 18.7128 24.8921C15.6768 28.3612 13.0143 31.9595 10.7373 35.5976C10.0955 35.4486 9.42792 35.3671 8.74243 35.3671C3.91422 35.3671 0 39.2813 0 44.1095C0 46.9429 1.34912 49.4603 3.43935 51.0578C-0.604023 63.7164 0.568258 75.2326 7.74699 81.5172C11.3175 84.6426 15.9748 86.1229 21.2302 86.1229C33.7438 86.1229 49.657 77.7321 62.421 63.1482C80.5456 42.4385 85.4553 17.0875 73.3848 6.52305ZM71.8131 29.5951C70.9428 34.0875 69.246 38.7925 66.7703 43.581C64.1436 48.6616 60.7678 53.5712 56.7384 58.1749C51.1472 64.5648 44.6996 69.858 38.0951 73.4861C32.037 76.8142 26.2054 78.5726 21.2302 78.5726C17.6577 78.5726 14.7946 77.6526 12.7202 75.8346C10.9936 74.3226 9.80344 72.1747 9.18154 69.4467C8.47618 66.3531 8.52387 62.5481 9.31864 58.4431C9.69019 56.5258 10.2127 54.5706 10.8804 52.5857C14.6754 51.632 17.4849 48.2006 17.4849 44.1095C17.4849 42.7763 17.1848 41.5146 16.6523 40.3841C18.8598 36.75 21.4507 33.2252 24.3934 29.8633C27.1433 26.722 30.1018 23.845 33.1815 21.3017C35.2081 22.8913 37.7593 23.843 40.5331 23.843C47.1177 23.843 52.4546 18.5061 52.4546 11.9215C52.4546 11.4804 52.4288 11.0473 52.3831 10.6181C55.0336 9.86106 57.5629 9.46765 59.9015 9.46765C63.474 9.46765 66.3372 10.3876 68.4115 12.2056C70.1381 13.7157 71.3303 15.8655 71.9502 18.5936C72.6556 21.6852 72.6079 25.4901 71.8131 29.5951Z" fill="#4D9BD1"/>
<path d="M72.0394 47.2886H70.138V43.1161C70.138 35.1049 63.1102 28.6116 54.4413 28.6116C45.7724 28.6116 38.7447 35.1049 38.7447 43.1161V47.2886H36.8432C33.9423 47.2886 31.5918 49.6392 31.5918 52.5401V80.7821C31.5918 83.683 33.9423 86.0335 36.8432 86.0335H72.0394C74.9403 86.0335 77.2909 83.683 77.2909 80.7821V52.5401C77.2909 49.6392 74.9403 47.2886 72.0394 47.2886ZM44.3081 45.0176C44.3081 39.8457 48.8442 35.6533 54.4413 35.6533C60.0385 35.6533 64.5746 39.8457 64.5746 45.0176V47.2886H44.3081V45.0176Z" fill="#BD9048"/>
<path d="M61.5949 63.5814C61.5949 59.6314 58.3919 56.4285 54.442 56.4285C50.492 56.4285 47.2891 59.6314 47.2891 63.5814C47.2891 66.3968 48.9163 68.8308 51.2808 69.9991C51.2689 70.1104 51.2629 70.2236 51.2629 70.3369V75.9002C51.2629 77.6567 52.6855 79.0793 54.442 79.0793C56.1984 79.0793 57.621 77.6567 57.621 75.9002V70.3369C57.621 70.2216 57.6151 70.1104 57.6031 69.9991C59.9676 68.8308 61.5949 66.3968 61.5949 63.5814Z" fill="white"/>
</svg>
