<?xml version="1.0" encoding="utf-8"?>
<!-- Generator: Adobe Illustrator 25.0.0, SVG Export Plug-In . SVG Version: 6.00 Build 0)  -->
<svg version="1.1" id="圖層_1" xmlns="http://www.w3.org/2000/svg" xmlns:xlink="http://www.w3.org/1999/xlink" x="0px" y="0px"
	 viewBox="0 0 205.7 214" style="enable-background:new 0 0 205.7 214;" xml:space="preserve">
<style type="text/css">
	.st0{fill:none;}
	.st1{fill:#00B5D3;}
	.st2{fill:#FDF150;}
</style>
<g>
	<path class="st0" d="M83.2,71.1L92,81.2c0.1,0,0.3,0,0.4,0c1.7,0.1,2.7,1.1,2.7,2.8c0,0.2,0,0.4-0.1,0.6l7.3,8.4
		c0.5-0.4,1.1-0.7,2-0.7c1.8,0,3,1.1,3.1,2.9c0.1,1.1-0.3,2-0.9,2.5l7,8c0.6-1,1.7-1.7,3-1.7c1.9,0,3.5,1.6,3.3,3.5
		c-0.1,1.5-0.9,2.5-2.1,2.9l6.8,7.8c0.5-1.4,1.9-2.5,3.4-2.5c1.9,0,3.6,1.7,3.6,3.6c0,1.7-1.3,3.2-3,3.6l7.6,8.7
		c0-0.2-0.1-0.5-0.1-0.7c0-2.3,1.7-3.9,4-3.8c2.2,0.1,3.7,1.7,3.6,3.9c0,2.2-1.7,3.7-3.8,3.7c-0.4,0-0.9-0.1-1.2-0.2l14.5,16.7
		c1.1,0.5,1.9,1.4,2.2,2.5l7.4,8.5c0.2,0,0.4-0.1,0.6-0.1c2.4,0,4.3,1.8,4.4,4.2c0,0.5-0.1,0.9-0.2,1.3l5.8,6.7
		c0.6-0.3,1.3-0.5,2-0.5c2.5,0,4.7,2.2,4.6,4.7c0,0.9-0.3,1.8-0.8,2.5l4.6,5.3c0.8-0.7,1.8-1.1,3-1.1c2.6,0,4.7,2,4.8,4.5
		c0.1,1.5-0.6,2.8-1.6,3.7l4.9,5.6c0.3-0.5,0.7-0.9,1.2-1.2l-0.1-4c-1.2-0.9-2-2.3-1.9-4c0-1.5,0.7-2.8,1.7-3.6l-0.1-4.3
		c-1-0.9-1.6-2.1-1.5-3.6c0-1.3,0.5-2.4,1.4-3.2l-0.1-5.7c-0.7-0.8-1.1-1.7-1.1-2.8c0-1.1,0.3-2.1,1-3l-0.2-6.4
		c-0.4-0.7-0.7-1.5-0.7-2.4c0-0.7,0.2-1.4,0.6-2l-0.2-8.8c-0.1-0.4-0.2-0.8-0.1-1.2c0-0.3,0-0.6,0.1-0.9l-2-77.3l-14.7-2.4
		c-0.5,0.7-1.3,1.1-2.3,1.3c-1.7-0.1-2.9-0.8-3.3-2.2l-5.9-1c0,1.9-1.1,3.1-3,3.1c-2,0-2.9-1.2-3.2-3c0-0.4,0.1-0.7,0.2-1.1
		l-6.9-1.1c0.5,0.5,0.8,1.2,0.8,2c0,1.9-1.2,3.1-3.1,3.1c-1.8,0-2.9-1.2-3-3c0-1.4,0.6-2.3,1.7-2.8l-44.4-7.2
		c-0.3,0.2-0.7,0.3-1.2,0.3c-0.8,0-1.5-0.3-2-0.8l-8-1.3c-0.1,1.2-0.9,1.9-2.1,1.9c-1.3-0.1-2.1-0.7-2.2-2c0-0.2,0-0.4,0-0.6
		l-8.4-1.4c0.7,0.3,1.1,1,1.1,1.9c0,1.2-0.8,1.9-2,2c-1.3,0-2.1-0.7-2.2-2c0-1.2,0.6-1.8,1.7-2.1l-21.9-3.6l23.4,26.8
		C82.6,69.9,83,70.4,83.2,71.1z M186.8,68.6c2,0.1,3.2,1.2,3.4,3.2c0.2,1.9-1.3,3.5-3.2,3.6c-1.9,0.1-3.5-1.4-3.6-3.3
		C183.3,70.2,184.9,68.5,186.8,68.6z M186.8,80.4c2.1,0.1,3.3,1.3,3.6,3.4c0.2,1.9-1.5,3.7-3.4,3.8c-1.9,0.1-3.7-1.6-3.8-3.5
		C183.1,82.1,184.8,80.3,186.8,80.4z M187,91.8c2,0.1,3.5,1.7,3.5,3.8c0,2-1.6,3.6-3.6,3.6c-2.1,0-3.8-1.6-3.7-3.8
		C183.2,93.2,184.9,91.6,187,91.8z M186.8,103.6c2.2,0,3.8,1.5,3.9,3.7c0.1,2.2-1.6,4-3.8,4c-2.1,0-3.8-1.5-3.9-3.7
		C182.9,105.4,184.5,103.6,186.8,103.6z M186.7,115.4c2.1,0,4,1.8,4.2,3.9c0.1,2.2-1.8,4.2-4,4.3c-2.1,0-4-1.8-4.2-3.9
		C182.6,117.5,184.5,115.4,186.7,115.4z M186.7,126.8c2.3-0.1,4.2,1.7,4.3,4c0.1,2.3-1.6,4.2-3.9,4.4c-2.3,0.2-4.3-1.6-4.4-3.8
		C182.5,128.9,184.3,126.9,186.7,126.8z M186.8,138.7c2.5,0,4.3,1.8,4.3,4.2c0,2.5-1.8,4.3-4.2,4.3c-2.5,0-4.3-1.8-4.3-4.2
		C182.5,140.5,184.3,138.7,186.8,138.7z M186.8,150.5c2.3,0,4.3,1.8,4.4,4.2c0.1,2.5-1.8,4.6-4.2,4.7c-2.5,0.1-4.5-1.8-4.6-4.3
		C182.3,152.6,184.3,150.5,186.8,150.5z M186.8,161.8c2.3,0,4.5,2,4.6,4.4c0.1,2.5-2.1,4.7-4.5,4.8c-2.4,0-4.5-2-4.6-4.4
		C182.1,164.1,184.3,161.9,186.8,161.8z M186.8,173.8c2.5,0,4.6,2.1,4.6,4.7c0,2.5-2.1,4.7-4.6,4.7c-2.6,0-4.8-2.2-4.8-4.8
		C182.2,175.8,184.3,173.7,186.8,173.8z M175.2,68.6c2,0.1,3.3,1.1,3.4,3.2c0.1,2-1,3.3-3.1,3.5c-2,0.2-3.6-1.3-3.5-3.3
		C172.1,70,173.2,68.8,175.2,68.6z M175.4,80.4c1.8,0.1,3.5,1.7,3.4,3.6c0,1.9-1.8,3.7-3.7,3.6c-1.8-0.1-3.4-1.7-3.4-3.6
		C171.7,82,173.5,80.3,175.4,80.4z M175.1,91.8c2-0.1,3.7,1.4,3.8,3.4c0.1,2.1-1.5,3.9-3.6,3.9c-2,0-3.6-1.5-3.7-3.5
		C171.6,93.6,173.2,91.9,175.1,91.8z M175.4,103.7c2.2,0,3.7,1.7,3.7,3.8c0,2.3-1.8,3.9-4,3.8c-2.2-0.1-3.7-1.8-3.6-4
		C171.6,105.1,173.2,103.6,175.4,103.7z M175.3,115.4c2.1,0,4,1.8,4.1,3.9c0,2.1-1.8,4-3.9,4.1c-2.1,0-4-1.8-4.1-3.9
		C171.3,117.4,173.1,115.5,175.3,115.4z M175.3,126.8c2.2,0,4.1,1.9,4.1,4.1c0,2.2-1.9,4.1-4.1,4.1c-2.2,0-4.1-1.9-4.1-4.1
		C171.2,128.8,173.1,126.8,175.3,126.8z M175.2,138.7c2.4,0,4.3,1.8,4.3,4.2c0,2.4-1.8,4.3-4.2,4.3c-2.4,0-4.2-1.9-4.2-4.3
		C171.2,140.5,172.9,138.8,175.2,138.7z M175.4,150.6c2.4,0,4.3,1.8,4.3,4.3c0,2.5-1.9,4.5-4.5,4.4c-2.4-0.1-4.2-2-4.2-4.4
		C171.1,152.4,172.9,150.6,175.4,150.6z M175.3,161.9c2.4,0,4.5,2,4.5,4.4c0,2.4-2,4.5-4.4,4.5c-2.4,0-4.5-2-4.5-4.4
		C170.8,164.1,172.8,162,175.3,161.9z M163,68.8c2.1-0.2,3.2,1,3.5,2.9c-0.1,2.1-1,3.4-3.1,3.5c-1.9,0.1-3.2-0.9-3.3-2.9
		C160,70.3,161,68.9,163,68.8z M163.4,80.4c1.9,0,3.5,1.7,3.4,3.6c0,1.9-1.7,3.5-3.6,3.4c-1.9,0-3.5-1.7-3.4-3.6
		C159.9,82,161.5,80.4,163.4,80.4z M163.4,91.8c1.9,0,3.6,1.8,3.5,3.7c0,1.9-1.8,3.6-3.7,3.5c-1.9,0-3.6-1.8-3.5-3.7
		C159.7,93.4,161.5,91.8,163.4,91.8z M163.5,103.7c2,0.1,3.5,1.7,3.5,3.7c0,2.2-1.6,3.8-3.8,3.7c-2.2,0-3.7-1.7-3.7-3.8
		C159.7,105.2,161.3,103.6,163.5,103.7z M163.2,115.6c2.1,0,3.9,1.5,4,3.7c0.1,2.2-1.6,4-3.8,4.1c-2.1,0.1-3.8-1.5-4-3.6
		C159.3,117.5,161,115.6,163.2,115.6z M163.4,126.9c2.1,0.1,4,2,4,4.1c0,2.2-2,4.2-4.2,4.1c-2.1-0.1-4-2-4-4.1
		C159.2,128.8,161.3,126.8,163.4,126.9z M163.4,138.8c2.3,0,4.1,1.9,4.1,4.2c0,2.3-1.8,4.1-4.1,4.2c-2.3,0-4.2-1.8-4.2-4
		C159.1,140.7,161,138.7,163.4,138.8z M163.2,150.7c2.5-0.1,4.3,1.7,4.3,4.2c0,2.5-1.8,4.3-4.2,4.3c-2.4,0-4.3-1.9-4.2-4.3
		C159.1,152.5,160.9,150.8,163.2,150.7z M151.2,68.8c1.9-0.1,3.3,1.3,3.3,3.2c-0.1,2-1.2,2.9-3,3.2c-2-0.1-3.1-1-3.3-3
		C148,70.3,149.4,68.8,151.2,68.8z M151.2,80.6c1.9-0.1,3.5,1.4,3.5,3.3c-0.1,2-1.2,3.2-3.2,3.3c-1.9,0.2-3.5-1.4-3.5-3.3
		C148,82.1,149.4,80.7,151.2,80.6z M151.3,91.9c1.8,0,3.5,1.6,3.6,3.5c0.1,1.9-1.7,3.7-3.6,3.7c-1.8,0-3.5-1.6-3.6-3.5
		C147.7,93.6,149.4,91.9,151.3,91.9z M151.2,103.8c2,0,3.7,1.5,3.8,3.5c0.1,2.1-1.6,3.8-3.7,3.8c-2,0-3.6-1.6-3.6-3.6
		C147.6,105.5,149.2,103.8,151.2,103.8z M151.3,115.7c2.2,0,3.7,1.6,3.7,3.8c0,2.2-1.6,3.7-3.8,3.7c-2.2,0-3.8-1.6-3.7-3.8
		C147.6,117.2,149.1,115.7,151.3,115.7z M151.3,127c2.1,0,4,1.8,4,3.9c0,2.1-1.8,4-3.9,4c-2.1,0-4-1.8-4-3.9
		C147.3,128.9,149.1,127,151.3,127z M151.4,138.8c2.1,0.1,4,2,4,4c0,2.2-1.9,4.2-4.1,4.2c-2.2,0-4.1-2-4.1-4.2
		C147.2,140.7,149.3,138.8,151.4,138.8z M139.9,57.5c1.8,0,2.9,1.2,2.9,3c0,1.8-1.2,2.9-3,2.9c-1.8,0-2.7-1.2-2.9-3
		C137.1,58.7,138.1,57.5,139.9,57.5z M139.8,68.9c1.9,0,3.1,1.1,3.2,3c0.1,1.9-1.1,3.1-3,3.2c-2,0.1-3-1.2-3.2-3
		C136.9,70.2,137.8,68.9,139.8,68.9z M139.9,80.7c2,0.2,3.2,1.3,3.2,3.3c0,2-1.2,3.2-3.3,3.2c-2,0-3.2-1.2-3.2-3.3
		C136.6,81.8,137.9,80.8,139.9,80.7z M139.7,92c1.9-0.2,3.5,1.5,3.6,3.4c0,1.9-1.6,3.5-3.5,3.5c-1.9,0-3.6-1.7-3.5-3.5
		C136.5,93.4,137.7,92.2,139.7,92z M139.8,103.8c1.9-0.1,3.7,1.7,3.7,3.6c0,2-1.7,3.7-3.7,3.6c-1.9,0-3.7-1.8-3.5-3.7
		C136.4,105.2,137.7,104,139.8,103.8z M139.8,115.7c2,0,3.7,1.5,3.8,3.5c0.1,2.2-1.5,3.9-3.6,3.9c-2,0-3.7-1.5-3.8-3.5
		C136,117.5,137.6,115.8,139.8,115.7z M127.8,57.6c1.7,0.1,2.8,1,2.8,2.7c0.1,1.7-0.9,2.8-2.6,2.9c-1.8,0.1-3-0.9-3-2.8
		C125,58.7,126.1,57.8,127.8,57.6z M127.7,68.9c1.9,0,3.1,1.1,3.1,3c0,1.8-1.2,2.9-2.9,3c-1.9,0-2.9-1.2-3.2-3
		C125,70.2,125.9,69,127.7,68.9z M127.8,80.8c1.9-0.1,3.3,1.4,3.2,3.3c-0.1,2-1.3,2.9-3.2,3.1c-1.9-0.3-3.1-1.2-3.1-3.2
		C124.7,82,125.8,80.9,127.8,80.8z M127.8,92.2c2.1,0,3.3,1.2,3.3,3.2c0,2.1-1.2,3.2-3.2,3.3c-2-0.2-3.3-1.2-3.3-3.3
		C124.5,93.4,125.7,92.2,127.8,92.2z M127.7,103.9c1.8-0.1,3.5,1.5,3.7,3.3c0.1,1.8-1.4,3.6-3.3,3.7c-1.8,0.2-3.6-1.3-3.8-3.2
		C124.1,105.8,125.7,104,127.7,103.9z M116.1,57.8c1.7-0.1,2.8,0.8,2.9,2.5c0.1,1.8-0.9,2.8-2.7,2.8c-1.7,0-2.5-0.9-2.7-2.5
		C113.7,59,114.5,57.9,116.1,57.8z M116.3,69.1c1.8,0,3,1.2,2.9,3c-0.1,1.8-1.3,2.9-3.1,2.8c-1.7-0.1-2.6-1.3-2.7-2.9
		C113.6,70.2,114.6,69.1,116.3,69.1z M116.3,80.9c1.8,0,3,1.1,3.1,2.8c0.1,1.9-1,3.2-2.9,3.3c-1.9,0.1-3-1.1-3.3-3.1
		C113.5,82.2,114.4,80.9,116.3,80.9z M116.2,92.2c1.9,0.1,3.1,1,3.3,3c0.2,1.9-1.2,3.4-3.1,3.4c-1.9,0-3.3-1.4-3.3-3.2
		C113.3,93.4,114.4,92.5,116.2,92.2z M104.4,57.9c1.5,0,2.4,1,2.5,2.5C107,62,106,63,104.4,63c-1.6,0-2.5-1-2.7-2.8
		C102,58.9,102.8,57.8,104.4,57.9z M104.3,69.2c1.8,0,2.8,0.9,2.8,2.7c0,1.8-1,2.7-2.7,2.8c-1.8-0.2-2.7-1.1-2.7-2.9
		C101.7,70.2,102.6,69.2,104.3,69.2z M104.3,81c1.8,0,3,1.1,3,2.9c0,1.8-1.1,3-2.9,3c-1.8,0-2.8-1.1-3.1-2.9
		C101.5,82.2,102.5,81.1,104.3,81z M92.3,58c1.5,0,2.5,0.9,2.5,2.4c0,1.5-0.9,2.5-2.4,2.5c-1.5,0-2.3-0.9-2.6-2.4
		C90,59.1,90.8,58,92.3,58z M92.2,69.3c1.6,0,2.6,0.9,2.7,2.5c0,1.6-0.9,2.6-2.5,2.7c-1.6,0.1-2.5-0.9-2.7-2.5
		C89.8,70.5,90.6,69.4,92.2,69.3z M69,50.3c-1.2,0.1-2-0.6-2-1.8c0-1.1,0.7-1.7,1.9-1.9c1,0.1,1.8,0.7,1.8,1.8
		C70.8,49.4,70.1,50.2,69,50.3z M78.6,60.3c0.2-1.3,0.9-2.1,2.4-2.1c1.3,0,2.1,0.8,2.1,2.1c0,1.4-0.7,2.3-2.2,2.3
		C79.4,62.7,78.7,61.8,78.6,60.3z"/>
	<path class="st1" d="M194.9,199l1.3,1.5l-0.1-2.6C195.6,198.2,195.2,198.6,194.9,199z"/>
	<path class="st1" d="M194,189.8c0,1.7,0.7,3.1,1.9,4l-0.2-7.6C194.7,187.1,194,188.3,194,189.8z"/>
	<path class="st1" d="M191.5,189.7c-0.1-2.5-2.2-4.5-4.8-4.5c-1.2,0-2.2,0.4-3,1.1l6.2,7.1C191,192.5,191.6,191.2,191.5,189.7z"/>
	<path class="st1" d="M195.3,169.4l-0.1-5.7c-0.6,0.8-1,1.9-1,3C194.2,167.7,194.7,168.6,195.3,169.4z"/>
	<path class="st1" d="M186.9,183.1c2.5,0,4.6-2.2,4.6-4.7c0-2.5-2.1-4.6-4.6-4.7c-2.5,0-4.7,2.1-4.7,4.6
		C182.1,180.9,184.3,183.1,186.9,183.1z"/>
	<path class="st1" d="M195.6,181.9l-0.2-6.8c-0.8,0.8-1.3,2-1.4,3.2C194.1,179.8,194.7,181,195.6,181.9z"/>
	<path class="st1" d="M175.3,173.8c-0.7,0-1.4,0.2-2,0.5l5.8,6.7c0.5-0.7,0.8-1.6,0.8-2.5C180,176,177.8,173.8,175.3,173.8z"/>
	<path class="st1" d="M186.9,171c2.5,0,4.7-2.3,4.5-4.8c-0.1-2.4-2.3-4.4-4.6-4.4c-2.5,0-4.7,2.3-4.5,4.8
		C182.3,169,184.5,171,186.9,171z"/>
	<path class="st1" d="M195,157.3l-0.1-4.4c-0.3,0.6-0.6,1.3-0.6,2C194.3,155.7,194.6,156.5,195,157.3z"/>
	<path class="st1" d="M175.4,170.9c2.4,0,4.5-2.1,4.4-4.5c0-2.4-2.1-4.5-4.5-4.4c-2.4,0-4.5,2.1-4.4,4.5
		C170.9,168.9,173,170.9,175.4,170.9z"/>
	<path class="st1" d="M175.2,159.3c2.5,0.1,4.5-1.8,4.5-4.4c0-2.4-1.9-4.3-4.3-4.3c-2.4,0-4.3,1.8-4.4,4.2
		C171,157.3,172.8,159.2,175.2,159.3z"/>
	<path class="st1" d="M187,159.4c2.5-0.1,4.4-2.2,4.2-4.7c-0.1-2.3-2.1-4.2-4.4-4.2c-2.5,0-4.5,2-4.4,4.5
		C182.5,157.5,184.5,159.4,187,159.4z"/>
	<path class="st1" d="M163.3,162.1c-0.2,0-0.4,0-0.6,0.1l4.8,5.5c0.1-0.4,0.2-0.9,0.2-1.3C167.6,163.9,165.7,162.1,163.3,162.1z"/>
	<path class="st1" d="M194.7,144l-0.1-2c-0.1,0.3-0.1,0.6-0.1,0.9C194.5,143.3,194.6,143.6,194.7,144z"/>
	<path class="st1" d="M153.1,151.2l2.2,2.5C154.9,152.6,154.1,151.7,153.1,151.2z"/>
	<path class="st1" d="M163.3,159.2c2.4,0,4.3-1.8,4.2-4.3c0-2.4-1.9-4.2-4.3-4.2c-2.3,0-4.1,1.8-4.1,4.2
		C159,157.3,160.9,159.2,163.3,159.2z"/>
	<path class="st1" d="M163.4,147.1c2.3,0,4.1-1.9,4.1-4.2c0-2.3-1.8-4.1-4.1-4.2c-2.4,0-4.3,1.9-4.2,4.3
		C159.2,145.3,161.1,147.2,163.4,147.1z"/>
	<path class="st1" d="M175.3,147.2c2.4,0,4.3-1.8,4.2-4.3c0-2.4-1.9-4.2-4.3-4.2c-2.3,0-4.1,1.8-4.1,4.1
		C171.1,145.3,172.9,147.2,175.3,147.2z"/>
	<path class="st1" d="M186.8,147.2c2.4,0,4.3-1.8,4.2-4.3c0-2.4-1.8-4.3-4.3-4.2c-2.5,0-4.3,1.8-4.2,4.3
		C182.6,145.4,184.4,147.2,186.8,147.2z"/>
	<path class="st1" d="M187.1,135.1c2.3-0.2,4-2.1,3.9-4.4c-0.1-2.3-2-4-4.3-4c-2.4,0.1-4.2,2.2-4,4.5
		C182.8,133.5,184.8,135.3,187.1,135.1z"/>
	<path class="st1" d="M175.3,135.1c2.2,0,4.1-1.9,4.1-4.1c0-2.2-1.9-4.1-4.1-4.1c-2.2,0-4.1,1.9-4.1,4.1
		C171.2,133.1,173.1,135.1,175.3,135.1z"/>
	<path class="st1" d="M151.3,147c2.2,0,4.1-2,4.1-4.2c0-2.1-1.9-4-4-4c-2.2-0.1-4.2,1.9-4.2,4C147.2,145.1,149.1,147,151.3,147z"/>
	<path class="st1" d="M186.9,123.5c2.2,0,4.1-2.1,4-4.3c-0.1-2.1-2.1-3.9-4.2-3.9c-2.2,0-4.1,2.1-4,4.3
		C182.9,121.7,184.8,123.6,186.9,123.5z"/>
	<path class="st1" d="M163.2,135c2.2,0.1,4.2-1.9,4.2-4.1c0-2.1-1.9-4-4-4.1c-2.2-0.1-4.2,1.9-4.2,4.1
		C159.2,133,161.1,134.9,163.2,135z"/>
	<path class="st1" d="M151.4,134.9c2.1,0,3.9-1.9,3.9-4c-0.1-2.2-1.9-4-4-3.9c-2.1,0-3.9,1.9-3.9,4
		C147.4,133.1,149.3,134.9,151.4,134.9z"/>
	<path class="st1" d="M175.4,123.4c2.1,0,4-1.9,3.9-4.1c0-2.1-2-4-4.1-3.9c-2.1,0-4,2-3.9,4.1C171.4,121.6,173.3,123.5,175.4,123.4z
		"/>
	<path class="st1" d="M186.8,111.3c2.2,0,3.9-1.8,3.8-4c-0.1-2.1-1.7-3.7-3.9-3.7c-2.2,0-3.9,1.8-3.8,4
		C183,109.7,184.7,111.3,186.8,111.3z"/>
	<path class="st1" d="M163.4,123.3c2.2-0.1,3.9-1.9,3.8-4.1c-0.1-2.1-1.9-3.7-4-3.7c-2.2,0.1-3.9,1.9-3.8,4.1
		C159.6,121.8,161.3,123.4,163.4,123.3z"/>
	<path class="st1" d="M151.3,123.2c2.2,0,3.8-1.6,3.8-3.7c0-2.2-1.6-3.8-3.7-3.8c-2.2,0-3.8,1.6-3.8,3.7
		C147.5,121.6,149.1,123.2,151.3,123.2z"/>
	<path class="st1" d="M139.9,123.1c2.1,0,3.7-1.8,3.6-3.9c-0.1-2-1.7-3.5-3.8-3.5c-2.1,0-3.7,1.8-3.6,3.9
		C136.2,121.7,137.9,123.2,139.9,123.1z"/>
	<path class="st1" d="M163.3,111.2c2.2,0,3.8-1.6,3.8-3.7c0-2.1-1.5-3.6-3.5-3.7c-2.2-0.1-3.8,1.5-3.9,3.6
		C159.5,109.5,161.1,111.2,163.3,111.2z"/>
	<path class="st1" d="M175.1,111.2c2.3,0.1,4-1.5,4-3.8c0-2.2-1.5-3.8-3.7-3.8c-2.2,0-3.8,1.5-3.9,3.6
		C171.4,109.5,172.9,111.1,175.1,111.2z"/>
	<path class="st1" d="M186.9,99.1c2,0,3.6-1.6,3.6-3.6c0-2-1.5-3.7-3.5-3.8c-2.2-0.1-3.9,1.5-3.9,3.6
		C183.1,97.5,184.7,99.2,186.9,99.1z"/>
	<path class="st1" d="M143.6,131c0-2.2-1.5-3.8-3.6-3.9c-2.3-0.1-4,1.6-4,3.8c0,0.3,0,0.5,0.1,0.7l2.4,2.8c0.4,0.1,0.8,0.2,1.2,0.2
		C142,134.8,143.6,133.2,143.6,131z"/>
	<path class="st1" d="M151.3,111.1c2.1,0,3.8-1.7,3.7-3.8c-0.1-2-1.8-3.5-3.8-3.5c-2,0-3.6,1.7-3.6,3.7
		C147.7,109.5,149.3,111.1,151.3,111.1z"/>
	<path class="st1" d="M175.4,99.1c2.1,0,3.7-1.8,3.6-3.9c-0.1-2-1.8-3.5-3.8-3.4c-2,0.1-3.5,1.8-3.5,3.8
		C171.7,97.6,173.4,99.1,175.4,99.1z"/>
	<path class="st1" d="M187,87.6c1.9-0.1,3.7-1.9,3.4-3.8c-0.3-2.1-1.5-3.3-3.6-3.4c-1.9-0.1-3.6,1.7-3.6,3.7
		C183.3,86,185,87.7,187,87.6z"/>
	<path class="st1" d="M175.2,87.5c1.9,0.1,3.7-1.6,3.7-3.6c0-1.8-1.6-3.5-3.4-3.6c-1.9-0.1-3.7,1.6-3.7,3.6
		C171.7,85.8,173.4,87.4,175.2,87.5z"/>
	<path class="st1" d="M163.2,99.1c1.9,0,3.7-1.6,3.7-3.5c0.1-1.9-1.6-3.7-3.5-3.7c-1.9,0-3.7,1.6-3.7,3.5
		C159.7,97.3,161.3,99,163.2,99.1z"/>
	<path class="st1" d="M151.3,99c1.9,0,3.7-1.8,3.6-3.7c-0.1-1.8-1.7-3.5-3.6-3.5c-1.9,0-3.7,1.8-3.6,3.7
		C147.8,97.4,149.5,99,151.3,99z"/>
	<path class="st1" d="M139.8,111.1c1.9,0,3.7-1.7,3.7-3.6c0-1.9-1.8-3.7-3.7-3.6c-2.1,0.2-3.3,1.4-3.5,3.5
		C136.1,109.3,137.8,111,139.8,111.1z"/>
	<path class="st1" d="M128.1,111c1.8-0.2,3.4-1.9,3.3-3.7c-0.1-1.8-1.8-3.4-3.7-3.3c-2,0.1-3.6,1.9-3.4,3.9
		C124.5,109.6,126.3,111.1,128.1,111z"/>
	<path class="st1" d="M131.5,119.4c0-1.9-1.7-3.6-3.6-3.6c-1.5,0-2.9,1.1-3.4,2.5l4.1,4.7C130.1,122.7,131.5,121.1,131.5,119.4z"/>
	<path class="st1" d="M139.8,98.9c1.9,0,3.5-1.6,3.5-3.5c0-1.9-1.7-3.5-3.6-3.4c-2,0.2-3.2,1.4-3.3,3.4
		C136.2,97.2,137.9,98.9,139.8,98.9z"/>
	<path class="st1" d="M187,75.4c1.9-0.1,3.4-1.8,3.2-3.6c-0.2-2-1.4-3.1-3.4-3.2c-1.9-0.1-3.4,1.6-3.4,3.5
		C183.5,73.9,185.1,75.4,187,75.4z"/>
	<path class="st1" d="M163.3,87.4c1.8,0,3.5-1.6,3.6-3.4c0-1.8-1.6-3.5-3.4-3.6c-1.8,0-3.5,1.6-3.6,3.4
		C159.8,85.7,161.4,87.4,163.3,87.4z"/>
	<path class="st1" d="M175.5,75.3c2-0.2,3.1-1.4,3.1-3.5c-0.1-2.1-1.3-3.1-3.4-3.2c-2,0.2-3.2,1.3-3.2,3.4
		C172,74,173.6,75.5,175.5,75.3z"/>
	<path class="st1" d="M151.5,87.3c2-0.2,3.1-1.3,3.2-3.3c0.1-1.9-1.6-3.4-3.5-3.3c-1.8,0.1-3.2,1.5-3.2,3.4
		C148,85.9,149.5,87.4,151.5,87.3z"/>
	<path class="st1" d="M119.7,107.6c0.2-1.9-1.3-3.5-3.3-3.5c-1.3,0-2.4,0.6-3,1.7l4.2,4.8C118.8,110.1,119.5,109.2,119.7,107.6z"/>
	<path class="st1" d="M127.9,98.8c2-0.2,3.2-1.3,3.2-3.3c0-2.1-1.2-3.2-3.3-3.2c-2.1,0-3.2,1.2-3.2,3.3
		C124.6,97.6,125.8,98.6,127.9,98.8z"/>
	<path class="st1" d="M116.4,98.6c1.8,0,3.3-1.5,3.1-3.4c-0.2-2-1.3-2.9-3.3-3c-1.8,0.2-3,1.2-3.1,3.2
		C113.1,97.3,114.6,98.7,116.4,98.6z"/>
	<path class="st1" d="M127.7,87.2c1.9-0.2,3.1-1.1,3.2-3.1c0.1-1.9-1.3-3.4-3.2-3.3c-2,0.1-3.1,1.2-3.1,3.2
		C124.7,85.9,125.9,86.9,127.7,87.2z"/>
	<path class="st1" d="M139.8,87.2c2,0,3.2-1.1,3.3-3.2c0-2.1-1.2-3.1-3.2-3.3c-2,0.2-3.3,1.2-3.3,3.2
		C136.6,86,137.7,87.2,139.8,87.2z"/>
	<path class="st1" d="M151.5,75.2c1.8-0.3,3-1.2,3-3.2c0-1.9-1.4-3.3-3.3-3.2c-1.8,0.1-3.2,1.6-3.1,3.4
		C148.3,74.1,149.5,75,151.5,75.2z"/>
	<path class="st1" d="M163.5,75.2c2.1-0.1,3-1.4,3.1-3.5c-0.3-2-1.5-3.1-3.5-2.9c-2.1,0.2-3.1,1.5-2.9,3.5
		C160.3,74.2,161.5,75.2,163.5,75.2z"/>
	<path class="st1" d="M175.6,63.7c1-0.2,1.8-0.6,2.3-1.3l-5.6-0.9C172.7,62.9,173.9,63.6,175.6,63.7z"/>
	<path class="st1" d="M107.4,95.2c-0.1-1.8-1.3-2.9-3.1-2.9c-0.8,0-1.5,0.3-2,0.7l4.1,4.7C107.1,97.2,107.5,96.3,107.4,95.2z"/>
	<path class="st1" d="M116.5,87c1.9-0.1,3-1.3,2.9-3.3c-0.1-1.8-1.3-2.9-3.1-2.8c-2,0-2.9,1.3-3.1,3C113.5,85.9,114.6,87.1,116.5,87
		z"/>
	<path class="st1" d="M127.9,75c1.8-0.1,2.9-1.2,2.9-3c0-1.9-1.2-3.1-3.1-3c-1.8,0-2.7,1.2-3,3C125,73.8,126,75,127.9,75z"/>
	<path class="st1" d="M139.9,75c1.9-0.1,3.1-1.2,3-3.2c0-1.9-1.2-3-3.2-3c-2,0-2.9,1.3-3.1,3.2C137,73.9,138,75.1,139.9,75z"/>
	<path class="st1" d="M148.3,60.5c0,1.8,1.2,2.9,3,3c1.9,0,3.1-1.2,3.1-3.1c0-0.9-0.3-1.6-0.8-2l-3.6-0.6
		C148.9,58.2,148.3,59.1,148.3,60.5z"/>
	<path class="st1" d="M163.4,63.5c1.9,0,3.1-1.2,3-3.1l-6-1c-0.1,0.3-0.2,0.7-0.2,1.1C160.4,62.4,161.4,63.6,163.4,63.5z"/>
	<path class="st1" d="M104.4,86.9c1.8,0,2.9-1.2,2.9-3c0-1.8-1.2-2.9-3-2.9c-1.8,0.1-2.7,1.2-2.9,3
		C101.6,85.8,102.6,86.9,104.4,86.9z"/>
	<path class="st1" d="M116.1,74.8c1.8,0.1,3-1,3.1-2.8c0.1-1.8-1.1-3-2.9-3c-1.7,0-2.7,1.1-2.9,2.8
		C113.5,73.5,114.4,74.7,116.1,74.8z"/>
	<path class="st1" d="M139.8,63.4c1.8,0,3-1.1,3-2.9c0-1.8-1.1-3-2.9-3c-1.8,0-2.8,1.2-3.1,2.9C137,62.2,138,63.4,139.8,63.4z"/>
	<path class="st1" d="M128,63.3c1.7-0.1,2.7-1.2,2.6-2.9c0-1.7-1.1-2.6-2.8-2.7c-1.7,0.2-2.8,1.1-2.8,2.8
		C125,62.3,126.2,63.3,128,63.3z"/>
	<path class="st1" d="M116.3,63.1c1.8,0,2.7-1,2.7-2.8c-0.1-1.8-1.2-2.7-2.9-2.5c-1.7,0.1-2.4,1.2-2.5,2.8
		C113.8,62.2,114.7,63.2,116.3,63.1z"/>
	<path class="st1" d="M104.3,74.7c1.7-0.1,2.8-1,2.7-2.8c0-1.8-1-2.7-2.8-2.7c-1.6,0-2.6,1-2.6,2.6
		C101.6,73.6,102.5,74.5,104.3,74.7z"/>
	<path class="st1" d="M92.4,81.2c-0.1,0-0.3,0-0.4,0l3,3.4c0-0.2,0.1-0.4,0.1-0.6C95.1,82.3,94.2,81.3,92.4,81.2z"/>
	<path class="st1" d="M104.4,63c1.6,0,2.6-1,2.5-2.7c0-1.5-1-2.4-2.5-2.5c-1.7-0.1-2.4,1-2.7,2.4C101.9,62,102.8,63.1,104.4,63z"/>
	<path class="st1" d="M92.4,74.5c1.6-0.1,2.5-1.1,2.5-2.7c-0.1-1.6-1.1-2.5-2.7-2.5c-1.6,0.1-2.4,1.1-2.5,2.7
		C89.9,73.6,90.8,74.6,92.4,74.5z"/>
	<path class="st1" d="M81.9,69.7l1.3,1.4C83,70.4,82.6,69.9,81.9,69.7z"/>
	<path class="st1" d="M92.4,62.9c1.5,0,2.4-1,2.4-2.5c0-1.5-1-2.4-2.5-2.4c-1.5,0-2.3,1-2.5,2.5C90.1,62,90.9,63,92.4,62.9z"/>
	<path class="st1" d="M104.4,50.8c0.5,0,0.8-0.1,1.2-0.3l-3.1-0.5C102.9,50.6,103.6,50.9,104.4,50.8z"/>
	<path class="st1" d="M83.1,60.4c0-1.3-0.8-2.1-2.1-2.1c-1.5-0.1-2.2,0.7-2.4,2.1c0.1,1.5,0.8,2.4,2.3,2.3
		C82.3,62.7,83.1,61.8,83.1,60.4z"/>
	<path class="st1" d="M78.8,48.5c0,1.3,0.8,2.1,2.2,2c1.2,0,1.9-0.8,2-2c0-0.9-0.4-1.6-1.1-1.9l-1.4-0.2
		C79.4,46.7,78.8,47.3,78.8,48.5z"/>
	<path class="st1" d="M92.4,50.7c1.3-0.1,2-0.7,2.1-1.9L90.2,48c0,0.2,0,0.4,0,0.6C90.2,49.9,91,50.6,92.4,50.7z"/>
	<path class="st1" d="M68.9,46.6c-1.2,0.2-1.9,0.8-1.9,1.9c0,1.2,0.8,2,2,1.8c1.1-0.1,1.7-0.9,1.7-2C70.6,47.3,69.9,46.7,68.9,46.6z
		"/>
</g>
<path class="st2" d="M170.9,37.5l4.2,161.2L11.8,11.5L170.9,37.5z"/>
</svg>
