<?xml version="1.0" encoding="utf-8"?>
<!-- Generator: Adobe Illustrator 25.0.0, SVG Export Plug-In . SVG Version: 6.00 Build 0)  -->
<svg version="1.1" id="圖層_1" xmlns="http://www.w3.org/2000/svg" xmlns:xlink="http://www.w3.org/1999/xlink" x="0px" y="0px"
	 viewBox="0 0 218 153.7" style="enable-background:new 0 0 218 153.7;" xml:space="preserve">
<style type="text/css">
	.st0{fill:none;}
	.st1{fill:#D6482C;}
	.st2{fill:none;stroke:#000000;stroke-width:10;}
</style>
<g>
	<path class="st0" d="M170.6,14.9c-2-0.4-2.8-1.8-2.3-3.7c0.5-1.8,1.8-2.5,3.6-2.1c1.8,0.4,2.5,1.8,2.2,3.6
		c-0.1,0.4-0.3,0.7-0.4,0.9L185.4,0l-36.8,6.5c0,0.1,0,0.1,0,0.2c-0.5,2.1-2.2,2.8-4.1,2.7c-1.1-0.4-1.9-1-2.4-1.7L120,11.5
		c0.2,0.6,0.2,1.2,0.1,1.8c-0.5,2.1-2.7,3.5-4.7,3c-1.6-0.3-2.9-1.8-3.1-3.5l-22,3.9c0.9,1,1.3,2.4,0.9,3.9
		c-0.6,2.4-2.7,3.7-5.2,3.2c-2.4-0.6-3.8-2.8-3.2-5.2c0.1-0.2,0.1-0.4,0.2-0.6l-5.6,1c-1.1,1.5-3.1,2.4-4.9,1.9
		c-0.6-0.1-1.1-0.4-1.6-0.8L59.8,22c1.6,1,2.6,3.1,2.1,5.1c-0.6,2.5-3.2,4.1-5.7,3.6c-2.5-0.6-4.1-3.2-3.5-5.7
		c0.2-0.7,0.5-1.3,0.9-1.9l-4.3,0.8c0,0.1,0,0.2,0,0.3c-0.7,2.7-3.2,4.2-5.9,3.5c-1.3-0.3-2.4-1.2-3-2.3L19.8,29
		c0.2,0.7,0.2,1.5,0,2.2c-0.6,2.7-3.4,4.4-6.1,3.9c-2.1-0.5-3.6-2.3-4-4.3l-0.5,0.1l4.5,7.9c1.9,0.9,3.1,2.9,2.9,5.1l6,10.6
		c0.1,0,0.3,0,0.4,0.1c2.7,0.7,4.2,3.2,3.5,5.9c-0.1,0.2-0.1,0.4-0.2,0.6l5.7,10c0.4,0,0.7,0,1.1,0.1c2.3,0.5,3.9,3.1,3.5,5.5
		c-0.1,0.5-0.3,1-0.6,1.4l5.5,9.6c0.4,0,0.8,0,1.1,0.1c2.4,0.6,3.8,2.7,3.2,5.1c-0.1,0.5-0.3,1-0.6,1.4l5.5,9.6
		c0.7-0.2,1.5-0.3,2.2-0.1c2.1,0.5,3.7,2.9,3,5c-0.3,0.9-0.7,1.6-1.3,2.1l5.7,10c0.7-0.4,1.6-0.5,2.7-0.2c2.3,0.6,3.3,2.2,2.7,4.5
		c-0.3,1.1-0.8,1.9-1.6,2.4l4.5,7.9l4.4-5.1c-1.4-0.7-1.9-2.1-1.7-3.8c0.7-2.1,2-3.2,4.2-2.8c0.9,0.1,1.6,0.6,2.1,1.2l15-17.4
		c-1.6-0.8-2.2-2.2-1.8-4.2c0.8-2,2.1-3,4.3-2.5c0.9,0.2,1.6,0.7,2.1,1.4l15.4-17.9c-0.2,0-0.3-0.1-0.5-0.1
		c-2.1-0.7-2.8-2.4-2.3-4.5c0.9-1.9,2.3-2.9,4.4-2.3c1.2,0.3,2.1,1.2,2.4,2.3l15.7-18.2c-0.2,0-0.4,0-0.6-0.1
		c-2.1-0.6-3.1-2.2-2.5-4.3c0.5-2,2.1-2.9,4.1-2.4c1.5,0.3,2.4,1.3,2.6,2.6l16.2-18.8c-0.2,0-0.4,0-0.7-0.1
		c-2.1-0.4-3.1-1.9-2.7-3.9c0.4-2,2-3,4-2.5c1.5,0.4,2.3,1.4,2.4,2.8l10.1-11.7c0.2-0.3,0.3-0.5,0.6-0.7l6.7-7.7
		C172.3,15,171.5,15.1,170.6,14.9z M109.1,24.7c0.5-2,2.8-3.4,4.8-2.9c2,0.5,3.4,2.7,3,4.8c-0.5,2-2.7,3.5-4.7,3.1
		C110,29.2,108.5,26.8,109.1,24.7z M95.6,21.7c0.5-2.2,2.7-3.6,4.9-3.1c2.3,0.5,3.8,2.9,3.2,5.1c-0.6,2.2-2.9,3.5-5,3
		C96.5,26.1,95.1,23.8,95.6,21.7z M92.6,34.5c0.4-2.3,2.8-3.8,5.1-3.3c2.2,0.5,3.6,2.8,3.1,5c-0.5,2.2-2.7,3.6-4.9,3.1
		C93.6,38.9,92.2,36.7,92.6,34.5z M89.5,47.7c0.5-2.1,2.8-3.6,5-3.1c2.2,0.5,3.6,2.8,3.1,5c-0.5,2.1-2.8,3.6-5,3.1
		C90.5,52.1,89,49.8,89.5,47.7z M79.8,31.4c0.5-2.4,2.7-3.8,5.1-3.3c2.4,0.5,3.8,2.7,3.3,5.1c-0.5,2.4-2.7,3.8-5.1,3.3
		C80.6,36,79.3,33.8,79.8,31.4z M76.7,44.5c0.6-2.2,2.8-3.5,5-3c2.4,0.5,3.8,2.7,3.2,5.1c-0.6,2.4-2.8,3.7-5.2,3.1
		C77.3,49.1,76,46.8,76.7,44.5z M76.8,63c-2.4-0.5-3.8-2.8-3.2-5.1c0.6-2.3,2.7-3.6,5-3.1c2.3,0.5,3.7,2.6,3.3,4.8
		C81.4,62.1,79.2,63.5,76.8,63z M78.7,72.8c-0.6,2.2-2.9,3.5-5.1,2.9c-2.2-0.6-3.5-2.8-3-5c0.6-2.3,3-3.7,5.3-3
		C78,68.3,79.3,70.6,78.7,72.8z M66.2,28.2c0.5-2.4,3.1-4,5.4-3.5c2.4,0.5,4,3.1,3.5,5.4c-0.5,2.3-3.1,4-5.4,3.5
		C67.3,33.1,65.7,30.6,66.2,28.2z M63.2,41.3c0.6-2.3,3-3.7,5.3-3.2c2.4,0.6,3.9,3,3.3,5.4c-0.6,2.4-3.1,3.9-5.5,3.3
		C64,46.2,62.5,43.7,63.2,41.3z M60.1,54.8c0.6-2.5,3-3.9,5.5-3.2c2.3,0.7,3.6,2.9,3.1,5.3c-0.6,2.5-3,3.9-5.5,3.2
		C60.8,59.4,59.5,57.1,60.1,54.8z M65.6,69.4c-0.5,2.4-2.6,3.8-5,3.4c-2.4-0.5-3.9-2.6-3.5-5c0.5-2.5,2.7-4,5.2-3.5
		C64.7,64.9,66.1,67,65.6,69.4z M49.6,38.2c0.6-2.4,3.3-4.1,5.7-3.4c2.3,0.6,3.9,3.2,3.4,5.5c-0.5,2.5-3.2,4.2-5.6,3.6
		C50.7,43.4,49,40.7,49.6,38.2z M46.5,51.5c0.6-2.4,3.4-4,5.8-3.3c2.3,0.7,3.8,3.3,3.2,5.6c-0.6,2.4-3.4,4-5.8,3.3
		C47.5,56.4,46,53.8,46.5,51.5z M52.5,66.5c-0.6,2.4-3.2,3.9-5.5,3.3c-2.4-0.6-3.9-3.2-3.3-5.5c0.6-2.3,3.2-3.9,5.5-3.3
		C51.5,61.6,53.1,64.2,52.5,66.5z M36.8,35.3c0.6-2.6,3-4.2,5.6-3.6c2.7,0.5,4.4,3.1,3.8,5.8c-0.6,2.7-3.2,4.3-5.9,3.6
		C37.7,40.3,36.2,37.9,36.8,35.3z M33.8,48.3c0.8-2.5,3.4-3.9,5.9-3.2c2.5,0.7,4,3.3,3.3,5.8c-0.7,2.6-3.5,4.1-6,3.3
		C34.4,53.4,33,50.7,33.8,48.3z M23.4,31.9c0.7-2.7,3.3-4.2,5.9-3.5c2.7,0.7,4.2,3.2,3.6,5.9c-0.6,2.7-3.1,4.3-5.8,3.7
		C24.3,37.4,22.7,34.8,23.4,31.9z M29.7,47.6c-0.7,2.7-3.1,4.2-5.9,3.6c-2.7-0.6-4.2-3.1-3.6-5.9c0.6-2.7,3.1-4.2,5.9-3.6
		C28.9,42.4,30.4,44.9,29.7,47.6z M39.9,63.5c-0.5,2.4-3.2,4.1-5.7,3.5c-2.4-0.6-4.1-3.2-3.5-5.7c0.6-2.4,3.2-4.1,5.7-3.5
		C38.8,58.4,40.5,61,39.9,63.5z M49.2,79.8c-0.7,2.4-3.1,3.8-5.6,3.1c-2.3-0.7-3.6-3-3-5.4c0.7-2.4,3.1-3.8,5.5-3.1
		C48.5,75.1,49.8,77.5,49.2,79.8z M59.1,96.2c-0.6,2.2-2.8,3.5-5,3c-2.2-0.5-3.6-2.8-3.1-5c0.5-2.3,2.9-3.7,5.2-3.1
		C58.4,91.7,59.7,94,59.1,96.2z M57.4,86c-2.4-0.5-3.8-2.7-3.3-5.1c0.5-2.4,2.7-3.8,5.1-3.2c2.3,0.5,3.6,2.6,3.2,4.9
		C61.9,85,59.8,86.5,57.4,86z M69.2,112.1c-0.7,2.2-2.3,3.2-4.6,2.8c-2.1-0.4-3.5-2.7-3-4.8c0.5-2.1,2.7-3.5,4.8-2.9
		C68.4,107.7,69.8,110,69.2,112.1z M72.3,99.2c-0.5,2.1-2.9,3.6-5,3c-2-0.6-3.4-2.8-2.9-4.9c0.5-2.1,2.9-3.6,5-3
		C71.5,94.9,72.8,97.1,72.3,99.2z M70.7,89c-2.2-0.5-3.7-2.7-3.2-4.9c0.5-2.2,2.7-3.7,4.9-3.2c2.2,0.4,3.7,2.7,3.2,4.9
		C75.1,88,72.9,89.5,70.7,89z M81.8,114.8c-0.7,2.2-2.1,3.3-4.5,2.8c-2.3-0.5-3.3-2.1-2.8-4.4c0.5-2.3,2.1-3.3,4.4-2.8
		C81.2,110.9,82,112.5,81.8,114.8z M84.8,102.3c-0.6,2-2.6,3.2-4.6,2.7c-2.1-0.5-3.4-2.7-2.8-4.8c0.7-2.2,2.3-3.1,4.5-2.7
		C84.1,98,85.4,100.2,84.8,102.3z M88.2,88.8c-0.4,2.1-2.7,3.5-4.7,3.1c-2.1-0.4-3.5-2.7-3.1-4.7c0.4-2.1,2.7-3.5,4.7-3.1
		C87.2,84.5,88.6,86.7,88.2,88.8z M91.4,75.5c-0.4,2.1-2.8,3.7-4.9,3.2c-2-0.5-3.5-2.7-3.1-4.7c0.4-2.1,2.8-3.7,4.9-3.2
		C90.4,71.2,91.8,73.4,91.4,75.5z M89.3,65.9c-2.1-0.6-3.5-3-2.9-5.1c0.6-2.1,3.1-3.5,5.1-2.8c2.2,0.8,3.2,2.5,2.8,4.9
		C93.9,65.1,91.5,66.5,89.3,65.9z M101,92.2c-0.7,2.2-2.5,3-4.7,2.3c-2.1-0.7-2.9-2.3-2.3-4.4c0.6-2.3,2.3-3,4.6-2.5
		C100.8,88.4,101.8,90,101,92.2z M104.4,78.8c-0.8,2.2-2.3,3.2-4.6,2.7c-2.2-0.5-3.4-2.6-2.7-4.8c0.8-2.2,2.4-3.1,4.6-2.5
		C104,74.8,104.8,76.5,104.4,78.8z M107.4,66c-0.4,2.1-2.7,3.4-4.7,2.8c-2.1-0.6-3.3-2.8-2.7-4.8c0.6-2.1,2.8-3.4,4.9-2.6
		C107,62.1,107.9,63.8,107.4,66z M110.7,52.5c-0.3,2.1-2.6,3.5-4.7,3.1c-2.1-0.4-3.5-2.7-3-4.8c0.5-2.1,2.8-3.5,4.8-2.9
		C110,48.7,111,50.3,110.7,52.5z M109,42.4c-2-0.5-3.4-2.7-3-4.8c0.4-2,2.6-3.5,4.7-3.1c2.1,0.4,3.7,2.8,3.1,4.9
		C113.3,41.5,111.1,42.8,109,42.4z M119.9,69c-0.6,2.1-2.1,2.9-3.9,2.7c-2.5-0.6-3.7-2.5-3.1-4.6c0.6-2.1,2.1-3,4.3-2.6
		C119.3,64.9,120.5,66.9,119.9,69z M123.1,55.7c-0.6,2.1-2.1,3.1-4.3,2.6c-2.3-0.5-3.2-2.1-2.9-4.4c0.7-2.2,2.2-3.3,4.5-2.7
		C122.7,51.8,123.7,53.5,123.1,55.7z M126.9,42.3c-0.5,2.4-2.2,3.1-4.2,3c-2.4-0.8-3.5-2.2-3-4.5c0.6-2.3,2.2-3.2,4.5-2.7
		C126.4,38.6,127.3,40.1,126.9,42.3z M129.9,29.7c-0.5,2.3-2.1,3.1-4.4,2.9c-2.2-0.7-3.3-2.1-2.8-4.5c0.5-2.3,2.1-3.3,4.4-2.8
		C129.3,25.8,130.4,27.4,129.9,29.7z M128.4,19.1c-2.2-0.8-3.1-2.3-2.5-4.6c0.6-2.2,2.3-3.2,4.5-2.6c2.2,0.6,3.2,2.3,2.6,4.5
		C132.4,18.8,130.7,19.5,128.4,19.1z M139.4,45.5c-0.6,2.1-2.2,2.8-4.3,2.6c-2-0.8-3-2.2-2.5-4.4c0.6-2.1,2.2-3,4.3-2.5
		C139,41.8,140,43.4,139.4,45.5z M142.5,32.8c-0.8,2-2.2,3-4.4,2.5c-2.1-0.6-3-2.2-2.5-4.3c0.6-2.1,2.2-3,4.3-2.5
		C142,29,142.8,30.6,142.5,32.8z M141.5,22c-2.1-0.4-3.2-2-2.8-4.1c0.4-2.1,2-3.2,4.1-2.8c2.2,0.4,2.9,2,2.9,3.9
		C145,21.3,143.6,22.4,141.5,22z M158.6,22.5c-0.6,2-2.2,2.9-4.2,2.3c-1.9-0.6-2.5-2.1-2.3-3.9c0.8-2,2.2-3,4.2-2.3
		C158.3,19.1,159.2,20.7,158.6,22.5z M161.6,9.7c-0.4,1.9-1.8,2.7-3.9,2.5c-1.8-0.6-2.9-1.8-2.6-3.7c0.3-2.1,1.8-3.1,3.9-2.8
		C161.1,6.1,162.1,7.7,161.6,9.7z"/>
	<path class="st1" d="M13.7,35.1c2.7,0.6,5.5-1.2,6.1-3.9c0.2-0.7,0.1-1.5,0-2.2L9.8,30.8C10.1,32.8,11.7,34.6,13.7,35.1z"/>
	<path class="st1" d="M13.8,38.8l2.9,5.1C16.9,41.8,15.8,39.7,13.8,38.8z"/>
	<path class="st1" d="M27.1,38c2.7,0.6,5.2-1,5.8-3.7c0.6-2.7-1-5.2-3.6-5.9c-2.7-0.7-5.3,0.9-5.9,3.5C22.7,34.8,24.3,37.4,27.1,38z
		"/>
	<path class="st1" d="M23.2,54.6c-0.1,0-0.3,0-0.4-0.1l3.7,6.5c0.1-0.2,0.2-0.4,0.2-0.6C27.4,57.8,25.8,55.2,23.2,54.6z"/>
	<path class="st1" d="M26.2,41.8c-2.7-0.7-5.2,0.9-5.9,3.6c-0.7,2.7,0.9,5.2,3.6,5.9c2.7,0.7,5.2-0.9,5.9-3.6
		C30.4,44.9,28.9,42.4,26.2,41.8z"/>
	<path class="st1" d="M36.9,54.2c2.6,0.8,5.3-0.7,6-3.3c0.7-2.5-0.8-5.1-3.3-5.8c-2.5-0.7-5.1,0.7-5.9,3.2
		C33,50.7,34.4,53.4,36.9,54.2z"/>
	<path class="st1" d="M40.2,41c2.7,0.7,5.3-0.9,5.9-3.6c0.6-2.7-1-5.2-3.8-5.8c-2.6-0.5-5,1.1-5.6,3.6C36.2,37.9,37.7,40.3,40.2,41z
		"/>
	<path class="st1" d="M43.4,27.7c2.7,0.7,5.2-0.8,5.9-3.5c0-0.1,0-0.2,0-0.3l-8.9,1.6C41,26.5,42,27.4,43.4,27.7z"/>
	<path class="st1" d="M56.3,30.6c2.5,0.6,5.1-1.1,5.7-3.6c0.4-2-0.5-4-2.1-5.1l-6.1,1.1c-0.4,0.5-0.8,1.2-0.9,1.9
		C52.2,27.5,53.8,30.1,56.3,30.6z"/>
	<path class="st1" d="M36.4,57.8c-2.4-0.6-5.1,1.1-5.7,3.5c-0.6,2.4,1.1,5.1,3.5,5.7c2.4,0.6,5.1-1.1,5.7-3.5
		C40.5,61,38.8,58.4,36.4,57.8z"/>
	<path class="st1" d="M53.1,43.9c2.5,0.6,5.1-1.2,5.6-3.6c0.5-2.4-1.1-4.9-3.4-5.5c-2.4-0.6-5.1,1-5.7,3.4
		C49,40.7,50.7,43.4,53.1,43.9z"/>
	<path class="st1" d="M49.8,57.1c2.4,0.7,5.2-0.9,5.8-3.3c0.6-2.3-0.9-4.9-3.2-5.6c-2.4-0.7-5.2,0.9-5.8,3.3
		C46,53.8,47.5,56.4,49.8,57.1z"/>
	<path class="st1" d="M33.3,71.2c-0.4-0.1-0.7-0.1-1.1-0.1l4,7c0.3-0.4,0.5-0.9,0.6-1.4C37.2,74.3,35.6,71.7,33.3,71.2z"/>
	<path class="st1" d="M77.4,18.9l-6.5,1.1c0.5,0.4,1,0.6,1.6,0.8C74.3,21.3,76.3,20.5,77.4,18.9z"/>
	<path class="st1" d="M69.7,33.6c2.4,0.5,4.9-1.1,5.4-3.5c0.5-2.4-1.1-4.9-3.5-5.4c-2.4-0.5-4.9,1.1-5.4,3.5
		C65.7,30.6,67.3,33.1,69.7,33.6z"/>
	<path class="st1" d="M66.4,46.8c2.4,0.6,4.9-0.9,5.5-3.3c0.6-2.4-0.9-4.9-3.3-5.4c-2.3-0.5-4.7,0.9-5.3,3.2
		C62.5,43.7,64,46.2,66.4,46.8z"/>
	<path class="st1" d="M43.6,64.3c-0.6,2.3,1,4.9,3.3,5.5c2.3,0.6,4.9-1,5.5-3.3c0.6-2.3-0.9-4.9-3.3-5.5
		C46.8,60.4,44.2,61.9,43.6,64.3z"/>
	<path class="st1" d="M63.2,60c2.5,0.7,4.8-0.7,5.5-3.2c0.6-2.4-0.7-4.6-3.1-5.3c-2.5-0.7-4.8,0.7-5.5,3.2
		C59.5,57.1,60.8,59.4,63.2,60z"/>
	<path class="st1" d="M46.2,74.5c-2.4-0.7-4.9,0.7-5.5,3.1c-0.6,2.3,0.7,4.7,3,5.4c2.4,0.7,4.9-0.7,5.6-3.1
		C49.8,77.5,48.5,75.1,46.2,74.5z"/>
	<path class="st1" d="M42.7,87.8c-0.4-0.1-0.8-0.1-1.1-0.1l3.8,6.6c0.3-0.4,0.5-0.9,0.6-1.4C46.5,90.5,45.2,88.4,42.7,87.8z"/>
	<path class="st1" d="M59.2,77.7c-2.4-0.6-4.6,0.8-5.1,3.2c-0.5,2.4,0.9,4.6,3.3,5.1c2.4,0.5,4.6-1,5-3.4
		C62.8,80.3,61.5,78.2,59.2,77.7z"/>
	<path class="st1" d="M85.9,23.7c2.4,0.6,4.6-0.7,5.2-3.2c0.4-1.5,0-2.9-0.9-3.9L83,18c-0.1,0.2-0.2,0.4-0.2,0.6
		C82.2,21,83.5,23.2,85.9,23.7z"/>
	<path class="st1" d="M57.1,67.8c-0.4,2.4,1,4.5,3.5,5c2.4,0.5,4.5-0.9,5-3.4c0.5-2.4-0.9-4.6-3.3-5.1
		C59.8,63.7,57.6,65.2,57.1,67.8z"/>
	<path class="st1" d="M83.1,36.5c2.4,0.5,4.5-0.9,5.1-3.3c0.5-2.4-0.9-4.5-3.3-5.1c-2.4-0.5-4.5,0.9-5.1,3.3
		C79.3,33.8,80.6,36,83.1,36.5z"/>
	<path class="st1" d="M79.7,49.7c2.4,0.6,4.6-0.7,5.2-3.1c0.6-2.4-0.8-4.6-3.2-5.1c-2.3-0.5-4.4,0.7-5,3
		C76,46.8,77.3,49.1,79.7,49.7z"/>
	<path class="st1" d="M81.8,59.7c0.4-2.2-1-4.4-3.3-4.8c-2.3-0.5-4.4,0.8-5,3.1c-0.6,2.4,0.8,4.6,3.2,5.1
		C79.2,63.5,81.4,62.1,81.8,59.7z"/>
	<path class="st1" d="M56.2,91.1c-2.3-0.6-4.7,0.8-5.2,3.1c-0.5,2.2,0.9,4.4,3.1,5c2.2,0.5,4.5-0.8,5-3C59.7,94,58.4,91.7,56.2,91.1
		z"/>
	<path class="st1" d="M75.9,67.7c-2.3-0.7-4.7,0.7-5.3,3c-0.5,2.2,0.8,4.4,3,5c2.2,0.6,4.5-0.7,5.1-2.9C79.3,70.6,78,68.3,75.9,67.7
		z"/>
	<path class="st1" d="M98.7,26.6c2.2,0.5,4.4-0.8,5-3c0.6-2.3-0.9-4.7-3.2-5.1c-2.2-0.5-4.4,1-4.9,3.1
		C95.1,23.8,96.5,26.1,98.7,26.6z"/>
	<path class="st1" d="M95.8,39.4c2.2,0.4,4.4-1,4.9-3.1c0.5-2.2-0.9-4.4-3.1-5c-2.3-0.6-4.7,0.9-5.1,3.3
		C92.2,36.7,93.6,38.9,95.8,39.4z"/>
	<path class="st1" d="M92.6,52.6c2.1,0.5,4.4-0.9,5-3.1c0.5-2.1-0.9-4.5-3.1-5c-2.1-0.5-4.4,0.9-5,3.1C89,49.8,90.5,52.1,92.6,52.6z
		"/>
	<path class="st1" d="M91.6,58c-2-0.7-4.5,0.7-5.1,2.8c-0.6,2.1,0.8,4.5,2.9,5.1c2.1,0.6,4.6-0.8,5-3C94.8,60.5,93.8,58.8,91.6,58z"
		/>
	<path class="st1" d="M88.3,70.7c-2.1-0.5-4.5,1-4.9,3.2c-0.4,2,1,4.3,3.1,4.7c2.1,0.5,4.5-1,4.9-3.2C91.8,73.4,90.4,71.2,88.3,70.7
		z"/>
	<path class="st1" d="M72.4,80.9c-2.2-0.5-4.4,1-4.9,3.2c-0.5,2.2,1,4.4,3.2,4.9c2.2,0.5,4.4-1,4.9-3.2C76,83.6,74.5,81.4,72.4,80.9
		z"/>
	<path class="st1" d="M69.4,94.3c-2.1-0.6-4.5,0.9-5,3c-0.5,2,0.9,4.3,2.9,4.9c2.1,0.6,4.5-0.9,5-3C72.8,97.1,71.5,94.9,69.4,94.3z"
		/>
	<path class="st1" d="M56.1,108.9c0.6-2.1-0.9-4.5-3-5c-0.7-0.2-1.5-0.1-2.2,0.1l4,7C55.4,110.4,55.8,109.8,56.1,108.9z"/>
	<path class="st1" d="M110.7,34.5c-2.1-0.4-4.3,1.1-4.7,3.1c-0.4,2,1,4.3,3,4.8c2,0.5,4.3-0.9,4.8-2.9
		C114.4,37.3,112.9,34.9,110.7,34.5z"/>
	<path class="st1" d="M112.2,29.7c2.1,0.4,4.3-1,4.7-3.1c0.5-2.1-0.9-4.3-3-4.8c-2-0.5-4.3,0.8-4.8,2.9
		C108.5,26.8,110,29.2,112.2,29.7z"/>
	<path class="st1" d="M115.3,16.3c2.1,0.4,4.3-1,4.7-3c0.1-0.6,0.1-1.2-0.1-1.8l-7.8,1.4C112.4,14.5,113.6,16,115.3,16.3z"/>
	<path class="st1" d="M66.4,107.2c-2.1-0.5-4.3,0.8-4.8,2.9c-0.5,2.1,0.9,4.4,3,4.8c2.3,0.4,3.9-0.6,4.6-2.8
		C69.8,110,68.4,107.7,66.4,107.2z"/>
	<path class="st1" d="M107.8,48c-2-0.6-4.3,0.8-4.8,2.9c-0.5,2.1,0.9,4.3,3,4.8c2.1,0.4,4.4-1,4.7-3.1C111,50.3,110,48.7,107.8,48z"
		/>
	<path class="st1" d="M104.8,61.4c-2-0.7-4.3,0.6-4.9,2.6c-0.6,2.1,0.7,4.3,2.7,4.8c2.1,0.6,4.3-0.7,4.7-2.8
		C107.9,63.8,107,62.1,104.8,61.4z"/>
	<path class="st1" d="M85.1,84.1c-2.1-0.4-4.3,1-4.7,3.1c-0.5,2.1,1,4.3,3.1,4.7c2.1,0.4,4.3-1,4.7-3.1
		C88.6,86.7,87.2,84.5,85.1,84.1z"/>
	<path class="st1" d="M101.7,74.2c-2.2-0.6-3.9,0.3-4.6,2.5c-0.7,2.1,0.5,4.3,2.7,4.8c2.3,0.5,3.8-0.5,4.6-2.7
		C104.8,76.5,104,74.8,101.7,74.2z"/>
	<path class="st1" d="M82,97.6c-2.3-0.5-3.9,0.5-4.5,2.7c-0.7,2.1,0.7,4.3,2.8,4.8c2,0.5,4-0.7,4.6-2.7C85.4,100.2,84.1,98,82,97.6z
		"/>
	<path class="st1" d="M65.9,125.2c0.6-2.3-0.4-3.9-2.7-4.5c-1.1-0.3-1.9-0.2-2.7,0.2l3.8,6.7C65,127.1,65.6,126.3,65.9,125.2z"/>
	<path class="st1" d="M75.7,123.8c-2.2-0.4-3.6,0.7-4.2,2.8c-0.2,1.8,0.3,3.1,1.7,3.8l4.7-5.4C77.3,124.4,76.5,123.9,75.7,123.8z"/>
	<path class="st1" d="M78.9,110.4c-2.3-0.5-3.9,0.5-4.4,2.8c-0.5,2.3,0.5,3.9,2.8,4.4c2.3,0.5,3.8-0.6,4.5-2.8
		C82,112.5,81.2,110.9,78.9,110.4z"/>
	<path class="st1" d="M95.3,100.9c-2.2-0.4-3.6,0.5-4.3,2.5c-0.4,2,0.2,3.4,1.8,4.2l4.6-5.4C96.9,101.6,96.2,101.1,95.3,100.9z"/>
	<path class="st1" d="M98.7,87.6c-2.3-0.5-4,0.2-4.6,2.5c-0.6,2.1,0.2,3.7,2.3,4.4c2.2,0.7,3.9-0.1,4.7-2.3
		C101.8,90,100.8,88.4,98.7,87.6z"/>
	<path class="st1" d="M114.4,77.4c-2.2-0.6-3.6,0.4-4.4,2.3c-0.4,2.2,0.2,3.8,2.3,4.5c0.2,0.1,0.3,0.1,0.5,0.1l4-4.7
		C116.5,78.6,115.6,77.7,114.4,77.4z"/>
	<path class="st1" d="M117.2,64.5c-2.2-0.4-3.7,0.5-4.3,2.6c-0.6,2.1,0.6,4,3.1,4.6c1.8,0.2,3.3-0.6,3.9-2.7
		C120.5,66.9,119.3,64.9,117.2,64.5z"/>
	<path class="st1" d="M120.5,51.2c-2.3-0.6-3.8,0.5-4.5,2.7c-0.3,2.3,0.5,3.9,2.9,4.4c2.2,0.5,3.7-0.4,4.3-2.6
		C123.7,53.5,122.7,51.8,120.5,51.2z"/>
	<path class="st1" d="M124.2,38c-2.3-0.6-3.9,0.4-4.5,2.7c-0.6,2.3,0.5,3.8,3,4.5c2,0.1,3.7-0.6,4.2-3
		C127.3,40.1,126.4,38.6,124.2,38z"/>
	<path class="st1" d="M127.1,25.3c-2.3-0.5-3.9,0.5-4.4,2.8c-0.5,2.3,0.6,3.8,2.8,4.5c2.3,0.3,3.9-0.6,4.4-2.9
		C130.4,27.4,129.3,25.8,127.1,25.3z"/>
	<path class="st1" d="M130.4,12c-2.2-0.6-3.9,0.3-4.5,2.6c-0.6,2.2,0.4,3.8,2.5,4.6c2.3,0.4,3.9-0.3,4.6-2.6
		C133.6,14.3,132.7,12.6,130.4,12z"/>
	<path class="st1" d="M136.9,41.2c-2.1-0.5-3.7,0.4-4.3,2.5c-0.6,2.1,0.5,3.6,2.5,4.4c2.1,0.3,3.8-0.4,4.3-2.6
		C140,43.4,139,41.8,136.9,41.2z"/>
	<path class="st1" d="M133.6,54.5c-2-0.5-3.6,0.5-4.1,2.4c-0.6,2.1,0.4,3.8,2.5,4.3c0.2,0.1,0.4,0.1,0.6,0.1l3.7-4.3
		C136,55.8,135.2,54.8,133.6,54.5z"/>
	<path class="st1" d="M139.9,28.5c-2.1-0.5-3.7,0.4-4.3,2.5c-0.5,2.1,0.4,3.7,2.5,4.3c2.1,0.6,3.6-0.5,4.4-2.5
		C142.8,30.6,142,29,139.9,28.5z"/>
	<path class="st1" d="M142.8,15.1c-2.1-0.4-3.7,0.6-4.1,2.8c-0.4,2.1,0.6,3.7,2.8,4.1s3.5-0.7,4.3-2.9
		C145.7,17.1,145,15.5,142.8,15.1z"/>
	<path class="st1" d="M144.4,9.4c2,0.1,3.6-0.5,4.1-2.7c0-0.1,0-0.1,0-0.2L142,7.6C142.5,8.4,143.3,8.9,144.4,9.4z"/>
	<path class="st1" d="M159.1,5.7c-2-0.4-3.5,0.7-3.9,2.8c-0.3,1.9,0.8,3.2,2.6,3.7c2,0.2,3.5-0.6,3.9-2.5
		C162.1,7.7,161.1,6.1,159.1,5.7z"/>
	<path class="st1" d="M156.4,18.6c-2-0.6-3.4,0.3-4.2,2.3c-0.3,1.8,0.4,3.4,2.3,3.9c2,0.6,3.6-0.3,4.2-2.3
		C159.2,20.7,158.3,19.1,156.4,18.6z"/>
	<path class="st1" d="M153.1,31.8c-2-0.5-3.6,0.5-4,2.5c-0.4,2,0.6,3.6,2.7,3.9c0.2,0,0.4,0.1,0.7,0.1l3.1-3.7
		C155.4,33.2,154.7,32.2,153.1,31.8z"/>
	<path class="st1" d="M165.7,22.9l0.6-0.7C166,22.4,165.9,22.6,165.7,22.9z"/>
	<path class="st1" d="M171.9,9c-1.8-0.4-3.2,0.3-3.6,2.1c-0.5,1.9,0.3,3.3,2.3,3.7c1,0.2,1.7,0,2.3-0.4l0.8-1
		c0.2-0.3,0.3-0.6,0.4-0.9C174.4,10.8,173.8,9.5,171.9,9z"/>
</g>
<path class="st2" d="M197.1,20.5L96.9,136.9l-51-89.8L197.1,20.5z"/>
</svg>
