<svg width="378" height="95" viewBox="0 0 378 95" fill="none" xmlns="http://www.w3.org/2000/svg">
<path d="M362.055 36.1168C356.336 30.1499 347.938 26.9941 337.776 26.9941C333.465 26.9941 328.871 27.5805 324.494 28.699C315.673 30.9056 306.146 34.944 298.486 38.1844C296.835 38.8857 295.276 39.5447 293.807 40.1553C290.421 41.5518 287.417 45.0461 288.341 49.683C289.127 53.6308 292.495 56.3876 296.539 56.3876C297.984 56.3876 299.471 56.0429 300.959 55.3658L300.971 55.3598L300.983 55.3538C304.163 53.8606 307.179 52.3612 310.099 50.9163C311.568 50.1848 313.019 49.4654 314.476 48.7581C318.527 46.7812 322.952 44.7378 327.873 43.2264C331.204 42.2289 334.626 41.6969 337.74 41.6969C344.777 41.6969 348.585 44.3569 350.538 46.5877C354.31 50.9345 352.751 57.0888 346.457 62.6447C340.224 68.1764 331.446 71.6344 319.615 73.2304C314.041 73.9982 311.405 78.3329 311.671 82.2262C311.913 85.7931 314.73 89.6381 320.341 89.6381C321.018 89.6381 321.719 89.5776 322.438 89.4627C336.621 87.0687 347.751 82.3955 356.481 75.171C364.068 68.8837 368.487 61.2059 368.929 53.5522C369.285 47.2225 366.909 41.1951 362.055 36.1168Z" fill="black"/>
<path d="M56.5251 37.3137C56.2289 36.5338 55.7754 35.8024 55.183 35.1555C53.6535 33.493 51.3017 32.5015 48.8896 32.4954C50.0685 32.1327 51.2231 31.7639 52.3295 31.4012C55.6183 30.319 59.1972 27.4293 58.4597 22.8528C57.8853 19.2617 54.6752 16.5473 50.9934 16.5473C50.0201 16.5473 49.0468 16.7287 48.0916 17.0914C45.0688 18.2159 42.3846 19.0864 39.8938 19.7454C40.051 18.8869 40.2021 18.0164 40.3412 17.1337C40.7281 14.9573 40.2142 12.8776 38.8842 11.2816C37.4937 9.61907 35.2992 8.62158 33.0019 8.62158C29.562 8.62158 25.7472 10.9007 24.9915 15.985L24.9855 16.0092V16.0334C24.7799 17.575 24.5442 19.1529 24.3084 20.6764C24.2358 21.1721 24.1573 21.68 24.0787 22.1878C23.8006 22.1938 23.5225 22.212 23.2444 22.212C20.9531 22.212 18.8614 21.9278 17.1928 21.3958C16.2436 21.0996 15.3247 20.9485 14.436 20.9485C10.7241 20.9485 7.76174 23.5601 7.22973 27.2963C6.68563 31.1473 8.94062 34.5993 12.7191 35.6875C15.5061 36.5036 18.68 36.9268 22.1441 36.9268C22.1804 36.9268 22.2106 36.9268 22.2469 36.9268C22.0111 39.1032 21.7874 41.2675 21.606 43.3956C20.6387 43.9336 19.7138 44.4777 18.8372 45.0158L18.819 45.0278L18.8009 45.0399C8.60207 51.5389 0.912137 63.0314 0.0959887 72.9764C-0.351382 78.4234 0.767046 82.6371 3.40895 85.5088C5.49466 87.7698 8.46907 89.0152 11.7941 89.0152C14.1096 89.0152 16.4673 88.4288 18.6195 87.3164C21.3642 85.9018 24.1754 84.2211 27.0047 82.2986C28.4738 83.8402 30.3298 84.6866 32.3429 84.6866C35.0997 84.6866 37.7174 83.0966 39.1623 80.5333C40.6011 77.9821 40.5709 74.9352 39.0958 72.3416C45.764 65.7641 50.806 58.6242 53.8409 51.4482C58.2299 53.3102 60.8597 56.8468 61.0169 61.2601C61.2225 67.1364 56.785 75.5276 43.5755 79.826C38.1225 81.6215 36.2242 85.7566 36.7562 89.0635C37.3244 92.6123 40.4379 95.0003 44.5066 95.0003C45.8184 95.0003 47.215 94.7584 48.6598 94.2748C69.2872 87.5038 77.6664 72.0272 76.8139 59.7004C76.0522 48.6189 68.3502 40.1914 56.5251 37.3137ZM37.6388 51.1762C36.9436 52.4518 36.1697 53.7153 35.3113 54.9486C35.3234 53.945 35.3536 52.9173 35.408 51.8714C36.1577 51.6235 36.9013 51.3878 37.6388 51.1762ZM14.6355 72.8736C14.6355 72.8132 14.6416 72.7406 14.6476 72.668C14.9015 68.9621 17.2593 64.694 21.068 60.7886C21.1889 63.5514 21.4247 66.0784 21.7814 68.406C19.7259 69.869 17.4951 71.2836 15.0103 72.6983C14.8713 72.7708 14.7443 72.8313 14.6355 72.8736ZM42.4027 36.3223C40.6737 36.4734 38.8842 36.7696 37.0463 37.1989C37.131 36.6185 37.2156 36.026 37.3063 35.4275C39.7729 34.9862 42.2395 34.3937 44.6335 33.7408C43.6844 34.3816 42.9166 35.2582 42.4027 36.3223Z" fill="black"/>
<path d="M160.279 32.6826C158.562 31.3949 156.664 30.7178 154.79 30.7178C151.507 30.7178 148.544 32.87 147.589 35.9411C146.682 38.8551 147.752 41.7872 150.376 43.5948C154.681 46.545 158.405 53.1649 159.862 60.4619C160.666 64.4398 163.695 67.0031 167.57 67.0031C169.976 67.0031 172.279 65.9754 173.887 64.1859C175.532 62.3481 176.281 59.8754 175.991 57.2215C174.849 47.5607 167.044 37.7366 160.279 32.6826Z" fill="black"/>
<path d="M129.658 56.8466C126.75 56.8466 124.235 58.5152 122.935 61.3022L122.923 61.3324L122.911 61.3626C122.306 62.7471 121.067 65.0504 120.033 66.5134C119.852 66.7613 119.695 66.9487 119.574 67.0877C119.368 66.9245 119.078 66.6706 118.679 66.2898C114.653 62.4085 112.392 54.7065 111.962 43.3953C111.872 41.2431 111.92 40.1609 111.962 39.1211C112.011 38.051 112.059 36.9386 111.962 34.9557C111.769 30.3309 108.637 27.1025 104.339 27.1025C100.391 27.1025 96.2137 30.0951 96.0565 35.0947C95.9719 38.178 96.1049 40.04 96.377 43.752C96.4314 44.4653 96.4858 45.2513 96.5462 46.1399C97.4531 60.4498 101.401 71.4889 108.269 78.931C111.442 82.3286 115.408 84.1967 119.441 84.1967C124.749 84.1967 129.664 80.9562 133.279 75.0799C135.165 71.9907 136.525 69.2944 137.323 67.0636C138.146 64.8147 137.819 62.3783 136.429 60.3832C134.899 58.2069 132.306 56.8466 129.658 56.8466Z" fill="black"/>
<path d="M252.226 47.1012C251.186 45.4628 250.092 43.7882 248.937 42.0169C248.52 41.3761 248.091 40.7232 247.667 40.0702C249.433 39.3146 251.095 38.5105 252.492 37.8092C256.046 36.0016 257.824 32.3017 256.929 28.5897C256.089 25.0712 253.06 22.7014 249.402 22.7014C247.806 22.7014 246.144 23.1367 244.451 23.9891C243.798 24.3155 243.254 24.6541 242.764 24.9503C242.196 25.301 241.743 25.5791 241.241 25.7604C240.63 25.966 240.044 26.1715 239.476 26.3771C237.91 23.5296 236.392 20.5794 235.969 18.9531L235.963 18.929L235.957 18.9048C234.881 15.0236 231.659 12.5146 227.753 12.5146C225.039 12.5146 222.609 13.7842 221.242 15.9001C220.402 17.212 219.259 20.0172 221.097 24.0496C221.925 25.9055 223.128 28.0517 224.67 30.615C223.334 30.8266 222.101 30.9293 220.928 30.9293C217.893 30.9293 215.076 30.222 212.047 28.7106L212.035 28.7046L212.017 28.6985C210.56 27.9912 209.115 27.6346 207.73 27.6346C204.339 27.6346 201.516 29.8593 200.712 33.1662C199.956 36.2918 201.092 40.4209 205.342 42.6154C209.786 44.9369 214.804 46.0674 220.674 46.0674C224.537 46.0674 228.69 45.5777 233.358 44.5802C233.714 45.1364 234.071 45.6926 234.422 46.2367C235.951 48.6186 237.396 50.8736 238.557 52.8626C239.071 53.7271 239.476 54.5311 239.79 55.2203C237.172 55.0511 234.095 54.8818 230.782 54.8818C225.637 54.8818 221.127 55.2868 216.98 56.1151C208.728 57.7655 203.057 62.8861 201.818 69.8082C200.621 76.5127 204.019 83.4107 210.475 87.3827C216.799 91.2639 224.712 93.1622 236.145 93.537C236.302 93.543 236.453 93.543 236.604 93.543C240.201 93.543 242.474 92.201 243.744 91.0765C245.491 89.5288 246.494 87.3645 246.494 85.1337C246.494 83.0117 245.618 81.0529 244.022 79.6322C242.396 78.1813 240.171 77.4196 237.577 77.4196C237.384 77.4196 237.184 77.4256 236.985 77.4317C235.999 77.48 235.026 77.5042 234.083 77.5042C227.608 77.5042 222.113 76.3858 218.612 74.3545C217.573 73.7499 216.962 73.0366 217.022 72.4985C217.089 71.9424 217.911 70.8904 219.906 70.2798C221.962 69.6571 225.196 69.3125 229.005 69.3125C233.545 69.3125 238.381 69.7961 242.281 70.6304C243.454 70.8843 244.366 71.2531 245.164 71.8033C247.347 73.3147 249.693 74.1127 251.948 74.1127C254.299 74.1127 256.391 73.218 257.842 71.5978C259.003 70.298 260.296 67.916 259.849 63.9501C259.202 57.7837 252.649 47.7481 252.226 47.1012Z" fill="black"/>
<path d="M327.994 80.4243C318.999 81.8752 318.321 71.235 326.06 70.171C338.248 68.5266 347.63 64.9477 354.498 58.8538C362.72 51.5991 363.3 43.6674 358.851 38.5408C352.66 31.4796 341.73 31.673 333.024 34.2847C327.994 35.8324 323.545 37.8637 319.192 39.9917C314.839 42.1197 310.486 44.3445 305.747 46.5693C297.912 50.1482 293.752 39.895 301.007 36.8964C309.422 33.4142 320.836 28.1908 331.283 25.5791C342.31 22.774 357.013 22.8707 365.912 32.1567C376.359 43.087 372.489 56.9192 360.592 66.7855C352.757 73.2663 342.31 78.0061 327.994 80.4243Z" stroke="black" stroke-width="10"/>
<path d="M343.821 23.9708C351.904 23.9708 360.132 26.123 365.912 32.1564C376.359 43.0868 372.489 56.9189 360.592 66.7853C352.757 73.2661 342.31 78.0058 327.994 80.4241C327.42 80.5147 326.882 80.557 326.38 80.557C318.95 80.557 318.817 71.1622 326.06 70.1708C338.247 68.5264 347.63 64.9474 354.498 58.8535C362.72 51.5989 363.3 43.6671 358.851 38.5405C355.066 34.224 349.51 32.6219 343.779 32.6219C340.128 32.6219 336.41 33.2688 333.024 34.2845C327.994 35.8321 323.545 37.8634 319.192 39.9915C314.839 42.1195 310.486 44.3442 305.747 46.569C304.61 47.0889 303.546 47.3187 302.585 47.3187C296.944 47.3187 294.81 39.4595 301.007 36.8961C309.422 33.4139 320.836 28.1905 331.283 25.5789C335.146 24.5934 339.463 23.9708 343.821 23.9708ZM343.821 23.3662C339.71 23.3662 335.321 23.9284 331.132 24.9925C322.481 27.1568 313.05 31.1529 305.475 34.3631C303.818 35.0643 302.252 35.7293 300.777 36.3399C297.114 37.8574 296.322 40.9648 296.757 43.1654C297.313 45.9705 299.707 47.9232 302.585 47.9232C303.685 47.9232 304.834 47.6511 306.001 47.1191C309.162 45.6319 312.167 44.1447 315.075 42.6998C316.55 41.9683 318.007 41.2429 319.464 40.5355C323.599 38.5103 328.127 36.4246 333.212 34.8648C336.784 33.7947 340.442 33.2265 343.791 33.2265C348.174 33.2265 354.268 34.2179 358.409 38.9395C363.089 44.3321 361.402 51.9676 354.111 58.4001C347.509 64.2582 338.314 67.9097 325.993 69.5723C322.892 70.0015 319.887 72.3472 320.135 76.0047C320.31 78.5741 322.311 81.1616 326.392 81.1616C326.936 81.1616 327.517 81.1132 328.103 81.0165C341.839 78.695 352.594 74.1911 360.991 67.2447C368.052 61.3927 372.163 54.3254 372.562 47.3489C372.888 41.7144 370.742 36.3157 366.359 31.7272C359.715 24.8171 350.435 23.3662 343.821 23.3662Z" stroke="black" stroke-width="10"/>
<path d="M40.6979 26.7397C40.2143 29.835 39.8274 32.6402 39.4405 35.3486C42.826 34.1878 46.3082 33.414 49.597 33.2206C49.9839 33.2206 50.3708 33.2206 50.7577 33.2206V33.0271C51.4348 27.3201 60.3339 29.1579 59.9469 33.8009C88.1917 38.9275 86.7408 74.5237 53.7563 85.3573C45.0507 88.2591 42.6325 79.2634 50.5643 76.6518C74.6497 68.8167 75.617 45.9887 58.1091 41.6359C54.9171 50.7284 48.6297 58.9504 41.375 65.7214C41.6652 66.3985 42.0521 67.0756 42.4391 67.656C45.8246 73.2663 37.7961 79.4568 34.1204 72.5891L33.8302 72.0088C30.2512 74.6204 26.6723 76.8452 23.2868 78.5863C17.2896 81.6816 8.10037 80.134 9.16438 67.1723C9.93821 57.6929 17.6765 47.1495 26.4788 41.5392C27.7363 40.7654 29.0905 39.9916 30.5414 39.2177C30.8316 35.542 31.2185 31.6729 31.7022 27.707L40.6979 26.7397ZM32.7662 19.0014C33.1531 16.1963 33.6367 13.2944 34.0237 10.3926C35.0877 3.23466 44.4704 4.78232 43.4063 10.586C43.0194 13.0043 42.5358 15.4225 42.1489 17.6472L32.7662 19.0014ZM30.0578 48.2135C22.4162 53.8238 18.0634 60.6915 17.6765 66.3985C17.3863 70.2676 19.998 70.6546 22.5129 69.3004C25.4148 67.656 28.3167 65.8181 31.1218 63.6901C30.2512 59.1438 29.9611 53.9205 30.0578 48.2135ZM48.533 41.0556C45.7278 41.3457 42.0521 42.313 38.5699 43.6672C38.183 48.6004 38.2797 52.9532 38.7634 56.8223C43.1162 52.2761 46.6951 46.956 48.8232 41.0556H48.533Z" stroke="black" stroke-width="10"/>
<path d="M39.0415 5.60455C41.5686 5.60455 43.9747 7.49076 43.4064 10.5861C43.0195 13.0043 42.5359 15.4225 42.1489 17.6473L32.7663 19.0015C33.1532 16.1963 33.6368 13.2945 34.0237 10.3926C34.5195 7.04943 36.8289 5.60455 39.0415 5.60455ZM40.698 26.7398C40.2144 29.8351 39.8275 32.6402 39.4405 35.3486C42.8261 34.1879 46.3083 33.4141 49.5971 33.2206C49.984 33.2206 50.3709 33.2206 50.7578 33.2206V33.0271C51.054 30.5243 52.9342 29.4723 54.9171 29.4723C57.4563 29.4723 60.1647 31.1953 59.947 33.8009C88.1918 38.9276 86.7409 74.5237 53.7564 85.3573C52.5715 85.7503 51.5014 85.9256 50.5583 85.9256C44.5793 85.9256 43.7087 78.9068 50.5643 76.6518C74.6498 68.8168 75.6171 45.9888 58.1092 41.636C54.9171 50.7285 48.6298 58.9504 41.3751 65.7214C41.6653 66.3985 42.0522 67.0757 42.4391 67.656C44.7606 71.501 41.7197 75.618 38.3947 75.618C36.8651 75.618 35.2812 74.7474 34.1205 72.5891L33.8303 72.0088C30.2513 74.6205 26.6724 76.8452 23.2869 78.5863C21.6243 79.4448 19.7139 79.9466 17.8459 79.9466C12.9792 79.9466 8.39063 76.5429 9.16446 67.1723C9.93829 57.6929 17.6766 47.1495 26.4789 41.5393C27.7364 40.7654 29.0906 39.9916 30.5415 39.2178C30.8317 35.5421 31.2186 31.6729 31.7022 27.7071L40.698 26.7398ZM48.8232 41.0556H48.533C45.7279 41.3458 42.0522 42.3131 38.57 43.6673C38.1831 48.6004 38.2798 52.9532 38.7634 56.8224C43.1162 52.2761 46.6952 46.956 48.8232 41.0556ZM30.0579 48.2135C22.4163 53.8238 18.0635 60.6915 17.6766 66.3985C17.4831 68.9799 18.5774 70.0077 20.0767 70.0077C20.8263 70.0077 21.6727 69.7478 22.513 69.3004C25.4149 67.656 28.3167 65.8181 31.1219 63.6901C30.2513 59.1439 29.9611 53.9205 30.0579 48.2135ZM39.0415 5C36.8107 5 34.0056 6.39045 33.4252 10.3019C33.2136 11.8738 32.9779 13.4637 32.7421 14.9933C32.5486 16.287 32.3431 17.6231 32.1678 18.9168L32.0589 19.7148L32.8569 19.6L42.2396 18.2458L42.6749 18.1853L42.7475 17.7561C42.8986 16.8976 43.0618 16.0089 43.2311 15.1021C43.4971 13.6632 43.7692 12.176 44.011 10.6888C44.3556 8.81472 43.6906 7.53912 43.08 6.80156C42.1369 5.67104 40.6315 5 39.0415 5ZM41.4174 26.0566L40.6315 26.1412L31.6357 27.1086L31.1582 27.1569L31.0977 27.6345C30.6382 31.419 30.2513 35.1854 29.9611 38.8429C28.613 39.5684 27.3374 40.2999 26.1585 41.0254C16.6972 47.0528 9.30351 58.0315 8.55991 67.124C8.173 71.8698 9.07378 75.4668 11.2441 77.8246C12.8885 79.608 15.1737 80.5511 17.8459 80.5511C19.7502 80.5511 21.7815 80.0433 23.5589 79.1244C26.8356 77.4377 30.2151 75.352 33.6066 72.9156C34.7673 75.0557 36.4661 76.2225 38.3886 76.2225C40.2506 76.2225 42.1006 75.0739 43.0981 73.2965C44.1561 71.4224 44.1017 69.252 42.953 67.3416C42.7051 66.9668 42.3847 66.4469 42.1006 65.8604C49.8933 58.5151 55.5459 50.4081 58.4901 42.3554C65.1704 44.1993 69.2632 48.939 69.4809 55.1236C69.7166 61.8402 64.856 71.3619 50.3709 76.0714C46.2841 77.4195 44.8211 80.3335 45.1899 82.6248C45.5707 84.9946 47.6746 86.5241 50.5523 86.5241C51.6042 86.5241 52.7468 86.3246 53.9378 85.9256C73.3379 79.5536 81.2273 65.2076 80.4414 53.8117C79.722 43.4013 72.1167 35.5784 60.5455 33.2931C60.4972 32.3561 60.1224 31.4795 59.4392 30.7359C58.3752 29.5751 56.6341 28.8557 54.905 28.8557C52.9161 28.8557 50.6853 29.8472 50.1956 32.6039H49.585H49.5668H49.5487C46.6045 32.7793 43.4548 33.3959 40.166 34.4539L40.2627 33.7889C40.5771 31.5762 40.9036 29.291 41.2844 26.8183L41.4174 26.0566ZM39.1443 44.0965C42.1852 42.9418 45.3894 42.0833 47.9224 41.7387C46.0423 46.5691 43.1223 51.1758 39.2169 55.45C38.8662 51.9497 38.842 48.141 39.1443 44.0965ZM20.0767 69.4032C19.5386 69.4032 19.1215 69.2399 18.8252 68.9256C18.3839 68.448 18.1965 67.5895 18.2811 66.4409C18.656 60.885 22.8032 54.5976 29.4412 49.4347C29.4049 54.8878 29.7374 59.4825 30.4629 63.4302C27.9963 65.2801 25.3 67.0273 22.2168 68.7684C21.449 69.1855 20.7054 69.4032 20.0767 69.4032Z" stroke="black" stroke-width="10"/>
<path d="M42.1492 17.6474C46.6289 16.8373 51.0482 15.4226 55.2076 13.875C60.8178 11.7469 65.0739 19.9689 57.4323 22.4838C52.1122 24.2249 46.3388 25.9539 40.6983 26.7399C38.4554 27.0542 33.9575 27.5137 31.7025 27.7072C27.0656 28.1001 22.9002 27.7071 19.6114 26.7399C13.9044 25.0955 15.839 16.1964 22.3198 18.2278C25.0282 19.0983 28.716 19.4368 32.7665 19.0016C35.1243 18.7477 39.8156 18.0706 42.1492 17.6474Z" stroke="black" stroke-width="10"/>
<path d="M57.0332 13.5245C61.6218 13.5245 64.2093 20.2471 57.4262 22.484C52.1061 24.2251 46.3326 25.9541 40.6921 26.74C38.4492 27.0544 33.9513 27.5139 31.6963 27.7073C30.4933 27.8101 29.3265 27.8585 28.196 27.8585C24.9616 27.8585 22.0416 27.4594 19.6053 26.74C14.4786 25.2649 15.5185 17.9256 20.4819 17.9256C21.0441 17.9256 21.6547 18.0163 22.3137 18.2279C24.2241 18.8446 26.6181 19.1891 29.2902 19.1891C30.4086 19.1891 31.5694 19.1287 32.7604 19.0017C35.1181 18.7478 39.8095 18.0707 42.143 17.6475C46.6228 16.8374 51.0421 15.4228 55.2014 13.8751C55.8362 13.6333 56.4529 13.5245 57.0332 13.5245ZM57.0393 12.9199C56.3622 12.9199 55.673 13.0529 54.9959 13.3068C49.9962 15.1689 45.8792 16.3538 42.0463 17.049C39.7248 17.4662 35.0093 18.1493 32.706 18.3972C31.5573 18.5181 30.4086 18.5846 29.2963 18.5846C26.7571 18.5846 24.4115 18.2642 22.5071 17.6475C21.8119 17.4299 21.1348 17.3211 20.494 17.3211C17.586 17.3211 15.984 19.4612 15.6817 21.5892C15.3673 23.814 16.4072 26.4438 19.442 27.3204C21.9812 28.0701 25.01 28.463 28.196 28.463C29.3567 28.463 30.5537 28.4086 31.7508 28.3119C33.9695 28.1245 38.4734 27.665 40.7767 27.3385C46.5623 26.5284 52.5353 24.7208 57.6136 23.0583C61.4223 21.8069 62.4319 19.2073 62.1115 17.1881C61.7246 14.7578 59.5421 12.9199 57.0393 12.9199Z" stroke="black" stroke-width="10"/>
<path d="M168.869 53.8238C167.322 46.0855 163.356 38.6374 158.133 35.0584C153.49 31.8664 158.713 24.7084 164.517 29.0612C171.384 34.1879 178.059 43.2803 179.026 51.5023C179.8 58.5635 170.224 60.4981 168.869 53.8238Z" stroke="black" stroke-width="10"/>
<path d="M160.829 27.6949C161.959 27.6949 163.223 28.0939 164.511 29.0612C171.378 34.1878 178.053 43.2803 179.02 51.5022C179.467 55.5709 176.475 57.9347 173.603 57.9347C171.487 57.9347 169.438 56.6531 168.863 53.8237C167.316 46.0854 163.35 38.6373 158.127 35.0584C154.517 32.5736 156.875 27.6949 160.829 27.6949ZM160.835 27.0903C158.598 27.0903 156.585 28.5413 155.944 30.6149C155.358 32.5071 156.047 34.3571 157.794 35.5601C162.661 38.8973 166.681 45.9403 168.283 53.9446C168.972 57.3362 171.487 58.5453 173.615 58.5453C175.314 58.5453 177.001 57.7896 178.131 56.5321C178.966 55.6011 179.909 53.9567 179.631 51.4418C178.579 42.5125 171.251 33.3354 164.879 28.5836C163.58 27.6042 162.183 27.0903 160.835 27.0903Z" stroke="black" stroke-width="10"/>
<path d="M116.533 70.8482C109.568 63.3034 106.376 52.0829 105.603 39.8951C105.216 34.3815 105.022 32.6404 105.119 29.1582C105.312 23.0643 114.695 21.8068 114.985 29.0615C115.179 32.8339 114.792 33.0273 114.985 37.4769C115.372 47.6334 117.21 57.2095 122.627 62.4329C125.142 64.8511 126.399 65.1412 128.527 62.2394C129.688 60.595 131.042 58.0801 131.719 56.5324C134.331 50.9222 142.359 54.9848 140.522 60.0147C139.554 62.7231 137.813 65.7216 136.749 67.4627C130.559 77.5225 121.95 76.652 116.533 70.8482Z" stroke="black" stroke-width="10"/>
<path d="M110.379 24.0919C112.658 24.0919 114.847 25.6154 114.986 29.0613C115.179 32.8337 114.792 33.0272 114.986 37.4767C115.373 47.6332 117.21 57.2094 122.627 62.4327C123.897 63.6539 124.846 64.331 125.747 64.331C126.635 64.331 127.476 63.6781 128.528 62.2392C129.688 60.5948 131.043 58.0799 131.72 56.5323C132.614 54.6098 134.15 53.8239 135.704 53.8239C138.678 53.8239 141.731 56.7136 140.522 60.0145C139.555 62.7229 137.814 65.7215 136.75 67.4626C133.406 72.8975 129.356 75.1405 125.481 75.1405C122.186 75.1405 119.024 73.5142 116.533 70.8481C109.569 63.3032 106.377 52.0827 105.603 39.8949C105.216 34.3814 105.023 32.6403 105.119 29.158C105.222 25.9599 107.858 24.0919 110.379 24.0919ZM110.379 23.4873C107.586 23.4873 104.624 25.6033 104.515 29.1399C104.43 32.0962 104.557 33.801 104.829 37.5432C104.884 38.2566 104.938 39.0485 104.998 39.9372C105.869 53.6969 109.605 64.2343 116.086 71.2592C118.788 74.155 122.125 75.745 125.481 75.745C128.618 75.745 133.207 74.3606 137.263 67.777C139.059 64.8328 140.347 62.2936 141.09 60.214C141.652 58.6784 141.441 57.0884 140.492 55.7342C139.422 54.2047 137.542 53.2133 135.698 53.2133C133.727 53.2133 132.07 54.3256 131.17 56.2723C130.517 57.7716 129.199 60.2382 128.032 61.8886C127.101 63.1582 126.394 63.7265 125.747 63.7265C125.106 63.7265 124.326 63.2247 123.044 61.9975C118.486 57.6023 116.05 49.5738 115.59 37.4525C115.493 35.2036 115.542 34.0731 115.59 32.9728C115.639 31.9087 115.681 30.9052 115.584 29.025C115.427 24.9383 112.682 23.4873 110.379 23.4873Z" stroke="black" stroke-width="10"/>
<path d="M249.154 32.5435C251.379 36.0257 253.7 39.5079 255.732 42.7C257.473 45.3117 262.406 53.6303 262.89 58.2733C263.664 65.141 257.957 66.7854 252.927 63.3032C251.669 62.4326 250.315 61.949 248.961 61.6588C241.319 60.0144 230.486 59.7242 225.069 61.3686C219.652 63.013 218.008 67.9461 223.134 70.9447C227.971 73.7499 235.419 74.8139 243.157 74.427C252.056 74.0401 251.476 84.777 242.286 84.4868C233.387 84.1966 224.875 82.9391 218.104 78.7798C206.787 71.8153 208.141 56.1453 223.618 53.0499C232.807 51.2121 242.19 51.9859 248.187 52.3728C249.638 52.4696 250.025 51.9859 249.638 50.7284C249.444 50.0513 248.767 47.9233 247.22 45.3117C245.479 42.3131 243.157 38.8308 240.836 35.1551L249.154 32.5435ZM235.515 26.643C233.194 22.8706 231.066 19.3884 229.905 16.7767C226.326 8.94166 237.16 6.7169 239.094 13.6814C239.675 15.9061 241.609 19.5818 244.124 24.0313L235.515 26.643Z" stroke="black" stroke-width="10"/>
<path d="M233.805 9.50397C235.993 9.50397 238.302 10.8159 239.094 13.6815C239.675 15.9062 241.609 19.5819 244.124 24.0314L235.515 26.6431C233.194 22.8707 231.066 19.3884 229.905 16.7768C227.801 12.1701 230.679 9.50397 233.805 9.50397ZM249.154 32.5436C251.379 36.0258 253.7 39.508 255.732 42.7001C257.473 45.3117 262.406 53.6304 262.89 58.2734C263.404 62.8136 261.076 65.0746 257.993 65.0746C256.415 65.0746 254.632 64.4821 252.927 63.3032C251.669 62.4327 250.315 61.9491 248.961 61.6589C244.807 60.7641 239.705 60.2684 235.05 60.2684C231.139 60.2684 227.541 60.613 225.069 61.3687C219.652 63.0131 218.008 67.9462 223.134 70.9448C227.336 73.3812 233.502 74.5057 240.122 74.5057C241.126 74.5057 242.135 74.4815 243.157 74.4271C243.314 74.421 243.471 74.415 243.623 74.415C251.923 74.415 251.331 84.4929 242.649 84.4929C242.528 84.4929 242.407 84.4929 242.286 84.4869C233.387 84.1967 224.875 82.9392 218.104 78.7799C206.787 71.8154 208.141 56.1453 223.618 53.05C228.116 52.1492 232.656 51.8772 236.827 51.8772C241.18 51.8772 245.122 52.1734 248.187 52.3729C248.308 52.379 248.417 52.385 248.526 52.385C249.698 52.385 249.995 51.8832 249.638 50.7285C249.444 50.0514 248.767 47.9234 247.22 45.3117C245.479 42.3132 243.157 38.8309 240.836 35.1552L249.154 32.5436ZM233.805 8.89941C231.918 8.89941 230.244 9.75185 229.331 11.1786C228.333 12.7323 228.345 14.812 229.361 17.0307C230.486 19.5638 232.414 22.7437 235.008 26.9635L235.249 27.3625L235.697 27.2295L244.306 24.6178L245.025 24.4002L244.656 23.7413C242.432 19.7996 240.285 15.8337 239.687 13.5364C238.732 10.1085 235.921 8.89941 233.805 8.89941ZM249.414 31.8302L248.973 31.9692L240.654 34.5809L239.905 34.8167L240.322 35.4817C241.053 36.6424 241.791 37.7851 242.504 38.8974C244.052 41.3036 245.509 43.5767 246.694 45.6201C248.217 48.1955 248.888 50.3114 249.051 50.8978C249.245 51.5205 249.142 51.6656 249.142 51.6656C249.142 51.6656 249.045 51.7865 248.519 51.7865C248.429 51.7865 248.326 51.7805 248.223 51.7744L247.129 51.7019C244.263 51.5145 240.697 51.2787 236.827 51.2787C231.846 51.2787 227.487 51.6656 223.497 52.4636C216.254 53.9146 211.297 58.3036 210.245 64.2101C209.223 69.9292 212.18 75.8538 217.79 79.2998C223.733 82.9513 231.284 84.7408 242.268 85.0975C242.395 85.1035 242.522 85.1035 242.649 85.1035C247.552 85.1035 250.122 82.0928 250.122 79.1124C250.122 77.6856 249.529 76.3737 248.459 75.4185C247.286 74.3727 245.612 73.8165 243.623 73.8165C243.465 73.8165 243.296 73.8225 243.133 73.8286C242.123 73.8769 241.108 73.9072 240.122 73.9072C233.23 73.9072 227.306 72.6739 223.436 70.431C221.46 69.2763 220.474 67.777 220.662 66.2051C220.879 64.3794 222.632 62.7531 225.244 61.9612C227.523 61.272 230.999 60.8911 235.05 60.8911C239.753 60.8911 244.777 61.3929 248.834 62.2634C250.303 62.5778 251.53 63.0857 252.582 63.8111C254.329 65.0202 256.252 65.6913 257.987 65.6913C259.661 65.6913 261.076 65.0988 262.08 63.9803C263.277 62.6443 263.76 60.6493 263.488 58.219C262.986 53.4249 257.957 44.9611 256.234 42.3796C255.2 40.7594 254.106 39.0848 252.951 37.3075C251.869 35.651 250.75 33.934 249.662 32.2292L249.414 31.8302Z" stroke="black" stroke-width="10"/>
<path d="M244.125 24.0313C245.491 23.5779 246.833 23.064 248.284 22.5804C249.638 22.0967 250.509 21.3229 251.863 20.6458C259.698 16.6799 263.083 26.0626 257.183 29.0612C254.668 30.3187 251.881 31.6306 249.155 32.5434C247.087 33.2387 242.922 34.5324 240.836 35.1551C240.159 35.3546 239.578 35.4453 238.998 35.542C227.874 37.9602 219.459 37.3799 212.785 33.8976C206.787 30.8023 209.786 22 216.75 25.3855C222.941 28.4808 228.328 28.5473 235.516 26.643C237.692 26.0687 241.991 24.7386 244.125 24.0313Z" stroke="black" stroke-width="10"/>
<path d="M255.447 19.6846C260.58 19.6846 262.079 26.5705 257.183 29.0613C254.668 30.3187 251.881 31.6306 249.154 32.5435C247.087 33.2388 242.921 34.5325 240.835 35.1552C240.158 35.3547 239.578 35.4454 238.998 35.5421C234.482 36.5215 230.413 37.0111 226.725 37.0111C221.326 37.0111 216.75 35.9653 212.784 33.8977C207.73 31.286 209.066 24.6238 213.782 24.6238C214.658 24.6238 215.656 24.8536 216.75 25.3856C220.262 27.1388 223.515 27.9247 226.979 27.9247C229.627 27.9247 232.402 27.4713 235.515 26.6431C237.692 26.0687 241.99 24.7387 244.124 24.0314C245.49 23.578 246.833 23.0641 248.284 22.5804C249.638 22.0968 250.508 21.323 251.862 20.6459C253.193 19.9748 254.396 19.6846 255.447 19.6846ZM255.447 19.0801C254.232 19.0801 252.939 19.4247 251.59 20.1078C251.022 20.392 250.545 20.6882 250.085 20.9723C249.438 21.3713 248.834 21.7461 248.084 22.0122C247.377 22.2479 246.681 22.4958 246.004 22.7376C245.297 22.9915 244.626 23.2334 243.937 23.457C241.815 24.1583 237.529 25.4823 235.364 26.0566C232.118 26.9151 229.458 27.3141 226.985 27.3141C223.563 27.3141 220.395 26.5282 217.022 24.8415C215.892 24.2914 214.803 24.0132 213.782 24.0132C211.49 24.0132 209.659 25.4581 209.114 27.701C208.576 29.9016 209.423 32.8397 212.506 34.4297C216.605 36.5698 221.26 37.6097 226.725 37.6097C230.479 37.6097 234.536 37.126 239.125 36.1285L239.245 36.1104C239.79 36.0197 240.358 35.929 241.011 35.7295C243.103 35.1008 247.286 33.807 249.348 33.1118C252.249 32.1385 255.206 30.7238 257.455 29.5993C260.369 28.1182 261.142 25.2707 260.622 23.1064C260.036 20.6579 258.005 19.0801 255.447 19.0801Z" stroke="black" stroke-width="10"/>
<path d="M327.994 80.4243C318.999 81.8752 318.321 71.235 326.06 70.171C338.248 68.5266 347.63 64.9477 354.498 58.8538C362.72 51.5991 363.3 43.6674 358.851 38.5408C352.66 31.4796 341.73 31.673 333.024 34.2847C327.994 35.8324 323.545 37.8637 319.192 39.9917C314.839 42.1197 310.486 44.3445 305.747 46.5693C297.912 50.1482 293.752 39.895 301.007 36.8964C309.422 33.4142 320.836 28.1908 331.283 25.5791C342.31 22.774 357.013 22.8707 365.912 32.1567C376.359 43.087 372.489 56.9192 360.592 66.7855C352.757 73.2663 342.31 78.0061 327.994 80.4243Z" fill="#FFF100"/>
<path d="M40.6979 26.7397C40.2143 29.835 39.8274 32.6402 39.4405 35.3486C42.826 34.1878 46.3082 33.414 49.597 33.2206C49.9839 33.2206 50.3708 33.2206 50.7577 33.2206V33.0271C51.4348 27.3201 60.3339 29.1579 59.9469 33.8009C88.1917 38.9275 86.7408 74.5237 53.7563 85.3573C45.0507 88.2591 42.6325 79.2634 50.5643 76.6518C74.6497 68.8167 75.617 45.9887 58.1091 41.6359C54.9171 50.7284 48.6297 58.9504 41.375 65.7214C41.6652 66.3985 42.0521 67.0756 42.4391 67.656C45.8246 73.2663 37.7961 79.4568 34.1204 72.5891L33.8302 72.0088C30.2512 74.6204 26.6723 76.8452 23.2868 78.5863C17.2896 81.6816 8.10037 80.134 9.16438 67.1723C9.93821 57.6929 17.6765 47.1495 26.4788 41.5392C27.7363 40.7654 29.0905 39.9916 30.5414 39.2177C30.8316 35.542 31.2185 31.6729 31.7022 27.707L40.6979 26.7397ZM32.7662 19.0014C33.1531 16.1963 33.6367 13.2944 34.0237 10.3926C35.0877 3.23466 44.4704 4.78232 43.4063 10.586C43.0194 13.0043 42.5358 15.4225 42.1489 17.6472L32.7662 19.0014ZM30.0578 48.2135C22.4162 53.8238 18.0634 60.6915 17.6765 66.3985C17.3863 70.2676 19.998 70.6546 22.5129 69.3004C25.4148 67.656 28.3167 65.8181 31.1218 63.6901C30.2512 59.1438 29.9611 53.9205 30.0578 48.2135ZM48.533 41.0556C45.7278 41.3457 42.0521 42.313 38.5699 43.6672C38.183 48.6004 38.2797 52.9532 38.7634 56.8223C43.1162 52.2761 46.6951 46.956 48.8232 41.0556H48.533Z" fill="#FFF100"/>
<path d="M42.1487 17.6474C46.6284 16.8373 51.0477 15.4226 55.2071 13.875C60.8173 11.7469 65.0734 19.9689 57.4318 22.4838C52.1118 24.2249 46.3383 25.9539 40.6978 26.7399C38.4549 27.0542 33.957 27.5137 31.702 27.7072C27.0651 28.1001 22.8997 27.7071 19.6109 26.7399C13.9039 25.0955 15.8385 16.1964 22.3193 18.2278C25.0277 19.0983 28.7155 19.4368 32.766 19.0016C35.1238 18.7477 39.8151 18.0706 42.1487 17.6474Z" fill="#00A0E9"/>
<path d="M168.869 53.8238C167.322 46.0855 163.356 38.6374 158.133 35.0584C153.49 31.8664 158.713 24.7084 164.517 29.0612C171.384 34.1879 178.059 43.2803 179.026 51.5023C179.8 58.5635 170.224 60.4981 168.869 53.8238Z" fill="#FFF100"/>
<path d="M116.533 70.8477C109.568 63.3029 106.376 52.0824 105.603 39.8946C105.216 34.3811 105.022 32.6399 105.119 29.1577C105.312 23.0638 114.695 21.8063 114.985 29.061C115.179 32.8334 114.792 33.0269 114.985 37.4764C115.372 47.6329 117.21 57.209 122.627 62.4324C125.142 64.8506 126.399 65.1408 128.527 62.2389C129.688 60.5945 131.042 58.0796 131.719 56.5319C134.331 50.9217 142.359 54.9843 140.522 60.0142C139.554 62.7226 137.813 65.7211 136.749 67.4623C130.559 77.522 121.95 76.6515 116.533 70.8477Z" fill="#00A0E9"/>
<path d="M249.155 32.5435C251.379 36.0257 253.701 39.5079 255.732 42.7C257.473 45.3116 262.407 53.6303 262.89 58.2733C263.664 65.141 257.957 66.7854 252.927 63.3032C251.67 62.4326 250.315 61.949 248.961 61.6588C241.32 60.0144 230.486 59.7242 225.069 61.3686C219.652 63.013 218.008 67.9461 223.135 70.9447C227.971 73.7499 235.419 74.8139 243.158 74.427C252.057 74.0401 251.476 84.777 242.287 84.4868C233.388 84.1966 224.876 82.9391 218.105 78.7798C206.788 71.8153 208.142 56.1453 223.618 53.0499C232.808 51.2121 242.19 51.9859 248.187 52.3728C249.638 52.4696 250.025 51.9859 249.638 50.7284C249.445 50.0513 248.768 47.9233 247.22 45.3117C245.479 42.3131 243.158 38.8308 240.836 35.1551L249.155 32.5435ZM235.516 26.643C233.194 22.8706 231.066 19.3884 229.906 16.7767C226.327 8.94166 237.16 6.7169 239.095 13.6814C239.675 15.9061 241.61 19.5818 244.125 24.0313L235.516 26.643Z" fill="#FFF100"/>
<path d="M244.125 24.0313C245.491 23.5779 246.833 23.064 248.284 22.5804C249.638 22.0967 250.509 21.3229 251.863 20.6458C259.698 16.6799 263.083 26.0626 257.183 29.0612C254.668 30.3187 251.881 31.6306 249.155 32.5434C247.087 33.2387 242.922 34.5324 240.836 35.1551C240.159 35.3546 239.578 35.4453 238.998 35.542C227.874 37.9602 219.459 37.3799 212.785 33.8976C206.787 30.8023 209.786 22 216.75 25.3855C222.941 28.4808 228.328 28.5473 235.516 26.643C237.692 26.0687 241.991 24.7386 244.125 24.0313Z" fill="#00A0E9"/>
</svg>
