<svg width="652" height="753" viewBox="0 0 652 753" fill="none" xmlns="http://www.w3.org/2000/svg">
<path d="M453.417 17.8413C453.271 24.2667 452.785 30.7627 451.957 37.309C457.403 42.321 462.538 47.6267 467.338 53.1938C460.109 53.2573 453.149 53.5217 446.461 53.9468C443.288 59.7829 439.98 65.6162 436.54 71.4464C434.554 65.1014 432.078 58.9027 429.126 52.9071C422.838 51.7272 416.703 50.7418 410.725 49.9181C414.484 45.4714 418.362 41.0186 422.359 36.5617C420.266 30.3572 417.701 24.3343 414.685 18.5422C421.64 20.92 428.537 23.5992 435.359 26.5803C441.115 23.6169 447.134 20.697 453.417 17.8413Z" fill="black"/>
<path d="M92.2597 360.359C92.2597 464.277 205.636 560.418 354.309 560.418C502.981 560.418 631.541 484.109 631.541 380.187C631.541 276.264 553.754 169.11 405.077 169.11C256.399 169.11 92.2597 256.436 92.2597 360.359Z" fill="white" stroke="black" stroke-width="10" stroke-miterlimit="10"/>
<path d="M73.0705 325.786C69.1176 337.027 67.0132 348.585 67.0132 360.357C67.0132 386.337 74.0995 411.832 87.0522 435.455" stroke="black" stroke-width="10" stroke-miterlimit="10" stroke-linecap="round"/>
<path d="M44.0586 331.556C41.307 340.971 39.859 350.592 39.859 360.357C39.859 382.127 44.8362 403.557 54.0688 423.832" stroke="black" stroke-width="10" stroke-miterlimit="10" stroke-linecap="round"/>
<path d="M168.525 503.675C163.893 528.628 186.973 556.746 222.867 563.34C258.762 569.935 293.197 557.314 297.836 532.36C302.475 507.407 288.471 478.226 252.577 471.625C216.682 465.03 173.164 478.714 168.525 503.668V503.675Z" fill="white" stroke="black" stroke-width="10" stroke-miterlimit="10" stroke-linejoin="round"/>
<path d="M109.882 546.318C101.04 560.626 108.073 583.761 128.023 596.747C147.973 609.732 171.711 610.449 180.553 596.141C189.395 581.833 188.075 560.283 168.125 547.306C148.175 534.32 118.723 532.018 109.882 546.326V546.318Z" fill="white" stroke="black" stroke-width="10" stroke-miterlimit="10" stroke-linejoin="round"/>
<path d="M32.235 548.395C25.9039 558.1 30.9397 573.782 45.2373 582.591C59.5349 591.399 76.5366 591.887 82.8677 582.182C89.1988 572.477 88.2597 557.864 73.9621 549.071C59.6644 540.279 38.5661 538.706 32.235 548.411V548.395Z" fill="white" stroke="black" stroke-width="10" stroke-miterlimit="10" stroke-linejoin="round"/>
<path d="M579.916 210.889C542.203 176.328 488.837 153.687 420.497 153.687" stroke="black" stroke-width="10" stroke-miterlimit="10" stroke-linecap="round"/>
<path d="M570.608 179.177C533.608 149.179 483.398 129.999 420.497 129.999C413.313 129.999 406.092 130.203 398.856 130.604" stroke="black" stroke-width="10" stroke-miterlimit="10" stroke-linecap="round"/>
<path d="M513.642 437.594L614.497 675.227L652.619 655.141L513.642 437.594Z" fill="black"/>
<path d="M117.771 240.769L66.2419 149.799L26.8007 189.24L117.771 240.769Z" fill="black"/>
<path d="M177.233 207.172L201.132 136.354L161.318 134.144L177.233 207.172Z" fill="black"/>
<path d="M466.827 508.191L429.726 626.096L460.408 631.629L466.827 508.191Z" fill="black"/>
</svg>
