<svg width="665" height="736" viewBox="0 0 665 736" fill="none" xmlns="http://www.w3.org/2000/svg">
<path d="M125.564 21.9959C131.838 23.3901 138.115 25.1309 144.375 27.2174C150.352 22.8514 156.555 18.8471 162.95 15.2227C161.606 22.3254 160.51 29.2038 159.625 35.8467C164.732 40.0951 169.81 44.475 174.859 48.9846C168.248 49.6975 161.686 50.9196 155.231 52.6479C152.849 58.5858 150.689 64.4115 148.717 70.1155C145.087 65.5627 141.474 60.8916 137.881 56.1039C131.387 56.9492 124.98 58.2925 118.712 60.123C122.398 53.7636 126.369 47.52 130.621 41.4088C128.835 35.1861 127.142 28.7141 125.564 21.9959Z" fill="black"/>
<path d="M332.947 48.753C333.187 53.1281 333.2 57.569 332.983 62.0623C336.949 65.1814 340.72 68.5165 344.277 72.047C339.367 72.4719 334.65 73.0191 330.126 73.6612C328.278 77.7955 326.338 81.9351 324.307 86.0796C322.622 81.8717 320.612 77.7892 318.289 73.8699C313.953 73.3999 309.731 73.0541 305.623 72.8099C307.944 69.589 310.345 66.3576 312.826 63.1173C311.076 59.0106 309.014 55.0523 306.659 51.2746C311.512 52.5235 316.341 53.9804 321.135 55.6464C324.891 53.3282 328.828 51.0258 332.947 48.753Z" fill="#57D9EE"/>
<path d="M310.958 690.026C304.38 684.258 298.025 678.074 291.917 671.489C281.927 672.793 271.902 673.515 261.898 673.659C268.149 666.06 273.955 658.565 279.356 651.214C276.039 642.802 272.841 634.253 269.763 625.567C278.121 629.039 286.754 631.872 295.591 634.031C302.317 628.5 308.707 622.959 314.791 617.439C316.147 625.248 317.404 633.187 318.563 641.253C326.867 644.491 335.394 647.078 344.074 648.992C335.515 654.173 326.691 659.029 317.618 663.544C315.681 672.141 313.468 680.974 310.958 690.026Z" fill="#E60012"/>
<path d="M572.283 343.361C572.283 447.279 458.906 543.421 310.233 543.421C161.56 543.421 33 467.112 33 363.189C33 259.266 110.787 152.111 259.465 152.111C408.142 152.111 572.283 239.438 572.283 343.361Z" fill="white" stroke="black" stroke-width="10" stroke-miterlimit="10"/>
<path d="M591.472 308.789C595.425 320.03 597.529 331.588 597.529 343.36C597.529 369.34 590.443 394.835 577.49 418.458" stroke="black" stroke-width="10" stroke-miterlimit="10" stroke-linecap="round"/>
<path d="M620.483 314.559C623.235 323.975 624.683 333.596 624.683 343.361C624.683 365.131 619.706 386.561 610.473 406.836" stroke="black" stroke-width="10" stroke-miterlimit="10" stroke-linecap="round"/>
<path d="M496.017 486.678C500.649 511.632 477.569 539.749 441.674 546.344C405.78 552.939 371.344 540.318 366.705 515.364C362.066 490.41 376.071 461.23 411.965 454.628C447.86 448.034 491.378 461.718 496.017 486.672V486.678Z" fill="white" stroke="black" stroke-width="10" stroke-miterlimit="10" stroke-linejoin="round"/>
<path d="M554.661 529.321C563.503 543.629 556.469 566.764 536.519 579.75C516.569 592.735 492.831 593.452 483.989 579.144C475.147 564.836 476.467 543.286 496.417 530.309C516.367 517.323 545.819 515.021 554.661 529.329V529.321Z" fill="white" stroke="black" stroke-width="10" stroke-miterlimit="10" stroke-linejoin="round"/>
<path d="M632.308 531.398C638.639 541.103 633.603 556.785 619.305 565.594C605.008 574.402 588.006 574.89 581.675 565.185C575.344 555.48 576.283 540.867 590.58 532.074C604.878 523.282 625.977 521.709 632.308 531.414V531.398Z" fill="white" stroke="black" stroke-width="10" stroke-miterlimit="10" stroke-linejoin="round"/>
<path d="M84.6245 193.891C122.338 159.329 175.704 136.688 244.044 136.688" stroke="black" stroke-width="10" stroke-miterlimit="10" stroke-linecap="round"/>
<path d="M93.9321 162.179C130.933 132.181 181.142 113 244.044 113C251.228 113 258.45 113.205 265.685 113.605" stroke="black" stroke-width="10" stroke-miterlimit="10" stroke-linecap="round"/>
<path d="M150.899 420.597L50.0435 658.231L11.9211 638.145L150.899 420.597Z" fill="black"/>
<path d="M546.772 223.771L598.301 132.801L637.742 172.242L546.772 223.771Z" fill="black"/>
<path d="M487.31 190.174L463.41 119.355L503.224 117.145L487.31 190.174Z" fill="black"/>
<path d="M197.714 491.194L234.815 609.1L204.133 614.632L197.714 491.194Z" fill="black"/>
</svg>
