<?xml version="1.0" encoding="utf-8"?>
<!-- Generator: Adobe Illustrator 25.0.0, SVG Export Plug-In . SVG Version: 6.00 Build 0)  -->
<svg version="1.1" id="圖層_1" xmlns="http://www.w3.org/2000/svg" xmlns:xlink="http://www.w3.org/1999/xlink" x="0px" y="0px"
	 viewBox="0 0 203 188" style="enable-background:new 0 0 203 188;" xml:space="preserve">
<style type="text/css">
	.st0{fill:#00FFE4;}
	.st1{fill:#FF00C7;stroke:#000000;stroke-width:10;}
	.st2{fill:#FFFFFF;}
</style>
<path class="st0" d="M118,18l14.2,18.3l20.4-11l5.5,22.5l23.1-1.7L177,68.9l21.8,7.8l-13,19.1l16.7,16l-19.7,12.2l8.8,21.4l-23,3.1
	l-0.7,23.2l-22.2-6.5l-10.1,20.9l-17.7-15l-17.7,15l-10.1-20.9L68,171.8l-0.7-23.2l-23-3.1l8.8-21.4l-19.7-12.2l16.7-16l-13-19.1
	L59,68.9l-4.1-22.8l23.1,1.7l5.5-22.5l20.4,11L118,18z"/>
<path class="st1" d="M93,9l14.2,18.3l20.4-11l5.5,22.5l23.1-1.7L152,59.9l21.8,7.8l-13,19.1l16.7,16l-19.7,12.2l8.8,21.4l-23,3.1
	l-0.7,23.2l-22.2-6.5l-10.1,20.9l-17.7-15l-17.7,15l-10.1-20.9L43,162.8l-0.7-23.2l-23-3.1l8.8-21.4L8.5,102.9l16.7-16l-13-19.1
	L34,59.9l-4.1-22.8l23.1,1.7l5.5-22.5l20.4,11L93,9z"/>
<path d="M50.7,111.3l-5-0.1l0,0.1v0.1H50.7z M50.8,88.1h-5v0.1l0,0.1L50.8,88.1z M43,83.1l0.1-5l0,0h0V83.1z M62.9,83.1l0.1,5l0,0
	l0,0L62.9,83.1z M62.9,87.4l-0.3,5l0.1,0h0.1V87.4z M55.4,88.1l5,0.1l0-0.1v-0.1H55.4z M55.5,111.3l-5,0.2l0,0l0,0L55.5,111.3z
	 M55.7,111.3L55.7,111.3l-10,0v0H55.7z M55.7,111.4c0.1-3.2,0.1-9,0.1-14.3h-10c0,5.3,0,11-0.1,14.1L55.7,111.4z M55.8,97.1
	c0-3.5,0-6.9-0.1-9.1l-10,0.4c0.1,2,0.1,5.2,0.1,8.8H55.8z M55.8,88.1c0,0,0.1-1.2-0.5-2.4c-0.8-1.8-2.3-2.7-3.4-3
	c-0.9-0.3-1.7-0.3-2-0.3c-0.5,0-1,0-1.6,0v10c0.6,0,1,0,1.2,0c0.3,0,0,0-0.5-0.1c-0.3-0.1-0.9-0.3-1.5-0.8c-0.6-0.5-1.1-1.1-1.4-1.8
	c-0.2-0.6-0.3-1.1-0.3-1.3c0-0.2,0-0.3,0-0.2H55.8z M48.3,82.3c-0.8,0-1.7,0-2.6,0c-0.9,0-1.8,0-2.7,0v10c1,0,2,0,2.9,0
	c0.9,0,1.7,0,2.4,0V82.3z M43,82.4c0.5,0,1.3,0.2,1.9,0.9c0.6,0.6,0.8,1.3,0.8,1.9h-10c0,1.7,0.6,3.5,1.9,4.9
	c1.4,1.5,3.3,2.3,5.4,2.3V82.4z M45.7,85.2c0,0.5-0.2,1.3-0.8,1.9c-0.7,0.7-1.5,1-2,1v-10c-2,0-3.9,0.7-5.3,2.3
	c-1.3,1.4-1.9,3.2-1.9,4.9H45.7z M42.9,88.1C42.9,88.1,42.9,88.1,42.9,88.1C42.9,88.1,42.9,88.1,42.9,88.1
	C42.9,88.1,42.9,88.1,42.9,88.1C42.9,88.1,42.9,88.1,42.9,88.1C42.9,88.1,42.9,88.1,42.9,88.1C42.9,88.1,42.9,88.1,42.9,88.1
	C42.9,88.1,42.9,88.1,42.9,88.1C42.9,88.1,42.9,88.1,42.9,88.1C42.9,88.1,42.9,88.1,42.9,88.1C42.9,88.1,42.9,88.1,42.9,88.1
	C42.9,88.1,42.9,88.1,42.9,88.1C42.9,88.1,42.9,88.1,42.9,88.1C42.9,88.1,42.9,88.1,42.9,88.1C42.9,88.1,42.9,88.1,42.9,88.1
	C42.9,88.1,42.9,88.1,42.9,88.1C42.9,88.1,42.9,88.1,42.9,88.1C42.9,88.1,42.9,88.1,42.9,88.1C42.9,88.1,42.9,88.1,42.9,88.1
	C42.9,88.1,42.9,88.1,42.9,88.1C42.9,88.1,42.9,88.1,42.9,88.1C42.9,88.1,42.9,88.1,42.9,88.1C42.9,88.1,42.9,88.1,42.9,88.1
	C42.9,88.1,42.9,88.1,42.9,88.1C42.9,88.1,42.9,88.1,42.9,88.1C42.9,88.1,42.9,88.1,42.9,88.1C42.9,88.1,42.9,88.1,42.9,88.1
	C42.9,88.1,42.9,88.1,42.9,88.1C42.9,88.1,42.9,88.1,42.9,88.1C42.9,88.1,42.9,88.1,42.9,88.1C42.9,88.1,42.9,88.1,42.9,88.1
	C42.9,88.1,42.9,88.1,42.9,88.1C42.9,88.1,42.9,88.1,42.9,88.1C42.9,88.1,42.9,88.1,42.9,88.1C42.9,88.1,42.9,88.1,42.9,88.1
	C42.9,88.1,42.9,88.1,42.9,88.1C42.9,88.1,42.9,88.1,42.9,88.1C42.9,88.1,42.9,88.1,42.9,88.1C42.9,88.1,42.9,88.1,42.9,88.1
	C42.9,88.1,42.9,88.1,42.9,88.1C42.9,88.1,42.9,88.1,42.9,88.1C42.9,88.1,42.9,88.1,42.9,88.1C42.9,88.1,42.9,88.1,42.9,88.1
	C42.9,88.1,42.9,88.1,42.9,88.1C42.9,88.1,42.9,88.1,42.9,88.1C42.9,88.1,42.9,88.1,42.9,88.1C42.9,88.1,42.9,88.1,42.9,88.1
	C42.9,88.1,42.9,88.1,42.9,88.1C42.9,88.1,42.9,88.1,42.9,88.1C42.9,88.1,42.9,88.1,42.9,88.1L42.9,88.1
	C42.9,88.1,42.9,88.1,42.9,88.1C42.9,88.1,42.9,88.1,42.9,88.1C42.9,88.1,42.9,88.1,42.9,88.1C42.9,88.1,42.9,88.1,42.9,88.1
	C42.9,88.1,42.9,88.1,42.9,88.1C42.9,88.1,42.9,88.1,42.9,88.1C42.9,88.1,42.9,88.1,42.9,88.1C42.9,88.1,42.9,88.1,42.9,88.1
	C42.9,88.1,42.9,88.1,42.9,88.1L42.9,88.1C42.9,88.1,42.9,88.1,42.9,88.1C42.9,88.1,42.9,88.1,42.9,88.1
	C42.9,88.1,42.9,88.1,42.9,88.1C42.9,88.1,42.9,88.1,42.9,88.1C42.9,88.1,42.9,88.1,42.9,88.1L42.9,88.1
	C42.9,88.1,42.9,88.1,42.9,88.1C42.9,88.1,42.9,88.1,42.9,88.1C42.9,88.1,42.9,88.1,42.9,88.1C42.9,88.1,42.9,88.1,42.9,88.1
	L42.9,88.1C42.9,88.1,42.9,88.1,42.9,88.1C42.9,88.1,42.9,88.1,42.9,88.1C42.9,88.1,42.9,88.1,42.9,88.1
	C42.9,88.1,42.9,88.1,42.9,88.1L42.9,88.1C42.9,88.1,42.9,88.1,42.9,88.1C42.9,88.1,42.9,88.1,42.9,88.1
	C42.9,88.1,42.9,88.1,42.9,88.1L42.9,88.1C42.9,88.1,42.9,88.1,42.9,88.1C42.9,88.1,42.9,88.1,42.9,88.1L42.9,88.1
	C42.9,88.1,42.9,88.1,42.9,88.1C42.9,88.1,42.9,88.1,42.9,88.1C42.9,88.1,42.9,88.1,42.9,88.1L42.9,88.1
	C42.9,88.1,42.9,88.1,42.9,88.1C42.9,88.1,42.9,88.1,42.9,88.1L42.9,88.1C42.9,88.1,42.9,88.1,42.9,88.1
	C42.9,88.1,42.9,88.1,42.9,88.1L42.9,88.1C42.9,88.1,42.9,88.1,42.9,88.1L42.9,88.1C42.9,88.1,42.9,88.1,42.9,88.1
	C42.9,88.1,42.9,88.1,42.9,88.1L42.9,88.1C42.9,88.1,42.9,88.1,42.9,88.1C42.9,88.1,42.9,88.1,42.9,88.1L42.9,88.1
	C42.9,88.1,42.9,88.1,42.9,88.1L42.9,88.1C42.9,88.1,42.9,88.1,42.9,88.1C42.9,88.1,42.9,88.1,42.9,88.1L42.9,88.1
	C42.9,88.1,42.9,88.1,42.9,88.1L42.9,88.1C42.9,88.1,42.9,88.1,42.9,88.1L42.9,88.1C42.9,88.1,42.9,88.1,42.9,88.1L42.9,88.1
	C42.9,88.1,42.9,88.1,42.9,88.1C42.9,88.1,42.9,88.1,42.9,88.1L42.9,88.1C42.9,88.1,42.9,88.1,42.9,88.1L42.9,88.1
	C42.9,88.1,42.9,88.1,42.9,88.1L42.9,88.1C42.9,88.1,42.9,88.1,42.9,88.1L42.9,88.1C42.9,88.1,42.9,88.1,42.9,88.1L42.9,88.1
	C42.9,88.1,42.9,88.1,42.9,88.1L42.9,88.1C42.9,88.1,42.9,88.1,42.9,88.1L42.9,88.1C42.9,88.1,42.9,88.1,42.9,88.1
	C42.9,88.1,42.9,88.1,42.9,88.1L42.9,88.1C42.9,88.1,42.9,88.1,42.9,88.1L42.9,88.1C42.9,88.1,42.9,88.1,42.9,88.1L42.9,88.1
	C42.9,88.1,42.9,88.1,42.9,88.1L42.9,88.1C42.9,88.1,42.9,88.1,42.9,88.1C42.9,88.1,42.9,88.1,42.9,88.1L42.9,88.1
	C42.9,88.1,42.9,88.1,42.9,88.1L42.9,88.1C42.9,88.1,42.9,88.1,42.9,88.1L42.9,88.1L42.9,88.1C42.9,88.1,42.9,88.1,42.9,88.1
	L42.9,88.1C42.9,88.1,42.9,88.1,42.9,88.1C42.9,88.1,42.9,88.1,42.9,88.1L42.9,88.1C42.9,88.1,42.9,88.1,42.9,88.1L42.9,88.1
	C42.9,88.1,42.9,88.1,42.9,88.1C42.9,88.1,42.9,88.1,42.9,88.1L42.9,88.1C42.9,88.1,42.9,88.1,42.9,88.1
	C42.9,88.1,42.9,88.1,42.9,88.1L42.9,88.1C42.9,88.1,42.9,88.1,42.9,88.1C42.9,88.1,42.9,88.1,42.9,88.1L42.9,88.1
	C42.9,88.1,42.9,88.1,42.9,88.1C42.9,88.1,42.9,88.1,42.9,88.1L42.9,88.1C42.9,88.1,42.9,88.1,42.9,88.1
	C42.9,88.1,42.9,88.1,42.9,88.1L42.9,88.1C42.9,88.1,42.9,88.1,42.9,88.1C42.9,88.1,42.9,88.1,42.9,88.1L42.9,88.1
	C42.9,88.1,42.9,88.1,42.9,88.1C42.9,88.1,42.9,88.1,42.9,88.1L42.9,88.1L42.9,88.1C43,88.1,43,88.1,42.9,88.1
	C43,88.1,43,88.1,42.9,88.1L42.9,88.1C43,88.1,43,88.1,42.9,88.1C43,88.1,43,88.1,42.9,88.1L42.9,88.1L42.9,88.1
	C43,88.1,43,88.1,42.9,88.1C43,88.1,43,88.1,42.9,88.1L42.9,88.1C43,88.1,43,88.1,42.9,88.1C43,88.1,43,88.1,42.9,88.1L42.9,88.1
	L42.9,88.1C43,88.1,43,88.1,42.9,88.1C43,88.1,43,88.1,42.9,88.1L42.9,88.1L42.9,88.1C43,88.1,43,88.1,42.9,88.1
	C43,88.1,43,88.1,42.9,88.1L42.9,88.1L42.9,88.1C43,88.1,43,88.1,42.9,88.1C43,88.1,43,88.1,42.9,88.1C43,88.1,43,88.1,42.9,88.1
	L42.9,88.1C43,88.1,43,88.1,42.9,88.1C43,88.1,43,88.1,42.9,88.1C43,88.1,43,88.1,42.9,88.1L42.9,88.1L42.9,88.1
	C43,88.1,43,88.1,42.9,88.1C43,88.1,43,88.1,42.9,88.1C43,88.1,43,88.1,42.9,88.1L42.9,88.1L42.9,88.1C43,88.1,43,88.1,42.9,88.1
	C43,88.1,43,88.1,42.9,88.1L42.9,88.1L42.9,88.1C43,88.1,43,88.1,42.9,88.1C43,88.1,43,88.1,42.9,88.1C43,88.1,43,88.1,42.9,88.1
	L42.9,88.1L42.9,88.1C43,88.1,43,88.1,42.9,88.1C43,88.1,43,88.1,42.9,88.1C43,88.1,43,88.1,42.9,88.1L42.9,88.1L42.9,88.1
	C43,88.1,43,88.1,42.9,88.1C43,88.1,43,88.1,42.9,88.1C43,88.1,43,88.1,42.9,88.1C43,88.1,43,88.1,42.9,88.1L42.9,88.1L42.9,88.1
	C43,88.1,43,88.1,42.9,88.1C43,88.1,43,88.1,42.9,88.1C43,88.1,43,88.1,42.9,88.1L42.9,88.1L42.9,88.1C43,88.1,43,88.1,42.9,88.1
	C43,88.1,43,88.1,42.9,88.1C43,88.1,43,88.1,42.9,88.1C43,88.1,43,88.1,42.9,88.1L42.9,88.1L42.9,88.1C43,88.1,43,88.1,42.9,88.1
	C43,88.1,43,88.1,42.9,88.1C43,88.1,43,88.1,42.9,88.1L42.9,88.1L42.9,88.1L42.9,88.1C43,88.1,43,88.1,42.9,88.1
	C43,88.1,43,88.1,42.9,88.1C43,88.1,43,88.1,42.9,88.1L42.9,88.1L42.9,88.1C43,88.1,43,88.1,42.9,88.1C43,88.1,43,88.1,42.9,88.1
	C43,88.1,43,88.1,42.9,88.1C43,88.1,43,88.1,42.9,88.1L42.9,88.1L42.9,88.1C43,88.1,43,88.1,42.9,88.1C43,88.1,43,88.1,42.9,88.1
	C43,88.1,43,88.1,42.9,88.1C43,88.1,43,88.1,42.9,88.1L42.9,88.1L42.9,88.1C43,88.1,43,88.1,42.9,88.1C43,88.1,43,88.1,42.9,88.1
	C43,88.1,43,88.1,42.9,88.1L42.9,88.1L42.9,88.1L42.9,88.1C43,88.1,43,88.1,42.9,88.1C43,88.1,43,88.1,42.9,88.1
	C43,88.1,43,88.1,42.9,88.1L42.9,88.1L42.9,88.1C43,88.1,43,88.1,42.9,88.1C43,88.1,43,88.1,42.9,88.1C43,88.1,43,88.1,42.9,88.1
	C43,88.1,43,88.1,42.9,88.1L42.9,88.1L42.9,88.1C43,88.1,43,88.1,42.9,88.1C43,88.1,43,88.1,42.9,88.1C43,88.1,43,88.1,42.9,88.1
	L42.9,88.1L42.9,88.1C43,88.1,43,88.1,42.9,88.1C43,88.1,43,88.1,42.9,88.1C43,88.1,43,88.1,42.9,88.1C43,88.1,43,88.1,42.9,88.1
	L42.9,88.1L42.9,88.1C43,88.1,43,88.1,42.9,88.1C43,88.1,43,88.1,42.9,88.1C43,88.1,43,88.1,42.9,88.1L42.9,88.1L42.9,88.1
	C43,88.1,43,88.1,42.9,88.1C43,88.1,43,88.1,42.9,88.1C43,88.1,43,88.1,42.9,88.1L42.9,88.1L42.9,88.1C43,88.1,43,88.1,42.9,88.1
	C43,88.1,43,88.1,42.9,88.1L42.9,88.1L42.9,88.1C43,88.1,43,88.1,42.9,88.1C43,88.1,43,88.1,42.9,88.1C43,88.1,43,88.1,42.9,88.1
	L42.9,88.1L42.9,88.1C43,88.1,43,88.1,42.9,88.1C43,88.1,43,88.1,42.9,88.1C43,88.1,43,88.1,42.9,88.1L42.9,88.1
	C43,88.1,43,88.1,42.9,88.1C43,88.1,43,88.1,42.9,88.1C43,88.1,43,88.1,42.9,88.1L42.9,88.1L42.9,88.1C43,88.1,43,88.1,42.9,88.1
	C43,88.1,43,88.1,42.9,88.1L42.9,88.1L42.9,88.1C43,88.1,43,88.1,42.9,88.1C43,88.1,43,88.1,42.9,88.1L42.9,88.1L42.9,88.1
	C43,88.1,43,88.1,42.9,88.1C43,88.1,43,88.1,42.9,88.1L42.9,88.1C43,88.1,43,88.1,42.9,88.1C43,88.1,43,88.1,42.9,88.1L42.9,88.1
	L42.9,88.1C43,88.1,43,88.1,42.9,88.1C43,88.1,43,88.1,42.9,88.1L42.9,88.1C43,88.1,43,88.1,42.9,88.1C43,88.1,43,88.1,42.9,88.1
	L42.9,88.1L42.9,88.1C43,88.1,43,88.1,42.9,88.1C43,88.1,43,88.1,42.9,88.1L42.9,88.1C43,88.1,43,88.1,42.9,88.1
	C43,88.1,43,88.1,42.9,88.1L42.9,88.1C43,88.1,43,88.1,42.9,88.1C43,88.1,43,88.1,42.9,88.1L42.9,88.1C43,88.1,43,88.1,42.9,88.1
	C43,88.1,43,88.1,42.9,88.1L42.9,88.1C43,88.1,43,88.1,42.9,88.1C43,88.1,43,88.1,42.9,88.1L42.9,88.1C43,88.1,43,88.1,42.9,88.1
	C43,88.1,43,88.1,42.9,88.1L42.9,88.1C43,88.1,43,88.1,42.9,88.1C43,88.1,43,88.1,42.9,88.1L42.9,88.1C43,88.1,43,88.1,42.9,88.1
	L42.9,88.1C43,88.1,43,88.1,42.9,88.1C43,88.1,43,88.1,42.9,88.1L42.9,88.1C43,88.1,43,88.1,42.9,88.1L42.9,88.1L42.9,88.1
	C43,88.1,43,88.1,42.9,88.1L42.9,88.1C43,88.1,43,88.1,42.9,88.1L42.9,88.1C43,88.1,43,88.1,42.9,88.1C43,88.1,43,88.1,42.9,88.1
	L42.9,88.1C43,88.1,43,88.1,42.9,88.1L42.9,88.1C43,88.1,43,88.1,42.9,88.1L42.9,88.1C43,88.1,43,88.1,42.9,88.1L42.9,88.1
	C43,88.1,43,88.1,42.9,88.1C43,88.1,43,88.1,42.9,88.1L42.9,88.1C43,88.1,43,88.1,42.9,88.1L42.9,88.1C43,88.1,43,88.1,42.9,88.1
	L42.9,88.1C43,88.1,43,88.1,42.9,88.1L42.9,88.1C43,88.1,43,88.1,42.9,88.1L42.9,88.1C43,88.1,43,88.1,42.9,88.1L42.9,88.1
	C43,88.1,43,88.1,42.9,88.1L42.9,88.1C43,88.1,43,88.1,42.9,88.1C43,88.1,43,88.1,42.9,88.1L42.9,88.1C43,88.1,43,88.1,42.9,88.1
	L42.9,88.1C43,88.1,43,88.1,42.9,88.1L42.9,88.1C43,88.1,43,88.1,42.9,88.1L42.9,88.1C43,88.1,43,88.1,42.9,88.1
	C43,88.1,43,88.1,42.9,88.1L42.9,88.1C43,88.1,43,88.1,42.9,88.1L42.9,88.1C43,88.1,43,88.1,42.9,88.1C43,88.1,43,88.1,42.9,88.1
	L42.9,88.1C43,88.1,43,88.1,42.9,88.1C43,88.1,43,88.1,42.9,88.1L42.9,88.1C43,88.1,43,88.1,42.9,88.1L42.9,88.1
	C43,88.1,43,88.1,42.9,88.1C43,88.1,43,88.1,42.9,88.1L42.9,88.1C43,88.1,43,88.1,42.9,88.1C43,88.1,43,88.1,42.9,88.1
	C43,88.1,43,88.1,42.9,88.1L42.9,88.1C43,88.1,43,88.1,42.9,88.1C43,88.1,43,88.1,42.9,88.1L42.9,88.1C43,88.1,43,88.1,42.9,88.1
	C43,88.1,43,88.1,42.9,88.1L42.9,88.1C43,88.1,43,88.1,42.9,88.1C43,88.1,43,88.1,42.9,88.1C43,88.1,43,88.1,42.9,88.1L42.9,88.1
	C43,88.1,43,88.1,42.9,88.1C43,88.1,43,88.1,42.9,88.1C43,88.1,43,88.1,42.9,88.1C43,88.1,43,88.1,42.9,88.1L42.9,88.1
	C43,88.1,43,88.1,42.9,88.1C43,88.1,43,88.1,42.9,88.1C43,88.1,43,88.1,42.9,88.1C43,88.1,43,88.1,42.9,88.1L42.9,88.1
	C43,88.1,43,88.1,42.9,88.1C43,88.1,43,88.1,42.9,88.1C43,88.1,43,88.1,42.9,88.1C43,88.1,43,88.1,42.9,88.1
	C43,88.1,43,88.1,42.9,88.1L42.9,88.1C43,88.1,43,88.1,42.9,88.1C43,88.1,43,88.1,42.9,88.1C43,88.1,43,88.1,42.9,88.1
	C43,88.1,43,88.1,42.9,88.1C43,88.1,43,88.1,42.9,88.1C43,88.1,43,88.1,42.9,88.1C43,88.1,43,88.1,42.9,88.1
	C43,88.1,43,88.1,42.9,88.1C43,88.1,43,88.1,42.9,88.1L42.9,88.1C43,88.1,43,88.1,42.9,88.1C43,88.1,43,88.1,42.9,88.1
	C43,88.1,43,88.1,42.9,88.1C43,88.1,43,88.1,42.9,88.1C43,88.1,43,88.1,42.9,88.1C43,88.1,43,88.1,42.9,88.1
	C43,88.1,43,88.1,42.9,88.1C43,88.1,43,88.1,42.9,88.1C43,88.1,43,88.1,42.9,88.1C43,88.1,43,88.1,42.9,88.1
	C43,88.1,43,88.1,42.9,88.1C43,88.1,43,88.1,42.9,88.1C43,88.1,43,88.1,42.9,88.1C43,88.1,43,88.1,42.9,88.1
	C43,88.1,43,88.1,42.9,88.1C43,88.1,43,88.1,42.9,88.1C43,88.1,43,88.1,42.9,88.1C43,88.1,43,88.1,42.9,88.1
	C43,88.1,43,88.1,42.9,88.1C43,88.1,43,88.1,42.9,88.1C43,88.1,43,88.1,42.9,88.1C43,88.1,43,88.1,42.9,88.1
	C43,88.1,43,88.1,42.9,88.1C43,88.1,43,88.1,42.9,88.1C43,88.1,43,88.1,42.9,88.1C43,88.1,43,88.1,42.9,88.1
	C43,88.1,43,88.1,42.9,88.1C43,88.1,43,88.1,42.9,88.1C43,88.1,43,88.1,42.9,88.1C43,88.1,43,88.1,42.9,88.1
	C43,88.1,43,88.1,42.9,88.1C43,88.1,43,88.1,42.9,88.1C43,88.1,43,88.1,42.9,88.1C43,88.1,43,88.1,42.9,88.1
	C43,88.1,43,88.1,42.9,88.1C43,88.1,43,88.1,42.9,88.1C43,88.1,43,88.1,42.9,88.1C43,88.1,43,88.1,42.9,88.1
	C43,88.1,43,88.1,42.9,88.1C43,88.1,43,88.1,42.9,88.1C43,88.1,43,88.1,42.9,88.1C43,88.1,43,88.1,42.9,88.1
	C43,88.1,43,88.1,42.9,88.1C43,88.1,43,88.1,42.9,88.1C43,88.1,43,88.1,42.9,88.1C43,88.1,43,88.1,42.9,88.1
	C43,88.1,43,88.1,42.9,88.1C43,88.1,43,88.1,42.9,88.1C43,88.1,43,88.1,42.9,88.1l0.1-10c0,0,0,0,0,0c0,0,0,0,0,0c0,0,0,0,0,0
	c0,0,0,0,0,0c0,0,0,0,0,0c0,0,0,0,0,0s0,0,0,0c0,0,0,0,0,0c0,0,0,0,0,0c0,0,0,0,0,0s0,0,0,0c0,0,0,0,0,0c0,0,0,0,0,0c0,0,0,0,0,0
	s0,0,0,0c0,0,0,0,0,0c0,0,0,0,0,0c0,0,0,0,0,0c0,0,0,0,0,0s0,0,0,0c0,0,0,0,0,0c0,0,0,0,0,0c0,0,0,0,0,0c0,0,0,0,0,0c0,0,0,0,0,0
	s0,0,0,0c0,0,0,0,0,0s0,0,0,0c0,0,0,0,0,0c0,0,0,0,0,0c0,0,0,0,0,0c0,0,0,0,0,0c0,0,0,0,0,0c0,0,0,0,0,0c0,0,0,0,0,0c0,0,0,0,0,0
	c0,0,0,0,0,0c0,0,0,0,0,0c0,0,0,0,0,0c0,0,0,0,0,0c0,0,0,0,0,0c0,0,0,0,0,0c0,0,0,0,0,0c0,0,0,0,0,0c0,0,0,0,0,0c0,0,0,0,0,0
	c0,0,0,0,0,0c0,0,0,0,0,0c0,0,0,0,0,0h0c0,0,0,0,0,0c0,0,0,0,0,0c0,0,0,0,0,0c0,0,0,0,0,0c0,0,0,0,0,0s0,0,0,0c0,0,0,0,0,0
	c0,0,0,0,0,0c0,0,0,0,0,0h0c0,0,0,0,0,0c0,0,0,0,0,0c0,0,0,0,0,0s0,0,0,0c0,0,0,0,0,0h0c0,0,0,0,0,0c0,0,0,0,0,0s0,0,0,0
	c0,0,0,0,0,0h0c0,0,0,0,0,0c0,0,0,0,0,0s0,0,0,0c0,0,0,0,0,0h0c0,0,0,0,0,0c0,0,0,0,0,0c0,0,0,0,0,0h0c0,0,0,0,0,0s0,0,0,0h0
	c0,0,0,0,0,0c0,0,0,0,0,0h0c0,0,0,0,0,0c0,0,0,0,0,0c0,0,0,0,0,0h0c0,0,0,0,0,0c0,0,0,0,0,0h0c0,0,0,0,0,0h0c0,0,0,0,0,0
	c0,0,0,0,0,0h0c0,0,0,0,0,0c0,0,0,0,0,0h0c0,0,0,0,0,0h0c0,0,0,0,0,0c0,0,0,0,0,0h0c0,0,0,0,0,0h0c0,0,0,0,0,0h0c0,0,0,0,0,0h0
	c0,0,0,0,0,0s0,0,0,0h0c0,0,0,0,0,0h0c0,0,0,0,0,0h0c0,0,0,0,0,0h0c0,0,0,0,0,0h0c0,0,0,0,0,0h0c0,0,0,0,0,0h0c0,0,0,0,0,0
	c0,0,0,0,0,0h0c0,0,0,0,0,0h0c0,0,0,0,0,0h0c0,0,0,0,0,0h0c0,0,0,0,0,0c0,0,0,0,0,0h0c0,0,0,0,0,0h0c0,0,0,0,0,0h0h0c0,0,0,0,0,0h0
	c0,0,0,0,0,0c0,0,0,0,0,0h0c0,0,0,0,0,0h0c0,0,0,0,0,0c0,0,0,0,0,0h0c0,0,0,0,0,0c0,0,0,0,0,0h0c0,0,0,0,0,0c0,0,0,0,0,0h0
	c0,0,0,0,0,0c0,0,0,0,0,0h0c0,0,0,0,0,0c0,0,0,0,0,0h0c0,0,0,0,0,0c0,0,0,0,0,0h0c0,0,0,0,0,0c0,0,0,0,0,0h0h0c0,0,0,0,0,0
	c0,0,0,0,0,0h0c0,0,0,0,0,0c0,0,0,0,0,0h0h0c0,0,0,0,0,0c0,0,0,0,0,0h0c0,0,0,0,0,0c0,0,0,0,0,0h0h0c0,0,0,0,0,0c0,0,0,0,0,0h0h0
	c0,0,0,0,0,0c0,0,0,0,0,0h0h0c0,0,0,0,0,0c0,0,0,0,0,0c0,0,0,0,0,0h0c0,0,0,0,0,0c0,0,0,0,0,0c0,0,0,0,0,0h0h0c0,0,0,0,0,0
	c0,0,0,0,0,0c0,0,0,0,0,0h0h0c0,0,0,0,0,0c0,0,0,0,0,0h0h0c0,0,0,0,0,0c0,0,0,0,0,0c0,0,0,0,0,0h0h0c0,0,0,0,0,0c0,0,0,0,0,0
	c0,0,0,0,0,0h0h0c0,0,0,0,0,0c0,0,0,0,0,0c0,0,0,0,0,0c0,0,0,0,0,0h0h0c0,0,0,0,0,0c0,0,0,0,0,0c0,0,0,0,0,0h0h0c0,0,0,0,0,0
	c0,0,0,0,0,0c0,0,0,0,0,0c0,0,0,0,0,0h0h0c0,0,0,0,0,0c0,0,0,0,0,0c0,0,0,0,0,0h0h0h0c0,0,0,0,0,0c0,0,0,0,0,0c0,0,0,0,0,0h0h0
	c0,0,0,0,0,0c0,0,0,0,0,0c0,0,0,0,0,0c0,0,0,0,0,0h0h0c0,0,0,0,0,0c0,0,0,0,0,0c0,0,0,0,0,0c0,0,0,0,0,0h0h0c0,0,0,0,0,0
	c0,0,0,0,0,0c0,0,0,0,0,0h0h0h0c0,0,0,0,0,0c0,0,0,0,0,0c0,0,0,0,0,0h0h0c0,0,0,0,0,0c0,0,0,0,0,0c0,0,0,0,0,0c0,0,0,0,0,0h0h0
	c0,0,0,0,0,0c0,0,0,0,0,0c0,0,0,0,0,0h0h0c0,0,0,0,0,0c0,0,0,0,0,0c0,0,0,0,0,0c0,0,0,0,0,0h0h0c0,0,0,0,0,0c0,0,0,0,0,0
	c0,0,0,0,0,0h0h0c0,0,0,0,0,0c0,0,0,0,0,0c0,0,0,0,0,0h0h0c0,0,0,0,0,0c0,0,0,0,0,0h0h0c0,0,0,0,0,0c0,0,0,0,0,0c0,0,0,0,0,0h0h0
	c0,0,0,0,0,0c0,0,0,0,0,0c0,0,0,0,0,0h0c0,0,0,0,0,0c0,0,0,0,0,0c0,0,0,0,0,0h0h0c0,0,0,0,0,0c0,0,0,0,0,0h0h0c0,0,0,0,0,0
	c0,0,0,0,0,0h0h0c0,0,0,0,0,0c0,0,0,0,0,0h0c0,0,0,0,0,0c0,0,0,0,0,0h0h0c0,0,0,0,0,0c0,0,0,0,0,0h0c0,0,0,0,0,0c0,0,0,0,0,0h0h0
	c0,0,0,0,0,0c0,0,0,0,0,0h0c0,0,0,0,0,0c0,0,0,0,0,0h0c0,0,0,0,0,0c0,0,0,0,0,0h0c0,0,0,0,0,0c0,0,0,0,0,0h0c0,0,0,0,0,0
	c0,0,0,0,0,0h0c0,0,0,0,0,0c0,0,0,0,0,0h0c0,0,0,0,0,0c0,0,0,0,0,0h0c0,0,0,0,0,0h0c0,0,0,0,0,0c0,0,0,0,0,0h0c0,0,0,0,0,0h0h0
	c0,0,0,0,0,0h0c0,0,0,0,0,0h0c0,0,0,0,0,0c0,0,0,0,0,0h0c0,0,0,0,0,0h0c0,0,0,0,0,0h0c0,0,0,0,0,0h0c0,0,0,0,0,0c0,0,0,0,0,0h0
	c0,0,0,0,0,0h0c0,0,0,0,0,0h0c0,0,0,0,0,0h0c0,0,0,0,0,0h0c0,0,0,0,0,0h0c0,0,0,0,0,0h0c0,0,0,0,0,0c0,0,0,0,0,0h0c0,0,0,0,0,0h0
	c0,0,0,0,0,0h0c0,0,0,0,0,0h0c0,0,0,0,0,0c0,0,0,0,0,0h0c0,0,0,0,0,0h0c0,0,0,0,0,0c0,0,0,0,0,0h0c0,0,0,0,0,0c0,0,0,0,0,0h0
	c0,0,0,0,0,0h0c0,0,0,0,0,0c0,0,0,0,0,0h0c0,0,0,0,0,0c0,0,0,0,0,0h0c0,0,0,0,0,0c0,0,0,0,0,0c0,0,0,0,0,0h0c0,0,0,0,0,0
	c0,0,0,0,0,0h0c0,0,0,0,0,0c0,0,0,0,0,0s0,0,0,0h0c0,0,0,0,0,0c0,0,0,0,0,0c0,0,0,0,0,0c0,0,0,0,0,0h0c0,0,0,0,0,0c0,0,0,0,0,0
	c0,0,0,0,0,0c0,0,0,0,0,0h0c0,0,0,0,0,0c0,0,0,0,0,0c0,0,0,0,0,0c0,0,0,0,0,0c0,0,0,0,0,0h0c0,0,0,0,0,0c0,0,0,0,0,0c0,0,0,0,0,0
	s0,0,0,0c0,0,0,0,0,0c0,0,0,0,0,0c0,0,0,0,0,0c0,0,0,0,0,0c0,0,0,0,0,0h0c0,0,0,0,0,0c0,0,0,0,0,0c0,0,0,0,0,0c0,0,0,0,0,0
	c0,0,0,0,0,0c0,0,0,0,0,0c0,0,0,0,0,0c0,0,0,0,0,0c0,0,0,0,0,0c0,0,0,0,0,0c0,0,0,0,0,0c0,0,0,0,0,0c0,0,0,0,0,0c0,0,0,0,0,0
	c0,0,0,0,0,0c0,0,0,0,0,0c0,0,0,0,0,0c0,0,0,0,0,0c0,0,0,0,0,0c0,0,0,0,0,0c0,0,0,0,0,0s0,0,0,0c0,0,0,0,0,0s0,0,0,0c0,0,0,0,0,0
	c0,0,0,0,0,0c0,0,0,0,0,0c0,0,0,0,0,0c0,0,0,0,0,0s0,0,0,0c0,0,0,0,0,0c0,0,0,0,0,0c0,0,0,0,0,0c0,0,0,0,0,0s0,0,0,0c0,0,0,0,0,0
	c0,0,0,0,0,0c0,0,0,0,0,0s0,0,0,0c0,0,0,0,0,0c0,0,0,0,0,0c0,0,0,0,0,0s0,0,0,0c0,0,0,0,0,0c0,0,0,0,0,0c0,0,0,0,0,0s0,0,0,0
	c0,0,0,0,0,0c0,0,0,0,0,0V88.1z M42.9,88.1c2.4,0,6.7,0.1,10.9,0.1v-10c-4.1,0-8.3,0-10.7-0.1L42.9,88.1z M53.8,88.2
	c3.4,0,6.9,0,9.2-0.1l-0.2-10c-2.3,0-5.6,0.1-9,0.1V88.2z M63,88.1c-0.3,0-0.8-0.1-1.4-0.3c-0.5-0.3-0.9-0.6-1.2-1
	C60,86.2,60,85.7,60,85.3h10c0-1.3-0.3-2.9-1.4-4.4c-1.3-1.7-3.3-2.8-5.8-2.7L63,88.1z M60,85.3c0-0.4,0.1-1,0.6-1.7
	c0.6-0.8,1.6-1.2,2.4-1.2v10c2.1,0,4.1-0.9,5.3-2.5c1.2-1.4,1.6-3.1,1.6-4.6H60z M63,82.4C63,82.4,63,82.4,63,82.4
	C63,82.4,63,82.4,63,82.4C63,82.4,63,82.4,63,82.4C63,82.4,63,82.4,63,82.4C63,82.4,63,82.4,63,82.4C63,82.4,63,82.4,63,82.4
	C63,82.4,63,82.4,63,82.4C63,82.4,63,82.4,63,82.4C63,82.4,63,82.4,63,82.4C63,82.4,63,82.4,63,82.4C63,82.4,63,82.4,63,82.4
	C63,82.4,63,82.4,63,82.4C63,82.4,63,82.4,63,82.4C63,82.4,63,82.4,63,82.4C63,82.4,63,82.4,63,82.4C63,82.4,63,82.4,63,82.4
	C63,82.4,63,82.4,63,82.4C63,82.4,63,82.4,63,82.4C63,82.4,63,82.4,63,82.4C63,82.4,63,82.4,63,82.4C63,82.4,63,82.4,63,82.4
	C63,82.4,63,82.4,63,82.4C63,82.4,63,82.4,63,82.4C63,82.4,63,82.4,63,82.4C63,82.4,63,82.4,63,82.4C63,82.4,63,82.4,63,82.4
	C63,82.4,63,82.4,63,82.4C63,82.4,63,82.4,63,82.4C63,82.4,63,82.4,63,82.4C63,82.4,63,82.4,63,82.4C63,82.4,63,82.4,63,82.4
	C63,82.4,63,82.4,63,82.4C63,82.4,63,82.4,63,82.4C63,82.4,63,82.4,63,82.4C63,82.4,63,82.4,63,82.4C63,82.4,63,82.4,63,82.4
	C63,82.4,63,82.4,63,82.4C63,82.4,63,82.4,63,82.4C63,82.4,63,82.4,63,82.4C63,82.4,63,82.4,63,82.4C63,82.4,63,82.4,63,82.4
	C63,82.4,63,82.4,63,82.4C63,82.4,63,82.4,63,82.4C63,82.4,63,82.4,63,82.4C63,82.4,63,82.4,63,82.4C63,82.4,63,82.4,63,82.4
	C63,82.4,63,82.4,63,82.4C63,82.4,63,82.4,63,82.4C63,82.4,63,82.4,63,82.4C63,82.4,63,82.4,63,82.4C63,82.4,63,82.4,63,82.4
	C63,82.4,63,82.4,63,82.4C63,82.4,63,82.4,63,82.4C63,82.4,63,82.4,63,82.4C63,82.4,63,82.4,63,82.4C63,82.4,63,82.4,63,82.4
	C63,82.4,63,82.4,63,82.4C63,82.4,63,82.4,63,82.4C63,82.4,63,82.4,63,82.4C63,82.4,63,82.4,63,82.4C63,82.4,63,82.4,63,82.4
	C63,82.4,63,82.4,63,82.4C63,82.4,63,82.4,63,82.4C63,82.4,63,82.4,63,82.4C63,82.4,63,82.4,63,82.4C63,82.4,63,82.4,63,82.4
	C63,82.4,63,82.4,63,82.4C63,82.4,63,82.4,63,82.4C63,82.4,63,82.4,63,82.4C63,82.4,63,82.4,63,82.4C63,82.4,63,82.4,63,82.4
	C63,82.4,63,82.4,63,82.4C63,82.4,63,82.4,63,82.4C63,82.4,63,82.4,63,82.4C63,82.4,63,82.4,63,82.4C63,82.4,63,82.4,63,82.4
	C63,82.4,63,82.4,63,82.4C63,82.4,63,82.4,63,82.4C63,82.4,63,82.4,63,82.4C63,82.4,63,82.4,63,82.4C63,82.4,63,82.4,63,82.4
	C63,82.4,63,82.4,63,82.4C63,82.4,63,82.4,63,82.4C63,82.4,63,82.4,63,82.4C63,82.4,63,82.4,63,82.4C63,82.4,63,82.4,63,82.4
	C63,82.4,63,82.4,63,82.4C63,82.4,63,82.4,63,82.4C63,82.4,63,82.4,63,82.4C63,82.4,63,82.4,63,82.4C63,82.4,63,82.4,63,82.4
	C63,82.4,63,82.4,63,82.4C63,82.4,63,82.4,63,82.4C63,82.4,63,82.4,63,82.4C63,82.4,63,82.4,63,82.4C63,82.4,63,82.4,63,82.4
	C63,82.4,63,82.4,63,82.4C63,82.4,63,82.4,63,82.4C63,82.4,63,82.4,63,82.4C63,82.4,63,82.4,63,82.4C63,82.4,63,82.4,63,82.4
	C63,82.4,63,82.4,63,82.4C63,82.4,63,82.4,63,82.4C63,82.4,63,82.4,63,82.4C63,82.4,63,82.4,63,82.4C63,82.4,63,82.4,63,82.4
	C63,82.4,63,82.4,63,82.4C63,82.4,63,82.4,63,82.4C63,82.4,63,82.4,63,82.4C63,82.4,63,82.4,63,82.4C63,82.4,63,82.4,63,82.4
	C63,82.4,63,82.4,63,82.4C63,82.4,63,82.4,63,82.4C63,82.4,63,82.4,63,82.4C63,82.4,63,82.4,63,82.4C63,82.4,63,82.4,63,82.4
	C63,82.4,63,82.4,63,82.4C63,82.4,63,82.4,63,82.4C63,82.4,63,82.4,63,82.4C63,82.4,63,82.4,63,82.4C63,82.4,63,82.4,63,82.4
	C63,82.4,63,82.4,63,82.4C63,82.4,63,82.4,63,82.4C63,82.4,63,82.4,63,82.4C63,82.4,63,82.4,63,82.4C63,82.4,63,82.4,63,82.4
	C63,82.4,63,82.4,63,82.4C63,82.4,63,82.4,63,82.4C63,82.4,63,82.4,63,82.4C63,82.4,63,82.4,63,82.4C63,82.4,63,82.4,63,82.4
	C63,82.4,63,82.4,63,82.4C63,82.4,63,82.4,63,82.4C63,82.4,63,82.4,63,82.4C63,82.4,63,82.4,63,82.4C63,82.4,63,82.4,63,82.4
	C63,82.4,63,82.4,63,82.4C63,82.4,63,82.4,63,82.4C63,82.4,63,82.4,63,82.4C63,82.4,63,82.4,63,82.4C63,82.4,63,82.4,63,82.4
	C63,82.4,63,82.4,63,82.4C63,82.4,63,82.4,63,82.4C63,82.4,63,82.4,63,82.4C63,82.4,63,82.4,63,82.4C63,82.4,63,82.4,63,82.4
	C63,82.4,63,82.4,63,82.4C63,82.4,63,82.4,63,82.4C63,82.4,63,82.4,63,82.4C63,82.4,63,82.4,63,82.4C63,82.4,63,82.4,63,82.4
	C63,82.4,63,82.4,63,82.4C63,82.4,63,82.4,63,82.4C63,82.4,63,82.4,63,82.4C63,82.4,63,82.4,63,82.4C63,82.4,63,82.4,63,82.4
	C63,82.4,63,82.4,63,82.4C63,82.4,63,82.4,63,82.4C63,82.4,63,82.4,63,82.4C63,82.4,63,82.4,63,82.4C63,82.4,63,82.4,63,82.4
	C63,82.4,63,82.4,63,82.4C63,82.4,63,82.4,63,82.4C63,82.4,63,82.4,63,82.4C63,82.4,63,82.4,63,82.4C63,82.4,63,82.4,63,82.4
	C63,82.4,63,82.4,63,82.4C63,82.4,63,82.4,63,82.4C63,82.4,63,82.4,63,82.4C63,82.4,63,82.4,63,82.4C63,82.4,63,82.4,63,82.4
	C63,82.4,63,82.4,63,82.4C63,82.4,63,82.4,63,82.4C63,82.4,63,82.4,63,82.4C63,82.4,63,82.4,63,82.4C63,82.4,63,82.4,63,82.4
	C63,82.4,63,82.4,63,82.4C63,82.4,63,82.4,63,82.4C63,82.4,63,82.4,63,82.4C63,82.4,63,82.4,63,82.4C63,82.4,63,82.4,63,82.4
	C63,82.4,63,82.4,63,82.4C63,82.4,63,82.4,63,82.4C63,82.4,63,82.4,63,82.4C63,82.4,63,82.4,63,82.4C63,82.4,63,82.4,63,82.4
	C63,82.4,63,82.4,63,82.4C63,82.4,63,82.4,63,82.4C63,82.4,63,82.4,63,82.4C63,82.4,63,82.4,63,82.4C63,82.4,63,82.4,63,82.4
	C63,82.4,63,82.4,63,82.4C63,82.4,63,82.4,63,82.4C63,82.4,63,82.4,63,82.4C63,82.4,63,82.4,63,82.4C63,82.4,63,82.4,63,82.4
	C63,82.4,63,82.4,63,82.4C63,82.4,63,82.4,63,82.4C63,82.4,63,82.4,63,82.4C63,82.4,63,82.4,63,82.4C63,82.4,63,82.4,63,82.4
	C63,82.4,63,82.4,63,82.4C63,82.4,63,82.4,63,82.4C63,82.4,63,82.4,63,82.4C63,82.4,63,82.4,63,82.4C63,82.4,63,82.4,63,82.4
	C63,82.4,63,82.4,63,82.4C63,82.4,63,82.4,63,82.4C63,82.4,63,82.4,63,82.4C63,82.4,63,82.4,63,82.4C63,82.4,63,82.4,63,82.4
	C63,82.4,63,82.4,63,82.4C63,82.4,63,82.4,63,82.4C63,82.4,63,82.4,63,82.4C63,82.4,63,82.4,63,82.4C63,82.4,63,82.4,63,82.4
	C63,82.4,63,82.4,63,82.4C63,82.4,63,82.4,63,82.4C63,82.4,63,82.4,63,82.4C63,82.4,63,82.4,63,82.4C63,82.4,63,82.4,63,82.4
	C63,82.4,63,82.4,63,82.4C63,82.4,63,82.4,63,82.4C63,82.4,63,82.4,63,82.4C63,82.4,63,82.4,63,82.4C63,82.4,63,82.4,63,82.4
	C63,82.4,63,82.4,63,82.4C63,82.4,63,82.4,63,82.4C63,82.4,63,82.4,63,82.4C63,82.4,63,82.4,63,82.4C63,82.4,63,82.4,63,82.4
	C63,82.4,63,82.4,63,82.4C63,82.4,63,82.4,63,82.4C63,82.4,63,82.4,63,82.4C63,82.4,63,82.4,63,82.4C63,82.4,63,82.4,63,82.4
	C63,82.4,63,82.4,63,82.4C63,82.4,63,82.4,63,82.4C63,82.4,63,82.4,63,82.4C62.9,82.4,62.9,82.4,63,82.4
	C62.9,82.4,62.9,82.4,63,82.4C62.9,82.4,62.9,82.4,63,82.4C62.9,82.4,62.9,82.4,63,82.4C62.9,82.4,62.9,82.4,63,82.4
	C62.9,82.4,62.9,82.4,63,82.4C62.9,82.4,62.9,82.4,63,82.4C62.9,82.4,62.9,82.4,63,82.4C62.9,82.4,62.9,82.4,63,82.4
	C62.9,82.4,62.9,82.4,63,82.4C62.9,82.4,62.9,82.4,63,82.4C62.9,82.4,62.9,82.4,63,82.4C62.9,82.4,62.9,82.4,63,82.4
	C62.9,82.4,62.9,82.4,63,82.4C62.9,82.4,62.9,82.4,63,82.4C62.9,82.4,62.9,82.4,63,82.4C62.9,82.4,62.9,82.4,63,82.4
	C62.9,82.4,62.9,82.4,63,82.4C62.9,82.4,62.9,82.4,63,82.4C62.9,82.4,62.9,82.4,63,82.4C62.9,82.4,62.9,82.4,63,82.4
	C62.9,82.4,62.9,82.4,63,82.4C62.9,82.4,62.9,82.4,63,82.4C62.9,82.4,62.9,82.4,63,82.4C62.9,82.4,62.9,82.4,63,82.4
	C62.9,82.4,62.9,82.4,63,82.4C62.9,82.4,62.9,82.4,63,82.4C62.9,82.4,62.9,82.4,63,82.4C62.9,82.4,62.9,82.4,63,82.4
	C62.9,82.4,62.9,82.4,63,82.4C62.9,82.4,62.9,82.4,63,82.4C62.9,82.4,62.9,82.4,63,82.4C62.9,82.4,62.9,82.4,63,82.4
	C62.9,82.4,62.9,82.4,63,82.4c-0.1,0-0.1,0-0.1,0s0,0,0,0c0,0,0,0,0,0c0,0,0,0,0,0c0,0,0,0,0,0c0,0,0,0,0,0s0,0,0,0c0,0,0,0,0,0
	c0,0,0,0,0,0s0,0,0,0c0,0,0,0,0,0s0,0,0,0s0,0,0,0c0,0,0,0,0,0s0,0,0,0c0,0,0,0,0,0s0,0,0,0s0,0,0,0c0,0,0,0,0,0s0,0,0,0
	c0,0,0,0,0,0s0,0,0,0s0,0,0,0c0,0,0,0,0,0c0,0,0,0,0,0c0,0,0,0,0,0s0,0,0,0s0,0,0,0c0,0,0,0,0,0s0,0,0,0c0,0,0,0,0,0s0,0,0,0
	c0,0,0,0,0,0s0,0,0,0s0,0,0,0c0,0,0,0,0,0s0,0,0,0c0,0,0,0,0,0s0,0,0,0c0,0,0,0,0,0s0,0,0,0s0,0,0,0c0,0,0,0,0,0s0,0,0,0
	c0,0,0,0,0,0c0,0,0,0,0,0c0,0,0,0,0,0c0,0,0,0,0,0c0,0,0,0,0,0c0,0,0,0,0,0s0,0,0,0c0,0,0,0,0,0s0,0,0,0s0,0,0,0c0,0,0,0,0,0
	s0,0,0,0c0,0,0,0,0,0c0,0,0,0,0,0c0,0,0,0,0,0s0,0,0,0c0,0,0,0,0,0s0,0,0,0s0,0,0,0c0,0,0,0,0,0s0,0,0,0c0,0,0,0,0,0s0,0,0,0
	c0,0,0,0,0,0s0,0,0,0s0,0,0,0c0,0,0,0,0,0s0,0,0,0c0,0,0,0,0,0s0,0,0,0c0,0,0,0,0,0c0,0,0,0,0,0c0,0,0,0,0,0c0,0,0,0,0,0
	c0,0,0,0,0,0c0,0,0,0,0,0s0,0,0,0c0,0,0,0,0,0c0,0,0,0,0,0c0,0,0,0,0,0c0,0,0,0,0,0c0,0,0,0,0,0s0,0,0,0c0,0,0,0,0,0s0,0,0,0
	c0,0,0,0,0,0c0,0,0,0,0,0c0,0,0,0,0,0c0,0,0,0,0,0c0,0,0,0,0,0c0,0,0,0,0,0c0,0,0,0,0,0c0,0,0,0,0,0c0,0,0,0,0,0c0,0,0,0,0,0
	s0,0,0,0c0,0,0,0,0,0c0,0,0,0,0,0s0,0,0,0c0,0,0,0,0,0s0,0,0,0c0,0,0,0,0,0s0,0,0,0c0,0,0,0,0,0s0,0,0,0c0,0,0,0,0,0s0,0,0,0
	c0,0,0,0,0,0s0,0,0,0s0,0,0,0s0,0,0,0s0,0,0,0s0,0,0,0c0,0,0,0,0,0c0,0,0,0,0,0c0,0,0,0,0,0c0,0,0,0,0,0c0,0,0,0,0,0c0,0,0,0,0,0
	c0,0,0,0,0,0c0,0,0,0,0,0c0,0,0,0,0,0c0,0,0,0,0,0s0,0,0,0c0,0,0,0,0,0s0,0,0,0c0,0,0,0,0,0s0,0,0,0c0,0,0,0,0,0s0,0,0,0
	c0,0,0,0,0,0c0,0,0,0,0,0c0,0,0,0,0,0c0,0,0,0,0,0s0,0,0,0c0,0,0,0,0,0s0,0,0,0c0,0,0,0,0,0s0,0,0,0c0,0,0,0,0,0s0,0,0,0
	c0,0,0,0,0,0c0,0,0,0,0,0c0,0,0,0,0,0c0,0,0,0,0,0c0,0,0,0,0,0s0,0,0,0c0,0,0,0,0,0s0,0,0,0c0,0,0,0,0,0s0,0,0,0c0,0,0,0,0,0
	s0,0,0,0c0,0,0,0,0,0c0,0,0,0,0,0s0,0,0,0c0,0,0,0,0,0s0,0,0,0s0,0,0,0c0,0,0,0,0,0c0,0,0,0,0,0c0,0,0,0,0,0c0,0,0,0,0,0s0,0,0,0
	c0,0,0,0,0,0s0,0,0,0c0,0,0,0,0,0c0,0,0,0,0,0c0,0,0,0,0,0c0,0,0,0,0,0c0,0,0,0,0,0s0,0,0,0c0,0,0,0,0,0s0,0,0,0c0,0,0,0,0,0
	s0,0,0,0c0,0,0,0,0,0c0,0,0,0,0,0c0,0,0,0,0,0s0,0,0,0c0,0,0,0,0,0s0,0,0,0c0,0,0,0,0,0c0,0,0,0,0,0c0,0,0,0,0,0c0,0,0,0,0,0
	c0,0,0,0,0,0s0,0,0,0c0,0,0,0,0,0s0,0,0,0c0,0,0,0,0,0c0,0,0,0,0,0c0,0,0,0,0,0c0,0,0,0,0,0c0,0,0,0,0,0s0,0,0,0c0,0,0,0,0,0
	s0,0,0,0c0,0,0,0,0,0c0,0,0,0,0,0c0,0,0,0,0,0s0,0,0,0c0,0,0,0,0,0s0,0,0,0c0,0,0,0,0,0c0,0,0,0,0,0c0,0,0,0,0,0c0,0,0,0,0,0
	c0,0,0,0,0,0s0,0,0,0c0,0,0,0,0,0c0,0,0,0,0,0c0,0,0,0,0,0c0,0,0,0,0,0s0,0,0,0s0,0,0,0c0,0,0,0,0,0s0,0,0,0c0,0,0,0,0,0
	c0,0,0,0,0,0s0,0,0,0s0,0,0,0c0,0,0,0,0,0s0,0,0,0c0,0,0,0,0,0c0,0,0,0,0,0s0,0,0,0s0,0,0,0c0,0,0,0,0,0s0,0,0,0c0,0,0,0,0,0
	c0,0,0,0,0,0s0,0,0,0c0,0,0,0,0,0c0,0,0,0,0,0v10c0,0,0,0,0,0c0,0,0,0,0,0c0,0,0,0,0,0s0,0,0,0c0,0,0,0,0,0c0,0,0,0,0,0s0,0,0,0
	c0,0,0,0,0,0s0,0,0,0s0,0,0,0c0,0,0,0,0,0c0,0,0,0,0,0s0,0,0,0c0,0,0,0,0,0s0,0,0,0s0,0,0,0c0,0,0,0,0,0c0,0,0,0,0,0s0,0,0,0
	c0,0,0,0,0,0s0,0,0,0s0,0,0,0c0,0,0,0,0,0c0,0,0,0,0,0c0,0,0,0,0,0c0,0,0,0,0,0s0,0,0,0c0,0,0,0,0,0c0,0,0,0,0,0c0,0,0,0,0,0
	c0,0,0,0,0,0c0,0,0,0,0,0s0,0,0,0c0,0,0,0,0,0s0,0,0,0c0,0,0,0,0,0c0,0,0,0,0,0c0,0,0,0,0,0s0,0,0,0c0,0,0,0,0,0s0,0,0,0
	c0,0,0,0,0,0c0,0,0,0,0,0c0,0,0,0,0,0c0,0,0,0,0,0c0,0,0,0,0,0s0,0,0,0c0,0,0,0,0,0s0,0,0,0c0,0,0,0,0,0c0,0,0,0,0,0c0,0,0,0,0,0
	c0,0,0,0,0,0c0,0,0,0,0,0s0,0,0,0c0,0,0,0,0,0s0,0,0,0c0,0,0,0,0,0c0,0,0,0,0,0c0,0,0,0,0,0s0,0,0,0c0,0,0,0,0,0s0,0,0,0
	c0,0,0,0,0,0s0,0,0,0c0,0,0,0,0,0c0,0,0,0,0,0c0,0,0,0,0,0c0,0,0,0,0,0c0,0,0,0,0,0s0,0,0,0c0,0,0,0,0,0s0,0,0,0c0,0,0,0,0,0
	c0,0,0,0,0,0c0,0,0,0,0,0c0,0,0,0,0,0s0,0,0,0s0,0,0,0c0,0,0,0,0,0s0,0,0,0c0,0,0,0,0,0c0,0,0,0,0,0s0,0,0,0c0,0,0,0,0,0s0,0,0,0
	c0,0,0,0,0,0s0,0,0,0c0,0,0,0,0,0s0,0,0,0c0,0,0,0,0,0c0,0,0,0,0,0c0,0,0,0,0,0c0,0,0,0,0,0c0,0,0,0,0,0s0,0,0,0c0,0,0,0,0,0
	s0,0,0,0c0,0,0,0,0,0s0,0,0,0c0,0,0,0,0,0s0,0,0,0c0,0,0,0,0,0c0,0,0,0,0,0c0,0,0,0,0,0c0,0,0,0,0,0s0,0,0,0c0,0,0,0,0,0s0,0,0,0
	c0,0,0,0,0,0s0,0,0,0c0,0,0,0,0,0s0,0,0,0c0,0,0,0,0,0c0,0,0,0,0,0c0,0,0,0,0,0c0,0,0,0,0,0c0,0,0,0,0,0c0,0,0,0,0,0c0,0,0,0,0,0
	c0,0,0,0,0,0c0,0,0,0,0,0c0,0,0,0,0,0s0,0,0,0s0,0,0,0s0,0,0,0s0,0,0,0s0,0,0,0c0,0,0,0,0,0s0,0,0,0c0,0,0,0,0,0s0,0,0,0
	c0,0,0,0,0,0s0,0,0,0c0,0,0,0,0,0s0,0,0,0c0,0,0,0,0,0s0,0,0,0c0,0,0,0,0,0c0,0,0,0,0,0s0,0,0,0c0,0,0,0,0,0c0,0,0,0,0,0
	c0,0,0,0,0,0c0,0,0,0,0,0c0,0,0,0,0,0c0,0,0,0,0,0c0,0,0,0,0,0c0,0,0,0,0,0c0,0,0,0,0,0c0,0,0,0,0,0s0,0,0,0c0,0,0,0,0,0s0,0,0,0
	c0,0,0,0,0,0c0,0,0,0,0,0c0,0,0,0,0,0c0,0,0,0,0,0c0,0,0,0,0,0s0,0,0,0c0,0,0,0,0,0c0,0,0,0,0,0c0,0,0,0,0,0c0,0,0,0,0,0
	c0,0,0,0,0,0c0,0,0,0,0,0s0,0,0,0c0,0,0,0,0,0s0,0,0,0c0,0,0,0,0,0s0,0,0,0s0,0,0,0c0,0,0,0,0,0s0,0,0,0c0,0,0,0,0,0s0,0,0,0
	c0,0,0,0,0,0s0,0,0,0s0,0,0,0c0,0,0,0,0,0s0,0,0,0c0,0,0,0,0,0c0,0,0,0,0,0c0,0,0,0,0,0s0,0,0,0c0,0,0,0,0,0s0,0,0,0s0,0,0,0
	c0,0,0,0,0,0s0,0,0,0c0,0,0,0,0,0c0,0,0,0,0,0c0,0,0,0,0,0c0,0,0,0,0,0c0,0,0,0,0,0c0,0,0,0,0,0s0,0,0,0c0,0,0,0,0,0s0,0,0,0
	s0,0,0,0c0,0,0,0,0,0s0,0,0,0c0,0,0,0,0,0s0,0,0,0c0,0,0,0,0,0s0,0,0,0s0,0,0,0c0,0,0,0,0,0s0,0,0,0c0,0,0,0,0,0s0,0,0,0
	c0,0,0,0,0,0s0,0,0,0s0,0,0,0c0,0,0,0,0,0c0,0,0,0,0,0c0,0,0,0,0,0s0,0,0,0s0,0,0,0c0,0,0,0,0,0s0,0,0,0c0,0,0,0,0,0s0,0,0,0
	s0,0,0,0c0,0,0,0,0,0s0,0,0,0c0,0,0,0,0,0s0,0,0,0s0,0,0,0c0,0,0,0,0,0s0,0,0,0c0,0,0,0,0,0c0,0,0,0,0,0s0,0,0,0c0,0,0,0,0,0
	c0,0,0,0,0,0c0,0,0,0,0,0c0,0,0,0,0,0s0,0,0,0c0,0,0,0,0,0s0,0,0,0s0,0,0,0c0,0,0,0,0,0s0,0,0,0c0,0,0,0,0,0s0,0,0,0s0,0,0,0
	c0,0,0,0,0,0s0,0,0,0s0,0,0,0c0,0,0,0,0,0s0,0,0,0c0,0,0,0,0,0s0,0,0,0s0,0,0,0c0,0,0,0,0,0s0,0,0,0s0,0,0,0c0,0,0,0,0,0s0,0,0,0
	c0,0,0,0,0,0c0,0,0,0,0,0s0,0,0,0c0,0,0,0,0,0s0,0,0,0s0,0,0,0c0,0,0,0,0,0s0,0,0,0c0,0,0,0,0,0s0,0,0,0s0,0,0,0c0,0,0,0,0,0
	s0,0,0,0s0,0,0,0c0,0,0,0,0,0c0,0,0,0,0,0s0,0,0,0c0,0,0,0,0,0s0,0,0,0s0,0,0,0c0,0,0,0,0,0s0,0,0,0s0,0,0,0c0,0,0,0,0,0s0,0,0,0
	s0,0,0,0c0,0,0,0,0,0s0,0,0,0c0,0,0,0,0,0c0,0,0,0,0,0s0,0,0,0c0,0,0,0,0,0c0,0,0,0,0,0s0,0,0,0s0,0,0,0c0,0,0,0,0,0s0,0,0,0
	c0,0,0,0,0,0c0,0,0,0,0,0c0,0,0,0,0,0s0,0,0,0c0,0,0,0,0,0s0,0,0,0s0,0,0,0c0,0,0,0,0,0s0,0,0,0s0,0,0,0c0,0,0,0,0,0s0,0,0,0
	s0,0,0,0c0,0,0,0,0,0c0,0,0,0,0,0s0,0,0,0c0,0,0,0,0,0s0,0,0,0c0,0,0,0,0,0s0,0,0,0c0,0,0,0,0,0s0,0,0,0c0,0,0,0,0,0c0,0,0,0,0,0
	s0,0,0,0s0,0,0,0c0,0,0,0,0,0c0,0,0,0,0,0s0,0,0,0c0,0,0,0,0,0c0,0,0,0,0,0s0,0,0,0s0,0,0,0c0,0,0,0,0,0s0,0,0,0s0,0,0,0
	c0,0,0,0,0,0c0,0,0,0,0,0s0,0,0,0c0,0,0,0,0,0c0,0,0,0,0,0s0,0,0,0s0,0,0,0c0,0,0,0,0,0c0,0,0,0,0,0s0,0,0,0s0,0,0,0c0,0,0,0,0,0
	c0,0,0,0,0,0c0,0,0,0,0,0s0,0,0,0c0,0,0,0,0,0c0,0,0,0,0,0s0,0,0,0c0,0,0,0,0,0c0,0,0,0,0,0c0,0,0,0,0,0s0,0,0,0c0,0,0,0,0,0
	c0,0,0,0,0,0s0,0,0,0s0,0,0,0c0,0,0,0,0,0c0,0,0,0,0,0s0,0,0,0s0,0,0,0c0,0,0,0,0,0c0,0,0,0,0,0c0,0,0,0,0,0s0,0,0,0c0,0,0,0,0,0
	c0,0,0,0,0,0c0,0,0,0,0,0s0,0,0,0s0,0,0,0c0,0,0,0,0,0c0,0,0,0,0,0c0,0,0,0,0,0s0,0,0,0c0,0,0,0,0,0c0,0,0,0,0,0s0,0,0,0
	c0,0,0,0,0,0c0,0,0,0,0,0c0,0,0,0,0,0c0,0,0,0,0,0s0,0,0,0s0,0,0,0c0,0,0,0,0,0c0,0,0,0,0,0s0,0,0,0c0,0,0,0,0,0s0,0,0,0
	c0,0,0,0,0,0c0,0,0,0,0,0c0,0,0,0,0,0s0,0,0,0c0,0,0,0,0,0c0,0,0,0,0,0c0,0,0,0,0,0s0,0,0,0c0,0,0,0,0,0c0,0,0,0,0,0c0,0,0,0,0,0
	c0,0,0,0,0,0s0,0,0,0c0,0,0,0,0,0c0,0,0,0,0,0c0,0,0,0,0,0c0,0,0,0,0,0c0,0,0,0,0,0c0,0,0,0,0,0c0,0,0,0,0,0c0,0,0,0,0,0
	c0,0,0,0,0,0c0,0,0,0,0,0s0,0,0,0s0,0,0,0c0,0,0,0,0,0c0,0,0,0,0,0c0,0,0,0,0,0c0,0,0,0,0,0c0,0,0,0,0,0s0,0,0,0s0,0,0,0s0,0,0,0
	c0,0,0,0,0,0c0,0,0,0,0,0c0,0,0,0,0,0s0,0,0,0c0,0,0,0,0,0c0,0,0,0,0,0c0,0,0,0,0,0c0,0,0,0,0,0c0,0,0,0,0,0c0,0,0,0,0,0
	c0,0,0,0,0,0c0,0,0,0,0,0s0,0,0,0s0,0,0,0c0,0,0,0,0,0c0,0,0,0,0,0c0,0,0,0,0,0s0,0,0,0c0,0,0,0,0,0c0,0,0,0,0,0c0,0,0,0,0,0
	c0,0,0,0,0,0c0,0,0,0,0,0c0,0,0,0,0,0c0,0,0,0,0,0c0,0,0,0,0,0c0,0,0,0,0,0c0,0,0,0,0,0c0,0,0,0,0,0c0,0,0,0,0,0c0,0,0,0,0,0
	c0,0,0,0,0,0c0,0,0,0,0,0c0,0,0,0,0,0c0,0,0,0,0,0c0,0,0,0,0,0s0,0,0,0c0,0,0,0,0,0c0,0,0,0,0,0c0,0,0,0,0,0s0,0,0,0c0,0,0,0,0,0
	c0,0,0,0,0,0c0,0,0,0,0,0c0,0,0,0,0,0c0,0,0,0,0,0c0,0,0,0,0,0s0,0,0,0c0,0,0,0,0,0c0,0,0,0,0,0s0,0,0,0c0,0,0,0,0,0c0,0,0,0,0,0
	c0,0,0,0,0,0c0,0,0,0,0,0c0,0,0,0,0,0c0,0,0,0,0,0c0,0,0,0,0,0c0,0,0,0,0,0c0,0,0,0,0,0c0,0,0,0,0,0c0,0,0,0,0,0c0,0,0,0,0,0
	c0,0,0,0,0,0c0,0,0,0,0,0c0,0,0,0,0,0c0,0,0,0,0,0c0,0,0,0,0,0c0,0,0,0,0,0c0,0,0,0,0,0c0,0,0,0,0,0c0,0,0,0,0,0c0,0,0,0,0,0
	c0,0,0,0,0,0c0,0,0,0,0,0c0,0,0,0,0,0c0,0,0,0,0,0c0,0,0,0,0,0c0,0,0,0,0,0c0,0,0,0,0,0c0,0,0,0,0,0c0,0,0,0,0,0c0,0,0,0,0,0
	c0,0,0,0,0,0c0,0,0,0,0,0c0,0,0,0,0,0c0,0,0,0,0,0c0,0,0,0,0,0c0,0,0,0,0,0V82.4z M63.2,82.4c-1.5-0.1-2.8-0.1-3.8-0.1v10
	c1,0,2,0,3.2,0.1L63.2,82.4z M59.4,82.3c-1,0-1.8,0-2.4,0c-0.5,0-1.3,0-2.1,0.2c-0.7,0.1-2.7,0.6-3.8,2.7c-0.5,0.9-0.6,1.7-0.6,2.1
	c0,0.4,0,0.7,0,0.8h10c0-0.2,0,0,0,0.2c0,0.3-0.1,0.9-0.5,1.7c-1,1.9-2.8,2.2-3,2.3c-0.2,0-0.3,0,0.3,0c0.5,0,1.2,0,2.2,0V82.3z
	 M50.4,88c-0.1,2.8-0.1,6.7-0.1,10.7h10c0-3.9,0-7.7,0.1-10.4L50.4,88z M50.3,98.6c0,4.8,0.1,9.8,0.2,12.8l10-0.4
	c-0.1-2.9-0.2-7.7-0.2-12.4H50.3z M50.5,111.6c0-0.4,0.1-1,0.3-1.5c0.3-0.5,0.6-0.9,1-1.2c0.6-0.5,1.1-0.5,1.3-0.5v10
	c1.4,0,3.2-0.4,4.7-1.5c1.7-1.3,2.8-3.4,2.7-5.8L50.5,111.6z M53.1,108.4c0.3,0,0.8,0.1,1.4,0.5c0.3,0.2,0.6,0.6,0.9,1.1
	c0.3,0.5,0.3,1,0.3,1.4h-10c0,2.3,1.1,4.3,2.7,5.5c1.5,1.1,3.2,1.5,4.7,1.5V108.4z M93,108.8c-3.2,0-5.8-1.1-7.5-2.8
	c-1.7-1.7-2.9-4.3-2.9-7.7h-10c0,5.9,2.1,11.1,5.9,14.8c3.8,3.7,8.9,5.7,14.5,5.7V108.8z M82.6,98.2C82.6,92,87,87.7,93,87.7v-10
	c-11.6,0-20.4,8.8-20.4,20.5H82.6z M93,87.7c6,0,10.4,4.3,10.4,10.5h10c0-11.8-8.9-20.5-20.4-20.5V87.7z M103.4,98.2
	c0,3.4-1.2,6-2.9,7.7c-1.7,1.7-4.3,2.8-7.5,2.8v10c5.6,0,10.8-2,14.5-5.7c3.8-3.7,5.9-8.9,5.9-14.8H103.4z M93,114.6
	c8.8,0,15.7-6.8,15.7-16.3h-10c0,4.2-2.6,6.3-5.7,6.3V114.6z M108.7,98.2c0-9.6-6.9-16.4-15.7-16.4v10c3.1,0,5.7,2.1,5.7,6.4H108.7z
	 M93,81.8c-8.8,0-15.7,6.8-15.7,16.4h10c0-4.3,2.7-6.4,5.7-6.4V81.8z M77.3,98.2c0,9.6,7,16.3,15.7,16.3v-10c-3.1,0-5.7-2.1-5.7-6.3
	H77.3z M128.7,111.1l5,0.1l0-0.1v-0.1H128.7z M124.1,111.2l-5-0.3l0,0.1v0.1H124.1z M134.3,82.8l-0.3,5l0,0l0,0L134.3,82.8z
	 M134.9,101.3l-0.5-5l-0.1,0l-0.1,0L134.9,101.3z M129,101.2l-1.6,4.7l0.2,0.1l0.2,0.1L129,101.2z M133.9,87l-0.2,5l0.1,0h0.1V87z
	 M134.2,97.2l-0.5-5l0,0l0,0L134.2,97.2z M123.7,111c0-0.6,0.3-1.4,1-2c0.6-0.5,1.3-0.6,1.6-0.6v10c1.5,0,3.3-0.4,4.8-1.7
	c1.6-1.4,2.5-3.3,2.5-5.4L123.7,111z M126.4,108.3c0.4,0,1,0.1,1.6,0.6c0.7,0.5,1.2,1.4,1.2,2.4h-10c0,5.1,4.5,7,7.3,7V108.3z
	 M129.1,111.3L129.1,111.3L129.1,111.3C129.1,111.3,129.1,111.3,129.1,111.3L129.1,111.3L129.1,111.3L129.1,111.3L129.1,111.3
	L129.1,111.3L129.1,111.3L129.1,111.3C129.1,111.3,129.1,111.3,129.1,111.3L129.1,111.3L129.1,111.3L129.1,111.3
	C129.1,111.3,129.1,111.3,129.1,111.3L129.1,111.3L129.1,111.3L129.1,111.3L129.1,111.3C129.1,111.3,129.1,111.3,129.1,111.3
	L129.1,111.3L129.1,111.3L129.1,111.3L129.1,111.3L129.1,111.3L129.1,111.3L129.1,111.3C129.1,111.3,129.1,111.3,129.1,111.3
	L129.1,111.3L129.1,111.3L129.1,111.3C129.1,111.3,129.1,111.3,129.1,111.3L129.1,111.3L129.1,111.3L129.1,111.3L129.1,111.3
	C129.1,111.3,129.1,111.3,129.1,111.3L129.1,111.3L129.1,111.3L129.1,111.3L129.1,111.3L129.1,111.3L129.1,111.3L129.1,111.3
	C129.1,111.3,129.1,111.3,129.1,111.3L129.1,111.3L129.1,111.3L129.1,111.3L129.1,111.3C129.1,111.3,129.1,111.3,129.1,111.3
	L129.1,111.3L129.1,111.3L129.1,111.3C129.1,111.3,129.1,111.3,129.1,111.3L129.1,111.3L129.1,111.3L129.1,111.3L129.1,111.3
	L129.1,111.3L129.1,111.3L129.1,111.3C129.1,111.3,129.1,111.3,129.1,111.3L129.1,111.3L129.1,111.3L129.1,111.3L129.1,111.3
	C129.1,111.3,129.1,111.3,129.1,111.3L129.1,111.3L129.1,111.3L129.1,111.3L129.1,111.3L129.1,111.3L129.1,111.3L129.1,111.3
	C129.1,111.3,129.1,111.3,129.1,111.3L129.1,111.3L129.1,111.3L129.1,111.3C129.1,111.3,129.1,111.3,129.1,111.3L129.1,111.3
	L129.1,111.3L129.1,111.3L129.1,111.3C129.1,111.3,129.1,111.3,129.1,111.3L129.1,111.3L129.1,111.3L129.1,111.3L129.1,111.3
	L129.1,111.3L129.1,111.3L129.1,111.3C129.1,111.3,129.1,111.3,129.1,111.3L129.1,111.3L129.1,111.3L129.1,111.3
	C129.1,111.3,129.1,111.3,129.1,111.3L129.1,111.3L129.1,111.3L129.1,111.3L129.1,111.3C129.1,111.3,129.1,111.3,129.1,111.3
	L129.1,111.3L129.1,111.3L129.1,111.3L129.1,111.3L129.1,111.3L129.1,111.3L129.1,111.3C129.1,111.3,129.1,111.3,129.1,111.3
	L129.1,111.3L129.1,111.3L129.1,111.3L129.1,111.3C129.1,111.3,129.1,111.3,129.1,111.3L129.1,111.3L129.1,111.3L129.1,111.3
	C129.1,111.3,129.1,111.3,129.1,111.3L129.1,111.3L129.1,111.3L129.1,111.3L129.1,111.3L129.1,111.3L129.1,111.3L129.1,111.3
	C129.1,111.3,129.1,111.3,129.1,111.3L129.1,111.3L129.1,111.3L129.1,111.3L129.1,111.3C129.1,111.2,129.1,111.2,129.1,111.3
	L129.1,111.3L129.1,111.3L129.1,111.3L129.1,111.3L129.1,111.3L129.1,111.3L129.1,111.3C129.1,111.2,129.1,111.2,129.1,111.3
	L129.1,111.3L129.1,111.3L129.1,111.3C129.1,111.2,129.1,111.2,129.1,111.3L129.1,111.3L129.1,111.3L129.1,111.3L129.1,111.3
	C129.1,111.2,129.1,111.2,129.1,111.3L129.1,111.3L129.1,111.3L129.1,111.3L129.1,111.3L129.1,111.3L129.1,111.3L129.1,111.3
	C129.1,111.2,129.1,111.2,129.1,111.3L129.1,111.3L129.1,111.3L129.1,111.3L129.1,111.3C129.1,111.2,129.1,111.2,129.1,111.3
	L129.1,111.3L129.1,111.3L129.1,111.3C129.1,111.2,129.1,111.2,129.1,111.3L129.1,111.3L129.1,111.3L129.1,111.3L129.1,111.3
	L129.1,111.3L129.1,111.3L129.1,111.3C129.1,111.2,129.1,111.2,129.1,111.3L129.1,111.3L129.1,111.3L129.1,111.3L129.1,111.3
	C129.1,111.2,129.1,111.2,129.1,111.3L129.1,111.3L129.1,111.3L129.1,111.3C129.1,111.2,129.1,111.2,129.1,111.3L129.1,111.3
	L129.1,111.3L129.1,111.3L129.1,111.3L129.1,111.3L129.1,111.3L129.1,111.3C129.1,111.2,129.1,111.2,129.1,111.3L129.1,111.3
	L129.1,111.3L129.1,111.3L129.1,111.3C129.1,111.2,129.1,111.2,129.1,111.3L129.1,111.3L129.1,111.3L129.1,111.3L129.1,111.3
	L129.1,111.3L129.1,111.3L129.1,111.3L129.1,111.3L129.1,111.3L129.1,111.3L129.1,111.3C129.1,111.2,129.1,111.2,129.1,111.3
	L129.1,111.3L129.1,111.3L129.1,111.3L129.1,111.3C129.1,111.2,129.1,111.2,129.1,111.3L129.1,111.3L129.1,111.3L129.1,111.3
	L129.1,111.3L129.1,111.3L129.1,111.3L129.1,111.3C129.1,111.2,129.1,111.2,129.1,111.3L129.1,111.3L129.1,111.3L129.1,111.3
	L129.1,111.3C129.1,111.2,129.1,111.2,129.1,111.3L129.1,111.3L129.1,111.3L129.1,111.3C129.1,111.2,129.1,111.2,129.1,111.3
	L129.1,111.3L129.1,111.3L129.1,111.3L129.1,111.3L129.1,111.3L129.1,111.3L129.1,111.3C129.1,111.2,129.1,111.2,129.1,111.3
	L129.1,111.3L129.1,111.3L129.1,111.3L129.1,111.3C129.1,111.2,129.1,111.2,129.1,111.3L129.1,111.3L129.1,111.3L129.1,111.3
	C129.1,111.2,129.1,111.2,129.1,111.3L129.1,111.3L129.1,111.3L129.1,111.3L129.1,111.3L129.1,111.3L129.1,111.3L129.1,111.3
	C129.1,111.2,129.1,111.2,129.1,111.3L129.1,111.3L129.1,111.3L129.1,111.3L129.1,111.3C129.1,111.2,129.1,111.2,129.1,111.3
	L129.1,111.3L129.1,111.3L129.1,111.3L129.1,111.3L129.1,111.3L129.1,111.3L129.1,111.3L129.1,111.3L129.1,111.3L129.1,111.3
	L129.1,111.3C129.1,111.2,129.1,111.2,129.1,111.3L129.1,111.3L129.1,111.3L129.1,111.3L129.1,111.3
	C129.1,111.2,129.1,111.2,129.1,111.3L129.1,111.3L129.1,111.3L129.1,111.3L129.1,111.3L129.1,111.3L129.1,111.3L129.1,111.3
	C129.1,111.2,129.1,111.2,129.1,111.3L129.1,111.3L129.1,111.3L129.1,111.3L129.1,111.3C129.1,111.2,129.1,111.2,129.1,111.3
	L129.1,111.3L129.1,111.3L129.1,111.3C129.1,111.2,129.1,111.2,129.1,111.3L129.1,111.3L129.1,111.3L129.1,111.3L129.1,111.3
	L129.1,111.3L129.1,111.3L129.1,111.3C129.1,111.2,129.1,111.2,129.1,111.3L129.1,111.3L129.1,111.3L129.1,111.3L129.1,111.3
	C129.1,111.2,129.1,111.2,129.1,111.3L129.1,111.3L129.1,111.3L129.1,111.3L129.1,111.3L129.1,111.3L129.1,111.3L129.1,111.3
	L129.1,111.3L129.1,111.3L129.1,111.3L129.1,111.3C129.1,111.2,129.1,111.2,129.1,111.3L129.1,111.3L129.1,111.3L129.1,111.3
	L129.1,111.3C129.1,111.2,129.1,111.2,129.1,111.3L129.1,111.3L129.1,111.3L129.1,111.3L129.1,111.3L129.1,111.3L129.1,111.3
	L129.1,111.3L129.1,111.3L129.1,111.3L129.1,111.3L129.1,111.3C129.1,111.2,129.1,111.2,129.1,111.3L129.1,111.3L129.1,111.3
	L129.1,111.3L129.1,111.3C129.1,111.2,129.1,111.2,129.1,111.3L129.1,111.3L129.1,111.3L129.1,111.3L129.1,111.3L129.1,111.3
	L129.1,111.3L129.1,111.3C129.1,111.2,129.1,111.2,129.1,111.3L129.1,111.3L129.1,111.3L129.1,111.3
	C129.1,111.2,129.1,111.2,129.1,111.3L129.1,111.3L129.1,111.3L129.1,111.3L129.1,111.3C129.1,111.2,129.1,111.2,129.1,111.3
	L129.1,111.3L129.1,111.3L129.1,111.3L129.1,111.3L129.1,111.3L129.1,111.3L129.1,111.3C129.1,111.2,129.1,111.2,129.1,111.3
	L129.1,111.3L129.1,111.3L129.1,111.3L129.1,111.3C129.1,111.2,129.1,111.2,129.1,111.3L129.1,111.3L129.1,111.3L129.1,111.3
	L129.1,111.3L129.1,111.3L129.1,111.3L129.1,111.3L129.1,111.3L129.1,111.3L129.1,111.3L129.1,111.3
	C129.1,111.2,129.1,111.2,129.1,111.3L129.1,111.3L129.1,111.3L129.1,111.3L129.1,111.3C129.1,111.2,129.1,111.2,129.1,111.3
	L129.1,111.3L129.1,111.3L129.1,111.3L129.1,111.3L129.1,111.3L129.1,111.3L129.1,111.3C129.1,111.2,129.1,111.2,129.1,111.3
	L129.1,111.3L129.1,111.3L129.1,111.3C129.1,111.2,129.1,111.2,129.1,111.3L129.1,111.3L129.1,111.3L129.1,111.3L129.1,111.3
	C129.1,111.2,129.1,111.2,129.1,111.3L129.1,111.3L129.1,111.3L129.1,111.3L129.1,111.3L129.1,111.3L129.1,111.3L129.1,111.3
	C129.1,111.2,129.1,111.2,129.1,111.3L129.1,111.3L129.1,111.3L129.1,111.3C129.1,111.2,129.1,111.2,129.1,111.3L129.1,111.3
	L129.1,111.3L129.1,111.3L129.1,111.3C129.1,111.2,129.1,111.2,129.1,111.3L129.1,111.3L129.1,111.3L129.1,111.3L129.1,111.3
	L129.1,111.3L129.1,111.3L129.1,111.3c0-0.1,0-0.1,0-0.1l0,0l0,0l0,0l0,0c0,0,0,0,0,0l0,0l0,0l0,0v0l0,0l0,0l0,0v0l0,0l0,0l0,0
	c0,0,0,0,0,0l0,0l0,0l0,0l0,0c0,0,0,0,0,0l0,0l0,0l0,0v0l0,0l0,0l0,0c0,0,0,0,0,0l0,0l0,0l0,0c0,0,0,0,0,0l0,0l0,0l0,0l0,0
	c0,0,0,0,0,0l0,0l0,0l0,0v0l0,0l0,0l0,0c0,0,0,0,0,0l0,0l0,0l0,0c0,0,0,0,0,0l0,0l0,0l0,0l0,0c0,0,0,0,0,0l0,0l0,0l0,0v0l0,0l0,0
	l0,0c0,0,0,0,0,0l0,0l0,0l0,0l0,0c0,0,0,0,0,0l0,0l0,0l0,0c0,0,0,0,0,0l0,0l0,0l0,0v0l0,0l0,0l0,0c0,0,0,0,0,0l0,0l0,0h-10l0,0l0,0
	c0,0,0,0,0,0l0,0l0,0l0,0v0l0,0l0,0l0,0c0,0,0,0,0,0l0,0l0,0l0,0c0,0,0,0,0,0l0,0l0,0l0,0l0,0c0,0,0,0,0,0l0,0l0,0l0,0v0l0,0l0,0
	l0,0c0,0,0,0,0,0l0,0l0,0l0,0l0,0c0,0,0,0,0,0l0,0l0,0l0,0c0,0,0,0,0,0l0,0l0,0l0,0v0l0,0l0,0l0,0c0,0,0,0,0,0l0,0l0,0l0,0l0,0
	c0,0,0,0,0,0l0,0l0,0l0,0c0,0,0,0,0,0l0,0l0,0l0,0v0l0,0l0,0l0,0c0,0,0,0,0,0l0,0l0,0l0,0l0,0c0,0,0,0,0,0l0,0l0,0l0,0v0l0,0l0,0
	l0,0v0l0,0l0,0l0,0c0,0,0,0,0,0l0,0l0,0l0,0l0,0c0,0,0,0,0,0l0,0l0,0l0,0v0l0,0l0,0l0,0c0,0,0,0,0,0l0,0l0,0l0,0l0,0c0,0,0,0,0,0
	l0,0l0,0l0,0c0,0,0,0,0,0l0,0l0,0l0,0v0l0,0l0,0l0,0c0,0,0,0,0,0l0,0l0,0l0,0l0,0c0,0,0,0,0,0l0,0l0,0l0,0c0,0,0,0,0,0l0,0l0,0l0,0
	v0l0,0l0,0l0,0c0,0,0,0,0,0l0,0l0,0l0,0l0,0c0,0,0,0,0,0l0,0l0,0l0,0v0l0,0l0,0l0,0v0l0,0l0,0l0,0c0,0,0,0,0,0l0,0l0,0l0,0l0,0
	c0,0,0,0,0,0l0,0l0,0l0,0v0l0,0l0,0l0,0c0,0,0,0,0,0l0,0l0,0l0,0l0,0c0,0,0,0,0,0l0,0l0,0l0,0c0,0,0,0,0,0l0,0l0,0l0,0v0l0,0l0,0
	l0,0c0,0,0,0,0,0l0,0l0,0l0,0l0,0c0,0,0,0,0,0l0,0l0,0l0,0v0l0,0l0,0l0,0v0l0,0l0,0l0,0c0,0,0,0,0,0l0,0l0,0l0,0l0,0c0,0,0,0,0,0
	l0,0l0,0l0,0v0l0,0l0,0l0,0v0l0,0l0,0l0,0c0,0,0,0,0,0l0,0l0,0l0,0l0,0c0,0,0,0,0,0l0,0l0,0l0,0v0l0,0l0,0l0,0c0,0,0,0,0,0l0,0l0,0
	l0,0c0,0,0,0,0,0l0,0l0,0l0,0l0,0c0,0,0,0,0,0l0,0l0,0l0,0v0l0,0l0,0l0,0c0,0,0,0,0,0l0,0l0,0l0,0l0,0c0,0,0,0,0,0l0,0l0,0l0,0v0
	l0,0l0,0l0,0v0l0,0l0,0l0,0c0,0,0,0,0,0l0,0l0,0l0,0l0,0c0,0,0,0,0,0l0,0l0,0l0,0v0l0,0l0,0l0,0c0,0,0,0,0,0l0,0l0,0l0,0
	c0,0,0,0,0,0l0,0l0,0l0,0l0,0c0,0,0,0,0,0l0,0l0,0l0,0v0l0,0l0,0l0,0c0,0,0,0,0,0l0,0l0,0l0,0c0,0,0,0,0,0l0,0l0,0l0,0l0,0
	c0,0,0,0,0,0l0,0l0,0l0,0v0l0,0l0,0l0,0c0,0,0,0,0,0l0,0l0,0l0,0l0,0c0,0,0,0,0,0l0,0l0,0l0,0v0l0,0l0,0l0,0v0l0,0l0,0l0,0
	c0,0,0,0,0,0l0,0l0,0l0,0l0,0c0,0,0,0,0,0l0,0l0,0l0,0v0l0,0l0,0l0,0c0,0,0,0,0,0l0,0l0,0l0,0c0,0,0,0,0,0l0,0l0,0l0,0l0,0
	c0,0,0,0,0,0l0,0l0,0l0,0v0l0,0l0,0l0,0c0,0,0,0,0,0l0,0l0,0l0,0c0,0,0,0,0,0l0,0l0,0l0,0l0,0c0,0,0,0,0,0l0,0l0,0l0,0v0l0,0l0,0
	l0,0c0,0,0,0,0,0l0,0l0,0l0,0l0,0c0,0,0,0,0,0l0,0l0,0l0,0c0,0,0,0,0,0l0,0l0,0l0,0v0l0,0l0,0l0,0c0,0,0,0,0,0l0,0l0,0l0,0l0,0
	c0,0,0,0,0,0l0,0l0,0l0,0v0l0,0l0,0l0,0c0,0,0,0,0,0l0,0l0,0l0,0c0,0,0,0,0,0l0,0l0,0l0,0l0,0c0,0,0,0,0,0l0,0l0,0l0,0v0l0,0l0,0
	l0,0c0,0,0,0,0,0l0,0l0,0l0,0l0,0c0,0,0,0,0,0l0,0l0,0l0,0c0,0,0,0,0,0l0,0l0,0l0,0v0l0,0l0,0l0,0c0,0,0,0,0,0l0,0l0,0l0,0l0,0
	c0,0,0,0,0,0l0,0l0,0l0,0c0,0,0,0,0,0l0,0l0,0l0,0v0l0,0l0,0l0,0c0,0,0,0,0,0l0,0l0,0l0,0l0,0c0,0,0,0,0,0l0,0l0,0l0,0v0l0,0l0,0
	l0,0c0,0,0,0,0,0l0,0l0,0l0,0c0,0,0,0,0,0l0,0l0,0l0,0l0,0c0,0,0,0,0,0l0,0l0,0l0,0v0l0,0l0,0l0,0c0,0,0,0,0,0l0,0l0,0l0,0l0,0
	c0,0,0,0,0,0l0,0l0,0l0,0c0,0,0,0,0,0l0,0l0,0l0,0v0l0,0l0,0l0,0c0,0,0,0,0,0l0,0l0,0l0,0l0,0c0,0,0,0,0,0l0,0l0,0l0,0c0,0,0,0,0,0
	l0,0l0,0l0,0v0l0,0l0,0l0,0c0,0,0,0,0,0l0,0l0,0H129.1z M129.1,111.4c0.2-3.2,0.2-6.9,0.2-10.3h-10c0,3.4,0,6.8-0.2,9.8L129.1,111.4
	z M129.3,101.1c0-2.1,0-4.1,0-6c0-1.9,0-3.5,0-4.9h-10c0,1.4,0,3.1,0,5c0,1.8,0,3.8,0,5.9H129.3z M129.2,90.3c0-1.3,0-2,0.1-2.6
	c0.1-0.5,0.1-0.3-0.1,0c-0.3,0.4-0.6,0.4-0.2,0.3c0.5-0.1,1.4-0.3,3.1-0.3v-10c-4,0-8.3,0.6-10.8,3.9c-1.2,1.6-1.7,3.4-1.9,4.8
	c-0.2,1.3-0.2,2.8-0.2,3.9H129.2z M132.1,87.7c0.7,0,1.4,0,1.9,0.1l0.7-10c-0.7,0-1.6-0.1-2.6-0.1V87.7z M134,87.8
	c2,0.1,3.1,0.8,3.6,1.4c0.6,0.6,0.9,1.5,0.9,2.6h10c0-3.3-1.1-6.7-3.6-9.3c-2.5-2.7-6.1-4.4-10.4-4.6L134,87.8z M138.6,91.8
	c0,2.2-1.5,4.3-4.2,4.5l1,10c8.5-0.8,13.2-7.8,13.2-14.5H138.6z M134.3,96.4c-0.8,0.1-1.5,0.2-2.3,0.2v10c1.3,0,2.4-0.1,3.5-0.2
	L134.3,96.4z M132,96.5c-0.6,0-1.2-0.1-1.8-0.2l-2.2,9.7c1.5,0.3,2.9,0.4,4.1,0.4V96.5z M130.6,96.5c-0.9-0.3-1.6-0.3-1.9-0.3v10
	c0.1,0-0.2,0-0.4,0c-0.3,0-0.6-0.1-0.9-0.2L130.6,96.5z M128.8,96.2c-0.2,0-1,0-2,0.4c-1.1,0.5-2,1.3-2.5,2.2
	c-0.8,1.3-0.7,2.7-0.7,2.9h10c0,0,0,0.2,0,0.5c0,0.3-0.2,0.9-0.6,1.6c-0.5,0.9-1.3,1.6-2.4,2c-0.9,0.4-1.7,0.4-1.8,0.4V96.2z
	 M123.6,101.6c0,1.3,0,2.7,0.1,4c0,1.4,0.1,2.7,0.1,3.9h10c0-1.4,0-2.8-0.1-4.2c0-1.4-0.1-2.6-0.1-3.8H123.6z M123.7,109.6
	C123.7,109.6,123.7,109.6,123.7,109.6C123.7,109.6,123.7,109.6,123.7,109.6C123.7,109.6,123.7,109.6,123.7,109.6
	C123.7,109.6,123.7,109.6,123.7,109.6C123.7,109.6,123.7,109.6,123.7,109.6C123.7,109.6,123.7,109.6,123.7,109.6
	C123.7,109.6,123.7,109.6,123.7,109.6C123.7,109.6,123.7,109.6,123.7,109.6C123.7,109.6,123.7,109.6,123.7,109.6
	C123.7,109.6,123.7,109.6,123.7,109.6C123.7,109.6,123.7,109.6,123.7,109.6C123.7,109.6,123.7,109.6,123.7,109.6
	C123.7,109.6,123.7,109.6,123.7,109.6C123.7,109.6,123.7,109.6,123.7,109.6C123.7,109.6,123.7,109.6,123.7,109.6
	C123.7,109.6,123.7,109.6,123.7,109.6C123.7,109.6,123.7,109.6,123.7,109.6C123.7,109.6,123.7,109.6,123.7,109.6
	C123.7,109.6,123.7,109.6,123.7,109.6C123.7,109.6,123.7,109.6,123.7,109.6C123.7,109.6,123.7,109.6,123.7,109.6
	C123.7,109.6,123.7,109.6,123.7,109.6C123.7,109.6,123.7,109.6,123.7,109.6C123.7,109.6,123.7,109.6,123.7,109.6
	C123.7,109.6,123.7,109.6,123.7,109.6C123.7,109.6,123.7,109.6,123.7,109.6C123.7,109.6,123.7,109.6,123.7,109.6
	C123.7,109.6,123.7,109.6,123.7,109.6C123.7,109.6,123.7,109.6,123.7,109.6C123.7,109.6,123.7,109.7,123.7,109.6
	C123.7,109.7,123.7,109.7,123.7,109.6C123.7,109.7,123.7,109.7,123.7,109.6c0,0.1,0,0.1,0,0.1s0,0,0,0s0,0,0,0s0,0,0,0s0,0,0,0
	c0,0,0,0,0,0s0,0,0,0s0,0,0,0s0,0,0,0s0,0,0,0c0,0,0,0,0,0s0,0,0,0s0,0,0,0s0,0,0,0s0,0,0,0s0,0,0,0s0,0,0,0s0,0,0,0s0,0,0,0
	c0,0,0,0,0,0s0,0,0,0s0,0,0,0s0,0,0,0s0,0,0,0s0,0,0,0s0,0,0,0s0,0,0,0s0,0,0,0c0,0,0,0,0,0s0,0,0,0s0,0,0,0s0,0,0,0s0,0,0,0
	s0,0,0,0s0,0,0,0s0,0,0,0s0,0,0,0c0,0,0,0,0,0s0,0,0,0s0,0,0,0s0,0,0,0s0,0,0,0c0,0,0,0,0,0c0,0,0,0,0,0s0,0,0,0s0,0,0,0
	c0,0,0,0,0,0s0,0,0,0s0,0,0,0s0,0,0,0s0,0,0,0c0,0,0,0,0,0s0,0,0,0s0,0,0,0s0,0,0,0s0,0,0,0s0,0,0,0s0,0,0,0s0,0,0,0s0,0,0,0
	c0,0,0,0,0,0s0,0,0,0s0,0,0,0s0,0,0,0c0,0,0,0,0,0s0,0,0,0s0,0,0,0s0,0,0,0s0,0,0,0c0,0,0,0,0,0s0,0,0,0s0,0,0,0s0,0,0,0s0,0,0,0
	s0,0,0,0s0,0,0,0s0,0,0,0s0,0,0,0c0,0,0,0,0,0s0,0,0,0s0,0,0,0s0,0,0,0s0,0,0,0c0,0,0,0,0,0s0,0,0,0s0,0,0,0s0,0,0,0c0,0,0,0,0,0
	s0,0,0,0s0,0,0,0s0,0,0,0s0,0,0,0c0,0,0,0,0,0s0,0,0,0s0,0,0,0s0,0,0,0s0,0,0,0s0,0,0,0s0,0,0,0s0,0,0,0s0,0,0,0c0,0,0,0,0,0
	s0,0,0,0s0,0,0,0s0,0,0,0s0,0,0,0c0,0,0,0,0,0c0,0,0,0,0,0s0,0,0,0s0,0,0,0c0,0,0,0,0,0s0,0,0,0s0,0,0,0s0,0,0,0s0,0,0,0s0,0,0,0
	s0,0,0,0s0,0,0,0s0,0,0,0c0,0,0,0,0,0s0,0,0,0s0,0,0,0s0,0,0,0s0,0,0,0c0,0,0,0,0,0s0,0,0,0s0,0,0,0s0,0,0,0c0,0,0,0,0,0s0,0,0,0
	s0,0,0,0s0,0,0,0s0,0,0,0c0,0,0,0,0,0s0,0,0,0s0,0,0,0s0,0,0,0s0,0,0,0s0,0,0,0s0,0,0,0s0,0,0,0s0,0,0,0c0,0,0,0,0,0s0,0,0,0
	s0,0,0,0s0,0,0,0s0,0,0,0c0,0,0,0,0,0s0,0,0,0s0,0,0,0s0,0,0,0c0,0,0,0,0,0s0,0,0,0s0,0,0,0s0,0,0,0s0,0,0,0s0,0,0,0s0,0,0,0
	s0,0,0,0s0,0,0,0c0,0,0,0,0,0s0,0,0,0s0,0,0,0s0,0,0,0s0,0,0,0c0,0,0,0,0,0s0,0,0,0s0,0,0,0s0,0,0,0s0,0,0,0s0,0,0,0s0,0,0,0
	s0,0,0,0s0,0,0,0c0,0,0,0,0,0s0,0,0,0s0,0,0,0s0,0,0,0s0,0,0,0s0,0,0,0s0,0,0,0s0,0,0,0s0,0,0,0c0,0,0,0,0,0s0,0,0,0s0,0,0,0
	s0,0,0,0s0,0,0,0c0,0,0,0,0,0s0,0,0,0s0,0,0,0s0,0,0,0c0,0,0,0,0,0s0,0,0,0s0,0,0,0s0,0,0,0s0,0,0,0s0,0,0,0s0,0,0,0s0,0,0,0
	s0,0,0,0c0,0,0,0,0,0s0,0,0,0s0,0,0,0s0,0,0,0s0,0,0,0c0,0,0,0,0,0s0,0,0,0s0,0,0,0s0,0,0,0s0,0,0,0s0,0,0,0s0,0,0,0s0,0,0,0
	s0,0,0,0c0,0,0,0,0,0s0,0,0,0s0,0,0,0s0,0,0,0s0,0,0,0s0,0,0,0s0,0,0,0s0,0,0,0s0,0,0,0c0,0,0,0,0,0s0,0,0,0s0,0,0,0s0,0,0,0
	s0,0,0,0c0,0,0,0,0,0s0,0,0,0s0,0,0,0s0,0,0,0s0,0,0,0s0,0,0,0s0,0,0,0s0,0,0,0s0,0,0,0s0,0,0,0s0,0,0,0s0,0,0,0s0,0,0,0
	c0,0,0,0,0,0s0,0,0,0s0,0,0,0s0,0,0,0s0,0,0,0c0,0,0,0,0,0s0,0,0,0s0,0,0,0s0,0,0,0s0,0,0,0s0,0,0,0s0,0,0,0s0,0,0,0s0,0,0,0
	c0,0,0,0,0,0s0,0,0,0s0,0,0,0s0,0,0,0s0,0,0,0s0,0,0,0s0,0,0,0s0,0,0,0s0,0,0,0c0,0,0,0,0,0s0,0,0,0s0,0,0,0s0,0,0,0s0,0,0,0
	c0,0,0,0,0,0s0,0,0,0s0,0,0,0s0,0,0,0s0,0,0,0s0,0,0,0s0,0,0,0s0,0,0,0s0,0,0,0s0,0,0,0s0,0,0,0s0,0,0,0s0,0,0,0c0,0,0,0,0,0
	s0,0,0,0s0,0,0,0s0,0,0,0s0,0,0,0c0,0,0,0,0,0s0,0,0,0s0,0,0,0s0,0,0,0s0,0,0,0s0,0,0,0s0,0,0,0s0,0,0,0s0,0,0,0c0,0,0,0,0,0
	s0,0,0,0s0,0,0,0s0,0,0,0s0,0,0,0s0,0,0,0s0,0,0,0s0,0,0,0s0,0,0,0c0,0,0,0,0,0s0,0,0,0s0,0,0,0s0,0,0,0s0,0,0,0c0,0,0,0,0,0
	s0,0,0,0s0,0,0,0s0,0,0,0s0,0,0,0s0,0,0,0s0,0,0,0s0,0,0,0s0,0,0,0c0,0,0,0,0,0s0,0,0,0s0,0,0,0s0,0,0,0c0,0,0,0,0,0s0,0,0,0
	s0,0,0,0s0,0,0,0s0,0,0,0c0,0,0,0,0,0s0,0,0,0s0,0,0,0s0,0,0,0s0,0,0,0s0,0,0,0s0,0,0,0s0,0,0,0s0,0,0,0c0,0,0,0,0,0s0,0,0,0
	s0,0,0,0s0,0,0,0s0,0,0,0s0,0,0,0s0,0,0,0s0,0,0,0s0,0,0,0c0,0,0,0,0,0s0,0,0,0s0,0,0,0s0,0,0,0s0,0,0,0c0,0,0,0,0,0s0,0,0,0
	s0,0,0,0s0,0,0,0s0,0,0,0s0,0,0,0s0,0,0,0s0,0,0,0s0,0,0,0c0,0,0,0,0,0s0,0,0,0s0,0,0,0s0,0,0,0c0,0,0,0,0,0s0,0,0,0s0,0,0,0
	s0,0,0,0s0,0,0,0c0,0,0,0,0,0s0,0,0,0s0,0,0,0s0,0,0,0s0,0,0,0s0,0,0,0s0,0,0,0s0,0,0,0s0,0,0,0c0,0,0,0,0,0s0,0,0,0s0,0,0,0
	s0,0,0,0s0,0,0,0c0,0,0,0,0,0s0,0,0,0s0,0,0,0s0,0,0,0c0,0,0,0,0,0s0,0,0,0s0,0,0,0s0,0,0,0s0,0,0,0c0,0,0,0,0,0s0,0,0,0s0,0,0,0
	s0,0,0,0s0,0,0,0s0,0,0,0s0,0,0,0s0,0,0,0s0,0,0,0c0,0,0,0,0,0s0,0,0,0s0,0,0,0s0,0,0,0c0,0,0,0,0,0s0,0,0,0s0,0,0,0s0,0,0,0
	s0,0,0,0c0,0,0,0,0,0s0,0,0,0s0,0,0,0s0,0,0,0s0,0,0,0s0,0,0,0s0,0,0,0s0,0,0,0s0,0,0,0c0,0,0,0,0,0s0,0,0,0s0,0,0,0s0,0,0,0
	s0,0,0,0c0,0,0,0,0,0s0,0,0,0s0,0,0,0s0,0,0,0c0,0,0,0,0,0s0,0,0,0s0,0,0,0s0,0,0,0s0,0,0,0c0,0,0,0,0,0s0,0,0,0s0,0,0,0s0,0,0,0
	s0,0,0,0s0,0,0,0s0,0,0,0s0,0,0,0s0,0,0,0c0,0,0,0,0,0s0,0,0,0s0,0,0,0s0,0,0,0s0,0,0,0c0,0,0,0,0,0s0,0,0,0s0,0,0,0s0,0,0,0
	c0,0,0,0,0,0s0,0,0,0s0,0,0,0s0,0,0,0s0,0,0,0s0,0,0,0s0,0,0,0s0,0,0,0s0,0,0,0c0,0,0,0,0,0s0,0,0,0s0,0,0,0s0,0,0,0s0,0,0,0
	c0,0,0,0,0,0s0,0,0,0s0,0,0,0c0,0,0,0,0,0c0,0,0,0,0,0s0,0,0,0s0,0,0,0s0,0,0,0s0,0,0,0c0,0,0,0,0,0s0,0,0,0s0,0,0,0s0,0,0,0
	s0,0,0,0h10c0,0,0,0,0,0s0,0,0,0s0,0,0,0s0,0,0,0s0,0,0,0c0,0,0,0,0,0s0,0,0,0s0,0,0,0s0,0,0,0s0,0,0,0c0,0,0,0,0,0c0,0,0,0,0,0
	s0,0,0,0s0,0,0,0c0,0,0,0,0,0s0,0,0,0s0,0,0,0s0,0,0,0s0,0,0,0c0,0,0,0,0,0s0,0,0,0s0,0,0,0s0,0,0,0s0,0,0,0s0,0,0,0s0,0,0,0
	s0,0,0,0s0,0,0,0c0,0,0,0,0,0s0,0,0,0s0,0,0,0s0,0,0,0c0,0,0,0,0,0s0,0,0,0s0,0,0,0s0,0,0,0s0,0,0,0c0,0,0,0,0,0s0,0,0,0s0,0,0,0
	s0,0,0,0s0,0,0,0s0,0,0,0s0,0,0,0s0,0,0,0s0,0,0,0c0,0,0,0,0,0s0,0,0,0s0,0,0,0s0,0,0,0s0,0,0,0c0,0,0,0,0,0s0,0,0,0s0,0,0,0
	s0,0,0,0c0,0,0,0,0,0s0,0,0,0s0,0,0,0s0,0,0,0s0,0,0,0c0,0,0,0,0,0s0,0,0,0s0,0,0,0s0,0,0,0s0,0,0,0s0,0,0,0s0,0,0,0s0,0,0,0
	s0,0,0,0c0,0,0,0,0,0s0,0,0,0s0,0,0,0s0,0,0,0s0,0,0,0c0,0,0,0,0,0s0,0,0,0s0,0,0,0s0,0,0,0c0,0,0,0,0,0s0,0,0,0s0,0,0,0s0,0,0,0
	s0,0,0,0s0,0,0,0s0,0,0,0s0,0,0,0s0,0,0,0c0,0,0,0,0,0s0,0,0,0s0,0,0,0s0,0,0,0s0,0,0,0c0,0,0,0,0,0s0,0,0,0s0,0,0,0s0,0,0,0
	c0,0,0,0,0,0s0,0,0,0s0,0,0,0s0,0,0,0s0,0,0,0c0,0,0,0,0,0s0,0,0,0s0,0,0,0s0,0,0,0s0,0,0,0s0,0,0,0s0,0,0,0s0,0,0,0s0,0,0,0
	c0,0,0,0,0,0s0,0,0,0s0,0,0,0s0,0,0,0s0,0,0,0c0,0,0,0,0,0s0,0,0,0s0,0,0,0s0,0,0,0c0,0,0,0,0,0s0,0,0,0s0,0,0,0s0,0,0,0s0,0,0,0
	s0,0,0,0s0,0,0,0s0,0,0,0s0,0,0,0c0,0,0,0,0,0s0,0,0,0s0,0,0,0s0,0,0,0s0,0,0,0c0,0,0,0,0,0s0,0,0,0s0,0,0,0s0,0,0,0s0,0,0,0
	s0,0,0,0s0,0,0,0s0,0,0,0s0,0,0,0c0,0,0,0,0,0s0,0,0,0s0,0,0,0s0,0,0,0s0,0,0,0s0,0,0,0s0,0,0,0s0,0,0,0s0,0,0,0c0,0,0,0,0,0
	s0,0,0,0s0,0,0,0s0,0,0,0s0,0,0,0c0,0,0,0,0,0s0,0,0,0s0,0,0,0s0,0,0,0c0,0,0,0,0,0s0,0,0,0s0,0,0,0s0,0,0,0s0,0,0,0s0,0,0,0
	s0,0,0,0s0,0,0,0s0,0,0,0c0,0,0,0,0,0s0,0,0,0s0,0,0,0s0,0,0,0s0,0,0,0c0,0,0,0,0,0s0,0,0,0s0,0,0,0s0,0,0,0s0,0,0,0s0,0,0,0
	s0,0,0,0s0,0,0,0s0,0,0,0c0,0,0,0,0,0s0,0,0,0s0,0,0,0s0,0,0,0s0,0,0,0s0,0,0,0s0,0,0,0s0,0,0,0s0,0,0,0c0,0,0,0,0,0s0,0,0,0
	s0,0,0,0s0,0,0,0s0,0,0,0c0,0,0,0,0,0s0,0,0,0s0,0,0,0s0,0,0,0s0,0,0,0s0,0,0,0s0,0,0,0s0,0,0,0s0,0,0,0s0,0,0,0s0,0,0,0s0,0,0,0
	s0,0,0,0c0,0,0,0,0,0s0,0,0,0s0,0,0,0s0,0,0,0s0,0,0,0c0,0,0,0,0,0s0,0,0,0s0,0,0,0s0,0,0,0s0,0,0,0s0,0,0,0s0,0,0,0s0,0,0,0
	s0,0,0,0c0,0,0,0,0,0s0,0,0,0s0,0,0,0s0,0,0,0s0,0,0,0s0,0,0,0s0,0,0,0s0,0,0,0s0,0,0,0c0,0,0,0,0,0s0,0,0,0s0,0,0,0s0,0,0,0
	s0,0,0,0c0,0,0,0,0,0s0,0,0,0s0,0,0,0s0,0,0,0s0,0,0,0s0,0,0,0s0,0,0,0s0,0,0,0s0,0,0,0s0,0,0,0s0,0,0,0s0,0,0,0s0,0,0,0
	c0,0,0,0,0,0s0,0,0,0s0,0,0,0s0,0,0,0s0,0,0,0c0,0,0,0,0,0s0,0,0,0s0,0,0,0s0,0,0,0s0,0,0,0s0,0,0,0s0,0,0,0s0,0,0,0s0,0,0,0
	c0,0,0,0,0,0s0,0,0,0s0,0,0,0s0,0,0,0s0,0,0,0s0,0,0,0s0,0,0,0s0,0,0,0s0,0,0,0c0,0,0,0,0,0s0,0,0,0s0,0,0,0s0,0,0,0s0,0,0,0
	c0,0,0,0,0,0s0,0,0,0s0,0,0,0s0,0,0,0s0,0,0,0s0,0,0,0s0,0,0,0s0,0,0,0s0,0,0,0c0,0,0,0,0,0s0,0,0,0s0,0,0,0s0,0,0,0c0,0,0,0,0,0
	s0,0,0,0s0,0,0,0s0,0,0,0s0,0,0,0c0,0,0,0,0,0s0,0,0,0s0,0,0,0s0,0,0,0s0,0,0,0s0,0,0,0s0,0,0,0s0,0,0,0s0,0,0,0c0,0,0,0,0,0
	s0,0,0,0s0,0,0,0s0,0,0,0s0,0,0,0s0,0,0,0s0,0,0,0s0,0,0,0s0,0,0,0c0,0,0,0,0,0s0,0,0,0s0,0,0,0s0,0,0,0s0,0,0,0c0,0,0,0,0,0
	s0,0,0,0s0,0,0,0s0,0,0,0s0,0,0,0s0,0,0,0s0,0,0,0s0,0,0,0s0,0,0,0c0,0,0,0,0,0s0,0,0,0s0,0,0,0s0,0,0,0c0,0,0,0,0,0s0,0,0,0
	s0,0,0,0s0,0,0,0s0,0,0,0c0,0,0,0,0,0s0,0,0,0s0,0,0,0s0,0,0,0s0,0,0,0s0,0,0,0s0,0,0,0s0,0,0,0s0,0,0,0c0,0,0,0,0,0s0,0,0,0
	s0,0,0,0s0,0,0,0s0,0,0,0c0,0,0,0,0,0s0,0,0,0s0,0,0,0s0,0,0,0c0,0,0,0,0,0s0,0,0,0s0,0,0,0s0,0,0,0s0,0,0,0c0,0,0,0,0,0s0,0,0,0
	s0,0,0,0s0,0,0,0s0,0,0,0s0,0,0,0s0,0,0,0s0,0,0,0s0,0,0,0c0,0,0,0,0,0s0,0,0,0s0,0,0,0c0,0,0,0,0,0c0,0,0,0,0,0s0,0,0,0s0,0,0,0
	s0,0,0,0s0,0,0,0c0,0,0,0,0,0s0,0,0,0s0,0,0,0s0,0,0,0s0,0,0,0s0,0,0,0s0,0,0,0s0,0,0,0s0,0,0,0c0,0,0,0,0,0s0,0,0,0s0,0,0,0
	s0,0,0,0s0,0,0,0c0,0,0,0,0,0s0,0,0,0s0,0,0,0s0,0,0,0c0,0,0,0,0,0s0,0,0,0s0,0,0,0s0,0,0,0s0,0,0,0c0,0,0,0,0,0s0,0,0,0s0,0,0,0
	s0,0,0,0s0,0,0,0s0,0,0,0s0,0,0,0s0,0,0,0s0,0,0,0c0,0,0,0,0,0s0,0,0,0s0,0,0,0s0,0,0,0s0,0,0,0c0,0,0,0,0,0s0,0,0,0s0,0,0,0
	s0,0,0,0c0,0,0,0,0,0s0,0,0,0s0,0,0,0s0,0,0,0s0,0,0,0s0,0,0,0s0,0,0,0s0,0,0,0s0,0,0,0c0,0,0,0,0,0s0,0,0,0s0,0,0,0s0,0,0,0
	s0,0,0,0c0,0,0,0,0,0s0,0,0,0s0,0,0,0c0,0,0,0,0,0c0,0,0,0,0,0s0,0,0,0s0,0,0,0s0,0,0,0s0,0,0,0c0,0,0,0,0,0s0,0,0,0s0,0,0,0
	s0,0,0,0s0,0,0,0s0,0,0,0s0,0,0,0s0,0,0,0s0,0,0,0c0,0,0,0,0,0s0,0,0,0s0,0,0,0s0,0,0,0s0,0,0,0s0,0,0,0s0,0,0,0s0,0,0,0s0,0,0,0
	c0,0,0,0,0,0s0,0,0,0s0,0,0,0s0,0,0,0s0,0,0,0s0,0,0,0s0,0,0,0s0,0,0,0s0,0,0,0c0,0,0,0,0,0s0,0,0,0s0,0,0,0s0,0,0,0s0,0,0,0
	c0,0,0,0,0,0s0,0,0,0s0,0,0,0s0,0,0,0s0,0,0,0c0,0,0,0,0,0s0,0,0,0s0,0,0,0s0,0,0,0c0,0,0,0,0,0s0,0,0,0s0,0,0,0s0,0,0,0s0,0,0,0
	s0,0,0,0s0,0,0,0s0,0,0,0s0,0,0,0c0,0,0,0,0,0s0,0,0,0s0,0,0,0s0,0,0,0s0,0,0,0s0,0,0,0s0,0,0,0s0,0,0,0c0,0,0,0,0,0c0,0,0,0,0,0
	s0,0,0,0s0,0,0,0s0,0,0,0s0,0,0,0s0,0,0,0s0,0,0,0s0,0,0,0s0,0,0,0c0,0,0,0,0,0H123.7z M133.9,87c0.2-5,0.2-5,0.2-5l0,0h0
	c0,0,0,0,0,0c0,0,0,0,0,0c0,0,0,0,0,0c0,0,0,0,0,0c0,0-0.1,0-0.1,0c-0.1,0-0.3,0-0.5,0c-0.4,0-0.9,0-1.5,0v10c0.4,0,0.8,0,1.2,0
	c0.2,0,0.3,0,0.4,0c0,0,0.1,0,0.1,0c0,0,0,0,0,0c0,0,0,0,0,0c0,0,0,0,0,0s0,0,0,0l0,0l0,0C133.7,92,133.7,92,133.9,87z M132,81.9
	c-0.8,0-1.9,0-2.9,0.2c-1.1,0.2-2.7,0.8-3.9,2.3c-1.1,1.4-1.4,2.9-1.6,3.8c-0.1,0.9-0.1,2-0.1,2.9h10c0-0.4,0-0.8,0-1.1
	c0-0.3,0-0.4,0-0.5c0-0.1,0,0-0.1,0.3c-0.1,0.2-0.3,0.6-0.6,1c-0.3,0.4-0.7,0.7-1.1,0.9c-0.3,0.2-0.6,0.2-0.7,0.3c-0.1,0,0,0,0.1,0
	c0.2,0,0.4,0,0.8,0V81.9z M123.4,91.1c0,0.7,0,1.5,0,2.3c0,0.8,0,1.5,0,2.2h10c0-0.7,0-1.5,0-2.3c0-0.8,0-1.5,0-2.2H123.4z
	 M123.5,95.5C123.5,95.5,123.5,95.5,123.5,95.5C123.5,95.5,123.5,95.5,123.5,95.5C123.5,95.5,123.5,95.5,123.5,95.5
	C123.5,95.5,123.5,95.5,123.5,95.5C123.5,95.5,123.5,95.5,123.5,95.5C123.5,95.5,123.5,95.5,123.5,95.5
	C123.5,95.5,123.5,95.5,123.5,95.5C123.5,95.5,123.5,95.5,123.5,95.5C123.5,95.5,123.5,95.5,123.5,95.5
	C123.5,95.5,123.5,95.5,123.5,95.5C123.5,95.5,123.5,95.5,123.5,95.5C123.5,95.5,123.5,95.5,123.5,95.5
	C123.5,95.5,123.5,95.5,123.5,95.5C123.5,95.5,123.5,95.5,123.5,95.5C123.5,95.5,123.5,95.5,123.5,95.5
	C123.5,95.5,123.5,95.5,123.5,95.5C123.5,95.5,123.5,95.5,123.5,95.5C123.5,95.5,123.5,95.5,123.5,95.5
	C123.5,95.5,123.5,95.5,123.5,95.5C123.5,95.5,123.5,95.5,123.5,95.5C123.5,95.5,123.5,95.5,123.5,95.5
	C123.5,95.5,123.5,95.6,123.5,95.5C123.5,95.6,123.5,95.6,123.5,95.5C123.5,95.6,123.5,95.6,123.5,95.5
	C123.5,95.6,123.5,95.6,123.5,95.5C123.5,95.6,123.5,95.6,123.5,95.5C123.5,95.6,123.5,95.6,123.5,95.5
	C123.5,95.6,123.5,95.6,123.5,95.5C123.5,95.6,123.5,95.6,123.5,95.5C123.5,95.6,123.5,95.6,123.5,95.5
	C123.5,95.6,123.5,95.6,123.5,95.5C123.5,95.6,123.5,95.6,123.5,95.5C123.5,95.6,123.5,95.6,123.5,95.5
	C123.5,95.6,123.5,95.6,123.5,95.5C123.5,95.6,123.5,95.6,123.5,95.5C123.5,95.6,123.5,95.6,123.5,95.5
	C123.5,95.6,123.5,95.6,123.5,95.5C123.5,95.6,123.5,95.6,123.5,95.5C123.5,95.6,123.5,95.6,123.5,95.5
	C123.5,95.6,123.5,95.6,123.5,95.5C123.5,95.6,123.5,95.6,123.5,95.5C123.5,95.6,123.5,95.6,123.5,95.5
	C123.5,95.6,123.5,95.6,123.5,95.5C123.5,95.6,123.5,95.6,123.5,95.5C123.5,95.6,123.5,95.6,123.5,95.5
	C123.5,95.6,123.5,95.6,123.5,95.5C123.5,95.6,123.5,95.6,123.5,95.5C123.5,95.6,123.5,95.6,123.5,95.5
	C123.5,95.6,123.5,95.6,123.5,95.5C123.5,95.6,123.5,95.6,123.5,95.5C123.5,95.6,123.5,95.6,123.5,95.5
	C123.5,95.6,123.5,95.6,123.5,95.5C123.5,95.6,123.5,95.6,123.5,95.5C123.5,95.6,123.5,95.6,123.5,95.5
	C123.5,95.6,123.5,95.6,123.5,95.5C123.5,95.6,123.5,95.6,123.5,95.5C123.5,95.6,123.5,95.6,123.5,95.5
	C123.5,95.6,123.5,95.6,123.5,95.5C123.5,95.6,123.5,95.6,123.5,95.5C123.5,95.6,123.5,95.6,123.5,95.5
	C123.5,95.6,123.5,95.6,123.5,95.5C123.5,95.6,123.5,95.6,123.5,95.5C123.5,95.6,123.5,95.6,123.5,95.5
	C123.5,95.6,123.5,95.6,123.5,95.5C123.5,95.6,123.5,95.6,123.5,95.5C123.5,95.6,123.5,95.6,123.5,95.5
	C123.5,95.6,123.5,95.6,123.5,95.5C123.5,95.6,123.5,95.6,123.5,95.5C123.5,95.6,123.5,95.6,123.5,95.5
	C123.5,95.6,123.5,95.6,123.5,95.5C123.5,95.6,123.5,95.6,123.5,95.5C123.5,95.6,123.5,95.6,123.5,95.5c0,0.1,0,0.1,0,0.1
	c0,0,0,0,0,0c0,0,0,0,0,0c0,0,0,0,0,0c0,0,0,0,0,0c0,0,0,0,0,0c0,0,0,0,0,0c0,0,0,0,0,0c0,0,0,0,0,0c0,0,0,0,0,0c0,0,0,0,0,0
	c0,0,0,0,0,0c0,0,0,0,0,0c0,0,0,0,0,0c0,0,0,0,0,0c0,0,0,0,0,0c0,0,0,0,0,0c0,0,0,0,0,0c0,0,0,0,0,0c0,0,0,0,0,0c0,0,0,0,0,0
	c0,0,0,0,0,0c0,0,0,0,0,0c0,0,0,0,0,0c0,0,0,0,0,0c0,0,0,0,0,0c0,0,0,0,0,0c0,0,0,0,0,0c0,0,0,0,0,0c0,0,0,0,0,0c0,0,0,0,0,0
	c0,0,0,0,0,0c0,0,0,0,0,0s0,0,0,0c0,0,0,0,0,0c0,0,0,0,0,0c0,0,0,0,0,0c0,0,0,0,0,0c0,0,0,0,0,0c0,0,0,0,0,0s0,0,0,0c0,0,0,0,0,0
	c0,0,0,0,0,0c0,0,0,0,0,0c0,0,0,0,0,0c0,0,0,0,0,0c0,0,0,0,0,0c0,0,0,0,0,0c0,0,0,0,0,0c0,0,0,0,0,0c0,0,0,0,0,0c0,0,0,0,0,0
	c0,0,0,0,0,0c0,0,0,0,0,0c0,0,0,0,0,0c0,0,0,0,0,0c0,0,0,0,0,0c0,0,0,0,0,0c0,0,0,0,0,0s0,0,0,0c0,0,0,0,0,0c0,0,0,0,0,0
	c0,0,0,0,0,0c0,0,0,0,0,0c0,0,0,0,0,0c0,0,0,0,0,0c0,0,0,0,0,0c0,0,0,0,0,0c0,0,0,0,0,0c0,0,0,0,0,0c0,0,0,0,0,0c0,0,0,0,0,0
	c0,0,0,0,0,0c0,0,0,0,0,0s0,0,0,0c0,0,0,0,0,0c0,0,0,0,0,0c0,0,0,0,0,0c0,0,0,0,0,0c0,0,0,0,0,0c0,0,0,0,0,0c0,0,0,0,0,0
	c0,0,0,0,0,0c0,0,0,0,0,0c0,0,0,0,0,0c0,0,0,0,0,0c0,0,0,0,0,0c0,0,0,0,0,0c0,0,0,0,0,0c0,0,0,0,0,0c0,0,0,0,0,0c0,0,0,0,0,0
	c0,0,0,0,0,0c0,0,0,0,0,0c0,0,0,0,0,0c0,0,0,0,0,0c0,0,0,0,0,0c0,0,0,0,0,0c0,0,0,0,0,0c0,0,0,0,0,0c0,0,0,0,0,0c0,0,0,0,0,0
	c0,0,0,0,0,0c0,0,0,0,0,0c0,0,0,0,0,0c0,0,0,0,0,0c0,0,0,0,0,0c0,0,0,0,0,0c0,0,0,0,0,0c0,0,0,0,0,0c0,0,0,0,0,0c0,0,0,0,0,0
	c0,0,0,0,0,0c0,0,0,0,0,0c0,0,0,0,0,0c0,0,0,0,0,0c0,0,0,0,0,0c0,0,0,0,0,0c0,0,0,0,0,0c0,0,0,0,0,0c0,0,0,0,0,0c0,0,0,0,0,0
	c0,0,0,0,0,0c0,0,0,0,0,0c0,0,0,0,0,0c0,0,0,0,0,0c0,0,0,0,0,0s0,0,0,0c0,0,0,0,0,0c0,0,0,0,0,0c0,0,0,0,0,0c0,0,0,0,0,0s0,0,0,0
	c0,0,0,0,0,0c0,0,0,0,0,0c0,0,0,0,0,0c0,0,0,0,0,0c0,0,0,0,0,0c0,0,0,0,0,0c0,0,0,0,0,0c0,0,0,0,0,0c0,0,0,0,0,0c0,0,0,0,0,0
	c0,0,0,0,0,0c0,0,0,0,0,0s0,0,0,0c0,0,0,0,0,0c0,0,0,0,0,0c0,0,0,0,0,0c0,0,0,0,0,0c0,0,0,0,0,0c0,0,0,0,0,0c0,0,0,0,0,0s0,0,0,0
	c0,0,0,0,0,0c0,0,0,0,0,0c0,0,0,0,0,0c0,0,0,0,0,0c0,0,0,0,0,0c0,0,0,0,0,0c0,0,0,0,0,0c0,0,0,0,0,0c0,0,0,0,0,0c0,0,0,0,0,0
	c0,0,0,0,0,0c0,0,0,0,0,0s0,0,0,0c0,0,0,0,0,0c0,0,0,0,0,0c0,0,0,0,0,0c0,0,0,0,0,0c0,0,0,0,0,0c0,0,0,0,0,0c0,0,0,0,0,0
	c0,0,0,0,0,0c0,0,0,0,0,0c0,0,0,0,0,0c0,0,0,0,0,0c0,0,0,0,0,0c0,0,0,0,0,0c0,0,0,0,0,0c0,0,0,0,0,0c0,0,0,0,0,0c0,0,0,0,0,0
	c0,0,0,0,0,0c0,0,0,0,0,0c0,0,0,0,0,0c0,0,0,0,0,0c0,0,0,0,0,0c0,0,0,0,0,0c0,0,0,0,0,0c0,0,0,0,0,0s0,0,0,0c0,0,0,0,0,0
	c0,0,0,0,0,0c0,0,0,0,0,0c0,0,0,0,0,0c0,0,0,0,0,0c0,0,0,0,0,0c0,0,0,0,0,0c0,0,0,0,0,0c0,0,0,0,0,0c0,0,0,0,0,0c0,0,0,0,0,0
	c0,0,0,0,0,0c0,0,0,0,0,0c0,0,0,0,0,0c0,0,0,0,0,0c0,0,0,0,0,0c0,0,0,0,0,0c0,0,0,0,0,0c0,0,0,0,0,0c0,0,0,0,0,0s0,0,0,0
	c0,0,0,0,0,0c0,0,0,0,0,0c0,0,0,0,0,0c0,0,0,0,0,0c0,0,0,0,0,0c0,0,0,0,0,0c0,0,0,0,0,0c0,0,0,0,0,0c0,0,0,0,0,0c0,0,0,0,0,0
	c0,0,0,0,0,0c0,0,0,0,0,0s0,0,0,0c0,0,0,0,0,0c0,0,0,0,0,0c0,0,0,0,0,0c0,0,0,0,0,0c0,0,0,0,0,0c0,0,0,0,0,0c0,0,0,0,0,0
	c0,0,0,0,0,0c0,0,0,0,0,0c0,0,0,0,0,0c0,0,0,0,0,0c0,0,0,0,0,0s0,0,0,0c0,0,0,0,0,0c0,0,0,0,0,0c0,0,0,0,0,0c0,0,0,0,0,0
	c0,0,0,0,0,0c0,0,0,0,0,0c0,0,0,0,0,0c0,0,0,0,0,0c0,0,0,0,0,0c0,0,0,0,0,0c0,0,0,0,0,0c0,0,0,0,0,0c0,0,0,0,0,0c0,0,0,0,0,0
	c0,0,0,0,0,0c0,0,0,0,0,0c0,0,0,0,0,0c0,0,0,0,0,0c0,0,0,0,0,0c0,0,0,0,0,0c0,0,0,0,0,0c0,0,0,0,0,0c0,0,0,0,0,0c0,0,0,0,0,0
	c0,0,0,0,0,0c0,0,0,0,0,0c0,0,0,0,0,0c0,0,0,0,0,0c0,0,0,0,0,0c0,0,0,0,0,0c0,0,0,0,0,0c0,0,0,0,0,0c0,0,0,0,0,0c0,0,0,0,0,0
	c0,0,0,0,0,0c0,0,0,0,0,0c0,0,0,0,0,0c0,0,0,0,0,0c0,0,0,0,0,0c0,0,0,0,0,0c0,0,0,0,0,0c0,0,0,0,0,0s0,0,0,0c0,0,0,0,0,0
	c0,0,0,0,0,0c0,0,0,0,0,0c0,0,0,0,0,0c0,0,0,0,0,0c0,0,0,0,0,0c0,0,0,0,0,0c0,0,0,0,0,0c0,0,0,0,0,0c0,0,0,0,0,0c0,0,0,0,0,0
	c0,0,0,0,0,0c0,0,0,0,0,0c0,0,0,0,0,0c0,0,0,0,0,0c0,0,0,0,0,0c0,0,0,0,0,0c0,0,0,0,0,0c0,0,0,0,0,0c0,0,0,0,0,0c0,0,0,0,0,0
	c0,0,0,0,0,0c0,0,0,0,0,0c0,0,0,0,0,0c0,0,0,0,0,0c0,0,0,0,0,0c0,0,0,0,0,0c0,0,0,0,0,0c0,0,0,0,0,0c0,0,0,0,0,0c0,0,0,0,0,0
	c0,0,0,0,0,0c0,0,0,0,0,0c0,0,0,0,0,0c0,0,0,0,0,0c0,0,0,0,0,0c0,0,0,0,0,0c0,0,0,0,0,0c0,0,0,0,0,0c0,0,0,0,0,0c0,0,0,0,0,0
	c0,0,0,0,0,0c0,0,0,0,0,0c0,0,0,0,0,0c0,0,0,0,0,0c0,0,0,0,0,0c0,0,0,0,0,0c0,0,0,0,0,0c0,0,0,0,0,0c0,0,0,0,0,0c0,0,0,0,0,0
	c0,0,0,0,0,0c0,0,0,0,0,0c0,0,0,0,0,0c0,0,0,0,0,0c0,0,0,0,0,0c0,0,0,0,0,0c0,0,0,0,0,0c0,0,0,0,0,0c0,0,0,0,0,0c0,0,0,0,0,0
	c0,0,0,0,0,0c0,0,0,0,0,0c0,0,0,0,0,0s0,0,0,0c0,0,0,0,0,0c0,0,0,0,0,0c0,0,0,0,0,0c0,0,0,0,0,0c0,0,0,0,0,0c0,0,0,0,0,0
	c0,0,0,0,0,0c0,0,0,0,0,0c0,0,0,0,0,0c0,0,0,0,0,0c0,0,0,0,0,0c0,0,0,0,0,0c0,0,0,0,0,0c0,0,0,0,0,0c0,0,0,0,0,0c0,0,0,0,0,0
	c0,0,0,0,0,0c0,0,0,0,0,0c0,0,0,0,0,0c0,0,0,0,0,0c0,0,0,0,0,0c0,0,0,0,0,0c0,0,0,0,0,0c0,0,0,0,0,0c0,0,0,0,0,0c0,0,0,0,0,0
	c0,0,0,0,0,0c0,0,0,0,0,0c0,0,0,0,0,0c0,0,0,0,0,0c0,0,0,0,0,0c0,0,0,0,0,0c0,0,0,0,0,0s0,0,0,0c0,0,0,0,0,0c0,0,0,0,0,0
	c0,0,0,0,0,0c0,0,0,0,0,0c0,0,0,0,0,0c0,0,0,0,0,0c0,0,0,0,0,0c0,0,0,0,0,0c0,0,0,0,0,0c0,0,0,0,0,0c0,0,0,0,0,0c0,0,0,0,0,0
	c0,0,0,0,0,0c0,0,0,0,0,0c0,0,0,0,0,0c0,0,0,0,0,0c0,0,0,0,0,0c0,0,0,0,0,0c0,0,0,0,0,0c0,0,0,0,0,0c0,0,0,0,0,0c0,0,0,0,0,0
	c0,0,0,0,0,0c0,0,0,0,0,0c0,0,0,0,0,0c0,0,0,0,0,0c0,0,0,0,0,0c0,0,0,0,0,0c0,0,0,0,0,0c0,0,0,0,0,0c0,0,0,0,0,0c0,0,0,0,0,0
	c0,0,0,0,0,0c0,0,0,0,0,0c0,0,0,0,0,0s0,0,0,0c0,0,0,0,0,0c0,0,0,0,0,0c0,0,0,0,0,0c0,0,0,0,0,0c0,0,0,0,0,0c0,0,0,0,0,0
	c0,0,0,0,0,0c0,0,0,0,0,0c0,0,0,0,0,0c0,0,0,0,0,0c0,0,0,0,0,0c0,0,0,0,0,0c0,0,0,0,0,0c0,0,0,0,0,0c0,0,0,0,0,0c0,0,0,0,0,0
	c0,0,0,0,0,0c0,0,0,0,0,0c0,0,0,0,0,0c0,0,0,0,0,0c0,0,0,0,0,0c0,0,0,0,0,0h10c0,0,0,0,0,0c0,0,0,0,0,0c0,0,0,0,0,0c0,0,0,0,0,0
	c0,0,0,0,0,0c0,0,0,0,0,0c0,0,0,0,0,0c0,0,0,0,0,0c0,0,0,0,0,0c0,0,0,0,0,0c0,0,0,0,0,0c0,0,0,0,0,0c0,0,0,0,0,0c0,0,0,0,0,0
	c0,0,0,0,0,0c0,0,0,0,0,0c0,0,0,0,0,0c0,0,0,0,0,0c0,0,0,0,0,0c0,0,0,0,0,0c0,0,0,0,0,0c0,0,0,0,0,0c0,0,0,0,0,0s0,0,0,0
	c0,0,0,0,0,0c0,0,0,0,0,0c0,0,0,0,0,0c0,0,0,0,0,0c0,0,0,0,0,0c0,0,0,0,0,0c0,0,0,0,0,0c0,0,0,0,0,0c0,0,0,0,0,0c0,0,0,0,0,0
	c0,0,0,0,0,0c0,0,0,0,0,0c0,0,0,0,0,0c0,0,0,0,0,0c0,0,0,0,0,0c0,0,0,0,0,0c0,0,0,0,0,0c0,0,0,0,0,0c0,0,0,0,0,0c0,0,0,0,0,0
	c0,0,0,0,0,0c0,0,0,0,0,0c0,0,0,0,0,0c0,0,0,0,0,0c0,0,0,0,0,0c0,0,0,0,0,0c0,0,0,0,0,0c0,0,0,0,0,0c0,0,0,0,0,0c0,0,0,0,0,0
	c0,0,0,0,0,0c0,0,0,0,0,0c0,0,0,0,0,0c0,0,0,0,0,0c0,0,0,0,0,0s0,0,0,0c0,0,0,0,0,0c0,0,0,0,0,0c0,0,0,0,0,0c0,0,0,0,0,0
	c0,0,0,0,0,0c0,0,0,0,0,0c0,0,0,0,0,0c0,0,0,0,0,0c0,0,0,0,0,0c0,0,0,0,0,0c0,0,0,0,0,0c0,0,0,0,0,0c0,0,0,0,0,0c0,0,0,0,0,0
	c0,0,0,0,0,0c0,0,0,0,0,0c0,0,0,0,0,0c0,0,0,0,0,0c0,0,0,0,0,0c0,0,0,0,0,0c0,0,0,0,0,0c0,0,0,0,0,0c0,0,0,0,0,0c0,0,0,0,0,0
	c0,0,0,0,0,0c0,0,0,0,0,0c0,0,0,0,0,0c0,0,0,0,0,0c0,0,0,0,0,0c0,0,0,0,0,0c0,0,0,0,0,0c0,0,0,0,0,0c0,0,0,0,0,0s0,0,0,0
	c0,0,0,0,0,0c0,0,0,0,0,0c0,0,0,0,0,0c0,0,0,0,0,0c0,0,0,0,0,0c0,0,0,0,0,0c0,0,0,0,0,0c0,0,0,0,0,0c0,0,0,0,0,0c0,0,0,0,0,0
	c0,0,0,0,0,0c0,0,0,0,0,0c0,0,0,0,0,0c0,0,0,0,0,0c0,0,0,0,0,0c0,0,0,0,0,0c0,0,0,0,0,0c0,0,0,0,0,0c0,0,0,0,0,0c0,0,0,0,0,0
	c0,0,0,0,0,0c0,0,0,0,0,0c0,0,0,0,0,0c0,0,0,0,0,0c0,0,0,0,0,0c0,0,0,0,0,0c0,0,0,0,0,0c0,0,0,0,0,0c0,0,0,0,0,0c0,0,0,0,0,0
	c0,0,0,0,0,0c0,0,0,0,0,0c0,0,0,0,0,0c0,0,0,0,0,0c0,0,0,0,0,0c0,0,0,0,0,0c0,0,0,0,0,0c0,0,0,0,0,0c0,0,0,0,0,0c0,0,0,0,0,0
	c0,0,0,0,0,0c0,0,0,0,0,0c0,0,0,0,0,0c0,0,0,0,0,0c0,0,0,0,0,0c0,0,0,0,0,0c0,0,0,0,0,0c0,0,0,0,0,0c0,0,0,0,0,0c0,0,0,0,0,0
	c0,0,0,0,0,0c0,0,0,0,0,0c0,0,0,0,0,0c0,0,0,0,0,0c0,0,0,0,0,0c0,0,0,0,0,0c0,0,0,0,0,0c0,0,0,0,0,0c0,0,0,0,0,0c0,0,0,0,0,0
	c0,0,0,0,0,0c0,0,0,0,0,0c0,0,0,0,0,0c0,0,0,0,0,0s0,0,0,0c0,0,0,0,0,0c0,0,0,0,0,0c0,0,0,0,0,0c0,0,0,0,0,0c0,0,0,0,0,0
	c0,0,0,0,0,0c0,0,0,0,0,0c0,0,0,0,0,0c0,0,0,0,0,0c0,0,0,0,0,0c0,0,0,0,0,0c0,0,0,0,0,0c0,0,0,0,0,0c0,0,0,0,0,0c0,0,0,0,0,0
	c0,0,0,0,0,0c0,0,0,0,0,0c0,0,0,0,0,0c0,0,0,0,0,0c0,0,0,0,0,0c0,0,0,0,0,0c0,0,0,0,0,0c0,0,0,0,0,0c0,0,0,0,0,0c0,0,0,0,0,0
	c0,0,0,0,0,0c0,0,0,0,0,0c0,0,0,0,0,0c0,0,0,0,0,0c0,0,0,0,0,0c0,0,0,0,0,0c0,0,0,0,0,0c0,0,0,0,0,0c0,0,0,0,0,0c0,0,0,0,0,0
	c0,0,0,0,0,0c0,0,0,0,0,0c0,0,0,0,0,0c0,0,0,0,0,0c0,0,0,0,0,0c0,0,0,0,0,0c0,0,0,0,0,0s0,0,0,0c0,0,0,0,0,0c0,0,0,0,0,0
	c0,0,0,0,0,0c0,0,0,0,0,0c0,0,0,0,0,0c0,0,0,0,0,0c0,0,0,0,0,0c0,0,0,0,0,0c0,0,0,0,0,0c0,0,0,0,0,0c0,0,0,0,0,0c0,0,0,0,0,0
	s0,0,0,0c0,0,0,0,0,0c0,0,0,0,0,0c0,0,0,0,0,0c0,0,0,0,0,0c0,0,0,0,0,0c0,0,0,0,0,0c0,0,0,0,0,0c0,0,0,0,0,0c0,0,0,0,0,0
	c0,0,0,0,0,0c0,0,0,0,0,0c0,0,0,0,0,0s0,0,0,0c0,0,0,0,0,0c0,0,0,0,0,0c0,0,0,0,0,0c0,0,0,0,0,0c0,0,0,0,0,0c0,0,0,0,0,0
	c0,0,0,0,0,0c0,0,0,0,0,0c0,0,0,0,0,0c0,0,0,0,0,0c0,0,0,0,0,0c0,0,0,0,0,0c0,0,0,0,0,0c0,0,0,0,0,0c0,0,0,0,0,0c0,0,0,0,0,0
	c0,0,0,0,0,0c0,0,0,0,0,0c0,0,0,0,0,0c0,0,0,0,0,0s0,0,0,0c0,0,0,0,0,0c0,0,0,0,0,0c0,0,0,0,0,0c0,0,0,0,0,0c0,0,0,0,0,0
	c0,0,0,0,0,0c0,0,0,0,0,0c0,0,0,0,0,0c0,0,0,0,0,0c0,0,0,0,0,0c0,0,0,0,0,0c0,0,0,0,0,0c0,0,0,0,0,0c0,0,0,0,0,0c0,0,0,0,0,0
	c0,0,0,0,0,0c0,0,0,0,0,0c0,0,0,0,0,0c0,0,0,0,0,0c0,0,0,0,0,0c0,0,0,0,0,0c0,0,0,0,0,0c0,0,0,0,0,0c0,0,0,0,0,0c0,0,0,0,0,0
	s0,0,0,0c0,0,0,0,0,0c0,0,0,0,0,0c0,0,0,0,0,0c0,0,0,0,0,0c0,0,0,0,0,0c0,0,0,0,0,0c0,0,0,0,0,0c0,0,0,0,0,0c0,0,0,0,0,0
	c0,0,0,0,0,0c0,0,0,0,0,0c0,0,0,0,0,0s0,0,0,0c0,0,0,0,0,0c0,0,0,0,0,0c0,0,0,0,0,0c0,0,0,0,0,0c0,0,0,0,0,0c0,0,0,0,0,0
	c0,0,0,0,0,0s0,0,0,0c0,0,0,0,0,0c0,0,0,0,0,0c0,0,0,0,0,0c0,0,0,0,0,0c0,0,0,0,0,0c0,0,0,0,0,0c0,0,0,0,0,0c0,0,0,0,0,0
	c0,0,0,0,0,0c0,0,0,0,0,0c0,0,0,0,0,0c0,0,0,0,0,0s0,0,0,0c0,0,0,0,0,0c0,0,0,0,0,0c0,0,0,0,0,0c0,0,0,0,0,0s0,0,0,0c0,0,0,0,0,0
	c0,0,0,0,0,0c0,0,0,0,0,0c0,0,0,0,0,0c0,0,0,0,0,0c0,0,0,0,0,0c0,0,0,0,0,0c0,0,0,0,0,0c0,0,0,0,0,0c0,0,0,0,0,0c0,0,0,0,0,0
	c0,0,0,0,0,0c0,0,0,0,0,0c0,0,0,0,0,0c0,0,0,0,0,0c0,0,0,0,0,0c0,0,0,0,0,0c0,0,0,0,0,0c0,0,0,0,0,0c0,0,0,0,0,0c0,0,0,0,0,0
	c0,0,0,0,0,0c0,0,0,0,0,0c0,0,0,0,0,0c0,0,0,0,0,0c0,0,0,0,0,0c0,0,0,0,0,0c0,0,0,0,0,0c0,0,0,0,0,0c0,0,0,0,0,0c0,0,0,0,0,0
	c0,0,0,0,0,0c0,0,0,0,0,0c0,0,0,0,0,0c0,0,0,0,0,0c0,0,0,0,0,0c0,0,0,0,0,0c0,0,0,0,0,0c0,0,0,0,0,0c0,0,0,0,0,0c0,0,0,0,0,0
	c0,0,0,0,0,0c0,0,0,0,0,0c0,0,0,0,0,0c0,0,0,0,0,0c0,0,0,0,0,0c0,0,0,0,0,0c0,0,0,0,0,0c0,0,0,0,0,0c0,0,0,0,0,0c0,0,0,0,0,0
	c0,0,0,0,0,0s0,0,0,0c0,0,0,0,0,0c0,0,0,0,0,0c0,0,0,0,0,0c0,0,0,0,0,0c0,0,0,0,0,0c0,0,0,0,0,0c0,0,0,0,0,0c0,0,0,0,0,0
	c0,0,0,0,0,0c0,0,0,0,0,0c0,0,0,0,0,0c0,0,0,0,0,0c0,0,0,0,0,0c0,0,0,0,0,0s0,0,0,0c0,0,0,0,0,0c0,0,0,0,0,0c0,0,0,0,0,0
	c0,0,0,0,0,0c0,0,0,0,0,0c0,0,0,0,0,0c0,0,0,0,0,0c0,0,0,0,0,0c0,0,0,0,0,0c0,0,0,0,0,0c0,0,0,0,0,0c0,0,0,0,0,0c0,0,0,0,0,0
	c0,0,0,0,0,0c0,0,0,0,0,0c0,0,0,0,0,0c0,0,0,0,0,0c0,0,0,0,0,0s0,0,0,0c0,0,0,0,0,0c0,0,0,0,0,0c0,0,0,0,0,0c0,0,0,0,0,0
	c0,0,0,0,0,0c0,0,0,0,0,0s0,0,0,0c0,0,0,0,0,0c0,0,0,0,0,0c0,0,0,0,0,0c0,0,0,0,0,0c0,0,0,0,0,0c0,0,0,0,0,0c0,0,0,0,0,0
	c0,0,0,0,0,0c0,0,0,0,0,0c0,0,0,0,0,0c0,0,0,0,0,0c0,0,0,0,0,0c0,0,0,0,0,0c0,0,0,0,0,0c0,0,0,0,0,0c0,0,0,0,0,0c0,0,0,0,0,0
	c0,0,0,0,0,0c0,0,0,0,0,0c0,0,0,0,0,0c0,0,0,0,0,0c0,0,0,0,0,0c0,0,0,0,0,0c0,0,0,0,0,0c0,0,0,0,0,0c0,0,0,0,0,0c0,0,0,0,0,0
	c0,0,0,0,0,0c0,0,0,0,0,0c0,0,0,0,0,0c0,0,0,0,0,0c0,0,0,0,0,0c0,0,0,0,0,0c0,0,0,0,0,0c0,0,0,0,0,0c0,0,0,0,0,0c0,0,0,0,0,0
	c0,0,0,0,0,0c0,0,0,0,0,0c0,0,0,0,0,0c0,0,0,0,0,0c0,0,0,0,0,0c0,0,0,0,0,0c0,0,0,0,0,0c0,0,0,0,0,0c0,0,0,0,0,0c0,0,0,0,0,0
	c0,0,0,0,0,0c0,0,0,0,0,0c0,0,0,0,0,0c0,0,0,0,0,0c0,0,0,0,0,0c0,0,0,0,0,0c0,0,0,0,0,0c0,0,0,0,0,0c0,0,0,0,0,0c0,0,0,0,0,0
	c0,0,0,0,0,0c0,0,0,0,0,0c0,0,0,0,0,0c0,0,0,0,0,0c0,0,0,0,0,0c0,0,0,0,0,0c0,0,0,0,0,0c0,0,0,0,0,0c0,0,0,0,0,0c0,0,0,0,0,0
	c0,0,0,0,0,0c0,0,0,0,0,0c0,0,0,0,0,0c0,0,0,0,0,0c0,0,0,0,0,0c0,0,0,0,0,0c0,0,0,0,0,0c0,0,0,0,0,0c0,0,0,0,0,0c0,0,0,0,0,0
	c0,0,0,0,0,0c0,0,0,0,0,0c0,0,0,0,0,0c0,0,0,0,0,0c0,0,0,0,0,0c0,0,0,0,0,0c0,0,0,0,0,0c0,0,0,0,0,0c0,0,0,0,0,0c0,0,0,0,0,0
	c0,0,0,0,0,0c0,0,0,0,0,0c0,0,0,0,0,0c0,0,0,0,0,0c0,0,0,0,0,0c0,0,0,0,0,0c0,0,0,0,0,0c0,0,0,0,0,0c0,0,0,0,0,0c0,0,0,0,0,0
	c0,0,0,0,0,0c0,0,0,0,0,0c0,0,0,0,0,0c0,0,0,0,0,0c0,0,0,0,0,0c0,0,0,0,0,0c0,0,0,0,0,0H123.5z M123.5,96.2c0,0.5,0,1.7,0.7,2.9
	c0.7,1.3,1.8,2.1,2.8,2.5c1.5,0.7,3.3,0.7,4.7,0.7v-10c-0.6,0-1,0-1.2,0c-0.2,0,0,0,0.4,0.2c0.5,0.2,1.4,0.8,1.9,1.8
	c0.5,1,0.5,1.8,0.5,2H123.5z M131.7,102.3c0.9,0,1.9,0,2.9-0.1l-0.9-10c-0.7,0.1-1.4,0.1-2,0.1V102.3z M134.6,102.2
	c6.2-0.6,9.4-6,9.4-10.6h-10c0,0,0,0.1,0,0.3c0,0.1-0.1,0.2-0.1,0.3c-0.1,0.1-0.1,0.1-0.1,0.1c0,0,0,0,0,0c0,0,0,0,0,0L134.6,102.2z
	 M144,91.6c0-2.3-0.7-4.8-2.7-6.7c-2-2-4.6-2.9-7.5-2.9v10c0.4,0,0.5,0.1,0.6,0.1c0,0,0,0-0.1,0c0,0-0.1-0.1-0.1-0.1
	c-0.1-0.1-0.2-0.2-0.2-0.3c0-0.1,0-0.1,0,0H144z"/>
<path class="st2" d="M50.7,111.3L50.7,111.3c0.1-3.2,0.1-9,0.1-14.2c0-3.5,0-6.8-0.1-9c0-0.8-0.1-0.8-2.5-0.8
	c-1.5,0-3.4,0.1-5.3,0.1c-1.5,0-2.3-1.1-2.3-2.2c0-1.1,0.7-2.1,2.2-2.1c0,0,0,0,0.1,0c2.4,0,6.6,0.1,10.8,0.1c3.4,0,6.8,0,9.1-0.1
	c1.6,0,2.1,1.3,2.1,2.2c0,1.1-0.6,2.1-1.9,2.1c-0.1,0-0.1,0-0.2,0c-1.4-0.1-2.5-0.1-3.5-0.1c-4,0-4,0-4,0.8
	c-0.1,2.7-0.1,6.6-0.1,10.5c0,4.8,0.1,9.7,0.2,12.6c0.1,1.4-1.2,2.1-2.4,2.1C51.9,113.4,50.7,112.7,50.7,111.3z M93,113.8
	c-8.8,0-15.4-6.2-15.4-15.5c0-9,6.6-15.5,15.4-15.5s15.4,6.5,15.4,15.5C108.4,107.6,101.8,113.8,93,113.8z M93,109.6
	c5.9,0,10.7-4.4,10.7-11.3c0-6.9-4.8-11.4-10.7-11.4s-10.7,4.5-10.7,11.4C82.3,105.1,87.1,109.6,93,109.6z M128.7,111.1
	c0,1.5-1.2,2.2-2.3,2.2c-1.1,0-2.3-0.7-2.3-2c0,0,0-0.1,0-0.1c0.2-3.1,0.2-6.6,0.2-10c0-4.1-0.1-8-0.1-10.8c0-4.9,0-7.6,7.9-7.6
	c0.8,0,1.6,0,2.2,0.1c6.3,0.4,9.2,4.7,9.2,9c0,4.4-3.1,9-8.7,9.5c-1,0.1-1.9,0.2-2.9,0.2c-0.9,0-1.9-0.1-3-0.3c-0.1,0-0.2,0-0.3,0
	c-0.1,0-0.2,0-0.2,0.4c0,2.5,0.1,5.3,0.1,8C128.7,110.1,128.7,110.6,128.7,111.1z M133.9,87c0,0-1,0-1.9,0c-3.2,0-3.5,0.4-3.5,4.2
	c0,1.4,0,3,0,4.4c0,0.2,0,0.4,0,0.7c0,0.7,0.3,1.1,3.2,1.1c0.8,0,1.6,0,2.4-0.1c3-0.3,4.9-3,4.9-5.6C139,89.2,137.5,87,133.9,87z"/>
</svg>
