<svg width="875" height="124" viewBox="0 0 875 124" fill="none" xmlns="http://www.w3.org/2000/svg">
<g clip-path="url(#clip0_331_1589)">
<path d="M266.425 0.085022H253.688H249.816H231.223H218.486V12.8357V15.6876C218.486 22.7472 215.531 29.165 210.741 33.6915V12.8357V0.085022H198.004H179.411H166.674V12.8357V13.4519C157.286 4.82401 145.194 0.0977726 132.372 0.0977726C123.35 0.0977726 114.692 2.43964 107.08 6.83011V0.085022H94.3421H51.8202H44.1056H23.662C23.1397 0.085022 22.6302 0.119024 22.1207 0.174276C21.6112 0.119024 21.0975 0.085022 20.5795 0.085022H12.7375H0V3.46819V6.84711V10.2345V12.8357V13.6092V14.5273V16.2188V17.0051V17.9104V19.5978V21.2893V22.9852V24.6725V26.3598V27.2779V28.0514V29.7558V30.6611V31.4474V34.04V37.4232V40.8021V44.198H12.7375H16.9026C17.2975 44.198 17.6881 44.1767 18.0787 44.1427C18.4354 44.1725 18.792 44.1895 19.1529 44.1895H31.3639H31.5082V73.9963V86.7469H31.5167V103.629C31.5167 104.058 31.538 104.487 31.5762 104.912C31.5295 105.367 31.5082 105.83 31.5082 106.302V111.249V124H34.9006H38.2761H41.6557H44.2457H45.0312H45.9355H47.6381H48.4108H49.3279H51.0135H52.6991H54.3932H56.083H57.7686H58.673H59.4585H61.1483H62.0654H62.8381H65.4366H68.8205H72.1959H75.5756V111.249V101.933C75.5756 101.308 75.5331 100.683 75.4482 100.067C75.5247 99.4763 75.5756 98.8813 75.5756 98.2692V73.9963V64.8328V44.198H82.0505C81.7618 46.4081 81.6089 48.6565 81.6089 50.9218V63.6725V111.092V123.843H94.3464H112.939H125.676V111.092V100.199H139.076V108.461C139.076 108.823 139.093 109.175 139.123 109.532C139.089 109.923 139.068 110.314 139.068 110.714V111.092V123.843H142.46H145.835H158.573H160.258H166.678V124H170.071H173.446H186.183H187.869H200.607H203.99H207.366H210.746V111.249V101.933C210.746 101.304 210.703 100.683 210.618 100.067C210.695 99.4805 210.746 98.8813 210.746 98.2735V91.7197L223.874 117.11L227.436 124H235.184H256.108H277.04L277.027 123.975H285.009H329.985H342.723V111.224V92.6122V79.8615H330.622V77.2519V73.8687V70.4898V67.8802V67.1067V66.1886V64.5013V62.8139V61.1181V59.4265V57.7392V56.0476V54.356V53.438V52.6644V50.0633V46.6759V44.198H342.723V31.4474V12.8357V0.085022H329.985H266.425ZM125.676 50.9218V50.8028C125.744 47.1604 128.725 44.2192 132.376 44.2192C136.07 44.2192 139.08 47.2284 139.08 50.9261V56.0943H125.676V50.9218ZM251.955 73.8517V75.4796L244.869 61.7684C247.472 58.8782 249.85 55.7586 251.955 52.4179V73.8517Z" fill="white"/>
<path d="M871.608 0.0680034H868.232H864.853H862.263H861.477H860.573H858.87H858.097H857.18H855.495H853.809H852.115H850.425H848.74H847.835H847.05H845.36H844.443H843.67H841.072H837.688H834.312H830.933V12.8186V22.1309C830.933 22.7556 830.975 23.3804 831.06 23.9967C830.984 24.5875 830.933 25.1825 830.933 25.7945V39.0977L809.627 9.09971L808.91 8.08391L806.978 5.35952L803.165 0H796.588H780.649H767.912V12.7506V22.4326V28.0259C766.787 26.6531 765.59 25.3313 764.32 24.0605C754.206 13.9365 740.764 8.36017 726.46 8.36017C712.457 8.36017 699.283 13.7069 689.245 23.4272V22.8959V21.2001V19.5085V17.8211V16.9159V16.1296V14.438V13.5199V12.7506V10.1495V6.76209V3.38317V0H676.508H668.666C668.148 0 667.63 0.0340017 667.125 0.0892545C666.619 0.0340017 666.106 0 665.583 0H645.144H637.429H631.494H618.756V0.0850043H613.198H570.672H562.958H542.518C541.996 0.0850043 541.487 0.119006 540.981 0.174259C540.472 0.119006 539.958 0.0850043 539.436 0.0850043H531.594H518.856V0.170009H501.954C500.026 0.170009 498.077 0.250763 496.171 0.408021L496.065 0.416521L495.959 0.425021L495.912 0.429272C495.475 0.467524 495.025 0.510026 494.579 0.561028C494.078 0.612031 493.623 0.671534 493.216 0.722536L493.114 0.735287L493.008 0.752288L492.94 0.760788C492.808 0.777789 492.681 0.79479 492.549 0.816041C492.21 0.862793 491.874 0.913796 491.543 0.964799C491.411 0.98605 491.229 1.01155 491.012 1.0498C490.741 1.09231 490.477 1.13906 490.218 1.18581C490.078 1.21131 489.938 1.23681 489.798 1.26231C489.641 1.28781 489.501 1.31757 489.378 1.34307C488.983 1.41532 488.639 1.48757 488.359 1.54708H488.354C488.269 1.56408 488.172 1.58533 488.066 1.61083C487.998 1.62358 487.934 1.64058 487.875 1.65333C487.514 1.72984 487.174 1.80634 486.843 1.89135C486.699 1.92535 486.541 1.9636 486.367 2.0061C485.743 2.15486 485.102 2.32487 484.38 2.53313C484.126 2.60538 483.871 2.67763 483.62 2.75414C483.391 2.81789 483.2 2.88165 483.064 2.92415C482.911 2.9709 482.758 3.01765 482.606 3.06865L482.572 3.07715L482.533 3.08991L482.215 3.19191L482.168 3.20466L482.122 3.22166C481.841 3.31517 481.561 3.40867 481.285 3.50643L480.996 3.58718L480.559 3.76144C480.33 3.84219 480.071 3.9357 479.786 4.0462C479.748 4.05895 479.714 4.0717 479.684 4.08446L479.574 4.12271L479.26 4.24596C479.005 4.34797 478.738 4.45422 478.453 4.56898L478.402 4.58598L478.181 4.67949C478.169 4.68374 478.156 4.68799 478.143 4.69649H477.905L475.506 5.8653C475.468 5.8823 475.43 5.90355 475.392 5.92055L473.405 6.8641L473.277 6.9916C473.171 7.04686 473.069 7.10211 472.967 7.15736C472.929 7.17861 472.895 7.19561 472.861 7.21686C472.721 7.29337 472.581 7.36987 472.441 7.44638C472.275 7.53563 472.114 7.62913 471.949 7.72264C471.923 7.73964 471.893 7.75239 471.868 7.76939C467.58 10.0815 464.531 12.5254 462.319 14.5995H461.916L460.493 16.2231L460.188 16.3761L458.948 17.9912L458.638 18.3439L458.056 18.9347L458.026 18.9772L457.695 19.3045L457.432 19.7252C457.381 19.7847 457.33 19.8442 457.279 19.9038C457.131 20.0738 456.99 20.2438 456.855 20.4095C456.638 20.6645 456.443 20.9068 456.252 21.1406C456.188 21.2213 456.129 21.2936 456.073 21.3616C456.005 21.4466 455.929 21.5443 455.848 21.6506C455.742 21.7866 455.619 21.9396 455.492 22.1096C454.549 23.1084 453.815 24.1582 453.258 25.225C453.025 25.5735 452.8 25.9306 452.571 26.2876C450.303 22.2201 447.459 18.4374 444.079 15.05C434.505 5.45727 421.759 0.170009 408.198 0.170009C394.636 0.170009 381.886 5.45727 372.299 15.0585C365.79 21.5741 361.273 29.5475 359.035 38.2434V50.9941V63.7447V111.164V123.915H370.168H388.76H401.498V111.164V100.275H414.893V108.533C414.893 108.895 414.91 109.252 414.94 109.609C414.906 109.996 414.885 110.387 414.885 110.786V111.164V123.915H418.277H421.653H425.032H427.622H428.408H429.312H431.015H431.787H432.704H434.39H436.076H437.77H439.46H441.145H442.049H442.835H444.525H445.442H446.215H448.813H452.197H455.572H458.952V111.164V107.105C458.952 106.727 458.935 106.353 458.901 105.983C463.508 110.96 468.9 114.977 474.997 117.96C483.06 121.909 492.129 123.915 501.945 123.915H518.623H531.36V111.164V92.1361V79.3855H518.623H500.328C495.984 79.0667 492.66 77.4814 490.172 74.5445C487.055 70.8681 485.548 65.3215 486.13 59.6985C486.134 59.6773 486.134 59.656 486.138 59.6348L486.142 59.5965L486.295 58.8357V58.7465C486.372 58.2959 486.461 57.7519 486.558 57.0974C486.575 57.0336 486.588 56.9699 486.601 56.9061C486.626 56.8126 486.648 56.7234 486.665 56.6426C486.673 56.6129 486.682 56.5788 486.69 56.5491C486.72 56.4386 486.745 56.3408 486.775 56.2388L486.962 55.5843C487.008 55.4313 487.055 55.2868 487.102 55.1423L487.106 55.1295C487.161 54.968 487.217 54.8108 487.276 54.6535L487.306 54.5685L487.327 54.5132L487.497 54.0712C487.56 53.9097 487.586 53.8502 487.59 53.8417L487.624 53.7652L487.658 53.6802C487.722 53.5272 487.79 53.3742 487.862 53.2212C487.9 53.1404 487.938 53.0512 487.985 52.9619L488.078 52.7792L488.558 51.9759L488.584 51.9036C489.48 50.4925 490.707 49.039 492.248 47.5641C494.774 45.6218 498.039 44.64 501.954 44.64H520.924H533.662V44.198H535.759C536.154 44.198 536.544 44.1767 536.935 44.1427C537.292 44.1725 537.648 44.1895 538.009 44.1895H550.22H550.365V73.9962V86.7469H550.373V103.629C550.373 104.058 550.394 104.487 550.433 104.912C550.386 105.367 550.365 105.83 550.365 106.302V111.249V124H553.757H557.132H560.512H563.102H563.888H564.792H566.494H567.267H568.184H569.87H571.555H573.25H574.939H576.625H577.529H578.315H580.005H580.922H581.695H584.293H587.677H591.052H594.432V111.249V101.933C594.432 101.308 594.389 100.683 594.305 100.067C594.381 99.4763 594.432 98.8812 594.432 98.2692V73.992V64.8285V44.1937H613.203H625.94V44.1087H631.498H631.973V54.0967V66.8474H631.982V79.7978H631.519H618.782V92.5484V111.16V123.911H631.519H676.499H689.237V111.16V100.462C699.274 110.2 712.462 115.551 726.473 115.551C740.777 115.551 754.219 109.974 764.333 99.8503C765.606 98.5752 766.804 97.2492 767.933 95.8721V103.535C767.933 103.969 767.954 104.398 767.997 104.827C767.95 105.282 767.929 105.741 767.929 106.204V111.152V123.902H771.321H774.697H787.434H789.12H801.857H811.996V111.152V101.835C811.996 101.206 811.954 100.581 811.869 99.965C811.945 99.3785 811.992 98.7835 811.992 98.1757V88.532L830.941 115.211V123.894L843.679 123.902H862.271H875.009V111.152V105.197V50.0718V37.3211H875V20.4393C875 20.01 874.979 19.5807 874.941 19.1515C874.987 18.6967 875.009 18.2334 875.009 17.7659V12.8186V0.0680034H871.608ZM726.464 71.4418C721.238 71.4418 716.988 67.1874 716.988 61.9554C716.988 56.7276 721.238 52.4731 726.464 52.4731C731.687 52.4731 735.937 56.7276 735.937 61.9554C735.937 67.1874 731.687 71.4418 726.464 71.4418ZM401.498 51.0026C401.498 47.3049 404.504 44.2957 408.198 44.2957C411.891 44.2957 414.902 47.3049 414.902 51.0026V56.1708H401.498V51.0026Z" fill="white"/>
<path d="M20.5793 12.8357C20.8129 12.8357 21.0251 12.9292 21.178 13.0822C21.3308 13.2352 21.4243 13.4477 21.4243 13.6815C21.4243 14.149 21.0464 14.5273 20.5793 14.5273H12.7373V12.8357H20.5793Z" fill="#E4007F"/>
<path d="M20.3798 16.4654C20.5326 16.6184 20.626 16.8309 20.626 17.0647C20.626 17.5322 20.2482 17.9105 19.7811 17.9105H12.7373V16.2189H19.7811C20.0146 16.2189 20.2269 16.3124 20.3798 16.4654Z" fill="#E4007F"/>
<path d="M22.2097 19.8443C22.3626 19.9973 22.456 20.2098 22.456 20.4436C22.456 20.9111 22.0781 21.2894 21.6111 21.2894H12.7373V19.5978H21.6111C21.8446 19.5978 22.0569 19.6913 22.2097 19.8443Z" fill="#E4007F"/>
<path d="M19.7089 26.6064C19.8618 26.7594 19.9552 26.9719 19.9552 27.2057C19.9552 27.6732 19.5773 28.0514 19.1103 28.0514H12.7373V26.3599H19.1103C19.3438 26.3599 19.5561 26.4534 19.7089 26.6064Z" fill="#E4007F"/>
<path d="M17.5011 30.0023C17.654 30.1553 17.7474 30.3678 17.7474 30.6016C17.7474 31.0691 17.3695 31.4474 16.9025 31.4474H12.7373V29.7558H16.9025C17.136 29.7558 17.3483 29.8493 17.5011 30.0023Z" fill="#E4007F"/>
<path d="M30.7523 22.1394C30.7523 21.9057 30.6589 21.6931 30.5061 21.5401C30.3532 21.3871 30.1409 21.2936 29.9074 21.2936H23.6745C23.441 21.2936 23.2287 21.2001 23.0759 21.0471C22.923 20.8941 22.8296 20.6816 22.8296 20.4478C22.8296 19.9803 23.2075 19.602 23.6745 19.602H27.6953C28.1624 19.602 28.5402 19.2238 28.5402 18.7562C28.5402 18.5225 28.4468 18.31 28.294 18.157C28.1411 18.004 27.9289 17.9104 27.6953 17.9104H22.2437C22.0102 17.9104 21.7979 17.8169 21.645 17.6639C21.4922 17.5109 21.3988 17.2984 21.3988 17.0647C21.3988 16.5971 21.7767 16.2189 22.2437 16.2189H29.9074C30.3744 16.2189 30.7523 15.8406 30.7523 15.3731C30.7523 15.1393 30.6589 14.9268 30.5061 14.7738C30.3532 14.6208 30.1409 14.5273 29.9074 14.5273H23.6618C23.4283 14.5273 23.216 14.4338 23.0631 14.2808C22.9103 14.1278 22.8169 13.9152 22.8169 13.6815C22.8169 13.214 23.1948 12.8357 23.6618 12.8357H44.1012H51.8158H94.342V31.4474H44.1054V31.4389H19.1527C18.9192 31.4389 18.7069 31.3454 18.5541 31.1924C18.4012 31.0394 18.3078 30.8269 18.3078 30.5931C18.3078 30.1256 18.6857 29.7473 19.1527 29.7473H26.6976C27.1646 29.7473 27.5425 29.369 27.5425 28.9015C27.5425 28.6677 27.4491 28.4552 27.2962 28.3022C27.1434 28.1492 26.9311 28.0557 26.6976 28.0557H21.3393C21.1058 28.0557 20.8935 27.9622 20.7407 27.8092C20.5878 27.6562 20.4944 27.4437 20.4944 27.2099C20.4944 26.7424 20.8723 26.3641 21.3393 26.3641H29.9074C30.3744 26.3641 30.7523 25.9859 30.7523 25.5183C30.7523 25.2888 30.6589 25.0763 30.5061 24.9233C30.3532 24.7703 30.1409 24.6725 29.9074 24.6725H12.7373V22.9852H29.9074C30.3744 22.9852 30.7523 22.6027 30.7523 22.1394ZM29.8989 17.9104C29.4319 17.9104 29.0497 18.293 29.0497 18.7605C29.0497 19.1855 29.3554 19.534 29.7588 19.602H30.0433C30.4466 19.534 30.7523 19.1855 30.7523 18.7605C30.7523 18.293 30.3702 17.9104 29.8989 17.9104ZM29.9881 28.0557H29.814C29.3852 28.0982 29.0497 28.4637 29.0497 28.9015C29.0497 29.335 29.3682 29.692 29.7843 29.7473C29.8225 29.7515 29.8607 29.7558 29.8989 29.7558C29.9371 29.7558 29.9796 29.7515 30.0178 29.7473C30.4339 29.692 30.7523 29.335 30.7523 28.9015C30.7523 28.4637 30.4169 28.0982 29.9881 28.0557Z" fill="#E4007F"/>
<path d="M62.8383 101.937C62.8383 101.661 62.7449 101.406 62.592 101.227C62.4392 101.045 62.2269 100.934 61.9934 100.934C61.5263 100.934 61.1484 101.385 61.1484 101.937V111.254H62.8383V101.937Z" fill="#E4007F"/>
<path d="M59.2121 102.171C59.0593 101.988 58.847 101.878 58.6135 101.878C58.1464 101.878 57.7686 102.328 57.7686 102.881V111.249H59.4584V102.881C59.4584 102.604 59.365 102.354 59.2121 102.171Z" fill="#E4007F"/>
<path d="M55.8366 99.9991C55.6838 99.8164 55.4715 99.7059 55.238 99.7059C54.7709 99.7059 54.3931 100.156 54.3931 100.709V111.249H56.0829V100.709C56.0829 100.433 55.9895 100.182 55.8366 99.9991Z" fill="#E4007F"/>
<path d="M49.0818 102.97C48.9289 102.787 48.7166 102.677 48.4831 102.677C48.0161 102.677 47.6382 103.127 47.6382 103.68V111.249H49.328V103.68C49.328 103.404 49.2346 103.149 49.0818 102.97Z" fill="#E4007F"/>
<path d="M45.6892 105.592C45.5363 105.41 45.324 105.299 45.0905 105.299C44.6235 105.299 44.2456 105.75 44.2456 106.302V111.249H45.9354V106.302C45.9354 106.026 45.842 105.771 45.6892 105.592Z" fill="#E4007F"/>
<path d="M53.544 89.8539C53.7775 89.8539 53.9898 89.9644 54.1426 90.1471C54.2955 90.3299 54.3889 90.5807 54.3889 90.8569V98.2608C54.3889 98.537 54.4823 98.7921 54.6351 98.9706C54.788 99.1533 55.0003 99.2638 55.2338 99.2638C55.7008 99.2638 56.0787 98.8133 56.0787 98.2608V93.4835C56.0787 92.9268 56.4566 92.4805 56.9236 92.4805C57.1571 92.4805 57.3694 92.591 57.5223 92.7738C57.6751 92.9565 57.7685 93.2073 57.7685 93.4835V99.9566C57.7685 100.233 57.862 100.488 58.0148 100.666C58.1677 100.845 58.3799 100.96 58.6135 100.96C59.0805 100.96 59.4584 100.509 59.4584 99.9566V90.8527C59.4584 90.2959 59.8363 89.8496 60.3033 89.8496C60.5368 89.8496 60.7491 89.9601 60.902 90.1429C61.0548 90.3256 61.1482 90.5764 61.1482 90.8527V98.2693C61.1482 98.5455 61.2416 98.8006 61.3945 98.9791C61.5473 99.1618 61.7596 99.2723 61.9931 99.2723C62.4602 99.2723 62.8381 98.8218 62.8381 98.2693V73.9921V64.8286V22.1352H44.2456V73.9921H44.2541V103.625C44.2541 103.901 44.3475 104.156 44.5004 104.334C44.6532 104.513 44.8655 104.628 45.099 104.628C45.5661 104.628 45.9439 104.177 45.9439 103.625V94.6651C45.9439 94.1083 46.3218 93.662 46.7889 93.662C47.0224 93.662 47.2347 93.7726 47.3875 93.9553C47.5404 94.1381 47.6338 94.3888 47.6338 94.6651V101.028C47.6338 101.304 47.7272 101.559 47.88 101.737C48.0329 101.92 48.2452 102.031 48.4787 102.031C48.9457 102.031 49.3236 101.58 49.3236 101.028V90.8527C49.3236 90.2959 49.7015 89.8496 50.1685 89.8496C50.3978 89.8496 50.6101 89.9601 50.7629 90.1429C50.9158 90.3256 51.0134 90.5764 51.0134 90.8527V111.245H52.699V90.8527C52.699 90.3001 53.0812 89.8539 53.544 89.8539ZM57.7685 90.8654C57.7685 91.4222 57.3864 91.8727 56.9194 91.8727C56.4948 91.8727 56.1466 91.5114 56.0787 91.0312V90.6954C56.1466 90.2151 56.4948 89.8539 56.9194 89.8539C57.3864 89.8539 57.7685 90.3086 57.7685 90.8654ZM47.6338 90.7591V90.9674C47.5913 91.4774 47.2262 91.877 46.7889 91.877C46.3558 91.877 45.9991 91.4987 45.9439 91.0057C45.9397 90.9589 45.9354 90.9164 45.9354 90.8697C45.9354 90.8229 45.9397 90.7719 45.9439 90.7294C45.9991 90.2364 46.3558 89.8581 46.7889 89.8581C47.2262 89.8539 47.5913 90.2534 47.6338 90.7591Z" fill="#E4007F"/>
<path d="M216.341 72.9592C216.133 73.0655 215.904 73.0825 215.696 73.0145C215.488 72.9465 215.309 72.802 215.199 72.5937L213.662 69.6228C214.197 69.4358 214.736 69.2403 215.267 69.0405L216.702 71.8159C216.914 72.2324 216.757 72.7425 216.341 72.9592Z" fill="#E4007F"/>
<path d="M218.974 70.6939C218.765 70.8001 218.536 70.8171 218.328 70.7534C218.12 70.6854 217.942 70.5409 217.831 70.3326L216.838 68.4115C217.36 68.1905 217.878 67.9652 218.388 67.7357L219.33 69.5548C219.551 69.9713 219.39 70.4814 218.974 70.6939Z" fill="#E4007F"/>
<path d="M222.812 70.7704C222.604 70.8766 222.374 70.8936 222.166 70.8256C221.958 70.7576 221.78 70.6131 221.674 70.4049L219.916 67.0089C220.421 66.7624 220.927 66.5074 221.423 66.2439L223.173 69.6271C223.393 70.0436 223.228 70.5536 222.812 70.7704Z" fill="#E4007F"/>
<path d="M227.665 65.4363C227.457 65.5426 227.223 65.5596 227.015 65.4958C226.807 65.4278 226.633 65.2833 226.523 65.0751L225.801 63.6683C226.272 63.358 226.743 63.0435 227.206 62.7205L228.021 64.2973C228.242 64.7138 228.081 65.2238 227.665 65.4363Z" fill="#E4007F"/>
<path d="M229.66 61.9172C229.452 62.0234 229.223 62.0404 229.015 61.9724C228.862 61.9257 228.726 61.8322 228.625 61.7047C229.079 61.3647 229.525 61.0246 229.97 60.6719L230.021 60.7739C230.242 61.1904 230.081 61.7004 229.66 61.9172Z" fill="#E4007F"/>
<path d="M231.049 62.78C230.943 62.5675 230.764 62.4272 230.556 62.3592C230.352 62.2912 230.119 62.3082 229.911 62.4145C229.495 62.6312 229.333 63.1412 229.55 63.5535L233.019 70.2646C233.231 70.6769 233.07 71.1869 232.654 71.4037C232.446 71.5057 232.216 71.5269 232.013 71.4589C231.805 71.3952 231.622 71.2464 231.516 71.0381L229.053 66.2736C228.947 66.0654 228.765 65.9209 228.561 65.8571C228.353 65.7934 228.123 65.8061 227.915 65.9124C227.499 66.1249 227.338 66.6392 227.55 67.0557L231.49 74.6721C231.703 75.0843 231.541 75.5944 231.129 75.8111C230.926 75.9131 230.692 75.9301 230.484 75.8664C230.28 75.7984 230.098 75.6539 229.987 75.4456L224.366 64.5693C223.886 64.8626 223.398 65.1473 222.91 65.4279L228.493 76.2234C228.705 76.6399 228.54 77.1499 228.128 77.3625C227.924 77.473 227.69 77.4857 227.487 77.422C227.279 77.354 227.1 77.2094 226.99 77.0012L224.128 71.4589C224.018 71.2506 223.835 71.1061 223.636 71.0424C223.428 70.9744 223.194 70.9871 222.986 71.0976C222.574 71.3144 222.413 71.8202 222.629 72.2367L224.476 75.8154C224.689 76.2276 224.527 76.7377 224.111 76.9502C223.903 77.0564 223.674 77.0734 223.47 77.0097C223.262 76.9417 223.079 76.7972 222.973 76.5889L220.468 71.7437C220.362 71.5354 220.18 71.3867 219.971 71.3229C219.768 71.2549 219.534 71.2761 219.33 71.3782C218.914 71.5949 218.753 72.1049 218.965 72.5172L222.489 79.3346C222.706 79.7511 222.54 80.2568 222.124 80.4736C221.916 80.5799 221.687 80.5969 221.483 80.5289C221.275 80.4651 221.092 80.3164 220.99 80.1123L218.116 74.5573C218.01 74.3491 217.827 74.2045 217.624 74.1365C217.415 74.0728 217.186 74.0855 216.978 74.196C216.562 74.4086 216.405 74.9186 216.613 75.3351L235.18 111.249H256.103L231.049 62.78ZM225.13 78.918C224.718 79.1305 224.205 78.969 223.984 78.5483C223.771 78.1317 223.933 77.6175 224.349 77.405C224.727 77.2094 225.173 77.32 225.423 77.6472L225.55 77.898C225.678 78.289 225.508 78.7225 225.13 78.918ZM234.131 74.2556C233.741 74.4596 233.261 74.3278 233.027 73.9665L232.947 73.8093C232.79 73.4098 232.955 72.9422 233.346 72.7425C233.732 72.5427 234.195 72.6617 234.433 73.006C234.454 73.04 234.479 73.0697 234.492 73.1037C234.513 73.1377 234.53 73.176 234.543 73.21C234.687 73.6095 234.513 74.0558 234.131 74.2556Z" fill="#E4007F"/>
<path d="M198.008 101.937C198.008 101.661 197.914 101.406 197.761 101.227C197.609 101.045 197.396 100.934 197.163 100.934C196.696 100.934 196.318 101.385 196.318 101.937V111.254H198.008V101.937Z" fill="#E4007F"/>
<path d="M194.382 102.171C194.229 101.988 194.017 101.878 193.783 101.878C193.316 101.878 192.938 102.328 192.938 102.881V111.249H194.628V102.881C194.628 102.604 194.535 102.354 194.382 102.171Z" fill="#E4007F"/>
<path d="M191.007 99.9991C190.854 99.8163 190.641 99.7058 190.408 99.7058C189.941 99.7058 189.563 100.156 189.563 100.709V111.249H191.253V100.709C191.253 100.433 191.159 100.182 191.007 99.9991Z" fill="#E4007F"/>
<path d="M184.251 102.97C184.098 102.787 183.886 102.677 183.653 102.677C183.185 102.677 182.808 103.127 182.808 103.68V111.249H184.497V103.68C184.497 103.403 184.404 103.148 184.251 102.97Z" fill="#E4007F"/>
<path d="M180.859 105.592C180.706 105.41 180.494 105.299 180.26 105.299C179.793 105.299 179.416 105.75 179.416 106.302V111.249H181.105V106.302C181.105 106.026 181.012 105.771 180.859 105.592Z" fill="#E4007F"/>
<path d="M179.411 12.8357V73.9963H179.42V103.629C179.42 103.905 179.513 104.156 179.666 104.339C179.819 104.521 180.031 104.632 180.265 104.632C180.732 104.632 181.109 104.181 181.109 103.629V94.6651C181.109 94.1125 181.487 93.662 181.954 93.662C182.188 93.662 182.4 93.7725 182.553 93.9553C182.706 94.138 182.799 94.3888 182.799 94.6651V101.032C182.799 101.308 182.893 101.559 183.046 101.742C183.198 101.924 183.411 102.035 183.644 102.035C184.111 102.035 184.489 101.584 184.489 101.032V90.8526C184.489 90.3001 184.867 89.8496 185.334 89.8496C185.563 89.8496 185.776 89.9601 185.928 90.1428C186.081 90.3256 186.179 90.5764 186.179 90.8526V111.249H187.865V90.8526C187.865 90.3001 188.247 89.8496 188.709 89.8496C188.943 89.8496 189.155 89.9601 189.308 90.1428C189.461 90.3256 189.554 90.5764 189.554 90.8526V98.2565C189.554 98.5328 189.648 98.7878 189.801 98.9663C189.954 99.149 190.166 99.2595 190.399 99.2595C190.866 99.2595 191.244 98.8133 191.244 98.2565V93.4835C191.244 92.9267 191.622 92.4805 192.089 92.4805C192.323 92.4805 192.535 92.591 192.688 92.7695C192.841 92.9522 192.934 93.203 192.934 93.4835V99.9566C192.934 100.233 193.027 100.488 193.18 100.666C193.333 100.849 193.545 100.96 193.779 100.96C194.246 100.96 194.624 100.513 194.624 99.9566V90.8526C194.624 90.3001 195.002 89.8496 195.469 89.8496C195.702 89.8496 195.915 89.9601 196.067 90.1428C196.22 90.3256 196.314 90.5764 196.314 90.8526V98.2735C196.314 98.5498 196.407 98.8005 196.56 98.9833C196.713 99.166 196.925 99.2766 197.159 99.2766C197.626 99.2766 198.004 98.826 198.004 98.2735V12.8357H179.411ZM182.799 90.9674C182.757 91.4732 182.392 91.8727 181.954 91.8727C181.521 91.8727 181.165 91.4944 181.109 91.0014C181.105 90.9546 181.101 90.9121 181.101 90.8654C181.101 90.8186 181.105 90.7676 181.109 90.7251C181.165 90.2278 181.521 89.8496 181.954 89.8496C182.392 89.8496 182.757 90.2491 182.799 90.7591V90.9674ZM192.085 91.8727C191.66 91.8727 191.312 91.5114 191.244 91.0311V90.6954C191.312 90.2151 191.66 89.8496 192.085 89.8496C192.552 89.8496 192.934 90.3043 192.934 90.8654C192.934 91.4179 192.552 91.8727 192.085 91.8727Z" fill="#E4007F"/>
<path d="M249.815 12.8357V15.6876C249.815 26.0964 246.983 35.8379 242.054 44.1895C232.976 59.5625 216.774 70.2263 198.003 71.6247V52.928C216.698 50.8326 231.223 34.9623 231.223 15.6876V12.8357H249.815Z" fill="#E4007F"/>
<path d="M329.985 12.8357H266.425V31.4474H329.985V12.8357Z" fill="#E4007F"/>
<path d="M329.99 92.6165H285.009V111.228H329.99V92.6165Z" fill="#E4007F"/>
<path d="M283.286 101.793C283.286 101.516 283.192 101.261 283.039 101.083C282.886 100.9 282.674 100.79 282.441 100.79C281.974 100.79 281.596 101.24 281.596 101.793V111.109H283.286V101.793Z" fill="#E4007F"/>
<path d="M279.659 102.026C279.507 101.844 279.294 101.733 279.061 101.733C278.594 101.733 278.216 102.184 278.216 102.736V111.105H279.906V102.736C279.906 102.46 279.812 102.209 279.659 102.026Z" fill="#E4007F"/>
<path d="M276.284 99.8545C276.131 99.6718 275.919 99.5613 275.685 99.5613C275.218 99.5613 274.84 100.012 274.84 100.564V111.105H276.53V100.564C276.53 100.288 276.437 100.037 276.284 99.8545Z" fill="#E4007F"/>
<path d="M269.529 102.825C269.376 102.643 269.164 102.532 268.93 102.532C268.463 102.532 268.085 102.983 268.085 103.535V111.105H269.775V103.535C269.775 103.259 269.682 103.004 269.529 102.825Z" fill="#E4007F"/>
<path d="M266.136 105.448C265.984 105.265 265.771 105.155 265.538 105.155C265.071 105.155 264.693 105.605 264.693 106.158V111.105H266.383V106.158C266.383 105.881 266.289 105.626 266.136 105.448Z" fill="#E4007F"/>
<path d="M273.991 89.7093C274.225 89.7093 274.437 89.8198 274.59 90.0026C274.743 90.1853 274.836 90.4361 274.836 90.7124V98.1162C274.836 98.3925 274.93 98.6475 275.082 98.826C275.235 99.0088 275.448 99.1193 275.681 99.1193C276.148 99.1193 276.526 98.6688 276.526 98.1162V93.339C276.526 92.7822 276.904 92.336 277.371 92.336C277.604 92.336 277.817 92.4465 277.97 92.6292C278.122 92.812 278.216 93.0627 278.216 93.339V99.8121C278.216 100.088 278.309 100.343 278.462 100.522C278.615 100.705 278.827 100.815 279.061 100.815C279.528 100.815 279.906 100.365 279.906 99.8121V90.7081C279.906 90.1513 280.284 89.7051 280.751 89.7051C280.984 89.7051 281.196 89.8156 281.349 89.9983C281.502 90.1811 281.595 90.4319 281.595 90.7081V98.1247C281.595 98.401 281.689 98.656 281.842 98.8345C281.995 99.0173 282.207 99.1278 282.44 99.1278C282.907 99.1278 283.285 98.6773 283.285 98.1247V73.8475V64.6883V12.8357H264.693V73.8518H264.701V103.484C264.701 103.761 264.795 104.016 264.948 104.194C265.1 104.373 265.313 104.487 265.546 104.487C266.013 104.487 266.391 104.037 266.391 103.484V94.5248C266.391 93.968 266.769 93.5218 267.236 93.5218C267.47 93.5218 267.682 93.6323 267.835 93.815C267.988 93.9978 268.081 94.2486 268.081 94.5248V100.887C268.081 101.164 268.174 101.419 268.327 101.597C268.48 101.78 268.692 101.89 268.926 101.89C269.393 101.89 269.771 101.44 269.771 100.887V90.7124C269.771 90.1556 270.149 89.7093 270.616 89.7093C270.845 89.7093 271.057 89.8198 271.21 90.0026C271.363 90.1853 271.461 90.4361 271.461 90.7124V111.105H273.146V90.7124C273.146 90.1556 273.528 89.7093 273.991 89.7093ZM278.216 90.7209C278.216 91.2776 277.834 91.7282 277.367 91.7282C276.942 91.7282 276.594 91.3669 276.526 90.8866V90.5509C276.594 90.0706 276.942 89.7093 277.367 89.7093C277.834 89.7093 278.216 90.1641 278.216 90.7209ZM268.081 90.6146V90.8229C268.039 91.3329 267.673 91.7324 267.236 91.7324C266.803 91.7324 266.446 91.3542 266.391 90.8611C266.387 90.8144 266.383 90.7719 266.383 90.7251C266.383 90.6784 266.387 90.6274 266.391 90.5849C266.446 90.0918 266.803 89.7136 267.236 89.7136C267.673 89.7093 268.039 90.1088 268.081 90.6146Z" fill="#E4007F"/>
<path d="M308.582 52.6644C308.306 52.6644 308.051 52.7579 307.873 52.9109C307.69 53.0639 307.58 53.2765 307.58 53.5102C307.58 53.9777 308.03 54.356 308.582 54.356H317.888V52.6644H308.582Z" fill="#E4007F"/>
<path d="M308.819 56.2941C308.637 56.4471 308.526 56.6596 308.526 56.8934C308.526 57.3609 308.976 57.7392 309.528 57.7392H317.888V56.0476H309.528C309.252 56.0476 308.998 56.1411 308.819 56.2941Z" fill="#E4007F"/>
<path d="M306.646 59.673C306.463 59.826 306.353 60.0385 306.353 60.2723C306.353 60.7398 306.803 61.1181 307.355 61.1181H317.884V59.4265H307.355C307.079 59.4265 306.828 59.52 306.646 59.673Z" fill="#E4007F"/>
<path d="M309.613 66.4351C309.431 66.5881 309.32 66.8006 309.32 67.0344C309.32 67.5019 309.77 67.8802 310.322 67.8802H317.884V66.1886H310.322C310.046 66.1886 309.796 66.2821 309.613 66.4351Z" fill="#E4007F"/>
<path d="M312.233 69.831C312.051 69.9841 311.94 70.1966 311.94 70.4303C311.94 70.8979 312.39 71.2761 312.942 71.2761H317.885V69.5845H312.942C312.666 69.5845 312.416 69.678 312.233 69.831Z" fill="#E4007F"/>
<path d="M296.511 61.9681C296.511 61.7344 296.621 61.5219 296.804 61.3689C296.986 61.2159 297.237 61.1224 297.513 61.1224H304.909C305.185 61.1224 305.44 61.0288 305.618 60.8758C305.801 60.7228 305.911 60.5103 305.911 60.2766C305.911 59.809 305.461 59.4308 304.909 59.4308H300.137C299.581 59.4308 299.135 59.0525 299.135 58.585C299.135 58.3512 299.245 58.1387 299.428 57.9857C299.61 57.8327 299.861 57.7392 300.137 57.7392H306.603C306.879 57.7392 307.134 57.6457 307.312 57.4927C307.491 57.3397 307.605 57.1272 307.605 56.8934C307.605 56.4259 307.155 56.0476 306.603 56.0476H297.509C296.952 56.0476 296.507 55.6693 296.507 55.2018C296.507 54.968 296.617 54.7555 296.8 54.6025C296.982 54.4495 297.233 54.356 297.509 54.356H304.918C305.194 54.356 305.448 54.2625 305.627 54.1095C305.809 53.9565 305.92 53.744 305.92 53.5102C305.92 53.0427 305.47 52.6644 304.918 52.6644H280.665H271.52H264.939V71.2761H280.674V71.2676H310.276C310.552 71.2676 310.807 71.1741 310.985 71.0211C311.167 70.8681 311.278 70.6556 311.278 70.4218C311.278 69.9543 310.828 69.576 310.276 69.576H301.326C300.769 69.576 300.324 69.1978 300.324 68.7302C300.324 68.4965 300.434 68.284 300.617 68.131C300.799 67.978 301.05 67.8844 301.326 67.8844H307.682C307.958 67.8844 308.212 67.7909 308.391 67.6379C308.573 67.4849 308.684 67.2724 308.684 67.0386C308.684 66.5711 308.234 66.1929 307.682 66.1929H297.517C296.961 66.1929 296.515 65.8146 296.515 65.3471C296.515 65.1176 296.626 64.905 296.808 64.752C296.991 64.599 297.241 64.5013 297.517 64.5013H317.889V62.8139H297.517C296.961 62.8139 296.511 62.4314 296.511 61.9681ZM297.526 57.7392C298.082 57.7392 298.532 58.1217 298.532 58.5892C298.532 59.0142 298.171 59.3628 297.691 59.4308H297.356C296.876 59.3628 296.515 59.0142 296.515 58.5892C296.511 58.1217 296.965 57.7392 297.526 57.7392ZM297.419 67.8844H297.628C298.137 67.9269 298.536 68.2925 298.536 68.7302C298.536 69.1638 298.158 69.5208 297.666 69.576C297.619 69.5803 297.577 69.5845 297.53 69.5845C297.483 69.5845 297.432 69.5803 297.39 69.576C296.897 69.5208 296.519 69.1638 296.519 68.7302C296.511 68.2925 296.91 67.9269 297.419 67.8844Z" fill="#E4007F"/>
<path d="M118.747 85.7609H114.692V87.4524H118.747C118.981 87.4524 119.193 87.3589 119.346 87.2059C119.499 87.0529 119.592 86.8404 119.592 86.6067C119.592 86.1391 119.214 85.7609 118.747 85.7609Z" fill="#E4007F"/>
<path d="M114.692 84.0693H117.949C118.182 84.0693 118.395 83.9758 118.548 83.8228C118.7 83.6697 118.794 83.4572 118.794 83.2235C118.794 82.756 118.416 82.3777 117.949 82.3777H114.692V84.0693Z" fill="#E4007F"/>
<path d="M120.378 80.4439C120.53 80.2908 120.624 80.0783 120.624 79.8446C120.624 79.3771 120.246 78.9988 119.779 78.9988H114.692V80.6904H119.779C120.012 80.6904 120.225 80.5969 120.378 80.4439Z" fill="#E4007F"/>
<path d="M114.692 73.9283H117.278C117.512 73.9283 117.724 73.8348 117.877 73.6818C118.03 73.5288 118.123 73.3162 118.123 73.0825C118.123 72.615 117.745 72.2367 117.278 72.2367H114.692V73.9283Z" fill="#E4007F"/>
<path d="M115.915 69.6866C115.915 69.219 115.537 68.8408 115.07 68.8408H114.692V70.5323H115.07C115.304 70.5323 115.516 70.4388 115.669 70.2858C115.822 70.1328 115.915 69.9203 115.915 69.6866Z" fill="#E4007F"/>
<path d="M116.722 69.0915C116.569 69.2446 116.476 69.4571 116.476 69.6908C116.476 70.1584 116.854 70.5366 117.321 70.5366H124.865C125.332 70.5366 125.71 70.9149 125.71 71.3824C125.71 71.6162 125.617 71.8287 125.464 71.9817C125.311 72.1347 125.099 72.2282 124.865 72.2282H119.507C119.274 72.2282 119.061 72.3217 118.908 72.4747C118.756 72.6277 118.662 72.8402 118.662 73.074C118.662 73.5415 119.04 73.9198 119.507 73.9198H128.075C128.542 73.9198 128.92 74.2981 128.92 74.7656C128.92 74.9951 128.827 75.2076 128.674 75.3606C128.521 75.5136 128.309 75.6114 128.075 75.6114H114.692V77.2987H128.075C128.542 77.2987 128.92 77.6812 128.92 78.1445C128.92 78.3783 128.827 78.5908 128.674 78.7438C128.521 78.8968 128.309 78.9903 128.075 78.9903H121.842C121.609 78.9903 121.397 79.0838 121.244 79.2368C121.091 79.3898 120.997 79.6023 120.997 79.8361C120.997 80.3036 121.375 80.6819 121.842 80.6819H125.863C126.33 80.6819 126.708 81.0602 126.708 81.5277C126.708 81.7614 126.615 81.9739 126.462 82.127C126.309 82.28 126.097 82.3735 125.863 82.3735H120.412C120.178 82.3735 119.966 82.467 119.813 82.62C119.66 82.773 119.567 82.9855 119.567 83.2193C119.567 83.6868 119.944 84.065 120.412 84.065H128.075C128.542 84.065 128.92 84.4433 128.92 84.9108C128.92 85.1446 128.827 85.3571 128.674 85.5101C128.521 85.6631 128.309 85.7566 128.075 85.7566H121.83C121.596 85.7566 121.384 85.8501 121.231 86.0032C121.078 86.1562 120.985 86.3687 120.985 86.6024C120.985 87.07 121.363 87.4482 121.83 87.4482H149.988V68.845H117.321C117.087 68.845 116.875 68.9385 116.722 69.0915ZM128.067 82.3735C127.6 82.3735 127.218 81.9909 127.218 81.5234C127.218 81.0984 127.523 80.7499 127.927 80.6819H128.211C128.614 80.7499 128.92 81.0984 128.92 81.5234C128.92 81.9909 128.538 82.3735 128.067 82.3735ZM127.952 70.5366C127.99 70.5324 128.029 70.5281 128.067 70.5281C128.105 70.5281 128.147 70.5324 128.186 70.5366C128.602 70.5919 128.92 70.9489 128.92 71.3824C128.92 71.8202 128.585 72.1857 128.156 72.2282H127.982C127.553 72.1857 127.218 71.8202 127.218 71.3824C127.218 70.9489 127.536 70.5919 127.952 70.5366Z" fill="#E4007F"/>
<path d="M169.552 106.187C169.085 106.187 168.708 106.566 168.708 107.033V111.092H170.397V107.033C170.397 106.799 170.304 106.587 170.151 106.434C169.998 106.281 169.786 106.187 169.552 106.187Z" fill="#E4007F"/>
<path d="M166.173 106.986C165.706 106.986 165.328 107.365 165.328 107.832V111.092H167.017V107.832C167.017 107.598 166.924 107.386 166.771 107.233C166.618 107.08 166.406 106.986 166.173 106.986Z" fill="#E4007F"/>
<path d="M162.797 105.155C162.33 105.155 161.952 105.533 161.952 106V111.092H163.642V106C163.642 105.767 163.549 105.554 163.396 105.401C163.243 105.248 163.031 105.155 162.797 105.155Z" fill="#E4007F"/>
<path d="M156.042 107.658C155.575 107.658 155.197 108.036 155.197 108.504V111.092H156.887V108.504C156.887 108.27 156.794 108.057 156.641 107.904C156.488 107.751 156.276 107.658 156.042 107.658Z" fill="#E4007F"/>
<path d="M152.65 109.868C152.183 109.868 151.805 110.246 151.805 110.714V111.092H153.495V110.714C153.495 110.48 153.401 110.268 153.248 110.115C153.095 109.962 152.883 109.868 152.65 109.868Z" fill="#E4007F"/>
<path d="M132.376 12.8484C111.372 12.8484 94.3462 29.8961 94.3462 50.9219V111.092H112.939V50.9219C112.943 40.1773 121.643 31.4686 132.376 31.4686C143.114 31.4686 151.813 40.1773 151.818 50.9219V75.7601H151.813V108.461C151.813 108.695 151.907 108.908 152.06 109.061C152.212 109.214 152.425 109.307 152.658 109.307C153.125 109.307 153.503 108.929 153.503 108.461V100.909C153.503 100.441 153.881 100.063 154.348 100.063C154.582 100.063 154.794 100.156 154.947 100.309C155.1 100.462 155.193 100.675 155.193 100.909V106.272C155.193 106.506 155.286 106.719 155.439 106.872C155.592 107.025 155.804 107.118 156.038 107.118C156.505 107.118 156.883 106.74 156.883 106.272V97.6955C156.883 97.228 157.261 96.8497 157.728 96.8497C157.957 96.8497 158.169 96.9432 158.322 97.0962C158.475 97.2492 158.573 97.4617 158.573 97.6955V111.092H160.258V97.6955C160.258 97.228 160.64 96.8497 161.103 96.8497C161.337 96.8497 161.549 96.9432 161.702 97.0962C161.855 97.2492 161.948 97.4617 161.948 97.6955V103.935C161.948 104.169 162.042 104.381 162.194 104.534C162.347 104.687 162.56 104.781 162.793 104.781C163.26 104.781 163.638 104.402 163.638 103.935V99.9098C163.638 99.4423 164.016 99.064 164.483 99.064C164.716 99.064 164.929 99.1575 165.082 99.3106C165.234 99.4636 165.328 99.6761 165.328 99.9098V105.367C165.328 105.601 165.421 105.813 165.574 105.966C165.727 106.119 165.939 106.213 166.173 106.213C166.64 106.213 167.018 105.835 167.018 105.367V97.6955C167.018 97.228 167.396 96.8497 167.863 96.8497C168.096 96.8497 168.308 96.9432 168.461 97.0962C168.614 97.2492 168.707 97.4617 168.707 97.6955V103.948C168.707 104.181 168.801 104.394 168.954 104.547C169.107 104.7 169.319 104.793 169.552 104.793C170.019 104.793 170.397 104.415 170.397 103.948V89.1653H170.41V50.9219C170.41 29.8961 153.38 12.8484 132.376 12.8484ZM118.9 33.2962C116.153 35.1961 114.921 36.4201 113.083 39.4293C112.909 39.7098 112.692 39.9308 112.476 40.0541C112.255 40.1816 112.034 40.2156 111.86 40.1136C111.516 39.9181 111.504 39.2508 111.869 38.6515C114.268 34.7286 115.979 33.2112 119.757 31.0649C120.335 30.7376 120.662 30.2191 120.475 29.8706C120.377 29.6963 120.169 29.5985 119.906 29.59C119.639 29.5815 119.316 29.6665 119.01 29.8408C114.306 32.5014 110.65 36.7304 108.74 41.7967C108.599 42.1664 108.408 42.4767 108.205 42.6807C108.001 42.8847 107.784 42.9782 107.597 42.9145C107.228 42.7785 107.126 42.0134 107.419 41.2399C113.406 29.386 122.721 24.7533 135.811 25.1783C136.55 25.2633 137.199 25.0508 137.271 24.664C137.305 24.4728 137.187 24.273 136.953 24.1073C136.724 23.9415 136.38 23.8183 135.993 23.7715C123.986 23.372 115.609 26.6829 108.23 36.3181C108.013 36.6709 107.759 36.9557 107.512 37.1299C107.27 37.3042 107.033 37.3679 106.859 37.2702C106.519 37.0747 106.566 36.2799 107.016 35.5446C112.408 28.4425 117.77 25.0423 126.279 22.7132C128.071 22.5134 129.812 22.4114 131.51 22.4114C143.36 22.4114 152.849 27.3544 159.252 38.3837C159.626 39.1998 159.592 40.0201 159.231 40.1731C159.048 40.2538 158.819 40.1603 158.594 39.9478C158.369 39.7396 158.144 39.4123 157.966 39.0255C156.072 34.8901 154.701 33.1687 151.529 30.4146C151.232 30.1596 150.905 29.9896 150.62 29.9301C150.34 29.8706 150.102 29.9216 149.979 30.0746C149.729 30.3848 150.005 31.0011 150.565 31.4899C153.537 33.938 156.238 37.9077 157.452 41.5501C157.736 42.3322 157.63 43.0972 157.257 43.2247C157.07 43.2927 156.853 43.1907 156.649 42.9825C156.45 42.7742 156.263 42.4597 156.127 42.0899C154.858 38.6047 153.911 37.1002 151.656 34.584C151.419 34.3163 151.134 34.1335 150.879 34.057C150.625 33.9805 150.395 34.0103 150.255 34.1505C149.971 34.431 150.128 35.0388 150.578 35.5446C152.259 37.4232 152.989 38.5027 154.11 40.9509C154.412 41.6096 154.331 42.2939 153.966 42.4512C153.783 42.5319 153.567 42.4682 153.363 42.3109C153.159 42.1537 152.968 41.8987 152.824 41.5926C144.982 28.9993 131.82 26.3981 118.913 33.292C118.908 33.292 118.904 33.2962 118.9 33.2962ZM157.252 26.8742C157.112 27.0144 156.845 27.0059 156.526 26.8869C156.212 26.7636 155.838 26.5299 155.486 26.2196C154.021 24.9361 153.24 24.3538 151.605 23.3167C151.21 23.066 150.803 22.913 150.472 22.8705C150.141 22.828 149.886 22.8917 149.784 23.0617C149.576 23.4017 150.043 24.0265 150.803 24.511C155.601 27.5499 159.456 31.9319 161.821 37.1044C162.228 37.9927 162.224 38.881 161.859 39.0383C161.681 39.1148 161.443 39.0043 161.209 38.7663C160.972 38.5325 160.73 38.1712 160.534 37.7462C153.974 26.3386 144.812 21.4509 131.816 20.7368C126.122 21.2341 121.341 22.4327 117.121 24.6598C112.905 26.8869 109.245 30.1468 105.806 34.7668C105.572 35.1536 105.292 35.4723 105.033 35.6678C104.774 35.8676 104.532 35.9441 104.362 35.8464C104.014 35.6508 104.099 34.8008 104.591 33.989C108.285 28.23 113.873 23.5377 120.42 21.3616C121.265 21.0599 121.859 20.5498 121.732 20.1758C121.672 19.9888 121.435 19.8741 121.103 19.8443C120.768 19.8146 120.339 19.8741 119.898 20.0356C116.552 21.2299 114.938 22.0374 112.022 24.069C111.635 24.3368 111.245 24.528 110.913 24.613C110.586 24.698 110.323 24.6725 110.196 24.5195C109.945 24.2135 110.361 23.4825 111.151 22.9215C126.177 14.0385 142.417 14.6633 156.45 25.1486C157.193 25.7989 157.532 26.5894 157.252 26.8742ZM159.953 31.0904C159.91 31.0266 159.868 30.9714 159.808 30.8949C159.303 30.1553 159.099 29.4285 159.384 29.1863C159.668 28.9483 160.347 29.2755 160.916 29.9683C160.972 30.0321 161.023 30.0958 161.074 30.1638C161.12 30.2276 161.171 30.3041 161.218 30.3763C161.71 31.1286 161.834 31.8937 161.528 32.1019C161.218 32.3102 160.577 31.8852 160.025 31.1839C160.004 31.1584 159.982 31.1329 159.965 31.1074V31.1031C159.961 31.0989 159.957 31.0946 159.953 31.0904ZM106.341 44.8398C106.566 44.1215 106.999 43.671 107.338 43.7815C107.716 43.9005 107.839 44.6358 107.665 45.4518C107.487 46.2764 107.067 46.9097 106.68 46.8374C106.328 46.7694 106.133 46.1276 106.23 45.3668C106.239 45.2776 106.256 45.1883 106.273 45.0948C106.294 45.0098 106.315 44.9248 106.341 44.8398ZM105.891 27.5032C106.031 27.3544 106.099 27.2779 106.243 27.1292C106.884 26.5256 107.585 26.2876 107.839 26.5511C108.103 26.8189 107.818 27.5074 107.245 28.1705C107.211 28.2087 107.169 28.2512 107.126 28.298C107.088 28.3405 107.045 28.3872 106.999 28.4297C106.379 29.046 105.7 29.3818 105.411 29.1438C105.131 28.9058 105.326 28.1875 105.891 27.5032ZM158.131 47.1859C157.745 47.2539 157.329 46.6079 157.159 45.7791C156.993 44.9546 157.129 44.215 157.507 44.1003C157.847 43.9983 158.276 44.453 158.492 45.1841C158.492 45.1883 158.492 45.1968 158.496 45.2011C158.539 45.3966 158.556 45.4943 158.594 45.6899C158.594 45.6984 158.598 45.7026 158.598 45.7111C158.683 46.4761 158.484 47.1222 158.131 47.1859ZM163.748 36.1396C163.413 36.3054 162.836 35.7741 162.373 34.9708C162.339 34.9156 162.309 34.8603 162.279 34.8008C162.25 34.7456 162.22 34.6903 162.199 34.6393C161.791 33.8105 161.676 33.037 161.991 32.8372C162.305 32.6374 162.933 33.071 163.413 33.8615C163.455 33.938 163.502 34.0103 163.54 34.0868C163.583 34.1633 163.621 34.2483 163.659 34.3248C164.054 35.1748 164.075 35.9781 163.748 36.1396Z" fill="#E4007F"/>
<path d="M143.691 30.3764C145.351 31.1839 146.145 31.6684 147.619 32.799C148.03 33.1135 148.23 33.2793 148.625 33.6193C148.875 33.836 149.156 33.9848 149.406 34.04C149.771 34.125 150.081 34.0188 150.153 33.666C150.217 33.343 149.958 32.867 149.559 32.5227C149.151 32.17 148.943 31.9999 148.519 31.6769C146.961 30.4784 146.12 29.9641 144.362 29.1098C142.6 28.2513 141.674 27.907 139.785 27.3885C134.643 25.9944 129.154 26.0836 124.063 27.6562C123.498 27.8305 123.057 28.2215 123.052 28.5658C123.048 28.8505 123.277 29.029 123.604 29.0928C123.859 29.1395 124.169 29.114 124.487 29.0163C129.302 27.5202 134.503 27.431 139.373 28.7528C141.156 29.2416 142.031 29.5646 143.691 30.3764Z" fill="#E4007F"/>
<path d="M140.269 26.0496C141.526 26.3981 142.277 26.6446 143.279 27.0654C143.288 27.0696 143.296 27.0739 143.305 27.0739C143.313 27.0739 143.318 27.0781 143.322 27.0824C143.347 27.0951 143.369 27.1036 143.39 27.1079C143.407 27.1164 143.424 27.1249 143.441 27.1334C143.445 27.1334 143.449 27.1376 143.454 27.1376C143.466 27.1419 143.475 27.1461 143.488 27.1504C143.505 27.1546 143.526 27.1631 143.547 27.1759C143.564 27.1844 143.581 27.1886 143.594 27.1971C143.623 27.2056 143.649 27.2184 143.679 27.2311C143.827 27.2906 143.967 27.3502 144.103 27.4097C144.235 27.4692 144.362 27.5287 144.498 27.5882C144.783 27.7199 145.08 27.8687 145.441 28.0514C145.772 28.2172 146.103 28.3107 146.383 28.315C146.663 28.3235 146.888 28.2469 146.995 28.0769C147.203 27.7412 146.825 27.1461 146.133 26.7934C145.559 26.5001 145.143 26.3003 144.698 26.1091C144.642 26.0878 144.587 26.0623 144.536 26.0411C144.511 26.0283 144.485 26.0156 144.46 26.0071C144.439 25.9986 144.417 25.9901 144.396 25.9773C144.354 25.9646 144.315 25.9476 144.277 25.9306C144.265 25.9263 144.252 25.9178 144.239 25.9136C144.205 25.9008 144.175 25.8881 144.141 25.8753C144.12 25.8626 144.099 25.8541 144.078 25.8456C142.902 25.3441 142.099 25.0805 140.685 24.6895C139.934 24.477 139.237 24.6513 139.14 25.0338C139.093 25.2208 139.199 25.4291 139.403 25.6118C139.607 25.7903 139.913 25.9518 140.269 26.0496Z" fill="#E4007F"/>
<path d="M128.185 18.1315C127.251 18.2377 126.555 18.6713 126.623 19.058C126.657 19.2535 126.869 19.3981 127.183 19.4831C127.497 19.5681 127.913 19.5893 128.364 19.5426C133.548 19.3173 137.318 19.6361 142.387 20.7326C144.302 21.2894 145.236 21.6379 147.041 22.4667C147.448 22.6537 147.852 22.7642 148.179 22.7812C148.506 22.8025 148.752 22.7302 148.85 22.556C149.045 22.2117 148.531 21.5784 147.682 21.1874C145.937 20.3841 144.965 20.0143 143.237 19.5001C143.254 19.5043 143.271 19.5043 143.283 19.5086C143.249 19.5001 143.22 19.4916 143.194 19.4831C143.194 19.4831 143.19 19.4831 143.186 19.4831C143.16 19.4746 143.139 19.4661 143.118 19.4618C143.075 19.4448 143.029 19.4321 142.973 19.4193C142.995 19.4278 143.02 19.4321 143.041 19.4406C138.239 18.0167 133.161 17.5832 128.185 18.1315Z" fill="#E4007F"/>
<path d="M470.089 64.8115C470.089 64.8625 470.093 64.9135 470.097 64.9645C470.102 65.0155 470.106 65.0665 470.114 65.109C470.102 65.007 470.097 64.9093 470.089 64.8115Z" fill="#E4007F"/>
<path d="M463.232 80.9199C463.423 80.5288 463.321 79.751 463.062 79.0285C462.841 78.4165 462.633 77.7959 462.438 77.1712C461.72 74.8803 461.172 72.5299 460.79 70.1456C460.412 67.7612 460.2 65.3428 460.162 62.9202C460.124 60.5741 460.243 58.228 460.519 55.9031C460.62 55.0318 460.502 54.1775 460.166 53.9055C459.894 53.6845 459.576 53.846 459.321 54.2625C459.122 54.5855 458.965 55.0573 458.901 55.5928C458.608 58.0324 458.481 60.4976 458.519 62.9584C458.561 65.4746 458.778 67.9907 459.173 70.4686C459.568 72.9464 460.136 75.3903 460.884 77.7704C461.092 78.4335 461.313 79.0923 461.55 79.7468C461.733 80.2526 461.992 80.6648 462.255 80.9241C462.637 81.2939 463.028 81.3406 463.232 80.9199Z" fill="#E4007F"/>
<path d="M469.66 68.3519C470.106 68.2627 470.365 67.5572 470.271 66.7709C470.106 65.398 470.012 64.0167 469.991 62.6354C469.991 62.5887 469.991 62.5419 469.991 62.4951C469.982 61.7004 469.634 61.0458 469.18 61.0288C468.955 61.0203 468.743 61.1818 468.59 61.4496C468.437 61.7174 468.344 62.0999 468.348 62.5207C468.365 64.0252 468.462 65.5298 468.641 67.0216C468.692 67.4381 468.832 67.7994 469.019 68.0417C469.21 68.2754 469.439 68.3944 469.66 68.3519Z" fill="#E4007F"/>
<path d="M473.494 58.0877C473.511 57.9347 473.528 57.7817 473.549 57.6329C473.549 57.6074 473.553 57.5862 473.558 57.5649C473.558 57.5564 473.558 57.5479 473.562 57.5437C473.655 57.0889 473.804 56.3111 474.003 54.9085V54.9043C474.029 54.7513 474.063 54.6025 474.097 54.4495C474.144 54.237 474.194 54.0202 474.245 53.8077C474.258 53.7652 474.267 53.7227 474.275 53.6802C474.288 53.6292 474.301 53.5782 474.313 53.5272C474.326 53.4762 474.343 53.4209 474.356 53.3657C474.411 53.1574 474.466 52.9492 474.526 52.7409C474.526 52.7282 474.53 52.7154 474.534 52.7027C474.611 52.4264 474.687 52.1544 474.772 51.8824C474.853 51.6231 474.933 51.3638 475.018 51.1088C475.027 51.0833 475.035 51.0578 475.044 51.0323C475.133 50.7731 475.222 50.518 475.315 50.263C475.4 50.0208 475.494 49.7785 475.587 49.5405C475.596 49.515 475.604 49.4937 475.617 49.4682C475.719 49.2047 475.825 48.9412 475.939 48.682C476.05 48.4227 476.165 48.1634 476.283 47.9042C476.381 47.6917 476.479 47.4791 476.585 47.2666C476.632 47.1646 476.687 47.0584 476.742 46.9521C476.772 46.8841 476.806 46.8161 476.844 46.7481C476.861 46.7099 476.882 46.6716 476.903 46.6334C476.908 46.6206 476.916 46.6121 476.92 46.5993C478.326 44.0365 480.483 41.0996 483.892 37.9204C483.875 37.9332 483.854 37.9459 483.837 37.9629C483.866 37.9332 483.9 37.9077 483.93 37.8822C483.917 37.8949 483.905 37.9077 483.892 37.9204C488.443 34.2015 494.464 31.8894 501.949 31.8894H520.92V12.9207H501.949C500.332 12.9207 498.752 12.9887 497.22 13.1162C497.177 13.1204 497.135 13.1247 497.092 13.1289C496.697 13.1629 496.307 13.2012 495.916 13.2437C495.547 13.2819 495.177 13.3287 494.808 13.3754C494.659 13.3967 494.515 13.4137 494.371 13.4349C494.073 13.4774 493.78 13.5199 493.492 13.5667C493.377 13.5837 493.258 13.6007 493.139 13.6262C492.931 13.6559 492.723 13.6899 492.515 13.7324C492.358 13.7579 492.201 13.7877 492.044 13.8174C491.963 13.8302 491.878 13.8472 491.798 13.8642C491.534 13.911 491.275 13.9662 491.016 14.0215C490.94 14.0385 490.864 14.0512 490.787 14.0725C490.732 14.081 490.681 14.0937 490.626 14.1065C490.341 14.166 490.061 14.2297 489.781 14.302C489.7 14.319 489.62 14.336 489.539 14.3615C488.974 14.4932 488.422 14.642 487.874 14.7992C487.649 14.863 487.424 14.9268 487.204 14.9948C487.093 15.0245 486.987 15.0585 486.881 15.0925C486.728 15.1393 486.58 15.186 486.431 15.2328L486.113 15.3348C485.815 15.4325 485.522 15.5345 485.229 15.6365C485.204 15.645 485.174 15.6578 485.144 15.6663C485.102 15.6833 485.055 15.7003 485.009 15.7173C484.758 15.8065 484.508 15.8958 484.261 15.9936C484.172 16.0233 484.079 16.0616 483.99 16.0956C483.977 16.0998 483.964 16.1041 483.951 16.1083C483.629 16.2358 483.31 16.3633 482.992 16.4993C482.971 16.5036 482.945 16.5121 482.924 16.5248C482.911 16.5248 482.903 16.5333 482.89 16.5376C482.554 16.6778 482.223 16.8181 481.896 16.9669C481.552 17.1199 481.213 17.2771 480.873 17.4386C480.869 17.4429 480.865 17.4471 480.86 17.4471C480.521 17.6129 480.181 17.7786 479.846 17.9529C479.57 18.0932 479.294 18.2377 479.026 18.3864C478.967 18.4162 478.907 18.4502 478.852 18.4799C478.835 18.4884 478.822 18.4927 478.81 18.5054C478.606 18.6159 478.402 18.7307 478.203 18.8455C478.186 18.854 478.169 18.8625 478.156 18.8752C473.184 21.5146 470.513 24.3537 468.654 26.3301C468.615 26.3726 468.573 26.4151 468.535 26.4576C468.526 26.4618 468.522 26.4703 468.518 26.4746L468.48 26.5128C468.25 26.7551 468.034 26.9846 467.826 27.1971C467.792 27.2439 467.754 27.2949 467.72 27.3416C467.715 27.3459 467.715 27.3501 467.711 27.3501C467.652 27.4181 467.592 27.4861 467.537 27.5541C467.342 27.7709 467.151 27.9919 466.964 28.2129C466.875 28.3149 466.785 28.4212 466.705 28.5232C466.518 28.7442 466.335 28.9652 466.157 29.1905C466.127 29.2245 466.102 29.2585 466.076 29.2925C466.034 29.3435 465.996 29.3902 465.962 29.4412C465.8 29.641 465.643 29.8408 465.495 30.0448C465.406 30.1595 465.316 30.2743 465.232 30.389C465.21 30.4145 465.189 30.44 465.172 30.4698C464.607 31.0521 464.493 31.0776 464.578 31.2858C448.087 54.5472 453.424 93.2114 480.593 106.506C486.63 109.464 493.751 111.164 501.949 111.164H518.627V92.1361H499.92C480.614 91.0183 471.8 73.958 473.473 58.2747C473.481 58.2109 473.485 58.1514 473.494 58.0877ZM475.362 45.9576C475.303 46.0723 475.243 46.1871 475.188 46.3061C474.848 46.8629 474.335 47.1604 473.957 46.9606C473.575 46.7566 473.481 46.0723 473.766 45.4008C473.783 45.3625 473.804 45.3158 473.825 45.2733C473.851 45.2265 473.872 45.184 473.897 45.1415C474.258 44.5167 474.84 44.2277 475.201 44.47C475.562 44.708 475.608 45.3455 475.362 45.9576ZM475.85 26.6998C476.674 26.0411 477.587 25.8668 477.85 26.2663C478.092 26.6276 477.752 27.3034 477.116 27.8942C477.043 27.9622 476.971 28.0302 476.882 28.0982C476.806 28.1619 476.725 28.2214 476.644 28.2767C475.935 28.7655 475.23 28.9227 474.959 28.5912C474.657 28.2214 475.039 27.3544 475.85 26.6998ZM475.022 90.7888C474.861 90.9631 474.585 90.9843 474.267 90.8738C473.952 90.7591 473.596 90.5041 473.29 90.147C470.547 86.9679 468.382 83.334 466.781 79.4323C466.603 78.9945 466.365 78.6332 466.119 78.4037C465.868 78.1742 465.614 78.0764 465.401 78.1699C464.981 78.3484 464.909 79.258 465.287 80.1718C467.261 84.9958 470.072 89.433 473.723 93.1434C474.411 93.8447 474.759 94.682 474.458 95.0475C474.305 95.2303 474.02 95.2601 473.672 95.1495C473.328 95.0348 472.929 94.7798 472.573 94.4143C469.741 91.5369 467.397 88.2472 465.533 84.677C465.299 84.2265 465.011 83.8567 464.731 83.6272C464.455 83.402 464.183 83.3169 463.979 83.4275C463.576 83.6527 463.61 84.6218 464.106 85.5696C465.635 88.4937 467.473 91.2394 469.626 93.7385C470.318 94.5418 470.653 95.4471 470.335 95.7956C470.174 95.9656 469.872 95.9656 469.524 95.8126C469.172 95.6596 468.768 95.3578 468.407 94.937C457.135 81.8591 454.124 62.1934 459.377 45.5963C459.381 45.5878 459.381 45.5835 459.385 45.5751C460.884 40.8446 463.058 36.3606 465.898 32.3526C466.217 31.9021 466.59 31.5621 466.921 31.3793C467.253 31.1966 467.55 31.1668 467.724 31.3241C468.072 31.6428 467.822 32.5694 467.21 33.4364C463.847 38.1712 461.461 43.5987 460.052 49.3152C459.793 50.3608 459.975 51.3086 460.417 51.4191C460.638 51.4743 460.884 51.3213 461.1 51.0238C461.317 50.7306 461.508 50.297 461.631 49.7955C463.47 42.3704 467.011 35.451 472.263 29.9853C472.619 29.6155 473.014 29.3562 473.358 29.2415C473.698 29.1225 473.986 29.1522 474.139 29.3307C474.445 29.6962 474.11 30.5335 473.43 31.2433C465.053 39.9605 461.198 52.5199 461.869 64.769C461.873 64.803 461.869 64.8285 461.873 64.8625C461.945 66.1376 462.064 67.4084 462.234 68.675C462.31 69.236 462.395 69.7928 462.489 70.3496C462.599 70.9956 462.722 71.6374 462.858 72.2749C462.964 72.7637 463.151 73.1802 463.372 73.4522C463.593 73.7285 463.839 73.856 464.055 73.788C464.493 73.6477 464.654 72.7892 464.455 71.8584C464.327 71.2463 464.208 70.6301 464.102 70.0138C464.013 69.4783 463.928 68.9427 463.856 68.403C463.813 68.0842 463.775 67.7612 463.737 67.4382C463.733 67.4084 463.737 67.3787 463.733 67.3489C462.527 56.6001 464.998 45.3413 471.146 36.6751C471.418 36.2926 471.745 36.0078 472.046 35.8676C472.348 35.7231 472.624 35.7188 472.798 35.8761C473.142 36.1948 472.976 37.0236 472.458 37.7547C467.452 44.8143 464.99 53.6717 465.079 62.4994C465.125 67.3234 465.936 72.1431 467.507 76.6484C469.078 81.1578 471.413 85.3613 474.509 88.9527C475.095 89.6328 475.341 90.4446 475.022 90.7888ZM478.211 98.0737C477.952 98.4775 477.031 98.3117 476.203 97.6614C475.379 97.0196 474.988 96.1526 475.286 95.7828C475.553 95.4428 476.262 95.5958 476.975 96.0803C476.984 96.0846 476.988 96.0888 476.997 96.0931C477.141 96.2078 477.29 96.3226 477.438 96.4374C477.443 96.4416 477.451 96.4501 477.455 96.4544C478.101 97.0366 478.449 97.7124 478.211 98.0737ZM478.415 82.9727C478.457 83.0194 478.495 83.0662 478.534 83.1129C478.572 83.1597 478.61 83.215 478.644 83.266C479.013 83.8185 479.09 84.456 478.78 84.7663C478.466 85.0765 477.833 84.9108 477.353 84.3753C477.319 84.3413 477.29 84.2988 477.256 84.2605C477.226 84.2223 477.196 84.184 477.175 84.1457C476.763 83.5507 476.725 82.8579 477.065 82.5774C477.404 82.3054 477.973 82.4924 478.415 82.9727ZM475.235 79.6745C475.596 79.4408 476.139 79.6915 476.525 80.2186C476.559 80.2696 476.598 80.3163 476.627 80.3716C476.657 80.4226 476.691 80.4821 476.721 80.5373C477.022 81.1281 477.031 81.7656 476.691 82.0376C476.347 82.3139 475.744 82.0801 475.328 81.4936C475.298 81.4554 475.273 81.4129 475.247 81.3704V81.3661C475.222 81.3236 475.196 81.2854 475.175 81.2471C474.836 80.6053 474.87 79.9125 475.235 79.6745ZM473.358 50.8538C470.772 58.908 471.091 68.0544 474.313 75.8366C474.594 76.5251 474.521 77.2519 474.118 77.4814C473.914 77.5919 473.668 77.5537 473.43 77.3922C473.192 77.2349 472.967 76.9501 472.815 76.5846C472.301 75.3351 471.855 74.0557 471.481 72.7509C471.371 72.3684 471.193 72.0496 470.985 71.8456C470.777 71.6374 470.539 71.5396 470.322 71.6076C469.881 71.7351 469.685 72.4959 469.915 73.2992C471.316 78.1827 473.664 82.7474 476.946 86.5599C477.481 87.1804 477.685 87.9412 477.362 88.2897C477.201 88.4597 476.937 88.4937 476.64 88.4002C476.343 88.3067 476.007 88.0857 475.727 87.7584C471.087 82.3734 468.238 75.5646 467.18 68.4285C465.656 58.1387 467.851 47.1731 473.766 38.8342C474.016 38.4814 474.326 38.2307 474.611 38.1117C474.895 37.9884 475.158 37.9969 475.332 38.1542C475.681 38.4687 475.549 39.2465 475.078 39.9138C471.481 44.9885 469.324 51.0791 468.615 57.3736C468.522 58.2067 468.841 58.9165 469.291 58.9547C469.516 58.9802 469.732 58.8357 469.902 58.5892C470.072 58.3427 470.199 57.9942 470.242 57.5989C470.526 55.104 471.044 52.6389 471.804 50.263C471.927 49.889 472.127 49.583 472.352 49.4002C472.573 49.2175 472.819 49.158 473.027 49.2515C473.447 49.4385 473.575 50.1483 473.358 50.8538Z" fill="#E4007F"/>
<path d="M676.491 92.5527H631.51V111.164H676.491V92.5527Z" fill="#E4007F"/>
<path d="M668.665 12.7507C668.432 12.7507 668.219 12.8442 668.067 12.9972C667.914 13.1502 667.82 13.3627 667.82 13.5965C667.82 14.064 668.198 14.4423 668.665 14.4423H676.507V12.7507H668.665Z" fill="#E4007F"/>
<path d="M668.865 16.3804C668.712 16.5334 668.619 16.7459 668.619 16.9796C668.619 17.4472 668.997 17.8254 669.464 17.8254H676.507V16.1339H669.464C669.23 16.1339 669.018 16.2274 668.865 16.3804Z" fill="#E4007F"/>
<path d="M667.035 19.7593C666.882 19.9123 666.789 20.1248 666.789 20.3585C666.789 20.8261 667.166 21.2043 667.633 21.2043H676.507V19.5128H667.633C667.4 19.5128 667.188 19.6063 667.035 19.7593Z" fill="#E4007F"/>
<path d="M669.536 26.5214C669.383 26.6744 669.29 26.8869 669.29 27.1206C669.29 27.5882 669.667 27.9664 670.134 27.9664H676.507V26.2748H670.134C669.901 26.2748 669.689 26.3683 669.536 26.5214Z" fill="#E4007F"/>
<path d="M671.744 29.9173C671.591 30.0703 671.498 30.2828 671.498 30.5166C671.498 30.9841 671.875 31.3624 672.342 31.3624H676.508V29.6708H672.342C672.109 29.6708 671.897 29.7643 671.744 29.9173Z" fill="#E4007F"/>
<path d="M658.492 22.0544C658.492 21.8206 658.586 21.6081 658.739 21.4551C658.891 21.3021 659.104 21.2086 659.337 21.2086H665.57C665.804 21.2086 666.016 21.1151 666.169 20.9621C666.322 20.8091 666.415 20.5966 666.415 20.3628C666.415 19.8953 666.037 19.517 665.57 19.517H661.549C661.082 19.517 660.704 19.1387 660.704 18.6712C660.704 18.4375 660.798 18.2249 660.951 18.0719C661.104 17.9189 661.316 17.8254 661.549 17.8254H667.001C667.234 17.8254 667.447 17.7319 667.6 17.5789C667.752 17.4259 667.846 17.2134 667.846 16.9796C667.846 16.5121 667.468 16.1338 667.001 16.1338H659.337C658.87 16.1338 658.492 15.7556 658.492 15.288C658.492 15.0543 658.586 14.8418 658.739 14.6888C658.891 14.5358 659.104 14.4423 659.337 14.4423H665.583C665.816 14.4423 666.029 14.3488 666.182 14.1957C666.334 14.0427 666.428 13.8302 666.428 13.5965C666.428 13.1289 666.05 12.7507 665.583 12.7507H645.143H637.429H631.493V31.3624H645.148V31.3539H670.096C670.33 31.3539 670.542 31.2604 670.695 31.1073C670.848 30.9543 670.941 30.7418 670.941 30.5081C670.941 30.0405 670.563 29.6623 670.096 29.6623H662.551C662.084 29.6623 661.706 29.284 661.706 28.8165C661.706 28.5827 661.8 28.3702 661.953 28.2172C662.106 28.0642 662.318 27.9707 662.551 27.9707H667.91C668.143 27.9707 668.355 27.8772 668.508 27.7242C668.661 27.5712 668.754 27.3587 668.754 27.1249C668.754 26.6574 668.377 26.2791 667.91 26.2791H659.342C658.874 26.2791 658.497 25.9008 658.497 25.4333C658.497 25.2038 658.59 24.9913 658.743 24.8383C658.896 24.6853 659.108 24.5875 659.342 24.5875H676.512V22.9002H659.342C658.87 22.9002 658.492 22.5177 658.492 22.0544ZM659.346 17.8254C659.813 17.8254 660.195 18.2079 660.195 18.6755C660.195 19.1005 659.889 19.449 659.486 19.517H659.201C658.798 19.449 658.492 19.1005 658.492 18.6755C658.492 18.2079 658.875 17.8254 659.346 17.8254ZM659.257 27.9707H659.431C659.86 28.0132 660.195 28.3787 660.195 28.8165C660.195 29.25 659.876 29.607 659.46 29.6623C659.422 29.6665 659.384 29.6708 659.346 29.6708C659.308 29.6708 659.265 29.6665 659.227 29.6623C658.811 29.607 658.492 29.25 658.492 28.8165C658.492 28.3787 658.828 28.0132 659.257 27.9707Z" fill="#E4007F"/>
<path d="M663.295 82.0377C663.295 81.7614 663.201 81.5064 663.049 81.3279C662.896 81.1451 662.683 81.0346 662.45 81.0346C661.983 81.0346 661.605 81.4851 661.605 82.0377V91.3541H663.295V82.0377Z" fill="#E4007F"/>
<path d="M659.669 82.2757C659.516 82.0929 659.304 81.9824 659.07 81.9824C658.603 81.9824 658.225 82.4329 658.225 82.9855V91.3541H659.915V82.9855C659.915 82.7092 659.821 82.4584 659.669 82.2757Z" fill="#E4007F"/>
<path d="M656.293 80.1038C656.14 79.9211 655.928 79.8105 655.695 79.8105C655.227 79.8105 654.85 80.2611 654.85 80.8136V91.3541H656.539V80.8136C656.539 80.5373 656.446 80.2823 656.293 80.1038Z" fill="#E4007F"/>
<path d="M649.538 83.0747C649.385 82.8919 649.173 82.7814 648.94 82.7814C648.473 82.7814 648.095 83.232 648.095 83.7845V91.3541H649.785V83.7845C649.785 83.5082 649.691 83.2532 649.538 83.0747Z" fill="#E4007F"/>
<path d="M646.146 85.6971C645.993 85.5143 645.781 85.4038 645.547 85.4038C645.08 85.4038 644.702 85.8543 644.702 86.4069V91.3541H646.392V86.4069C646.392 86.1306 646.299 85.8756 646.146 85.6971Z" fill="#E4007F"/>
<path d="M654.001 69.9585C654.234 69.9585 654.446 70.069 654.599 70.2518C654.752 70.4346 654.845 70.6853 654.845 70.9616V78.3655C654.845 78.6417 654.939 78.8967 655.092 79.0753C655.245 79.2538 655.457 79.3685 655.69 79.3685C656.157 79.3685 656.535 78.918 656.535 78.3655V73.5882C656.535 73.0314 656.913 72.5852 657.38 72.5852C657.614 72.5852 657.826 72.6957 657.979 72.8784C658.132 73.0612 658.225 73.312 658.225 73.5882V80.0613C658.225 80.3376 658.319 80.5926 658.471 80.7711C658.624 80.9538 658.837 81.0644 659.07 81.0644C659.537 81.0644 659.915 80.6138 659.915 80.0613V70.9573C659.915 70.4006 660.293 69.9543 660.76 69.9543C660.993 69.9543 661.206 70.0648 661.359 70.2476C661.511 70.4303 661.605 70.6811 661.605 70.9573V78.374C661.605 78.6502 661.698 78.9052 661.851 79.0838C662.004 79.2665 662.216 79.377 662.45 79.377C662.917 79.377 663.295 78.9265 663.295 78.374V54.0967V44.9333V31.3581H644.702V54.0967H644.711V83.7292C644.711 84.0055 644.804 84.2605 644.957 84.439C645.11 84.6218 645.322 84.7323 645.556 84.7323C646.023 84.7323 646.4 84.2818 646.4 83.7292V74.7698C646.4 74.213 646.778 73.7667 647.245 73.7667C647.479 73.7667 647.691 73.8772 647.844 74.06C647.997 74.2428 648.09 74.4935 648.09 74.7698V81.1324C648.09 81.4086 648.184 81.6636 648.337 81.8421C648.489 82.0249 648.702 82.1354 648.935 82.1354C649.402 82.1354 649.78 81.6849 649.78 81.1324V70.9573C649.78 70.4006 650.158 69.9543 650.625 69.9543C650.854 69.9543 651.067 70.0648 651.22 70.2476C651.372 70.4303 651.47 70.6811 651.47 70.9573V91.3499H653.156V70.9573C653.156 70.4048 653.538 69.9585 654.001 69.9585ZM658.225 70.9701C658.225 71.5269 657.843 71.9774 657.376 71.9774C656.951 71.9774 656.603 71.6161 656.535 71.1358V70.8001C656.603 70.3198 656.951 69.9585 657.376 69.9585C657.843 69.9585 658.225 70.4091 658.225 70.9701ZM648.09 70.8638V71.0721C648.048 71.5821 647.683 71.9816 647.245 71.9816C646.812 71.9816 646.456 71.6034 646.4 71.1103C646.396 71.0636 646.392 71.0211 646.392 70.9743C646.392 70.9276 646.396 70.8766 646.4 70.8341C646.456 70.3411 646.812 69.9628 647.245 69.9628C647.683 69.9585 648.048 70.3538 648.09 70.8638Z" fill="#E4007F"/>
<path d="M798.401 100.845C797.934 100.845 797.556 101.295 797.556 101.848V111.164H799.246V101.848C799.246 101.572 799.153 101.317 799 101.138C798.847 100.955 798.635 100.845 798.401 100.845Z" fill="#E4007F"/>
<path d="M795.021 101.793C794.554 101.793 794.176 102.243 794.176 102.796V111.164H795.866V102.796C795.866 102.519 795.773 102.264 795.62 102.086C795.467 101.903 795.255 101.793 795.021 101.793Z" fill="#E4007F"/>
<path d="M791.646 99.6208C791.179 99.6208 790.801 100.071 790.801 100.624V111.164H792.491V100.624C792.491 100.348 792.397 100.093 792.244 99.9141C792.091 99.7313 791.879 99.6208 791.646 99.6208Z" fill="#E4007F"/>
<path d="M784.891 102.592C784.424 102.592 784.046 103.042 784.046 103.595V111.164H785.736V103.595C785.736 103.318 785.642 103.063 785.489 102.885C785.337 102.702 785.124 102.592 784.891 102.592Z" fill="#E4007F"/>
<path d="M781.498 105.214C781.031 105.214 780.653 105.665 780.653 106.217V111.164H782.343V106.217C782.343 105.941 782.25 105.686 782.097 105.507C781.944 105.325 781.732 105.214 781.498 105.214Z" fill="#E4007F"/>
<path d="M862.254 20.4393C862.254 20.163 862.16 19.908 862.007 19.7295C861.855 19.5468 861.642 19.4363 861.409 19.4363C860.942 19.4363 860.564 19.8825 860.564 20.4393V29.3988C860.564 29.9555 860.186 30.4018 859.719 30.4018C859.485 30.4018 859.273 30.2913 859.12 30.1085C858.967 29.93 858.874 29.675 858.874 29.3988V23.0362C858.874 22.7599 858.781 22.5049 858.628 22.3264C858.475 22.1436 858.263 22.0331 858.029 22.0331C857.562 22.0331 857.184 22.4794 857.184 23.0362V33.2112C857.184 33.768 856.806 34.2143 856.339 34.2143C856.11 34.2143 855.898 34.1037 855.745 33.921C855.592 33.7425 855.494 33.4875 855.494 33.2112V12.8187H853.809V33.2112C853.809 33.768 853.427 34.2143 852.964 34.2143C852.73 34.2143 852.518 34.1037 852.365 33.921C852.212 33.7425 852.119 33.4875 852.119 33.2112V25.8073C852.119 25.5311 852.026 25.2803 851.873 25.0975C851.72 24.9148 851.508 24.8043 851.274 24.8043C850.807 24.8043 850.429 25.2548 850.429 25.8073V30.5846C850.429 31.1371 850.051 31.5876 849.584 31.5876C849.351 31.5876 849.138 31.4771 848.986 31.2944C848.833 31.1158 848.739 30.8608 848.739 30.5846V24.1115C848.739 23.831 848.646 23.5802 848.493 23.3975C848.34 23.2189 848.128 23.1042 847.894 23.1042C847.427 23.1042 847.049 23.5547 847.049 24.1115V33.2112C847.049 33.768 846.672 34.2143 846.205 34.2143C845.971 34.2143 845.759 34.1037 845.606 33.921C845.453 33.7425 845.36 33.4875 845.36 33.2112V25.7946C845.36 25.5183 845.266 25.2633 845.113 25.0848C844.96 24.902 844.748 24.7915 844.515 24.7915C844.048 24.7915 843.67 25.2378 843.67 25.7946V79.037L842.944 78.0127L799.246 16.4909L798.52 15.4666L796.592 12.7507H780.653V22.4327V73.9113H780.662V103.544C780.662 103.82 780.755 104.071 780.908 104.254C781.061 104.436 781.273 104.547 781.507 104.547C781.974 104.547 782.352 104.096 782.352 103.544V94.58C782.352 94.0275 782.73 93.577 783.197 93.577C783.43 93.577 783.642 93.6875 783.795 93.8703C783.948 94.053 784.041 94.3038 784.041 94.58V100.947C784.041 101.223 784.135 101.474 784.288 101.657C784.441 101.839 784.653 101.95 784.886 101.95C785.353 101.95 785.731 101.499 785.731 100.947V90.7676C785.731 90.2151 786.109 89.7646 786.576 89.7646C786.805 89.7646 787.018 89.8751 787.171 90.0578C787.323 90.2406 787.421 90.4913 787.421 90.7676V111.164H789.107V90.7676C789.107 90.2151 789.489 89.7646 789.952 89.7646C790.185 89.7646 790.397 89.8751 790.55 90.0578C790.703 90.2406 790.797 90.4913 790.797 90.7676V98.1715C790.797 98.4477 790.89 98.7028 791.043 98.8813C791.196 99.064 791.408 99.1745 791.642 99.1745C792.109 99.1745 792.486 98.7283 792.486 98.1715V93.3985C792.486 92.8417 792.864 92.3912 793.331 92.3912C793.565 92.3912 793.777 92.506 793.93 92.6845C794.083 92.8672 794.176 93.118 794.176 93.3985V99.8716C794.176 100.148 794.27 100.403 794.422 100.581C794.575 100.764 794.788 100.875 795.021 100.875C795.488 100.875 795.866 100.428 795.866 99.8716V90.7676C795.866 90.2151 796.244 89.7646 796.711 89.7646C796.945 89.7646 797.157 89.8751 797.31 90.0578C797.463 90.2406 797.556 90.4913 797.556 90.7676V98.1885C797.556 98.4647 797.649 98.7155 797.802 98.8983C797.955 99.081 798.167 99.1915 798.401 99.1915C798.868 99.1915 799.246 98.741 799.246 98.1885V48.6097L842.944 110.132L843.67 111.156V111.164H843.678H862.262V105.21V50.0718H862.254V20.4393ZM784.041 90.8824C783.999 91.3881 783.634 91.7877 783.197 91.7877C782.763 91.7877 782.407 91.4094 782.352 90.9164C782.347 90.8696 782.343 90.8271 782.343 90.7804C782.343 90.7336 782.347 90.6826 782.352 90.6401C782.407 90.1428 782.763 89.7646 783.197 89.7646C783.634 89.7646 783.999 90.1641 784.041 90.6741V90.8824ZM793.327 91.7877C792.903 91.7877 792.554 91.4264 792.486 90.9461V90.6061C792.554 90.1301 792.903 89.7646 793.327 89.7646C793.794 89.7646 794.176 90.2193 794.176 90.7804C794.176 91.3329 793.794 91.7877 793.327 91.7877ZM858.874 33.1007C858.917 32.5907 859.282 32.1912 859.719 32.1912C860.152 32.1912 860.509 32.5694 860.564 33.0667C860.568 33.1092 860.572 33.156 860.572 33.2027C860.572 33.2452 860.568 33.2962 860.564 33.343C860.509 33.836 860.152 34.2143 859.719 34.2143C859.282 34.2143 858.917 33.8147 858.874 33.309V33.1007ZM849.588 32.1912C850.013 32.1912 850.361 32.5567 850.429 33.0369V33.3727C850.361 33.853 850.013 34.2143 849.588 34.2143C849.121 34.2143 848.739 33.7595 848.739 33.2027C848.739 32.6459 849.121 32.1912 849.588 32.1912Z" fill="#E4007F"/>
<path d="M844.515 23.1382C844.982 23.1382 845.36 22.6877 845.36 22.1309V12.8187H843.67V22.1309C843.67 22.4114 843.763 22.6622 843.916 22.8449C844.069 23.0234 844.281 23.1382 844.515 23.1382Z" fill="#E4007F"/>
<path d="M847.894 22.1861C848.361 22.1861 848.739 21.7399 848.739 21.1831V12.8187H847.049V21.1831C847.049 21.4636 847.143 21.7144 847.296 21.8971C847.448 22.0756 847.661 22.1861 847.894 22.1861Z" fill="#E4007F"/>
<path d="M851.27 24.3622C851.737 24.3622 852.115 23.9117 852.115 23.3592V12.8187H850.425V23.3592C850.425 23.6355 850.518 23.8862 850.671 24.069C850.824 24.2517 851.036 24.3622 851.27 24.3622Z" fill="#E4007F"/>
<path d="M858.025 21.3913C858.492 21.3913 858.87 20.9408 858.87 20.3883V12.8187H857.18V20.3883C857.18 20.6646 857.274 20.9196 857.426 21.0981C857.579 21.2808 857.792 21.3913 858.025 21.3913Z" fill="#E4007F"/>
<path d="M860.572 12.8187V17.7659C860.572 18.0422 860.666 18.2972 860.819 18.4757C860.971 18.6585 861.184 18.769 861.417 18.769C861.884 18.769 862.262 18.3184 862.262 17.7659V12.8187H860.572Z" fill="#E4007F"/>
<path d="M394.568 87.5247C394.801 87.5247 395.014 87.4312 395.167 87.2782C395.319 87.1252 395.413 86.9127 395.413 86.6789C395.413 86.2114 395.035 85.8331 394.568 85.8331H390.513V87.5247H394.568Z" fill="#E4007F"/>
<path d="M394.368 83.895C394.521 83.742 394.615 83.5295 394.615 83.2957C394.615 82.8282 394.237 82.45 393.77 82.45H390.513V84.1415H393.77C394.003 84.1415 394.216 84.048 394.368 83.895Z" fill="#E4007F"/>
<path d="M396.198 80.5161C396.351 80.3631 396.445 80.1506 396.445 79.9168C396.445 79.4493 396.067 79.071 395.6 79.071H390.513V80.7626H395.6C395.833 80.7626 396.045 80.6691 396.198 80.5161Z" fill="#E4007F"/>
<path d="M393.698 73.754C393.85 73.601 393.944 73.3885 393.944 73.1547C393.944 72.6872 393.566 72.309 393.099 72.309H390.513V74.0005H393.099C393.332 74.0005 393.545 73.907 393.698 73.754Z" fill="#E4007F"/>
<path d="M391.49 70.3581C391.643 70.2051 391.736 69.9926 391.736 69.7588C391.736 69.2913 391.358 68.913 390.891 68.913H390.513V70.6046H390.891C391.125 70.6046 391.337 70.5111 391.49 70.3581Z" fill="#E4007F"/>
<path d="M404.741 78.221C404.741 78.4547 404.648 78.6672 404.495 78.8203C404.342 78.9733 404.13 79.0668 403.896 79.0668H397.663C397.43 79.0668 397.217 79.1603 397.064 79.3133C396.912 79.4663 396.818 79.6788 396.818 79.9126C396.818 80.3801 397.196 80.7584 397.663 80.7584H401.684C402.151 80.7584 402.529 81.1366 402.529 81.6041C402.529 81.8379 402.435 82.0504 402.283 82.2034C402.13 82.3564 401.917 82.4499 401.684 82.4499H396.232C395.999 82.4499 395.786 82.5434 395.634 82.6965C395.481 82.8495 395.387 83.062 395.387 83.2957C395.387 83.7633 395.765 84.1415 396.232 84.1415H403.896C404.363 84.1415 404.741 84.5198 404.741 84.9873C404.741 85.2211 404.648 85.4336 404.495 85.5866C404.342 85.7396 404.13 85.8331 403.896 85.8331H397.65C397.417 85.8331 397.205 85.9266 397.052 86.0796C396.899 86.2326 396.805 86.4451 396.805 86.6789C396.805 87.1464 397.183 87.5247 397.65 87.5247H425.804V68.9215H393.141C392.908 68.9215 392.696 69.015 392.543 69.168C392.39 69.321 392.296 69.5335 392.296 69.7673C392.296 70.2348 392.674 70.6131 393.141 70.6131H400.686C401.153 70.6131 401.531 70.9914 401.531 71.4589C401.531 71.6926 401.438 71.9052 401.285 72.0582C401.132 72.2112 400.92 72.3047 400.686 72.3047H395.328C395.094 72.3047 394.882 72.3982 394.729 72.5512C394.576 72.7042 394.483 72.9167 394.483 73.1505C394.483 73.618 394.861 73.9963 395.328 73.9963H403.896C404.363 73.9963 404.741 74.3745 404.741 74.8421C404.741 75.0716 404.648 75.2841 404.495 75.4371C404.342 75.5901 404.13 75.6878 403.896 75.6878H390.513V77.3752H403.896C404.363 77.3752 404.741 77.7577 404.741 78.221ZM403.888 82.4499C403.42 82.4499 403.038 82.0674 403.038 81.5999C403.038 81.1749 403.344 80.8264 403.747 80.7584H404.032C404.435 80.8264 404.741 81.1749 404.741 81.5999C404.741 82.0674 404.359 82.4499 403.888 82.4499ZM403.977 72.3047H403.803C403.374 72.2622 403.038 71.8967 403.038 71.4589C403.038 71.0254 403.357 70.6683 403.773 70.6131C403.811 70.6088 403.849 70.6046 403.888 70.6046C403.926 70.6046 403.968 70.6088 404.006 70.6131C404.422 70.6683 404.741 71.0254 404.741 71.4589C404.741 71.8967 404.405 72.2622 403.977 72.3047Z" fill="#E4007F"/>
<path d="M370.165 50.9936V111.164H388.757V50.9936H370.165Z" fill="#E4007F"/>
<path d="M445.369 106.26C444.902 106.26 444.524 106.638 444.524 107.105V111.164H446.214V107.105C446.214 106.872 446.121 106.659 445.968 106.506C445.815 106.353 445.603 106.26 445.369 106.26Z" fill="#E4007F"/>
<path d="M441.989 107.059C441.522 107.059 441.145 107.437 441.145 107.905V111.164H442.834V107.905C442.834 107.671 442.741 107.458 442.588 107.305C442.435 107.152 442.223 107.059 441.989 107.059Z" fill="#E4007F"/>
<path d="M438.614 105.227C438.147 105.227 437.77 105.605 437.77 106.073V111.164H439.459V106.073C439.459 105.839 439.366 105.626 439.213 105.473C439.06 105.32 438.848 105.227 438.614 105.227Z" fill="#E4007F"/>
<path d="M431.859 107.73C431.392 107.73 431.014 108.108 431.014 108.576V111.164H432.704V108.576C432.704 108.342 432.611 108.13 432.458 107.977C432.305 107.824 432.093 107.73 431.859 107.73Z" fill="#E4007F"/>
<path d="M428.467 109.94C427.999 109.94 427.622 110.319 427.622 110.786V111.164H429.311V110.786C429.311 110.552 429.218 110.34 429.065 110.187C428.912 110.034 428.7 109.94 428.467 109.94Z" fill="#E4007F"/>
<path d="M388.759 50.9941C388.764 40.2496 397.463 31.5409 408.197 31.5409C418.934 31.5409 427.634 40.2496 427.638 50.9941V75.8324H427.63V108.529C427.63 108.763 427.723 108.976 427.876 109.129C428.029 109.282 428.241 109.375 428.475 109.375C428.942 109.375 429.32 108.997 429.32 108.529V100.977C429.32 100.509 429.698 100.131 430.165 100.131C430.398 100.131 430.61 100.224 430.763 100.377C430.916 100.53 431.01 100.743 431.01 100.977V106.34C431.01 106.574 431.103 106.787 431.256 106.94C431.409 107.093 431.621 107.186 431.855 107.186C432.322 107.186 432.699 106.808 432.699 106.34V97.7635C432.699 97.2959 433.077 96.9177 433.544 96.9177C433.774 96.9177 433.986 97.0112 434.139 97.1642C434.292 97.3172 434.389 97.5297 434.389 97.7635V111.16H436.075V97.7635C436.075 97.2959 436.457 96.9177 436.92 96.9177C437.153 96.9177 437.366 97.0112 437.518 97.1642C437.671 97.3172 437.765 97.5297 437.765 97.7635V104.003C437.765 104.237 437.858 104.449 438.011 104.602C438.164 104.755 438.376 104.849 438.61 104.849C439.077 104.849 439.455 104.47 439.455 104.003V99.9778C439.455 99.5103 439.832 99.132 440.299 99.132C440.533 99.132 440.745 99.2255 440.898 99.3786C441.051 99.5316 441.144 99.7441 441.144 99.9778V105.435C441.144 105.669 441.238 105.881 441.391 106.034C441.543 106.187 441.756 106.281 441.989 106.281C442.456 106.281 442.834 105.903 442.834 105.435V97.7635C442.834 97.2959 443.212 96.9177 443.679 96.9177C443.913 96.9177 444.125 97.0112 444.278 97.1642C444.431 97.3172 444.524 97.5297 444.524 97.7635V104.016C444.524 104.249 444.617 104.462 444.77 104.615C444.923 104.768 445.135 104.861 445.369 104.861C445.836 104.861 446.214 104.483 446.214 104.016V89.2333H446.231V50.9899C446.231 29.9641 429.201 12.9164 408.197 12.9164C387.193 12.9164 370.167 29.9641 370.167 50.9899H388.759V50.9941Z" fill="#E4007F"/>
<path d="M431.01 97.8612C430.967 98.2905 430.602 98.6263 430.165 98.6263C429.732 98.6263 429.375 98.3075 429.32 97.891C429.316 97.8527 429.312 97.8145 429.312 97.7762C429.312 97.738 429.316 97.6955 429.32 97.6572C429.375 97.2407 429.732 96.9219 430.165 96.9219C430.602 96.9219 430.967 97.2577 431.01 97.687V97.8612Z" fill="#E4007F"/>
<path d="M440.296 98.6263C439.871 98.6263 439.523 98.3203 439.455 97.9165V97.6317C439.523 97.228 439.871 96.9219 440.296 96.9219C440.763 96.9219 441.145 97.3045 441.145 97.7762C441.145 98.2438 440.763 98.6263 440.296 98.6263Z" fill="#E4007F"/>
<path d="M726.464 21.1108C703.927 21.1108 685.657 39.3995 685.657 61.9554C685.657 84.5155 703.927 102.804 726.464 102.804C749.001 102.804 767.266 84.5155 767.266 61.9554C767.266 39.3995 749.001 21.1108 726.464 21.1108ZM730.395 99.4975H730.378C725.891 99.9821 723.547 99.8716 718.843 98.7282C718.401 98.622 718.019 98.4392 717.76 98.2437C717.501 98.0482 717.369 97.8315 717.412 97.6572C717.505 97.3002 718.265 97.2194 719.114 97.4234C723.734 98.1927 728.018 98.7793 732.684 97.8145C733.478 97.6657 734.051 97.2237 733.975 96.8624C733.941 96.6839 733.75 96.5564 733.478 96.4926C733.206 96.4289 732.845 96.4246 732.463 96.4969C726.154 97.6614 720.66 96.5181 714.673 94.5928C714.261 94.4228 713.913 94.1933 713.688 93.9638C713.463 93.7343 713.365 93.5047 713.438 93.3347C713.578 92.999 714.329 93.0245 715.123 93.3475C727.793 97.3129 737.889 95.2176 748.351 87.1422C748.907 86.6491 749.145 86.0116 748.903 85.7439C748.78 85.6121 748.559 85.5908 748.309 85.6631C748.058 85.7353 747.769 85.9054 747.502 86.1391C739.482 93.2625 730.268 95.1241 719.934 93.5217C719.552 93.4282 719.225 93.2625 719.008 93.0797C718.787 92.8927 718.681 92.6887 718.724 92.5102C718.817 92.1574 719.479 92.0427 720.205 92.2169C726.74 93.9808 733.843 92.727 739.825 89.8071C750.996 82.96 757.547 72.8317 757.547 61.1606C757.547 57.1484 756.775 52.9577 755.149 48.6522C754.817 47.9849 754.788 47.3092 755.11 47.1477C755.276 47.0626 755.501 47.1264 755.726 47.2964C755.955 47.4707 756.185 47.7554 756.359 48.104C758.184 51.8356 758.711 53.7822 759.14 57.6329C759.182 57.9942 759.284 58.313 759.424 58.5382C759.564 58.7677 759.738 58.8995 759.921 58.8867C760.29 58.857 760.549 58.2237 760.464 57.4714C760.112 53.574 758.634 49.1113 756.618 45.7663C756.206 45.048 756.091 44.3213 756.405 44.1385C756.567 44.045 756.8 44.1087 757.055 44.2873C757.31 44.47 757.577 44.7718 757.789 45.1458C759.802 48.6607 760.477 50.4926 761.271 54.1605C761.356 54.5473 761.5 54.8873 761.666 55.1253C761.832 55.3591 762.023 55.4866 762.201 55.4568C762.566 55.3931 762.753 54.6875 762.579 53.88C761.925 50.8793 761.42 49.379 759.989 46.4634C759.607 45.6771 759.522 44.9163 759.849 44.7505C760.01 44.6698 760.248 44.7505 760.498 44.963C760.745 45.1713 761.004 45.5071 761.203 45.9151C770.803 70.2986 755.705 94.7756 730.395 99.4975ZM750.911 50.5691C751.225 50.4288 751.697 50.7263 751.964 51.2576C751.981 51.2916 751.998 51.3299 752.015 51.3681C752.032 51.4064 752.049 51.4404 752.058 51.4744C752.257 52.0311 752.147 52.5539 751.82 52.6644C751.497 52.7792 751.085 52.4859 750.835 52.0014C750.814 51.9589 750.792 51.9121 750.771 51.8654C750.75 51.8186 750.733 51.7676 750.716 51.7209C750.533 51.2109 750.601 50.7093 750.911 50.5691ZM735.197 88.906C735.792 88.702 736.161 88.2345 736.038 87.8902C735.974 87.7159 735.809 87.6054 735.584 87.5587C735.359 87.5162 735.083 87.5417 734.798 87.6394C732.654 88.3832 731.533 88.6425 729.245 88.8805C728.943 88.9103 728.659 88.8593 728.455 88.753C728.247 88.6467 728.12 88.4852 728.107 88.3025C728.09 87.937 728.536 87.6182 729.105 87.5544C743.889 84.32 752.563 73.5457 752.512 58.3427C752.448 57.7689 752.665 57.2547 753.03 57.1952C753.208 57.1654 753.395 57.2547 753.544 57.4332C753.692 57.6117 753.803 57.8752 753.837 58.177C753.981 59.4223 754.011 60.0471 753.998 61.2881C753.994 61.5899 754.057 61.8619 754.172 62.0617C754.282 62.2614 754.444 62.3889 754.626 62.3932C754.991 62.4059 755.323 61.9044 755.327 61.2754C755.463 57.5394 754.452 53.0555 752.728 49.7488C752.427 49.1325 752.419 48.5077 752.745 48.342C752.907 48.2612 753.123 48.3122 753.344 48.4652C753.561 48.6225 753.781 48.8775 753.938 49.2005C759.339 63.885 754.817 76.4444 743.086 86.3006C737.193 89.7815 732.238 91.3541 726.29 91.3541C724.464 91.3541 722.545 91.2054 720.477 90.9206C720.129 90.8356 719.828 90.6741 719.632 90.4956C719.433 90.3171 719.335 90.1131 719.382 89.9388C719.471 89.5818 720.082 89.4585 720.749 89.62C726.438 90.3978 729.635 90.2618 735.197 88.906ZM723.959 88.175C723.993 87.835 724.426 87.6097 724.952 87.6054C725.075 87.6139 725.139 87.6182 725.262 87.6267C725.784 87.7074 726.179 87.9922 726.175 88.3365C726.167 88.6807 725.721 88.9613 725.148 88.957C725.114 88.957 725.071 88.9528 725.033 88.9528C724.995 88.9485 724.952 88.9443 724.914 88.94C724.345 88.8635 723.925 88.5192 723.959 88.175ZM752.975 53.9947V54.0075C752.979 54.0117 752.979 54.016 752.979 54.0202C752.979 54.0202 752.979 54.0245 752.983 54.0245C752.996 54.067 753.004 54.1053 753.021 54.1605C753.153 54.7173 752.975 55.2146 752.639 55.2953C752.308 55.3761 751.935 55.0488 751.748 54.5558C751.731 54.509 751.714 54.4623 751.701 54.4155C751.688 54.3688 751.675 54.3178 751.663 54.271C751.548 53.7567 751.68 53.2765 752.002 53.166C752.329 53.0597 752.754 53.3955 752.953 53.9352V53.9395C752.966 53.9607 752.97 53.9777 752.975 53.9947ZM754.58 42.6382C754.575 42.6297 754.571 42.6254 754.567 42.6212C754.452 42.4639 754.393 42.3874 754.274 42.2302C754.27 42.2259 754.265 42.2174 754.261 42.2132C753.854 41.5841 753.697 40.9721 753.96 40.7681C754.248 40.5471 754.966 40.9508 755.509 41.6776C756.049 42.4002 756.197 43.161 755.887 43.3522C755.607 43.5307 755.064 43.2077 754.58 42.6382ZM709.621 91.2861C709.786 90.9971 710.44 91.0864 711.145 91.4221C711.226 91.4604 711.306 91.4986 711.395 91.5496C711.472 91.5921 711.548 91.6389 711.625 91.6856C712.283 92.1064 712.695 92.6079 712.559 92.9097C712.41 93.2412 711.612 93.186 710.792 92.7312C709.965 92.2722 709.442 91.6006 709.621 91.2861ZM726.464 39.7225C738.73 39.7225 748.674 49.6765 748.674 61.9554C748.674 74.2385 738.73 84.1925 726.464 84.1925C714.198 84.1925 704.25 74.2385 704.25 61.9554C704.25 49.6765 714.198 39.7225 726.464 39.7225Z" fill="#E4007F"/>
<path d="M748.678 86.8319C748.619 86.8872 748.568 86.9424 748.517 86.9977C748.652 86.8744 748.716 86.8149 748.852 86.6917C748.793 86.7342 748.733 86.7852 748.678 86.8319Z" fill="#E4007F"/>
<path d="M763.254 58.7635C763.229 58.3555 763.122 57.9942 762.978 57.7435C762.834 57.4927 762.651 57.3524 762.469 57.3737C762.099 57.4162 761.874 58.0835 761.925 58.8655C762.057 61.0374 762.027 62.1254 761.802 64.2718C761.573 66.4224 761.369 67.4849 760.808 69.5676C760.609 70.3156 760.702 70.9914 761.055 71.0891C761.233 71.1359 761.441 71.0296 761.628 70.8086C761.819 70.5919 761.993 70.2561 762.095 69.8693C762.677 67.7102 762.889 66.6052 763.127 64.378C763.36 62.1467 763.394 61.0204 763.254 58.7635Z" fill="#E4007F"/>
<path d="M759.98 73.397C759.67 73.499 759.318 73.9707 759.089 74.502C754.202 84.1287 748.096 90.2448 738.314 94.835C737.707 95.0688 737.189 95.4598 737.134 95.7956C737.091 96.0718 737.316 96.2419 737.681 96.2759C737.961 96.3056 738.331 96.2503 738.704 96.1058C748.894 91.3414 755.246 84.9788 760.328 74.9568C760.486 74.587 760.558 74.2215 760.541 73.9367C760.52 73.5245 760.32 73.2864 759.98 73.397Z" fill="#E4007F"/>
<path d="M750.801 84.4858C751.051 84.3923 751.336 84.1883 751.582 83.9077C752.678 82.6667 753.191 82.0164 754.147 80.6648C755.068 79.3515 755.497 78.6672 756.274 77.2647C758.511 72.4789 759.645 68.9215 760.524 63.7107C760.558 63.3367 760.511 62.9967 760.405 62.7502C760.299 62.5037 760.138 62.3507 759.955 62.3464C759.586 62.3379 759.263 62.9117 759.199 63.6257C758.35 68.6325 757.267 72.0539 755.115 76.6526C754.367 77.9999 753.956 78.6545 753.068 79.9168C752.151 81.2174 751.659 81.8421 750.606 83.0322C750.13 83.572 749.939 84.1968 750.198 84.4518C750.33 84.575 750.546 84.5835 750.801 84.4858Z" fill="#E4007F"/>
<path d="M739.566 86.7384C739.8 86.7469 740.08 86.6704 740.352 86.5089C747.519 81.3449 751.514 76.0789 754.477 67.6847C754.821 66.3374 754.953 65.6489 755.127 64.2718C755.165 63.9573 755.123 63.6683 755.021 63.4558C754.919 63.2432 754.762 63.1115 754.579 63.103C754.214 63.0817 753.879 63.5493 753.802 64.1443C753.637 65.4619 753.514 66.1121 753.187 67.4C752.236 71.4717 749.854 75.9896 747.069 79.1135C747.03 79.156 747.001 79.1858 746.958 79.2368C746.988 79.2113 747.013 79.1815 747.039 79.1518C744.53 82.0929 743.018 83.3893 739.715 85.3529C739.201 85.6589 738.904 86.1519 739.069 86.4792C739.15 86.6407 739.333 86.7342 739.566 86.7384Z" fill="#E4007F"/>
<path d="M539.431 12.8357C539.665 12.8357 539.877 12.9292 540.03 13.0822C540.183 13.2352 540.276 13.4477 540.276 13.6815C540.276 14.149 539.898 14.5273 539.431 14.5273H531.589V12.8357H539.431Z" fill="#E4007F"/>
<path d="M539.232 16.4654C539.385 16.6184 539.478 16.8309 539.478 17.0647C539.478 17.5322 539.1 17.9105 538.633 17.9105H531.589V16.2189H538.633C538.867 16.2189 539.079 16.3124 539.232 16.4654Z" fill="#E4007F"/>
<path d="M541.062 19.8443C541.215 19.9973 541.308 20.2098 541.308 20.4436C541.308 20.9111 540.93 21.2894 540.463 21.2894H531.589V19.5978H540.463C540.697 19.5978 540.909 19.6913 541.062 19.8443Z" fill="#E4007F"/>
<path d="M538.561 26.6064C538.714 26.7594 538.807 26.9719 538.807 27.2057C538.807 27.6732 538.429 28.0514 537.962 28.0514H531.589V26.3599H537.962C538.196 26.3599 538.408 26.4534 538.561 26.6064Z" fill="#E4007F"/>
<path d="M536.353 30.0023C536.506 30.1553 536.599 30.3678 536.599 30.6016C536.599 31.0691 536.222 31.4474 535.754 31.4474H531.589V29.7558H535.754C535.988 29.7558 536.2 29.8493 536.353 30.0023Z" fill="#E4007F"/>
<path d="M549.604 22.1394C549.604 21.9057 549.511 21.6931 549.358 21.5401C549.205 21.3871 548.993 21.2936 548.759 21.2936H542.527C542.293 21.2936 542.081 21.2001 541.928 21.0471C541.775 20.8941 541.682 20.6816 541.682 20.4478C541.682 19.9803 542.06 19.602 542.527 19.602H546.547C547.014 19.602 547.392 19.2238 547.392 18.7562C547.392 18.5225 547.299 18.31 547.146 18.157C546.993 18.004 546.781 17.9104 546.547 17.9104H541.096C540.862 17.9104 540.65 17.8169 540.497 17.6639C540.344 17.5109 540.251 17.2984 540.251 17.0647C540.251 16.5971 540.629 16.2189 541.096 16.2189H548.759C549.226 16.2189 549.604 15.8406 549.604 15.3731C549.604 15.1393 549.511 14.9268 549.358 14.7738C549.205 14.6208 548.993 14.5273 548.759 14.5273H542.514C542.28 14.5273 542.068 14.4338 541.915 14.2808C541.762 14.1278 541.669 13.9152 541.669 13.6815C541.669 13.214 542.047 12.8357 542.514 12.8357H562.953H570.668H613.194V31.4474H562.953V31.4389H538.005C537.771 31.4389 537.559 31.3454 537.406 31.1924C537.253 31.0394 537.16 30.8269 537.16 30.5931C537.16 30.1256 537.538 29.7473 538.005 29.7473H545.55C546.017 29.7473 546.395 29.369 546.395 28.9015C546.395 28.6677 546.301 28.4552 546.148 28.3022C545.995 28.1492 545.783 28.0557 545.55 28.0557H540.191C539.958 28.0557 539.746 27.9622 539.593 27.8092C539.44 27.6562 539.346 27.4437 539.346 27.2099C539.346 26.7424 539.724 26.3641 540.191 26.3641H548.759C549.226 26.3641 549.604 25.9859 549.604 25.5183C549.604 25.2888 549.511 25.0763 549.358 24.9233C549.205 24.7703 548.993 24.6725 548.759 24.6725H531.589V22.9852H548.759C549.226 22.9852 549.604 22.6027 549.604 22.1394ZM548.751 17.9104C548.284 17.9104 547.902 18.293 547.902 18.7605C547.902 19.1855 548.207 19.534 548.611 19.602H548.895C549.299 19.534 549.604 19.1855 549.604 18.7605C549.604 18.293 549.222 17.9104 548.751 17.9104ZM548.84 28.0557H548.666C548.237 28.0982 547.902 28.4637 547.902 28.9015C547.902 29.335 548.22 29.692 548.636 29.7473C548.675 29.7515 548.713 29.7558 548.751 29.7558C548.789 29.7558 548.832 29.7515 548.87 29.7473C549.286 29.692 549.604 29.335 549.604 28.9015C549.604 28.4637 549.269 28.0982 548.84 28.0557Z" fill="#E4007F"/>
<path d="M581.686 101.937C581.686 101.661 581.592 101.406 581.44 101.227C581.287 101.045 581.075 100.934 580.841 100.934C580.374 100.934 579.996 101.385 579.996 101.937V111.254H581.686V101.937Z" fill="#E4007F"/>
<path d="M578.06 102.171C577.907 101.988 577.695 101.878 577.461 101.878C576.994 101.878 576.616 102.328 576.616 102.881V111.249H578.306V102.881C578.306 102.604 578.213 102.354 578.06 102.171Z" fill="#E4007F"/>
<path d="M574.684 99.9991C574.531 99.8163 574.319 99.7058 574.086 99.7058C573.619 99.7058 573.241 100.156 573.241 100.709V111.249H574.931V100.709C574.931 100.433 574.837 100.182 574.684 99.9991Z" fill="#E4007F"/>
<path d="M567.929 102.97C567.777 102.787 567.564 102.677 567.331 102.677C566.864 102.677 566.486 103.127 566.486 103.68V111.249H568.176V103.68C568.176 103.404 568.082 103.153 567.929 102.97Z" fill="#E4007F"/>
<path d="M564.537 105.592C564.384 105.41 564.172 105.299 563.938 105.299C563.471 105.299 563.093 105.75 563.093 106.302V111.249H564.783V106.302C564.783 106.026 564.69 105.775 564.537 105.592Z" fill="#E4007F"/>
<path d="M572.392 89.8538C572.625 89.8538 572.837 89.9643 572.99 90.1471C573.143 90.3299 573.237 90.5806 573.237 90.8569V98.2608C573.237 98.537 573.33 98.792 573.483 98.9706C573.636 99.1533 573.848 99.2638 574.081 99.2638C574.548 99.2638 574.926 98.8133 574.926 98.2608V93.4835C574.926 92.9267 575.304 92.4805 575.771 92.4805C576.005 92.4805 576.217 92.591 576.37 92.7737C576.523 92.9565 576.616 93.2073 576.616 93.4835V99.9566C576.616 100.233 576.71 100.488 576.862 100.666C577.015 100.845 577.228 100.96 577.461 100.96C577.928 100.96 578.306 100.509 578.306 99.9566V90.8526C578.306 90.2959 578.684 89.8496 579.151 89.8496C579.385 89.8496 579.597 89.9601 579.75 90.1428C579.902 90.3256 579.996 90.5764 579.996 90.8526V98.2693C579.996 98.5455 580.089 98.8005 580.242 98.979C580.395 99.1618 580.607 99.2723 580.841 99.2723C581.308 99.2723 581.686 98.8218 581.686 98.2693V73.992V64.8286V22.1437H563.093V74.0005H563.102V103.633C563.102 103.909 563.195 104.164 563.348 104.343C563.501 104.521 563.713 104.636 563.947 104.636C564.414 104.636 564.792 104.186 564.792 103.633V94.6736C564.792 94.1168 565.169 93.6705 565.637 93.6705C565.87 93.6705 566.082 93.781 566.235 93.9638C566.388 94.1466 566.481 94.3973 566.481 94.6736V101.036C566.481 101.312 566.575 101.567 566.728 101.746C566.881 101.929 567.093 102.039 567.326 102.039C567.793 102.039 568.171 101.589 568.171 101.036V90.8611C568.171 90.3044 568.549 89.8581 569.016 89.8581C569.245 89.8581 569.458 89.9686 569.611 90.1514C569.763 90.3341 569.861 90.5849 569.861 90.8611V111.254H571.547V90.8611C571.547 90.3001 571.929 89.8538 572.392 89.8538ZM576.616 90.8654C576.616 91.4222 576.234 91.8727 575.767 91.8727C575.342 91.8727 574.994 91.5114 574.926 91.0311V90.6954C574.994 90.2151 575.342 89.8538 575.767 89.8538C576.234 89.8538 576.616 90.3086 576.616 90.8654ZM566.481 90.7591V90.9674C566.439 91.4774 566.074 91.8769 565.637 91.8769C565.203 91.8769 564.847 91.4987 564.792 91.0056C564.787 90.9589 564.783 90.9164 564.783 90.8696C564.783 90.8229 564.787 90.7719 564.792 90.7294C564.847 90.2364 565.203 89.8581 565.637 89.8581C566.074 89.8538 566.439 90.2534 566.481 90.7591Z" fill="#E4007F"/>
</g>
<defs>
<clipPath id="clip0_331_1589">
<rect width="875" height="124" fill="white"/>
</clipPath>
</defs>
</svg>
