<svg width="965" height="117" viewBox="0 0 965 117" fill="none" xmlns="http://www.w3.org/2000/svg">
<g clip-path="url(#clip0_430_220)">
<path d="M264.457 0.0861206H255.891H247.703H228.949H220.384V8.69698V11.5859C220.384 23.1115 213.784 33.1949 204.007 37.9825V8.69698V0.0861206H195.441H176.687H168.122V8.69698V20.8856C159.681 8.35254 145.402 0.0990369 129.243 0.0990369C118.245 0.0990369 107.826 3.8792 99.4486 10.8239V8.69698V0.0861206H90.8832H47.9877H40.206H19.5848C19.0495 0.0861206 18.527 0.0861206 18.0173 0.0861206C17.512 0.0861206 16.998 0.0861206 16.4756 0.0861206H8.56541H0V3.51324V6.93606V8.69698V10.3675V10.4105V12.1241V13.786V13.8377V15.5469V17.226V17.2605V18.9783V19.0214V20.6876V22.3968V22.4485V24.1104V25.8369V25.8713V27.5504V29.2984V32.7213V36.1613H8.56541H12.7667C13.165 36.1613 13.559 36.1312 13.9488 36.0838C14.3085 36.1269 14.6725 36.1527 15.0366 36.1527H31.6363H31.7819V70.6521V79.2629H31.7905V100.67C31.7905 101.104 31.7819 101.569 31.7819 101.961C31.7819 102.422 31.7819 102.895 31.7819 103.378V108.389V117H35.2038H38.6086H40.3473H42.0176H42.0519H43.7692H45.4223H45.4737H47.174H48.8314H48.8742H50.583H50.6173H52.2875H53.9877H54.0391H55.6923H57.3968H57.4396H59.1013H60.8529H64.2577H67.6667V108.389V98.9517C67.6667 98.3231 67.6667 97.7031 67.6667 97.096C67.6667 96.4717 67.6667 95.8776 67.6667 95.2447V70.6521V61.3696V36.1613H83.624C82.7632 39.7606 82.3178 43.4848 82.3178 47.2779V55.8888V108.23V116.841H90.8832H109.637H118.203V108.23V92.8724C118.335 92.8767 118.468 92.8896 118.605 92.8896H140.284V105.565C140.284 105.931 140.31 106.297 140.353 106.654C140.306 107.046 140.276 107.442 140.276 107.842V108.226V116.836H143.698H147.102H155.668H157.368H165.933H167.595H168.126V116.996H171.548H174.953H183.518H185.218H193.784H195.445H197.197H200.602H204.011V108.385V98.9474C204.011 98.3188 204.011 97.6816 204.011 97.0917C204.011 96.476 204.011 95.8733 204.011 95.2404V75.7411C204.773 75.5861 205.527 75.4139 206.281 75.2374C206.366 75.444 206.452 75.655 206.555 75.8573L206.58 75.909L206.606 75.9607L225.334 112.342L227.728 116.996H232.94H254.046H268.123L268.046 116.849H271.194H274.637V116.97H283.202H328.569H337.134V108.359V89.5055V80.8947H328.569H290.029V76.4945H308.684C309.117 76.4945 309.545 76.4558 309.969 76.3998C310.427 76.4687 310.899 76.5032 311.378 76.5032H316.363H324.929V73.0631V69.6403V67.8923V66.2132V66.1787V64.4523V62.7904V62.7387V61.0295V59.3633V59.3202V57.6023V57.5679V55.8888V54.1795V54.1279V52.466V50.7524V50.7093V49.0388V47.2779V43.8551V40.428H316.363H306.976C306.35 40.428 305.734 40.4926 305.13 40.6088C304.534 40.4926 303.918 40.428 303.288 40.428H290.029V36.157H328.569H337.134V27.5461V8.69698V0.0861206H328.569H264.457ZM118.203 56.823V47.2779V47.1272C118.288 41.0781 123.209 36.1871 129.243 36.1871C135.333 36.1871 140.284 41.1642 140.288 47.2865V56.8274H118.203V56.823ZM254.153 79.1165V89.8586L237.514 57.5377C241.219 53.7619 244.499 49.5124 247.245 44.841C250.315 39.6186 252.624 33.9957 254.14 28.1618V70.51V79.1209H254.153V79.1165Z" fill="white"/>
<path d="M17.3278 9.55374C17.3278 9.31694 17.2336 9.10167 17.0794 8.94668C16.9253 8.79168 16.7111 8.69696 16.4756 8.69696H8.56543V10.4105H16.4756C16.9467 10.4105 17.3278 10.0273 17.3278 9.55374Z" fill="#D31176"/>
<path d="M16.5227 12.9809C16.5227 12.7441 16.4285 12.5288 16.2743 12.3738C16.1201 12.2188 15.906 12.1241 15.6704 12.1241H8.56543V13.8376H15.6704C16.1415 13.8376 16.5227 13.4545 16.5227 12.9809Z" fill="#D31176"/>
<path d="M18.3685 16.4037C18.3685 16.1669 18.2743 15.9516 18.1201 15.7966C17.966 15.6416 17.7518 15.5469 17.5163 15.5469H8.56543V17.2604H17.5163C17.9874 17.2604 18.3685 16.8773 18.3685 16.4037Z" fill="#D31176"/>
<path d="M15.846 23.2536C15.846 23.0168 15.7518 22.8016 15.5976 22.6466C15.4434 22.4916 15.2293 22.3969 14.9938 22.3969H8.56543V24.1104H14.9938C15.4649 24.1104 15.846 23.7272 15.846 23.2536Z" fill="#D31176"/>
<path d="M12.7668 25.8369H8.56543V27.5504H12.7668C13.2379 27.5504 13.619 27.1672 13.619 26.6936C13.619 26.4568 13.5248 26.2416 13.3706 26.0866C13.2164 25.9316 13.0023 25.8369 12.7668 25.8369Z" fill="#D31176"/>
<path d="M870.866 0.0688868H867.462H865.723H864.053H864.018H862.301H860.648H860.596H858.896H857.239H857.196H855.487H855.453H853.783H852.082H852.031H850.378H848.673H848.631H846.969H845.217H841.813H838.404V8.67974V18.1129C838.404 18.7415 838.404 19.3615 838.404 19.9686C838.404 20.6015 838.404 21.187 838.404 21.8242V48.7848L809.14 7.40964L808.412 6.38064L806.463 3.62517L803.906 0H799.487H783.409H774.844V8.61086V18.4186V39.6444C772.377 33.5307 768.69 27.9164 763.91 23.1072C754.518 13.6654 742.034 8.46447 728.749 8.46447C715.469 8.46447 702.98 13.6654 693.588 23.1072C691.053 25.656 688.83 28.433 686.929 31.3866V29.208V27.46V25.7809V25.7465V24.0243V22.3624V22.3107V20.6015V18.9353V18.8922V17.1744V17.1399V15.4608V13.7515V13.6999V12.038V10.3244V10.2814V8.61086V6.84994V3.42712V0H678.363H670.453C669.931 0 669.417 0.0516651 668.911 0.133468C668.402 0.0473597 667.879 0 667.344 0H646.727H638.945H632.958H624.393V8.61086V27.4643V36.0752H632.958H637.72V50.4984V59.1092H637.729V80.5158C637.729 80.6234 637.737 80.7311 637.742 80.8387H632.979H624.414V89.4496V108.303V116.914H632.979H678.35H686.916V108.303V89.4496V85.4929C688.822 88.4593 691.053 91.2492 693.597 93.8067C702.989 103.248 715.477 108.449 728.758 108.449C742.038 108.449 754.527 103.248 763.919 93.8067C768.698 88.9975 772.386 83.3832 774.853 77.2695V79.1811H774.861V100.588C774.861 101.023 774.9 101.457 774.955 101.884C774.891 102.344 774.853 102.814 774.853 103.292V108.303V116.914H778.274H781.679H790.245H791.945H800.51H802.172H803.924H807.328H810.737V108.303V98.8655C810.737 98.2369 810.737 97.5739 810.737 97.0056C810.737 96.3641 810.737 95.7915 810.737 95.1586V71.9049L838.416 111.041V116.905L846.982 116.914H865.736H874.301V108.303V102.271V46.4168V37.806H874.293V16.3994C874.293 15.9645 874.254 15.534 874.198 15.1077C874.267 14.6471 874.301 14.1735 874.301 13.6913V8.67974V0.0688868H870.866ZM742.587 58.4548C742.587 66.1271 736.381 72.3699 728.749 72.3699C721.117 72.3699 714.908 66.1271 714.908 58.4548C714.908 50.7825 721.117 44.544 728.749 44.544C736.377 44.544 742.587 50.7868 742.587 58.4548ZM678.342 80.8387H673.601V78.7979C673.601 78.1693 673.537 77.5494 673.421 76.9423C673.537 76.3438 673.601 75.7239 673.601 75.091V50.4984V41.2159V36.058C673.785 36.0709 673.973 36.0752 674.162 36.0752H678.363H684.26C680.834 42.938 679.023 50.5586 679.023 58.4548C679.023 66.3553 680.834 73.9759 684.26 80.8387H678.342Z" fill="white"/>
<path d="M571.599 0.0861206H563.818H543.201C542.665 0.0861206 542.164 0.0861206 541.633 0.0861206C541.128 0.0861206 540.614 0.0861206 540.091 0.0861206H532.181H523.616V0.172229H521.419H502.284C500.455 0.172229 498.609 0.249727 496.802 0.400417L496.729 0.404722L496.656 0.413333L496.584 0.421944C496.155 0.460693 495.723 0.503747 495.29 0.551107C494.832 0.598467 494.391 0.654437 494.005 0.706102L493.937 0.714713L493.864 0.723324L493.757 0.73624C493.641 0.753462 493.526 0.766378 493.41 0.7836C493.085 0.83096 492.763 0.878319 492.446 0.929985C492.331 0.947206 492.164 0.973039 491.958 1.01179C491.701 1.05054 491.461 1.09359 491.226 1.14095C491.08 1.16678 490.935 1.19262 490.793 1.21845C490.652 1.24428 490.524 1.26581 490.416 1.29164C490.061 1.35622 489.74 1.42511 489.474 1.48108L489.457 1.48538C489.397 1.4983 489.307 1.51552 489.2 1.54136C489.132 1.55427 489.072 1.57149 489.012 1.58441C488.669 1.6576 488.352 1.73079 488.044 1.80829C487.915 1.83843 487.774 1.87287 487.624 1.91162C487.037 2.0537 486.434 2.213 485.744 2.41105C485.5 2.47994 485.256 2.55313 485.012 2.62632C484.815 2.68229 484.648 2.73396 484.523 2.77271C484.369 2.82007 484.219 2.86743 484.069 2.91479L484.048 2.9234L484.018 2.93201L483.697 3.03534L483.667 3.04395L483.637 3.05256C483.337 3.15159 483.042 3.25492 482.746 3.35825L482.553 3.41422L482.241 3.53907C482.01 3.62088 481.74 3.7199 481.448 3.83184C481.376 3.85768 481.316 3.88351 481.26 3.90073L481.209 3.91795L480.982 4.00406C480.703 4.116 480.403 4.23655 480.091 4.36572L480.048 4.37863L479.937 4.42599C479.855 4.45613 479.778 4.49057 479.697 4.52502C479.693 4.52502 479.688 4.52932 479.684 4.52932C479.513 4.60251 479.333 4.67571 479.149 4.75751H479.029L477.47 5.52388C477.427 5.5454 477.388 5.56263 477.346 5.58415L476.027 6.21274L475.958 6.27733C475.65 6.43663 475.367 6.58732 475.101 6.7337C475.059 6.75523 475.016 6.78106 474.973 6.80259C474.862 6.85856 474.755 6.91883 474.648 6.98342C474.476 7.07814 474.309 7.17285 474.142 7.27188C474.108 7.29341 474.074 7.31063 474.035 7.33216C469.29 9.89819 466.176 12.658 464.061 14.7892H463.859L463.161 15.59L462.99 15.6761L462.253 16.6319L461.757 17.2045C461.752 17.2088 461.748 17.2131 461.739 17.2217L461.303 17.6695L461.226 17.7771L460.99 18.0139L460.84 18.2593C460.729 18.3885 460.613 18.522 460.493 18.664C460.36 18.819 460.232 18.9697 460.112 19.1204C459.906 19.3701 459.714 19.6026 459.534 19.8265C459.474 19.8997 459.423 19.9643 459.375 20.0246C459.315 20.0977 459.251 20.1839 459.178 20.2743C459.041 20.4465 458.874 20.6618 458.699 20.8986C457.868 21.751 457.273 22.6207 456.857 23.4732C455.054 26.1641 453.47 29.0487 452.112 32.0798C445.795 13.5406 428.279 0.172229 407.713 0.172229C395.178 0.172229 383.396 5.08042 374.531 13.9927C365.67 22.9049 360.788 34.7491 360.788 47.3511V108.303V116.914H369.353H388.107H396.672V108.303V92.9456C396.805 92.9499 396.938 92.9628 397.075 92.9628H418.75V105.634C418.75 106.004 418.775 106.366 418.818 106.727C418.771 107.115 418.741 107.511 418.741 107.916V108.299V116.91H422.163H425.568H427.307H428.977H429.011H430.728H432.382H432.433H434.133H435.791H435.833H437.542H437.576H439.247H440.947H440.998H442.651H444.356H444.399H446.061H447.812H451.217H454.626V108.299V104.191C454.626 103.666 454.626 103.149 454.626 102.641C454.626 102.129 454.626 101.604 454.626 101.066V94.7022L454.634 90.0136C455.804 92.0716 457.093 94.0478 458.502 95.9293C463.47 102.56 469.684 107.739 476.973 111.321C484.515 115.032 493.029 116.914 502.275 116.914H519.098H527.663V108.303V89.0277V80.4168H519.098H500.494C494.905 80.0422 490.408 77.8809 487.132 73.9931C483.243 69.382 481.35 62.5493 482.065 55.6993C482.069 55.6606 482.074 55.6261 482.078 55.5874V55.5831L482.087 55.4884C482.091 55.4582 482.091 55.4281 482.095 55.4023C482.099 55.3893 482.099 55.3764 482.104 55.3592L482.202 54.8641V54.8339C482.296 54.3216 482.408 53.6456 482.536 52.7587L482.545 52.72C482.575 52.5779 482.605 52.4444 482.639 52.3153C482.665 52.2206 482.686 52.1301 482.703 52.0526C482.716 52.0053 482.729 51.9579 482.742 51.9063C482.78 51.7599 482.815 51.6264 482.853 51.4929L483.059 50.7739C483.119 50.5759 483.179 50.3864 483.243 50.197L483.251 50.1755L483.256 50.1626C483.324 49.9688 483.389 49.7751 483.461 49.5813L483.483 49.5254L483.504 49.4694C483.521 49.422 483.538 49.3704 483.56 49.3187L483.568 49.3015L483.714 48.9226C483.783 48.7418 483.838 48.604 483.885 48.5007L483.911 48.449L483.932 48.393C484.014 48.2036 484.095 48.0098 484.185 47.8204C484.245 47.6912 484.301 47.5621 484.365 47.4329L484.429 47.3038L484.446 47.2607L484.459 47.2392L484.545 47.0756L484.862 46.5503L484.896 46.447C486.044 44.5181 487.654 42.5592 489.701 40.6174C493.042 37.961 497.277 36.6134 502.292 36.6134H521.427H529.993V36.1656H532.19H536.391C536.79 36.1656 537.184 36.1355 537.573 36.0881C537.933 36.1312 538.297 36.157 538.661 36.157H555.261H555.406V70.6564V79.2672H555.415V100.674C555.415 101.109 555.454 101.539 555.509 101.965C555.441 102.426 555.406 102.9 555.406 103.382V108.393V117.004H558.828H562.233H563.972H565.642H565.676H567.394H569.047H569.098H570.799H572.456H572.499H574.208H574.242H575.912H577.612H577.664H579.317H581.021H581.064H582.726H584.477H587.882H591.291V108.393V98.956C591.291 98.3274 591.291 97.7074 591.291 97.1003C591.291 96.4674 591.291 95.8819 591.291 95.249V70.6564V61.3739V36.1613H614.508H623.073V27.5504V8.69698V0.0861206H614.508H571.599ZM396.672 56.9006V47.3511C396.677 41.2331 401.627 36.256 407.713 36.256C413.803 36.256 418.754 41.2331 418.758 47.3554V56.9006H396.672ZM543.196 0.0861206C542.661 0.0861206 542.143 0.0861206 541.629 0.0861206C541.119 0.0861206 540.61 0.0861206 540.087 0.0861206" fill="white"/>
<path d="M53.1312 88.765C52.703 88.765 52.3518 88.399 52.2833 87.9125V87.5724C52.3518 87.0859 52.703 86.7199 53.1312 86.7199C53.6023 86.7199 53.9878 87.1806 53.9878 87.7446C53.9878 88.3043 53.6023 88.765 53.1312 88.765ZM90.8833 8.69696H47.9877H40.206H19.5848C19.1137 8.69696 18.7326 9.08014 18.7326 9.55374C18.7326 9.79054 18.8268 10.0058 18.981 10.1608C19.1351 10.3158 19.3493 10.4105 19.5848 10.4105H25.8847C26.1202 10.4105 26.3344 10.5052 26.4885 10.6602C26.6427 10.8152 26.7369 11.0305 26.7369 11.2673C26.7369 11.7409 26.3558 12.1241 25.8847 12.1241H18.1544C17.6833 12.1241 17.3021 12.5073 17.3021 12.9809C17.3021 13.2177 17.3964 13.4329 17.5505 13.5879C17.7047 13.7429 17.9189 13.8376 18.1544 13.8376H23.6534C23.8889 13.8376 24.1031 13.9324 24.2573 14.0874C24.4114 14.2424 24.5057 14.4576 24.5057 14.6944C24.5057 15.168 24.1245 15.5512 23.6534 15.5512H19.5977C19.1266 15.5512 18.7454 15.9344 18.7454 16.408C18.7454 16.6448 18.8396 16.8601 18.9938 17.015C19.148 17.17 19.3621 17.2648 19.5977 17.2648H25.8847C26.1202 17.2648 26.3344 17.3595 26.4885 17.5145C26.6427 17.6695 26.7369 17.8847 26.7369 18.1215C26.7369 18.5908 26.3558 18.9783 25.8847 18.9783H8.56543V20.6876H25.8847C26.1202 20.6876 26.3344 20.7866 26.4885 20.9416C26.6427 21.0966 26.7369 21.3119 26.7369 21.5444C26.7369 22.018 26.3558 22.4011 25.8847 22.4011H17.2422C16.7711 22.4011 16.3899 22.7843 16.3899 23.2579C16.3899 23.4947 16.4841 23.71 16.6383 23.865C16.7925 24.02 17.0066 24.1147 17.2422 24.1147H22.647C22.8825 24.1147 23.0966 24.2094 23.2508 24.3644C23.405 24.5194 23.4992 24.7347 23.4992 24.9715C23.4992 25.4451 23.1181 25.8283 22.647 25.8283H15.0366C14.5655 25.8283 14.1843 26.2114 14.1843 26.685C14.1843 26.9218 14.2786 27.1371 14.4327 27.2921C14.5869 27.4471 14.801 27.5418 15.0366 27.5418H40.2018V27.5504H40.3474V70.6521H40.3559V100.67C40.3559 100.949 40.4502 101.208 40.6043 101.389C40.7585 101.574 40.9726 101.686 41.2082 101.686C41.6793 101.686 42.0604 101.229 42.0604 100.67V91.5937C42.0604 91.0297 42.4416 90.5776 42.9127 90.5776C43.1483 90.5776 43.3624 90.6895 43.5166 90.8747C43.6707 91.0598 43.765 91.3138 43.765 91.5937V98.0389C43.765 98.3188 43.8592 98.5771 44.0134 98.7579C44.1675 98.943 44.3817 99.055 44.6172 99.055C45.0883 99.055 45.4695 98.5986 45.4695 98.0389V87.7317C45.4695 87.1677 45.8506 86.7156 46.3217 86.7156C46.553 86.7156 46.7671 86.8276 46.9213 87.0127C47.0755 87.1978 47.174 87.4519 47.174 87.7317V108.389H48.8742V87.7317C48.8742 87.1677 49.2597 86.7156 49.7265 86.7156C49.962 86.7156 50.1762 86.8276 50.3303 87.0127C50.4845 87.1978 50.5787 87.4519 50.5787 87.7317V95.2318C50.5787 95.5116 50.673 95.7699 50.8271 95.9508C50.9813 96.1359 51.1955 96.2478 51.431 96.2478C51.9021 96.2478 52.2833 95.7915 52.2833 95.2318V90.3925C52.2833 89.8284 52.6644 89.3764 53.1355 89.3764C53.3711 89.3764 53.5852 89.4883 53.7394 89.6735C53.8936 89.8586 53.9878 90.1126 53.9878 90.3925V96.9496C53.9878 97.2295 54.082 97.4878 54.2362 97.6686C54.3903 97.8495 54.6045 97.9657 54.84 97.9657C55.3111 97.9657 55.6923 97.5093 55.6923 96.9496V87.7274C55.6923 87.1634 56.0735 86.7113 56.5445 86.7113C56.7801 86.7113 56.9942 86.8233 57.1484 87.0084C57.3026 87.1935 57.3968 87.4475 57.3968 87.7274V95.2404C57.3968 95.5202 57.491 95.7785 57.6452 95.9594C57.7994 96.1445 58.0135 96.2565 58.2491 96.2565C58.7202 96.2565 59.1013 95.8001 59.1013 95.2404V70.6521V61.3696V27.5504H90.8833V8.69696ZM25.996 25.8283C25.9575 25.8326 25.9147 25.8369 25.8761 25.8369C25.8376 25.8369 25.799 25.8326 25.7605 25.8283C25.3408 25.7723 25.0196 25.4106 25.0196 24.9715C25.0196 24.528 25.3579 24.1578 25.7905 24.1147H25.9661C26.3986 24.1578 26.7369 24.528 26.7369 24.9715C26.7369 25.4106 26.4157 25.7723 25.996 25.8283ZM26.0217 15.5512H25.7348C25.3279 15.4823 25.0196 15.1293 25.0196 14.6987C25.0196 14.2251 25.405 13.8376 25.8761 13.8376C26.3515 13.8376 26.7369 14.2251 26.7369 14.6987C26.7369 15.1293 26.4286 15.4823 26.0217 15.5512ZM43.765 87.8436C43.7221 88.3603 43.3538 88.765 42.9127 88.765C42.4759 88.765 42.1161 88.3818 42.0604 87.8824C42.0562 87.835 42.0519 87.792 42.0519 87.7446C42.0519 87.6973 42.0562 87.6456 42.0604 87.6025C42.1161 87.1031 42.4759 86.7199 42.9127 86.7199C43.3538 86.7199 43.7221 87.1246 43.765 87.6413V87.8436Z" fill="#D31176"/>
<path d="M58.2492 97.9355C57.7781 97.9355 57.397 98.3919 57.397 98.9516V108.389H59.1015V98.9516C59.1015 98.6718 59.0073 98.4135 58.8531 98.2326C58.6989 98.0518 58.4848 97.9355 58.2492 97.9355Z" fill="#D31176"/>
<path d="M54.8401 98.9C54.369 98.9 53.9878 99.3563 53.9878 99.916V108.393H55.6923V99.916C55.6923 99.6362 55.5981 99.3779 55.4439 99.197C55.2897 99.0119 55.0756 98.9 54.8401 98.9Z" fill="#D31176"/>
<path d="M51.4353 96.6956C50.9642 96.6956 50.583 97.152 50.583 97.7117V108.389H52.2875V97.7117C52.2875 97.4318 52.1933 97.1735 52.0391 96.9927C51.885 96.8076 51.6708 96.6956 51.4353 96.6956Z" fill="#D31176"/>
<path d="M44.6213 99.7051C44.1502 99.7051 43.769 100.161 43.769 100.721V108.389H45.4736V100.721C45.4736 100.441 45.3793 100.183 45.2252 100.002C45.071 99.817 44.8569 99.7051 44.6213 99.7051Z" fill="#D31176"/>
<path d="M41.1994 102.362C40.7283 102.362 40.3472 102.818 40.3472 103.378V108.389H42.0517V103.378C42.0517 103.098 41.9575 102.839 41.8033 102.659C41.6491 102.474 41.435 102.362 41.1994 102.362Z" fill="#D31176"/>
<path d="M214.302 68.4477L212.855 65.6362C212.319 65.8386 211.78 66.0366 211.236 66.2261L212.786 69.2356C212.893 69.4465 213.077 69.5929 213.287 69.6618C213.497 69.7307 213.728 69.7135 213.934 69.6058C214.358 69.382 214.516 68.8653 214.302 68.4477Z" fill="#D31176"/>
<path d="M214.443 64.9947L215.446 66.9408C215.553 67.1517 215.737 67.2981 215.947 67.367C216.156 67.4316 216.388 67.4144 216.598 67.3067C217.017 67.0915 217.18 66.5748 216.966 66.1572L216.015 64.3145C215.493 64.5426 214.97 64.7708 214.443 64.9947Z" fill="#D31176"/>
<path d="M219.818 67.4402C220.028 67.5091 220.259 67.4919 220.465 67.3843C220.885 67.1647 221.052 66.648 220.833 66.2304L219.069 62.8033C218.568 63.0659 218.058 63.3242 217.548 63.5783L219.321 67.0183C219.424 67.225 219.608 67.3713 219.818 67.4402Z" fill="#D31176"/>
<path d="M223.48 60.1942L224.208 61.6193C224.315 61.8303 224.495 61.9767 224.705 62.0455C224.915 62.1101 225.15 62.0929 225.36 61.9853C225.78 61.77 225.943 61.2533 225.724 60.8357L224.902 59.2384C224.431 59.5613 223.96 59.8756 223.48 60.1942Z" fill="#D31176"/>
<path d="M226.332 58.2008C226.435 58.33 226.572 58.4247 226.726 58.472C226.936 58.5409 227.167 58.5237 227.377 58.4161C227.801 58.1965 227.964 57.6798 227.745 57.2622L227.694 57.1589C227.24 57.5076 226.786 57.8564 226.332 58.2008Z" fill="#D31176"/>
<path d="M232.187 69.6489C232.208 69.6834 232.234 69.7135 232.247 69.7479C232.268 69.7824 232.285 69.8211 232.298 69.8556C232.444 70.2603 232.268 70.7124 231.883 70.9147C231.489 71.1214 231.005 70.9879 230.769 70.6219L230.688 70.4626C230.53 70.0579 230.697 69.5843 231.091 69.382C231.48 69.1796 231.947 69.3002 232.187 69.6489ZM228.277 58.8638C228.071 58.7949 227.836 58.8122 227.626 58.9198C227.206 59.1394 227.043 59.656 227.262 60.0736L230.761 66.8719C230.975 67.2895 230.812 67.8062 230.392 68.0258C230.183 68.1291 229.951 68.1506 229.746 68.0817C229.536 68.0172 229.352 67.8665 229.245 67.6555L226.761 62.8291C226.654 62.6181 226.47 62.4718 226.264 62.4072C226.054 62.3426 225.823 62.3555 225.613 62.4632C225.193 62.6784 225.031 63.1994 225.245 63.6213L229.219 71.3366C229.433 71.7543 229.27 72.2709 228.855 72.4905C228.649 72.5938 228.414 72.611 228.204 72.5465C227.998 72.4776 227.814 72.3312 227.703 72.1202L222.033 61.1026C221.549 61.3997 221.056 61.6882 220.564 61.9723L226.195 72.9081C226.41 73.33 226.243 73.8467 225.827 74.062C225.622 74.1739 225.386 74.1868 225.18 74.1222C224.971 74.0534 224.791 73.907 224.679 73.696L221.793 68.0817C221.681 67.8708 221.497 67.7244 221.296 67.6598C221.086 67.5909 220.851 67.6038 220.641 67.7158C220.225 67.9353 220.063 68.4477 220.281 68.8696L222.144 72.4948C222.358 72.9124 222.195 73.4291 221.776 73.6443C221.566 73.752 221.335 73.7692 221.129 73.7046C220.919 73.6357 220.735 73.4893 220.628 73.2784L218.101 68.3702C217.994 68.1592 217.81 68.0085 217.6 67.944C217.394 67.8751 217.159 67.8966 216.953 67.9999C216.534 68.2195 216.371 68.7362 216.585 69.1538L220.14 76.0597C220.358 76.4816 220.191 76.994 219.771 77.2135C219.562 77.3212 219.33 77.3384 219.125 77.2695C218.915 77.2049 218.731 77.0542 218.628 76.8476L215.729 71.2204C215.621 71.0094 215.437 70.863 215.232 70.7941C215.022 70.7296 214.791 70.7425 214.581 70.8544C214.161 71.0697 214.003 71.5864 214.212 72.0083L232.941 108.389H254.046L228.774 59.2901C228.667 59.0748 228.487 58.9327 228.277 58.8638ZM222.804 75.6378C222.388 75.853 221.87 75.6894 221.647 75.2632C221.433 74.8413 221.596 74.3203 222.016 74.105C222.397 73.907 222.846 74.0189 223.099 74.3504L223.228 74.6045C223.356 75.0006 223.185 75.4397 222.804 75.6378Z" fill="#D31176"/>
<path d="M194.593 97.9355C194.122 97.9355 193.741 98.3919 193.741 98.9516V108.389H195.445V98.9516C195.445 98.6718 195.351 98.4135 195.197 98.2326C195.043 98.0518 194.829 97.9355 194.593 97.9355Z" fill="#D31176"/>
<path d="M191.184 98.9C190.713 98.9 190.332 99.3563 190.332 99.916V108.393H192.037V99.916C192.037 99.6362 191.942 99.3779 191.788 99.197C191.634 99.0119 191.42 98.9 191.184 98.9Z" fill="#D31176"/>
<path d="M187.779 96.6956C187.308 96.6956 186.927 97.152 186.927 97.7117V108.389H188.632V97.7117C188.632 97.4318 188.538 97.1735 188.383 96.9927C188.229 96.8076 188.015 96.6956 187.779 96.6956Z" fill="#D31176"/>
<path d="M180.966 99.7051C180.494 99.7051 180.113 100.161 180.113 100.721V108.389H181.818V100.721C181.818 100.441 181.724 100.183 181.569 100.002C181.415 99.817 181.201 99.7051 180.966 99.7051Z" fill="#D31176"/>
<path d="M177.544 102.362C177.073 102.362 176.691 102.818 176.691 103.378V108.389H178.396V103.378C178.396 103.098 178.302 102.839 178.148 102.659C177.993 102.474 177.779 102.362 177.544 102.362Z" fill="#D31176"/>
<path d="M189.471 88.7607C189.043 88.7607 188.691 88.3947 188.623 87.9082V87.5681C188.691 87.0816 189.043 86.7113 189.471 86.7113C189.942 86.7113 190.327 87.172 190.327 87.7403C190.327 88.3 189.942 88.7607 189.471 88.7607ZM193.985 95.9637C194.139 96.1488 194.353 96.2608 194.589 96.2608C195.06 96.2608 195.441 95.8044 195.441 95.2447V68.2496C214.375 66.8332 230.718 56.0308 239.874 40.4581C244.846 31.9979 247.703 22.1299 247.703 11.5859V8.69696H228.949V11.5859C228.949 31.111 214.298 47.1875 195.441 49.3101V8.69696H176.687V70.6521H176.696V100.67C176.696 100.949 176.79 101.203 176.944 101.389C177.098 101.574 177.312 101.686 177.548 101.686C178.019 101.686 178.4 101.229 178.4 100.67V91.5894C178.4 91.0297 178.781 90.5733 179.252 90.5733C179.488 90.5733 179.702 90.6852 179.856 90.8704C180.01 91.0555 180.105 91.3095 180.105 91.5894V98.0389C180.105 98.3188 180.199 98.5728 180.353 98.7579C180.507 98.943 180.721 99.055 180.957 99.055C181.428 99.055 181.809 98.5986 181.809 98.0389V87.7274C181.809 87.1677 182.19 86.7113 182.661 86.7113C182.893 86.7113 183.107 86.8233 183.261 87.0084C183.415 87.1935 183.514 87.4475 183.514 87.7274V108.389H185.214V87.7274C185.214 87.1677 185.599 86.7113 186.066 86.7113C186.302 86.7113 186.516 86.8233 186.67 87.0084C186.824 87.1935 186.918 87.4475 186.918 87.7274V95.2274C186.918 95.5073 187.013 95.7656 187.167 95.9465C187.321 96.1316 187.535 96.2435 187.771 96.2435C188.242 96.2435 188.623 95.7915 188.623 95.2274V90.3925C188.623 89.8284 189.004 89.3764 189.475 89.3764C189.711 89.3764 189.925 89.4883 190.079 89.6691C190.233 89.8543 190.327 90.1083 190.327 90.3925V96.9496C190.327 97.2295 190.422 97.4878 190.576 97.6686C190.73 97.8538 190.944 97.9657 191.18 97.9657C191.651 97.9657 192.032 97.5136 192.032 96.9496V87.7274C192.032 87.1677 192.413 86.7113 192.884 86.7113C193.12 86.7113 193.334 86.8233 193.488 87.0084C193.642 87.1935 193.736 87.4475 193.736 87.7274V95.2447C193.736 95.5245 193.831 95.7785 193.985 95.9637ZM180.105 87.8436C180.062 88.356 179.693 88.7607 179.252 88.7607C178.816 88.7607 178.456 88.3775 178.4 87.8781C178.396 87.8307 178.392 87.7877 178.392 87.7403C178.392 87.693 178.396 87.6413 178.4 87.5982C178.456 87.0945 178.816 86.7113 179.252 86.7113C179.693 86.7113 180.062 87.116 180.105 87.6327V87.8436Z" fill="#D31176"/>
<path d="M295.828 54.1838C296.389 54.1838 296.843 54.5713 296.843 55.0449C296.843 55.4754 296.479 55.8285 295.995 55.8974H295.656C295.172 55.8285 294.808 55.4754 294.808 55.0449C294.804 54.5713 295.262 54.1838 295.828 54.1838ZM295.721 64.4609H295.93C296.444 64.5039 296.847 64.8742 296.847 65.3176C296.847 65.7568 296.466 66.1184 295.969 66.1744C295.922 66.1787 295.879 66.183 295.832 66.183C295.785 66.183 295.733 66.1787 295.691 66.1744C295.194 66.1184 294.813 65.7568 294.813 65.3176C294.804 64.8742 295.207 64.5039 295.721 64.4609ZM274.645 87.4217C274.714 86.9352 275.065 86.5692 275.493 86.5692C275.964 86.5692 276.35 87.0299 276.35 87.5939C276.35 88.1579 275.964 88.6143 275.493 88.6143C275.065 88.6143 274.714 88.2483 274.645 87.7618V87.4217ZM264.457 8.69696H262.709V70.5057H262.718V100.523C262.718 100.803 262.812 101.061 262.966 101.242C263.121 101.427 263.335 101.539 263.57 101.539C264.041 101.539 264.423 101.083 264.423 100.523V91.4473C264.423 90.8833 264.804 90.4312 265.275 90.4312C265.51 90.4312 265.725 90.5431 265.879 90.7283C266.033 90.9134 266.127 91.1674 266.127 91.4473V97.8925C266.127 98.1724 266.221 98.4307 266.375 98.6115C266.53 98.7966 266.744 98.9086 266.979 98.9086C267.45 98.9086 267.832 98.4522 267.832 97.8925V87.5853C267.832 87.0213 268.213 86.5692 268.684 86.5692C268.915 86.5692 269.129 86.6812 269.283 86.8663C269.438 87.0514 269.536 87.3055 269.536 87.5853V108.243H271.236V87.5853C271.236 87.0213 271.622 86.5692 272.089 86.5692C272.324 86.5692 272.538 86.6812 272.692 86.8663C272.847 87.0514 272.941 87.3055 272.941 87.5853V95.0854C272.941 95.3652 273.035 95.6235 273.189 95.8044C273.343 95.9895 273.558 96.1015 273.793 96.1015C274.264 96.1015 274.645 95.6451 274.645 95.0854V90.2461C274.645 89.6821 275.027 89.23 275.498 89.23C275.733 89.23 275.947 89.3419 276.101 89.5271C276.256 89.7122 276.35 89.9662 276.35 90.2461V96.8032C276.35 97.0831 276.444 97.3414 276.598 97.5222C276.752 97.7074 276.967 97.8193 277.202 97.8193C277.673 97.8193 278.054 97.3629 278.054 96.8032V87.581C278.054 87.017 278.436 86.5649 278.907 86.5649C279.142 86.5649 279.356 86.6769 279.511 86.862C279.665 87.0471 279.759 87.3012 279.759 87.581V95.094C279.759 95.3738 279.853 95.6322 280.007 95.813C280.161 95.9981 280.376 96.1101 280.611 96.1101C281.082 96.1101 281.463 95.6537 281.463 95.094V70.5014V67.8837H308.684C308.963 67.8837 309.22 67.789 309.4 67.634C309.584 67.479 309.695 67.2637 309.695 67.0269C309.695 66.5533 309.241 66.1701 308.684 66.1701H299.656C299.1 66.1701 298.646 65.7869 298.646 65.3133C298.646 65.0765 298.757 64.8613 298.941 64.7063C299.125 64.5513 299.378 64.4566 299.656 64.4566H306.068C306.346 64.4566 306.603 64.3618 306.783 64.2068C306.967 64.0518 307.078 63.8366 307.078 63.5998C307.078 63.1262 306.624 62.743 306.068 62.743H295.815C295.258 62.743 294.804 62.3598 294.804 61.8862C294.804 61.6537 294.915 61.4384 295.1 61.2835C295.284 61.1285 295.536 61.0294 295.815 61.0294H316.363V59.3202H295.815C295.258 59.3202 294.804 58.9327 294.804 58.4634C294.804 58.2266 294.915 58.0113 295.1 57.8563C295.284 57.7013 295.536 57.6066 295.815 57.6066H303.275C303.554 57.6066 303.811 57.5119 303.99 57.3569C304.175 57.2019 304.286 56.9866 304.286 56.7498C304.286 56.2762 303.832 55.8931 303.275 55.8931H298.461C297.9 55.8931 297.451 55.5099 297.451 55.0363C297.451 54.7995 297.562 54.5842 297.746 54.4292C297.93 54.2742 298.183 54.1795 298.461 54.1795H304.984C305.262 54.1795 305.519 54.0848 305.699 53.9298C305.883 53.7748 305.995 53.5595 305.995 53.3227C305.995 52.8491 305.541 52.4659 304.984 52.4659H295.81C295.254 52.4659 294.8 52.0828 294.8 51.6092C294.8 51.3724 294.911 51.1571 295.095 51.0021C295.279 50.8471 295.532 50.7524 295.81 50.7524H303.284C303.562 50.7524 303.819 50.6577 303.999 50.5027C304.183 50.3477 304.295 50.1324 304.295 49.8956C304.295 49.422 303.841 49.0388 303.284 49.0388H281.459V27.5504H328.569V8.69696H264.457ZM265.275 86.5692C265.716 86.5692 266.084 86.9739 266.127 87.4906V87.7016C266.084 88.2182 265.716 88.6229 265.275 88.6229C264.838 88.6229 264.478 88.2397 264.423 87.7403C264.418 87.6929 264.414 87.6499 264.414 87.6025C264.414 87.5552 264.418 87.5035 264.423 87.4605C264.478 86.9524 264.838 86.5692 265.275 86.5692Z" fill="#D31176"/>
<path d="M328.573 89.5142H283.202V108.368H328.573V89.5142Z" fill="#D31176"/>
<path d="M280.611 97.7892C280.14 97.7892 279.759 98.2456 279.759 98.8053V108.243H281.463V98.8096C281.463 98.5297 281.369 98.2714 281.215 98.0906C281.061 97.9054 280.847 97.7892 280.611 97.7892Z" fill="#D31176"/>
<path d="M277.202 98.7493C276.731 98.7493 276.35 99.2056 276.35 99.7653V108.243H278.055V99.7653C278.055 99.4855 277.96 99.2272 277.806 99.0463C277.652 98.8655 277.438 98.7493 277.202 98.7493Z" fill="#D31176"/>
<path d="M273.798 96.5492C273.326 96.5492 272.945 97.0056 272.945 97.5653V108.243H274.65V97.5653C274.65 97.2854 274.556 97.0271 274.401 96.8463C274.247 96.6611 274.033 96.5492 273.798 96.5492Z" fill="#D31176"/>
<path d="M266.984 99.5587C266.513 99.5587 266.131 100.015 266.131 100.575V108.243H267.836V100.575C267.836 100.295 267.742 100.037 267.587 99.8558C267.433 99.6707 267.219 99.5587 266.984 99.5587Z" fill="#D31176"/>
<path d="M263.562 102.215C263.091 102.215 262.709 102.672 262.709 103.231V108.243H264.414V103.231C264.414 102.951 264.32 102.693 264.166 102.512C264.011 102.327 263.797 102.215 263.562 102.215Z" fill="#D31176"/>
<path d="M316.368 49.0432H306.98C306.702 49.0432 306.445 49.1379 306.265 49.2929C306.081 49.4479 305.969 49.6631 305.969 49.8999C305.969 50.3735 306.423 50.7567 306.98 50.7567H316.368V49.0432Z" fill="#D31176"/>
<path d="M306.924 53.3271C306.924 53.8007 307.378 54.1838 307.935 54.1838H316.368V52.4703H307.935C307.657 52.4703 307.4 52.565 307.22 52.72C307.036 52.875 306.924 53.0903 306.924 53.3271Z" fill="#D31176"/>
<path d="M305.027 56.1428C304.843 56.2978 304.731 56.513 304.731 56.7498C304.731 57.2234 305.185 57.6066 305.742 57.6066H316.363V55.8931H305.742C305.464 55.8931 305.211 55.9878 305.027 56.1428Z" fill="#D31176"/>
<path d="M316.368 62.743H308.74C308.462 62.743 308.205 62.8377 308.025 62.9927C307.841 63.1477 307.729 63.363 307.729 63.5998C307.729 64.0734 308.183 64.4565 308.74 64.4565H316.368V62.743Z" fill="#D31176"/>
<path d="M311.378 67.8966H316.363V66.183H311.378C311.1 66.183 310.843 66.2778 310.663 66.4328C310.479 66.5878 310.368 66.803 310.368 67.0398C310.368 67.5134 310.822 67.8966 311.378 67.8966Z" fill="#D31176"/>
<path d="M115.496 82.5695H111.406V84.283H115.496C115.731 84.283 115.945 84.1883 116.1 84.0333C116.254 83.8783 116.348 83.663 116.348 83.4262C116.348 82.9526 115.967 82.5695 115.496 82.5695Z" fill="#D31176"/>
<path d="M111.406 80.856H114.691C114.926 80.856 115.14 80.7612 115.294 80.6062C115.449 80.4512 115.543 80.236 115.543 79.9992C115.543 79.5256 115.162 79.1424 114.691 79.1424H111.406V80.856Z" fill="#D31176"/>
<path d="M117.14 77.1834C117.294 77.0284 117.389 76.8131 117.389 76.5763C117.389 76.1027 117.008 75.7195 116.536 75.7195H111.406V77.4331H116.536C116.772 77.4331 116.986 77.3384 117.14 77.1834Z" fill="#D31176"/>
<path d="M111.406 70.5832H114.014C114.249 70.5832 114.464 70.4885 114.618 70.3335C114.772 70.1785 114.866 69.9632 114.866 69.7264C114.866 69.2528 114.485 68.8696 114.014 68.8696H111.406V70.5832Z" fill="#D31176"/>
<path d="M112.639 66.2863C112.639 65.8128 112.258 65.4296 111.787 65.4296H111.406V67.1431H111.787C112.022 67.1431 112.237 67.0484 112.391 66.8934C112.545 66.7384 112.639 66.5231 112.639 66.2863Z" fill="#D31176"/>
<path d="M124.781 67.1475C124.819 67.1432 124.858 67.1389 124.896 67.1389C124.935 67.1389 124.978 67.1432 125.016 67.1475C125.436 67.2034 125.757 67.5651 125.757 68.0042C125.757 68.4477 125.419 68.818 124.986 68.861H124.811C124.378 68.818 124.04 68.4477 124.04 68.0042C124.04 67.5651 124.361 67.2034 124.781 67.1475ZM113.453 65.6836C113.299 65.8386 113.204 66.0539 113.204 66.2907C113.204 66.7643 113.586 67.1475 114.057 67.1475H121.667C122.138 67.1475 122.519 67.5306 122.519 68.0042C122.519 68.241 122.425 68.4563 122.271 68.6113C122.117 68.7663 121.903 68.861 121.667 68.861H116.262C116.027 68.861 115.813 68.9557 115.658 69.1107C115.504 69.2657 115.41 69.481 115.41 69.7178C115.41 70.1914 115.791 70.5746 116.262 70.5746H124.905C125.376 70.5746 125.757 70.9578 125.757 71.4314C125.757 71.6639 125.663 71.8791 125.509 72.0341C125.355 72.1891 125.14 72.2881 124.905 72.2881H111.406V73.9974H124.905C125.376 73.9974 125.757 74.3849 125.757 74.8542C125.757 75.091 125.663 75.3062 125.509 75.4612C125.355 75.6162 125.14 75.711 124.905 75.711H118.618C118.382 75.711 118.168 75.8057 118.014 75.9607C117.86 76.1157 117.766 76.3309 117.766 76.5677C117.766 77.0413 118.147 77.4245 118.618 77.4245H122.674C123.145 77.4245 123.526 77.8077 123.526 78.2813C123.526 78.5181 123.432 78.7334 123.277 78.8884C123.123 79.0434 122.909 79.1381 122.674 79.1381H117.175C116.939 79.1381 116.725 79.2328 116.571 79.3878C116.417 79.5428 116.322 79.7581 116.322 79.9949C116.322 80.4685 116.703 80.8516 117.175 80.8516H124.905C125.376 80.8516 125.757 81.2348 125.757 81.7084C125.757 81.9452 125.663 82.1605 125.509 82.3155C125.355 82.4705 125.14 82.5652 124.905 82.5652H118.605C118.369 82.5652 118.155 82.6599 118.001 82.8149C117.847 82.9699 117.753 83.1852 117.753 83.422C117.753 83.8956 118.134 84.2788 118.605 84.2788H147.008V65.4339H114.057C113.821 65.4339 113.607 65.5286 113.453 65.6836ZM124.896 79.1381C124.425 79.1381 124.04 78.7506 124.04 78.277C124.04 77.8464 124.348 77.4934 124.755 77.4245H125.042C125.449 77.4934 125.757 77.8464 125.757 78.277C125.757 78.7506 125.372 79.1381 124.896 79.1381Z" fill="#D31176"/>
<path d="M166.743 103.261C166.272 103.261 165.891 103.645 165.891 104.118V108.23H167.595V104.118C167.595 103.881 167.501 103.666 167.347 103.511C167.193 103.356 166.978 103.261 166.743 103.261Z" fill="#D31176"/>
<path d="M163.334 104.071C162.863 104.071 162.481 104.454 162.481 104.928V108.23H164.186V104.928C164.186 104.691 164.092 104.476 163.938 104.321C163.783 104.166 163.569 104.071 163.334 104.071Z" fill="#D31176"/>
<path d="M159.929 102.215C159.458 102.215 159.077 102.598 159.077 103.072V108.23H160.781V103.072C160.781 102.835 160.687 102.62 160.533 102.465C160.379 102.31 160.164 102.215 159.929 102.215Z" fill="#D31176"/>
<path d="M153.115 104.751C152.644 104.751 152.263 105.134 152.263 105.608V108.23H153.967V105.608C153.967 105.371 153.873 105.156 153.719 105.001C153.565 104.846 153.35 104.751 153.115 104.751Z" fill="#D31176"/>
<path d="M149.693 106.99C149.222 106.99 148.841 107.373 148.841 107.847V108.23H150.545V107.847C150.545 107.61 150.451 107.395 150.297 107.24C150.143 107.085 149.929 106.99 149.693 106.99Z" fill="#D31176"/>
<path d="M159.115 28.9583C159.432 28.756 160.066 29.1951 160.55 29.9959C160.593 30.0734 160.64 30.1466 160.679 30.2241C160.721 30.3016 160.76 30.3877 160.798 30.4652C161.197 31.3263 161.218 32.14 160.888 32.3036C160.55 32.4716 159.968 31.9334 159.501 31.1197C159.466 31.0637 159.437 31.0077 159.407 30.9474C159.377 30.8915 159.347 30.8355 159.325 30.7838C158.914 29.9443 158.798 29.1607 159.115 28.9583ZM129.243 8.7099C108.057 8.7099 90.8833 25.979 90.8833 47.2779V108.23H109.637V47.2779C109.642 36.3938 118.417 27.572 129.243 27.572C140.074 27.572 148.85 36.3938 148.854 47.2779V72.4388H148.85V105.565C148.85 105.802 148.944 106.017 149.098 106.172C149.252 106.327 149.466 106.422 149.702 106.422C150.173 106.422 150.554 106.038 150.554 105.565V97.9141C150.554 97.4405 150.935 97.0573 151.406 97.0573C151.642 97.0573 151.856 97.152 152.01 97.307C152.164 97.462 152.259 97.6773 152.259 97.9141V103.348C152.259 103.584 152.353 103.8 152.507 103.955C152.661 104.11 152.875 104.204 153.111 104.204C153.582 104.204 153.963 103.821 153.963 103.348V94.6592C153.963 94.1856 154.344 93.8024 154.815 93.8024C155.047 93.8024 155.261 93.8971 155.415 94.0521C155.569 94.2071 155.668 94.4224 155.668 94.6592V108.23H157.368V94.6592C157.368 94.1856 157.753 93.8024 158.22 93.8024C158.456 93.8024 158.67 93.8971 158.824 94.0521C158.978 94.2071 159.072 94.4224 159.072 94.6592V100.98C159.072 101.216 159.167 101.432 159.321 101.587C159.475 101.742 159.689 101.836 159.925 101.836C160.396 101.836 160.777 101.453 160.777 100.98V96.9023C160.777 96.4287 161.158 96.0455 161.629 96.0455C161.865 96.0455 162.079 96.1402 162.233 96.2952C162.387 96.4502 162.482 96.6655 162.482 96.9023V102.43C162.482 102.667 162.576 102.883 162.73 103.038C162.884 103.193 163.098 103.287 163.334 103.287C163.805 103.287 164.186 102.904 164.186 102.43V94.6592C164.186 94.1856 164.567 93.8024 165.038 93.8024C165.274 93.8024 165.488 93.8971 165.642 94.0521C165.796 94.2071 165.891 94.4224 165.891 94.6592V100.992C165.891 101.229 165.985 101.445 166.139 101.6C166.293 101.754 166.507 101.849 166.743 101.849C167.214 101.849 167.595 101.466 167.595 100.992V86.0182H167.608V47.2779C167.608 25.979 150.43 8.7099 129.243 8.7099ZM102.528 23.555C102.669 23.4043 102.738 23.3268 102.883 23.1761C103.53 22.5648 104.237 22.3237 104.494 22.5906C104.759 22.8618 104.472 23.5593 103.894 24.231C103.86 24.2697 103.817 24.3128 103.774 24.3601C103.736 24.4032 103.693 24.4505 103.646 24.4936C103.02 25.1179 102.335 25.458 102.044 25.2169C101.761 24.9758 101.958 24.2482 102.528 23.555ZM104.318 41.7368C104.138 42.5721 103.714 43.2136 103.325 43.1404C102.969 43.0715 102.772 42.4214 102.871 41.6507C102.879 41.5603 102.896 41.4699 102.913 41.3752C102.935 41.2891 102.956 41.203 102.982 41.1169C103.209 40.3892 103.646 39.9329 103.988 40.0448C104.37 40.1654 104.494 40.9102 104.318 41.7368ZM155.222 43.4934C154.833 43.5623 154.413 42.9079 154.242 42.0684C154.075 41.2331 154.212 40.484 154.593 40.3677C154.935 40.2644 155.368 40.7251 155.586 41.4656C155.586 41.4699 155.586 41.4785 155.591 41.4828C155.633 41.6809 155.651 41.7799 155.689 41.9779C155.689 41.9866 155.693 41.9909 155.693 41.9995C155.779 42.7744 155.578 43.4289 155.222 43.4934ZM156.332 36.3895C156.147 36.4713 155.916 36.3766 155.689 36.1613C155.462 35.9503 155.235 35.6188 155.055 35.227C153.145 31.0378 151.762 29.2942 148.563 26.5042C148.263 26.2459 147.933 26.0737 147.646 26.0134C147.364 25.9531 147.124 26.0048 147 26.1598C146.747 26.4741 147.025 27.0984 147.591 27.5935C150.588 30.0734 153.312 34.0947 154.537 37.7845C154.824 38.5767 154.717 39.3516 154.34 39.4808C154.152 39.5497 153.933 39.4463 153.728 39.2354C153.526 39.0244 153.338 38.7058 153.201 38.3312C151.92 34.8008 150.965 33.2767 148.691 30.7279C148.451 30.4566 148.164 30.2715 147.907 30.194C147.651 30.1165 147.419 30.1466 147.278 30.2887C146.991 30.5729 147.149 31.1885 147.603 31.7009C149.299 33.6039 150.036 34.6975 151.167 37.1774C151.471 37.8447 151.389 38.5379 151.021 38.6972C150.837 38.779 150.618 38.7144 150.413 38.5551C150.207 38.3958 150.015 38.1375 149.869 37.8275C141.959 25.0705 128.682 22.4356 115.663 29.419C115.659 29.419 115.654 29.4233 115.65 29.4233C112.879 31.3478 111.637 32.5878 109.783 35.636C109.607 35.9202 109.389 36.1441 109.17 36.2689C108.948 36.3981 108.725 36.4325 108.549 36.3292C108.203 36.1312 108.19 35.4552 108.558 34.8482C110.978 30.8742 112.704 29.3372 116.515 27.163C117.098 26.8314 117.427 26.3062 117.239 25.9531C117.141 25.7766 116.931 25.6776 116.665 25.669C116.395 25.6604 116.07 25.7465 115.762 25.923C111.016 28.6182 107.329 32.9021 105.402 38.0342C105.26 38.4087 105.068 38.723 104.862 38.9297C104.656 39.1364 104.438 39.2311 104.25 39.1665C103.877 39.0287 103.774 38.2537 104.07 37.4702C110.108 25.4623 119.505 20.7694 132.708 21.1999C133.453 21.2861 134.109 21.0708 134.181 20.679C134.216 20.4852 134.096 20.2829 133.86 20.115C133.629 19.9471 133.282 19.8222 132.892 19.7748C120.781 19.3701 112.331 22.7241 104.888 32.4845C104.669 32.8418 104.412 33.1303 104.164 33.3068C103.92 33.4833 103.68 33.5479 103.504 33.4489C103.162 33.2508 103.209 32.4457 103.663 31.7009C109.102 24.5065 114.511 21.0622 123.094 18.7028C124.901 18.5004 126.657 18.3971 128.37 18.3971C140.323 18.3971 149.895 23.4043 156.353 34.5769C156.73 35.4036 156.696 36.2345 156.332 36.3895ZM158.983 35.2399C158.803 35.3174 158.563 35.2055 158.327 34.9644C158.087 34.7276 157.843 34.3616 157.646 33.9311C151.03 22.3753 141.788 17.4241 128.678 16.7008C122.935 17.2045 118.113 18.4186 113.856 20.6747C109.603 22.9307 105.911 26.233 102.442 30.913C102.207 31.3048 101.924 31.6277 101.663 31.8257C101.402 32.0281 101.158 32.1056 100.986 32.0066C100.635 31.8085 100.721 30.9474 101.217 30.1251C104.943 24.2912 110.579 19.538 117.183 17.3337C118.036 17.028 118.635 16.5113 118.507 16.1325C118.447 15.943 118.207 15.8268 117.873 15.7966C117.535 15.7665 117.102 15.8268 116.657 15.9904C113.282 17.2002 111.654 18.0182 108.712 20.0762C108.322 20.3475 107.928 20.5412 107.594 20.6273C107.265 20.7134 106.999 20.6876 106.871 20.5326C106.618 20.2226 107.038 19.4821 107.834 18.9138C122.991 9.91542 139.372 10.5483 153.526 21.1698C154.276 21.8285 154.618 22.6293 154.336 22.9178C154.194 23.0599 153.925 23.0513 153.603 22.9307C153.287 22.8059 152.91 22.5691 152.554 22.2548C151.077 20.9545 150.289 20.3647 148.64 19.3142C148.242 19.0601 147.83 18.9052 147.496 18.8621C147.162 18.819 146.905 18.8836 146.803 19.0558C146.593 19.4003 147.064 20.0332 147.83 20.524C152.67 23.6024 156.559 28.0413 158.944 33.281C159.355 34.1808 159.351 35.0806 158.983 35.2399ZM158.032 26.0522C158.087 26.1167 158.139 26.1813 158.19 26.2502C158.237 26.3148 158.289 26.3923 158.336 26.4655C158.833 27.2275 158.957 28.0025 158.649 28.2135C158.336 28.4245 157.689 27.9939 157.132 27.2835C157.111 27.2577 157.09 27.2318 157.072 27.206V27.2017C157.068 27.1974 157.064 27.1931 157.06 27.1888C157.017 27.1242 156.974 27.0682 156.914 26.9907C156.404 26.2416 156.199 25.5054 156.486 25.26C156.773 25.0189 157.458 25.3504 158.032 26.0522Z" fill="#D31176"/>
<path d="M146.575 28.6397C146.164 28.2824 145.954 28.1102 145.526 27.7829C143.954 26.5688 143.106 26.0479 141.333 25.1825C139.556 24.3128 138.622 23.964 136.717 23.4388C131.53 22.0266 125.993 22.117 120.858 23.71C120.288 23.8865 119.843 24.2826 119.838 24.6314C119.834 24.9198 120.065 25.1007 120.395 25.1652C120.652 25.2126 120.965 25.1868 121.286 25.0877C126.143 23.5722 131.389 23.4818 136.301 24.8208C138.1 25.3159 138.982 25.6431 140.657 26.4655C142.331 27.2835 143.132 27.7743 144.618 28.9196C145.034 29.2382 145.235 29.4061 145.633 29.7505C145.886 29.9701 146.168 30.1208 146.421 30.1768C146.789 30.2629 147.102 30.1552 147.175 29.7979C147.239 29.4707 146.978 28.9885 146.575 28.6397Z" fill="#D31176"/>
<path d="M137.205 22.0825C138.473 22.4356 139.231 22.6853 140.241 23.1115C140.25 23.1158 140.258 23.1202 140.267 23.1202C140.276 23.1202 140.28 23.1245 140.284 23.1288C140.31 23.1417 140.331 23.1503 140.353 23.1546C140.37 23.1632 140.387 23.1718 140.404 23.1804C140.408 23.1804 140.413 23.1847 140.417 23.1847C140.43 23.189 140.438 23.1933 140.451 23.1977C140.468 23.202 140.49 23.2106 140.511 23.2235C140.528 23.2321 140.545 23.2364 140.558 23.245C140.588 23.2536 140.614 23.2665 140.644 23.2795C140.794 23.3397 140.935 23.4 141.072 23.4603C141.205 23.5206 141.333 23.5808 141.47 23.6411C141.757 23.7746 142.057 23.9253 142.421 24.1104C142.755 24.2783 143.089 24.373 143.372 24.3773C143.655 24.3859 143.882 24.3085 143.989 24.1362C144.199 23.7961 143.817 23.1933 143.119 22.836C142.541 22.5389 142.121 22.3366 141.672 22.1428C141.616 22.1213 141.56 22.0955 141.509 22.0739C141.483 22.061 141.458 22.0481 141.432 22.0395C141.411 22.0309 141.389 22.0223 141.368 22.0094C141.325 21.9964 141.286 21.9792 141.248 21.962C141.235 21.9577 141.222 21.9491 141.209 21.9448C141.175 21.9319 141.145 21.9189 141.111 21.906C141.089 21.8931 141.068 21.8845 141.046 21.8759C139.86 21.3678 139.051 21.1009 137.625 20.7048C136.867 20.4895 136.164 20.6661 136.066 21.0535C136.019 21.243 136.126 21.454 136.331 21.6391C136.537 21.8199 136.845 21.9835 137.205 22.0825Z" fill="#D31176"/>
<path d="M144.682 17.1571C142.922 16.3434 141.941 15.9688 140.198 15.4479C140.215 15.4522 140.233 15.4522 140.245 15.4565C140.211 15.4479 140.181 15.4393 140.156 15.4307C140.156 15.4307 140.151 15.4307 140.147 15.4307C140.121 15.422 140.1 15.4134 140.078 15.4091C140.036 15.3919 139.989 15.379 139.933 15.3661C139.954 15.3747 139.98 15.379 140.001 15.3876C135.158 13.9453 130.036 13.5061 125.016 14.0615C124.074 14.1692 123.372 14.6083 123.44 15.0001C123.474 15.1982 123.689 15.3446 124.005 15.4307C124.322 15.5168 124.742 15.5383 125.196 15.4909C130.425 15.2627 134.228 15.5857 139.342 16.6965C141.273 17.2605 142.216 17.6135 144.036 18.4531C144.447 18.6425 144.854 18.7544 145.183 18.7717C145.513 18.7932 145.762 18.72 145.86 18.5435C146.057 18.1947 145.539 17.5532 144.682 17.1571Z" fill="#D31176"/>
<path d="M462.429 73.8682C461.706 71.5476 461.153 69.1667 460.768 66.7514C460.386 64.336 460.172 61.8862 460.134 59.4321C460.095 57.0555 460.215 54.6789 460.494 52.3239C460.596 51.4413 460.476 50.5759 460.138 50.3003C459.864 50.0764 459.543 50.2401 459.286 50.662C459.085 50.9892 458.926 51.4671 458.862 52.0096C458.566 54.4809 458.438 56.9781 458.476 59.4709C458.519 62.0197 458.738 64.5685 459.136 67.0786C459.534 69.5886 460.108 72.0643 460.862 74.4753C461.072 75.147 461.294 75.8143 461.534 76.4773C461.718 76.9897 461.98 77.4073 462.245 77.6699C462.631 78.0488 463.025 78.0962 463.23 77.6699C463.423 77.2738 463.32 76.4859 463.059 75.754C462.836 75.1254 462.626 74.5011 462.429 73.8682Z" fill="#D31176"/>
<path d="M468.391 59.0188C468.408 60.5429 468.506 62.0671 468.686 63.5783C468.738 64.0002 468.879 64.3662 469.067 64.6116C469.256 64.857 469.487 64.9818 469.71 64.9345C470.16 64.8441 470.421 64.1294 470.327 63.3329C470.258 62.7602 470.207 62.1876 470.16 61.615C470.16 61.6279 470.159 61.6408 470.164 61.6494C470.155 61.5504 470.151 61.4514 470.142 61.3481C470.142 61.3739 470.147 61.404 470.147 61.4299C470.091 60.6678 470.057 59.9057 470.044 59.1394C470.044 59.092 470.044 59.0447 470.044 58.9973C470.035 58.1922 469.684 57.5292 469.226 57.5119C468.999 57.5033 468.785 57.6626 468.631 57.9382C468.481 58.2094 468.386 58.5926 468.391 59.0188Z" fill="#D31176"/>
<path d="M478.54 79.7451C478.583 79.7925 478.622 79.8399 478.66 79.8872C478.699 79.9346 478.738 79.9906 478.772 80.0422C479.144 80.6019 479.221 81.2477 478.909 81.562C478.592 81.8763 477.954 81.7084 477.47 81.1659C477.436 81.1315 477.406 81.0884 477.371 81.0497C477.341 81.0109 477.311 80.9722 477.29 80.9334C476.874 80.3307 476.836 79.6289 477.179 79.3447C477.521 79.0692 478.095 79.2586 478.54 79.7451ZM478.335 95.0423C478.074 95.4513 477.144 95.2834 476.309 94.6247C475.478 93.9746 475.084 93.0963 475.384 92.7217C475.654 92.3773 476.369 92.5323 477.089 93.0231C477.097 93.0274 477.102 93.0317 477.11 93.036C477.256 93.1522 477.406 93.2685 477.555 93.3847C477.56 93.389 477.568 93.3977 477.573 93.402C478.224 93.9918 478.575 94.6764 478.335 95.0423ZM475.333 76.4041C475.697 76.1673 476.245 76.4214 476.635 76.9552C476.669 77.0069 476.708 77.0543 476.737 77.1102C476.767 77.1619 476.802 77.2222 476.832 77.2781C477.136 77.8766 477.144 78.5224 476.802 78.798C476.455 79.0778 475.847 78.841 475.427 78.2469C475.397 78.2081 475.371 78.165 475.346 78.122V78.1177C475.32 78.0746 475.294 78.0359 475.273 77.9971C474.93 77.347 474.964 76.6452 475.333 76.4041ZM477.23 23.9511C477.157 24.02 477.084 24.0889 476.994 24.1578C476.917 24.2223 476.836 24.2826 476.755 24.3386C476.039 24.8337 475.328 24.993 475.054 24.6572C474.75 24.2826 475.136 23.4043 475.954 22.7413C476.785 22.0739 477.705 21.8974 477.971 22.3021C478.215 22.6681 477.872 23.3526 477.23 23.9511ZM497.509 8.98113C497.466 8.98544 497.423 8.98974 497.38 8.99405C496.982 9.02849 496.588 9.06724 496.194 9.11029C495.821 9.14904 495.449 9.1964 495.076 9.24376C494.926 9.26529 494.78 9.28251 494.635 9.30404C494.335 9.34709 494.04 9.39015 493.748 9.43751C493.633 9.45473 493.513 9.47195 493.393 9.49778C493.183 9.52792 492.973 9.56236 492.763 9.60542C492.605 9.63125 492.446 9.66139 492.288 9.69153C492.207 9.70444 492.121 9.72166 492.04 9.73889C491.774 9.78625 491.513 9.84222 491.252 9.89819C491.174 9.91541 491.097 9.92833 491.02 9.94985C490.965 9.95846 490.913 9.97138 490.858 9.9843C490.571 10.0446 490.288 10.1092 490.005 10.1823C489.924 10.1996 489.843 10.2168 489.761 10.2426C489.192 10.3761 488.635 10.5268 488.082 10.6861C487.855 10.7507 487.628 10.8152 487.406 10.8841C487.294 10.9143 487.187 10.9487 487.08 10.9832C486.926 11.0305 486.776 11.0779 486.626 11.1252L486.305 11.2286C486.005 11.3276 485.71 11.4309 485.414 11.5342C485.389 11.5429 485.359 11.5558 485.329 11.5644C485.286 11.5816 485.239 11.5988 485.192 11.6161C484.939 11.7065 484.686 11.7969 484.438 11.8959C484.348 11.926 484.254 11.9648 484.164 11.9992C484.151 12.0035 484.138 12.0078 484.125 12.0122C483.8 12.1413 483.478 12.2705 483.157 12.4083C483.136 12.4126 483.11 12.4212 483.089 12.4341C483.076 12.4341 483.067 12.4427 483.054 12.447C482.716 12.5891 482.382 12.7312 482.052 12.8818C481.705 13.0368 481.363 13.1961 481.02 13.3598C481.016 13.3641 481.012 13.3684 481.007 13.3684C480.665 13.5363 480.322 13.7042 479.984 13.8807C479.705 14.0228 479.427 14.1692 479.157 14.3199C479.097 14.35 479.037 14.3844 478.982 14.4146C478.964 14.4232 478.952 14.4275 478.939 14.4404C478.733 14.5524 478.528 14.6686 478.326 14.7848C478.309 14.7935 478.292 14.8021 478.279 14.815C473.264 17.4887 470.57 20.3647 468.695 22.3667C468.656 22.4098 468.613 22.4528 468.575 22.4959C468.566 22.5002 468.562 22.5088 468.557 22.5131L468.519 22.5518C468.288 22.7972 468.069 23.0297 467.859 23.245C467.825 23.2924 467.787 23.344 467.752 23.3914C467.748 23.3957 467.748 23.4 467.744 23.4C467.684 23.4689 467.624 23.5378 467.568 23.6067C467.371 23.8262 467.178 24.0501 466.99 24.274C466.9 24.3773 466.81 24.485 466.729 24.5883C466.54 24.8122 466.356 25.0361 466.176 25.2643C466.146 25.2987 466.121 25.3331 466.095 25.3676C466.052 25.4193 466.014 25.4666 465.979 25.5183C465.817 25.7206 465.658 25.923 465.508 26.1296C465.418 26.2459 465.328 26.3621 465.243 26.4784C465.221 26.5042 465.2 26.5301 465.183 26.5602C464.613 27.15 464.498 27.1759 464.583 27.3868C447.949 50.9504 453.332 90.1169 480.738 103.584C486.828 106.581 494.01 108.303 502.28 108.303H519.102V89.0276H500.232C480.759 87.8953 471.868 70.6133 473.555 54.7263C473.564 54.6617 473.568 54.6014 473.577 54.5369C473.594 54.3819 473.611 54.2269 473.633 54.0762C473.633 54.0503 473.637 54.0288 473.641 54.0073C473.641 53.9987 473.641 53.9901 473.645 53.9858C473.74 53.5251 473.889 52.7372 474.091 51.3164V51.3121C474.116 51.1571 474.151 51.0064 474.185 50.8514C474.232 50.6361 474.283 50.4166 474.335 50.2013C474.348 50.1582 474.356 50.1152 474.365 50.0721C474.378 50.0205 474.391 49.9688 474.403 49.9171C474.416 49.8655 474.433 49.8095 474.446 49.7535C474.502 49.5426 474.558 49.3316 474.618 49.1206C474.618 49.1077 474.622 49.0948 474.626 49.0819C474.703 48.802 474.78 48.5265 474.866 48.2509C474.947 47.9883 475.029 47.7257 475.114 47.4673C475.123 47.4415 475.131 47.4157 475.14 47.3899C475.23 47.1272 475.32 46.8689 475.414 46.6106C475.5 46.3652 475.594 46.1197 475.688 45.8786C475.697 45.8528 475.705 45.8313 475.718 45.8055C475.821 45.5385 475.928 45.2716 476.044 45.0089C476.155 44.7463 476.271 44.4837 476.391 44.2211C476.489 44.0058 476.588 43.7905 476.695 43.5752C476.742 43.4719 476.797 43.3643 476.853 43.2566C476.883 43.1878 476.917 43.1189 476.956 43.05C476.973 43.0112 476.994 42.9725 477.016 42.9337C477.02 42.9208 477.029 42.9122 477.033 42.8993C478.451 40.3031 480.626 37.3281 484.065 34.1076C484.048 34.1205 484.027 34.1334 484.01 34.1507C484.039 34.1205 484.074 34.0947 484.104 34.0689C484.091 34.0818 484.078 34.0947 484.065 34.1076C488.656 30.3404 494.729 27.9982 502.28 27.9982H521.415V8.78308H502.28C500.648 8.78308 499.055 8.85197 497.509 8.98113ZM475.119 87.6628C474.956 87.8393 474.677 87.8609 474.356 87.7489C474.039 87.6327 473.68 87.3744 473.371 87.0127C470.605 83.7922 468.42 80.1111 466.806 76.1587C466.626 75.7153 466.386 75.3493 466.138 75.1168C465.885 74.8843 465.628 74.7853 465.414 74.88C464.99 75.0608 464.917 75.9822 465.298 76.9079C467.29 81.7945 470.125 86.2894 473.808 90.048C474.502 90.7584 474.853 91.6066 474.549 91.9769C474.395 92.162 474.108 92.1921 473.757 92.0802C473.41 91.9639 473.007 91.7056 472.647 91.3354C469.791 88.4206 467.427 85.0882 465.547 81.4716C465.311 81.0152 465.02 80.6407 464.737 80.4082C464.459 80.18 464.185 80.0939 463.979 80.2058C463.572 80.434 463.607 81.4156 464.108 82.3758C465.65 85.3379 467.504 88.1192 469.675 90.6508C470.373 91.4645 470.712 92.3816 470.39 92.7346C470.228 92.9068 469.924 92.9068 469.572 92.7518C469.217 92.5968 468.81 92.2912 468.446 91.8649C457.076 78.6171 454.039 58.6959 459.337 41.8832C459.341 41.8746 459.341 41.8703 459.345 41.8617C460.857 37.0697 463.05 32.5275 465.915 28.4675C466.236 28.0111 466.613 27.6667 466.947 27.4816C467.281 27.2964 467.581 27.2663 467.757 27.4256C468.108 27.7485 467.855 28.6871 467.238 29.5654C463.847 34.3616 461.44 39.8597 460.018 45.6505C459.757 46.7096 459.941 47.6697 460.386 47.7816C460.609 47.8376 460.857 47.6826 461.076 47.3812C461.294 47.0842 461.487 46.645 461.611 46.137C463.465 38.6154 467.037 31.6062 472.335 26.0694C472.695 25.6948 473.093 25.4322 473.44 25.3159C473.782 25.1954 474.074 25.2255 474.228 25.4063C474.536 25.7766 474.198 26.6248 473.513 27.3438C465.063 36.1742 461.174 48.8967 461.851 61.305C461.855 61.3394 461.851 61.3653 461.855 61.3997C461.928 62.6913 462.048 63.9787 462.219 65.2617C462.296 65.83 462.382 66.394 462.476 66.958C462.587 67.6124 462.712 68.2626 462.849 68.9084C462.956 69.4035 463.144 69.8254 463.367 70.101C463.59 70.3808 463.838 70.51 464.056 70.4411C464.498 70.299 464.66 69.4293 464.459 68.4865C464.33 67.8665 464.211 67.2422 464.104 66.6179C464.014 66.0754 463.928 65.5329 463.855 64.9861C463.812 64.6632 463.774 64.336 463.735 64.0088C463.731 63.9787 463.735 63.9485 463.731 63.9184C462.515 53.03 465.007 41.6249 471.208 32.8461C471.483 32.4586 471.812 32.1702 472.116 32.0281C472.42 31.8817 472.699 31.8774 472.874 32.0367C473.221 32.3596 473.054 33.1992 472.532 33.9397C467.483 41.091 464.999 50.0635 465.088 59.0059C465.136 63.8926 465.954 68.7749 467.538 73.3387C469.123 77.9067 471.478 82.1648 474.6 85.8029C475.191 86.4917 475.44 87.3141 475.119 87.6628ZM475.461 42.2492C475.401 42.3654 475.341 42.4817 475.286 42.6022C474.943 43.1662 474.425 43.4676 474.044 43.2652C473.658 43.0586 473.564 42.3654 473.851 41.6852C473.868 41.6464 473.889 41.599 473.911 41.556C473.937 41.5086 473.958 41.4656 473.984 41.4225C474.348 40.7896 474.934 40.4969 475.298 40.7423C475.663 40.9834 475.71 41.6292 475.461 42.2492ZM475.174 36.1269C471.547 41.2675 469.371 47.4372 468.656 53.8135C468.562 54.6574 468.883 55.3764 469.337 55.4152C469.564 55.441 469.782 55.2946 469.954 55.0449C470.125 54.7952 470.253 54.4421 470.296 54.0417C470.583 51.5144 471.106 49.0173 471.872 46.6106C471.997 46.2317 472.198 45.9217 472.425 45.7366C472.647 45.5514 472.896 45.4912 473.106 45.5859C473.53 45.7753 473.658 46.4943 473.44 47.209C470.832 55.3678 471.153 64.6331 474.403 72.5163C474.686 73.2138 474.613 73.95 474.206 74.1825C474.001 74.2945 473.752 74.2557 473.513 74.0921C473.273 73.9328 473.046 73.6444 472.892 73.2741C472.373 72.0083 471.924 70.7124 471.547 69.3906C471.435 69.0031 471.256 68.6802 471.046 68.4735C470.836 68.2626 470.596 68.1635 470.378 68.2324C469.932 68.3616 469.735 69.1323 469.967 69.946C471.38 74.8929 473.748 79.517 477.059 83.3789C477.598 84.0075 477.804 84.7782 477.478 85.1312C477.316 85.3034 477.05 85.3379 476.75 85.2432C476.45 85.1485 476.112 84.9246 475.83 84.5931C471.149 79.1381 468.275 72.2408 467.208 65.012C465.671 54.5885 467.885 43.4805 473.851 35.0333C474.104 34.6759 474.416 34.4219 474.703 34.3013C474.99 34.1765 475.256 34.1851 475.431 34.3444C475.782 34.663 475.65 35.4509 475.174 36.1269Z" fill="#D31176"/>
<path d="M678.342 89.4496H632.971V108.303H678.342V89.4496Z" fill="#D31176"/>
<path d="M669.845 8.86055C669.69 9.01555 669.596 9.23082 669.596 9.46762C669.596 9.94122 669.977 10.3244 670.448 10.3244H678.359V8.61084H670.448C670.213 8.61084 669.999 8.70556 669.845 8.86055Z" fill="#D31176"/>
<path d="M670.65 12.2877C670.496 12.4427 670.401 12.6579 670.401 12.8947C670.401 13.3683 670.783 13.7515 671.254 13.7515H678.359V12.038H671.254C671.018 12.038 670.804 12.1327 670.65 12.2877Z" fill="#D31176"/>
<path d="M668.804 15.7105C668.65 15.8655 668.556 16.0808 668.556 16.3176C668.556 16.7912 668.937 17.1744 669.408 17.1744H678.359V15.4608H669.408C669.172 15.4608 668.958 15.5555 668.804 15.7105Z" fill="#D31176"/>
<path d="M671.327 22.5604C671.172 22.7154 671.078 22.9307 671.078 23.1675C671.078 23.6411 671.459 24.0243 671.93 24.0243H678.359V22.3107H671.93C671.695 22.3107 671.481 22.4055 671.327 22.5604Z" fill="#D31176"/>
<path d="M673.554 26.0005C673.399 26.1555 673.305 26.3708 673.305 26.6076C673.305 27.0812 673.686 27.4644 674.157 27.4644H678.359V25.7508H674.157C673.922 25.7508 673.708 25.8455 673.554 26.0005Z" fill="#D31176"/>
<path d="M661.048 13.7515C661.519 13.7515 661.905 14.139 661.905 14.6126C661.905 15.0431 661.596 15.3962 661.189 15.4651H660.902C660.496 15.3962 660.187 15.0431 660.187 14.6126C660.187 14.139 660.573 13.7515 661.048 13.7515ZM660.958 24.0286H661.134C661.566 24.0716 661.905 24.4419 661.905 24.8854C661.905 25.3245 661.583 25.6862 661.164 25.7421C661.125 25.7464 661.087 25.7507 661.048 25.7507C661.01 25.7507 660.967 25.7464 660.928 25.7421C660.509 25.6862 660.187 25.3245 660.187 24.8854C660.187 24.4419 660.526 24.0716 660.958 24.0286ZM660.187 18.0354C660.187 17.7986 660.282 17.5834 660.436 17.4284C660.59 17.2734 660.804 17.1786 661.04 17.1786H667.327C667.562 17.1786 667.776 17.0839 667.93 16.9289C668.085 16.7739 668.179 16.5587 668.179 16.3219C668.179 15.8483 667.798 15.4651 667.327 15.4651H663.271C662.8 15.4651 662.419 15.0819 662.419 14.6083C662.419 14.3715 662.513 14.1562 662.667 14.0012C662.821 13.8462 663.035 13.7515 663.271 13.7515H668.77C669.005 13.7515 669.22 13.6568 669.374 13.5018C669.528 13.3468 669.622 13.1315 669.622 12.8947C669.622 12.4211 669.241 12.038 668.77 12.038H661.04C660.568 12.038 660.187 11.6548 660.187 11.1812C660.187 10.9444 660.282 10.7291 660.436 10.5741C660.59 10.4191 660.804 10.3244 661.04 10.3244H667.339C667.575 10.3244 667.789 10.2297 667.943 10.0747C668.097 9.91969 668.192 9.70442 668.192 9.46762C668.192 8.99402 667.81 8.61084 667.339 8.61084H646.722H638.941H632.954V27.4643H646.281V50.4983H646.29V80.5158C646.29 80.7956 646.384 81.054 646.538 81.2348C646.693 81.4199 646.907 81.5319 647.142 81.5319C647.613 81.5319 647.994 81.0755 647.994 80.5158V71.4399C647.994 70.8759 648.376 70.4239 648.847 70.4239C649.082 70.4239 649.296 70.5358 649.451 70.7209C649.605 70.9061 649.699 71.1601 649.699 71.4399V77.8852C649.699 78.165 649.793 78.4234 649.947 78.6042C650.102 78.7893 650.316 78.9012 650.551 78.9012C651.022 78.9012 651.403 78.4449 651.403 77.8852V67.578C651.403 67.014 651.785 66.5619 652.256 66.5619C652.487 66.5619 652.701 66.6738 652.855 66.859C653.009 67.0441 653.108 67.2981 653.108 67.578V88.2354H654.808V67.578C654.808 67.014 655.194 66.5619 655.66 66.5619C655.896 66.5619 656.11 66.6738 656.264 66.859C656.419 67.0441 656.513 67.2981 656.513 67.578V75.078C656.513 75.3579 656.607 75.6162 656.761 75.797C656.915 75.9822 657.129 76.0941 657.365 76.0941C657.836 76.0941 658.217 75.6377 658.217 75.078V70.2387C658.217 69.679 658.598 69.2227 659.07 69.2227C659.305 69.2227 659.519 69.3346 659.673 69.5197C659.828 69.7049 659.922 69.9589 659.922 70.2387V76.7959C659.922 77.0757 660.016 77.3341 660.17 77.5149C660.324 77.7 660.538 77.812 660.774 77.812C661.245 77.812 661.626 77.3556 661.626 76.7959V67.5737C661.626 67.0097 662.007 66.5576 662.479 66.5576C662.714 66.5576 662.928 66.6695 663.082 66.8547C663.237 67.0398 663.331 67.2938 663.331 67.5737V75.0866C663.331 75.3665 663.425 75.6248 663.579 75.8057C663.733 75.9908 663.948 76.1027 664.183 76.1027C664.654 76.1027 665.035 75.6463 665.035 75.0866V50.494V41.2158V27.4643H646.727V27.4557H671.892C672.127 27.4557 672.342 27.361 672.496 27.206C672.65 27.051 672.744 26.8357 672.744 26.5989C672.744 26.1253 672.363 25.7421 671.892 25.7421H664.282C663.81 25.7421 663.429 25.359 663.429 24.8854C663.429 24.6486 663.524 24.4333 663.678 24.2783C663.832 24.1233 664.046 24.0286 664.282 24.0286H669.686C669.922 24.0286 670.136 23.9339 670.29 23.7789C670.444 23.6239 670.539 23.4086 670.539 23.1718C670.539 22.6982 670.157 22.315 669.686 22.315H661.044C660.573 22.315 660.192 21.9318 660.192 21.4582C660.192 21.2257 660.286 21.0105 660.44 20.8555C660.594 20.7005 660.808 20.6015 661.044 20.6015H678.363V18.8922H661.044C660.568 18.8922 660.187 18.5047 660.187 18.0354ZM658.213 67.4144C658.282 66.9279 658.633 66.5619 659.061 66.5619C659.532 66.5619 659.917 67.0226 659.917 67.5866C659.917 68.1506 659.532 68.607 659.061 68.607C658.633 68.607 658.282 68.241 658.213 67.7545V67.4144ZM647.99 67.4445C648.046 66.9451 648.406 66.5619 648.842 66.5619C649.284 66.5619 649.652 66.9666 649.695 67.4833V67.6942C649.652 68.2109 649.284 68.6156 648.842 68.6156C648.406 68.6156 648.046 68.2324 647.99 67.733C647.986 67.6856 647.982 67.6426 647.982 67.5952C647.982 67.5478 647.986 67.4919 647.99 67.4445Z" fill="#D31176"/>
<path d="M664.782 78.0789C664.628 77.8938 664.414 77.7819 664.178 77.7819C663.707 77.7819 663.326 78.2382 663.326 78.7979V88.2354H665.031V78.7979C665.031 78.5181 664.936 78.2641 664.782 78.0789Z" fill="#D31176"/>
<path d="M661.374 79.039C661.219 78.8539 661.005 78.7419 660.77 78.7419C660.299 78.7419 659.917 79.1983 659.917 79.758V88.2354H661.622V79.758C661.622 79.4782 661.528 79.2242 661.374 79.039Z" fill="#D31176"/>
<path d="M657.969 76.8389C657.815 76.6538 657.601 76.5419 657.365 76.5419C656.894 76.5419 656.513 76.9982 656.513 77.558V88.2354H658.217V77.558C658.217 77.2781 658.123 77.0198 657.969 76.8389Z" fill="#D31176"/>
<path d="M651.155 79.8485C651.001 79.6633 650.787 79.5514 650.551 79.5514C650.08 79.5514 649.699 80.0078 649.699 80.5675V88.2354H651.403V80.5675C651.403 80.2876 651.309 80.0293 651.155 79.8485Z" fill="#D31176"/>
<path d="M647.733 82.5049C647.579 82.3198 647.365 82.2078 647.129 82.2078C646.658 82.2078 646.277 82.6642 646.277 83.2239V88.2354H647.981V83.2239C647.981 82.9441 647.887 82.6857 647.733 82.5049Z" fill="#D31176"/>
<path d="M801.311 97.8495C800.84 97.8495 800.458 98.3059 800.458 98.8656V108.303H802.163V98.8656C802.163 98.5857 802.069 98.3274 801.915 98.1466C801.76 97.9614 801.546 97.8495 801.311 97.8495Z" fill="#D31176"/>
<path d="M797.902 98.8096C797.43 98.8096 797.049 99.2659 797.049 99.8257V108.303H798.754V99.8257C798.754 99.5458 798.66 99.2875 798.505 99.1066C798.351 98.9215 798.137 98.8096 797.902 98.8096Z" fill="#D31176"/>
<path d="M794.497 96.6095C794.026 96.6095 793.645 97.0659 793.645 97.6256V108.303H795.349V97.6256C795.349 97.3457 795.255 97.0874 795.101 96.9066C794.946 96.7214 794.732 96.6095 794.497 96.6095Z" fill="#D31176"/>
<path d="M787.683 99.619C787.212 99.619 786.831 100.075 786.831 100.635V108.303H788.536V100.635C788.536 100.355 788.441 100.097 788.287 99.9161C788.133 99.7353 787.919 99.619 787.683 99.619Z" fill="#D31176"/>
<path d="M784.261 102.275C783.79 102.275 783.409 102.732 783.409 103.292V108.303H785.114V103.292C785.114 103.012 785.019 102.753 784.865 102.573C784.711 102.392 784.497 102.275 784.261 102.275Z" fill="#D31176"/>
<path d="M864.01 29.4706C863.954 29.9701 863.594 30.3533 863.157 30.3533C862.716 30.3533 862.348 29.9485 862.305 29.4362V29.2252C862.348 28.7086 862.716 28.3039 863.157 28.3039C863.594 28.3039 863.954 28.6871 864.01 29.1908C864.014 29.2338 864.018 29.2812 864.018 29.3286C864.018 29.3716 864.014 29.4233 864.01 29.4706ZM865.714 16.3994C865.714 16.1195 865.62 15.8612 865.466 15.6804C865.311 15.4952 865.097 15.3833 864.862 15.3833C864.391 15.3833 864.01 15.8353 864.01 16.3994V25.4752C864.01 26.0392 863.628 26.4913 863.157 26.4913C862.922 26.4913 862.708 26.3793 862.553 26.1942C862.399 26.0134 862.305 25.7551 862.305 25.4752V19.03C862.305 18.7501 862.211 18.4918 862.057 18.311C861.902 18.1258 861.688 18.0139 861.453 18.0139C860.982 18.0139 860.6 18.466 860.6 19.03V29.3372C860.6 29.9012 860.219 30.3533 859.748 30.3533C859.517 30.3533 859.303 30.2413 859.149 30.0562C858.994 29.8753 858.896 29.617 858.896 29.3372V8.67973H857.196V29.3372C857.196 29.9012 856.81 30.3533 856.344 30.3533C856.108 30.3533 855.894 30.2413 855.74 30.0562C855.585 29.8753 855.491 29.617 855.491 29.3372V21.8371C855.491 21.5573 855.397 21.3032 855.243 21.1181C855.089 20.933 854.875 20.821 854.639 20.821C854.168 20.821 853.787 21.2774 853.787 21.8371V26.6764C853.787 27.2361 853.406 27.6925 852.934 27.6925C852.699 27.6925 852.485 27.5806 852.331 27.3954C852.176 27.2146 852.082 26.9563 852.082 26.6764V20.1192C852.082 19.8351 851.988 19.5811 851.834 19.3959C851.68 19.2151 851.465 19.0989 851.23 19.0989C850.759 19.0989 850.378 19.5552 850.378 20.1192V29.3372C850.378 29.9012 849.997 30.3533 849.525 30.3533C849.29 30.3533 849.076 30.2413 848.922 30.0562C848.767 29.8753 848.673 29.617 848.673 29.3372V21.8242C848.673 21.5443 848.579 21.286 848.425 21.1052C848.271 20.9201 848.056 20.8081 847.821 20.8081C847.35 20.8081 846.969 21.2602 846.969 21.8242V75.7583L846.236 74.7207L802.159 12.3996L801.426 11.362L799.482 8.61084H783.405V18.4186V70.5659H783.413V100.583C783.413 100.863 783.508 101.117 783.662 101.302C783.816 101.488 784.03 101.599 784.266 101.599C784.737 101.599 785.118 101.143 785.118 100.583V91.5032C785.118 90.9435 785.499 90.4872 785.97 90.4872C786.206 90.4872 786.42 90.5991 786.574 90.7842C786.728 90.9694 786.822 91.2234 786.822 91.5032V97.9528C786.822 98.2326 786.917 98.4866 787.071 98.6718C787.225 98.8569 787.439 98.9689 787.675 98.9689C788.146 98.9689 788.527 98.5125 788.527 97.9528V87.6413C788.527 87.0816 788.908 86.6252 789.379 86.6252C789.61 86.6252 789.825 86.7371 789.979 86.9223C790.133 87.1074 790.231 87.3614 790.231 87.6413V108.303H791.932V87.6413C791.932 87.0816 792.317 86.6252 792.784 86.6252C793.019 86.6252 793.234 86.7371 793.388 86.9223C793.542 87.1074 793.636 87.3614 793.636 87.6413V95.1413C793.636 95.4212 793.73 95.6795 793.885 95.8603C794.039 96.0455 794.253 96.1574 794.488 96.1574C794.96 96.1574 795.341 95.7053 795.341 95.1413V90.3063C795.341 89.7423 795.722 89.286 796.193 89.286C796.428 89.286 796.643 89.4022 796.797 89.583C796.951 89.7682 797.045 90.0222 797.045 90.3063V96.8635C797.045 97.1434 797.139 97.4017 797.294 97.5825C797.448 97.7676 797.662 97.8796 797.897 97.8796C798.369 97.8796 798.75 97.4275 798.75 96.8635V87.6413C798.75 87.0816 799.131 86.6252 799.602 86.6252C799.838 86.6252 800.052 86.7371 800.206 86.9223C800.36 87.1074 800.454 87.3614 800.454 87.6413V95.1586C800.454 95.4384 800.548 95.6924 800.703 95.8776C800.857 96.0627 801.071 96.1746 801.307 96.1746C801.778 96.1746 802.159 95.7183 802.159 95.1586V44.9357L846.236 107.257L846.969 108.294V108.303H846.977H865.723V102.271V46.4168H865.714V16.3994ZM786.822 87.7575C786.78 88.2699 786.411 88.6746 785.97 88.6746C785.533 88.6746 785.174 88.2914 785.118 87.792C785.114 87.7446 785.109 87.7016 785.109 87.6542C785.109 87.6068 785.114 87.5552 785.118 87.5121C785.174 87.0084 785.533 86.6252 785.97 86.6252C786.411 86.6252 786.78 87.0299 786.822 87.5466V87.7575ZM796.189 88.6746C795.76 88.6746 795.409 88.3086 795.341 87.8221V87.4777C795.409 86.9955 795.76 86.6252 796.189 86.6252C796.66 86.6252 797.045 87.0859 797.045 87.6542C797.045 88.2139 796.66 88.6746 796.189 88.6746ZM853.787 29.5008C853.718 29.9873 853.367 30.3533 852.939 30.3533C852.468 30.3533 852.082 29.8926 852.082 29.3286C852.082 28.7645 852.468 28.3039 852.939 28.3039C853.367 28.3039 853.718 28.6741 853.787 29.1606V29.5008Z" fill="#D31176"/>
<path d="M847.821 19.1333C848.292 19.1333 848.673 18.677 848.673 18.1129V8.67975H846.969V18.1129C846.969 18.3971 847.063 18.6511 847.217 18.8363C847.371 19.0171 847.585 19.1333 847.821 19.1333Z" fill="#D31176"/>
<path d="M851.23 18.1689C851.701 18.1689 852.082 17.7168 852.082 17.1528V8.67975H850.378V17.1528C850.378 17.437 850.472 17.691 850.626 17.8761C850.78 18.057 850.995 18.1689 851.23 18.1689Z" fill="#D31176"/>
<path d="M854.634 20.3733C855.106 20.3733 855.487 19.9169 855.487 19.3572V8.67975H853.782V19.3572C853.782 19.6371 853.876 19.8911 854.031 20.0762C854.185 20.2614 854.399 20.3733 854.634 20.3733Z" fill="#D31176"/>
<path d="M861.448 17.3638C861.92 17.3638 862.301 16.9074 862.301 16.3477V8.67975H860.596V16.3477C860.596 16.6276 860.69 16.8859 860.845 17.0667C860.999 17.2519 861.213 17.3638 861.448 17.3638Z" fill="#D31176"/>
<path d="M864.018 8.67975V13.6913C864.018 13.9711 864.112 14.2294 864.266 14.4103C864.421 14.5954 864.635 14.7073 864.87 14.7073C865.341 14.7073 865.723 14.251 865.723 13.6913V8.67975H864.018Z" fill="#D31176"/>
<path d="M393.966 82.6427H389.876V84.3563H393.966C394.202 84.3563 394.416 84.2615 394.57 84.1065C394.724 83.9516 394.818 83.7363 394.818 83.4995C394.818 83.0259 394.437 82.6427 393.966 82.6427Z" fill="#D31176"/>
<path d="M389.876 80.9291H393.161C393.396 80.9291 393.611 80.8344 393.765 80.6794C393.919 80.5244 394.013 80.3092 394.013 80.0724C394.013 79.5988 393.632 79.2156 393.161 79.2156H389.876V80.9291Z" fill="#D31176"/>
<path d="M395.611 77.2566C395.765 77.1016 395.859 76.8863 395.859 76.6495C395.859 76.1759 395.478 75.7927 395.007 75.7927H389.876V77.5063H395.007C395.242 77.5063 395.456 77.4116 395.611 77.2566Z" fill="#D31176"/>
<path d="M389.876 70.6564H392.484C392.72 70.6564 392.934 70.5616 393.088 70.4067C393.242 70.2517 393.336 70.0364 393.336 69.7996C393.336 69.326 392.955 68.9428 392.484 68.9428H389.876V70.6564Z" fill="#D31176"/>
<path d="M391.109 66.3596C391.109 65.886 390.728 65.5028 390.257 65.5028H389.876V67.2164H390.257C390.493 67.2164 390.707 67.1216 390.861 66.9667C391.015 66.8117 391.109 66.5964 391.109 66.3596Z" fill="#D31176"/>
<path d="M403.251 67.225C403.289 67.2207 403.328 67.2164 403.366 67.2164C403.405 67.2164 403.448 67.2207 403.486 67.225C403.906 67.2809 404.227 67.6426 404.227 68.0818C404.227 68.5252 403.889 68.8955 403.456 68.9385H403.281C402.848 68.8955 402.51 68.5252 402.51 68.0818C402.51 67.6426 402.831 67.2809 403.251 67.225ZM391.923 65.7611C391.769 65.9161 391.675 66.1314 391.675 66.3682C391.675 66.8418 392.056 67.225 392.527 67.225H400.137C400.608 67.225 400.99 67.6082 400.99 68.0818C400.99 68.3186 400.895 68.5338 400.741 68.6888C400.587 68.8438 400.373 68.9385 400.137 68.9385H394.733C394.497 68.9385 394.283 69.0333 394.129 69.1882C393.975 69.3432 393.88 69.5585 393.88 69.7953C393.88 70.2689 394.261 70.6521 394.733 70.6521H403.375C403.846 70.6521 404.227 71.0353 404.227 71.5089C404.227 71.7414 404.133 71.9566 403.979 72.1116C403.825 72.2666 403.611 72.3657 403.375 72.3657H389.876V74.0749H403.375C403.846 74.0749 404.227 74.4624 404.227 74.9317C404.227 75.1685 404.133 75.3838 403.979 75.5388C403.825 75.6937 403.611 75.7885 403.375 75.7885H397.088C396.853 75.7885 396.638 75.8832 396.484 76.0382C396.33 76.1932 396.236 76.4085 396.236 76.6453C396.236 77.1188 396.617 77.502 397.088 77.502H401.144C401.615 77.502 401.996 77.8852 401.996 78.3588C401.996 78.5956 401.902 78.8109 401.748 78.9659C401.593 79.1209 401.379 79.2156 401.144 79.2156H395.645C395.409 79.2156 395.195 79.3103 395.041 79.4653C394.887 79.6203 394.793 79.8356 394.793 80.0724C394.793 80.546 395.174 80.9292 395.645 80.9292H403.375C403.846 80.9292 404.227 81.3123 404.227 81.7859C404.227 82.0227 404.133 82.238 403.979 82.393C403.825 82.548 403.611 82.6427 403.375 82.6427H397.075C396.84 82.6427 396.626 82.7374 396.471 82.8924C396.317 83.0474 396.223 83.2627 396.223 83.4995C396.223 83.9731 396.604 84.3563 397.075 84.3563H425.474V65.5114H392.527C392.291 65.5114 392.077 65.6061 391.923 65.7611ZM403.366 79.2156C402.895 79.2156 402.51 78.8281 402.51 78.3545C402.51 77.924 402.818 77.5709 403.225 77.502H403.512C403.919 77.5709 404.227 77.924 404.227 78.3545C404.227 78.8281 403.842 79.2156 403.366 79.2156Z" fill="#D31176"/>
<path d="M445.213 103.335C444.742 103.335 444.36 103.718 444.36 104.191V108.303H446.065V104.191C446.065 103.955 445.971 103.739 445.816 103.584C445.662 103.429 445.448 103.335 445.213 103.335Z" fill="#D31176"/>
<path d="M441.803 104.144C441.332 104.144 440.951 104.527 440.951 105.001V108.303H442.656V105.001C442.656 104.764 442.561 104.549 442.407 104.394C442.253 104.239 442.039 104.144 441.803 104.144Z" fill="#D31176"/>
<path d="M438.399 102.288C437.928 102.288 437.546 102.672 437.546 103.145V108.303H439.251V103.145C439.251 102.908 439.157 102.693 439.003 102.538C438.848 102.383 438.634 102.288 438.399 102.288Z" fill="#D31176"/>
<path d="M431.585 104.824C431.114 104.824 430.733 105.207 430.733 105.681V108.303H432.437V105.681C432.437 105.444 432.343 105.229 432.189 105.074C432.035 104.919 431.821 104.824 431.585 104.824Z" fill="#D31176"/>
<path d="M428.163 107.063C427.692 107.063 427.311 107.446 427.311 107.92V108.303H429.016V107.92C429.016 107.683 428.921 107.468 428.767 107.313C428.613 107.158 428.399 107.063 428.163 107.063Z" fill="#D31176"/>
<path d="M407.713 8.78308C386.527 8.78308 369.353 26.0522 369.353 47.3511V108.303H388.107V47.3511C388.111 36.467 396.887 27.6452 407.713 27.6452C418.544 27.6452 427.319 36.467 427.324 47.3511V72.512H427.315V105.634C427.315 105.87 427.409 106.086 427.564 106.241C427.718 106.396 427.932 106.49 428.167 106.49C428.638 106.49 429.02 106.107 429.02 105.634V97.9829C429.02 97.5093 429.401 97.1262 429.872 97.1262C430.107 97.1262 430.322 97.2209 430.476 97.3759C430.63 97.5309 430.724 97.7461 430.724 97.9829V103.416C430.724 103.653 430.818 103.868 430.973 104.023C431.127 104.178 431.341 104.273 431.576 104.273C432.048 104.273 432.429 103.89 432.429 103.416V94.728C432.429 94.2544 432.81 93.8713 433.281 93.8713C433.512 93.8713 433.726 93.966 433.881 94.121C434.035 94.276 434.133 94.4912 434.133 94.728V108.299H435.833V94.728C435.833 94.2544 436.219 93.8713 436.686 93.8713C436.921 93.8713 437.135 93.966 437.29 94.121C437.444 94.276 437.538 94.4912 437.538 94.728V101.048C437.538 101.285 437.632 101.5 437.786 101.655C437.941 101.81 438.155 101.905 438.39 101.905C438.861 101.905 439.242 101.522 439.242 101.048V96.9712C439.242 96.4976 439.624 96.1144 440.095 96.1144C440.33 96.1144 440.544 96.2091 440.699 96.3641C440.853 96.5191 440.947 96.7344 440.947 96.9712V102.499C440.947 102.736 441.041 102.951 441.195 103.106C441.35 103.261 441.564 103.356 441.799 103.356C442.27 103.356 442.651 102.973 442.651 102.499V94.728C442.651 94.2544 443.033 93.8713 443.504 93.8713C443.739 93.8713 443.953 93.966 444.108 94.121C444.262 94.276 444.356 94.4912 444.356 94.728V101.061C444.356 101.298 444.45 101.513 444.604 101.668C444.759 101.823 444.973 101.918 445.208 101.918C445.679 101.918 446.061 101.535 446.061 101.061V86.087H446.078V47.3468C446.078 26.0522 428.9 8.78308 407.713 8.78308Z" fill="#D31176"/>
<path d="M758.428 39.61C758.145 39.7908 757.597 39.4636 757.109 38.8866C757.105 38.878 757.1 38.8737 757.096 38.8694C756.981 38.7101 756.921 38.6326 756.801 38.4733C756.796 38.469 756.792 38.4604 756.788 38.4561C756.377 37.8189 756.218 37.1989 756.484 36.9923C756.775 36.7684 757.499 37.1774 758.047 37.9136C758.591 38.6455 758.741 39.4162 758.428 39.61ZM728.749 17.0797C706.016 17.0797 687.588 35.6059 687.588 58.4548C687.588 81.308 706.016 99.8343 728.749 99.8343C751.482 99.8343 769.906 81.308 769.906 58.4548C769.906 35.6059 751.482 17.0797 728.749 17.0797ZM755.259 44.6645C755.422 44.5827 755.64 44.6344 755.863 44.7894C756.081 44.9487 756.304 45.207 756.462 45.5342C761.91 60.4095 757.349 73.132 745.516 83.1163C739.571 86.6424 734.573 88.2355 728.573 88.2355C726.732 88.2355 724.796 88.0848 722.71 87.7963C722.359 87.7102 722.055 87.5466 721.858 87.3658C721.657 87.1849 721.558 86.9783 721.605 86.8017C721.695 86.4401 722.312 86.3152 722.984 86.4788C728.723 87.2667 731.948 87.129 737.558 85.7555C738.158 85.5489 738.531 85.0753 738.406 84.7265C738.342 84.55 738.175 84.4381 737.948 84.3907C737.721 84.3476 737.443 84.3735 737.156 84.4725C734.993 85.226 733.863 85.4886 731.554 85.7297C731.25 85.7598 730.963 85.7082 730.758 85.6005C730.548 85.4929 730.419 85.3293 730.406 85.1442C730.389 84.7739 730.839 84.451 731.413 84.3864C746.325 81.11 755.075 70.1957 755.023 54.7952C754.959 54.214 755.178 53.693 755.546 53.6327C755.726 53.6026 755.914 53.693 756.064 53.8738C756.214 54.0547 756.325 54.3216 756.36 54.6273C756.505 55.8888 756.535 56.5217 756.522 57.7789C756.518 58.0845 756.582 58.3601 756.698 58.5624C756.809 58.7648 756.972 58.894 757.156 58.8983C757.524 58.9112 757.858 58.4031 757.863 57.7659C758 53.9815 756.981 49.4392 755.242 46.0896C754.938 45.4653 754.929 44.8324 755.259 44.6645ZM726.222 85.015C726.256 84.6706 726.693 84.4424 727.224 84.4381C727.349 84.4467 727.413 84.451 727.537 84.4596C728.064 84.5414 728.462 84.8299 728.458 85.1786C728.449 85.5273 727.999 85.8115 727.421 85.8072C727.387 85.8072 727.344 85.8029 727.306 85.8029C727.267 85.7986 727.224 85.7943 727.186 85.79C726.612 85.7125 726.188 85.3637 726.222 85.015ZM755.49 50.3907V50.4037C755.494 50.408 755.494 50.4123 755.494 50.4166C755.494 50.4166 755.494 50.4209 755.499 50.4209C755.512 50.4639 755.52 50.5027 755.537 50.5587C755.67 51.1227 755.49 51.6264 755.152 51.7082C754.818 51.79 754.441 51.4585 754.252 50.9591C754.235 50.9117 754.218 50.8643 754.205 50.817C754.193 50.7696 754.18 50.718 754.167 50.6706C754.051 50.1496 754.184 49.6631 754.509 49.5512C754.839 49.4435 755.267 49.7837 755.469 50.3305V50.3348C755.482 50.3563 755.486 50.3735 755.49 50.3907ZM753.409 46.9206C753.726 46.7785 754.201 47.0799 754.471 47.618C754.488 47.6525 754.505 47.6912 754.522 47.73C754.539 47.7687 754.557 47.8032 754.565 47.8376C754.766 48.4016 754.655 48.9312 754.325 49.0431C754 49.1594 753.584 48.8623 753.332 48.3715C753.31 48.3284 753.289 48.2811 753.267 48.2337C753.246 48.1864 753.229 48.1347 753.212 48.0873C753.028 47.5707 753.096 47.0626 753.409 46.9206ZM728.749 35.9331C741.122 35.9331 751.152 46.0164 751.152 58.4548C751.152 70.8975 741.122 80.9808 728.749 80.9808C716.376 80.9808 706.342 70.8975 706.342 58.4548C706.342 46.0164 716.376 35.9331 728.749 35.9331ZM714.723 89.8112C714.573 90.1471 713.768 90.0911 712.941 89.6304C712.106 89.1654 711.58 88.4852 711.759 88.1666C711.926 87.8738 712.586 87.9642 713.297 88.3043C713.378 88.3431 713.46 88.3818 713.55 88.4335C713.627 88.4766 713.704 88.5239 713.781 88.5713C714.445 88.9975 714.86 89.5056 714.723 89.8112ZM758.951 40.4065C759.113 40.3117 759.349 40.3763 759.606 40.5571C759.863 40.7423 760.133 41.048 760.347 41.4268C762.377 44.9874 763.058 46.8431 763.859 50.5587C763.944 50.9504 764.09 51.2949 764.257 51.536C764.424 51.7728 764.617 51.9019 764.796 51.8718C765.165 51.8072 765.353 51.0925 765.178 50.2745C764.518 47.2349 764.008 45.715 762.565 42.7615C762.18 41.965 762.094 41.1944 762.424 41.0264C762.587 40.9446 762.826 41.0264 763.079 41.2417C763.327 41.4527 763.589 41.7928 763.79 42.2061C773.473 66.9064 758.244 91.7013 732.715 96.4847H732.698C728.171 96.9755 725.807 96.8635 721.062 95.7054C720.616 95.5977 720.231 95.4126 719.969 95.2145C719.708 95.0165 719.575 94.7969 719.618 94.6204C719.712 94.2587 720.479 94.1769 721.336 94.3836C725.995 95.1629 730.316 95.757 735.023 94.7797C735.824 94.629 736.402 94.1812 736.325 93.8153C736.291 93.6345 736.098 93.5053 735.824 93.4407C735.55 93.3761 735.186 93.3718 734.8 93.445C728.436 94.6247 722.894 93.4665 716.856 91.5162C716.44 91.344 716.089 91.1115 715.862 90.879C715.635 90.6465 715.537 90.414 715.61 90.2418C715.751 89.9017 716.509 89.9275 717.31 90.2547C730.089 94.2717 740.274 92.1491 750.826 83.9688C751.387 83.4693 751.627 82.8235 751.383 82.5523C751.259 82.4188 751.036 82.3973 750.783 82.4705C750.531 82.5437 750.24 82.7159 749.97 82.9527C741.88 90.1686 732.586 92.0544 722.162 90.4312C721.777 90.3365 721.447 90.1686 721.229 89.9835C721.006 89.794 720.899 89.5874 720.942 89.4065C721.036 89.0492 721.704 88.9329 722.436 89.1095C729.027 90.8962 736.192 89.6261 742.227 86.6683C753.494 79.7322 760.103 69.4724 760.103 57.6497C760.103 53.5854 759.323 49.3402 757.683 44.9788C757.349 44.3029 757.319 43.6183 757.644 43.4547C757.811 43.3686 758.038 43.4332 758.265 43.6054C758.497 43.7819 758.728 44.0704 758.903 44.4234C760.745 48.2036 761.276 50.1755 761.709 54.0762C761.751 54.4421 761.854 54.7651 761.996 54.9932C762.137 55.2257 762.312 55.3592 762.497 55.3463C762.869 55.3162 763.13 54.6746 763.045 53.9126C762.689 49.9645 761.199 45.4438 759.165 42.0554C758.749 41.3278 758.634 40.5916 758.951 40.4065Z" fill="#D31176"/>
<path d="M751.156 83.6545C751.096 83.7104 751.045 83.7664 750.993 83.8224C751.13 83.6975 751.194 83.6372 751.331 83.5124C751.272 83.5554 751.212 83.6071 751.156 83.6545Z" fill="#D31176"/>
<path d="M763.64 67.7072C763.82 67.7545 764.03 67.6469 764.218 67.423C764.411 67.2034 764.587 66.8633 764.69 66.4715C765.276 64.2843 765.49 63.1649 765.73 60.9089C765.966 58.6485 766 57.5076 765.859 55.2214C765.833 54.8081 765.726 54.4421 765.58 54.1881C765.435 53.9341 765.251 53.792 765.066 53.8135C764.694 53.8566 764.467 54.5325 764.518 55.3247C764.651 57.5248 764.621 58.627 764.394 60.8013C764.163 62.9798 763.957 64.0562 763.392 66.1658C763.191 66.9236 763.285 67.6081 763.64 67.7072Z" fill="#D31176"/>
<path d="M762.557 70.045C762.244 70.1483 761.889 70.6262 761.657 71.1644C756.728 80.9162 750.569 87.1117 740.702 91.7616C740.09 91.9984 739.567 92.3945 739.512 92.7346C739.469 93.0145 739.696 93.1867 740.064 93.2211C740.347 93.2513 740.719 93.1953 741.096 93.0489C751.375 88.2225 757.782 81.7773 762.908 71.6251C763.066 71.2505 763.139 70.8803 763.122 70.5918C763.101 70.1742 762.899 69.9331 762.557 70.045Z" fill="#D31176"/>
<path d="M762.531 58.8509C762.158 58.8423 761.833 59.4235 761.769 60.1469C760.912 65.2186 759.82 68.6845 757.649 73.343C756.895 74.7078 756.48 75.3708 755.584 76.6496C754.659 77.967 754.163 78.5999 753.1 79.8054C752.621 80.3522 752.428 80.9851 752.689 81.2435C752.822 81.3683 753.041 81.3769 753.298 81.2779C753.55 81.1832 753.837 80.9765 754.086 80.6924C755.19 79.4352 755.709 78.7764 756.672 77.4073C757.602 76.0769 758.034 75.3838 758.818 73.963C761.075 69.1151 762.218 65.5114 763.105 60.233C763.139 59.8541 763.092 59.5097 762.985 59.2599C762.878 59.0102 762.715 58.8552 762.531 58.8509Z" fill="#D31176"/>
<path d="M757.109 59.6173C756.741 59.5958 756.402 60.0694 756.325 60.6721C756.158 62.0068 756.034 62.6655 755.704 63.9701C754.745 68.0947 752.342 72.6713 749.533 75.8358C749.494 75.8789 749.464 75.909 749.422 75.9607C749.452 75.9349 749.477 75.9047 749.503 75.8746C746.972 78.8539 745.447 80.1671 742.115 82.1562C741.597 82.4662 741.297 82.9656 741.464 83.2971C741.546 83.4607 741.73 83.5555 741.965 83.5598C742.201 83.5684 742.484 83.4909 742.758 83.3273C749.987 78.0962 754.017 72.7618 757.006 64.2585C757.353 62.8937 757.486 62.1962 757.661 60.8013C757.7 60.4827 757.657 60.1899 757.554 59.9746C757.452 59.7594 757.293 59.6259 757.109 59.6173Z" fill="#D31176"/>
<path d="M540.94 9.55374C540.94 9.31694 540.845 9.10167 540.691 8.94668C540.537 8.79168 540.323 8.69696 540.087 8.69696H532.177V10.4105H540.087C540.558 10.4105 540.94 10.0273 540.94 9.55374Z" fill="#D31176"/>
<path d="M540.134 12.9809C540.134 12.7441 540.04 12.5288 539.886 12.3738C539.732 12.2188 539.518 12.1241 539.282 12.1241H532.177V13.8376H539.282C539.753 13.8376 540.134 13.4545 540.134 12.9809Z" fill="#D31176"/>
<path d="M541.98 16.4037C541.98 16.1669 541.886 15.9516 541.732 15.7966C541.578 15.6416 541.364 15.5469 541.128 15.5469H532.177V17.2604H541.128C541.599 17.2604 541.98 16.8773 541.98 16.4037Z" fill="#D31176"/>
<path d="M539.458 23.2536C539.458 23.0168 539.364 22.8016 539.209 22.6466C539.055 22.4916 538.841 22.3969 538.606 22.3969H532.177V24.1104H538.606C539.077 24.1104 539.458 23.7272 539.458 23.2536Z" fill="#D31176"/>
<path d="M536.379 25.8369H532.177V27.5504H536.379C536.85 27.5504 537.231 27.1672 537.231 26.6936C537.231 26.4568 537.137 26.2416 536.982 26.0866C536.828 25.9316 536.614 25.8369 536.379 25.8369Z" fill="#D31176"/>
<path d="M575.895 87.5681C575.964 87.0816 576.315 86.7156 576.743 86.7156C577.214 86.7156 577.6 87.1763 577.6 87.7403C577.6 88.3043 577.214 88.7607 576.743 88.7607C576.315 88.7607 575.964 88.3947 575.895 87.9082V87.5681ZM563.818 8.69696H543.201C542.73 8.69696 542.349 9.08014 542.349 9.55374C542.349 9.79054 542.443 10.0058 542.597 10.1608C542.751 10.3158 542.965 10.4105 543.201 10.4105H549.501C549.736 10.4105 549.951 10.5052 550.105 10.6602C550.259 10.8152 550.353 11.0305 550.353 11.2673C550.353 11.7409 549.972 12.1241 549.501 12.1241H541.771C541.3 12.1241 540.918 12.5073 540.918 12.9809C540.918 13.2177 541.013 13.4329 541.167 13.5879C541.321 13.7429 541.535 13.8376 541.771 13.8376H547.27C547.505 13.8376 547.719 13.9324 547.873 14.0874C548.028 14.2424 548.122 14.4576 548.122 14.6944C548.122 15.168 547.741 15.5512 547.27 15.5512H543.214C542.743 15.5512 542.362 15.9344 542.362 16.408C542.362 16.6448 542.456 16.8601 542.61 17.015C542.764 17.17 542.978 17.2648 543.214 17.2648H549.501C549.736 17.2648 549.951 17.3595 550.105 17.5145C550.259 17.6695 550.353 17.8847 550.353 18.1215C550.353 18.5908 549.972 18.9783 549.501 18.9783H532.182V20.6876H549.501C549.736 20.6876 549.951 20.7866 550.105 20.9416C550.259 21.0966 550.353 21.3119 550.353 21.5444C550.353 22.018 549.972 22.4011 549.501 22.4011H540.858C540.387 22.4011 540.006 22.7843 540.006 23.2579C540.006 23.4947 540.1 23.71 540.255 23.865C540.409 24.02 540.623 24.1147 540.858 24.1147H546.263C546.499 24.1147 546.713 24.2094 546.867 24.3644C547.021 24.5194 547.115 24.7347 547.115 24.9715C547.115 25.4451 546.734 25.8283 546.263 25.8283H538.653C538.182 25.8283 537.801 26.2114 537.801 26.685C537.801 26.9218 537.895 27.1371 538.049 27.2921C538.203 27.4471 538.417 27.5418 538.653 27.5418H563.818V27.5504H563.964V70.6521H563.972V100.67C563.972 100.949 564.066 101.208 564.221 101.389C564.375 101.574 564.589 101.686 564.824 101.686C565.295 101.686 565.677 101.229 565.677 100.67V91.5937C565.677 91.0297 566.058 90.5776 566.529 90.5776C566.764 90.5776 566.979 90.6895 567.133 90.8747C567.287 91.0598 567.381 91.3138 567.381 91.5937V98.0389C567.381 98.3188 567.475 98.5771 567.63 98.7579C567.784 98.943 567.998 99.055 568.233 99.055C568.705 99.055 569.086 98.5986 569.086 98.0389V87.7317C569.086 87.1677 569.467 86.7156 569.938 86.7156C570.169 86.7156 570.383 86.8276 570.537 87.0127C570.692 87.1978 570.79 87.4519 570.79 87.7317V108.389H572.49V87.7317C572.49 87.1677 572.876 86.7156 573.343 86.7156C573.578 86.7156 573.792 86.8276 573.947 87.0127C574.101 87.1978 574.195 87.4519 574.195 87.7317V95.2318C574.195 95.5116 574.289 95.7699 574.443 95.9508C574.598 96.1359 574.812 96.2478 575.047 96.2478C575.518 96.2478 575.899 95.7915 575.899 95.2318V90.3925C575.899 89.8284 576.281 89.3764 576.752 89.3764C576.987 89.3764 577.201 89.4883 577.356 89.6735C577.51 89.8586 577.604 90.1126 577.604 90.3925V96.9496C577.604 97.2295 577.698 97.4878 577.852 97.6686C578.007 97.8538 578.221 97.9657 578.456 97.9657C578.927 97.9657 579.309 97.5093 579.309 96.9496V87.7274C579.309 87.1634 579.69 86.7113 580.161 86.7113C580.396 86.7113 580.61 86.8233 580.765 87.0084C580.919 87.1935 581.013 87.4475 581.013 87.7274V95.2404C581.013 95.5202 581.107 95.7785 581.261 95.9594C581.416 96.1445 581.63 96.2565 581.865 96.2565C582.336 96.2565 582.718 95.8001 582.718 95.2404V70.6478V61.3653V27.5504H614.499V8.69696H571.604H563.818ZM549.608 25.8283C549.569 25.8326 549.527 25.8369 549.488 25.8369C549.45 25.8369 549.411 25.8326 549.372 25.8283C548.953 25.7723 548.632 25.4106 548.632 24.9715C548.632 24.528 548.97 24.1578 549.402 24.1147H549.578C550.011 24.1578 550.349 24.528 550.349 24.9715C550.349 25.4106 550.028 25.7723 549.608 25.8283ZM549.634 15.5512H549.347C548.94 15.4823 548.632 15.1293 548.632 14.6987C548.632 14.2251 549.017 13.8376 549.488 13.8376C549.963 13.8376 550.349 14.2251 550.349 14.6987C550.349 15.1293 550.041 15.4823 549.634 15.5512ZM567.377 87.8436C567.334 88.3603 566.966 88.765 566.525 88.765C566.088 88.765 565.728 88.3818 565.672 87.8824C565.668 87.835 565.664 87.792 565.664 87.7446C565.664 87.6973 565.668 87.6456 565.672 87.6025C565.728 87.1031 566.088 86.7199 566.525 86.7199C566.966 86.7199 567.334 87.1246 567.377 87.6413V87.8436Z" fill="#D31176"/>
<path d="M581.861 97.9399C581.39 97.9399 581.009 98.3963 581.009 98.956V108.393H582.713V98.956C582.713 98.6761 582.619 98.4178 582.465 98.237C582.311 98.0518 582.097 97.9399 581.861 97.9399Z" fill="#D31176"/>
<path d="M578.452 98.9C577.981 98.9 577.6 99.3563 577.6 99.916V108.393H579.304V99.916C579.304 99.6362 579.21 99.3779 579.056 99.197C578.902 99.0119 578.687 98.9 578.452 98.9Z" fill="#D31176"/>
<path d="M575.047 96.6956C574.576 96.6956 574.195 97.152 574.195 97.7117V108.389H575.899V97.7117C575.899 97.4318 575.805 97.1735 575.651 96.9927C575.497 96.8119 575.283 96.6956 575.047 96.6956Z" fill="#D31176"/>
<path d="M568.233 99.7051C567.762 99.7051 567.381 100.161 567.381 100.721V108.389H569.085V100.721C569.085 100.441 568.991 100.183 568.837 100.002C568.683 99.817 568.469 99.7051 568.233 99.7051Z" fill="#D31176"/>
<path d="M564.811 102.362C564.34 102.362 563.959 102.818 563.959 103.378V108.389H565.664V103.378C565.664 103.098 565.569 102.839 565.415 102.659C565.261 102.474 565.047 102.362 564.811 102.362Z" fill="#D31176"/>
<path d="M915.531 4.37433H887.175V85.1441H915.531V4.37433Z" fill="#D31176"/>
<path d="M911.248 8.67976V80.8387H891.457V8.67976H911.248ZM919.813 0.0689087H911.248H891.457H882.892V8.67976V80.8387V89.4496H891.457H911.248H919.813V80.8387V8.67976V0.0689087Z" fill="white"/>
<path d="M915.531 87.848H887.175V112.608H915.531V87.848Z" fill="#D31176"/>
<path d="M911.248 92.1534V108.303H891.457V92.1534H911.248ZM919.813 83.5425H911.248H891.457H882.892V92.1534V108.303V116.914H891.457H911.248H919.813V108.303V92.1534V83.5425Z" fill="white"/>
</g>
<defs>
<clipPath id="clip0_430_220">
<rect width="965" height="117" fill="white"/>
</clipPath>
</defs>
</svg>
