<svg width="1354" height="606" viewBox="0 0 1354 606" fill="none" xmlns="http://www.w3.org/2000/svg">
<path d="M5 5H1348.5V601H5V5Z" fill="#FFF3D2"/>
<path d="M5 5V0C2.23858 0 0 2.23858 0 5L5 5ZM1348.5 5H1353.5C1353.5 2.23858 1351.26 0 1348.5 0V5ZM1348.5 601V606C1351.26 606 1353.5 603.761 1353.5 601H1348.5ZM5 601H0C0 603.761 2.23858 606 5 606L5 601ZM5 10H1348.5V0H5V10ZM1343.5 5V601H1353.5V5H1343.5ZM1348.5 596H5V606H1348.5V596ZM10 601V5H0V601H10Z" fill="black"/>
<path d="M110.693 109.853C118.307 116.675 125.656 123.98 132.711 131.752C144.4 130.354 156.124 129.636 167.816 129.593C160.416 138.394 153.537 147.079 147.134 155.602C150.905 165.473 154.534 175.503 158.021 185.691C148.299 181.529 138.247 178.11 127.948 175.476C120.018 181.855 112.482 188.25 105.303 194.623C103.817 185.481 102.447 176.189 101.195 166.749C91.5316 162.861 81.6001 159.732 71.4811 157.385C81.5484 151.439 91.9199 145.875 102.578 140.714C104.95 130.692 107.647 120.399 110.693 109.853Z" fill="#FF2626"/>
<path d="M129.594 106.681C135.047 111.567 140.31 116.799 145.364 122.366C153.736 121.365 162.133 120.85 170.507 120.819C165.207 127.123 160.28 133.344 155.694 139.448C158.395 146.518 160.994 153.702 163.492 160.999C156.528 158.018 149.329 155.569 141.952 153.683C136.273 158.251 130.875 162.832 125.733 167.396C124.669 160.849 123.688 154.193 122.791 147.432C115.87 144.647 108.756 142.406 101.509 140.725C108.719 136.466 116.148 132.481 123.782 128.784C125.481 121.607 127.412 114.234 129.594 106.681Z" stroke="black" stroke-width="10"/>
</svg>
