<svg width="756" height="95" viewBox="0 0 756 95" fill="none" xmlns="http://www.w3.org/2000/svg">
<path d="M224.679 60.9693C221.806 60.9693 219.416 59.1197 218.438 56.136C217.589 53.5827 216.042 50.8143 214.408 48.924C212.826 47.1675 212.424 44.8352 213.361 42.7297C214.396 40.4091 216.833 38.8503 219.427 38.8503C221.457 38.8503 223.376 39.7983 224.819 41.5257C227.192 44.4164 229.402 48.0632 230.897 51.5413C231.81 53.7922 231.618 56.1128 230.385 57.9449C229.117 59.8119 226.936 60.9693 224.679 60.9693Z" fill="black"/>
<path d="M219.421 41.1768C220.637 41.1768 221.928 41.7061 223.027 43.0205C225.22 45.6902 227.319 49.1217 228.75 52.4602C230.181 55.9848 227.43 58.6487 224.679 58.6487C223.039 58.6487 221.393 57.7006 220.648 55.4207C219.694 52.5591 217.979 49.5056 216.164 47.4117C213.692 44.6607 216.304 41.1768 219.421 41.1768ZM219.421 36.5238C215.92 36.5238 212.628 38.6409 211.226 41.7875C209.912 44.7421 210.447 47.9817 212.663 50.4769C214.082 52.1287 215.478 54.6413 216.228 56.8922C217.525 60.8414 220.765 63.3016 224.673 63.3016C227.697 63.3016 230.617 61.7487 232.304 59.2478C233.979 56.7584 234.252 53.6467 233.06 50.7037L233.043 50.663L233.025 50.6223C231.449 46.9464 229.117 43.0962 226.621 40.0601L226.61 40.0426L226.598 40.0252C224.702 37.7685 222.155 36.5238 219.421 36.5238Z" fill="black"/>
<path d="M211.68 65.5467C209.179 65.5467 207.033 64.1508 205.794 61.7138C204.479 59.0791 202.612 56.5432 200.914 55.0775C198.971 53.4199 198.291 50.9422 199.146 48.6274C200.082 46.0915 202.63 44.3234 205.34 44.3234C207.038 44.3234 208.679 44.9864 210.086 46.2427C213.087 48.9124 215.833 52.216 217.607 55.3044C218.886 57.4622 218.944 59.905 217.758 61.993C216.525 64.1508 214.14 65.5467 211.68 65.5467Z" fill="black"/>
<path d="M205.334 46.6441C206.37 46.6441 207.48 47.0338 208.533 47.976C211.11 50.2618 213.779 53.3152 215.588 56.4618C217.653 59.9515 214.693 63.2144 211.674 63.2144C210.237 63.2144 208.783 62.4699 207.864 60.6553C206.532 57.9856 204.526 55.1241 202.426 53.3152C199.437 50.7619 201.972 46.6441 205.334 46.6441ZM205.334 41.9911C201.606 41.9911 198.238 44.335 196.953 47.8189C195.755 51.076 196.691 54.5367 199.402 56.8515C200.862 58.1136 202.513 60.3761 203.694 62.7375L203.7 62.7491L203.706 62.7607C205.328 65.9538 208.306 67.8616 211.668 67.8616C214.948 67.8616 218.13 66.0062 219.77 63.133C221.352 60.3528 221.288 56.9853 219.601 54.112C217.676 50.7735 214.838 47.3595 211.616 44.4921C209.795 42.8635 207.614 41.9911 205.334 41.9911Z" fill="black"/>
<path d="M209.807 91.2776C207.155 91.2776 204.927 89.8526 203.84 87.4679C202.548 84.4609 203.38 80.378 207.428 78.6448C222.085 72.5029 232.269 60.2714 236.12 44.1954C236.922 40.9441 239.417 38.9317 242.64 38.9317C244.995 38.9317 247.293 40.0717 248.642 41.9038C249.91 43.6254 250.236 45.76 249.567 47.912C243.407 68.3443 231.606 82.2625 213.495 90.4401C212.221 90.9926 210.988 91.2776 209.807 91.2776Z" fill="black"/>
<path d="M242.639 41.2524C245.483 41.2524 248.438 43.6894 247.345 47.214C241.906 65.2384 231.327 79.8255 212.54 88.3172C211.546 88.7592 210.627 88.9511 209.807 88.9511C207.963 88.9511 206.62 87.9566 205.956 86.5025C205.096 84.5017 205.671 81.9251 208.341 80.7793C224.266 74.1023 234.566 60.6611 238.382 44.7305C238.981 42.2877 240.79 41.2524 242.639 41.2524ZM242.639 36.5994C238.359 36.5994 234.91 39.3563 233.863 43.6196L233.857 43.6312L233.851 43.6428C230.181 58.9744 220.48 70.6359 206.538 76.4812L206.521 76.487L206.503 76.4928C201.734 78.5343 199.658 83.6235 201.676 88.323L201.693 88.3695L201.716 88.416C203.171 91.6091 206.265 93.5924 209.801 93.5924C211.307 93.5924 212.86 93.2435 214.413 92.563L214.431 92.5571L214.448 92.5514C224.115 88.1834 232.222 82.0357 238.551 74.2768C244.326 67.1869 248.781 58.544 251.788 48.5692C252.661 45.7426 252.195 42.8053 250.509 40.5137C248.74 38.1 245.722 36.5994 242.639 36.5994Z" fill="black"/>
<path d="M395.385 88.736C391.459 88.736 388.312 86.1478 387.742 82.4429C387.277 79.4301 388.789 75.7659 393.221 74.37C413.781 67.8558 425.646 50.634 429.555 37.8616C429.968 36.4774 429.735 36.0295 429.735 36.0295C429.689 35.983 429.38 35.8376 428.665 35.8143C427.019 35.762 425.105 35.7387 422.965 35.7387C414.636 35.7387 403.9 36.1168 393.518 36.4774L390.662 36.5762C390.563 36.582 390.476 36.582 390.394 36.582C385.858 36.582 383.328 33.0051 383.258 29.6375C383.188 26.235 385.579 22.6871 390.295 22.4893C398.235 22.1287 409.303 21.9194 420.65 21.9194C424.983 21.9194 429.235 21.9485 432.957 22.0066C437.802 22.0648 441.961 24.0656 444.345 27.4855C446.561 30.6612 446.974 34.6917 445.509 38.8387C441.56 50.128 436.511 59.2711 430.09 66.7856C422.064 76.173 411.943 83.1175 399.136 88.0089C397.851 88.4917 396.594 88.736 395.385 88.736Z" fill="black"/>
<path d="M420.65 24.2342C425.065 24.2342 429.253 24.2633 432.923 24.3215C440.646 24.4145 446.085 30.2365 443.316 38.0535C436.639 57.1249 425.007 75.6262 398.304 85.8279C397.246 86.2234 396.269 86.4037 395.385 86.4037C389.464 86.4037 387.614 78.5692 393.919 76.5801C414.991 69.9031 427.484 52.5476 431.777 38.5305C432.539 35.9539 432.254 33.5692 428.723 33.4762C426.984 33.4238 425.053 33.4006 422.965 33.4006C413.822 33.4006 401.759 33.8543 390.581 34.2381C390.517 34.2381 390.453 34.2439 390.389 34.2439C384.27 34.2439 383.683 25.0834 390.389 24.7984C399.165 24.4029 410.489 24.2342 420.65 24.2342ZM420.65 19.5812C409.268 19.5812 398.159 19.7906 390.179 20.1512C383.985 20.4129 380.833 25.1415 380.931 29.6723C381.042 34.9302 385.108 38.8969 390.394 38.8969C390.505 38.8969 390.615 38.8969 390.726 38.8911L393.605 38.7922C403.969 38.4316 414.683 38.0535 422.971 38.0535C424.443 38.0535 425.804 38.0652 427.042 38.0885C424.826 44.8004 420.825 51.5471 415.707 57.1772C409.256 64.2788 401.451 69.3098 392.523 72.1423C387.556 73.7127 384.712 77.9876 385.451 82.786C386.189 87.5727 390.371 91.0508 395.391 91.0508C396.88 91.0508 398.415 90.76 399.95 90.1784C431.05 78.2959 442.101 55.6127 447.713 39.5832C449.429 34.7267 448.917 29.9457 446.259 26.1361C443.438 22.0939 438.599 19.7325 432.981 19.6627C429.264 19.6161 424.995 19.5812 420.65 19.5812Z" fill="black"/>
<path d="M497.942 82.7743C494.766 82.7743 491.922 81.6518 489.939 79.6045C488.415 78.0341 486.629 75.1202 486.769 70.1241C487.048 59.5618 487.252 36.3668 486.961 29.8585C486.85 26.9969 487.944 25.2288 488.886 24.2516C490.171 22.9139 491.969 22.181 493.958 22.181C497.57 22.181 501.484 24.746 501.624 29.492C501.821 36.4308 501.513 58.0961 501.24 65.0291C501.228 65.3199 501.292 65.4537 501.309 65.4711C501.321 65.4827 501.408 65.5351 501.6 65.5351C501.862 65.5351 502.17 65.442 502.479 65.2792C517.24 57.6076 529.966 44.3582 536.038 34.6219C537.591 32.1442 539.871 30.7832 542.459 30.7832C545.193 30.7832 547.822 32.3768 549.165 34.8371C550.509 37.2974 550.352 40.1473 548.741 42.6425C541.214 54.4029 521.724 72.6774 504.718 81.1342C502.548 82.216 500.21 82.7743 497.942 82.7743Z" fill="black"/>
<path d="M493.952 24.5133C496.517 24.5133 499.198 26.3106 499.291 29.5676C499.483 36.3377 499.198 57.7006 498.907 64.9476C498.837 66.8379 500.065 67.8674 501.594 67.8674C502.228 67.8674 502.909 67.6928 503.578 67.3322C518.263 59.7014 531.519 46.2601 538.004 35.8607C539.225 33.9181 540.865 33.1213 542.453 33.1213C546.082 33.1213 549.427 37.2799 546.775 41.392C539.144 53.3094 519.787 71.0488 503.671 79.0577C501.844 79.9592 499.844 80.442 497.93 80.442C493.143 80.442 488.874 77.4059 489.078 70.188C489.363 59.3175 489.555 36.1457 489.27 29.7537C489.142 26.1651 491.491 24.5133 493.952 24.5133ZM493.952 19.8604C491.329 19.8604 488.932 20.8491 487.205 22.6463C485.954 23.9492 484.489 26.2699 484.628 29.9399C484.908 36.2214 484.71 59.5502 484.436 70.0717C484.274 75.8705 486.426 79.3427 488.264 81.2272C490.689 83.7223 494.126 85.1008 497.936 85.1008C500.559 85.1008 503.252 84.4552 505.73 83.2338C523.097 74.6026 542.994 55.9267 550.695 43.8988C552.742 40.7231 552.934 36.9193 551.201 33.7321C549.456 30.5332 546.024 28.4684 542.453 28.4684C539.08 28.4684 536.02 30.2597 534.06 33.3889C528.64 42.0783 516.996 54.4203 503.653 61.993C503.897 53.0709 504.113 35.7096 503.932 29.4397C503.77 23.4432 498.727 19.8604 493.952 19.8604Z" fill="black"/>
<path d="M576.251 55.258C571.407 55.258 568.871 51.7856 568.871 48.354C568.871 44.8178 571.633 41.1652 576.251 41.1652H636.135C640.858 41.1652 643.324 44.7364 643.324 48.261C643.324 51.6519 640.805 55.258 636.135 55.258H576.251Z" fill="black"/>
<path d="M636.141 43.4917C639.38 43.4917 641.003 45.8763 641.003 48.261C641.003 50.5526 639.38 52.9314 636.141 52.9314H576.257C572.826 52.9314 571.203 50.6398 571.203 48.354C571.203 45.9693 573.017 43.4917 576.257 43.4917H636.141ZM636.141 38.8387H576.257C570.179 38.8387 566.55 43.6778 566.55 48.354C566.55 50.7794 567.457 53.0477 569.109 54.7461C570.889 56.5782 573.43 57.5844 576.257 57.5844H636.141C642.323 57.5844 645.656 52.7802 645.656 48.261C645.656 42.8926 641.567 38.8387 636.141 38.8387Z" fill="black"/>
<path d="M729.026 33.7262C727.101 33.7262 725.397 32.7142 724.35 30.946L724.321 30.8937C723.594 29.5851 719.883 25.7347 718.388 24.7401C716.091 23.2395 715.114 20.9713 715.794 18.6797C716.515 16.2601 719.028 14.5036 721.773 14.5036C722.965 14.5036 724.164 14.8351 725.24 15.4575C727.717 16.8999 732.306 20.4303 734.301 23.4256C735.709 25.6009 735.825 28.067 734.656 30.2248C733.487 32.3477 731.283 33.7262 729.026 33.7262Z" fill="black"/>
<path d="M721.773 16.8243C722.517 16.8243 723.303 17.0162 724.065 17.4641C726.356 18.796 730.643 22.1345 732.358 24.7111C734.505 28.0322 731.678 31.3997 729.02 31.3997C728.014 31.3997 727.031 30.917 726.35 29.7654C725.397 28.0496 721.389 23.9492 719.673 22.8034C716.108 20.4711 718.533 16.8243 721.773 16.8243ZM721.773 12.1713C717.963 12.1713 714.584 14.5734 713.566 18.0108C712.595 21.2853 713.95 24.6064 717.114 26.6828C718.289 27.4738 721.668 30.9577 722.296 32.0337L722.326 32.086L722.355 32.1326C723.826 34.6277 726.263 36.0527 729.032 36.0527C732.126 36.0527 735.139 34.1973 736.697 31.33C738.268 28.4451 738.111 25.0251 736.273 22.1868L736.255 22.1578L736.238 22.1287C734.016 18.7902 729.154 15.0388 726.414 13.4451C724.978 12.6076 723.372 12.1713 721.773 12.1713Z" fill="black"/>
<path d="M740.449 28.1834C738.616 28.1834 736.965 27.2295 735.918 25.5661C735.063 24.2458 731.224 20.4187 729.764 19.5696C726.874 17.848 726.397 15.2714 726.903 13.4277C727.601 10.9034 730.136 9.07135 732.94 9.07135C734.033 9.07135 735.098 9.33889 736.11 9.86817C738.558 11.1419 743.316 14.6374 745.491 17.6153C747.003 19.7731 747.207 22.3614 746.055 24.5716C744.915 26.7643 742.717 28.1834 740.449 28.1834Z" fill="black"/>
<path d="M732.94 11.3978C733.615 11.3978 734.324 11.5607 735.034 11.9271C737.419 13.166 741.804 16.5044 743.619 18.9821C745.939 22.2857 743.124 25.8511 740.455 25.8511C739.507 25.8511 738.57 25.3974 737.895 24.3214C736.849 22.6987 732.748 18.5983 730.933 17.5514C727.205 15.3354 729.607 11.3978 732.94 11.3978ZM732.94 6.74487C729.107 6.74487 725.629 9.29815 724.658 12.8111C723.733 16.1613 725.263 19.5929 728.549 21.5529L728.572 21.5704L728.595 21.582C729.741 22.2567 733.266 25.7696 733.97 26.8398C735.453 29.1721 737.808 30.5099 740.443 30.5099C743.566 30.5099 746.579 28.6022 748.115 25.6475C749.673 22.6464 749.412 19.1566 747.417 16.3183L747.393 16.2835L747.37 16.2485C744.956 12.9449 739.902 9.22255 737.18 7.80921C735.842 7.09964 734.412 6.74487 732.94 6.74487Z" fill="black"/>
<path d="M668.63 85.4556C665.099 85.4556 662.232 83.0477 661.65 79.5929C661.139 76.5568 662.639 72.7938 667.135 71.235C685.479 64.8837 699.305 48.9589 705.656 37.1346C705.272 37.1288 704.876 37.1288 704.458 37.1288C700.037 37.1288 693.401 37.3149 686.986 37.4952C684.025 37.5766 681.175 37.658 678.727 37.7162C678.669 37.7162 678.581 37.722 678.5 37.722C675.307 37.722 672.021 35.4188 671.916 31.0159C671.835 27.596 674.097 24.0307 678.564 23.8213C685.77 23.5246 700.113 23.3443 709.285 23.3443C714.851 23.3443 719.399 25.4556 721.447 28.9919C723.128 31.8884 722.976 35.3548 721.028 38.7515C717.812 44.3351 714.845 48.9706 711.809 53.1466C719.272 57.7589 730.328 65.2152 734.725 71.328C736.528 73.8522 736.743 77.0221 735.307 79.8139C733.946 82.4603 731.352 84.1702 728.7 84.1702C726.635 84.1702 724.681 83.1466 723.197 81.2854C719.272 76.3998 710.739 68.5712 703.114 63.6623C694.041 73.3695 683.769 80.3199 671.771 84.874C670.7 85.2579 669.648 85.4556 668.63 85.4556Z" fill="black"/>
<path d="M709.285 25.6592C717.87 25.6592 722.732 31.0973 719.01 37.5766C715.77 43.2009 712.333 48.639 708.424 53.7864C716.34 58.5557 728.449 66.5646 732.835 72.6658C735.685 76.6615 732.41 81.8263 728.7 81.8263C727.449 81.8263 726.146 81.2389 725.018 79.8197C720.347 74.0035 710.524 65.3257 702.701 60.6494C694.308 69.9961 684.008 77.72 670.945 82.6754C670.113 82.9837 669.339 83.1175 668.624 83.1175C663.354 83.1175 661.592 75.6088 667.891 73.4219C685.247 67.4137 700.311 52.1578 707.849 37.9488C708.709 36.3261 708.325 34.8023 706.226 34.8023C705.691 34.7964 705.097 34.7906 704.452 34.7906C697.903 34.7906 686.305 35.2036 678.669 35.3722C678.61 35.3722 678.552 35.3781 678.494 35.3781C672.94 35.3781 672.631 26.4094 678.669 26.1244C685.636 25.8511 699.653 25.6592 709.285 25.6592ZM709.285 21.0062C700.095 21.0062 685.706 21.1923 678.482 21.4889C673.277 21.7332 669.467 25.8511 669.589 31.0624C669.712 36.1807 673.539 40.0427 678.5 40.0427C678.599 40.0427 678.703 40.0427 678.802 40.0368C681.251 39.9787 684.072 39.9031 687.05 39.8158C691.959 39.6762 697.391 39.525 701.613 39.4727C698.124 45.0853 693.535 50.6165 688.405 55.3509C681.518 61.6964 673.905 66.4308 666.373 69.0364C663.855 69.9089 661.866 71.4444 660.615 73.4859C659.423 75.4285 658.975 77.7316 659.353 79.9825C660.127 84.5773 663.942 87.7821 668.63 87.7821C669.927 87.7821 671.247 87.5378 672.562 87.0492L672.579 87.0434L672.596 87.0376C684.334 82.5824 694.465 75.8996 703.451 66.6693C710.431 71.4444 717.847 78.3308 721.389 82.7395C723.308 85.1474 725.908 86.4851 728.7 86.4851C732.213 86.4851 735.615 84.2807 737.372 80.8666C739.215 77.2838 738.936 73.2067 736.621 69.967C732.405 64.0985 722.61 57.2121 715.136 52.4719C717.724 48.7612 720.295 44.6724 723.04 39.9031C725.39 35.8085 725.541 31.4056 723.459 27.8112C720.993 23.5537 715.695 21.0062 709.285 21.0062Z" fill="black"/>
<path d="M45.0161 92.6677C41.8056 92.6677 39.2813 90.5565 38.4322 87.1656C36.949 81.4076 34.5353 72.9973 31.8948 64.3254C22.6353 67.1462 16.1503 69.211 11.5962 70.7755C10.7005 71.0721 9.83387 71.2234 8.98471 71.2234C5.65202 71.2234 2.87769 68.8271 2.38331 65.5293C1.92965 62.499 3.53492 58.8058 8.15299 57.3924C12.3639 56.0838 19.9017 53.7457 27.9339 51.3785C27.3639 49.5638 26.7939 47.7375 26.2472 45.9636C21.001 47.406 16.0398 48.7612 11.6485 49.7732C10.9215 49.9477 10.1887 50.0349 9.49072 50.0349C5.8207 50.0349 2.98238 47.6038 2.59269 44.1199C2.2728 41.2583 3.90134 37.7336 8.2286 36.7507C12.3523 35.8492 16.9704 34.7209 22.2922 33.3017C21.286 30.1493 20.3205 27.2528 19.5179 24.8391C19.006 23.3095 18.5524 21.9368 18.1685 20.762C17.4066 18.5111 17.6509 16.3242 18.8723 14.6316C20.146 12.8519 22.3736 11.7933 24.8222 11.7933C28.1317 11.7933 30.8246 13.6953 31.6796 16.6325C32.3193 18.9357 33.3081 22.1579 34.4539 25.8861C34.8145 27.0668 35.1925 28.2998 35.5822 29.5735C39.1185 28.5382 42.5326 27.4332 45.6094 26.4444C46.5574 26.1361 47.4822 25.8395 48.3837 25.5545C49.2212 25.287 50.053 25.1474 50.8614 25.1474C54.0894 25.1474 56.6893 27.4273 57.1836 30.696C57.7187 34.1974 55.654 37.3963 52.1701 38.4839L50.9545 38.862C47.4822 39.9438 43.626 41.1477 39.514 42.3342L41.1193 47.6096C48.0289 45.6495 54.956 43.6953 60.2313 42.311C61.1037 42.0842 61.9471 41.9736 62.7497 41.9736C66.4023 41.9736 69.2174 44.399 69.607 47.8771C69.9444 50.9248 68.1646 54.4959 64.0991 55.4149C59.2542 56.52 52.4492 58.323 45.1615 60.4343C46.2957 64.0229 47.3775 67.4893 48.3837 70.6824C49.8378 75.318 51.0882 79.3254 52.0712 82.3731C53.6183 87.1424 50.9545 90.9403 47.5287 92.2257C46.7086 92.5107 45.8653 92.6677 45.0161 92.6677Z" fill="black"/>
<path d="M24.8166 14.1082C26.8115 14.1082 28.8123 15.1202 29.4404 17.2722C30.3943 20.7038 32.1101 26.1419 34.0178 32.435C39.456 30.9112 44.6033 29.1955 49.0818 27.7647C49.7157 27.5611 50.309 27.468 50.8499 27.468C55.6076 27.468 56.6894 34.6278 51.4664 36.2505C47.1741 37.5882 42.0267 39.2051 36.5886 40.7348L39.5432 50.4595C47.2671 48.2668 54.991 46.0741 60.8073 44.5444C61.5052 44.3641 62.145 44.2826 62.7324 44.2826C68.4149 44.2826 68.9267 51.9136 63.57 53.1233C58.1318 54.3622 50.3148 56.4618 42.207 58.8465C45.2605 68.4781 48.0232 77.4409 49.8379 83.0652C50.9837 86.5956 48.9771 89.1663 46.6913 90.0271C46.1504 90.2307 45.5804 90.3354 45.0104 90.3354C43.1667 90.3354 41.3404 89.2129 40.6832 86.5956C39.1593 80.6805 36.4897 71.3397 33.4362 61.4231C24.9503 63.9996 16.6506 66.5704 10.8344 68.577C10.1772 68.798 9.55483 68.8969 8.98484 68.8969C4.05851 68.8969 2.42998 61.5801 8.83362 59.6142C14.3648 57.8985 22.3738 55.4207 30.8596 52.9372C29.8127 49.5987 28.7599 46.2602 27.8061 43.1137C21.891 44.7364 16.0748 46.3532 11.1194 47.499C10.5378 47.6386 9.99104 47.7026 9.48503 47.7026C4.00617 47.7026 2.9767 40.3218 8.73475 39.0132C13.981 37.8674 19.6052 36.4366 25.2295 34.9127C23.3218 28.8115 21.513 23.5653 20.3672 20.0349C19.0876 16.2078 21.9434 14.1082 24.8166 14.1082ZM24.8166 9.45526C21.6235 9.45526 18.6921 10.8802 16.9821 13.2648C15.3245 15.5797 14.9639 18.4994 15.9643 21.4948C16.3482 22.6755 16.8018 24.0423 17.3137 25.5661C17.9127 27.3633 18.599 29.4281 19.3319 31.6673C15.0279 32.7899 11.2124 33.7088 7.76344 34.465L7.74599 34.4707L7.72854 34.4765C2.82548 35.5932 -0.233848 39.6588 0.295427 44.3757C0.81307 48.9996 4.68667 52.3555 9.5083 52.3555C10.3866 52.3555 11.2997 52.2451 12.2128 52.0299C16.0225 51.1516 20.245 50.0174 24.7119 48.796C24.8166 49.1334 24.9213 49.4707 25.0259 49.8139C17.8487 51.9484 11.2997 53.9841 7.47263 55.1706C4.91931 55.9558 2.86619 57.4215 1.54591 59.4048C0.277979 61.3183 -0.239665 63.61 0.103491 65.8725C0.772355 70.3219 4.51218 73.5498 9.00811 73.5498C10.1016 73.5498 11.2241 73.3638 12.3292 72.9915L12.3524 72.9857L12.3757 72.9799C17.4416 71.235 24.4211 69.0539 30.3652 67.2335C32.7266 75.0621 34.8437 82.5068 36.1989 87.7531C37.3098 92.1559 40.7762 95 45.0337 95C46.162 95 47.2788 94.7964 48.3489 94.3951C50.6347 93.5401 52.5192 91.8942 53.6708 89.7713C54.9794 87.3459 55.2004 84.4553 54.2873 81.646C53.3102 78.6158 52.0597 74.6142 50.6056 69.9845C49.8262 67.501 48.9829 64.8023 48.1047 62.0047C54.4734 60.19 60.3303 58.6545 64.6285 57.6774C69.3803 56.6014 72.4571 52.3731 71.9278 47.6154C71.4044 42.9217 67.6355 39.6413 62.7557 39.6413C61.7611 39.6413 60.7258 39.7751 59.6731 40.0485C54.9154 41.299 48.8549 42.9973 42.6898 44.748L42.4339 43.9047C45.72 42.9333 48.8142 41.9678 51.6525 41.0837L52.8681 40.7057C57.4804 39.2691 60.2024 35.0116 59.4928 30.347C58.8181 25.9151 55.2702 22.8209 50.8674 22.8209C49.8204 22.8209 48.7444 22.9953 47.6684 23.3443C46.7844 23.6293 45.8538 23.9259 44.9057 24.2342C42.492 25.0136 39.8631 25.8569 37.1411 26.6886C36.9899 26.1884 36.8328 25.6941 36.6874 25.2055C35.5475 21.4948 34.5645 18.2842 33.9422 16.0392L33.9364 16.0101L33.9306 15.981C32.7731 12.0725 29.1206 9.45526 24.8166 9.45526Z" fill="black"/>
<path d="M295.23 91.4811C290.385 91.4811 287.768 88.1834 287.39 85.1182C286.942 81.5006 289.263 78.3191 293.031 77.3768C306.06 74.079 312.603 63.4819 314.58 54.4028C304.815 54.4319 295.544 54.618 289.268 54.7809C289.199 54.7809 289.111 54.7867 289.024 54.7867C284.738 54.7867 282.399 51.3784 282.376 48.1737C282.353 44.934 284.679 41.6188 289.175 41.549C295.422 41.3803 304.815 41.2757 315.197 41.264C315.185 39.9088 315.168 38.5479 315.156 37.2218C315.145 36.4075 315.139 35.6165 315.127 34.8604C309.561 35.6688 304.222 36.105 299.86 36.105C299.464 36.105 299.08 36.0992 298.702 36.0934C293.747 35.9596 291.211 32.499 291.257 29.1547C291.304 25.9209 293.776 22.6463 298.417 22.6463C298.638 22.6463 298.865 22.6522 299.098 22.6696C299.819 22.722 300.616 22.7452 301.459 22.7452C311.114 22.7452 326.102 19.5231 333.047 16.644C334.472 16.0508 335.85 15.7425 337.136 15.7425C340.608 15.7425 343.318 18.0224 343.888 21.4133C344.464 24.8332 342.603 28.1077 339.462 29.1896C336.822 30.1434 333.629 31.0682 329.528 32.0628C329.575 34.8488 329.575 38.0767 329.528 41.2582C339.02 41.2698 346.651 41.3687 350.478 41.4501C355.224 41.5199 357.69 44.8643 357.667 48.1272C357.644 51.3842 355.16 54.6878 350.455 54.6878C350.455 54.6878 350.269 54.6878 350.17 54.682C345.546 54.5133 337.944 54.4144 329.086 54.397C327.399 68.2977 317.849 84.3679 299.499 90.696C298.016 91.2194 296.579 91.4811 295.23 91.4811Z" fill="black"/>
<path d="M337.129 18.0748C342.515 18.0748 343.178 25.4498 338.7 26.9969C335.268 28.2357 331.261 29.2827 327.16 30.2366C327.253 33.9531 327.253 39.0074 327.16 43.5847C337.17 43.5847 345.947 43.6778 350.425 43.7766C357.027 43.8697 356.916 52.3614 350.449 52.3614C350.379 52.3614 350.303 52.3614 350.233 52.3555C344.987 52.1636 336.408 52.0705 326.968 52.0705C326.207 64.1799 318.384 81.7274 298.742 88.4975C297.434 88.9511 296.259 89.1489 295.224 89.1489C288.634 89.1489 287.657 81.1109 293.589 79.6277C309.799 75.5273 316.191 61.1264 317.337 52.0705C307.036 52.0705 296.742 52.2625 289.204 52.4544C289.14 52.4544 289.082 52.4603 289.018 52.4603C283.469 52.4603 282.981 43.9686 289.204 43.8755C296.259 43.6836 306.844 43.5905 317.529 43.5905C317.529 39.5832 317.436 35.2966 317.436 32.15C310.974 33.2144 304.762 33.7786 299.859 33.7786C299.481 33.7786 299.109 33.7728 298.742 33.767C291.868 33.5808 291.961 24.9729 298.411 24.9729C298.58 24.9729 298.754 24.9787 298.934 24.9903C299.725 25.0427 300.569 25.0718 301.453 25.0718C311.439 25.0718 326.747 21.7739 333.93 18.7902C335.14 18.29 336.205 18.0748 337.129 18.0748ZM337.129 13.4219C335.536 13.4219 333.855 13.7883 332.139 14.5037C325.549 17.2373 310.701 20.4188 301.459 20.4188C300.668 20.4188 299.929 20.3955 299.26 20.349C298.975 20.3316 298.696 20.3199 298.417 20.3199C293.077 20.3199 289 24.1062 288.93 29.1198C288.872 33.4994 292.246 38.2396 298.62 38.4141H298.638H298.655C299.045 38.4199 299.446 38.4257 299.859 38.4257C303.634 38.4257 308.112 38.1059 312.829 37.5126C312.835 37.9837 312.841 38.4606 312.847 38.9376C303.395 38.9608 294.921 39.0597 289.105 39.2167C283.899 39.3098 280.008 43.1602 280.049 48.1854C280.09 53.1873 284.027 57.1074 289.024 57.1074C289.128 57.1074 289.233 57.1074 289.343 57.1016C294.939 56.962 302.907 56.7991 311.48 56.741C309.491 62.7724 304.524 72.0667 292.455 75.1144C287.529 76.3474 284.487 80.5758 285.08 85.3916C285.691 90.3412 289.861 93.796 295.229 93.796C296.835 93.796 298.533 93.4878 300.272 92.8887C310.043 89.5211 318.186 83.2862 323.81 74.8643C327.504 69.3331 330.028 63.0225 331.104 56.7235C339.066 56.7468 345.842 56.8457 350.07 57.0028H350.088H350.105C350.222 57.0086 350.338 57.0085 350.454 57.0085C355.858 57.0085 359.958 53.1931 359.993 48.1388C360.028 43.0787 355.956 39.2052 350.512 39.1179C346.994 39.0423 340.282 38.955 331.877 38.9318C331.889 37.1985 331.889 35.4828 331.872 33.8717C335.198 33.0225 337.92 32.214 340.253 31.3707C344.446 29.905 346.936 25.5545 346.174 21.0236C345.429 16.551 341.707 13.4219 337.129 13.4219Z" fill="black"/>
<path d="M132.707 91.9057C130.299 91.9057 127.298 90.4865 126.106 86.4966C125.14 83.2221 121.924 72.3051 118.708 61.58C116.532 62.3768 114.468 63.1562 112.589 63.8657C111.78 64.1682 111.007 64.4648 110.274 64.7382C109.39 65.0697 108.512 65.2325 107.663 65.2325C104.586 65.2325 102.079 63.0457 101.561 59.9108C101.114 57.1946 102.323 53.8968 106.04 52.6347C107.994 51.9658 110.088 51.2271 112.316 50.442C113.211 50.1279 114.124 49.8022 115.067 49.4706L114.875 48.8367C114.101 46.3183 113.432 44.1372 112.874 42.3865C111.99 39.7402 112.589 37.7975 113.246 36.6459C114.101 35.1453 115.602 34.0693 117.364 33.6854C117.789 33.5807 118.277 33.5284 118.772 33.5284C121.808 33.5284 124.442 35.5408 125.332 38.5419C125.763 39.9669 126.501 42.3807 127.339 45.2888C132.957 43.416 138.704 41.5141 144.334 39.7518C145.433 39.4202 146.55 39.2574 147.684 39.2574C150.825 39.2574 153.616 40.5311 155.146 42.6657C156.536 44.6083 156.81 47.1325 155.914 49.7731C153.797 56.0313 149.563 62.1791 143.996 67.0821C142.362 68.5129 140.536 69.269 138.715 69.269C136.784 69.269 134.993 68.385 133.801 66.9425C135.697 72.9856 137.442 78.2492 138.733 81.7971C139.727 84.4842 139.506 87.0782 138.11 89.0848C136.866 90.8529 134.853 91.9057 132.707 91.9057ZM130.811 57.2527C131.317 58.9336 131.823 60.5971 132.318 62.2256C132.486 60.4109 133.428 58.6719 135.051 57.3342C135.947 56.6304 136.825 55.7986 137.645 54.9029C135.615 55.5834 133.335 56.3687 130.811 57.2527Z" fill="black"/>
<path d="M118.76 35.8549C120.545 35.8549 122.441 37.0124 123.087 39.2051C123.756 41.3978 124.71 44.5444 125.757 48.2668C132.05 46.1671 138.628 43.9744 145.02 41.9736C145.887 41.7119 146.788 41.584 147.672 41.584C151.674 41.584 155.338 44.1896 153.698 49.0287C151.505 55.5137 147.213 61.138 142.443 65.3373C141.146 66.4773 139.849 66.9484 138.698 66.9484C135.033 66.9484 132.829 62.1907 136.528 59.1431C139.198 57.0434 141.868 53.8038 143.298 50.7503L143.391 50.6572C139.483 51.803 133.853 53.7107 127.944 55.8046C130.805 65.4362 134.237 76.3067 136.528 82.5998C138.093 86.8398 135.458 89.5909 132.701 89.5909C130.927 89.5909 129.113 88.4509 128.327 85.8395C126.42 79.3544 123.18 68.3908 120.22 58.5673C116.212 59.998 112.496 61.4288 109.442 62.5746C108.797 62.8131 108.197 62.9236 107.645 62.9236C103.37 62.9236 102.038 56.456 106.773 54.8507C110.111 53.7049 113.828 52.373 117.928 50.9422C116.782 47.2257 115.828 44.0791 115.066 41.6944C114.02 38.5479 115.636 36.4482 117.829 35.9713C118.137 35.8899 118.446 35.8549 118.76 35.8549ZM118.76 31.202C118.103 31.202 117.445 31.2776 116.811 31.423C114.427 31.9523 112.385 33.4354 111.21 35.5002C109.954 37.7045 109.756 40.4148 110.652 43.1252C111.094 44.5036 111.6 46.1497 112.176 48.0283C111.961 48.1039 111.745 48.1795 111.53 48.2551C109.314 49.0403 107.215 49.779 105.266 50.442C101.014 51.8844 98.5368 55.9383 99.2522 60.2946C99.9559 64.5754 103.411 67.5649 107.645 67.5649C108.773 67.5649 109.925 67.3497 111.065 66.9251C111.809 66.646 112.583 66.3551 113.397 66.0469C114.59 65.599 115.857 65.1163 117.178 64.6278C120.144 74.5386 122.971 84.1237 123.855 87.1481C125.152 91.4637 128.618 94.238 132.695 94.238C135.598 94.238 138.325 92.8073 139.995 90.4168C141.815 87.8053 142.141 84.3622 140.885 80.9771C140.001 78.5518 138.901 75.3005 137.68 71.5316C138.011 71.5723 138.349 71.5898 138.692 71.5898C140.361 71.5898 142.897 71.1128 145.503 68.8271C149.661 65.1687 155.216 59.0267 158.095 50.5118C159.235 47.1384 158.851 43.8697 157.013 41.299C155.047 38.5595 151.552 36.9193 147.66 36.9193C146.305 36.9193 144.962 37.1171 143.671 37.501L143.641 37.5068L143.612 37.5126C138.727 39.0423 133.76 40.6766 128.868 42.2993C128.316 40.4323 127.845 38.8852 127.531 37.8441C126.356 33.8774 122.825 31.202 118.76 31.202Z" fill="black"/>
<path d="M48.0348 53.0303C51.0883 62.6619 53.851 71.6247 55.6657 77.249C56.8115 80.7794 54.8049 83.3502 52.5191 84.211C50.2334 85.0718 47.3718 84.211 46.511 80.7794C44.9871 74.8643 42.3175 65.5235 39.264 55.6069L48.0348 53.0303ZM42.4106 34.9128L45.3652 44.6375L36.6874 47.1152C35.6405 43.7767 34.5878 40.4382 33.6339 37.2917L42.4106 34.9128ZM31.0631 29.0966C29.1554 22.9954 27.3466 17.7492 26.2008 14.2187C24.0081 7.73366 33.7328 6.20982 35.2624 11.456C36.2163 14.8876 37.9321 20.3257 39.8398 26.6189L31.0631 29.0966Z" stroke="black" stroke-width="10"/>
<path d="M30.6325 8.29201C32.6275 8.29201 34.6282 9.304 35.2564 11.456C36.2102 14.8876 37.926 20.3257 39.8337 26.6188L31.0629 29.0965C29.1552 22.9953 27.3463 17.7491 26.2006 14.2187C24.9035 10.3916 27.7593 8.29201 30.6325 8.29201ZM42.4103 34.9127L45.365 44.6375L36.6872 47.1152C35.6403 43.7767 34.5875 40.4382 33.6337 37.2916L42.4103 34.9127ZM48.0346 53.0302C51.0881 62.6619 53.8508 71.6247 55.6655 77.2489C56.8113 80.7794 54.8047 83.3501 52.5189 84.2109C51.978 84.4145 51.408 84.5192 50.838 84.5192C48.9943 84.5192 47.168 83.3966 46.5107 80.7793C44.9869 74.8643 42.3173 65.5235 39.2638 55.6068L48.0346 53.0302ZM30.6325 7.71039C28.7422 7.71039 27.0497 8.50132 26.1017 9.8216C25.4793 10.6882 24.8919 12.1888 25.6422 14.4048C26.0202 15.5738 26.4739 16.9407 26.9857 18.4646C27.9861 21.4657 29.2308 25.1997 30.5045 29.271L30.6732 29.812L31.2199 29.6608L39.9908 27.183L40.5608 27.0202L40.3863 26.4502C39.7581 24.3854 39.1533 22.4138 38.5891 20.57C37.4433 16.8302 36.4487 13.5963 35.8089 11.2989C35.1808 9.11787 33.1509 7.71039 30.6325 7.71039ZM42.8 34.2032L42.2533 34.3486L33.4824 36.7332L32.9066 36.8903L33.0811 37.4661C34.0292 40.5894 35.0877 43.957 36.1114 47.214L36.1346 47.2955L36.3033 47.8364L36.85 47.6794L45.5278 45.2016L46.0978 45.0388L45.9233 44.4746L42.9687 34.7499L42.8 34.2032ZM48.4185 52.309L47.8717 52.4719L39.1009 55.0484L38.5367 55.2171L38.7112 55.7813C41.6193 65.2443 44.3297 74.6432 45.9524 80.9306C46.4584 82.9488 48.0055 85.1066 50.838 85.1066C51.4778 85.1066 52.1118 84.9903 52.7225 84.7577C54.066 84.2517 55.2176 83.2513 55.8923 82.0124C56.6833 80.5526 56.7938 78.8425 56.218 77.0744C55.2351 74.0209 53.9788 70.0135 52.5247 65.3722C51.3324 61.5684 49.983 57.2528 48.5871 52.8558L48.4185 52.309Z" stroke="black" stroke-width="10"/>
<path d="M133.766 49.9766C136.628 59.6083 140.059 70.4788 142.351 76.7719C144.928 83.7339 136.151 86.6885 134.15 80.0115C132.242 73.5265 129.003 62.5629 126.042 52.7393L133.766 49.9766ZM123.757 45.1143C122.611 41.3977 121.657 38.2511 120.895 35.8665C119.848 32.7199 121.465 30.6203 123.658 30.1434C125.658 29.6664 128.142 30.8122 128.904 33.383C129.573 35.5757 130.527 38.7223 131.574 42.4447L123.757 45.1143Z" stroke="black" stroke-width="10"/>
<path d="M124.576 30.0387C126.362 30.0387 128.258 31.1961 128.903 33.3889C129.572 35.5816 130.526 38.7282 131.573 42.4506L123.756 45.1202C122.61 41.4036 121.656 38.257 120.894 35.8724C119.848 32.7258 121.464 30.6262 123.657 30.1493C123.954 30.0736 124.262 30.0387 124.576 30.0387ZM133.766 49.9767C136.627 59.6083 140.059 70.4789 142.35 76.772C143.915 81.012 141.28 83.763 138.523 83.763C136.749 83.763 134.935 82.6289 134.15 80.0116C132.242 73.5265 129.002 62.563 126.042 52.7394L133.766 49.9767ZM124.576 29.4571C124.216 29.4571 123.867 29.4979 123.523 29.5793C122.238 29.8585 121.185 30.6146 120.563 31.6964C120.08 32.5456 119.65 33.988 120.336 36.0527C120.9 37.8092 121.569 39.9903 122.343 42.5145L123.192 45.2889L123.366 45.8647L123.936 45.6727L131.753 43.0031L132.277 42.8228L132.126 42.2935C131.021 38.3792 130.003 35.0233 129.45 33.2202C128.688 30.6204 126.449 29.4571 124.576 29.4571ZM134.15 49.2264L133.574 49.4358L125.85 52.1985L125.332 52.3846L125.489 52.9139C128.932 64.3544 132.562 76.6789 133.591 80.1861C134.196 82.2043 135.807 84.3505 138.523 84.3505C140.094 84.3505 141.577 83.5769 142.478 82.2741C143.543 80.7503 143.688 78.7262 142.891 76.5742C140.39 69.6936 136.825 58.2415 134.318 49.8138L134.15 49.2264Z" stroke="black" stroke-width="10"/>
<path d="M213.681 54.8391C212.349 52.1694 210.342 49.3078 208.243 47.499C204.334 44.1605 209.865 38.1524 214.344 42.1598C216.92 44.4455 219.59 47.499 221.399 50.6456C224.458 55.7929 216.542 60.4691 213.681 54.8391ZM226.459 49.5986C225.505 46.7371 223.789 43.6836 221.975 41.5898C218.543 37.7744 224.929 32.5281 228.838 37.2043C231.03 39.874 233.13 43.3055 234.561 46.644C236.852 52.2683 228.466 55.6999 226.459 49.5986Z" stroke="black" stroke-width="10"/>
<path d="M225.237 35.3606C226.453 35.3606 227.744 35.8899 228.843 37.2043C231.036 39.874 233.136 43.3055 234.567 46.644C235.997 50.1686 233.246 52.8325 230.495 52.8325C228.855 52.8325 227.209 51.8844 226.465 49.6044C225.511 46.7429 223.795 43.6893 221.98 41.5955C219.508 38.8444 222.12 35.3606 225.237 35.3606ZM211.151 40.8278C212.186 40.8278 213.297 41.2175 214.35 42.1597C216.926 44.4455 219.596 47.499 221.405 50.6456C223.469 54.1295 220.509 57.3982 217.49 57.3982C216.054 57.3982 214.6 56.6537 213.681 54.839C212.349 52.1694 210.342 49.3078 208.242 47.499C205.253 44.9457 207.789 40.8278 211.151 40.8278ZM225.237 34.7789C223.347 34.7789 221.509 35.948 220.765 37.6289C220.108 39.112 220.393 40.694 221.544 41.9794C223.312 44.0267 224.987 47.0163 225.906 49.7848C226.651 52.0531 228.367 53.4141 230.489 53.4141C232.176 53.4141 233.805 52.5533 234.741 51.1632C235.66 49.7964 235.788 48.1155 235.102 46.4288C233.665 43.0845 231.554 39.589 229.291 36.8379C227.872 35.1337 226.302 34.7789 225.237 34.7789ZM211.151 40.2462C209.156 40.2462 207.277 41.549 206.591 43.4102C205.986 45.0503 206.463 46.7429 207.864 47.941C209.749 49.5696 211.732 52.2509 213.157 55.1008C214.088 56.9329 215.67 57.9798 217.49 57.9798C219.334 57.9798 221.125 56.9271 222.05 55.3044C222.934 53.7572 222.876 51.9949 221.899 50.3489C220.212 47.4234 217.601 44.2768 214.728 41.7235C213.657 40.758 212.419 40.2462 211.151 40.2462Z" stroke="black" stroke-width="10"/>
<path d="M332.79 46.2601C332.029 58.3695 324.206 75.917 304.564 82.687C294.933 86.0255 292.548 75.5331 299.417 73.8173C315.627 69.7169 322.019 55.3159 323.165 46.2601H332.79ZM332.982 24.4203C333.075 28.1368 333.075 33.1911 332.982 37.7685H323.351C323.351 33.7611 323.258 29.4745 323.258 26.328L332.982 24.4203ZM211.773 80.6863C210.912 78.6855 211.488 76.1089 214.157 74.9631C230.082 68.2861 240.383 54.8448 244.198 38.9142C245.722 32.7142 254.975 35.5757 253.161 41.3919C247.723 59.4164 237.143 74.0034 218.357 82.4951C215.111 83.9259 212.726 82.7801 211.773 80.6863Z" stroke="black" stroke-width="10"/>
<path d="M332.983 24.4203C333.076 28.1369 333.076 33.1911 332.983 37.7685H323.351C323.351 33.7611 323.258 29.4745 323.258 26.328L332.983 24.4203ZM248.456 35.4362C251.3 35.4362 254.254 37.8732 253.161 41.3978C247.723 59.4222 237.143 74.0093 218.357 82.5009C217.362 82.943 216.443 83.1349 215.623 83.1349C213.779 83.1349 212.436 82.1403 211.773 80.6863C210.912 78.6855 211.488 76.1089 214.158 74.9631C230.082 68.2861 240.383 54.8448 244.198 38.9142C244.797 36.4714 246.606 35.4362 248.456 35.4362ZM332.791 46.2601C332.029 58.3695 324.206 75.917 304.565 82.687C303.256 83.1407 302.081 83.3384 301.046 83.3384C294.456 83.3384 293.479 75.3005 299.411 73.8173C315.621 69.7169 322.013 55.316 323.159 46.2601H332.791ZM333.547 23.7165L332.872 23.8503L323.147 25.758L322.676 25.8511V26.328C322.676 27.8111 322.7 29.5444 322.717 31.3823C322.74 33.4819 322.769 35.6514 322.769 37.7743V38.3559H323.351H332.983H333.553L333.564 37.7859C333.663 33.1679 333.663 28.1659 333.564 24.4087L333.547 23.7165ZM248.456 34.8545C246.042 34.8545 244.239 36.3202 243.634 38.7805C241.709 46.8127 238.225 53.9666 233.27 60.0446C228.111 66.3726 221.602 71.2175 213.936 74.428C210.9 75.7309 210.284 78.6739 211.244 80.9131C212.052 82.6987 213.652 83.7165 215.629 83.7165C216.565 83.7165 217.566 83.4839 218.595 83.0302C227.686 78.924 235.299 73.1543 241.22 65.8898C246.664 59.2128 250.869 51.0294 253.725 41.5665C254.225 39.9612 253.993 38.3792 253.062 37.1171C252.027 35.7212 250.265 34.8545 248.456 34.8545ZM333.407 45.6785H332.791H323.159H322.647L322.583 46.1845C321.914 51.4714 319.687 57.0725 316.465 61.5568C312.184 67.5126 306.403 71.4501 299.272 73.2532C295.887 74.0965 294.66 76.7952 294.939 79.0868C295.235 81.4889 297.236 83.9142 301.046 83.9142C302.197 83.9142 303.442 83.6816 304.751 83.228C313.679 80.1512 321.112 74.4629 326.236 66.7914C330.33 60.6553 332.93 53.1814 333.367 46.2892L333.407 45.6785Z" stroke="black" stroke-width="10"/>
<path d="M399.735 70.7697C420.807 64.0927 433.3 46.7371 437.593 32.7201C438.355 30.1435 438.07 27.7588 434.539 27.6658C425.193 27.3808 410.129 27.9508 396.396 28.4277C390.103 28.6197 389.434 19.2729 396.205 18.988C408.791 18.418 426.623 18.3191 438.733 18.5111C446.457 18.6041 451.895 24.4261 449.126 32.2431C442.449 51.3145 430.817 69.8158 404.115 80.0175C396.018 83.071 392.488 73.0554 399.735 70.7697Z" stroke="black" stroke-width="10"/>
<path d="M426.466 18.418C430.881 18.418 435.069 18.4471 438.739 18.5052C446.463 18.5983 451.901 24.4203 449.132 32.2373C442.455 51.3086 430.823 69.81 404.121 80.0116C403.062 80.4071 402.085 80.5874 401.201 80.5874C395.28 80.5874 393.43 72.753 399.735 70.7639C420.807 64.0869 433.3 46.7313 437.593 32.7143C438.355 30.1377 438.07 27.753 434.539 27.6599C432.8 27.6076 430.863 27.5843 428.781 27.5843C419.638 27.5843 407.575 28.038 396.397 28.4219C396.333 28.4219 396.269 28.4277 396.205 28.4277C390.086 28.4277 389.499 19.2671 396.205 18.9821C404.981 18.5866 416.311 18.418 426.466 18.418ZM426.466 18.418V17.8364M426.466 17.8364C415.142 17.8364 404.103 18.0457 396.181 18.4005C393.547 18.511 390.743 20.2385 390.819 23.7689C390.871 26.3746 392.744 29.0093 396.211 29.0093C396.28 29.0093 396.35 29.0093 396.42 29.0035L399.281 28.9046C409.681 28.5382 420.429 28.166 428.787 28.166C430.939 28.166 432.876 28.1892 434.528 28.2416C435.72 28.2765 436.54 28.5905 436.965 29.1721C437.593 30.0388 437.354 31.487 437.04 32.5456C434.72 40.1183 430.282 47.7724 424.53 54.0947C417.684 61.6266 409.053 67.1985 399.561 70.1997C395.885 71.3629 394.96 74.2361 395.286 76.3474C395.641 78.6681 397.647 81.1632 401.207 81.1632C402.207 81.1632 403.254 80.9597 404.336 80.5526C416.864 75.7658 426.757 68.9841 434.586 59.8236C440.867 52.4719 445.805 43.5092 449.691 32.4235C450.964 28.8232 450.627 25.3509 448.743 22.6522C446.678 19.6976 443.043 17.9701 438.756 17.9178C435.034 17.8713 430.788 17.8364 426.466 17.8364Z" stroke="black" stroke-width="10"/>
<path d="M509.499 73.2473C503.112 76.3939 494.621 74.4862 494.912 64.3776C495.197 53.5071 495.389 30.3353 495.104 23.9433C494.819 16.6033 504.927 17.3652 505.113 23.7514C505.305 30.5215 505.02 51.8844 504.729 59.1314C504.636 61.801 507.114 62.7549 509.4 61.516C524.086 53.8852 537.341 40.4439 543.826 30.0445C547.833 23.6583 556.412 29.6607 552.597 35.5757C544.972 47.499 525.615 65.2384 509.499 73.2473Z" stroke="black" stroke-width="10"/>
<path d="M499.768 18.6971C502.333 18.6971 505.014 20.4943 505.107 23.7514C505.299 30.5215 505.014 51.8844 504.723 59.1314C504.654 61.0217 505.881 62.0511 507.411 62.0511C508.045 62.0511 508.725 61.8766 509.394 61.516C524.08 53.8852 537.335 40.4439 543.82 30.0445C545.041 28.1019 546.682 27.3051 548.269 27.3051C551.899 27.3051 555.243 31.4637 552.591 35.5757C544.96 47.4932 525.604 65.2326 509.487 73.2415C507.661 74.143 505.66 74.6258 503.746 74.6258C498.96 74.6258 494.69 71.5897 494.894 64.3718C495.179 53.5013 495.371 30.3295 495.086 23.9375C494.958 20.3489 497.308 18.6971 499.768 18.6971ZM499.768 18.1155C498.262 18.1155 496.912 18.6622 495.958 19.651C494.946 20.7037 494.452 22.1927 494.516 23.9666C494.807 30.5099 494.603 53.7688 494.324 64.3602C494.225 67.8324 495.15 70.6707 497 72.5726C498.651 74.2768 501.053 75.2132 503.752 75.2132C505.753 75.2132 507.829 74.713 509.749 73.765C526.499 65.442 545.681 47.4583 553.085 35.8898C554.342 33.9472 554.469 31.7487 553.446 29.8643C552.405 27.9565 550.375 26.7235 548.275 26.7235C546.303 26.7235 544.547 27.7937 543.331 29.7363C537.131 39.6762 524.15 53.1931 509.132 60.9984C508.562 61.3067 507.969 61.4695 507.416 61.4695C506.788 61.4695 506.241 61.2601 505.869 60.8763C505.48 60.4691 505.282 59.8759 505.311 59.1547C505.584 52.2392 505.887 30.6436 505.695 23.7398C505.584 20.0872 502.56 18.1155 499.768 18.1155Z" stroke="black" stroke-width="10"/>
<path d="M582.068 47.1152C578.636 47.1152 577.013 44.8236 577.013 42.5378C577.013 40.1532 578.828 37.6755 582.068 37.6755H641.951C645.191 37.6755 646.814 40.0602 646.814 42.4448C646.814 44.7364 645.191 47.1152 641.951 47.1152H582.068Z" stroke="black" stroke-width="10"/>
<path d="M641.957 37.6754C645.197 37.6754 646.819 40.0601 646.819 42.4448C646.819 44.7364 645.197 47.1152 641.957 47.1152H582.073C578.642 47.1152 577.019 44.8235 577.019 42.5378C577.019 40.1531 578.834 37.6754 582.073 37.6754H641.957ZM641.957 37.0938H582.073C578.415 37.0938 576.438 39.8972 576.438 42.5378C576.438 45.0213 578.2 47.6968 582.073 47.6968H641.957C645.534 47.6968 647.401 45.0562 647.401 42.4448C647.401 38.9318 644.662 37.0938 641.957 37.0938Z" stroke="black" stroke-width="10"/>
<path d="M732.172 23.9434C731.218 22.2276 727.211 18.1272 725.495 16.9814C721.11 14.1199 725.78 9.25748 729.881 11.6421C732.172 12.974 736.459 16.3126 738.174 18.8892C741.135 23.4665 734.65 28.1427 732.172 23.9434ZM743.706 18.5111C742.659 16.8884 738.558 12.7879 736.744 11.741C732.259 9.07139 736.651 3.92402 740.844 6.11673C743.229 7.35558 747.614 10.6941 749.429 13.1718C752.575 17.6503 746.282 22.6115 743.706 18.5111Z" stroke="black" stroke-width="10"/>
<path d="M738.756 5.58162C739.431 5.58162 740.14 5.74449 740.85 6.11092C743.235 7.34977 747.62 10.6882 749.435 13.1659C751.755 16.4695 748.94 20.0349 746.271 20.0349C745.323 20.0349 744.386 19.5812 743.712 18.5052C742.665 16.8825 738.564 12.7821 736.75 11.7351C733.021 9.51917 735.429 5.58162 738.756 5.58162ZM727.589 11.0081C728.334 11.0081 729.119 11.2 729.881 11.6479C732.172 12.9798 736.459 16.3184 738.175 18.8949C740.321 22.216 737.494 25.5836 734.836 25.5836C733.83 25.5836 732.847 25.1008 732.166 23.9492C731.213 22.2334 727.205 18.133 725.489 16.9872C721.93 14.6549 724.349 11.0081 727.589 11.0081ZM738.756 5C736.72 5 734.888 6.29115 734.4 8.07673C733.964 9.65873 734.731 11.2175 736.447 12.2412C738.18 13.2474 742.194 17.249 743.217 18.831C743.944 19.9884 745.026 20.6281 746.265 20.6281C747.859 20.6281 749.493 19.558 750.319 17.9585C751.174 16.3067 751.023 14.4455 749.9 12.8461C747.952 10.1764 743.467 6.83206 741.112 5.60484C740.361 5.20352 739.565 5 738.756 5ZM727.589 10.4265C725.6 10.4265 723.785 11.6596 723.279 13.3579C722.826 14.8934 723.518 16.3881 725.175 17.4757C726.781 18.5459 730.736 22.5649 731.66 24.2342C732.399 25.4847 733.527 26.171 734.842 26.171C736.441 26.171 738.087 25.124 738.936 23.5711C739.797 21.9949 739.698 20.1745 738.669 18.5808C736.901 15.9286 732.603 12.561 730.177 11.1477C729.357 10.665 728.485 10.4265 727.589 10.4265Z" stroke="black" stroke-width="10"/>
<path d="M676.767 76.8709C669.805 79.4475 666.565 70.1008 673.713 67.6231C691.069 61.6149 706.133 46.359 713.671 32.15C714.532 30.5273 714.148 29.0035 712.048 29.0035C706.04 28.9105 692.878 29.3874 684.491 29.5735C678.768 29.7654 678.39 20.6107 684.491 20.3257C691.453 20.0407 705.47 19.8488 715.102 19.8488C723.686 19.8488 728.549 25.287 724.826 31.7662C721.587 37.3905 718.149 42.8286 714.241 47.976C722.157 52.7453 734.266 60.7542 738.651 66.8554C742.467 72.1947 735.313 79.6336 730.834 74.0093C726.164 68.1931 716.34 59.5153 708.518 54.8391C700.131 64.1857 689.83 71.9096 676.767 76.8709Z" stroke="black" stroke-width="10"/>
<path d="M715.102 19.843C723.686 19.843 728.549 25.2811 724.826 31.7604C721.587 37.3847 718.149 42.8228 714.241 47.9701C722.157 52.7394 734.266 60.7483 738.651 66.8495C741.501 70.8395 738.227 76.0101 734.516 76.0101C733.266 76.0101 731.963 75.4227 730.834 74.0035C726.164 68.1873 716.34 59.5095 708.518 54.8332C700.125 64.1799 689.824 71.9038 676.761 76.8592C675.929 77.1675 675.156 77.3012 674.441 77.3012C669.171 77.3012 667.409 69.7926 673.708 67.6057C691.063 61.5975 706.127 46.3416 713.665 32.1326C714.526 30.5099 714.142 28.986 712.042 28.986C711.507 28.9802 710.914 28.9744 710.268 28.9744C703.719 28.9744 692.122 29.3873 684.485 29.556C684.427 29.556 684.369 29.5618 684.311 29.5618C678.756 29.5618 678.448 20.5932 684.485 20.3082C691.453 20.0349 705.47 19.843 715.102 19.843ZM715.102 19.2614C705.953 19.2614 691.639 19.4416 684.468 19.7383C682.002 19.8546 679.39 21.5995 679.477 25.1532C679.536 27.6367 681.216 30.1551 684.316 30.1551C684.38 30.1551 684.444 30.1551 684.508 30.1493C686.945 30.0911 689.766 30.0155 692.75 29.9341C699.177 29.7538 705.825 29.5677 710.274 29.5677C710.914 29.5677 711.501 29.5735 712.036 29.5793C712.513 29.5793 713.124 29.6665 713.38 30.0911C713.618 30.4866 713.537 31.1555 713.153 31.8709C709.309 39.1178 703.568 46.4521 696.978 52.53C689.685 59.2536 681.571 64.2846 673.522 67.0706C669.741 68.3792 668.822 71.3455 669.183 73.4917C669.619 76.0857 671.783 77.8945 674.441 77.8945C675.249 77.8945 676.098 77.7317 676.959 77.4118C689.132 72.7937 699.491 65.6514 708.622 55.5835C716.695 60.5041 726.141 69.1004 730.375 74.3699C731.841 76.2078 733.434 76.5917 734.51 76.5917C736.511 76.5917 738.494 75.254 739.565 73.1776C740.699 70.979 740.53 68.4839 739.123 66.5122C734.429 59.9806 721.162 51.4889 715.09 47.8073C718.481 43.2881 721.75 38.2629 725.327 32.0512C726.955 29.2187 727.1 26.3687 725.751 24.0364C724.024 21.0469 720.04 19.2614 715.102 19.2614Z" stroke="black" stroke-width="10"/>
<path d="M323.252 26.3279C316.29 27.4737 309.613 28.0437 304.559 27.9507C297.504 27.7588 297.789 18.7029 304.751 19.1799C314.476 19.8487 331.93 16.2252 339.747 12.9798C347.948 9.54821 349.762 19.3718 344.516 21.1806C341.085 22.4195 337.077 23.4664 332.977 24.4203L323.252 26.3279Z" stroke="black" stroke-width="10"/>
<path d="M342.946 12.2586C348.332 12.2586 348.995 19.6336 344.516 21.1807C341.085 22.4195 337.077 23.4665 332.977 24.4203L323.252 26.328C316.791 27.3924 310.579 27.9566 305.676 27.9566C305.298 27.9566 304.925 27.9507 304.565 27.9449C297.69 27.7588 297.783 19.1508 304.233 19.1508C304.402 19.1508 304.576 19.1566 304.757 19.1683C305.548 19.2206 306.391 19.2497 307.275 19.2497C317.262 19.2497 332.57 15.9519 339.753 12.9682C340.957 12.4738 342.021 12.2586 342.946 12.2586ZM342.946 11.677C341.893 11.677 340.742 11.9329 339.526 12.4447C332.43 15.3877 317.128 18.6797 307.275 18.6797C306.391 18.6797 305.559 18.6506 304.797 18.5983C304.606 18.5867 304.419 18.5808 304.233 18.5808C300.557 18.5808 298.853 21.0585 298.824 23.3676C298.789 25.7813 300.569 28.4277 304.553 28.5382C304.925 28.544 305.298 28.5498 305.682 28.5498C310.649 28.5498 316.924 27.9682 323.351 26.9096L333.093 25.002C338.043 23.8503 341.73 22.8151 344.72 21.7391C346.651 21.0702 348.5 18.9589 347.983 15.9054C347.552 13.3288 345.575 11.677 342.946 11.677Z" stroke="black" stroke-width="10"/>
<path d="M48.035 53.0302C56.1427 50.6455 63.9597 48.5459 69.3979 47.3071C75.313 45.9693 74.0683 36.8146 66.6352 38.7223C60.819 40.2462 53.0951 42.4389 45.3711 44.6374L36.6933 47.1151C28.2075 49.5929 20.1986 52.0764 14.6674 53.7921C7.51343 55.9849 10.375 64.8545 16.6681 62.7549C22.4844 60.7541 30.7841 58.1776 39.2699 55.601L48.035 53.0302Z" stroke="black" stroke-width="10"/>
<path d="M68.5544 38.4664C74.2368 38.4664 74.7486 46.0973 69.3919 47.3071C63.9538 48.5459 56.1368 50.6455 48.029 53.0302L39.2581 55.6068C30.7723 58.1834 22.4726 60.7541 16.6564 62.7607C15.9991 62.9817 15.3768 63.0806 14.8068 63.0806C9.88048 63.0806 8.25194 55.7639 14.6556 53.798C20.1868 52.0822 28.1957 49.6044 36.6816 47.1209L45.3594 44.6433C53.0833 42.4506 60.8072 40.2578 66.6234 38.7282C67.3272 38.5479 67.9669 38.4664 68.5544 38.4664ZM68.5544 37.8848C67.903 37.8848 67.205 37.9779 66.4838 38.164C60.6618 39.6937 52.8099 41.9212 45.2198 44.0732L36.5245 46.5568C27.6781 49.1391 19.0933 51.803 14.4811 53.2337C10.6133 54.4203 9.60712 57.3226 9.92701 59.4455C10.2992 61.9232 12.3058 63.6564 14.801 63.6564C15.4582 63.6564 16.1445 63.5401 16.8367 63.3075C21.7688 61.6091 28.946 59.3408 39.421 56.1593L48.1918 53.5885C56.3578 51.1864 64.1282 49.1043 69.5199 47.877C72.7246 47.1558 73.9227 44.4455 73.6785 42.2353C73.44 40.0717 71.7591 37.8848 68.5544 37.8848Z" stroke="black" stroke-width="10"/>
<path d="M39.8341 26.6131C45.2723 25.0893 50.4196 23.3735 54.8981 21.9427C61.0982 19.9419 63.0989 28.6197 57.2827 30.4285C52.9904 31.7663 47.843 33.3831 42.4049 34.9128L33.634 37.2975C27.7189 38.9202 21.9027 40.5371 16.9473 41.6829C10.0842 43.3056 8.26955 34.6278 14.5627 33.1971C19.8089 32.0513 25.4332 30.6204 31.0574 29.0966L39.8341 26.6131Z" stroke="black" stroke-width="10"/>
<path d="M56.6663 21.646C61.4239 21.646 62.5057 28.8058 57.2828 30.4285C52.9904 31.7662 47.8431 33.3831 42.4049 34.9127L33.6341 37.2974C27.719 38.9202 21.9028 40.537 16.9474 41.6828C16.3658 41.8224 15.819 41.8864 15.313 41.8864C9.83417 41.8864 8.8047 34.5056 14.5627 33.197C19.809 32.0512 25.4332 30.6204 31.0575 29.0965L39.8283 26.6188C45.2665 25.095 50.4138 23.3793 54.8923 21.9485C55.5379 21.7391 56.1254 21.646 56.6663 21.646ZM56.6721 21.0644C56.0498 21.0644 55.3925 21.1749 54.7237 21.3901C53.828 21.6751 52.9032 21.9717 51.961 22.28C48.2386 23.4781 44.0218 24.8391 39.6829 26.0547L30.9063 28.5324C24.555 30.254 19.1692 31.5917 14.4406 32.6212C11.1312 33.3715 9.90396 35.9132 10.1482 38.0943C10.3867 40.1939 12.1025 42.4564 15.313 42.4564C15.8772 42.4564 16.4763 42.3808 17.0812 42.2412C21.5655 41.2059 26.6605 39.8042 32.0579 38.3269L33.7911 37.85L42.562 35.4653C47.5057 34.0753 52.1471 32.6328 56.2417 31.3532L57.4573 30.9752C60.5573 30.0097 61.6042 27.3401 61.2669 25.1183C60.9586 23.1059 59.4173 21.0644 56.6721 21.0644Z" stroke="black" stroke-width="10"/>
<path d="M332.79 46.2601C342.23 46.2601 350.815 46.3531 356.055 46.5451C362.732 46.737 362.924 38.0592 356.247 37.9603C351.763 37.8673 342.992 37.7684 332.982 37.7684H323.351C312.672 37.7684 302.087 37.8615 295.026 38.0534C288.733 38.1465 289.303 46.8243 295.026 46.6382C302.558 46.4462 312.858 46.2543 323.159 46.2543H332.79V46.2601Z" stroke="black" stroke-width="10"/>
<path d="M332.982 37.7743C342.992 37.7743 351.769 37.8673 356.247 37.9662C362.849 38.0593 362.738 46.5509 356.271 46.5509C356.201 46.5509 356.125 46.5509 356.055 46.5451C350.809 46.3532 342.23 46.2601 332.791 46.2601H323.159C312.858 46.2601 302.564 46.4521 295.026 46.644C294.962 46.644 294.904 46.6498 294.84 46.6498C289.291 46.6498 288.803 38.1582 295.026 38.0651C302.081 37.8732 312.666 37.7801 323.351 37.7801H332.982M332.982 37.1927H323.351C312.067 37.1927 301.738 37.2974 295.014 37.4777C291.507 37.53 289.925 40.0368 289.943 42.3458C289.966 45.5506 292.426 47.2315 294.846 47.2315C294.915 47.2315 294.979 47.2315 295.049 47.2256C301.918 47.0512 312.381 46.8418 323.159 46.8418H332.791C342.573 46.8418 351.042 46.9464 356.038 47.1267C356.119 47.1267 356.201 47.1326 356.276 47.1326C358.975 47.1326 361.726 45.475 361.744 42.3052C361.761 39.9729 360.051 37.4369 356.259 37.3846C352.129 37.2915 343.551 37.1927 332.982 37.1927Z" stroke="black" stroke-width="10"/>
<path d="M131.573 42.4447C137.866 40.3451 144.444 38.1523 150.837 36.1515C155.606 34.7207 161.515 37.2973 159.514 43.2066C157.322 49.6917 153.029 55.316 148.26 59.5153C142.822 64.2846 137.482 57.3225 142.345 53.3152C145.014 51.2155 147.684 47.9759 149.115 44.9224L149.208 44.8293C145.299 45.9751 139.669 47.8828 133.76 49.9767L126.036 52.7394C122.029 54.1702 118.312 55.6009 115.259 56.7467C109.634 58.8464 107.25 50.8316 112.589 49.0228C115.928 47.877 119.644 46.5451 123.745 45.1143L131.573 42.4447Z" stroke="black" stroke-width="10"/>
<path d="M153.489 35.7619C157.49 35.7619 161.154 38.3675 159.514 43.2066C157.322 49.6917 153.029 55.316 148.26 59.5153C146.963 60.6553 145.666 61.1264 144.514 61.1264C140.85 61.1264 138.646 56.3687 142.345 53.321C145.014 51.2214 147.684 47.9818 149.115 44.9283L149.208 44.8352C145.299 45.981 139.669 47.8887 133.76 49.9825L126.036 52.7452C122.029 54.176 118.312 55.6068 115.259 56.7526C114.613 56.9911 114.014 57.1016 113.461 57.1016C109.187 57.1016 107.855 50.6339 112.589 49.0287C115.928 47.8829 119.644 46.551 123.745 45.1202L131.562 42.4506C137.855 40.3509 144.433 38.1582 150.825 36.1574C151.703 35.8898 152.605 35.7619 153.489 35.7619ZM153.489 35.1803C152.529 35.1803 151.581 35.3199 150.668 35.5932C144.27 37.5998 137.733 39.7809 131.404 41.8863L123.564 44.5618C121.878 45.1493 120.255 45.7192 118.702 46.2718C116.474 47.057 114.369 47.8015 112.409 48.4761C109.663 49.4067 108.768 51.8321 109.094 53.8154C109.472 56.0895 111.269 57.6774 113.473 57.6774C114.113 57.6774 114.788 57.5494 115.474 57.2935C116.207 57.0202 116.98 56.7235 117.789 56.4211C120.33 55.4614 123.204 54.3738 126.246 53.292L133.969 50.5293C139.844 48.4413 144.567 46.8534 148.021 45.8007C146.585 48.3656 144.316 51.041 141.996 52.8615C140.129 54.397 139.425 56.5956 140.146 58.5964C140.827 60.4866 142.543 61.708 144.526 61.708C145.916 61.708 147.347 61.1031 148.655 59.9515C154 55.2462 158.054 49.3718 160.073 43.3928C160.986 40.7057 160.282 38.9027 159.537 37.8616C158.328 36.1865 156.071 35.1803 153.489 35.1803Z" stroke="black" stroke-width="10"/>
<path d="M48.0348 53.0302C51.0883 62.6619 53.851 71.6246 55.6657 77.2489C56.8115 80.7794 54.8049 83.3501 52.5191 84.2109C50.2334 85.0717 47.3718 84.2109 46.511 80.7793C44.9871 74.8642 42.3175 65.5235 39.264 55.6068L48.0348 53.0302ZM42.4106 34.9127L45.3652 44.6375L36.6874 47.1152C35.6405 43.7767 34.5878 40.4382 33.6339 37.2916L42.4106 34.9127ZM31.0631 29.0965C29.1554 22.9953 27.3466 17.7491 26.2008 14.2187C24.0081 7.7336 33.7328 6.20976 35.2624 11.456C36.2163 14.8875 37.9321 20.3257 39.8398 26.6188L31.0631 29.0965Z" fill="#FFF100"/>
<path d="M133.766 49.9767C136.627 59.6083 140.059 70.4789 142.35 76.772C144.927 83.734 136.15 86.6886 134.15 80.0116C132.242 73.5265 129.002 62.563 126.042 52.7394L133.766 49.9767ZM123.756 45.1143C122.61 41.3978 121.656 38.2512 120.894 35.8666C119.848 32.72 121.464 30.6204 123.657 30.1434C125.658 29.6665 128.141 30.8123 128.903 33.383C129.572 35.5757 130.526 38.7223 131.573 42.4447L123.756 45.1143Z" fill="#FFF100"/>
<path d="M213.68 54.8391C212.348 52.1694 210.342 49.3078 208.242 47.499C204.334 44.1605 209.865 38.1524 214.343 42.1598C216.92 44.4455 219.589 47.499 221.398 50.6456C224.458 55.7929 216.542 60.4691 213.68 54.8391ZM226.458 49.5986C225.505 46.7371 223.789 43.6836 221.974 41.5898C218.543 37.7744 224.929 32.5281 228.837 37.2043C231.03 39.874 233.13 43.3055 234.56 46.644C236.852 52.2683 228.465 55.6999 226.458 49.5986Z" fill="#00A0E9"/>
<path d="M332.79 46.2602C332.029 58.3695 324.206 75.917 304.564 82.6871C294.933 86.0256 292.548 75.5331 299.417 73.8174C315.627 69.7169 322.019 55.316 323.165 46.2602H332.79ZM332.982 24.4203C333.075 28.1369 333.075 33.1912 332.982 37.7685H323.351C323.351 33.7612 323.258 29.4746 323.258 26.328L332.982 24.4203ZM211.773 80.6863C210.912 78.6856 211.488 76.1089 214.157 74.9631C230.082 68.2861 240.383 54.8449 244.198 38.9143C245.722 32.7142 254.975 35.5758 253.161 41.392C247.723 59.4164 237.143 74.0035 218.357 82.4952C215.111 83.926 212.726 82.7802 211.773 80.6863Z" fill="#FFF100"/>
<path d="M399.735 70.7696C420.807 64.0926 433.3 46.7371 437.593 32.72C438.355 30.1434 438.07 27.7588 434.539 27.6657C425.193 27.3807 410.129 27.9507 396.396 28.4277C390.103 28.6196 389.434 19.2729 396.205 18.9879C408.791 18.4179 426.623 18.3191 438.733 18.511C446.457 18.6041 451.895 24.4261 449.126 32.2431C442.449 51.3144 430.817 69.8158 404.115 80.0174C396.018 83.0709 392.488 73.0554 399.735 70.7696Z" fill="#FFF100"/>
<path d="M509.499 73.2473C503.112 76.3939 494.621 74.4862 494.912 64.3776C495.197 53.5071 495.389 30.3353 495.104 23.9433C494.819 16.6033 504.927 17.3652 505.113 23.7514C505.305 30.5215 505.02 51.8844 504.729 59.1314C504.636 61.801 507.114 62.7549 509.4 61.516C524.086 53.8852 537.341 40.4439 543.826 30.0445C547.833 23.6583 556.412 29.6607 552.597 35.5757C544.972 47.499 525.615 65.2384 509.499 73.2473Z" fill="#FFF100"/>
<path d="M582.068 47.1152C578.636 47.1152 577.013 44.8235 577.013 42.5378C577.013 40.1531 578.828 37.6754 582.068 37.6754H641.951C645.191 37.6754 646.813 40.0601 646.813 42.4447C646.813 44.7363 645.191 47.1152 641.951 47.1152H582.068Z" fill="#FFF100"/>
<path d="M732.172 23.9434C731.218 22.2276 727.211 18.1272 725.495 16.9814C721.11 14.1199 725.78 9.25748 729.881 11.6421C732.172 12.974 736.459 16.3126 738.174 18.8892C741.135 23.4665 734.65 28.1427 732.172 23.9434ZM743.706 18.5111C742.659 16.8884 738.558 12.7879 736.744 11.741C732.259 9.07139 736.651 3.92402 740.844 6.11673C743.229 7.35558 747.614 10.6941 749.429 13.1718C752.575 17.6503 746.282 22.6115 743.706 18.5111Z" fill="#00A0E9"/>
<path d="M676.767 76.8709C669.805 79.4475 666.565 70.1008 673.713 67.6231C691.069 61.6149 706.133 46.359 713.671 32.15C714.532 30.5273 714.148 29.0035 712.048 29.0035C706.04 28.9105 692.878 29.3874 684.491 29.5735C678.768 29.7654 678.39 20.6107 684.491 20.3257C691.453 20.0407 705.47 19.8488 715.102 19.8488C723.686 19.8488 728.549 25.287 724.826 31.7662C721.587 37.3905 718.149 42.8286 714.241 47.976C722.157 52.7453 734.266 60.7542 738.651 66.8554C742.467 72.1947 735.313 79.6336 730.834 74.0093C726.164 68.1931 716.34 59.5153 708.518 54.8391C700.131 64.1857 689.83 71.9096 676.767 76.8709Z" fill="#FFF100"/>
<path d="M323.252 26.3279C316.29 27.4737 309.613 28.0437 304.558 27.9507C297.503 27.7588 297.788 18.7029 304.75 19.1799C314.475 19.8487 331.93 16.2252 339.746 12.9798C347.947 9.54821 349.762 19.3718 344.516 21.1806C341.084 22.4195 337.077 23.4664 332.976 24.4203L323.252 26.3279Z" fill="#00A0E9"/>
<path d="M48.035 53.0302C56.1427 50.6455 63.9597 48.5459 69.3979 47.3071C75.313 45.9693 74.0683 36.8146 66.6352 38.7223C60.819 40.2462 53.0951 42.4389 45.3711 44.6374L36.6933 47.1151C28.2075 49.5929 20.1986 52.0764 14.6674 53.7921C7.51343 55.9849 10.375 64.8545 16.6681 62.7549C22.4844 60.7541 30.7841 58.1776 39.2699 55.601L48.035 53.0302Z" fill="#00A0E9"/>
<path d="M39.8336 26.6131C45.2718 25.0892 50.4191 23.3734 54.8976 21.9426C61.0977 19.9419 63.0985 28.6196 57.2822 30.4285C52.9899 31.7662 47.8425 33.3831 42.4044 34.9127L33.6335 37.2974C27.7185 38.9202 21.9023 40.537 16.9468 41.6828C10.0837 43.3055 8.26906 34.6278 14.5622 33.197C19.8084 32.0512 25.4327 30.6204 31.057 29.0965L39.8336 26.6131Z" fill="#00A0E9"/>
<path d="M332.79 46.2601C342.23 46.2601 350.815 46.3532 356.055 46.5451C362.732 46.7371 362.924 38.0593 356.247 37.9604C351.763 37.8673 342.992 37.7685 332.982 37.7685H323.351C312.672 37.7685 302.087 37.8615 295.026 38.0535C288.733 38.1465 289.303 46.8243 295.026 46.6382C302.558 46.4463 312.858 46.2543 323.159 46.2543H332.79V46.2601Z" fill="#00A0E9"/>
<path d="M131.573 42.4447C137.866 40.3451 144.444 38.1523 150.836 36.1515C155.605 34.7207 161.515 37.2973 159.514 43.2066C157.321 49.6917 153.029 55.316 148.259 59.5153C142.821 64.2846 137.482 57.3225 142.344 53.3152C145.014 51.2155 147.684 47.9759 149.114 44.9224L149.207 44.8293C145.299 45.9751 139.669 47.8828 133.76 49.9767L126.036 52.7394C122.028 54.1702 118.312 55.6009 115.258 56.7467C109.634 58.8464 107.249 50.8316 112.589 49.0228C115.927 47.877 119.644 46.5451 123.744 45.1143L131.573 42.4447Z" fill="#00A0E9"/>
</svg>
