<svg width="1245" height="145" viewBox="0 0 1245 145" fill="none" xmlns="http://www.w3.org/2000/svg">
<path d="M126.249 21L13 134.249" stroke="#FFED00" stroke-width="20" stroke-linecap="round" stroke-linejoin="round"/>
<path d="M211.498 21L98.249 134.249" stroke="#FFED00" stroke-width="20" stroke-linecap="round" stroke-linejoin="round"/>
<path d="M296.747 21L183.498 134.249" stroke="#FFED00" stroke-width="20" stroke-linecap="round" stroke-linejoin="round"/>
<path d="M381.996 21L268.747 134.249" stroke="#FFED00" stroke-width="20" stroke-linecap="round" stroke-linejoin="round"/>
<path d="M467.245 21L353.996 134.249" stroke="#FFED00" stroke-width="20" stroke-linecap="round" stroke-linejoin="round"/>
<path d="M552.494 21L439.245 134.249" stroke="#FFED00" stroke-width="20" stroke-linecap="round" stroke-linejoin="round"/>
<path d="M637.743 21L524.494 134.249" stroke="#FFED00" stroke-width="20" stroke-linecap="round" stroke-linejoin="round"/>
<path d="M722.992 21L609.743 134.249" stroke="#FFED00" stroke-width="20" stroke-linecap="round" stroke-linejoin="round"/>
<path d="M808.241 21L694.992 134.249" stroke="#FFED00" stroke-width="20" stroke-linecap="round" stroke-linejoin="round"/>
<path d="M893.49 21L780.241 134.249" stroke="#FFED00" stroke-width="20" stroke-linecap="round" stroke-linejoin="round"/>
<path d="M978.739 21L865.49 134.249" stroke="#FFED00" stroke-width="20" stroke-linecap="round" stroke-linejoin="round"/>
<path d="M1063.99 21L950.739 134.249" stroke="#FFED00" stroke-width="20" stroke-linecap="round" stroke-linejoin="round"/>
<path d="M1149.24 21L1035.99 134.249" stroke="#FFED00" stroke-width="20" stroke-linecap="round" stroke-linejoin="round"/>
<path d="M1234.49 21L1121.24 134.249" stroke="#FFED00" stroke-width="20" stroke-linecap="round" stroke-linejoin="round"/>
<path d="M123.249 10L10 123.249" stroke="black" stroke-width="20" stroke-linecap="round" stroke-linejoin="round"/>
<path d="M208.498 10L95.249 123.249" stroke="black" stroke-width="20" stroke-linecap="round" stroke-linejoin="round"/>
<path d="M293.747 10L180.498 123.249" stroke="black" stroke-width="20" stroke-linecap="round" stroke-linejoin="round"/>
<path d="M378.996 10L265.747 123.249" stroke="black" stroke-width="20" stroke-linecap="round" stroke-linejoin="round"/>
<path d="M464.245 10L350.996 123.249" stroke="black" stroke-width="20" stroke-linecap="round" stroke-linejoin="round"/>
<path d="M549.494 10L436.245 123.249" stroke="black" stroke-width="20" stroke-linecap="round" stroke-linejoin="round"/>
<path d="M634.743 10L521.494 123.249" stroke="black" stroke-width="20" stroke-linecap="round" stroke-linejoin="round"/>
<path d="M719.992 10L606.743 123.249" stroke="black" stroke-width="20" stroke-linecap="round" stroke-linejoin="round"/>
<path d="M805.241 10L691.992 123.249" stroke="black" stroke-width="20" stroke-linecap="round" stroke-linejoin="round"/>
<path d="M890.49 10L777.241 123.249" stroke="black" stroke-width="20" stroke-linecap="round" stroke-linejoin="round"/>
<path d="M975.739 10L862.49 123.249" stroke="black" stroke-width="20" stroke-linecap="round" stroke-linejoin="round"/>
<path d="M1060.99 10L947.739 123.249" stroke="black" stroke-width="20" stroke-linecap="round" stroke-linejoin="round"/>
<path d="M1146.24 10L1032.99 123.249" stroke="black" stroke-width="20" stroke-linecap="round" stroke-linejoin="round"/>
<path d="M1231.49 10L1118.24 123.249" stroke="black" stroke-width="20" stroke-linecap="round" stroke-linejoin="round"/>
</svg>
