<svg width="380" height="310" viewBox="0 0 380 310" fill="none" xmlns="http://www.w3.org/2000/svg">
<path d="M-28.1421 20.9394C-11.6462 30.4633 0.153072 10.0263 16.6424 19.5465C33.1383 29.0704 21.339 49.5073 37.8349 59.0312C54.3307 68.5551 66.13 48.1181 82.6259 57.642C99.1217 67.1659 87.3224 87.6029 103.818 97.1267C120.314 106.651 132.113 86.2137 148.609 95.7376C165.105 105.261 153.306 125.698 169.802 135.222C186.298 144.746 198.097 124.309 214.593 133.833C231.089 143.357 219.289 163.794 235.785 173.318C252.281 182.842 264.08 162.405 280.576 171.929C297.072 181.453 285.273 201.889 301.769 211.413C318.264 220.937 330.064 200.5 346.566 210.028C363.062 219.552 351.263 239.989 367.765 249.516" stroke="#FF2626" stroke-width="10" stroke-miterlimit="10" stroke-linecap="round"/>
<path d="M-44.0708 48.5288C-27.5749 58.0526 -15.7756 37.6157 0.713732 47.1358C17.2096 56.6597 5.41033 77.0967 21.9062 86.6206C38.402 96.1445 50.2013 75.7075 66.6972 85.2314C83.193 94.7553 71.3937 115.192 87.8896 124.716C104.385 134.24 116.185 113.803 132.681 123.327C149.176 132.851 137.377 153.288 153.873 162.812C170.369 172.336 182.168 151.899 198.664 161.422C215.16 170.946 203.361 191.383 219.856 200.907C236.352 210.431 248.152 189.994 264.647 199.518C281.143 209.042 269.344 229.479 285.84 239.003C302.336 248.527 314.135 228.09 330.637 237.617C347.133 247.141 335.334 267.578 351.836 277.106" stroke="#FC983B" stroke-width="10" stroke-miterlimit="10" stroke-linecap="round"/>
<path d="M-60.0005 76.1191C-43.5046 85.643 -31.7053 65.206 -15.216 74.7262C1.2799 84.25 -10.5194 104.687 5.9765 114.211C22.4724 123.735 34.2716 103.298 50.7675 112.822C67.2633 122.346 55.464 142.783 71.9599 152.306C88.4558 161.83 100.255 141.393 116.751 150.917C133.247 160.441 121.447 180.878 137.943 190.402C154.439 199.926 166.238 179.489 182.734 189.013C199.23 198.537 187.431 218.974 203.927 228.497C220.423 238.021 232.222 217.584 248.718 227.108C265.214 236.632 253.414 257.069 269.91 266.593C286.406 276.117 298.205 255.68 314.708 265.208C331.203 274.732 319.404 295.168 335.906 304.696" stroke="#00FFF0" stroke-width="10" stroke-miterlimit="10" stroke-linecap="round"/>
</svg>
