<svg width="463" height="95" viewBox="0 0 463 95" fill="none" xmlns="http://www.w3.org/2000/svg">
<path d="M229.461 63.464C236.429 63.464 242.078 57.8154 242.078 50.8474C242.078 43.8794 236.429 38.2307 229.461 38.2307C222.493 38.2307 216.845 43.8794 216.845 50.8474C216.845 57.8154 222.493 63.464 229.461 63.464Z" fill="black"/>
<path d="M80.8018 80.6427C76.5848 79.9303 73.1721 79.103 70.3454 78.0803C75.315 76.0637 77.4351 74.3287 77.4351 70.8872C77.4351 69.8186 77.1478 68.7902 76.648 67.8709C80.3192 67.7445 83.0425 65.0098 83.0425 61.419C83.0425 58.3337 80.7156 55.0532 76.4009 55.0532L65.4849 55.1279V53.1974L72.609 53.2607C76.4239 53.2607 79.2793 50.4857 79.2793 46.8029C79.2793 43.7177 76.9525 40.4372 72.6377 40.4372H72.6263H72.6148L65.4906 40.5004V38.3459C65.4906 37.8748 65.4331 37.4209 65.3297 36.99C65.3642 36.99 65.3929 36.99 65.4274 36.99C75.0048 36.8119 79.6527 32.681 79.6527 24.3733C79.6527 20.1563 79.6527 11.3775 66.565 11.0213C60.4635 10.8374 52.4947 10.8374 44.7903 10.8374C36.7756 10.8374 29.2091 10.8374 23.2799 11.0213C15.8972 11.2338 11.1229 15.7152 11.1229 22.4429V22.6268V22.6497V22.6727C11.1574 25.2523 11.2263 27.9181 11.2895 30.5035C11.3872 34.5023 11.4906 38.6332 11.4906 42.6721C11.4906 56.9836 10.2841 71.7375 1.54548 82.7053L1.53399 82.7168L1.5225 82.7283C0.522818 84.0095 0 85.4458 0 86.8821C0 90.4442 3.22885 93.3398 7.19311 93.3398C9.49697 93.3398 11.5997 92.3746 13.1165 90.6223C18.1953 84.9747 21.7057 77.5001 23.797 67.8422C24.0498 67.8652 24.3026 67.8767 24.5611 67.8767H24.5784H24.5956L29.3182 67.8192V80.0912C26.4801 80.7231 24.0555 81.1885 22.4009 81.4815L22.3837 81.4873L22.3664 81.493C18.8848 82.1652 16.5407 84.8828 16.5407 88.2667C16.5407 91.5301 18.9652 95.0002 23.458 95.0002C24.8599 95.0002 42.1934 91.1911 51.8053 87.043L51.8283 87.0315L51.8513 87.02C53.1669 86.4225 54.2413 85.6124 55.0227 84.6702C63.8302 92.3516 74.7003 94.4429 78.2452 94.4429C83.1516 94.4429 86.0817 90.5993 86.0817 86.8821C86.0817 83.613 83.9617 81.1138 80.8018 80.6427ZM26.0492 24.3848C26.0779 23.816 26.2905 23.6609 26.9397 23.6609H26.9627H26.9856C34.4086 23.5403 41.2225 23.477 47.255 23.477C53.2991 23.477 59.2914 23.569 64.353 23.6609C64.5656 23.6724 64.738 23.6839 64.8816 23.7011V24.2297C64.7839 24.2469 64.6575 24.2584 64.5081 24.2642C59.5787 24.4423 52.7303 24.5399 45.2327 24.5399C38.9761 24.5342 32.3805 24.4652 26.0492 24.3848ZM25.8021 53.0308C26.4169 53.186 27.0488 53.2607 27.6808 53.2607H27.7728H27.79H27.8072L32.6218 53.2032V55.1221L25.6527 55.0647C25.7044 54.3982 25.7561 53.7203 25.8021 53.0308ZM46.1519 37.1738C48.1341 37.1738 50.0817 37.1623 51.9662 37.1508C51.88 37.5358 51.834 37.9322 51.834 38.3459V40.5291H46.2726V38.3459C46.2726 37.9437 46.2324 37.5473 46.1519 37.1738ZM46.2726 53.1687H51.834V55.1451H46.2726V53.1687ZM26.233 38.7136V37.0877C28.3415 37.0934 30.5133 37.1049 32.7597 37.1221C32.6677 37.5128 32.6218 37.9265 32.6218 38.3459V40.4946L27.8072 40.4372H27.79H27.7728C27.2269 40.4372 26.7099 40.4946 26.2215 40.5923C26.2273 39.9718 26.233 39.3513 26.233 38.7136ZM43.0552 76.5808V67.6928H44.2905C45.0603 70.3759 46.0658 72.8061 47.255 75.0008C47.1976 75.0238 47.1459 75.0468 47.0884 75.0698C45.7498 75.6271 44.3996 76.1327 43.0552 76.5808ZM58.0504 67.7273L61.7102 67.756C60.7048 68.2271 59.7396 68.6523 58.7629 69.0659C58.5158 68.6408 58.2803 68.1927 58.0504 67.7273Z" fill="black"/>
<path d="M448.552 80.6427C444.335 79.9303 440.923 79.103 438.096 78.0803C443.066 76.0637 445.186 74.3287 445.186 70.8872C445.186 69.8186 444.898 68.7902 444.398 67.8709C448.07 67.7445 450.793 65.0098 450.793 61.419C450.793 58.3337 448.466 55.0532 444.151 55.0532L433.235 55.1279V53.1974L440.36 53.2607C444.174 53.2607 447.03 50.4857 447.03 46.8029C447.03 43.7177 444.703 40.4372 440.388 40.4372H440.377H440.365L433.241 40.5004V38.3459C433.241 37.8748 433.184 37.4209 433.08 36.99C433.115 36.99 433.143 36.99 433.178 36.99C442.755 36.8119 447.403 32.681 447.403 24.3733C447.403 20.1563 447.403 11.3775 434.315 11.0213C428.214 10.8374 420.245 10.8374 412.541 10.8374C404.526 10.8374 396.96 10.8374 391.03 11.0213C383.648 11.2338 378.873 15.7152 378.873 22.4429V22.6268V22.6497V22.6727C378.908 25.2523 378.977 27.9181 379.04 30.5035C379.138 34.5023 379.241 38.6332 379.241 42.6721C379.241 56.9836 378.035 71.7375 369.296 82.7053L369.284 82.7168L369.273 82.7283C368.273 84.0095 367.75 85.4458 367.75 86.8821C367.75 90.4442 370.979 93.3398 374.944 93.3398C377.247 93.3398 379.35 92.3746 380.867 90.6223C385.946 84.9747 389.456 77.5001 391.547 67.8422C391.8 67.8652 392.053 67.8767 392.312 67.8767H392.329H392.346L397.069 67.8192V80.0912C394.231 80.7231 391.806 81.1885 390.151 81.4815L390.134 81.4873L390.117 81.493C386.635 82.1652 384.291 84.8828 384.291 88.2667C384.291 91.5301 386.716 95.0002 391.209 95.0002C392.61 95.0002 409.944 91.1911 419.556 87.043L419.579 87.0315L419.602 87.02C420.917 86.4225 421.992 85.6124 422.773 84.6702C431.581 92.3516 442.451 94.4429 445.996 94.4429C450.902 94.4429 453.832 90.5993 453.832 86.8821C453.826 83.613 451.706 81.1138 448.552 80.6427ZM429.455 67.756C428.449 68.2271 427.484 68.6523 426.508 69.0659C426.261 68.6408 426.025 68.1927 425.795 67.7273L429.455 67.756ZM393.8 24.3848C393.828 23.816 394.041 23.6609 394.69 23.6609H394.713H394.736C402.159 23.5403 408.973 23.477 415.006 23.477C421.05 23.477 427.042 23.569 432.104 23.6609C432.316 23.6724 432.488 23.6839 432.632 23.7011V24.2297C432.534 24.2469 432.408 24.2584 432.259 24.2642C427.329 24.4423 420.481 24.5399 412.983 24.5399C406.721 24.5342 400.131 24.4652 393.8 24.3848ZM393.547 53.0308C394.162 53.186 394.794 53.2607 395.426 53.2607H395.518H395.535H395.552L400.367 53.2032V55.1221L393.397 55.0647C393.449 54.3982 393.501 53.7203 393.547 53.0308ZM413.897 37.1738C415.879 37.1738 417.826 37.1623 419.711 37.1508C419.625 37.5358 419.579 37.9322 419.579 38.3459V40.5291H414.017V38.3459C414.017 37.9437 413.977 37.5473 413.897 37.1738ZM414.017 53.1687H419.579V55.1451H414.017V53.1687ZM393.978 38.7136V37.0877C396.086 37.0934 398.258 37.1049 400.504 37.1221C400.412 37.5128 400.367 37.9265 400.367 38.3459V40.4946L395.552 40.4372H395.535H395.518C394.972 40.4372 394.455 40.4946 393.966 40.5923C393.972 39.9718 393.978 39.3513 393.978 38.7136ZM414.839 75.0698C413.495 75.6271 412.144 76.1327 410.8 76.5808V67.6928H412.035C412.805 70.3759 413.811 72.8061 415 75.0008C414.948 75.0238 414.896 75.0411 414.839 75.0698Z" fill="black"/>
<path d="M145.189 69.3817V49.0606L171.06 49.3077H171.181C174.668 49.3077 178.374 46.8832 178.374 42.3903C178.374 38.9949 175.823 35.3811 171.089 35.3811H103.708C99.0487 35.3811 96.6069 38.9087 96.6069 42.3903C96.6069 44.1656 97.2389 45.8375 98.388 47.1015C99.6807 48.5206 101.536 49.3077 103.616 49.3077H103.708L130.251 49.0606V76.5863C130.251 78.4593 129.826 79.0855 129.642 79.2636C129.292 79.6141 128.493 79.6888 127.884 79.6888C126.471 79.6888 124.615 79.2636 123.34 78.9476L123.277 78.9304L123.208 78.9189L123.001 78.8787C122.553 78.7868 122.053 78.6834 121.45 78.6834C117.572 78.6834 114.532 81.9639 114.532 86.1523C114.532 89.5018 116.29 92.0871 119.479 93.4373C121.547 94.3163 124.276 94.7242 128.068 94.7242C140.018 94.7242 145.465 87.2783 145.465 80.361V80.0852V80.0508V80.0163L145.189 69.3817Z" fill="black"/>
<path d="M123.604 65.7737C126.144 61.6313 126.437 59.8388 126.437 58.8449C126.437 56.7995 125.495 54.7829 123.846 53.3122C122.335 51.962 120.393 51.1921 118.508 51.1921C115.762 51.1921 113.475 52.6974 112.234 55.3173C109.04 62.0507 104.243 67.6582 98.3595 71.519C95.9752 73.1047 94.6768 75.3281 94.6768 77.7814C94.6768 81.9065 98.3825 85.526 102.605 85.526C104.771 85.526 107.305 84.2735 110.338 81.6882C113.171 79.2751 115.86 76.2244 117.612 74.0872C119.887 71.3122 122.019 68.3591 123.604 65.7737Z" fill="black"/>
<path d="M111.063 28.8086H163.368C168.148 28.8086 170.653 25.281 170.653 21.7993C170.653 18.4038 168.102 14.79 163.368 14.79H111.063C106.403 14.79 103.961 18.3177 103.961 21.7993C103.961 25.1948 106.449 28.8086 111.063 28.8086Z" fill="black"/>
<path d="M169.791 60.5628C166.861 57.7189 159.553 51.1003 155.002 51.1003C151.004 51.1003 147.625 54.3522 147.625 58.2015C147.625 60.4537 148.843 62.5794 150.969 64.0502C156.766 68.1581 161.914 73.7713 165.091 79.4591C166.51 82.0445 168.964 83.5957 171.641 83.5957C175.99 83.5957 179.661 79.8785 179.661 75.4834C179.661 70.8412 173.479 64.1421 169.791 60.5628Z" fill="black"/>
<path d="M351.267 52.3872C347.062 52.3872 343.891 55.3632 343.891 59.3045V59.4883V59.5401V59.5917C343.913 60.2007 343.936 60.8672 343.965 61.5681C344.057 63.9697 344.166 66.6872 344.166 69.3243C344.166 77.4079 343.391 77.4481 340.828 77.5803C337.542 77.7239 333.233 77.8158 328.493 77.8446V53.8005C332.561 53.7718 336.582 53.6798 340.259 53.5362C349.366 53.1685 355.215 47.5266 355.519 38.8168C355.611 36.1969 355.703 33.4104 355.703 30.7216C355.703 27.9869 355.611 25.2694 355.519 22.977C355.387 18.9381 352.129 15.9907 347.774 15.9907C343.569 15.9907 340.397 18.9668 340.397 22.9081V23.0919V23.1436V23.1953C340.426 23.9652 340.461 24.7753 340.495 25.6084C340.581 27.6767 340.673 29.8196 340.673 31.9224C340.673 39.6096 340.041 39.6326 337.387 39.713C334.554 39.782 331.55 39.8509 328.505 39.9199L328.585 15.3817C328.585 11.3658 325.327 8.45288 320.84 8.45288C316.531 8.45288 313.28 11.429 313.28 15.3702L313.36 39.9831C308.31 39.9716 304.656 39.8854 302.978 39.3281C302.318 39.1098 302.093 39.0351 302.019 36.6565C302.019 35.8924 301.996 35.0708 301.973 34.2033C301.95 33.2496 301.927 32.2614 301.927 31.279C301.927 28.435 302.019 25.4705 302.111 22.9196V22.8678V22.8161V22.6323C302.111 18.2429 298.267 15.623 294.55 15.623C290.35 15.623 287.213 18.6106 287.081 22.7242V22.7702V22.8161C287.081 23.9996 287.058 25.2406 287.035 26.5563C287.012 27.9409 286.989 29.3715 286.989 30.8136C286.989 32.3131 287.012 33.7724 287.035 35.1857C287.058 36.4957 287.081 37.7309 287.081 38.9029V38.9374V38.9719C287.19 43.5509 288.512 47.136 291.005 49.6179C293.458 52.0539 296.997 53.3754 301.519 53.542C305.075 53.6913 309.126 53.7832 313.366 53.8062V77.8446C308.781 77.8158 304.57 77.7239 301.289 77.5803C299.192 77.4768 299.06 77.1609 298.951 76.8851C298.428 75.6039 298.428 72.3578 298.428 68.5946C298.428 65.2854 298.526 61.7233 298.612 59.316V59.2643V59.2126V59.0287C298.612 54.6393 294.768 52.0195 291.051 52.0195C286.851 52.0195 283.714 55.007 283.582 59.1206V59.1666V59.2126C283.582 60.3616 283.559 61.66 283.542 63.0389C283.519 64.6304 283.49 66.2735 283.49 67.9454C283.49 69.6805 283.513 71.3524 283.542 72.9668C283.565 74.3399 283.582 75.6326 283.582 76.7702V76.8047V76.8391C283.8 86.0144 288.925 91.2541 298.009 91.593C303.099 91.8401 310.625 91.9607 320.375 91.9607C330.222 91.9607 338.082 91.8343 343.735 91.593C352.704 91.3402 358.696 85.4915 359.006 76.6897C359.087 74.4606 359.19 71.1168 359.19 67.8592C359.19 65.3198 359.127 62.4644 359.006 59.3792C358.88 55.3345 355.622 52.3872 351.267 52.3872Z" fill="black"/>
<path d="M235.207 54.8462C229.783 54.8462 225.463 50.5257 225.463 45.1022C225.463 39.6786 229.783 35.3582 235.207 35.3582C240.63 35.3582 244.951 39.6786 244.951 45.1022C244.957 50.5257 240.63 54.8462 235.207 54.8462Z" stroke="black" stroke-width="10"/>
<path d="M235.207 35.358C240.63 35.358 244.951 39.6785 244.951 45.102C244.951 50.5256 240.63 54.846 235.207 54.846C229.783 54.846 225.463 50.5256 225.463 45.102C225.463 39.6785 229.783 35.358 235.207 35.358ZM235.207 34.7834C229.421 34.7834 224.888 39.3165 224.888 45.102C224.888 50.8875 229.421 55.4205 235.207 55.4205C240.992 55.4205 245.525 50.8875 245.525 45.102C245.525 39.3165 240.998 34.7834 235.207 34.7834Z" stroke="black" stroke-width="10"/>
<path d="M86.1047 77.7354C78.4692 76.4485 72.9537 74.7019 68.8171 71.9442C78.8369 68.451 80.3077 67.4399 80.3077 65.1418C80.3077 63.1194 78.3773 61.2809 76.263 61.2809C75.6195 61.2809 74.9761 61.3728 74.3326 61.7405C70.5637 63.7629 67.714 65.1418 64.4967 66.4287C64.129 66.6126 63.7613 66.7964 63.4855 66.9803C61.8308 64.7741 60.5439 62.1083 59.5327 59.0747L82.1462 59.2586C84.6339 59.2586 85.9151 57.512 85.9151 55.6735C85.9151 53.9269 84.6339 52.1804 82.1462 52.1804L68.3575 52.2723V44.5506H60.452V52.2723H49.1452V44.5506H41.2397V52.2723L30.3007 52.1804C29.4734 52.1804 28.738 52.3642 28.1864 52.64C28.9218 46.1134 29.1057 39.4029 29.1057 32.9681V28.4638C35.9081 28.4638 43.5378 28.5557 50.9837 28.5557C58.3377 28.5557 65.4159 28.4638 71.1152 28.3719C80.8593 28.188 82.5139 23.6837 82.5139 18.6279C82.5139 14.0316 82.33 8.42423 72.2183 8.14845C66.1513 7.9646 58.3377 7.9646 50.5241 7.9646C42.7105 7.9646 34.9888 7.9646 29.1057 8.14845C22.7628 8.3323 19.7293 11.9174 19.7293 16.6975C19.7293 16.6975 19.7293 16.7894 19.7293 16.8813C19.8213 23.408 20.097 30.2104 20.097 36.9209C20.097 52.3642 18.5343 67.4399 9.52569 78.7466C8.88222 79.5739 8.60645 80.4013 8.60645 81.1366C8.60645 83.159 10.6288 84.7217 12.9269 84.7217C14.2139 84.7217 15.5927 84.2621 16.6958 82.9752C22.579 76.4485 25.7044 67.7157 27.3591 58.2474C28.0026 58.799 29.0137 59.2586 30.3007 59.2586L37.9304 59.1667V76.6324L45.9279 74.7019V59.0747H52.2707C57.3265 81.6882 79.94 85.8248 83.9904 85.8248C87.2078 85.8248 88.9544 83.3428 88.9544 81.1366C88.9544 79.482 88.0351 78.0112 86.1047 77.7354ZM32.6907 15.0428C38.2981 14.9509 45.6521 14.859 53.0061 14.859C59.0731 14.859 65.0482 14.9509 70.196 15.0428C72.3103 15.1347 73.4134 15.5944 73.5053 17.3409C73.5053 19.1794 73.5053 19.1794 73.5053 19.1794C73.4134 20.2825 72.586 21.2937 70.3798 21.3856C65.2321 21.5694 58.2458 21.6614 50.9837 21.6614C43.6298 21.6614 35.9081 21.5695 29.0137 21.4775L28.9218 18.8117C28.9218 16.5136 30.3926 15.0428 32.6907 15.0428ZM64.4047 29.6588C62.4743 29.6588 60.452 30.67 60.452 32.6004V37.6563H68.3575V32.6004C68.3575 30.67 66.4271 29.6588 64.4047 29.6588ZM45.1925 29.6588C43.2621 29.6588 41.2397 30.67 41.2397 32.6004V37.6563H49.1452V32.6004C49.1452 30.67 47.2148 29.6588 45.1925 29.6588Z" stroke="black" stroke-width="10"/>
<path d="M50.5239 7.96442C58.3375 7.96442 66.1511 7.96443 72.2182 8.14828C82.3299 8.42405 82.5137 14.0315 82.5137 18.6277C82.5137 23.6835 80.8591 28.1879 71.1151 28.3717C65.4157 28.4636 58.3375 28.5556 50.9836 28.5556C43.5377 28.5556 35.9079 28.4636 29.1055 28.4636V32.968C29.1055 39.4027 28.9216 46.1132 28.1862 52.6398C28.7378 52.3641 29.4732 52.1802 30.3005 52.1802L41.2395 52.2721V44.5504H49.1451V52.2721H60.4518V44.5504H68.3573V52.2721L82.146 52.1802C84.6337 52.1802 85.9149 53.9268 85.9149 55.6733C85.9149 57.5118 84.6337 59.2584 82.146 59.2584L59.5326 59.0746C60.5437 62.1081 61.8307 64.7739 63.4853 66.9801C63.7611 66.7962 64.1288 66.6124 64.4965 66.4285C67.7139 65.1416 70.5635 63.7627 74.3324 61.7404C74.9759 61.3727 75.6194 61.2807 76.2628 61.2807C78.3771 61.2807 80.3075 63.1193 80.3075 65.1416C80.3075 67.4397 78.8367 68.4509 68.8169 71.944C72.9536 74.7017 78.469 76.4483 86.1045 77.7353C88.035 78.011 88.9542 79.4818 88.9542 81.1365C88.9542 83.3427 87.2076 85.8247 83.9903 85.8247C79.9398 85.8247 57.3264 81.688 52.2705 59.0746H45.9277V74.7018L37.9302 76.6322V59.1665L30.3005 59.2584C29.0136 59.2584 28.0024 58.7988 27.3589 58.2472C25.7043 67.7155 22.5788 76.4483 16.6956 82.975C15.5925 84.2619 14.2137 84.7215 12.9267 84.7215C10.6286 84.7215 8.60627 83.1588 8.60627 81.1365C8.60627 80.4011 8.88204 79.5738 9.52551 78.7464C18.5341 67.4397 20.0969 52.3641 20.0969 36.9207C20.0969 30.2102 19.8211 23.4078 19.7292 16.8811C19.7292 16.7892 19.7292 16.6973 19.7292 16.6973C19.7292 11.9172 22.7627 8.33212 29.1055 8.14828C34.9887 7.96443 42.7103 7.96442 50.5239 7.96442ZM50.9836 21.6612C58.2456 21.6612 65.2319 21.5693 70.3797 21.3854C72.5859 21.2935 73.4132 20.2823 73.5051 19.1792C73.5051 19.1792 73.5051 19.1792 73.5051 17.3407C73.4132 15.5942 72.3101 15.1346 70.1958 15.0426C65.048 14.9507 59.0729 14.8588 53.0059 14.8588C45.6519 14.8588 38.2979 14.9507 32.6905 15.0426C30.3924 15.0426 28.9216 16.5134 28.9216 18.8115L29.0135 21.4774C35.9079 21.5693 43.6296 21.6612 50.9836 21.6612ZM64.4046 29.6587C66.4269 29.6587 68.3573 30.6698 68.3573 32.6002V37.6561H60.4518V32.6002C60.4518 30.6698 62.4741 29.6587 64.4046 29.6587ZM45.1923 29.6587C47.2146 29.6587 49.1451 30.6698 49.1451 32.6002V37.6561H41.2395V32.6002C41.2395 30.6698 43.2619 29.6587 45.1923 29.6587ZM50.5239 7.38989C42.5322 7.38989 34.9772 7.3899 29.0882 7.57375C22.8718 7.75185 19.1546 11.1646 19.1546 16.6973V16.8811C19.1891 19.455 19.258 22.1208 19.3212 24.6947C19.4189 28.7049 19.5223 32.853 19.5223 36.9207C19.5223 61.907 14.2424 71.9038 9.07738 78.3902C8.39369 79.2693 8.03174 80.2172 8.03174 81.1365C8.03174 83.4288 10.2264 85.2961 12.9267 85.2961C14.0815 85.2961 15.7534 84.9571 17.1323 83.3484C22.349 77.5629 25.8307 69.6574 27.7668 59.2182C28.3643 59.5399 29.2031 59.8329 30.3005 59.8329L37.3557 59.7468V76.6322V77.3618L38.0624 77.1895L46.0598 75.259L46.5022 75.1556V74.7018V59.6491H51.8109C54.6203 71.5246 62.2616 78.0398 68.2194 81.4295C75.3551 85.4857 82.1633 86.3992 83.9845 86.3992C87.4489 86.3992 89.523 83.7219 89.523 81.1365C89.523 79.0165 88.213 77.4538 86.1792 77.1665C78.9631 75.9485 73.936 74.3685 70.1211 72.0934C79.2332 68.8818 80.8763 67.7614 80.8763 65.1416C80.8763 62.8205 78.6759 60.7062 76.2571 60.7062C75.7056 60.7062 74.884 60.7637 74.0394 61.2405C70.1556 63.3261 67.3232 64.6762 64.2724 65.8942L64.2494 65.9057L64.2265 65.9172C64.0254 66.0149 63.8243 66.1183 63.6289 66.2217C62.3363 64.4005 61.2504 62.2402 60.3254 59.6548L82.1288 59.8329C84.9842 59.8329 86.478 57.7416 86.478 55.6733C86.478 53.651 84.9842 51.6057 82.1345 51.6057L68.9204 51.6918V44.5504V43.9759H68.3458H60.4403H59.8658V44.5504V51.6976H49.7081V44.5504V43.9759H49.1336H41.228H40.6535V44.5504V51.6918L30.2948 51.6057C29.7949 51.6057 29.3008 51.6689 28.8469 51.7838C29.41 46.4292 29.6685 40.4139 29.6685 32.968V29.0382C32.8169 29.0382 36.086 29.0611 39.5389 29.0841C41.2051 29.0956 42.8942 29.1071 44.589 29.1128C42.5495 29.3024 40.6535 30.4975 40.6535 32.6002V37.6561V38.2306H41.228H49.1336H49.7081V37.6561V32.6002C49.7081 30.9916 48.3924 29.3714 45.876 29.1186C47.5766 29.1243 49.2829 29.1301 50.9721 29.1301C58.8029 29.1301 66.2201 29.0267 71.1151 28.9462C81.7209 28.7452 83.0768 23.3273 83.0768 18.6277C83.0768 14.3417 83.0768 7.8725 72.2239 7.57375C66.1569 7.3899 58.2111 7.38989 50.5239 7.38989ZM29.5651 20.9086L29.4904 18.7886C29.4904 16.8352 30.7142 15.6114 32.6848 15.6114C40.1249 15.4908 46.9561 15.4276 53.0001 15.4276C59.0787 15.4276 65.094 15.5195 70.1786 15.6114C72.4307 15.7091 72.8616 16.2492 72.9248 17.3522V19.1505C72.8042 20.4375 71.4598 20.7592 70.3509 20.8109C65.3813 20.989 58.5041 21.0867 50.9778 21.0867C43.98 21.0867 36.5686 21.0005 29.5651 20.9086ZM64.4046 29.0841C62.1524 29.0841 59.8773 30.2906 59.8773 32.6002V37.6561V38.2306H60.4518H68.3573H68.9319V37.6561V32.6002C68.9319 30.8537 67.3749 29.0841 64.4046 29.0841Z" stroke="black" stroke-width="10"/>
<path d="M68.3577 44.5505L78.3774 44.6424C80.8594 44.6424 82.1464 42.8958 82.1464 41.0573C82.1464 39.3108 80.8594 37.5642 78.3774 37.5642L68.3577 37.6561H41.2399L33.5182 37.5642C30.9443 37.5642 29.5654 39.4946 29.5654 41.2412C29.5654 42.9877 30.7605 44.6424 33.4263 44.6424H33.5182L41.2399 44.5505H68.3577Z" stroke="black" stroke-width="10"/>
<path d="M78.3773 37.5643C80.8592 37.5643 82.1462 39.3108 82.1462 41.0574C82.1462 42.8959 80.8592 44.6425 78.3773 44.6425L68.3575 44.5505H41.2397L33.518 44.6425H33.4261C30.7603 44.6425 29.5653 42.9878 29.5653 41.2412C29.5653 39.4947 30.9441 37.5643 33.518 37.5643L41.2397 37.6562H68.3575L78.3773 37.5643ZM78.3773 36.9897L68.3517 37.0817H41.2397L33.5238 36.9897C31.2888 36.9897 28.9907 38.5812 28.9907 41.2412C28.9907 43.2176 30.3638 45.217 33.4261 45.217H33.518L41.2454 45.1251H68.3575L78.3715 45.217C80.5375 45.217 82.7207 43.7864 82.7207 41.0574C82.7207 39.035 81.2327 36.9897 78.3773 36.9897Z" stroke="black" stroke-width="10"/>
<path d="M45.9278 74.7019C49.0533 73.8745 51.811 72.8633 54.0172 71.9441C54.5687 71.6683 55.2122 71.5764 55.6718 71.5764C57.7861 71.5764 59.3488 73.231 59.3488 75.0695C59.3488 76.3565 58.4296 77.7353 56.4072 78.6546C47.0309 82.6993 30.0248 86.3763 29.1975 86.3763C26.5317 86.3763 25.1528 84.4459 25.1528 82.5154C25.1528 80.7689 26.2559 79.0223 28.646 78.5627C31.2199 78.1031 34.4372 77.4596 37.9304 76.6323L45.9278 74.7019Z" stroke="black" stroke-width="10"/>
<path d="M55.6718 71.5765C57.786 71.5765 59.3488 73.2311 59.3488 75.0696C59.3488 76.3565 58.4295 77.7354 56.4072 78.6547C47.0309 82.6993 30.0248 86.3763 29.1975 86.3763C26.5316 86.3763 25.1528 84.4459 25.1528 82.5155C25.1528 80.7689 26.2559 79.0224 28.6459 78.5627C31.2198 78.1031 34.4372 77.4597 37.9303 76.6323L45.9278 74.7019C49.0532 73.8746 51.8109 72.8634 54.0171 71.9442C54.5687 71.6684 55.2121 71.5765 55.6718 71.5765ZM55.6718 71.002C55.3558 71.002 54.5457 71.0422 53.7816 71.4213C51.1157 72.5302 48.427 73.4494 45.7841 74.1446L37.7982 76.0693C33.9488 76.9828 30.6395 77.6205 28.5482 77.994C26.1352 78.4593 24.584 80.2289 24.584 82.5098C24.584 84.716 26.1697 86.9451 29.2032 86.9451C30.2029 86.9451 47.163 83.2681 56.6427 79.1775C58.734 78.2238 59.929 76.73 59.929 75.0638C59.9233 72.8289 58.0159 71.002 55.6718 71.002Z" stroke="black" stroke-width="10"/>
<path d="M453.849 77.7354C446.214 76.4485 440.698 74.7019 436.562 71.9442C446.582 68.451 448.052 67.4399 448.052 65.1418C448.052 63.1194 446.122 61.2809 444.008 61.2809C443.364 61.2809 442.721 61.3728 442.077 61.7405C438.308 63.7629 435.459 65.1418 432.241 66.4287C431.874 66.6126 431.506 66.7964 431.23 66.9803C429.575 64.7741 428.289 62.1083 427.277 59.0747L449.891 59.2586C452.379 59.2586 453.66 57.512 453.66 55.6735C453.66 53.9269 452.379 52.1804 449.891 52.1804L436.102 52.2723V44.5506H428.197V52.2723H416.89V44.5506H408.984V52.2723L398.045 52.1804C397.218 52.1804 396.483 52.3642 395.931 52.64C396.666 46.1134 396.85 39.4029 396.85 32.9681V28.4638C403.653 28.4638 411.282 28.5557 418.728 28.5557C426.082 28.5557 433.161 28.4638 438.86 28.3719C448.604 28.188 450.259 23.6837 450.259 18.6279C450.259 14.0316 450.075 8.42423 439.963 8.14845C433.896 7.9646 426.082 7.9646 418.269 7.9646C410.455 7.9646 402.733 7.9646 396.85 8.14845C390.507 8.3323 387.474 11.9174 387.474 16.6975C387.474 16.6975 387.474 16.7894 387.474 16.8813C387.566 23.408 387.842 30.2104 387.842 36.9209C387.842 52.3642 386.279 67.4399 377.27 78.7466C376.627 79.5739 376.351 80.4013 376.351 81.1366C376.351 83.159 378.373 84.7217 380.672 84.7217C381.958 84.7217 383.337 84.2621 384.44 82.9752C390.324 76.4485 393.449 67.7157 395.104 58.2474C395.747 58.799 396.758 59.2586 398.045 59.2586L405.675 59.1667V76.6324L413.673 74.7019V59.0747H420.015C425.071 81.6882 447.685 85.8248 451.735 85.8248C454.952 85.8248 456.699 83.3428 456.699 81.1366C456.699 79.482 455.78 78.0112 453.849 77.7354ZM400.435 15.0428C406.043 14.9509 413.397 14.859 420.751 14.859C426.818 14.859 432.793 14.9509 437.941 15.0428C440.055 15.1347 441.158 15.5944 441.25 17.3409C441.25 19.1794 441.25 19.1794 441.25 19.1794C441.158 20.2825 440.331 21.2937 438.124 21.3856C432.977 21.5694 425.99 21.6614 418.728 21.6614C411.374 21.6614 403.653 21.5695 396.758 21.4775L396.666 18.8117C396.666 16.5136 398.137 15.0428 400.435 15.0428ZM432.149 29.6588C430.219 29.6588 428.197 30.67 428.197 32.6004V37.6563H436.102V32.6004C436.102 30.67 434.172 29.6588 432.149 29.6588ZM412.937 29.6588C411.007 29.6588 408.984 30.67 408.984 32.6004V37.6563H416.89V32.6004C416.89 30.67 414.959 29.6588 412.937 29.6588Z" stroke="black" stroke-width="10"/>
<path d="M418.269 7.96442C426.083 7.96442 433.896 7.96443 439.963 8.14828C450.075 8.42405 450.259 14.0315 450.259 18.6277C450.259 23.6835 448.604 28.1879 438.86 28.3717C433.161 28.4636 426.083 28.5556 418.729 28.5556C411.283 28.5556 403.653 28.4636 396.851 28.4636V32.968C396.851 39.4027 396.667 46.1132 395.931 52.6398C396.483 52.3641 397.218 52.1802 398.046 52.1802L408.985 52.2721V44.5504H416.89V52.2721H428.197V44.5504H436.102V52.2721L449.891 52.1802C452.379 52.1802 453.66 53.9268 453.66 55.6733C453.66 57.5118 452.379 59.2584 449.891 59.2584L427.278 59.0746C428.289 62.1081 429.576 64.7739 431.23 66.9801C431.506 66.7962 431.874 66.6124 432.242 66.4285C435.459 65.1416 438.309 63.7627 442.078 61.7404C442.721 61.3727 443.364 61.2807 444.008 61.2807C446.122 61.2807 448.053 63.1193 448.053 65.1416C448.053 67.4397 446.582 68.4509 436.562 71.944C440.699 74.7017 446.214 76.4483 453.85 77.7353C455.78 78.011 456.699 79.4818 456.699 81.1365C456.699 83.3427 454.953 85.8247 451.735 85.8247C447.685 85.8247 425.071 81.688 420.016 59.0746H413.673V74.7018L405.675 76.6322V59.1665L398.046 59.2584C396.759 59.2584 395.748 58.7988 395.104 58.2472C393.449 67.7155 390.324 76.4483 384.441 82.975C383.338 84.2619 381.959 84.7215 380.672 84.7215C378.374 84.7215 376.351 83.1588 376.351 81.1365C376.351 80.4011 376.627 79.5738 377.271 78.7464C386.279 67.4397 387.842 52.3641 387.842 36.9207C387.842 30.2102 387.566 23.4078 387.474 16.8811C387.474 16.7892 387.474 16.6973 387.474 16.6973C387.474 11.9172 390.508 8.33212 396.851 8.14828C402.734 7.96443 410.455 7.96442 418.269 7.96442ZM418.729 21.6612C425.991 21.6612 432.977 21.5693 438.125 21.3854C440.331 21.2935 441.158 20.2823 441.25 19.1792C441.25 19.1792 441.25 19.1792 441.25 17.3407C441.158 15.5942 440.055 15.1346 437.941 15.0426C432.793 14.9507 426.818 14.8588 420.751 14.8588C413.397 14.8588 406.043 14.9507 400.436 15.0426C398.138 15.0426 396.667 16.5134 396.667 18.8115L396.759 21.4774C403.653 21.5693 411.375 21.6612 418.729 21.6612ZM432.15 29.6587C434.172 29.6587 436.102 30.6698 436.102 32.6002V37.6561H428.197V32.6002C428.197 30.6698 430.219 29.6587 432.15 29.6587ZM412.937 29.6587C414.96 29.6587 416.89 30.6698 416.89 32.6002V37.6561H408.985V32.6002C408.985 30.6698 411.007 29.6587 412.937 29.6587ZM418.269 7.38989C410.277 7.38989 402.722 7.3899 396.833 7.57375C390.617 7.75185 386.9 11.1646 386.9 16.6973V16.8811C386.934 19.455 387.003 22.1208 387.066 24.6947C387.164 28.7049 387.267 32.853 387.267 36.9207C387.267 61.907 381.988 71.9038 376.823 78.3902C376.139 79.2693 375.777 80.2172 375.777 81.1365C375.777 83.4288 377.972 85.2961 380.672 85.2961C381.827 85.2961 383.499 84.9571 384.877 83.3484C390.094 77.5629 393.576 69.6574 395.512 59.2182C396.109 59.5399 396.948 59.8329 398.046 59.8329L405.101 59.7468V76.6322V77.3618L405.808 77.1895L413.805 75.259L414.247 75.1556V74.7018V59.6491H419.556C422.365 71.5246 430.007 78.0398 435.965 81.4295C443.1 85.4857 449.908 86.3992 451.73 86.3992C455.194 86.3992 457.268 83.7219 457.268 81.1365C457.268 79.0165 455.958 77.4538 453.924 77.1665C446.708 75.9485 441.681 74.3685 437.866 72.0934C446.978 68.8818 448.621 67.7614 448.621 65.1416C448.621 62.8205 446.421 60.7062 444.002 60.7062C443.451 60.7062 442.629 60.7637 441.785 61.2405C437.901 63.3261 435.068 64.6762 432.018 65.8942L431.995 65.9057L431.972 65.9172C431.77 66.0149 431.569 66.1183 431.374 66.2217C430.081 64.4005 428.996 62.2402 428.071 59.6548L449.874 59.8329C452.729 59.8329 454.223 57.7416 454.223 55.6733C454.223 53.651 452.729 51.6057 449.88 51.6057L436.665 51.6918V44.5504V43.9759H436.091H428.185H427.611V44.5504V51.6976H417.453V44.5504V43.9759H416.879H408.973H408.399V44.5504V51.6918L398.04 51.6057C397.54 51.6057 397.046 51.6689 396.592 51.7838C397.155 46.4292 397.414 40.4139 397.414 32.968V29.0382C400.562 29.0382 403.831 29.0611 407.284 29.0841C408.95 29.0956 410.639 29.1071 412.334 29.1128C410.295 29.3024 408.399 30.4975 408.399 32.6002V37.6561V38.2306H408.973H416.879H417.453V37.6561V32.6002C417.453 30.9916 416.138 29.3714 413.621 29.1186C415.322 29.1243 417.028 29.1301 418.717 29.1301C426.548 29.1301 433.965 29.0267 438.86 28.9462C449.466 28.7452 450.822 23.3273 450.822 18.6277C450.822 14.3417 450.822 7.8725 439.969 7.57375C433.902 7.3899 425.956 7.38989 418.269 7.38989ZM397.316 20.9086L397.241 18.7886C397.241 16.8352 398.465 15.6114 400.436 15.6114C407.876 15.4908 414.707 15.4276 420.751 15.4276C426.83 15.4276 432.845 15.5195 437.929 15.6114C440.182 15.7091 440.613 16.2492 440.676 17.3522V19.1505C440.555 20.4375 439.211 20.7592 438.102 20.8109C433.132 20.989 426.255 21.0867 418.729 21.0867C411.725 21.0867 404.314 21.0005 397.316 20.9086ZM432.15 29.0841C429.898 29.0841 427.622 30.2906 427.622 32.6002V37.6561V38.2306H428.197H436.102H436.677V37.6561V32.6002C436.677 30.8537 435.12 29.0841 432.15 29.0841Z" stroke="black" stroke-width="10"/>
<path d="M436.102 44.5505L446.122 44.6424C448.604 44.6424 449.891 42.8958 449.891 41.0573C449.891 39.3108 448.604 37.5642 446.122 37.5642L436.102 37.6561H408.984L401.263 37.5642C398.689 37.5642 397.31 39.4946 397.31 41.2412C397.31 42.9877 398.505 44.6424 401.171 44.6424H401.263L408.984 44.5505H436.102Z" stroke="black" stroke-width="10"/>
<path d="M446.122 37.5643C448.604 37.5643 449.891 39.3108 449.891 41.0574C449.891 42.8959 448.604 44.6425 446.122 44.6425L436.102 44.5505H408.984L401.263 44.6425H401.171C398.505 44.6425 397.31 42.9878 397.31 41.2412C397.31 39.4947 398.689 37.5643 401.263 37.5643L408.984 37.6562H436.102L446.122 37.5643ZM446.122 36.9897L436.096 37.0817H408.984L401.268 36.9897C399.033 36.9897 396.735 38.5812 396.735 41.2412C396.735 43.2176 398.108 45.217 401.171 45.217H401.263L408.99 45.1251H436.102L446.116 45.217C448.282 45.217 450.465 43.7864 450.465 41.0574C450.465 39.035 448.977 36.9897 446.122 36.9897Z" stroke="black" stroke-width="10"/>
<path d="M413.673 74.7019C416.798 73.8745 419.556 72.8633 421.762 71.9441C422.314 71.6683 422.957 71.5764 423.417 71.5764C425.531 71.5764 427.094 73.231 427.094 75.0695C427.094 76.3565 426.175 77.7353 424.152 78.6546C414.776 82.6993 397.77 86.3763 396.943 86.3763C394.277 86.3763 392.898 84.4459 392.898 82.5154C392.898 80.7689 394.001 79.0223 396.391 78.5627C398.965 78.1031 402.182 77.4596 405.675 76.6323L413.673 74.7019Z" stroke="black" stroke-width="10"/>
<path d="M423.417 71.5765C425.531 71.5765 427.094 73.2311 427.094 75.0696C427.094 76.3565 426.175 77.7354 424.152 78.6547C414.776 82.6993 397.77 86.3763 396.943 86.3763C394.277 86.3763 392.898 84.4459 392.898 82.5155C392.898 80.7689 394.001 79.0224 396.391 78.5627C398.965 78.1031 402.182 77.4597 405.675 76.6323L413.673 74.7019C416.798 73.8746 419.556 72.8634 421.762 71.9442C422.314 71.6684 422.957 71.5765 423.417 71.5765ZM423.417 71.002C423.101 71.002 422.291 71.0422 421.527 71.4213C418.861 72.5302 416.172 73.4494 413.529 74.1446L405.543 76.0693C401.694 76.9828 398.385 77.6205 396.293 77.994C393.88 78.4593 392.329 80.2289 392.329 82.5098C392.329 84.716 393.915 86.9451 396.948 86.9451C397.948 86.9451 414.908 83.2681 424.388 79.1775C426.479 78.2238 427.674 76.73 427.674 75.0638C427.668 72.8289 425.761 71.002 423.417 71.002Z" stroke="black" stroke-width="10"/>
<path d="M436.102 44.5505L446.122 44.6424C448.604 44.6424 449.891 42.8958 449.891 41.0573C449.891 39.3108 448.604 37.5642 446.122 37.5642L436.102 37.6561H408.984L401.263 37.5642C398.689 37.5642 397.31 39.4946 397.31 41.2412C397.31 42.9877 398.505 44.6424 401.171 44.6424H401.263L408.984 44.5505H436.102Z" stroke="black" stroke-width="10"/>
<path d="M446.128 37.5643C448.61 37.5643 449.897 39.3108 449.897 41.0574C449.897 42.8959 448.61 44.6425 446.128 44.6425L436.108 44.5505H408.99L401.268 44.6425H401.177C398.511 44.6425 397.316 42.9878 397.316 41.2412C397.316 39.4947 398.695 37.5643 401.268 37.5643L408.99 37.6562H436.108L446.128 37.5643ZM446.128 36.9897L436.102 37.0817H408.99L401.274 36.9897C399.039 36.9897 396.741 38.5812 396.741 41.2412C396.741 43.2176 398.114 45.217 401.177 45.217H401.268L408.996 45.1251H436.108L446.122 45.217C448.288 45.217 450.471 43.7864 450.471 41.0574C450.471 39.035 448.977 36.9897 446.128 36.9897Z" stroke="black" stroke-width="10"/>
<path d="M413.673 74.7019C416.798 73.8745 419.556 72.8633 421.762 71.9441C422.314 71.6683 422.957 71.5764 423.417 71.5764C425.531 71.5764 427.094 73.231 427.094 75.0695C427.094 76.3565 426.175 77.7353 424.152 78.6546C414.776 82.6993 397.77 86.3763 396.943 86.3763C394.277 86.3763 392.898 84.4459 392.898 82.5154C392.898 80.7689 394.001 79.0223 396.391 78.5627C398.965 78.1031 402.182 77.4596 405.675 76.6323L413.673 74.7019Z" stroke="black" stroke-width="10"/>
<path d="M423.417 71.5765C425.531 71.5765 427.094 73.2311 427.094 75.0696C427.094 76.3565 426.175 77.7354 424.152 78.6547C414.776 82.6993 397.77 86.3763 396.943 86.3763C394.277 86.3763 392.898 84.4459 392.898 82.5155C392.898 80.7689 394.001 79.0224 396.391 78.5627C398.965 78.1031 402.182 77.4597 405.675 76.6323L413.673 74.7019C416.798 73.8746 419.556 72.8634 421.762 71.9442C422.314 71.6684 422.957 71.5765 423.417 71.5765ZM423.417 71.002C423.101 71.002 422.291 71.0422 421.527 71.4213C418.861 72.5302 416.172 73.4494 413.529 74.1446L405.543 76.0693C401.694 76.9828 398.385 77.6205 396.293 77.994C393.88 78.4593 392.329 80.2289 392.329 82.5098C392.329 84.716 393.915 86.9451 396.948 86.9451C397.948 86.9451 414.908 83.2681 424.388 79.1775C426.479 78.2238 427.674 76.73 427.674 75.0638C427.668 72.8289 425.761 71.002 423.417 71.002Z" stroke="black" stroke-width="10"/>
<path d="M103.294 72.0362C103.294 70.6573 104.03 69.2784 105.684 68.1753C112.119 63.9468 117.175 57.9717 120.576 50.8015C121.404 49.055 122.782 48.3196 124.253 48.3196C126.643 48.3196 129.309 50.4338 129.309 53.0997C129.309 57.1443 114.509 76.9082 108.35 76.9082C105.593 76.9082 103.294 74.5181 103.294 72.0362ZM176.834 40.6898L148.062 40.414V63.671L148.338 74.3343C148.338 74.4262 148.338 74.5181 148.338 74.61C148.338 79.574 144.569 86.1006 133.813 86.1006C128.114 86.1006 123.15 85.1814 123.15 80.4013C123.15 78.1032 124.621 75.8051 127.195 75.8051C127.563 75.8051 127.93 75.897 128.39 75.9889C130.228 76.4485 132.067 76.8162 133.63 76.8162C136.755 76.8162 138.869 75.4374 138.869 70.8411V40.414L109.453 40.6898H109.361C106.604 40.6898 105.225 38.6675 105.225 36.6451C105.225 34.5309 106.604 32.5085 109.453 32.5085H176.834C179.776 32.5085 181.247 34.6228 181.247 36.6451C181.247 38.6675 179.776 40.6898 176.926 40.6898H176.834Z" stroke="black" stroke-width="10"/>
<path d="M176.835 32.5086C179.776 32.5086 181.247 34.6229 181.247 36.6452C181.247 38.6675 179.776 40.6899 176.926 40.6899H176.835L148.062 40.4141V63.6711L148.338 74.3343C148.338 74.4263 148.338 74.5182 148.338 74.6101C148.338 79.574 144.569 86.1007 133.814 86.1007C128.114 86.1007 123.15 85.1815 123.15 80.4014C123.15 78.1033 124.621 75.8051 127.195 75.8051C127.563 75.8051 127.931 75.8971 128.39 75.989C130.229 76.4486 132.067 76.8163 133.63 76.8163C136.755 76.8163 138.87 75.4374 138.87 70.8412V40.4141L109.454 40.6899H109.362C106.604 40.6899 105.225 38.6675 105.225 36.6452C105.225 34.5309 106.604 32.5086 109.454 32.5086H176.835ZM124.254 48.3196C126.644 48.3196 129.309 50.4339 129.309 53.0997C129.309 57.1444 114.51 76.9082 108.351 76.9082C105.593 76.9082 103.295 74.5182 103.295 72.0362C103.295 70.6574 104.03 69.2785 105.685 68.1754C112.12 63.9468 117.175 57.9717 120.577 50.8016C121.404 49.055 122.783 48.3196 124.254 48.3196ZM176.835 31.9341H109.454C106.156 31.9341 104.651 34.3758 104.651 36.6452C104.651 38.9433 106.271 41.2644 109.362 41.2644H109.454L138.295 40.9944V70.8412C138.295 74.6273 136.899 76.2418 133.63 76.2418C132.343 76.2418 130.769 75.9947 128.528 75.4317L128.275 75.38C127.908 75.3053 127.557 75.2306 127.189 75.2306C124.19 75.2306 122.57 77.8964 122.57 80.4014C122.57 85.9628 128.574 86.6752 133.808 86.6752C145.729 86.6752 148.907 79.0914 148.907 74.6101V74.3343L148.631 63.6538V40.9886L176.823 41.2587H176.921C180.132 41.2587 181.816 38.9376 181.816 36.6395C181.821 34.3011 180.109 31.9341 176.835 31.9341ZM124.254 47.7451C122.404 47.7451 120.916 48.7448 120.06 50.5546C116.681 57.673 111.602 63.5964 105.369 67.6928C103.657 68.8304 102.72 70.3758 102.72 72.0362C102.72 74.9376 105.352 77.4828 108.351 77.4828C112.447 77.4828 118.968 70.0713 121.582 66.8827C125.707 61.8555 129.884 55.507 129.884 53.0997C129.884 50.5718 127.477 47.7451 124.254 47.7451Z" stroke="black" stroke-width="10"/>
<path d="M116.808 20.1905C113.958 20.1905 112.579 18.0762 112.579 16.0539C112.579 13.9396 113.958 11.9172 116.808 11.9172H169.113C172.054 11.9172 173.525 14.0315 173.525 16.0539C173.525 18.1681 172.054 20.1905 169.113 20.1905H116.808Z" stroke="black" stroke-width="10"/>
<path d="M169.113 11.9173C172.054 11.9173 173.525 14.0316 173.525 16.0539C173.525 18.1682 172.054 20.1905 169.113 20.1905H116.807C113.958 20.1905 112.579 18.0763 112.579 16.0539C112.579 13.9397 113.958 11.9173 116.807 11.9173H169.113ZM169.113 11.3428H116.807C113.51 11.3428 112.004 13.7845 112.004 16.0539C112.004 18.3923 113.653 20.7651 116.807 20.7651H169.113C172.537 20.7651 174.1 18.3233 174.1 16.0539C174.1 13.7098 172.387 11.3428 169.113 11.3428Z" stroke="black" stroke-width="10"/>
<path d="M173.341 72.3118C169.848 66.0609 164.333 60.1778 158.357 55.9492C156.887 54.938 156.243 53.6511 156.243 52.4561C156.243 50.2499 158.266 48.2275 160.747 48.2275C165.803 48.2275 182.534 64.1305 182.534 69.7379C182.534 72.6795 179.96 74.9776 177.386 74.9776C175.915 74.9776 174.352 74.1503 173.341 72.3118Z" stroke="black" stroke-width="10"/>
<path d="M160.748 48.2276C165.804 48.2276 182.534 64.1306 182.534 69.738C182.534 72.6796 179.96 74.9777 177.386 74.9777C175.915 74.9777 174.353 74.1504 173.341 72.3119C169.848 66.061 164.333 60.1778 158.358 55.9493C156.887 54.9381 156.243 53.6512 156.243 52.4561C156.243 50.2499 158.266 48.2276 160.748 48.2276ZM160.748 47.6531C157.996 47.6531 155.669 49.8535 155.669 52.4561C155.669 53.9671 156.508 55.3748 158.03 56.4204C164.097 60.7121 169.498 66.6068 172.836 72.5876C173.853 74.4376 175.553 75.5465 177.38 75.5465C180.431 75.5465 183.103 72.8289 183.103 69.7322C183.103 66.5149 178.363 60.7696 173.933 56.4606C169.751 52.3987 163.781 47.6531 160.748 47.6531Z" stroke="black" stroke-width="10"/>
<path d="M331.366 45.194V74.9776C337.065 74.9776 342.58 74.8857 346.717 74.7018C352.141 74.4261 352.784 71.3925 352.784 63.5789C352.784 60.0858 352.6 56.4088 352.508 53.743C352.508 53.6511 352.508 53.6511 352.508 53.5591C352.508 50.8933 354.715 49.5145 357.013 49.5145C359.403 49.5145 361.793 50.8933 361.885 53.743C361.977 56.0411 362.068 59.0746 362.068 62.1081C362.068 65.1416 361.977 68.2671 361.885 70.841C361.609 78.7465 356.185 82.7912 349.383 82.975C343.04 83.2508 334.491 83.3427 326.126 83.3427C317.761 83.3427 309.579 83.2508 303.88 82.975C296.342 82.6993 292.39 78.7465 292.206 71.0248C292.206 68.5429 292.114 65.4174 292.114 62.2001C292.114 59.0746 292.206 55.9492 292.206 53.4672C292.298 50.5256 294.504 49.1467 296.802 49.1467C299.1 49.1467 301.49 50.6175 301.49 53.2834C301.49 53.3753 301.49 53.3753 301.49 53.4672C301.398 56.133 301.306 59.6262 301.306 62.8435C301.306 72.3118 301.398 74.4261 306.914 74.7018C311.05 74.8857 316.382 74.9776 321.989 74.9776V45.194H331.366ZM321.989 37.1046L321.897 9.61914C321.897 6.95332 324.287 5.57446 326.586 5.57446C329.067 5.57446 331.458 6.95332 331.458 9.61914L331.366 37.1046H321.989Z" stroke="black" stroke-width="10"/>
<path d="M326.585 5.57453C329.067 5.57453 331.457 6.95339 331.457 9.6192L331.365 37.1047H321.989L321.897 9.6192C321.897 6.95339 324.287 5.57453 326.585 5.57453ZM331.365 45.1941V74.9777C337.065 74.9777 342.58 74.8858 346.717 74.7019C352.14 74.4261 352.784 71.3926 352.784 63.579C352.784 60.0859 352.6 56.4089 352.508 53.7431C352.508 53.6511 352.508 53.6511 352.508 53.5592C352.508 50.8934 354.714 49.5145 357.012 49.5145C359.402 49.5145 361.793 50.8934 361.884 53.7431C361.976 56.0412 362.068 59.0747 362.068 62.1082C362.068 65.1417 361.976 68.2672 361.884 70.841C361.609 78.7466 356.185 82.7913 349.383 82.9751C343.04 83.2509 334.491 83.3428 326.126 83.3428C317.761 83.3428 309.579 83.2509 303.88 82.9751C296.342 82.6993 292.389 78.7466 292.206 71.0249C292.206 68.5429 292.114 65.4175 292.114 62.2001C292.114 59.0747 292.206 55.9493 292.206 53.4673C292.297 50.5257 294.504 49.1468 296.802 49.1468C299.1 49.1468 301.49 50.6176 301.49 53.2834C301.49 53.3754 301.49 53.3754 301.49 53.4673C301.398 56.1331 301.306 59.6262 301.306 62.8436C301.306 72.3119 301.398 74.4261 306.913 74.7019C311.05 74.8858 316.382 74.9777 321.989 74.9777V45.1941H331.365ZM326.585 5C323.132 5 321.323 7.32109 321.323 9.6192L321.415 37.1047V37.6792H321.989H331.365H331.94V37.1047L332.032 9.6192C332.032 6.58569 329.291 5 326.585 5ZM331.94 44.6195H331.365H321.989H321.415V45.1941V74.4031C315.847 74.3974 310.849 74.2997 306.936 74.1274C302.064 73.8861 301.881 72.6221 301.881 62.8436C301.881 59.4998 301.978 55.909 302.064 53.4845V53.2834C302.064 50.2212 299.353 48.5723 296.802 48.5723C294.303 48.5723 291.734 50.0775 291.631 53.45C291.631 54.6336 291.608 55.9435 291.591 57.3281C291.568 58.9081 291.539 60.5455 291.539 62.2001C291.539 63.918 291.562 65.5784 291.591 67.1871C291.614 68.5659 291.631 69.8701 291.631 71.0249C291.821 79.0511 295.934 83.2624 303.857 83.5496C308.901 83.7909 316.399 83.9173 326.126 83.9173C335.956 83.9173 343.787 83.7909 349.406 83.5496C357.185 83.3371 362.189 78.4765 362.459 70.864C362.539 68.6521 362.643 65.3313 362.643 62.1082C362.643 59.5975 362.58 56.7766 362.459 53.7201C362.356 50.4395 359.563 48.94 357.012 48.94C354.49 48.94 351.934 50.5257 351.934 53.5592V53.7431C351.957 54.3693 351.98 55.03 352.008 55.7309C352.1 58.1497 352.209 60.8902 352.209 63.579C352.209 71.5362 351.485 73.8861 346.688 74.1274C342.833 74.2997 337.611 74.3974 331.94 74.4031V45.1941V44.6195Z" stroke="black" stroke-width="10"/>
<path d="M331.366 45.194C336.33 45.194 341.294 45.1021 345.89 44.9183C352.692 44.6425 358.116 40.8736 358.392 32.9681C358.483 30.3942 358.575 27.6364 358.575 24.9706C358.575 22.3048 358.483 19.639 358.392 17.3409C358.3 14.4912 355.91 13.1123 353.519 13.1123C351.221 13.1123 349.015 14.4912 349.015 17.157C349.015 17.2489 349.015 17.2489 349.015 17.3409C349.107 20.0067 349.291 23.1321 349.291 26.1656C349.291 33.06 349.015 36.645 343.224 36.8289C339.455 36.9208 335.41 37.0128 331.366 37.1047H321.989C306.822 37.1047 305.075 37.0127 304.891 30.9457C304.891 29.383 304.799 27.4526 304.799 25.5222C304.799 22.6725 304.891 19.7309 304.983 17.0651C304.983 16.9732 304.983 16.9732 304.983 16.8812C304.983 14.2154 302.593 12.7446 300.295 12.7446C297.997 12.7446 295.791 14.1235 295.699 17.0651C295.699 19.5471 295.607 22.3048 295.607 25.0625C295.607 27.9122 295.699 30.67 295.699 33.1519C295.883 40.8736 299.835 44.6425 307.373 44.9183C311.786 45.1021 316.842 45.194 321.989 45.194H331.366Z" stroke="black" stroke-width="10"/>
<path d="M300.295 12.7447C302.593 12.7447 304.983 14.2155 304.983 16.8813C304.983 16.9732 304.983 16.9732 304.983 17.0652C304.891 19.731 304.799 22.6726 304.799 25.5222C304.799 27.4526 304.891 29.3831 304.891 30.9458C305.075 37.0128 306.822 37.1048 321.989 37.1048H331.365C335.41 37.0128 339.455 36.9209 343.224 36.829C349.015 36.6451 349.291 33.06 349.291 26.1657C349.291 23.1322 349.107 20.0067 349.015 17.3409C349.015 17.249 349.015 17.249 349.015 17.1571C349.015 14.4913 351.221 13.1124 353.519 13.1124C355.909 13.1124 358.299 14.4913 358.391 17.3409C358.483 19.639 358.575 22.3048 358.575 24.9707C358.575 27.6365 358.483 30.3942 358.391 32.9681C358.116 40.8737 352.692 44.6426 345.89 44.9183C341.293 45.1022 336.329 45.1941 331.365 45.1941H321.989C316.841 45.1941 311.785 45.1022 307.373 44.9183C299.835 44.6426 295.883 40.8737 295.699 33.152C295.699 30.67 295.607 27.9123 295.607 25.0626C295.607 22.3049 295.699 19.5471 295.699 17.0652C295.791 14.1236 297.997 12.7447 300.295 12.7447ZM300.295 12.1702C297.796 12.1702 295.228 13.6754 295.124 17.0479C295.124 18.2717 295.101 19.5184 295.078 20.8455C295.055 22.2187 295.032 23.6435 295.032 25.0626C295.032 26.5391 295.055 27.9927 295.078 29.3945C295.101 30.7102 295.124 31.957 295.124 33.152C295.314 41.0575 299.427 45.2056 307.35 45.4929C311.682 45.671 316.744 45.7686 321.989 45.7686H331.365C336.37 45.7686 341.397 45.671 345.913 45.4929C353.824 45.1711 358.702 40.5002 358.966 32.9911C359.058 30.3885 359.15 27.625 359.15 24.9707C359.15 22.2761 359.058 19.5874 358.966 17.318C358.862 14.0374 356.07 12.5379 353.519 12.5379C350.997 12.5379 348.44 14.1236 348.44 17.1571V17.3409C348.469 18.128 348.504 18.9266 348.538 19.754C348.624 21.8452 348.716 24.0112 348.716 26.1657C348.716 33.5082 348.262 36.0936 343.206 36.2544C339.593 36.3406 335.726 36.4325 331.848 36.5187L331.354 36.5302H321.989C306.396 36.5302 305.627 36.2659 305.466 30.9286C305.466 30.1989 305.443 29.3773 305.425 28.504C305.402 27.5331 305.374 26.5334 305.374 25.5222C305.374 22.6381 305.466 19.6563 305.558 17.0824V16.8813C305.558 13.8191 302.846 12.1702 300.295 12.1702Z" stroke="black" stroke-width="10"/>
<path d="M235.207 54.8462C229.783 54.8462 225.463 50.5257 225.463 45.1022C225.463 39.6786 229.783 35.3582 235.207 35.3582C240.63 35.3582 244.951 39.6786 244.951 45.1022C244.957 50.5257 240.63 54.8462 235.207 54.8462Z" fill="#00A0E9"/>
<path d="M86.1047 77.7354C78.4692 76.4485 72.9537 74.7019 68.8171 71.9442C78.8369 68.451 80.3077 67.4399 80.3077 65.1418C80.3077 63.1194 78.3773 61.2809 76.263 61.2809C75.6196 61.2809 74.9761 61.3728 74.3326 61.7405C70.5637 63.7629 67.714 65.1418 64.4967 66.4287C64.129 66.6126 63.7613 66.7964 63.4855 66.9803C61.8308 64.7741 60.5439 62.1083 59.5327 59.0747L82.1462 59.2586C84.6339 59.2586 85.9151 57.512 85.9151 55.6735C85.9151 53.9269 84.6339 52.1804 82.1462 52.1804L68.3575 52.2723V44.5506H60.452V52.2723H49.1452V44.5506H41.2397V52.2723L30.3007 52.1804C29.4734 52.1804 28.738 52.3642 28.1864 52.64C28.9218 46.1134 29.1057 39.4029 29.1057 32.9681V28.4638C35.9081 28.4638 43.5378 28.5557 50.9837 28.5557C58.3377 28.5557 65.4159 28.4638 71.1152 28.3719C80.8593 28.188 82.5139 23.6837 82.5139 18.6279C82.5139 14.0316 82.33 8.42423 72.2183 8.14845C66.1513 7.9646 58.3377 7.9646 50.5241 7.9646C42.7105 7.9646 34.9888 7.9646 29.1057 8.14845C22.7628 8.3323 19.7293 11.9174 19.7293 16.6975C19.7293 16.6975 19.7293 16.7894 19.7293 16.8813C19.8213 23.408 20.097 30.2104 20.097 36.9209C20.097 52.3642 18.5343 67.4399 9.52569 78.7466C8.88222 79.5739 8.60645 80.4013 8.60645 81.1367C8.60645 83.159 10.6288 84.7217 12.9269 84.7217C14.2139 84.7217 15.5927 84.2621 16.6958 82.9752C22.579 76.4485 25.7044 67.7157 27.3591 58.2474C28.0026 58.799 29.0137 59.2586 30.3007 59.2586L37.9304 59.1667V76.6324L45.9279 74.702V59.0747H52.2707C57.3265 81.6882 79.94 85.8248 83.9904 85.8248C87.2078 85.8248 88.9544 83.3428 88.9544 81.1367C88.9544 79.482 88.0351 78.0112 86.1047 77.7354ZM32.6907 15.0428C38.2981 14.9509 45.6521 14.859 53.0061 14.859C59.0731 14.859 65.0482 14.9509 70.196 15.0428C72.3103 15.1347 73.4134 15.5944 73.5053 17.3409C73.5053 19.1794 73.5053 19.1794 73.5053 19.1794C73.4134 20.2825 72.586 21.2937 70.3798 21.3856C65.2321 21.5694 58.2458 21.6614 50.9837 21.6614C43.6298 21.6614 35.9081 21.5695 29.0137 21.4775L28.9218 18.8117C28.9218 16.5136 30.3926 15.0428 32.6907 15.0428ZM64.4047 29.6588C62.4743 29.6588 60.452 30.67 60.452 32.6004V37.6563H68.3575V32.6004C68.3575 30.67 66.4271 29.6588 64.4047 29.6588ZM45.1925 29.6588C43.2621 29.6588 41.2397 30.67 41.2397 32.6004V37.6563H49.1452V32.6004C49.1452 30.67 47.2148 29.6588 45.1925 29.6588Z" fill="#FFF100"/>
<path d="M68.3577 44.5505L78.3774 44.6424C80.8594 44.6424 82.1464 42.8958 82.1464 41.0573C82.1464 39.3108 80.8594 37.5642 78.3774 37.5642L68.3577 37.6561H41.2399L33.5182 37.5642C30.9443 37.5642 29.5654 39.4946 29.5654 41.2412C29.5654 42.9877 30.7605 44.6424 33.4263 44.6424H33.5182L41.2399 44.5505H68.3577Z" fill="#00A0E9"/>
<path d="M45.9278 74.7019C49.0533 73.8745 51.811 72.8633 54.0172 71.9441C54.5687 71.6683 55.2122 71.5764 55.6718 71.5764C57.7861 71.5764 59.3488 73.231 59.3488 75.0695C59.3488 76.3565 58.4296 77.7353 56.4072 78.6546C47.0309 82.6993 30.0248 86.3763 29.1975 86.3763C26.5317 86.3763 25.1528 84.4459 25.1528 82.5154C25.1528 80.7689 26.2559 79.0223 28.646 78.5627C31.2199 78.1031 34.4372 77.4596 37.9304 76.6323L45.9278 74.7019Z" fill="#00A0E9"/>
<path d="M453.849 77.7354C446.214 76.4485 440.698 74.7019 436.562 71.9442C446.582 68.451 448.052 67.4399 448.052 65.1418C448.052 63.1194 446.122 61.2809 444.008 61.2809C443.364 61.2809 442.721 61.3728 442.077 61.7405C438.308 63.7629 435.459 65.1418 432.241 66.4287C431.874 66.6126 431.506 66.7964 431.23 66.9803C429.575 64.7741 428.289 62.1083 427.277 59.0747L449.891 59.2586C452.379 59.2586 453.66 57.512 453.66 55.6735C453.66 53.9269 452.379 52.1804 449.891 52.1804L436.102 52.2723V44.5506H428.197V52.2723H416.89V44.5506H408.984V52.2723L398.045 52.1804C397.218 52.1804 396.483 52.3642 395.931 52.64C396.666 46.1134 396.85 39.4029 396.85 32.9681V28.4638C403.653 28.4638 411.282 28.5557 418.728 28.5557C426.082 28.5557 433.161 28.4638 438.86 28.3719C448.604 28.188 450.259 23.6837 450.259 18.6279C450.259 14.0316 450.075 8.42423 439.963 8.14845C433.896 7.9646 426.082 7.9646 418.269 7.9646C410.455 7.9646 402.733 7.9646 396.85 8.14845C390.507 8.3323 387.474 11.9174 387.474 16.6975C387.474 16.6975 387.474 16.7894 387.474 16.8813C387.566 23.408 387.842 30.2104 387.842 36.9209C387.842 52.3642 386.279 67.4399 377.27 78.7466C376.627 79.5739 376.351 80.4013 376.351 81.1367C376.351 83.159 378.373 84.7217 380.672 84.7217C381.958 84.7217 383.337 84.2621 384.44 82.9752C390.324 76.4485 393.449 67.7157 395.104 58.2474C395.747 58.799 396.758 59.2586 398.045 59.2586L405.675 59.1667V76.6324L413.673 74.702V59.0747H420.015C425.071 81.6882 447.685 85.8248 451.735 85.8248C454.952 85.8248 456.699 83.3428 456.699 81.1367C456.699 79.482 455.78 78.0112 453.849 77.7354ZM400.435 15.0428C406.043 14.9509 413.397 14.859 420.751 14.859C426.818 14.859 432.793 14.9509 437.941 15.0428C440.055 15.1347 441.158 15.5944 441.25 17.3409C441.25 19.1794 441.25 19.1794 441.25 19.1794C441.158 20.2825 440.331 21.2937 438.124 21.3856C432.977 21.5694 425.99 21.6614 418.728 21.6614C411.374 21.6614 403.653 21.5695 396.758 21.4775L396.666 18.8117C396.666 16.5136 398.137 15.0428 400.435 15.0428ZM432.149 29.6588C430.219 29.6588 428.197 30.67 428.197 32.6004V37.6563H436.102V32.6004C436.102 30.67 434.172 29.6588 432.149 29.6588ZM412.937 29.6588C411.007 29.6588 408.984 30.67 408.984 32.6004V37.6563H416.89V32.6004C416.89 30.67 414.959 29.6588 412.937 29.6588Z" fill="#FFF100"/>
<path d="M436.102 44.5505L446.122 44.6424C448.604 44.6424 449.891 42.8958 449.891 41.0573C449.891 39.3108 448.604 37.5642 446.122 37.5642L436.102 37.6561H408.984L401.263 37.5642C398.689 37.5642 397.31 39.4946 397.31 41.2412C397.31 42.9877 398.505 44.6424 401.171 44.6424H401.263L408.984 44.5505H436.102Z" fill="#00A0E9"/>
<path d="M413.673 74.7019C416.798 73.8745 419.556 72.8633 421.762 71.9441C422.314 71.6683 422.957 71.5764 423.417 71.5764C425.531 71.5764 427.094 73.231 427.094 75.0695C427.094 76.3565 426.175 77.7353 424.152 78.6546C414.776 82.6993 397.77 86.3763 396.943 86.3763C394.277 86.3763 392.898 84.4459 392.898 82.5154C392.898 80.7689 394.001 79.0223 396.391 78.5627C398.965 78.1031 402.182 77.4596 405.675 76.6323L413.673 74.7019Z" fill="#00A0E9"/>
<path d="M436.102 44.5505L446.122 44.6424C448.604 44.6424 449.891 42.8958 449.891 41.0573C449.891 39.3108 448.604 37.5642 446.122 37.5642L436.102 37.6561H408.984L401.263 37.5642C398.689 37.5642 397.31 39.4946 397.31 41.2412C397.31 42.9877 398.505 44.6424 401.171 44.6424H401.263L408.984 44.5505H436.102Z" fill="#00A0E9"/>
<path d="M413.672 74.7019C416.798 73.8745 419.556 72.8633 421.762 71.9441C422.313 71.6683 422.957 71.5764 423.416 71.5764C425.531 71.5764 427.093 73.231 427.093 75.0695C427.093 76.3565 426.174 77.7353 424.152 78.6546C414.776 82.6993 397.769 86.3763 396.942 86.3763C394.276 86.3763 392.897 84.4459 392.897 82.5154C392.897 80.7689 394.001 79.0223 396.391 78.5627C398.964 78.1031 402.182 77.4596 405.675 76.6323L413.672 74.7019Z" fill="#00A0E9"/>
<path d="M103.294 72.0362C103.294 70.6573 104.03 69.2784 105.684 68.1753C112.119 63.9468 117.175 57.9717 120.576 50.8015C121.404 49.055 122.782 48.3196 124.253 48.3196C126.643 48.3196 129.309 50.4338 129.309 53.0997C129.309 57.1443 114.509 76.9082 108.35 76.9082C105.593 76.9082 103.294 74.5181 103.294 72.0362ZM176.834 40.6898L148.062 40.414V63.671L148.338 74.3343C148.338 74.4262 148.338 74.5181 148.338 74.61C148.338 79.574 144.569 86.1006 133.813 86.1006C128.114 86.1006 123.15 85.1814 123.15 80.4013C123.15 78.1032 124.621 75.8051 127.195 75.8051C127.563 75.8051 127.93 75.897 128.39 75.9889C130.228 76.4485 132.067 76.8162 133.63 76.8162C136.755 76.8162 138.869 75.4374 138.869 70.8411V40.414L109.453 40.6898H109.361C106.604 40.6898 105.225 38.6675 105.225 36.6451C105.225 34.5309 106.604 32.5085 109.453 32.5085H176.834C179.776 32.5085 181.247 34.6228 181.247 36.6451C181.247 38.6675 179.776 40.6898 176.926 40.6898H176.834Z" fill="#FFF100"/>
<path d="M116.808 20.1905C113.958 20.1905 112.579 18.0762 112.579 16.0539C112.579 13.9396 113.958 11.9172 116.808 11.9172H169.113C172.054 11.9172 173.525 14.0315 173.525 16.0539C173.525 18.1681 172.054 20.1905 169.113 20.1905H116.808Z" fill="#00A0E9"/>
<path d="M173.341 72.3118C169.848 66.0609 164.333 60.1778 158.357 55.9492C156.887 54.938 156.243 53.6511 156.243 52.4561C156.243 50.2499 158.266 48.2275 160.747 48.2275C165.803 48.2275 182.534 64.1305 182.534 69.7379C182.534 72.6795 179.96 74.9776 177.386 74.9776C175.915 74.9776 174.352 74.1503 173.341 72.3118Z" fill="#00A0E9"/>
<path d="M331.366 45.194V74.9776C337.065 74.9776 342.58 74.8857 346.717 74.7018C352.141 74.4261 352.784 71.3925 352.784 63.5789C352.784 60.0858 352.6 56.4088 352.508 53.743C352.508 53.6511 352.508 53.6511 352.508 53.5591C352.508 50.8933 354.715 49.5145 357.013 49.5145C359.403 49.5145 361.793 50.8933 361.885 53.743C361.977 56.0411 362.068 59.0746 362.068 62.1081C362.068 65.1416 361.977 68.2671 361.885 70.841C361.609 78.7465 356.185 82.7912 349.383 82.975C343.04 83.2508 334.491 83.3427 326.126 83.3427C317.761 83.3427 309.579 83.2508 303.88 82.975C296.342 82.6993 292.39 78.7465 292.206 71.0248C292.206 68.5429 292.114 65.4174 292.114 62.2001C292.114 59.0746 292.206 55.9492 292.206 53.4672C292.298 50.5256 294.504 49.1467 296.802 49.1467C299.1 49.1467 301.49 50.6175 301.49 53.2834C301.49 53.3753 301.49 53.3753 301.49 53.4672C301.398 56.133 301.306 59.6262 301.306 62.8435C301.306 72.3118 301.398 74.4261 306.914 74.7018C311.05 74.8857 316.382 74.9776 321.989 74.9776V45.194H331.366ZM321.989 37.1046L321.897 9.61914C321.897 6.95332 324.287 5.57446 326.586 5.57446C329.067 5.57446 331.458 6.95332 331.458 9.61914L331.366 37.1046H321.989Z" fill="#FFF100"/>
<path d="M331.366 45.194C336.33 45.194 341.294 45.1021 345.89 44.9183C352.692 44.6425 358.116 40.8736 358.392 32.9681C358.483 30.3942 358.575 27.6364 358.575 24.9706C358.575 22.3048 358.483 19.639 358.392 17.3409C358.3 14.4912 355.91 13.1123 353.519 13.1123C351.221 13.1123 349.015 14.4912 349.015 17.157C349.015 17.2489 349.015 17.2489 349.015 17.3409C349.107 20.0067 349.291 23.1321 349.291 26.1656C349.291 33.06 349.015 36.645 343.224 36.8289C339.455 36.9208 335.41 37.0128 331.366 37.1047H321.989C306.822 37.1047 305.075 37.0127 304.891 30.9457C304.891 29.383 304.799 27.4526 304.799 25.5222C304.799 22.6725 304.891 19.7309 304.983 17.0651C304.983 16.9732 304.983 16.9732 304.983 16.8812C304.983 14.2154 302.593 12.7446 300.295 12.7446C297.997 12.7446 295.791 14.1235 295.699 17.0651C295.699 19.5471 295.607 22.3048 295.607 25.0625C295.607 27.9122 295.699 30.67 295.699 33.1519C295.883 40.8736 299.835 44.6425 307.373 44.9183C311.786 45.1021 316.842 45.194 321.989 45.194H331.366Z" fill="#00A0E9"/>
</svg>
