<svg width="331" height="424" viewBox="0 0 331 424" fill="none" xmlns="http://www.w3.org/2000/svg">
<path d="M68.109 169.874C50.8548 174.497 33.9849 161.522 33.8612 143.661C33.6939 119.83 40.5646 97.2732 54.4902 75.9785C68.8791 53.9736 91.816 38.753 123.383 30.2947C158.055 21.0044 187.157 22.2812 210.62 34.1436C236.017 47.0105 252.533 67.539 260.091 95.7491C266.525 119.76 262.541 142.73 248.152 164.735C239.751 177.583 228.368 194.99 213.979 216.995C205.898 229.353 202.749 244.203 204.539 261.543C205.654 272.367 198.61 282.359 188.1 285.175C175.284 288.609 162.244 280.172 160.277 267.05C157.281 247.069 158.273 230.378 163.263 216.969C168.117 203.582 178.927 184.059 195.735 158.36C205.316 143.707 208.05 128.618 203.885 113.073C198.595 93.3299 189.081 80 175.413 73.0651C163.684 67.1331 149.131 66.4987 131.795 71.1438C117.602 74.9469 106.906 82.3469 99.7145 93.3485C91.0504 106.597 87.4904 122.427 89.0294 140.817C90.1389 154.034 81.8038 166.198 68.9873 169.632L68.1073 169.868L68.109 169.874Z" fill="#FDF150" stroke="#231815" stroke-width="10"/>
<path d="M211.962 378.805C229.608 374.077 240.08 355.939 235.351 338.294C230.623 320.648 212.486 310.177 194.84 314.905C177.195 319.633 166.723 337.77 171.451 355.416C176.179 373.062 194.317 383.533 211.962 378.805Z" fill="#FDF150" stroke="#231815" stroke-width="10" stroke-miterlimit="10"/>
<mask id="mask0_229_1428" style="mask-type:luminance" maskUnits="userSpaceOnUse" x="23" y="40" width="230" height="262">
<path d="M57.7291 185.719C40.4749 190.342 23.605 177.366 23.4813 159.506C23.3141 135.675 30.1847 113.118 44.1103 91.8233C58.4992 69.8184 81.4361 54.5977 113.003 46.1395C147.675 36.8492 176.777 38.126 200.24 49.9883C225.637 62.8553 242.153 83.3837 249.712 111.594C256.145 135.605 252.161 158.575 237.772 180.58C229.371 193.428 217.988 210.835 203.599 232.839C195.518 245.198 192.369 260.048 194.159 277.387C195.274 288.211 188.23 298.203 177.72 301.019C164.904 304.454 151.864 296.016 149.897 282.894C146.901 262.913 147.893 246.223 152.883 232.813C157.737 219.427 168.547 199.903 185.355 174.205C194.936 159.552 197.67 144.462 193.505 128.918C188.215 109.175 178.701 95.8448 165.033 88.9099C153.304 82.9778 138.751 82.3434 121.415 86.9886C107.222 90.7916 96.5259 98.1916 89.3346 109.193C80.6705 122.442 77.1105 138.271 78.6496 156.662C79.759 169.879 71.4239 182.043 58.6074 185.477L57.7274 185.713L57.7291 185.719Z" fill="white"/>
</mask>
<g mask="url(#mask0_229_1428)">
<path d="M25.2641 304.493C27.2428 303.963 28.4171 301.929 27.8869 299.95C27.3567 297.972 25.3228 296.797 23.3441 297.328C21.3653 297.858 20.191 299.892 20.7213 301.87C21.2515 303.849 23.2854 305.023 25.2641 304.493Z" fill="#FF2626"/>
<path d="M22.2456 215.538C24.2243 215.008 25.3986 212.974 24.8684 210.995C24.3382 209.017 22.3043 207.842 20.3255 208.372C18.3468 208.903 17.1725 210.937 17.7027 212.915C18.2329 214.894 20.2668 216.068 22.2456 215.538Z" fill="#FF2626"/>
<path d="M27.8554 236.476C29.8342 235.946 31.0084 233.912 30.4782 231.933C29.948 229.955 27.9141 228.78 25.9354 229.31C23.9566 229.841 22.7824 231.875 23.3126 233.853C23.8428 235.832 25.8767 237.006 27.8554 236.476Z" fill="#FF2626"/>
<path d="M33.4663 257.414C35.445 256.883 36.6193 254.85 36.0891 252.871C35.5589 250.892 33.525 249.718 31.5462 250.248C29.5675 250.778 28.3932 252.812 28.9234 254.791C29.4536 256.77 31.4875 257.944 33.4663 257.414Z" fill="#FF2626"/>
<path d="M39.0761 278.351C41.0549 277.821 42.2291 275.787 41.6989 273.808C41.1687 271.83 39.1348 270.655 37.1561 271.185C35.1773 271.716 34.0031 273.75 34.5333 275.728C35.0635 277.707 37.0974 278.881 39.0761 278.351Z" fill="#FF2626"/>
<path d="M44.686 299.289C46.6647 298.758 47.839 296.725 47.3088 294.746C46.7786 292.767 44.7447 291.593 42.766 292.123C40.7872 292.653 39.6129 294.687 40.1431 296.666C40.6733 298.645 42.7072 299.819 44.686 299.289Z" fill="#FF2626"/>
<path d="M24.8378 147.521C26.8166 146.991 27.9909 144.957 27.4607 142.978C26.9305 140.999 24.8966 139.825 22.9178 140.355C20.9391 140.886 19.7648 142.92 20.295 144.898C20.8252 146.877 22.8591 148.051 24.8378 147.521Z" fill="#FF2626"/>
<path d="M30.4487 168.459C32.4274 167.929 33.6017 165.895 33.0715 163.916C32.5413 161.937 30.5074 160.763 28.5286 161.293C26.5499 161.823 25.3756 163.857 25.9058 165.836C26.436 167.815 28.4699 168.989 30.4487 168.459Z" fill="#FF2626"/>
<path d="M36.0586 189.396C38.0373 188.866 39.2116 186.832 38.6814 184.853C38.1512 182.875 36.1173 181.7 34.1385 182.231C32.1598 182.761 30.9855 184.795 31.5157 186.774C32.0459 188.752 34.0798 189.927 36.0586 189.396Z" fill="#FF2626"/>
<path d="M41.6684 210.334C43.6472 209.804 44.8214 207.77 44.2912 205.791C43.761 203.812 41.7271 202.638 39.7484 203.168C37.7696 203.699 36.5953 205.733 37.1255 207.711C37.6558 209.69 39.6897 210.864 41.6684 210.334Z" fill="#FF2626"/>
<path d="M47.2793 231.272C49.258 230.741 50.4323 228.707 49.9021 226.729C49.3719 224.75 47.338 223.576 45.3592 224.106C43.3805 224.636 42.2062 226.67 42.7364 228.649C43.2666 230.628 45.3005 231.802 47.2793 231.272Z" fill="#FF2626"/>
<path d="M52.8891 252.209C54.8679 251.679 56.0421 249.645 55.5119 247.666C54.9817 245.687 52.9478 244.513 50.9691 245.043C48.9903 245.574 47.816 247.608 48.3463 249.586C48.8765 251.565 50.9104 252.739 52.8891 252.209Z" fill="#FF2626"/>
<path d="M58.499 273.147C60.4777 272.617 61.652 270.583 61.1218 268.604C60.5916 266.625 58.5577 265.451 56.5789 265.981C54.6002 266.512 53.4259 268.546 53.9561 270.524C54.4863 272.503 56.5202 273.677 58.499 273.147Z" fill="#FF2626"/>
<path d="M64.1098 294.085C66.0886 293.554 67.2628 291.52 66.7326 289.542C66.2024 287.563 64.1685 286.389 62.1898 286.919C60.211 287.449 59.0368 289.483 59.567 291.462C60.0972 293.441 62.1311 294.615 64.1098 294.085Z" fill="#FF2626"/>
<path d="M21.8193 58.5665C23.798 58.0363 24.9723 56.0024 24.4421 54.0236C23.9119 52.0449 21.878 50.8706 19.8993 51.4008C17.9205 51.931 16.7462 53.9649 17.2764 55.9437C17.8066 57.9224 19.8405 59.0967 21.8193 58.5665Z" fill="#FF2626"/>
<path d="M27.4301 79.5042C29.4089 78.974 30.5832 76.9401 30.053 74.9614C29.5228 72.9826 27.4888 71.8084 25.5101 72.3386C23.5313 72.8688 22.3571 74.9027 22.8873 76.8814C23.4175 78.8602 25.4514 80.0344 27.4301 79.5042Z" fill="#FF2626"/>
<path d="M33.04 100.442C35.0187 99.9115 36.193 97.8776 35.6628 95.8989C35.1326 93.9201 33.0987 92.7459 31.12 93.2761C29.1412 93.8063 27.9669 95.8402 28.4971 97.8189C29.0273 99.7977 31.0612 100.972 33.04 100.442Z" fill="#FF2626"/>
<path d="M38.6508 121.379C40.6296 120.849 41.8039 118.815 41.2737 116.836C40.7435 114.858 38.7095 113.683 36.7308 114.214C34.752 114.744 33.5778 116.778 34.108 118.756C34.6382 120.735 36.6721 121.909 38.6508 121.379Z" fill="#FF2626"/>
<path d="M44.2607 142.317C46.2394 141.787 47.4137 139.753 46.8835 137.774C46.3533 135.795 44.3194 134.621 42.3407 135.151C40.3619 135.682 39.1876 137.715 39.7178 139.694C40.248 141.673 42.2819 142.847 44.2607 142.317Z" fill="#FF2626"/>
<path d="M49.8706 163.254C51.8493 162.724 53.0236 160.69 52.4934 158.712C51.9632 156.733 49.9293 155.559 47.9505 156.089C45.9718 156.619 44.7975 158.653 45.3277 160.632C45.8579 162.61 47.8918 163.785 49.8706 163.254Z" fill="#FF2626"/>
<path d="M55.4814 184.192C57.4602 183.662 58.6344 181.628 58.1042 179.649C57.574 177.671 55.5401 176.496 53.5614 177.027C51.5826 177.557 50.4083 179.591 50.9385 181.569C51.4687 183.548 53.5027 184.722 55.4814 184.192Z" fill="#FF2626"/>
<path d="M61.0913 205.13C63.07 204.6 64.2443 202.566 63.7141 200.587C63.1839 198.608 61.15 197.434 59.1712 197.964C57.1925 198.494 56.0182 200.528 56.5484 202.507C57.0786 204.486 59.1125 205.66 61.0913 205.13Z" fill="#FF2626"/>
<path d="M66.7011 226.067C68.6799 225.537 69.8542 223.503 69.324 221.525C68.7938 219.546 66.7598 218.372 64.7811 218.902C62.8023 219.432 61.6281 221.466 62.1583 223.445C62.6885 225.423 64.7224 226.598 66.7011 226.067Z" fill="#FF2626"/>
<path d="M72.312 247.005C74.2907 246.475 75.465 244.441 74.9348 242.462C74.4046 240.483 72.3707 239.309 70.3919 239.839C68.4132 240.369 67.2389 242.403 67.7691 244.382C68.2993 246.361 70.3332 247.535 72.312 247.005Z" fill="#FF2626"/>
<path d="M77.9218 267.942C79.9006 267.412 81.0749 265.378 80.5447 263.4C80.0145 261.421 77.9805 260.247 76.0018 260.777C74.023 261.307 72.8488 263.341 73.379 265.32C73.9092 267.298 75.9431 268.473 77.9218 267.942Z" fill="#FF2626"/>
<path d="M83.5327 288.88C85.5114 288.35 86.6857 286.316 86.1555 284.337C85.6253 282.358 83.5914 281.184 81.6126 281.714C79.6339 282.244 78.4596 284.278 78.9898 286.257C79.52 288.236 81.5539 289.41 83.5327 288.88Z" fill="#FF2626"/>
<path d="M89.1425 309.818C91.1213 309.288 92.2956 307.254 91.7654 305.275C91.2352 303.296 89.2012 302.122 87.2225 302.652C85.2437 303.182 84.0695 305.216 84.5997 307.195C85.1299 309.174 87.1638 310.348 89.1425 309.818Z" fill="#FF2626"/>
<path d="M41.249 53.3607C43.2277 52.8305 44.402 50.7966 43.8718 48.8178C43.3416 46.8391 41.3077 45.6648 39.3289 46.195C37.3502 46.7252 36.1759 48.7591 36.7061 50.7379C37.2363 52.7166 39.2702 53.8909 41.249 53.3607Z" fill="#FF2626"/>
<path d="M46.8588 74.2984C48.8376 73.7682 50.0119 71.7343 49.4817 69.7556C48.9515 67.7768 46.9176 66.6025 44.9388 67.1328C42.9601 67.663 41.7858 69.6969 42.316 71.6756C42.8462 73.6544 44.8801 74.8286 46.8588 74.2984Z" fill="#FF2626"/>
<path d="M52.4692 95.2359C54.4479 94.7057 55.6222 92.6718 55.092 90.6931C54.5618 88.7143 52.5279 87.54 50.5492 88.0703C48.5704 88.6005 47.3961 90.6344 47.9263 92.6131C48.4565 94.5919 50.4904 95.7661 52.4692 95.2359Z" fill="#FF2626"/>
<path d="M58.0795 116.173C60.0583 115.643 61.2326 113.609 60.7024 111.631C60.1722 109.652 58.1383 108.478 56.1595 109.008C54.1808 109.538 53.0065 111.572 53.5367 113.551C54.0669 115.529 56.1008 116.704 58.0795 116.173Z" fill="#FF2626"/>
<path d="M63.6894 137.111C65.6682 136.581 66.8424 134.547 66.3122 132.568C65.782 130.59 63.7481 129.415 61.7694 129.945C59.7906 130.476 58.6163 132.51 59.1465 134.488C59.6767 136.467 61.7107 137.641 63.6894 137.111Z" fill="#FF2626"/>
<path d="M69.2998 158.049C71.2785 157.518 72.4528 155.485 71.9226 153.506C71.3924 151.527 69.3585 150.353 67.3797 150.883C65.401 151.413 64.2267 153.447 64.7569 155.426C65.2871 157.405 67.321 158.579 69.2998 158.049Z" fill="#FF2626"/>
<path d="M74.9101 178.986C76.8889 178.456 78.0631 176.422 77.5329 174.444C77.0027 172.465 74.9688 171.291 72.9901 171.821C71.0113 172.351 69.837 174.385 70.3672 176.364C70.8974 178.342 72.9314 179.517 74.9101 178.986Z" fill="#FF2626"/>
<path d="M80.5205 199.924C82.4992 199.394 83.6735 197.36 83.1433 195.381C82.6131 193.402 80.5792 192.228 78.6004 192.758C76.6217 193.288 75.4474 195.322 75.9776 197.301C76.5078 199.28 78.5417 200.454 80.5205 199.924Z" fill="#FF2626"/>
<path d="M86.1308 220.861C88.1096 220.331 89.2839 218.297 88.7536 216.319C88.2234 214.34 86.1895 213.166 84.2108 213.696C82.232 214.226 81.0577 216.26 81.588 218.239C82.1182 220.217 84.1521 221.392 86.1308 220.861Z" fill="#FF2626"/>
<path d="M91.7407 241.799C93.7194 241.269 94.8937 239.235 94.3635 237.256C93.8333 235.277 91.7994 234.103 89.8206 234.633C87.8419 235.163 86.6676 237.197 87.1978 239.176C87.728 241.155 89.7619 242.329 91.7407 241.799Z" fill="#FF2626"/>
<path d="M97.351 262.736C99.3298 262.206 100.504 260.172 99.9739 258.194C99.4437 256.215 97.4097 255.041 95.431 255.571C93.4522 256.101 92.278 258.135 92.8082 260.114C93.3384 262.092 95.3723 263.267 97.351 262.736Z" fill="#FF2626"/>
<path d="M102.961 283.674C104.94 283.144 106.114 281.11 105.584 279.132C105.054 277.153 103.02 275.979 101.041 276.509C99.0621 277.039 97.8878 279.073 98.418 281.052C98.9482 283.03 100.982 284.205 102.961 283.674Z" fill="#FF2626"/>
<path d="M108.571 304.612C110.55 304.082 111.724 302.048 111.194 300.069C110.664 298.09 108.63 296.916 106.651 297.446C104.672 297.976 103.498 300.01 104.028 301.989C104.559 303.968 106.592 305.142 108.571 304.612Z" fill="#FF2626"/>
<path d="M60.6718 48.1561C62.6506 47.6259 63.8248 45.592 63.2946 43.6132C62.7644 41.6345 60.7305 40.4602 58.7518 40.9904C56.773 41.5206 55.5988 43.5545 56.129 45.5333C56.6592 47.512 58.6931 48.6863 60.6718 48.1561Z" fill="#FF2626"/>
<path d="M66.2817 69.0938C68.2604 68.5636 69.4347 66.5297 68.9045 64.551C68.3743 62.5722 66.3404 61.398 64.3616 61.9282C62.3829 62.4584 61.2086 64.4923 61.7388 66.471C62.269 68.4498 64.3029 69.6241 66.2817 69.0938Z" fill="#FF2626"/>
<path d="M71.892 90.0313C73.8708 89.5011 75.0451 87.4672 74.5149 85.4885C73.9847 83.5097 71.9507 82.3355 69.972 82.8657C67.9932 83.3959 66.819 85.4298 67.3492 87.4085C67.8794 89.3873 69.9133 90.5616 71.892 90.0313Z" fill="#FF2626"/>
<path d="M77.5024 110.969C79.4811 110.439 80.6554 108.405 80.1252 106.426C79.595 104.447 77.5611 103.273 75.5823 103.803C73.6036 104.333 72.4293 106.367 72.9595 108.346C73.4897 110.325 75.5236 111.499 77.5024 110.969Z" fill="#FF2626"/>
<path d="M83.1122 131.907C85.091 131.377 86.2653 129.343 85.7351 127.364C85.2049 125.385 83.171 124.211 81.1922 124.741C79.2135 125.271 78.0392 127.305 78.5694 129.284C79.0996 131.263 81.1335 132.437 83.1122 131.907Z" fill="#FF2626"/>
<path d="M88.7226 152.845C90.7013 152.314 91.8756 150.28 91.3454 148.302C90.8152 146.323 88.7813 145.149 86.8026 145.679C84.8238 146.209 83.6495 148.243 84.1797 150.222C84.7099 152.201 86.7438 153.375 88.7226 152.845Z" fill="#FF2626"/>
<path d="M94.3329 173.782C96.3117 173.251 97.486 171.217 96.9558 169.239C96.4256 167.26 94.3917 166.086 92.4129 166.616C90.4342 167.146 89.2599 169.18 89.7901 171.159C90.3203 173.138 92.3542 174.312 94.3329 173.782Z" fill="#FF2626"/>
<path d="M99.9428 194.72C101.922 194.189 103.096 192.155 102.566 190.177C102.035 188.198 100.002 187.024 98.0228 187.554C96.044 188.084 94.8698 190.118 95.4 192.097C95.9302 194.076 97.9641 195.25 99.9428 194.72Z" fill="#FF2626"/>
<path d="M105.554 215.657C107.532 215.127 108.707 213.093 108.176 211.114C107.646 209.136 105.612 207.961 103.634 208.492C101.655 209.022 100.481 211.056 101.011 213.035C101.541 215.013 103.575 216.188 105.554 215.657Z" fill="#FF2626"/>
<path d="M111.164 236.594C113.142 236.064 114.317 234.03 113.786 232.051C113.256 230.073 111.222 228.898 109.243 229.429C107.265 229.959 106.09 231.993 106.621 233.972C107.151 235.95 109.185 237.125 111.164 236.594Z" fill="#FF2626"/>
<path d="M116.774 257.532C118.753 257.002 119.927 254.968 119.397 252.989C118.866 251.011 116.833 249.836 114.854 250.367C112.875 250.897 111.701 252.931 112.231 254.91C112.761 256.888 114.795 258.063 116.774 257.532Z" fill="#FF2626"/>
<path d="M122.384 278.47C124.363 277.94 125.537 275.906 125.007 273.927C124.477 271.948 122.443 270.774 120.464 271.304C118.485 271.834 117.311 273.868 117.841 275.847C118.372 277.826 120.405 279 122.384 278.47Z" fill="#FF2626"/>
<path d="M127.994 299.407C129.973 298.877 131.147 296.843 130.617 294.864C130.087 292.886 128.053 291.711 126.074 292.242C124.095 292.772 122.921 294.806 123.451 296.784C123.981 298.763 126.015 299.938 127.994 299.407Z" fill="#FF2626"/>
<path d="M80.0947 42.952C82.0734 42.4218 83.2477 40.3879 82.7175 38.4091C82.1873 36.4304 80.1534 35.2561 78.1746 35.7863C76.1959 36.3165 75.0216 38.3504 75.5518 40.3292C76.082 42.3079 78.1159 43.4822 80.0947 42.952Z" fill="#FF2626"/>
<path d="M85.7045 63.8895C87.6833 63.3593 88.8576 61.3254 88.3274 59.3466C87.7972 57.3679 85.7632 56.1936 83.7845 56.7238C81.8057 57.254 80.6315 59.2879 81.1617 61.2667C81.6919 63.2454 83.7258 64.4197 85.7045 63.8895Z" fill="#FF2626"/>
<path d="M91.3144 84.827C93.2931 84.2968 94.4674 82.2629 93.9372 80.2841C93.407 78.3054 91.3731 77.1311 89.3944 77.6613C87.4156 78.1915 86.2413 80.2254 86.7715 82.2042C87.3017 84.1829 89.3356 85.3572 91.3144 84.827Z" fill="#FF2626"/>
<path d="M96.9252 105.765C98.904 105.235 100.078 103.201 99.5481 101.222C99.0179 99.2431 96.9839 98.0689 95.0052 98.5991C93.0264 99.1293 91.8522 101.163 92.3824 103.142C92.9126 105.121 94.9465 106.295 96.9252 105.765Z" fill="#FF2626"/>
<path d="M102.535 126.702C104.514 126.172 105.688 124.138 105.158 122.159C104.628 120.181 102.594 119.006 100.615 119.537C98.6363 120.067 97.462 122.101 97.9922 124.079C98.5224 126.058 100.556 127.232 102.535 126.702Z" fill="#FF2626"/>
<path d="M108.146 147.64C110.125 147.11 111.299 145.076 110.769 143.097C110.239 141.119 108.205 139.944 106.226 140.475C104.247 141.005 103.073 143.039 103.603 145.017C104.133 146.996 106.167 148.17 108.146 147.64Z" fill="#FF2626"/>
<path d="M113.756 168.577C115.735 168.047 116.909 166.013 116.379 164.035C115.848 162.056 113.815 160.882 111.836 161.412C109.857 161.942 108.683 163.976 109.213 165.955C109.743 167.933 111.777 169.108 113.756 168.577Z" fill="#FF2626"/>
<path d="M119.366 189.515C121.344 188.985 122.519 186.951 121.988 184.972C121.458 182.993 119.424 181.819 117.446 182.349C115.467 182.88 114.293 184.913 114.823 186.892C115.353 188.871 117.387 190.045 119.366 189.515Z" fill="#FF2626"/>
<path d="M124.976 210.453C126.955 209.923 128.13 207.889 127.599 205.91C127.069 203.931 125.035 202.757 123.056 203.287C121.078 203.817 119.903 205.851 120.434 207.83C120.964 209.809 122.998 210.983 124.976 210.453Z" fill="#FF2626"/>
<path d="M130.586 231.39C132.565 230.86 133.739 228.826 133.209 226.847C132.679 224.869 130.645 223.694 128.666 224.225C126.688 224.755 125.513 226.789 126.044 228.767C126.574 230.746 128.608 231.92 130.586 231.39Z" fill="#FF2626"/>
<path d="M136.196 252.328C138.175 251.798 139.349 249.764 138.819 247.785C138.289 245.806 136.255 244.632 134.276 245.162C132.297 245.692 131.123 247.726 131.653 249.705C132.184 251.684 134.217 252.858 136.196 252.328Z" fill="#FF2626"/>
<path d="M141.807 273.266C143.786 272.736 144.96 270.702 144.43 268.723C143.9 266.744 141.866 265.57 139.887 266.1C137.908 266.63 136.734 268.664 137.264 270.643C137.794 272.622 139.828 273.796 141.807 273.266Z" fill="#FF2626"/>
<path d="M147.417 294.203C149.396 293.673 150.57 291.639 150.04 289.66C149.51 287.682 147.476 286.507 145.497 287.038C143.518 287.568 142.344 289.602 142.874 291.58C143.404 293.559 145.438 294.733 147.417 294.203Z" fill="#FF2626"/>
<path d="M105.134 58.6834C107.113 58.1532 108.287 56.1193 107.757 54.1406C107.227 52.1618 105.193 50.9876 103.214 51.5178C101.235 52.048 100.061 54.0819 100.591 56.0606C101.122 58.0394 103.155 59.2137 105.134 58.6834Z" fill="#FF2626"/>
<path d="M110.744 79.6209C112.723 79.0907 113.897 77.0568 113.367 75.0781C112.837 73.0993 110.803 71.9251 108.824 72.4553C106.845 72.9855 105.671 75.0194 106.201 76.9981C106.731 78.9769 108.765 80.1512 110.744 79.6209Z" fill="#FF2626"/>
<path d="M116.354 100.559C118.333 100.028 119.507 97.9946 118.977 96.0158C118.447 94.0371 116.413 92.8628 114.434 93.393C112.455 93.9232 111.281 95.9571 111.811 97.9359C112.341 99.9146 114.375 101.089 116.354 100.559Z" fill="#FF2626"/>
<path d="M121.965 121.496C123.944 120.966 125.118 118.932 124.588 116.953C124.057 114.975 122.023 113.8 120.045 114.331C118.066 114.861 116.892 116.895 117.422 118.873C117.952 120.852 119.986 122.026 121.965 121.496Z" fill="#FF2626"/>
<path d="M127.575 142.434C129.553 141.904 130.728 139.87 130.197 137.891C129.667 135.912 127.633 134.738 125.655 135.268C123.676 135.798 122.502 137.832 123.032 139.811C123.562 141.79 125.596 142.964 127.575 142.434Z" fill="#FF2626"/>
<path d="M133.185 163.371C135.164 162.841 136.339 160.807 135.808 158.829C135.278 156.85 133.244 155.676 131.265 156.206C129.287 156.736 128.112 158.77 128.643 160.749C129.173 162.727 131.207 163.902 133.185 163.371Z" fill="#FF2626"/>
<path d="M138.795 184.309C140.774 183.779 141.948 181.745 141.418 179.766C140.888 177.787 138.854 176.613 136.875 177.143C134.897 177.673 133.722 179.707 134.253 181.686C134.783 183.665 136.817 184.839 138.795 184.309Z" fill="#FF2626"/>
<path d="M144.405 205.247C146.384 204.716 147.558 202.683 147.028 200.704C146.498 198.725 144.464 197.551 142.485 198.081C140.506 198.611 139.332 200.645 139.862 202.624C140.393 204.603 142.426 205.777 144.405 205.247Z" fill="#FF2626"/>
<path d="M150.016 226.184C151.994 225.654 153.169 223.62 152.638 221.641C152.108 219.663 150.074 218.488 148.096 219.018C146.117 219.549 144.943 221.583 145.473 223.561C146.003 225.54 148.037 226.714 150.016 226.184Z" fill="#FF2626"/>
<path d="M155.626 247.122C157.605 246.591 158.779 244.558 158.249 242.579C157.719 240.6 155.685 239.426 153.706 239.956C151.727 240.486 150.553 242.52 151.083 244.499C151.613 246.478 153.647 247.652 155.626 247.122Z" fill="#FF2626"/>
<path d="M161.236 268.06C163.215 267.529 164.389 265.496 163.859 263.517C163.328 261.538 161.294 260.364 159.316 260.894C157.337 261.424 156.163 263.458 156.693 265.437C157.223 267.416 159.257 268.59 161.236 268.06Z" fill="#FF2626"/>
<path d="M166.846 288.997C168.825 288.467 169.999 286.433 169.469 284.454C168.939 282.476 166.905 281.301 164.926 281.831C162.947 282.362 161.773 284.396 162.303 286.374C162.833 288.353 164.867 289.527 166.846 288.997Z" fill="#FF2626"/>
<path d="M124.557 53.4791C126.536 52.9489 127.71 50.915 127.18 48.9362C126.65 46.9575 124.616 45.7832 122.637 46.3134C120.658 46.8436 119.484 48.8775 120.014 50.8563C120.544 52.835 122.578 54.0093 124.557 53.4791Z" fill="#FF2626"/>
<path d="M130.167 74.4168C132.146 73.8866 133.32 71.8527 132.79 69.874C132.26 67.8952 130.226 66.721 128.247 67.2512C126.268 67.7814 125.094 69.8153 125.624 71.794C126.154 73.7728 128.188 74.947 130.167 74.4168Z" fill="#FF2626"/>
<path d="M135.777 95.3543C137.756 94.8241 138.93 92.7902 138.4 90.8115C137.869 88.8327 135.836 87.6585 133.857 88.1887C131.878 88.7189 130.704 90.7528 131.234 92.7315C131.764 94.7103 133.798 95.8845 135.777 95.3543Z" fill="#FF2626"/>
<path d="M141.388 116.292C143.366 115.762 144.541 113.728 144.01 111.749C143.48 109.77 141.446 108.596 139.468 109.126C137.489 109.657 136.315 111.691 136.845 113.669C137.375 115.648 139.409 116.822 141.388 116.292Z" fill="#FF2626"/>
<path d="M146.998 137.23C148.976 136.699 150.151 134.665 149.62 132.687C149.09 130.708 147.056 129.534 145.077 130.064C143.099 130.594 141.924 132.628 142.455 134.607C142.985 136.586 145.019 137.76 146.998 137.23Z" fill="#FF2626"/>
<path d="M152.607 158.167C154.586 157.637 155.76 155.603 155.23 153.624C154.7 151.645 152.666 150.471 150.687 151.001C148.709 151.532 147.534 153.566 148.065 155.544C148.595 157.523 150.629 158.697 152.607 158.167Z" fill="#FF2626"/>
<path d="M158.218 179.105C160.196 178.575 161.371 176.541 160.841 174.562C160.31 172.583 158.276 171.409 156.298 171.939C154.319 172.469 153.145 174.503 153.675 176.482C154.205 178.461 156.239 179.635 158.218 179.105Z" fill="#FF2626"/>
<path d="M163.828 200.043C165.807 199.512 166.981 197.478 166.451 195.5C165.921 193.521 163.887 192.347 161.908 192.877C159.929 193.407 158.755 195.441 159.285 197.42C159.815 199.399 161.849 200.573 163.828 200.043Z" fill="#FF2626"/>
<path d="M169.438 220.98C171.417 220.45 172.591 218.416 172.061 216.437C171.531 214.458 169.497 213.284 167.518 213.814C165.539 214.345 164.365 216.379 164.895 218.357C165.425 220.336 167.459 221.51 169.438 220.98Z" fill="#FF2626"/>
<path d="M175.048 241.918C177.027 241.387 178.201 239.353 177.671 237.375C177.141 235.396 175.107 234.222 173.128 234.752C171.15 235.282 169.975 237.316 170.505 239.295C171.036 241.274 173.07 242.448 175.048 241.918Z" fill="#FF2626"/>
<path d="M180.658 262.855C182.637 262.325 183.811 260.291 183.281 258.312C182.751 256.333 180.717 255.159 178.738 255.689C176.759 256.22 175.585 258.254 176.115 260.232C176.645 262.211 178.679 263.385 180.658 262.855Z" fill="#FF2626"/>
<path d="M186.269 283.793C188.248 283.263 189.422 281.229 188.892 279.25C188.362 277.271 186.328 276.097 184.349 276.627C182.37 277.158 181.196 279.191 181.726 281.17C182.256 283.149 184.29 284.323 186.269 283.793Z" fill="#FF2626"/>
<path d="M143.979 48.275C145.958 47.7448 147.132 45.7109 146.602 43.7321C146.072 41.7534 144.038 40.5791 142.059 41.1093C140.08 41.6395 138.906 43.6734 139.436 45.6522C139.966 47.6309 142 48.8052 143.979 48.275Z" fill="#FF2626"/>
<path d="M149.589 69.2125C151.568 68.6823 152.742 66.6484 152.212 64.6696C151.682 62.6909 149.648 61.5166 147.669 62.0468C145.691 62.577 144.516 64.6109 145.046 66.5897C145.577 68.5684 147.611 69.7427 149.589 69.2125Z" fill="#FF2626"/>
<path d="M155.2 90.1502C157.178 89.62 158.353 87.5861 157.822 85.6074C157.292 83.6286 155.258 82.4544 153.28 82.9846C151.301 83.5148 150.127 85.5487 150.657 87.5274C151.187 89.5062 153.221 90.6804 155.2 90.1502Z" fill="#FF2626"/>
<path d="M160.81 111.088C162.788 110.558 163.963 108.524 163.432 106.545C162.902 104.566 160.868 103.392 158.889 103.922C156.911 104.452 155.736 106.486 156.267 108.465C156.797 110.444 158.831 111.618 160.81 111.088Z" fill="#FF2626"/>
<path d="M166.42 132.025C168.399 131.495 169.573 129.461 169.043 127.482C168.513 125.504 166.479 124.329 164.5 124.86C162.521 125.39 161.347 127.424 161.877 129.402C162.407 131.381 164.441 132.555 166.42 132.025Z" fill="#FF2626"/>
<path d="M172.03 152.963C174.009 152.433 175.183 150.399 174.653 148.42C174.123 146.441 172.089 145.267 170.11 145.797C168.131 146.328 166.957 148.361 167.487 150.34C168.018 152.319 170.051 153.493 172.03 152.963Z" fill="#FF2626"/>
<path d="M177.641 173.9C179.619 173.37 180.794 171.336 180.263 169.358C179.733 167.379 177.699 166.205 175.721 166.735C173.742 167.265 172.568 169.299 173.098 171.278C173.628 173.256 175.662 174.431 177.641 173.9Z" fill="#FF2626"/>
<path d="M183.25 194.838C185.229 194.308 186.403 192.274 185.873 190.295C185.343 188.317 183.309 187.142 181.33 187.673C179.352 188.203 178.177 190.237 178.708 192.215C179.238 194.194 181.272 195.368 183.25 194.838Z" fill="#FF2626"/>
<path d="M188.86 215.776C190.839 215.246 192.013 213.212 191.483 211.233C190.953 209.254 188.919 208.08 186.94 208.61C184.962 209.14 183.787 211.174 184.317 213.153C184.848 215.132 186.882 216.306 188.86 215.776Z" fill="#FF2626"/>
<path d="M194.471 236.713C196.45 236.183 197.624 234.149 197.094 232.171C196.564 230.192 194.53 229.018 192.551 229.548C190.572 230.078 189.398 232.112 189.928 234.091C190.458 236.069 192.492 237.244 194.471 236.713Z" fill="#FF2626"/>
<path d="M200.081 257.651C202.06 257.121 203.234 255.087 202.704 253.108C202.174 251.129 200.14 249.955 198.161 250.485C196.182 251.015 195.008 253.049 195.538 255.028C196.068 257.007 198.102 258.181 200.081 257.651Z" fill="#FF2626"/>
<path d="M205.691 278.588C207.67 278.058 208.844 276.024 208.314 274.046C207.783 272.067 205.75 270.893 203.771 271.423C201.792 271.953 200.618 273.987 201.148 275.966C201.678 277.944 203.712 279.119 205.691 278.588Z" fill="#FF2626"/>
<path d="M163.408 43.0689C165.387 42.5387 166.561 40.5048 166.031 38.5261C165.501 36.5473 163.467 35.3731 161.488 35.9033C159.509 36.4335 158.335 38.4674 158.865 40.4461C159.395 42.4249 161.429 43.5991 163.408 43.0689Z" fill="#FF2626"/>
<path d="M169.018 64.0064C170.997 63.4762 172.171 61.4423 171.641 59.4636C171.111 57.4848 169.077 56.3106 167.098 56.8408C165.119 57.371 163.945 59.4049 164.475 61.3836C165.005 63.3624 167.039 64.5366 169.018 64.0064Z" fill="#FF2626"/>
<path d="M174.629 84.9439C176.608 84.4137 177.782 82.3798 177.252 80.4011C176.721 78.4223 174.688 77.2481 172.709 77.7783C170.73 78.3085 169.556 80.3424 170.086 82.3211C170.616 84.2999 172.65 85.4741 174.629 84.9439Z" fill="#FF2626"/>
<path d="M180.239 105.882C182.217 105.351 183.392 103.318 182.862 101.339C182.331 99.3601 180.297 98.1858 178.319 98.716C176.34 99.2462 175.166 101.28 175.696 103.259C176.226 105.238 178.26 106.412 180.239 105.882Z" fill="#FF2626"/>
<path d="M185.849 126.819C187.827 126.289 189.002 124.255 188.471 122.277C187.941 120.298 185.907 119.124 183.929 119.654C181.95 120.184 180.776 122.218 181.306 124.197C181.836 126.175 183.87 127.35 185.849 126.819Z" fill="#FF2626"/>
<path d="M191.459 147.757C193.438 147.226 194.612 145.193 194.082 143.214C193.552 141.235 191.518 140.061 189.539 140.591C187.561 141.121 186.386 143.155 186.917 145.134C187.447 147.113 189.481 148.287 191.459 147.757Z" fill="#FF2626"/>
<path d="M197.069 168.695C199.048 168.164 200.222 166.131 199.692 164.152C199.162 162.173 197.128 160.999 195.149 161.529C193.171 162.059 191.996 164.093 192.526 166.072C193.057 168.051 195.091 169.225 197.069 168.695Z" fill="#FF2626"/>
<path d="M202.68 189.632C204.659 189.102 205.833 187.068 205.303 185.09C204.773 183.111 202.739 181.937 200.76 182.467C198.781 182.997 197.607 185.031 198.137 187.01C198.667 188.988 200.701 190.163 202.68 189.632Z" fill="#FF2626"/>
<path d="M208.29 210.569C210.269 210.039 211.443 208.005 210.913 206.027C210.383 204.048 208.349 202.874 206.37 203.404C204.391 203.934 203.217 205.968 203.747 207.947C204.277 209.925 206.311 211.1 208.29 210.569Z" fill="#FF2626"/>
<path d="M213.9 231.507C215.879 230.977 217.053 228.943 216.523 226.965C215.992 224.986 213.959 223.812 211.98 224.342C210.001 224.872 208.827 226.906 209.357 228.885C209.887 230.863 211.921 232.038 213.9 231.507Z" fill="#FF2626"/>
<path d="M219.511 252.445C221.489 251.915 222.664 249.881 222.134 247.902C221.603 245.923 219.569 244.749 217.591 245.279C215.612 245.809 214.438 247.843 214.968 249.822C215.498 251.801 217.532 252.975 219.511 252.445Z" fill="#FF2626"/>
<path d="M225.121 273.382C227.099 272.852 228.274 270.818 227.743 268.84C227.213 266.861 225.179 265.687 223.201 266.217C221.222 266.747 220.047 268.781 220.578 270.76C221.108 272.738 223.142 273.913 225.121 273.382Z" fill="#FF2626"/>
<path d="M188.441 58.8021C190.42 58.2719 191.594 56.238 191.064 54.2592C190.534 52.2805 188.5 51.1062 186.521 51.6364C184.543 52.1666 183.368 54.2005 183.898 56.1793C184.429 58.158 186.463 59.3323 188.441 58.8021Z" fill="#FF2626"/>
<path d="M194.052 79.7396C196.03 79.2094 197.205 77.1755 196.675 75.1967C196.144 73.218 194.11 72.0437 192.132 72.5739C190.153 73.1041 188.979 75.138 189.509 77.1168C190.039 79.0955 192.073 80.2698 194.052 79.7396Z" fill="#FF2626"/>
<path d="M199.662 100.678C201.64 100.147 202.815 98.1135 202.284 96.1347C201.754 94.156 199.72 92.9817 197.742 93.5119C195.763 94.0421 194.589 96.076 195.119 98.0548C195.649 100.034 197.683 101.208 199.662 100.678Z" fill="#FF2626"/>
<path d="M205.272 121.615C207.251 121.085 208.425 119.051 207.895 117.072C207.365 115.093 205.331 113.919 203.352 114.449C201.373 114.98 200.199 117.014 200.729 118.992C201.259 120.971 203.293 122.145 205.272 121.615Z" fill="#FF2626"/>
<path d="M210.882 142.553C212.861 142.022 214.035 139.988 213.505 138.01C212.975 136.031 210.941 134.857 208.962 135.387C206.983 135.917 205.809 137.951 206.339 139.93C206.87 141.909 208.904 143.083 210.882 142.553Z" fill="#FF2626"/>
<path d="M216.493 163.49C218.471 162.96 219.646 160.926 219.115 158.947C218.585 156.968 216.551 155.794 214.573 156.324C212.594 156.855 211.42 158.889 211.95 160.867C212.48 162.846 214.514 164.02 216.493 163.49Z" fill="#FF2626"/>
<path d="M222.102 184.428C224.081 183.898 225.256 181.864 224.725 179.885C224.195 177.906 222.161 176.732 220.182 177.262C218.204 177.792 217.029 179.826 217.56 181.805C218.09 183.784 220.124 184.958 222.102 184.428Z" fill="#FF2626"/>
<path d="M227.713 205.365C229.692 204.835 230.866 202.801 230.336 200.822C229.805 198.844 227.772 197.669 225.793 198.2C223.814 198.73 222.64 200.764 223.17 202.743C223.7 204.721 225.734 205.896 227.713 205.365Z" fill="#FF2626"/>
<path d="M233.323 226.303C235.302 225.773 236.476 223.739 235.946 221.76C235.416 219.782 233.382 218.607 231.403 219.138C229.424 219.668 228.25 221.702 228.78 223.681C229.311 225.659 231.344 226.834 233.323 226.303Z" fill="#FF2626"/>
<path d="M238.934 247.241C240.912 246.711 242.087 244.677 241.556 242.698C241.026 240.719 238.992 239.545 237.014 240.075C235.035 240.605 233.86 242.639 234.391 244.618C234.921 246.597 236.955 247.771 238.934 247.241Z" fill="#FF2626"/>
<path d="M244.544 268.178C246.523 267.648 247.697 265.614 247.167 263.635C246.637 261.657 244.603 260.482 242.624 261.013C240.645 261.543 239.471 263.577 240.001 265.555C240.531 267.534 242.565 268.709 244.544 268.178Z" fill="#FF2626"/>
<path d="M207.864 53.5978C209.843 53.0676 211.017 51.0336 210.487 49.0549C209.957 47.0761 207.923 45.9019 205.944 46.4321C203.965 46.9623 202.791 48.9962 203.321 50.9749C203.852 52.9537 205.885 54.128 207.864 53.5978Z" fill="#FF2626"/>
<path d="M213.474 74.5353C215.453 74.0051 216.627 71.9711 216.097 69.9924C215.567 68.0136 213.533 66.8394 211.554 67.3696C209.575 67.8998 208.401 69.9337 208.931 71.9124C209.461 73.8912 211.495 75.0655 213.474 74.5353Z" fill="#FF2626"/>
<path d="M219.085 95.473C221.064 94.9428 222.238 92.9089 221.708 90.9301C221.178 88.9514 219.144 87.7771 217.165 88.3073C215.186 88.8375 214.012 90.8714 214.542 92.8502C215.072 94.8289 217.106 96.0032 219.085 95.473Z" fill="#FF2626"/>
<path d="M224.695 116.411C226.673 115.881 227.848 113.847 227.318 111.868C226.787 109.889 224.753 108.715 222.775 109.245C220.796 109.775 219.622 111.809 220.152 113.788C220.682 115.767 222.716 116.941 224.695 116.411Z" fill="#FF2626"/>
<path d="M230.305 137.348C232.283 136.818 233.458 134.784 232.927 132.805C232.397 130.827 230.363 129.652 228.385 130.183C226.406 130.713 225.232 132.747 225.762 134.725C226.292 136.704 228.326 137.878 230.305 137.348Z" fill="#FF2626"/>
<path d="M235.915 158.286C237.894 157.756 239.068 155.722 238.538 153.743C238.008 151.764 235.974 150.59 233.995 151.12C232.017 151.65 230.842 153.684 231.373 155.663C231.903 157.642 233.937 158.816 235.915 158.286Z" fill="#FF2626"/>
<path d="M241.525 179.224C243.504 178.694 244.678 176.66 244.148 174.681C243.618 172.702 241.584 171.528 239.605 172.058C237.627 172.588 236.452 174.622 236.982 176.601C237.513 178.58 239.547 179.754 241.525 179.224Z" fill="#FF2626"/>
<path d="M247.136 200.161C249.114 199.631 250.289 197.597 249.758 195.618C249.228 193.639 247.194 192.465 245.216 192.995C243.237 193.525 242.063 195.559 242.593 197.538C243.123 199.517 245.157 200.691 247.136 200.161Z" fill="#FF2626"/>
<path d="M252.746 221.099C254.724 220.569 255.899 218.535 255.368 216.556C254.838 214.577 252.804 213.403 250.825 213.933C248.847 214.463 247.672 216.497 248.203 218.476C248.733 220.455 250.767 221.629 252.746 221.099Z" fill="#FF2626"/>
<path d="M227.293 48.3919C229.272 47.8617 230.446 45.8278 229.916 43.8491C229.386 41.8703 227.352 40.6961 225.373 41.2263C223.395 41.7565 222.22 43.7904 222.751 45.7691C223.281 47.7479 225.315 48.9221 227.293 48.3919Z" fill="#FF2626"/>
<path d="M232.903 69.3294C234.882 68.7992 236.056 66.7653 235.526 64.7866C234.996 62.8078 232.962 61.6336 230.983 62.1638C229.004 62.694 227.83 64.7279 228.36 66.7066C228.891 68.6854 230.925 69.8596 232.903 69.3294Z" fill="#FF2626"/>
<path d="M238.513 90.2669C240.492 89.7367 241.666 87.7028 241.136 85.7241C240.606 83.7453 238.572 82.5711 236.593 83.1013C234.614 83.6315 233.44 85.6654 233.97 87.6441C234.5 89.6229 236.534 90.7971 238.513 90.2669Z" fill="#FF2626"/>
<path d="M244.124 111.205C246.103 110.674 247.277 108.641 246.747 106.662C246.217 104.683 244.183 103.509 242.204 104.039C240.225 104.569 239.051 106.603 239.581 108.582C240.111 110.561 242.145 111.735 244.124 111.205Z" fill="#FF2626"/>
<path d="M249.734 132.142C251.713 131.612 252.887 129.578 252.357 127.599C251.826 125.621 249.793 124.446 247.814 124.977C245.835 125.507 244.661 127.541 245.191 129.519C245.721 131.498 247.755 132.672 249.734 132.142Z" fill="#FF2626"/>
<path d="M255.344 153.08C257.322 152.55 258.497 150.516 257.967 148.537C257.436 146.558 255.402 145.384 253.424 145.914C251.445 146.444 250.271 148.478 250.801 150.457C251.331 152.436 253.365 153.61 255.344 153.08Z" fill="#FF2626"/>
<path d="M246.715 43.1876C248.694 42.6574 249.868 40.6235 249.338 38.6447C248.808 36.666 246.774 35.4917 244.795 36.0219C242.816 36.5521 241.642 38.586 242.172 40.5648C242.703 42.5435 244.737 43.7178 246.715 43.1876Z" fill="#FF2626"/>
<path d="M252.326 64.1251C254.305 63.5949 255.479 61.561 254.949 59.5822C254.419 57.6035 252.385 56.4292 250.406 56.9594C248.427 57.4896 247.253 59.5235 247.783 61.5023C248.313 63.481 250.347 64.6553 252.326 64.1251Z" fill="#FF2626"/>
<path d="M257.936 85.0628C259.915 84.5326 261.089 82.4987 260.559 80.52C260.029 78.5412 257.995 77.367 256.016 77.8972C254.037 78.4274 252.863 80.4613 253.393 82.44C253.923 84.4188 255.957 85.593 257.936 85.0628Z" fill="#FF2626"/>
<path d="M191.879 304.731C193.858 304.2 195.032 302.166 194.502 300.188C193.971 298.209 191.938 297.035 189.959 297.565C187.98 298.095 186.806 300.129 187.336 302.108C187.866 304.086 189.9 305.261 191.879 304.731Z" fill="#FF2626"/>
<path d="M211.302 299.526C213.28 298.996 214.455 296.962 213.925 294.983C213.394 293.004 211.36 291.83 209.382 292.36C207.403 292.89 206.229 294.924 206.759 296.903C207.289 298.882 209.323 300.056 211.302 299.526Z" fill="#FF2626"/>
<path d="M230.73 294.32C232.709 293.79 233.883 291.756 233.353 289.778C232.823 287.799 230.789 286.625 228.81 287.155C226.832 287.685 225.657 289.719 226.188 291.698C226.718 293.676 228.752 294.851 230.73 294.32Z" fill="#FF2626"/>
<path d="M250.154 289.116C252.133 288.586 253.307 286.552 252.777 284.573C252.246 282.594 250.212 281.42 248.234 281.95C246.255 282.48 245.081 284.514 245.611 286.493C246.141 288.472 248.175 289.646 250.154 289.116Z" fill="#FF2626"/>
</g>
<mask id="mask1_229_1428" style="mask-type:luminance" maskUnits="userSpaceOnUse" x="159" y="329" width="68" height="67">
<path d="M201.582 394.65C219.228 389.922 229.699 371.784 224.971 354.139C220.243 336.493 202.105 326.021 184.46 330.75C166.814 335.478 156.343 353.615 161.071 371.261C165.799 388.906 183.936 399.378 201.582 394.65Z" fill="white"/>
</mask>
<g mask="url(#mask1_229_1428)">
<path d="M160.388 353.072C162.366 352.542 163.541 350.508 163.01 348.529C162.48 346.55 160.446 345.376 158.468 345.906C156.489 346.436 155.315 348.47 155.845 350.449C156.375 352.428 158.409 353.602 160.388 353.072Z" fill="#FF2626"/>
<path d="M165.997 374.01C167.976 373.48 169.151 371.446 168.62 369.467C168.09 367.488 166.056 366.314 164.077 366.844C162.099 367.374 160.924 369.408 161.455 371.387C161.985 373.366 164.019 374.54 165.997 374.01Z" fill="#FF2626"/>
<path d="M179.816 347.866C181.795 347.336 182.969 345.302 182.439 343.323C181.908 341.344 179.875 340.17 177.896 340.7C175.917 341.23 174.743 343.264 175.273 345.243C175.803 347.222 177.837 348.396 179.816 347.866Z" fill="#FF2626"/>
<path d="M185.427 368.804C187.405 368.274 188.58 366.24 188.05 364.261C187.519 362.282 185.485 361.108 183.507 361.638C181.528 362.168 180.354 364.202 180.884 366.181C181.414 368.16 183.448 369.334 185.427 368.804Z" fill="#FF2626"/>
<path d="M199.239 342.662C201.217 342.131 202.392 340.098 201.862 338.119C201.331 336.14 199.297 334.966 197.319 335.496C195.34 336.026 194.166 338.06 194.696 340.039C195.226 342.018 197.26 343.192 199.239 342.662Z" fill="#FF2626"/>
<path d="M204.849 363.599C206.827 363.069 208.002 361.035 207.471 359.056C206.941 357.078 204.907 355.903 202.929 356.434C200.95 356.964 199.776 358.998 200.306 360.976C200.836 362.955 202.87 364.129 204.849 363.599Z" fill="#FF2626"/>
<path d="M218.662 337.457C220.64 336.927 221.815 334.893 221.284 332.914C220.754 330.935 218.72 329.761 216.742 330.291C214.763 330.822 213.588 332.856 214.119 334.834C214.649 336.813 216.683 337.987 218.662 337.457Z" fill="#FF2626"/>
<path d="M224.272 358.395C226.251 357.865 227.425 355.831 226.895 353.852C226.365 351.873 224.331 350.699 222.352 351.229C220.374 351.76 219.199 353.794 219.73 355.772C220.26 357.751 222.294 358.925 224.272 358.395Z" fill="#FF2626"/>
<path d="M171.609 394.954C173.588 394.423 174.762 392.39 174.232 390.411C173.702 388.432 171.668 387.258 169.689 387.788C167.711 388.318 166.536 390.352 167.066 392.331C167.597 394.31 169.631 395.484 171.609 394.954Z" fill="#FF2626"/>
<path d="M191.039 389.748C193.017 389.217 194.192 387.184 193.661 385.205C193.131 383.226 191.097 382.052 189.118 382.582C187.14 383.112 185.965 385.146 186.496 387.125C187.026 389.104 189.06 390.278 191.039 389.748Z" fill="#FF2626"/>
<path d="M210.46 384.544C212.439 384.013 213.613 381.979 213.083 380.001C212.553 378.022 210.519 376.848 208.54 377.378C206.562 377.908 205.387 379.942 205.918 381.921C206.448 383.899 208.482 385.074 210.46 384.544Z" fill="#FF2626"/>
<path d="M229.884 379.339C231.863 378.809 233.037 376.775 232.507 374.796C231.977 372.817 229.943 371.643 227.964 372.173C225.985 372.703 224.811 374.737 225.341 376.716C225.872 378.695 227.905 379.869 229.884 379.339Z" fill="#FF2626"/>
</g>
</svg>
