<svg width="140" height="548" viewBox="0 0 140 548" fill="none" xmlns="http://www.w3.org/2000/svg">
<path d="M99.1794 5C99.1794 27.4163 134.061 27.4163 134.061 49.8238C134.061 72.2401 99.1794 72.2401 99.1794 94.6564C99.1794 117.073 134.061 117.073 134.061 139.489C134.061 161.905 99.1794 161.905 99.1794 184.322C99.1794 206.738 134.061 206.738 134.061 229.154C134.061 251.571 99.1794 251.57 99.1794 273.987C99.1794 296.403 134.061 296.403 134.061 318.819C134.061 341.236 99.1794 341.236 99.1794 363.652C99.1794 386.068 134.061 386.068 134.061 408.485C134.061 430.901 99.1794 430.901 99.1794 453.317C99.1794 475.734 134.061 475.734 134.061 498.159C134.061 520.575 99.1794 520.575 99.1794 543" stroke="#00FF32" stroke-width="10" stroke-miterlimit="10" stroke-linecap="round"/>
<path d="M52.0896 5C52.0896 27.4163 86.9707 27.4163 86.9707 49.8238C86.9707 72.2401 52.0896 72.2401 52.0896 94.6564C52.0896 117.073 86.9707 117.073 86.9707 139.489C86.9707 161.905 52.0896 161.905 52.0896 184.322C52.0896 206.738 86.9707 206.738 86.9707 229.154C86.9707 251.571 52.0896 251.57 52.0896 273.987C52.0896 296.403 86.9707 296.403 86.9707 318.819C86.9707 341.236 52.0896 341.236 52.0896 363.652C52.0896 386.068 86.9707 386.068 86.9707 408.485C86.9707 430.901 52.0896 430.901 52.0895 453.317C52.0895 475.734 86.9707 475.734 86.9707 498.159C86.9707 520.575 52.0895 520.575 52.0895 543" stroke="#57D9EE" stroke-width="10" stroke-miterlimit="10" stroke-linecap="round"/>
<path d="M5.0007 5C5.0007 27.4163 39.8818 27.4163 39.8818 49.8238C39.8818 72.2401 5.0007 72.2401 5.0007 94.6564C5.0007 117.073 39.8818 117.073 39.8818 139.489C39.8818 161.905 5.0007 161.905 5.00069 184.322C5.00069 206.738 39.8818 206.738 39.8818 229.154C39.8818 251.571 5.00069 251.57 5.00069 273.987C5.00069 296.403 39.8818 296.403 39.8818 318.819C39.8818 341.236 5.00069 341.236 5.00069 363.652C5.00069 386.068 39.8818 386.068 39.8818 408.485C39.8818 430.901 5.00068 430.901 5.00068 453.317C5.00068 475.734 39.8818 475.734 39.8818 498.159C39.8818 520.575 5.00068 520.575 5.00068 543" stroke="#FF31D2" stroke-width="10" stroke-miterlimit="10" stroke-linecap="round"/>
</svg>
