<svg width="197" height="276" viewBox="0 0 197 276" fill="none" xmlns="http://www.w3.org/2000/svg">
<path d="M-27.2805 116.523C-4.60414 107.733 18.8103 100.027 42.8966 93.4463C52.5366 67.1511 63.653 41.5166 76.1689 16.6766C86.8546 41.8575 97.8539 65.8087 109.021 88.5768C134.019 91.2226 159.202 94.3429 184.566 97.9321C165.257 114.061 147.169 131.69 130.48 150.69C135.456 174.382 140.892 197.257 146.666 219.353C125.678 212.647 104.495 205.532 83.1282 198.011C64.4655 214.31 47.1206 231.995 31.2353 250.923C29.4806 223.164 28.864 195.172 29.4117 167.005C10.7186 151.17 -8.20209 134.354 -27.2805 116.523Z" fill="#FF00C7"/>
<path d="M-4.65699 101.607C14.922 94.0173 35.1382 87.3646 55.9345 81.6823C64.2578 58.9789 73.8557 36.8458 84.6621 15.3987C93.8882 37.1402 103.385 57.8198 113.027 77.478C134.61 79.7624 156.353 82.4565 178.253 85.5554C161.581 99.4808 145.964 114.703 131.554 131.107C135.851 151.563 140.544 171.313 145.53 190.391C127.408 184.601 109.119 178.458 90.6708 171.964C74.5573 186.037 59.5816 201.307 45.866 217.649C44.351 193.682 43.8186 169.513 44.2915 145.194C28.1518 131.522 11.8155 117.002 -4.65699 101.607Z" fill="white"/>
</svg>
