<svg width="348" height="447" viewBox="0 0 348 447" fill="none" xmlns="http://www.w3.org/2000/svg">
<path d="M169.371 385.415C157.866 336.883 150.356 280.19 176.494 234.898C184.062 221.789 194.374 211.135 206.491 202.173L210.274 175.341C165.697 208.268 158.507 263.734 164.938 315.417C166.755 330 169.736 344.357 173.128 358.646L169.371 385.415Z" fill="#6D1318"/>
<path d="M63.2524 394.51L169.371 385.415L173.285 358.654L66.8577 367.725L63.2524 394.51Z" fill="#A51F24"/>
<path d="M181.335 168.357C151.932 187.807 124.706 210.844 102.827 238.61C80.4263 267.029 63.7314 300.611 59.5961 336.885C57.3877 356.267 58.9182 375.522 63.2548 394.505L66.856 367.718C58.84 332.682 61.609 297.139 75.3527 263.878C89.1162 230.572 112.152 201.611 138.579 177.408C153.052 164.153 168.715 152.312 185.076 141.501L181.333 168.35L181.335 168.357Z" fill="#6D1318"/>
<path d="M144.541 118.892L181.335 168.357L185.078 141.508L148.223 92.0237L144.541 118.892Z" fill="#A51F24"/>
<path d="M206.491 202.173L241.751 249.582L245.595 222.769L210.274 175.341L206.491 202.173Z" fill="#A51F24"/>
<path d="M241.751 249.582L335.354 129.391L339.316 102.558L245.595 222.769L241.751 249.582Z" fill="#6D1318"/>
<path d="M245.756 222.779L339.472 102.565L148.379 92.0309L185.237 141.522C155.797 160.967 128.538 184.014 106.622 211.786C84.1975 240.207 67.4805 273.799 63.3439 310.095C61.1348 329.487 62.6696 348.744 67.0163 367.739L173.287 358.66C161.757 310.113 154.708 253.698 180.878 208.391C188.451 195.274 198.3 184.314 210.432 175.355L245.757 222.785L245.756 222.779Z" fill="#FF2626"/>
<path d="M237.615 205.593L331.332 85.3792L140.239 74.8451L177.096 124.336C147.657 143.782 120.398 166.828 98.482 194.6C76.0574 223.021 59.3404 256.613 55.2038 292.909C52.9947 312.301 54.5294 331.558 58.8761 350.553L165.146 341.474C153.617 292.928 146.568 236.513 172.738 191.205C180.311 178.088 190.16 167.128 202.292 158.169L237.617 205.599L237.615 205.593Z" stroke="#231815" stroke-width="10" stroke-linejoin="round"/>
</svg>
