<svg width="71" height="63" viewBox="0 0 71 63" fill="none" xmlns="http://www.w3.org/2000/svg">
<path d="M26.6302 8.5692C31.2998 11.0269 35.8972 13.7599 40.4063 16.763C46.0824 14.5931 51.8608 12.759 57.7086 11.267C55.1113 16.6038 52.7599 21.8166 50.626 26.8883C53.7553 31.3554 56.8334 35.9203 59.8606 40.5818C54.4701 39.7209 49.008 39.2737 43.5211 39.2505C40.3538 43.441 37.3856 47.59 34.5932 51.6835C32.6996 47.2939 30.8451 42.8142 29.0309 38.2463C23.7046 37.5154 18.3392 37.1977 12.9785 37.2959C17.2704 33.053 21.7626 28.9631 26.4492 25.0389C26.3762 19.7239 26.4314 14.2318 26.6302 8.5692Z" stroke="black" stroke-width="10"/>
</svg>
