<svg width="93" height="85" viewBox="0 0 93 85" fill="none" xmlns="http://www.w3.org/2000/svg">
<path d="M22.0141 23.2662C28.4441 24.4247 34.8915 25.9352 41.3357 27.7975C47.2267 23.1174 53.3637 18.7954 59.7105 14.8514C58.6361 22.1211 57.8058 29.1526 57.1796 35.9364C62.5412 40.0421 67.8788 44.2824 73.1923 48.6556C66.5073 49.6511 59.8921 51.1618 53.4059 53.1824C51.2309 59.3116 49.2754 65.3176 47.5067 71.1923C43.6328 66.7169 39.7716 62.1206 35.9248 57.4052C29.3641 58.5303 22.9115 60.1578 16.6197 62.2745C20.1028 55.6638 23.8795 49.1588 27.9476 42.7769C25.8777 36.5296 23.8929 30.0253 22.0141 23.2662Z" fill="#E60012"/>
<path d="M31.0141 23.2662C37.4441 24.4247 43.8915 25.9352 50.3357 27.7975C56.2267 23.1174 62.3637 18.7954 68.7105 14.8514C67.6361 22.1211 66.8058 29.1526 66.1796 35.9364C71.5412 40.0421 76.8788 44.2824 82.1923 48.6556C75.5073 49.6511 68.8921 51.1618 62.4059 53.1824C60.2309 59.3116 58.2754 65.3176 56.5067 71.1923C52.6328 66.7169 48.7716 62.1206 44.9248 57.4052C38.3641 58.5303 31.9115 60.1578 25.6197 62.2745C29.1028 55.6638 32.8795 49.1588 36.9476 42.7769C34.8777 36.5296 32.8929 30.0253 31.0141 23.2662Z" fill="#00FFE4"/>
</svg>
