<?xml version="1.0" encoding="utf-8"?>
<!-- Generator: Adobe Illustrator 25.0.0, SVG Export Plug-In . SVG Version: 6.00 Build 0)  -->
<svg version="1.1" id="圖層_1" xmlns="http://www.w3.org/2000/svg" xmlns:xlink="http://www.w3.org/1999/xlink" x="0px" y="0px"
	 viewBox="0 0 251 377.3" style="enable-background:new 0 0 251 377.3;" xml:space="preserve">
<style type="text/css">
	.st0{fill:#FFFFFF;filter:url(#Adobe_OpacityMaskFilter);}
	.st1{mask:url(#mask0_244_2510_1_);}
	.st2{fill:#FF31D2;}
</style>
<defs>
	<filter id="Adobe_OpacityMaskFilter" filterUnits="userSpaceOnUse" x="-163" y="-150.7" width="820" height="602">
		<feColorMatrix  type="matrix" values="1 0 0 0 0  0 1 0 0 0  0 0 1 0 0  0 0 0 1 0"/>
	</filter>
</defs>
<mask maskUnits="userSpaceOnUse" x="-163" y="-150.7" width="820" height="602" id="mask0_244_2510_1_">
	<path class="st0" d="M215.3,7.3H-29.3C-49,7.3-65,16.1-65,27v330.7c0,10.8,16,19.6,35.7,19.6h244.6c19.7,0,35.7-8.8,35.7-19.6V27
		C251,16.1,235,7.3,215.3,7.3z"/>
</mask>
<g class="st1">
	<path class="st2" d="M-158.2-141c2.7,0,4.8-2.2,4.8-4.8c0-2.7-2.2-4.8-4.8-4.8c-2.7,0-4.8,2.2-4.8,4.8
		C-163-143.2-160.8-141-158.2-141z"/>
	<path class="st2" d="M-158.2-112.8c2.7,0,4.8-2.2,4.8-4.8c0-2.7-2.2-4.8-4.8-4.8c-2.7,0-4.8,2.2-4.8,4.8
		C-163-115-160.8-112.8-158.2-112.8z"/>
	<path class="st2" d="M-158.2-84.6c2.7,0,4.8-2.2,4.8-4.8s-2.2-4.8-4.8-4.8c-2.7,0-4.8,2.2-4.8,4.8S-160.8-84.6-158.2-84.6z"/>
	<path class="st2" d="M-158.2-56.4c2.7,0,4.8-2.2,4.8-4.8c0-2.7-2.2-4.8-4.8-4.8c-2.7,0-4.8,2.2-4.8,4.8
		C-163-58.6-160.8-56.4-158.2-56.4z"/>
	<path class="st2" d="M-158.2-28.2c2.7,0,4.8-2.2,4.8-4.8c0-2.7-2.2-4.8-4.8-4.8c-2.7,0-4.8,2.2-4.8,4.8
		C-163-30.4-160.8-28.2-158.2-28.2z"/>
	<path class="st2" d="M-158.2,0c2.7,0,4.8-2.2,4.8-4.8s-2.2-4.8-4.8-4.8c-2.7,0-4.8,2.2-4.8,4.8S-160.8,0-158.2,0z"/>
	<path class="st2" d="M-158.2,28.2c2.7,0,4.8-2.2,4.8-4.8c0-2.7-2.2-4.8-4.8-4.8c-2.7,0-4.8,2.2-4.8,4.8
		C-163,26-160.8,28.2-158.2,28.2z"/>
	<path class="st2" d="M-158.2,56.4c2.7,0,4.8-2.2,4.8-4.8c0-2.7-2.2-4.8-4.8-4.8c-2.7,0-4.8,2.2-4.8,4.8
		C-163,54.2-160.8,56.4-158.2,56.4z"/>
	<path class="st2" d="M-158.2,84.6c2.7,0,4.8-2.2,4.8-4.8c0-2.7-2.2-4.8-4.8-4.8c-2.7,0-4.8,2.2-4.8,4.8
		C-163,82.5-160.8,84.6-158.2,84.6z"/>
	<path class="st2" d="M-158.2,112.8c2.7,0,4.8-2.2,4.8-4.8c0-2.7-2.2-4.8-4.8-4.8c-2.7,0-4.8,2.2-4.8,4.8
		C-163,110.7-160.8,112.8-158.2,112.8z"/>
	<path class="st2" d="M-158.2,141c2.7,0,4.8-2.2,4.8-4.8c0-2.7-2.2-4.8-4.8-4.8c-2.7,0-4.8,2.2-4.8,4.8
		C-163,138.9-160.8,141-158.2,141z"/>
	<path class="st2" d="M-158.2,169.2c2.7,0,4.8-2.2,4.8-4.8c0-2.7-2.2-4.8-4.8-4.8c-2.7,0-4.8,2.2-4.8,4.8
		C-163,167.1-160.8,169.2-158.2,169.2z"/>
	<path class="st2" d="M-158.2,197.4c2.7,0,4.8-2.2,4.8-4.8c0-2.7-2.2-4.8-4.8-4.8c-2.7,0-4.8,2.2-4.8,4.8
		C-163,195.3-160.8,197.4-158.2,197.4z"/>
	<path class="st2" d="M-158.2,225.7c2.7,0,4.8-2.2,4.8-4.8c0-2.7-2.2-4.8-4.8-4.8c-2.7,0-4.8,2.2-4.8,4.8
		C-163,223.5-160.8,225.7-158.2,225.7z"/>
	<path class="st2" d="M-132-141c2.7,0,4.8-2.2,4.8-4.8c0-2.7-2.2-4.8-4.8-4.8s-4.8,2.2-4.8,4.8C-136.9-143.2-134.7-141-132-141z"/>
	<path class="st2" d="M-132-112.8c2.7,0,4.8-2.2,4.8-4.8c0-2.7-2.2-4.8-4.8-4.8s-4.8,2.2-4.8,4.8C-136.9-115-134.7-112.8-132-112.8z
		"/>
	<path class="st2" d="M-132-84.6c2.7,0,4.8-2.2,4.8-4.8s-2.2-4.8-4.8-4.8s-4.8,2.2-4.8,4.8S-134.7-84.6-132-84.6z"/>
	<path class="st2" d="M-132-56.4c2.7,0,4.8-2.2,4.8-4.8c0-2.7-2.2-4.8-4.8-4.8s-4.8,2.2-4.8,4.8C-136.9-58.6-134.7-56.4-132-56.4z"
		/>
	<path class="st2" d="M-132-28.2c2.7,0,4.8-2.2,4.8-4.8c0-2.7-2.2-4.8-4.8-4.8s-4.8,2.2-4.8,4.8C-136.9-30.4-134.7-28.2-132-28.2z"
		/>
	<path class="st2" d="M-132,0c2.7,0,4.8-2.2,4.8-4.8s-2.2-4.8-4.8-4.8s-4.8,2.2-4.8,4.8S-134.7,0-132,0z"/>
	<path class="st2" d="M-132,28.2c2.7,0,4.8-2.2,4.8-4.8c0-2.7-2.2-4.8-4.8-4.8s-4.8,2.2-4.8,4.8C-136.9,26-134.7,28.2-132,28.2z"/>
	<path class="st2" d="M-132,56.4c2.7,0,4.8-2.2,4.8-4.8c0-2.7-2.2-4.8-4.8-4.8s-4.8,2.2-4.8,4.8C-136.9,54.2-134.7,56.4-132,56.4z"
		/>
	<path class="st2" d="M-132,84.6c2.7,0,4.8-2.2,4.8-4.8c0-2.7-2.2-4.8-4.8-4.8s-4.8,2.2-4.8,4.8C-136.9,82.5-134.7,84.6-132,84.6z"
		/>
	<path class="st2" d="M-132,112.8c2.7,0,4.8-2.2,4.8-4.8c0-2.7-2.2-4.8-4.8-4.8s-4.8,2.2-4.8,4.8
		C-136.9,110.7-134.7,112.8-132,112.8z"/>
	<path class="st2" d="M-132,141c2.7,0,4.8-2.2,4.8-4.8c0-2.7-2.2-4.8-4.8-4.8s-4.8,2.2-4.8,4.8C-136.9,138.9-134.7,141-132,141z"/>
	<path class="st2" d="M-132,169.2c2.7,0,4.8-2.2,4.8-4.8c0-2.7-2.2-4.8-4.8-4.8s-4.8,2.2-4.8,4.8
		C-136.9,167.1-134.7,169.2-132,169.2z"/>
	<path class="st2" d="M-132,197.4c2.7,0,4.8-2.2,4.8-4.8c0-2.7-2.2-4.8-4.8-4.8s-4.8,2.2-4.8,4.8
		C-136.9,195.3-134.7,197.4-132,197.4z"/>
	<path class="st2" d="M-132,225.7c2.7,0,4.8-2.2,4.8-4.8c0-2.7-2.2-4.8-4.8-4.8s-4.8,2.2-4.8,4.8
		C-136.9,223.5-134.7,225.7-132,225.7z"/>
	<path class="st2" d="M-105.9-141c2.7,0,4.8-2.2,4.8-4.8c0-2.7-2.2-4.8-4.8-4.8s-4.8,2.2-4.8,4.8C-110.7-143.2-108.6-141-105.9-141z
		"/>
	<path class="st2" d="M-105.9-112.8c2.7,0,4.8-2.2,4.8-4.8c0-2.7-2.2-4.8-4.8-4.8s-4.8,2.2-4.8,4.8
		C-110.7-115-108.6-112.8-105.9-112.8z"/>
	<path class="st2" d="M-105.9-84.6c2.7,0,4.8-2.2,4.8-4.8s-2.2-4.8-4.8-4.8s-4.8,2.2-4.8,4.8S-108.6-84.6-105.9-84.6z"/>
	<path class="st2" d="M-105.9-56.4c2.7,0,4.8-2.2,4.8-4.8c0-2.7-2.2-4.8-4.8-4.8s-4.8,2.2-4.8,4.8
		C-110.7-58.6-108.6-56.4-105.9-56.4z"/>
	<path class="st2" d="M-105.9-28.2c2.7,0,4.8-2.2,4.8-4.8c0-2.7-2.2-4.8-4.8-4.8s-4.8,2.2-4.8,4.8
		C-110.7-30.4-108.6-28.2-105.9-28.2z"/>
	<path class="st2" d="M-105.9,0c2.7,0,4.8-2.2,4.8-4.8s-2.2-4.8-4.8-4.8s-4.8,2.2-4.8,4.8S-108.6,0-105.9,0z"/>
	<path class="st2" d="M-105.9,28.2c2.7,0,4.8-2.2,4.8-4.8c0-2.7-2.2-4.8-4.8-4.8s-4.8,2.2-4.8,4.8C-110.7,26-108.6,28.2-105.9,28.2z
		"/>
	<path class="st2" d="M-105.9,56.4c2.7,0,4.8-2.2,4.8-4.8c0-2.7-2.2-4.8-4.8-4.8s-4.8,2.2-4.8,4.8
		C-110.7,54.2-108.6,56.4-105.9,56.4z"/>
	<path class="st2" d="M-105.9,84.6c2.7,0,4.8-2.2,4.8-4.8c0-2.7-2.2-4.8-4.8-4.8s-4.8,2.2-4.8,4.8
		C-110.7,82.5-108.6,84.6-105.9,84.6z"/>
	<path class="st2" d="M-105.9,112.8c2.7,0,4.8-2.2,4.8-4.8c0-2.7-2.2-4.8-4.8-4.8s-4.8,2.2-4.8,4.8
		C-110.7,110.7-108.6,112.8-105.9,112.8z"/>
	<path class="st2" d="M-105.9,141c2.7,0,4.8-2.2,4.8-4.8c0-2.7-2.2-4.8-4.8-4.8s-4.8,2.2-4.8,4.8C-110.7,138.9-108.6,141-105.9,141z
		"/>
	<path class="st2" d="M-105.9,169.2c2.7,0,4.8-2.2,4.8-4.8c0-2.7-2.2-4.8-4.8-4.8s-4.8,2.2-4.8,4.8
		C-110.7,167.1-108.6,169.2-105.9,169.2z"/>
	<path class="st2" d="M-105.9,197.4c2.7,0,4.8-2.2,4.8-4.8c0-2.7-2.2-4.8-4.8-4.8s-4.8,2.2-4.8,4.8
		C-110.7,195.3-108.6,197.4-105.9,197.4z"/>
	<path class="st2" d="M-105.9,225.7c2.7,0,4.8-2.2,4.8-4.8c0-2.7-2.2-4.8-4.8-4.8s-4.8,2.2-4.8,4.8
		C-110.7,223.5-108.6,225.7-105.9,225.7z"/>
	<path class="st2" d="M-79.8-141c2.7,0,4.8-2.2,4.8-4.8c0-2.7-2.2-4.8-4.8-4.8c-2.7,0-4.8,2.2-4.8,4.8
		C-84.6-143.2-82.4-141-79.8-141z"/>
	<path class="st2" d="M-79.8-112.8c2.7,0,4.8-2.2,4.8-4.8c0-2.7-2.2-4.8-4.8-4.8c-2.7,0-4.8,2.2-4.8,4.8
		C-84.6-115-82.4-112.8-79.8-112.8z"/>
	<path class="st2" d="M-79.8-84.6c2.7,0,4.8-2.2,4.8-4.8s-2.2-4.8-4.8-4.8c-2.7,0-4.8,2.2-4.8,4.8S-82.4-84.6-79.8-84.6z"/>
	<path class="st2" d="M-79.8-56.4c2.7,0,4.8-2.2,4.8-4.8c0-2.7-2.2-4.8-4.8-4.8c-2.7,0-4.8,2.2-4.8,4.8
		C-84.6-58.6-82.4-56.4-79.8-56.4z"/>
	<path class="st2" d="M-79.8-28.2c2.7,0,4.8-2.2,4.8-4.8c0-2.7-2.2-4.8-4.8-4.8c-2.7,0-4.8,2.2-4.8,4.8
		C-84.6-30.4-82.4-28.2-79.8-28.2z"/>
	<path class="st2" d="M-79.8,0c2.7,0,4.8-2.2,4.8-4.8s-2.2-4.8-4.8-4.8c-2.7,0-4.8,2.2-4.8,4.8S-82.4,0-79.8,0z"/>
	<path class="st2" d="M-79.8,28.2c2.7,0,4.8-2.2,4.8-4.8c0-2.7-2.2-4.8-4.8-4.8c-2.7,0-4.8,2.2-4.8,4.8
		C-84.6,26-82.4,28.2-79.8,28.2z"/>
	<path class="st2" d="M-79.8,56.4c2.7,0,4.8-2.2,4.8-4.8c0-2.7-2.2-4.8-4.8-4.8c-2.7,0-4.8,2.2-4.8,4.8
		C-84.6,54.2-82.4,56.4-79.8,56.4z"/>
	<path class="st2" d="M-79.8,84.6c2.7,0,4.8-2.2,4.8-4.8c0-2.7-2.2-4.8-4.8-4.8c-2.7,0-4.8,2.2-4.8,4.8
		C-84.6,82.5-82.4,84.6-79.8,84.6z"/>
	<path class="st2" d="M-79.8,112.8c2.7,0,4.8-2.2,4.8-4.8c0-2.7-2.2-4.8-4.8-4.8c-2.7,0-4.8,2.2-4.8,4.8
		C-84.6,110.7-82.4,112.8-79.8,112.8z"/>
	<path class="st2" d="M-79.8,141c2.7,0,4.8-2.2,4.8-4.8c0-2.7-2.2-4.8-4.8-4.8c-2.7,0-4.8,2.2-4.8,4.8
		C-84.6,138.9-82.4,141-79.8,141z"/>
	<path class="st2" d="M-79.8,169.2c2.7,0,4.8-2.2,4.8-4.8c0-2.7-2.2-4.8-4.8-4.8c-2.7,0-4.8,2.2-4.8,4.8
		C-84.6,167.1-82.4,169.2-79.8,169.2z"/>
	<path class="st2" d="M-79.8,197.4c2.7,0,4.8-2.2,4.8-4.8c0-2.7-2.2-4.8-4.8-4.8c-2.7,0-4.8,2.2-4.8,4.8
		C-84.6,195.3-82.4,197.4-79.8,197.4z"/>
	<path class="st2" d="M-79.8,225.7c2.7,0,4.8-2.2,4.8-4.8c0-2.7-2.2-4.8-4.8-4.8c-2.7,0-4.8,2.2-4.8,4.8
		C-84.6,223.5-82.4,225.7-79.8,225.7z"/>
	<path class="st2" d="M-53.6-141c2.7,0,4.8-2.2,4.8-4.8c0-2.7-2.2-4.8-4.8-4.8c-2.7,0-4.8,2.2-4.8,4.8
		C-58.4-143.2-56.3-141-53.6-141z"/>
	<path class="st2" d="M-53.6-112.8c2.7,0,4.8-2.2,4.8-4.8c0-2.7-2.2-4.8-4.8-4.8c-2.7,0-4.8,2.2-4.8,4.8
		C-58.4-115-56.3-112.8-53.6-112.8z"/>
	<path class="st2" d="M-53.6-84.6c2.7,0,4.8-2.2,4.8-4.8s-2.2-4.8-4.8-4.8c-2.7,0-4.8,2.2-4.8,4.8S-56.3-84.6-53.6-84.6z"/>
	<path class="st2" d="M-53.6-56.4c2.7,0,4.8-2.2,4.8-4.8c0-2.7-2.2-4.8-4.8-4.8c-2.7,0-4.8,2.2-4.8,4.8
		C-58.4-58.6-56.3-56.4-53.6-56.4z"/>
	<path class="st2" d="M-53.6-28.2c2.7,0,4.8-2.2,4.8-4.8c0-2.7-2.2-4.8-4.8-4.8c-2.7,0-4.8,2.2-4.8,4.8
		C-58.4-30.4-56.3-28.2-53.6-28.2z"/>
	<path class="st2" d="M-53.6,0c2.7,0,4.8-2.2,4.8-4.8s-2.2-4.8-4.8-4.8c-2.7,0-4.8,2.2-4.8,4.8S-56.3,0-53.6,0z"/>
	<path class="st2" d="M-53.6,28.2c2.7,0,4.8-2.2,4.8-4.8c0-2.7-2.2-4.8-4.8-4.8c-2.7,0-4.8,2.2-4.8,4.8
		C-58.4,26-56.3,28.2-53.6,28.2z"/>
	<path class="st2" d="M-53.6,56.4c2.7,0,4.8-2.2,4.8-4.8c0-2.7-2.2-4.8-4.8-4.8c-2.7,0-4.8,2.2-4.8,4.8
		C-58.4,54.2-56.3,56.4-53.6,56.4z"/>
	<path class="st2" d="M-53.6,84.6c2.7,0,4.8-2.2,4.8-4.8c0-2.7-2.2-4.8-4.8-4.8c-2.7,0-4.8,2.2-4.8,4.8
		C-58.4,82.5-56.3,84.6-53.6,84.6z"/>
	<path class="st2" d="M-53.6,112.8c2.7,0,4.8-2.2,4.8-4.8c0-2.7-2.2-4.8-4.8-4.8c-2.7,0-4.8,2.2-4.8,4.8
		C-58.4,110.7-56.3,112.8-53.6,112.8z"/>
	<path class="st2" d="M-53.6,141c2.7,0,4.8-2.2,4.8-4.8c0-2.7-2.2-4.8-4.8-4.8c-2.7,0-4.8,2.2-4.8,4.8
		C-58.4,138.9-56.3,141-53.6,141z"/>
	<path class="st2" d="M-53.6,169.2c2.7,0,4.8-2.2,4.8-4.8c0-2.7-2.2-4.8-4.8-4.8c-2.7,0-4.8,2.2-4.8,4.8
		C-58.4,167.1-56.3,169.2-53.6,169.2z"/>
	<path class="st2" d="M-53.6,197.4c2.7,0,4.8-2.2,4.8-4.8c0-2.7-2.2-4.8-4.8-4.8c-2.7,0-4.8,2.2-4.8,4.8
		C-58.4,195.3-56.3,197.4-53.6,197.4z"/>
	<path class="st2" d="M-53.6,225.7c2.7,0,4.8-2.2,4.8-4.8c0-2.7-2.2-4.8-4.8-4.8c-2.7,0-4.8,2.2-4.8,4.8
		C-58.4,223.5-56.3,225.7-53.6,225.7z"/>
	<path class="st2" d="M-27.5-141c2.7,0,4.8-2.2,4.8-4.8c0-2.7-2.2-4.8-4.8-4.8c-2.7,0-4.8,2.2-4.8,4.8
		C-32.3-143.2-30.1-141-27.5-141z"/>
	<path class="st2" d="M-27.5-112.8c2.7,0,4.8-2.2,4.8-4.8c0-2.7-2.2-4.8-4.8-4.8c-2.7,0-4.8,2.2-4.8,4.8
		C-32.3-115-30.1-112.8-27.5-112.8z"/>
	<path class="st2" d="M-27.5-84.6c2.7,0,4.8-2.2,4.8-4.8s-2.2-4.8-4.8-4.8c-2.7,0-4.8,2.2-4.8,4.8S-30.1-84.6-27.5-84.6z"/>
	<path class="st2" d="M-27.5-56.4c2.7,0,4.8-2.2,4.8-4.8c0-2.7-2.2-4.8-4.8-4.8c-2.7,0-4.8,2.2-4.8,4.8
		C-32.3-58.6-30.1-56.4-27.5-56.4z"/>
	<path class="st2" d="M-27.5-28.2c2.7,0,4.8-2.2,4.8-4.8c0-2.7-2.2-4.8-4.8-4.8c-2.7,0-4.8,2.2-4.8,4.8
		C-32.3-30.4-30.1-28.2-27.5-28.2z"/>
	<path class="st2" d="M-27.5,0c2.7,0,4.8-2.2,4.8-4.8s-2.2-4.8-4.8-4.8c-2.7,0-4.8,2.2-4.8,4.8S-30.1,0-27.5,0z"/>
	<path class="st2" d="M-27.5,28.2c2.7,0,4.8-2.2,4.8-4.8c0-2.7-2.2-4.8-4.8-4.8c-2.7,0-4.8,2.2-4.8,4.8
		C-32.3,26-30.1,28.2-27.5,28.2z"/>
	<path class="st2" d="M-27.5,56.4c2.7,0,4.8-2.2,4.8-4.8c0-2.7-2.2-4.8-4.8-4.8c-2.7,0-4.8,2.2-4.8,4.8
		C-32.3,54.2-30.1,56.4-27.5,56.4z"/>
	<path class="st2" d="M-27.5,84.6c2.7,0,4.8-2.2,4.8-4.8c0-2.7-2.2-4.8-4.8-4.8c-2.7,0-4.8,2.2-4.8,4.8
		C-32.3,82.5-30.1,84.6-27.5,84.6z"/>
	<path class="st2" d="M-27.5,112.8c2.7,0,4.8-2.2,4.8-4.8c0-2.7-2.2-4.8-4.8-4.8c-2.7,0-4.8,2.2-4.8,4.8
		C-32.3,110.7-30.1,112.8-27.5,112.8z"/>
	<path class="st2" d="M-27.5,141c2.7,0,4.8-2.2,4.8-4.8c0-2.7-2.2-4.8-4.8-4.8c-2.7,0-4.8,2.2-4.8,4.8
		C-32.3,138.9-30.1,141-27.5,141z"/>
	<path class="st2" d="M-27.5,169.2c2.7,0,4.8-2.2,4.8-4.8c0-2.7-2.2-4.8-4.8-4.8c-2.7,0-4.8,2.2-4.8,4.8
		C-32.3,167.1-30.1,169.2-27.5,169.2z"/>
	<path class="st2" d="M-27.5,197.4c2.7,0,4.8-2.2,4.8-4.8c0-2.7-2.2-4.8-4.8-4.8c-2.7,0-4.8,2.2-4.8,4.8
		C-32.3,195.3-30.1,197.4-27.5,197.4z"/>
	<path class="st2" d="M-27.5,225.7c2.7,0,4.8-2.2,4.8-4.8c0-2.7-2.2-4.8-4.8-4.8c-2.7,0-4.8,2.2-4.8,4.8
		C-32.3,223.5-30.1,225.7-27.5,225.7z"/>
	<path class="st2" d="M-1.3-141c2.7,0,4.8-2.2,4.8-4.8c0-2.7-2.2-4.8-4.8-4.8c-2.7,0-4.8,2.2-4.8,4.8C-6.2-143.2-4-141-1.3-141z"/>
	<path class="st2" d="M-1.3-112.8c2.7,0,4.8-2.2,4.8-4.8c0-2.7-2.2-4.8-4.8-4.8c-2.7,0-4.8,2.2-4.8,4.8C-6.2-115-4-112.8-1.3-112.8z
		"/>
	<path class="st2" d="M-1.3-84.6c2.7,0,4.8-2.2,4.8-4.8s-2.2-4.8-4.8-4.8c-2.7,0-4.8,2.2-4.8,4.8S-4-84.6-1.3-84.6z"/>
	<path class="st2" d="M-1.3-56.4c2.7,0,4.8-2.2,4.8-4.8c0-2.7-2.2-4.8-4.8-4.8c-2.7,0-4.8,2.2-4.8,4.8C-6.2-58.6-4-56.4-1.3-56.4z"
		/>
	<path class="st2" d="M-1.3-28.2c2.7,0,4.8-2.2,4.8-4.8c0-2.7-2.2-4.8-4.8-4.8c-2.7,0-4.8,2.2-4.8,4.8C-6.2-30.4-4-28.2-1.3-28.2z"
		/>
	<path class="st2" d="M-1.3,0c2.7,0,4.8-2.2,4.8-4.8S1.3-9.7-1.3-9.7c-2.7,0-4.8,2.2-4.8,4.8S-4,0-1.3,0z"/>
	<path class="st2" d="M-1.3,28.2c2.7,0,4.8-2.2,4.8-4.8c0-2.7-2.2-4.8-4.8-4.8c-2.7,0-4.8,2.2-4.8,4.8C-6.2,26-4,28.2-1.3,28.2z"/>
	<path class="st2" d="M-1.3,56.4c2.7,0,4.8-2.2,4.8-4.8c0-2.7-2.2-4.8-4.8-4.8c-2.7,0-4.8,2.2-4.8,4.8C-6.2,54.2-4,56.4-1.3,56.4z"
		/>
	<path class="st2" d="M-1.3,84.6c2.7,0,4.8-2.2,4.8-4.8c0-2.7-2.2-4.8-4.8-4.8c-2.7,0-4.8,2.2-4.8,4.8C-6.2,82.5-4,84.6-1.3,84.6z"
		/>
	<path class="st2" d="M-1.3,112.8c2.7,0,4.8-2.2,4.8-4.8c0-2.7-2.2-4.8-4.8-4.8c-2.7,0-4.8,2.2-4.8,4.8
		C-6.2,110.7-4,112.8-1.3,112.8z"/>
	<path class="st2" d="M-1.3,141c2.7,0,4.8-2.2,4.8-4.8c0-2.7-2.2-4.8-4.8-4.8c-2.7,0-4.8,2.2-4.8,4.8C-6.2,138.9-4,141-1.3,141z"/>
	<path class="st2" d="M-1.3,169.2c2.7,0,4.8-2.2,4.8-4.8c0-2.7-2.2-4.8-4.8-4.8c-2.7,0-4.8,2.2-4.8,4.8
		C-6.2,167.1-4,169.2-1.3,169.2z"/>
	<path class="st2" d="M-1.3,197.4c2.7,0,4.8-2.2,4.8-4.8c0-2.7-2.2-4.8-4.8-4.8c-2.7,0-4.8,2.2-4.8,4.8
		C-6.2,195.3-4,197.4-1.3,197.4z"/>
	<path class="st2" d="M-1.3,225.7c2.7,0,4.8-2.2,4.8-4.8c0-2.7-2.2-4.8-4.8-4.8c-2.7,0-4.8,2.2-4.8,4.8
		C-6.2,223.5-4,225.7-1.3,225.7z"/>
	<path class="st2" d="M24.8-141c2.7,0,4.8-2.2,4.8-4.8c0-2.7-2.2-4.8-4.8-4.8c-2.7,0-4.8,2.2-4.8,4.8C20-143.2,22.1-141,24.8-141z"
		/>
	<path class="st2" d="M24.8-112.8c2.7,0,4.8-2.2,4.8-4.8c0-2.7-2.2-4.8-4.8-4.8c-2.7,0-4.8,2.2-4.8,4.8
		C20-115,22.1-112.8,24.8-112.8z"/>
	<path class="st2" d="M24.8-84.6c2.7,0,4.8-2.2,4.8-4.8s-2.2-4.8-4.8-4.8c-2.7,0-4.8,2.2-4.8,4.8S22.1-84.6,24.8-84.6z"/>
	<path class="st2" d="M24.8-56.4c2.7,0,4.8-2.2,4.8-4.8c0-2.7-2.2-4.8-4.8-4.8c-2.7,0-4.8,2.2-4.8,4.8C20-58.6,22.1-56.4,24.8-56.4z
		"/>
	<path class="st2" d="M24.8-28.2c2.7,0,4.8-2.2,4.8-4.8c0-2.7-2.2-4.8-4.8-4.8c-2.7,0-4.8,2.2-4.8,4.8C20-30.4,22.1-28.2,24.8-28.2z
		"/>
	<path class="st2" d="M24.8,0c2.7,0,4.8-2.2,4.8-4.8s-2.2-4.8-4.8-4.8c-2.7,0-4.8,2.2-4.8,4.8S22.1,0,24.8,0z"/>
	<path class="st2" d="M24.8,28.2c2.7,0,4.8-2.2,4.8-4.8c0-2.7-2.2-4.8-4.8-4.8c-2.7,0-4.8,2.2-4.8,4.8C20,26,22.1,28.2,24.8,28.2z"
		/>
	<path class="st2" d="M24.8,56.4c2.7,0,4.8-2.2,4.8-4.8c0-2.7-2.2-4.8-4.8-4.8c-2.7,0-4.8,2.2-4.8,4.8C20,54.2,22.1,56.4,24.8,56.4z
		"/>
	<path class="st2" d="M24.8,84.6c2.7,0,4.8-2.2,4.8-4.8c0-2.7-2.2-4.8-4.8-4.8c-2.7,0-4.8,2.2-4.8,4.8C20,82.5,22.1,84.6,24.8,84.6z
		"/>
	<path class="st2" d="M24.8,112.8c2.7,0,4.8-2.2,4.8-4.8c0-2.7-2.2-4.8-4.8-4.8c-2.7,0-4.8,2.2-4.8,4.8
		C20,110.7,22.1,112.8,24.8,112.8z"/>
	<path class="st2" d="M24.8,141c2.7,0,4.8-2.2,4.8-4.8c0-2.7-2.2-4.8-4.8-4.8c-2.7,0-4.8,2.2-4.8,4.8C20,138.9,22.1,141,24.8,141z"
		/>
	<path class="st2" d="M24.8,169.2c2.7,0,4.8-2.2,4.8-4.8c0-2.7-2.2-4.8-4.8-4.8c-2.7,0-4.8,2.2-4.8,4.8
		C20,167.1,22.1,169.2,24.8,169.2z"/>
	<path class="st2" d="M24.8,197.4c2.7,0,4.8-2.2,4.8-4.8c0-2.7-2.2-4.8-4.8-4.8c-2.7,0-4.8,2.2-4.8,4.8
		C20,195.3,22.1,197.4,24.8,197.4z"/>
	<path class="st2" d="M24.8,225.7c2.7,0,4.8-2.2,4.8-4.8c0-2.7-2.2-4.8-4.8-4.8c-2.7,0-4.8,2.2-4.8,4.8
		C20,223.5,22.1,225.7,24.8,225.7z"/>
	<path class="st2" d="M50.9-141c2.7,0,4.8-2.2,4.8-4.8c0-2.7-2.2-4.8-4.8-4.8c-2.7,0-4.8,2.2-4.8,4.8C46.1-143.2,48.3-141,50.9-141z
		"/>
	<path class="st2" d="M50.9-112.8c2.7,0,4.8-2.2,4.8-4.8c0-2.7-2.2-4.8-4.8-4.8c-2.7,0-4.8,2.2-4.8,4.8
		C46.1-115,48.3-112.8,50.9-112.8z"/>
	<path class="st2" d="M50.9-84.6c2.7,0,4.8-2.2,4.8-4.8s-2.2-4.8-4.8-4.8c-2.7,0-4.8,2.2-4.8,4.8S48.3-84.6,50.9-84.6z"/>
	<path class="st2" d="M50.9-56.4c2.7,0,4.8-2.2,4.8-4.8c0-2.7-2.2-4.8-4.8-4.8c-2.7,0-4.8,2.2-4.8,4.8
		C46.1-58.6,48.3-56.4,50.9-56.4z"/>
	<path class="st2" d="M50.9-28.2c2.7,0,4.8-2.2,4.8-4.8c0-2.7-2.2-4.8-4.8-4.8c-2.7,0-4.8,2.2-4.8,4.8
		C46.1-30.4,48.3-28.2,50.9-28.2z"/>
	<path class="st2" d="M50.9,0c2.7,0,4.8-2.2,4.8-4.8s-2.2-4.8-4.8-4.8c-2.7,0-4.8,2.2-4.8,4.8S48.3,0,50.9,0z"/>
	<path class="st2" d="M50.9,28.2c2.7,0,4.8-2.2,4.8-4.8c0-2.7-2.2-4.8-4.8-4.8c-2.7,0-4.8,2.2-4.8,4.8C46.1,26,48.3,28.2,50.9,28.2z
		"/>
	<path class="st2" d="M50.9,56.4c2.7,0,4.8-2.2,4.8-4.8c0-2.7-2.2-4.8-4.8-4.8c-2.7,0-4.8,2.2-4.8,4.8
		C46.1,54.2,48.3,56.4,50.9,56.4z"/>
	<path class="st2" d="M50.9,84.6c2.7,0,4.8-2.2,4.8-4.8c0-2.7-2.2-4.8-4.8-4.8c-2.7,0-4.8,2.2-4.8,4.8
		C46.1,82.5,48.3,84.6,50.9,84.6z"/>
	<path class="st2" d="M50.9,112.8c2.7,0,4.8-2.2,4.8-4.8c0-2.7-2.2-4.8-4.8-4.8c-2.7,0-4.8,2.2-4.8,4.8
		C46.1,110.7,48.3,112.8,50.9,112.8z"/>
	<path class="st2" d="M50.9,141c2.7,0,4.8-2.2,4.8-4.8c0-2.7-2.2-4.8-4.8-4.8c-2.7,0-4.8,2.2-4.8,4.8C46.1,138.9,48.3,141,50.9,141z
		"/>
	<path class="st2" d="M50.9,169.2c2.7,0,4.8-2.2,4.8-4.8c0-2.7-2.2-4.8-4.8-4.8c-2.7,0-4.8,2.2-4.8,4.8
		C46.1,167.1,48.3,169.2,50.9,169.2z"/>
	<path class="st2" d="M50.9,197.4c2.7,0,4.8-2.2,4.8-4.8c0-2.7-2.2-4.8-4.8-4.8c-2.7,0-4.8,2.2-4.8,4.8
		C46.1,195.3,48.3,197.4,50.9,197.4z"/>
	<path class="st2" d="M50.9,225.7c2.7,0,4.8-2.2,4.8-4.8c0-2.7-2.2-4.8-4.8-4.8c-2.7,0-4.8,2.2-4.8,4.8
		C46.1,223.5,48.3,225.7,50.9,225.7z"/>
	<path class="st2" d="M77.1-141c2.7,0,4.8-2.2,4.8-4.8c0-2.7-2.2-4.8-4.8-4.8c-2.7,0-4.8,2.2-4.8,4.8C72.3-143.2,74.4-141,77.1-141z
		"/>
	<path class="st2" d="M77.1-112.8c2.7,0,4.8-2.2,4.8-4.8c0-2.7-2.2-4.8-4.8-4.8c-2.7,0-4.8,2.2-4.8,4.8
		C72.3-115,74.4-112.8,77.1-112.8z"/>
	<path class="st2" d="M77.1-84.6c2.7,0,4.8-2.2,4.8-4.8s-2.2-4.8-4.8-4.8c-2.7,0-4.8,2.2-4.8,4.8S74.4-84.6,77.1-84.6z"/>
	<path class="st2" d="M77.1-56.4c2.7,0,4.8-2.2,4.8-4.8c0-2.7-2.2-4.8-4.8-4.8c-2.7,0-4.8,2.2-4.8,4.8
		C72.3-58.6,74.4-56.4,77.1-56.4z"/>
	<path class="st2" d="M77.1-28.2c2.7,0,4.8-2.2,4.8-4.8c0-2.7-2.2-4.8-4.8-4.8c-2.7,0-4.8,2.2-4.8,4.8
		C72.3-30.4,74.4-28.2,77.1-28.2z"/>
	<path class="st2" d="M77.1,0c2.7,0,4.8-2.2,4.8-4.8s-2.2-4.8-4.8-4.8c-2.7,0-4.8,2.2-4.8,4.8S74.4,0,77.1,0z"/>
	<path class="st2" d="M77.1,28.2c2.7,0,4.8-2.2,4.8-4.8c0-2.7-2.2-4.8-4.8-4.8c-2.7,0-4.8,2.2-4.8,4.8C72.3,26,74.4,28.2,77.1,28.2z
		"/>
	<path class="st2" d="M77.1,56.4c2.7,0,4.8-2.2,4.8-4.8c0-2.7-2.2-4.8-4.8-4.8c-2.7,0-4.8,2.2-4.8,4.8
		C72.3,54.2,74.4,56.4,77.1,56.4z"/>
	<path class="st2" d="M77.1,84.6c2.7,0,4.8-2.2,4.8-4.8c0-2.7-2.2-4.8-4.8-4.8c-2.7,0-4.8,2.2-4.8,4.8
		C72.3,82.5,74.4,84.6,77.1,84.6z"/>
	<path class="st2" d="M77.1,112.8c2.7,0,4.8-2.2,4.8-4.8c0-2.7-2.2-4.8-4.8-4.8c-2.7,0-4.8,2.2-4.8,4.8
		C72.3,110.7,74.4,112.8,77.1,112.8z"/>
	<path class="st2" d="M77.1,141c2.7,0,4.8-2.2,4.8-4.8c0-2.7-2.2-4.8-4.8-4.8c-2.7,0-4.8,2.2-4.8,4.8C72.3,138.9,74.4,141,77.1,141z
		"/>
	<path class="st2" d="M77.1,169.2c2.7,0,4.8-2.2,4.8-4.8c0-2.7-2.2-4.8-4.8-4.8c-2.7,0-4.8,2.2-4.8,4.8
		C72.3,167.1,74.4,169.2,77.1,169.2z"/>
	<path class="st2" d="M77.1,197.4c2.7,0,4.8-2.2,4.8-4.8c0-2.7-2.2-4.8-4.8-4.8c-2.7,0-4.8,2.2-4.8,4.8
		C72.3,195.3,74.4,197.4,77.1,197.4z"/>
	<path class="st2" d="M77.1,225.7c2.7,0,4.8-2.2,4.8-4.8c0-2.7-2.2-4.8-4.8-4.8c-2.7,0-4.8,2.2-4.8,4.8
		C72.3,223.5,74.4,225.7,77.1,225.7z"/>
	<path class="st2" d="M103.2-141c2.7,0,4.8-2.2,4.8-4.8c0-2.7-2.2-4.8-4.8-4.8s-4.8,2.2-4.8,4.8C98.4-143.2,100.6-141,103.2-141z"/>
	<path class="st2" d="M103.2-112.8c2.7,0,4.8-2.2,4.8-4.8c0-2.7-2.2-4.8-4.8-4.8s-4.8,2.2-4.8,4.8C98.4-115,100.6-112.8,103.2-112.8
		z"/>
	<path class="st2" d="M103.2-84.6c2.7,0,4.8-2.2,4.8-4.8s-2.2-4.8-4.8-4.8s-4.8,2.2-4.8,4.8S100.6-84.6,103.2-84.6z"/>
	<path class="st2" d="M103.2-56.4c2.7,0,4.8-2.2,4.8-4.8c0-2.7-2.2-4.8-4.8-4.8s-4.8,2.2-4.8,4.8C98.4-58.6,100.6-56.4,103.2-56.4z"
		/>
	<path class="st2" d="M103.2-28.2c2.7,0,4.8-2.2,4.8-4.8c0-2.7-2.2-4.8-4.8-4.8s-4.8,2.2-4.8,4.8C98.4-30.4,100.6-28.2,103.2-28.2z"
		/>
	<path class="st2" d="M103.2,0c2.7,0,4.8-2.2,4.8-4.8s-2.2-4.8-4.8-4.8s-4.8,2.2-4.8,4.8S100.6,0,103.2,0z"/>
	<path class="st2" d="M103.2,28.2c2.7,0,4.8-2.2,4.8-4.8c0-2.7-2.2-4.8-4.8-4.8s-4.8,2.2-4.8,4.8C98.4,26,100.6,28.2,103.2,28.2z"/>
	<path class="st2" d="M103.2,56.4c2.7,0,4.8-2.2,4.8-4.8c0-2.7-2.2-4.8-4.8-4.8s-4.8,2.2-4.8,4.8C98.4,54.2,100.6,56.4,103.2,56.4z"
		/>
	<path class="st2" d="M103.2,84.6c2.7,0,4.8-2.2,4.8-4.8c0-2.7-2.2-4.8-4.8-4.8s-4.8,2.2-4.8,4.8C98.4,82.5,100.6,84.6,103.2,84.6z"
		/>
	<path class="st2" d="M103.2,112.8c2.7,0,4.8-2.2,4.8-4.8c0-2.7-2.2-4.8-4.8-4.8s-4.8,2.2-4.8,4.8
		C98.4,110.7,100.6,112.8,103.2,112.8z"/>
	<path class="st2" d="M103.2,141c2.7,0,4.8-2.2,4.8-4.8c0-2.7-2.2-4.8-4.8-4.8s-4.8,2.2-4.8,4.8C98.4,138.9,100.6,141,103.2,141z"/>
	<path class="st2" d="M103.2,169.2c2.7,0,4.8-2.2,4.8-4.8c0-2.7-2.2-4.8-4.8-4.8s-4.8,2.2-4.8,4.8
		C98.4,167.1,100.6,169.2,103.2,169.2z"/>
	<path class="st2" d="M103.2,197.4c2.7,0,4.8-2.2,4.8-4.8c0-2.7-2.2-4.8-4.8-4.8s-4.8,2.2-4.8,4.8
		C98.4,195.3,100.6,197.4,103.2,197.4z"/>
	<path class="st2" d="M103.2,225.7c2.7,0,4.8-2.2,4.8-4.8c0-2.7-2.2-4.8-4.8-4.8s-4.8,2.2-4.8,4.8
		C98.4,223.5,100.6,225.7,103.2,225.7z"/>
	<path class="st2" d="M129.4-141c2.7,0,4.8-2.2,4.8-4.8c0-2.7-2.2-4.8-4.8-4.8c-2.7,0-4.8,2.2-4.8,4.8
		C124.5-143.2,126.7-141,129.4-141z"/>
	<path class="st2" d="M129.4-112.8c2.7,0,4.8-2.2,4.8-4.8c0-2.7-2.2-4.8-4.8-4.8c-2.7,0-4.8,2.2-4.8,4.8
		C124.5-115,126.7-112.8,129.4-112.8z"/>
	<path class="st2" d="M129.4-84.6c2.7,0,4.8-2.2,4.8-4.8s-2.2-4.8-4.8-4.8c-2.7,0-4.8,2.2-4.8,4.8S126.7-84.6,129.4-84.6z"/>
	<path class="st2" d="M129.4-56.4c2.7,0,4.8-2.2,4.8-4.8c0-2.7-2.2-4.8-4.8-4.8c-2.7,0-4.8,2.2-4.8,4.8
		C124.5-58.6,126.7-56.4,129.4-56.4z"/>
	<path class="st2" d="M129.4-28.2c2.7,0,4.8-2.2,4.8-4.8c0-2.7-2.2-4.8-4.8-4.8c-2.7,0-4.8,2.2-4.8,4.8
		C124.5-30.4,126.7-28.2,129.4-28.2z"/>
	<path class="st2" d="M129.4,0c2.7,0,4.8-2.2,4.8-4.8s-2.2-4.8-4.8-4.8c-2.7,0-4.8,2.2-4.8,4.8S126.7,0,129.4,0z"/>
	<path class="st2" d="M129.4,28.2c2.7,0,4.8-2.2,4.8-4.8c0-2.7-2.2-4.8-4.8-4.8c-2.7,0-4.8,2.2-4.8,4.8
		C124.5,26,126.7,28.2,129.4,28.2z"/>
	<path class="st2" d="M129.4,56.4c2.7,0,4.8-2.2,4.8-4.8c0-2.7-2.2-4.8-4.8-4.8c-2.7,0-4.8,2.2-4.8,4.8
		C124.5,54.2,126.7,56.4,129.4,56.4z"/>
	<path class="st2" d="M129.4,84.6c2.7,0,4.8-2.2,4.8-4.8c0-2.7-2.2-4.8-4.8-4.8c-2.7,0-4.8,2.2-4.8,4.8
		C124.5,82.5,126.7,84.6,129.4,84.6z"/>
	<path class="st2" d="M129.4,112.8c2.7,0,4.8-2.2,4.8-4.8c0-2.7-2.2-4.8-4.8-4.8c-2.7,0-4.8,2.2-4.8,4.8
		C124.5,110.7,126.7,112.8,129.4,112.8z"/>
	<path class="st2" d="M129.4,141c2.7,0,4.8-2.2,4.8-4.8c0-2.7-2.2-4.8-4.8-4.8c-2.7,0-4.8,2.2-4.8,4.8
		C124.5,138.9,126.7,141,129.4,141z"/>
	<path class="st2" d="M129.4,169.2c2.7,0,4.8-2.2,4.8-4.8c0-2.7-2.2-4.8-4.8-4.8c-2.7,0-4.8,2.2-4.8,4.8
		C124.5,167.1,126.7,169.2,129.4,169.2z"/>
	<path class="st2" d="M129.4,197.4c2.7,0,4.8-2.2,4.8-4.8c0-2.7-2.2-4.8-4.8-4.8c-2.7,0-4.8,2.2-4.8,4.8
		C124.5,195.3,126.7,197.4,129.4,197.4z"/>
	<path class="st2" d="M129.4,225.7c2.7,0,4.8-2.2,4.8-4.8c0-2.7-2.2-4.8-4.8-4.8c-2.7,0-4.8,2.2-4.8,4.8
		C124.5,223.5,126.7,225.7,129.4,225.7z"/>
	<path class="st2" d="M155.5-141c2.7,0,4.8-2.2,4.8-4.8c0-2.7-2.2-4.8-4.8-4.8c-2.7,0-4.8,2.2-4.8,4.8
		C150.7-143.2,152.8-141,155.5-141z"/>
	<path class="st2" d="M155.5-112.8c2.7,0,4.8-2.2,4.8-4.8c0-2.7-2.2-4.8-4.8-4.8c-2.7,0-4.8,2.2-4.8,4.8
		C150.7-115,152.8-112.8,155.5-112.8z"/>
	<path class="st2" d="M155.5-84.6c2.7,0,4.8-2.2,4.8-4.8s-2.2-4.8-4.8-4.8c-2.7,0-4.8,2.2-4.8,4.8S152.8-84.6,155.5-84.6z"/>
	<path class="st2" d="M155.5-56.4c2.7,0,4.8-2.2,4.8-4.8c0-2.7-2.2-4.8-4.8-4.8c-2.7,0-4.8,2.2-4.8,4.8
		C150.7-58.6,152.8-56.4,155.5-56.4z"/>
	<path class="st2" d="M155.5-28.2c2.7,0,4.8-2.2,4.8-4.8c0-2.7-2.2-4.8-4.8-4.8c-2.7,0-4.8,2.2-4.8,4.8
		C150.7-30.4,152.8-28.2,155.5-28.2z"/>
	<path class="st2" d="M155.5,0c2.7,0,4.8-2.2,4.8-4.8s-2.2-4.8-4.8-4.8c-2.7,0-4.8,2.2-4.8,4.8S152.8,0,155.5,0z"/>
	<path class="st2" d="M155.5,28.2c2.7,0,4.8-2.2,4.8-4.8c0-2.7-2.2-4.8-4.8-4.8c-2.7,0-4.8,2.2-4.8,4.8
		C150.7,26,152.8,28.2,155.5,28.2z"/>
	<path class="st2" d="M155.5,56.4c2.7,0,4.8-2.2,4.8-4.8c0-2.7-2.2-4.8-4.8-4.8c-2.7,0-4.8,2.2-4.8,4.8
		C150.7,54.2,152.8,56.4,155.5,56.4z"/>
	<path class="st2" d="M155.5,84.6c2.7,0,4.8-2.2,4.8-4.8c0-2.7-2.2-4.8-4.8-4.8c-2.7,0-4.8,2.2-4.8,4.8
		C150.7,82.5,152.8,84.6,155.5,84.6z"/>
	<path class="st2" d="M155.5,112.8c2.7,0,4.8-2.2,4.8-4.8c0-2.7-2.2-4.8-4.8-4.8c-2.7,0-4.8,2.2-4.8,4.8
		C150.7,110.7,152.8,112.8,155.5,112.8z"/>
	<path class="st2" d="M155.5,141c2.7,0,4.8-2.2,4.8-4.8c0-2.7-2.2-4.8-4.8-4.8c-2.7,0-4.8,2.2-4.8,4.8
		C150.7,138.9,152.8,141,155.5,141z"/>
	<path class="st2" d="M155.5,169.2c2.7,0,4.8-2.2,4.8-4.8c0-2.7-2.2-4.8-4.8-4.8c-2.7,0-4.8,2.2-4.8,4.8
		C150.7,167.1,152.8,169.2,155.5,169.2z"/>
	<path class="st2" d="M155.5,197.4c2.7,0,4.8-2.2,4.8-4.8c0-2.7-2.2-4.8-4.8-4.8c-2.7,0-4.8,2.2-4.8,4.8
		C150.7,195.3,152.8,197.4,155.5,197.4z"/>
	<path class="st2" d="M155.5,225.7c2.7,0,4.8-2.2,4.8-4.8c0-2.7-2.2-4.8-4.8-4.8c-2.7,0-4.8,2.2-4.8,4.8
		C150.7,223.5,152.8,225.7,155.5,225.7z"/>
	<path class="st2" d="M181.6-141c2.7,0,4.8-2.2,4.8-4.8c0-2.7-2.2-4.8-4.8-4.8c-2.7,0-4.8,2.2-4.8,4.8
		C176.8-143.2,179-141,181.6-141z"/>
	<path class="st2" d="M181.6-112.8c2.7,0,4.8-2.2,4.8-4.8c0-2.7-2.2-4.8-4.8-4.8c-2.7,0-4.8,2.2-4.8,4.8
		C176.8-115,179-112.8,181.6-112.8z"/>
	<path class="st2" d="M181.6-84.6c2.7,0,4.8-2.2,4.8-4.8s-2.2-4.8-4.8-4.8c-2.7,0-4.8,2.2-4.8,4.8S179-84.6,181.6-84.6z"/>
	<path class="st2" d="M181.6-56.4c2.7,0,4.8-2.2,4.8-4.8c0-2.7-2.2-4.8-4.8-4.8c-2.7,0-4.8,2.2-4.8,4.8
		C176.8-58.6,179-56.4,181.6-56.4z"/>
	<path class="st2" d="M181.6-28.2c2.7,0,4.8-2.2,4.8-4.8c0-2.7-2.2-4.8-4.8-4.8c-2.7,0-4.8,2.2-4.8,4.8
		C176.8-30.4,179-28.2,181.6-28.2z"/>
	<path class="st2" d="M181.6,0c2.7,0,4.8-2.2,4.8-4.8s-2.2-4.8-4.8-4.8c-2.7,0-4.8,2.2-4.8,4.8S179,0,181.6,0z"/>
	<path class="st2" d="M181.6,28.2c2.7,0,4.8-2.2,4.8-4.8c0-2.7-2.2-4.8-4.8-4.8c-2.7,0-4.8,2.2-4.8,4.8
		C176.8,26,179,28.2,181.6,28.2z"/>
	<path class="st2" d="M181.6,56.4c2.7,0,4.8-2.2,4.8-4.8c0-2.7-2.2-4.8-4.8-4.8c-2.7,0-4.8,2.2-4.8,4.8
		C176.8,54.2,179,56.4,181.6,56.4z"/>
	<path class="st2" d="M181.6,84.6c2.7,0,4.8-2.2,4.8-4.8c0-2.7-2.2-4.8-4.8-4.8c-2.7,0-4.8,2.2-4.8,4.8
		C176.8,82.5,179,84.6,181.6,84.6z"/>
	<path class="st2" d="M181.6,112.8c2.7,0,4.8-2.2,4.8-4.8c0-2.7-2.2-4.8-4.8-4.8c-2.7,0-4.8,2.2-4.8,4.8
		C176.8,110.7,179,112.8,181.6,112.8z"/>
	<path class="st2" d="M181.6,141c2.7,0,4.8-2.2,4.8-4.8c0-2.7-2.2-4.8-4.8-4.8c-2.7,0-4.8,2.2-4.8,4.8
		C176.8,138.9,179,141,181.6,141z"/>
	<path class="st2" d="M181.6,169.2c2.7,0,4.8-2.2,4.8-4.8c0-2.7-2.2-4.8-4.8-4.8c-2.7,0-4.8,2.2-4.8,4.8
		C176.8,167.1,179,169.2,181.6,169.2z"/>
	<path class="st2" d="M181.6,197.4c2.7,0,4.8-2.2,4.8-4.8c0-2.7-2.2-4.8-4.8-4.8c-2.7,0-4.8,2.2-4.8,4.8
		C176.8,195.3,179,197.4,181.6,197.4z"/>
	<path class="st2" d="M181.6,225.7c2.7,0,4.8-2.2,4.8-4.8c0-2.7-2.2-4.8-4.8-4.8c-2.7,0-4.8,2.2-4.8,4.8
		C176.8,223.5,179,225.7,181.6,225.7z"/>
	<path class="st2" d="M207.8-141c2.7,0,4.8-2.2,4.8-4.8c0-2.7-2.2-4.8-4.8-4.8c-2.7,0-4.8,2.2-4.8,4.8
		C203-143.2,205.1-141,207.8-141z"/>
	<path class="st2" d="M207.8-112.8c2.7,0,4.8-2.2,4.8-4.8c0-2.7-2.2-4.8-4.8-4.8c-2.7,0-4.8,2.2-4.8,4.8
		C203-115,205.1-112.8,207.8-112.8z"/>
	<path class="st2" d="M207.8-84.6c2.7,0,4.8-2.2,4.8-4.8s-2.2-4.8-4.8-4.8c-2.7,0-4.8,2.2-4.8,4.8S205.1-84.6,207.8-84.6z"/>
	<path class="st2" d="M207.8-56.4c2.7,0,4.8-2.2,4.8-4.8c0-2.7-2.2-4.8-4.8-4.8c-2.7,0-4.8,2.2-4.8,4.8
		C203-58.6,205.1-56.4,207.8-56.4z"/>
	<path class="st2" d="M207.8-28.2c2.7,0,4.8-2.2,4.8-4.8c0-2.7-2.2-4.8-4.8-4.8c-2.7,0-4.8,2.2-4.8,4.8
		C203-30.4,205.1-28.2,207.8-28.2z"/>
	<path class="st2" d="M207.8,0c2.7,0,4.8-2.2,4.8-4.8s-2.2-4.8-4.8-4.8c-2.7,0-4.8,2.2-4.8,4.8S205.1,0,207.8,0z"/>
	<path class="st2" d="M207.8,28.2c2.7,0,4.8-2.2,4.8-4.8c0-2.7-2.2-4.8-4.8-4.8c-2.7,0-4.8,2.2-4.8,4.8
		C203,26,205.1,28.2,207.8,28.2z"/>
	<path class="st2" d="M207.8,56.4c2.7,0,4.8-2.2,4.8-4.8c0-2.7-2.2-4.8-4.8-4.8c-2.7,0-4.8,2.2-4.8,4.8
		C203,54.2,205.1,56.4,207.8,56.4z"/>
	<path class="st2" d="M207.8,84.6c2.7,0,4.8-2.2,4.8-4.8c0-2.7-2.2-4.8-4.8-4.8c-2.7,0-4.8,2.2-4.8,4.8
		C203,82.5,205.1,84.6,207.8,84.6z"/>
	<path class="st2" d="M207.8,112.8c2.7,0,4.8-2.2,4.8-4.8c0-2.7-2.2-4.8-4.8-4.8c-2.7,0-4.8,2.2-4.8,4.8
		C203,110.7,205.1,112.8,207.8,112.8z"/>
	<path class="st2" d="M207.8,141c2.7,0,4.8-2.2,4.8-4.8c0-2.7-2.2-4.8-4.8-4.8c-2.7,0-4.8,2.2-4.8,4.8
		C203,138.9,205.1,141,207.8,141z"/>
	<path class="st2" d="M207.8,169.2c2.7,0,4.8-2.2,4.8-4.8c0-2.7-2.2-4.8-4.8-4.8c-2.7,0-4.8,2.2-4.8,4.8
		C203,167.1,205.1,169.2,207.8,169.2z"/>
	<path class="st2" d="M207.8,197.4c2.7,0,4.8-2.2,4.8-4.8c0-2.7-2.2-4.8-4.8-4.8c-2.7,0-4.8,2.2-4.8,4.8
		C203,195.3,205.1,197.4,207.8,197.4z"/>
	<path class="st2" d="M207.8,225.7c2.7,0,4.8-2.2,4.8-4.8c0-2.7-2.2-4.8-4.8-4.8c-2.7,0-4.8,2.2-4.8,4.8
		C203,223.5,205.1,225.7,207.8,225.7z"/>
	<path class="st2" d="M233.9-141c2.7,0,4.8-2.2,4.8-4.8c0-2.7-2.2-4.8-4.8-4.8c-2.7,0-4.8,2.2-4.8,4.8
		C229.1-143.2,231.3-141,233.9-141z"/>
	<path class="st2" d="M233.9-112.8c2.7,0,4.8-2.2,4.8-4.8c0-2.7-2.2-4.8-4.8-4.8c-2.7,0-4.8,2.2-4.8,4.8
		C229.1-115,231.3-112.8,233.9-112.8z"/>
	<path class="st2" d="M233.9-84.6c2.7,0,4.8-2.2,4.8-4.8s-2.2-4.8-4.8-4.8c-2.7,0-4.8,2.2-4.8,4.8S231.3-84.6,233.9-84.6z"/>
	<path class="st2" d="M233.9-56.4c2.7,0,4.8-2.2,4.8-4.8c0-2.7-2.2-4.8-4.8-4.8c-2.7,0-4.8,2.2-4.8,4.8
		C229.1-58.6,231.3-56.4,233.9-56.4z"/>
	<path class="st2" d="M233.9-28.2c2.7,0,4.8-2.2,4.8-4.8c0-2.7-2.2-4.8-4.8-4.8c-2.7,0-4.8,2.2-4.8,4.8
		C229.1-30.4,231.3-28.2,233.9-28.2z"/>
	<path class="st2" d="M233.9,0c2.7,0,4.8-2.2,4.8-4.8s-2.2-4.8-4.8-4.8c-2.7,0-4.8,2.2-4.8,4.8S231.3,0,233.9,0z"/>
	<path class="st2" d="M233.9,28.2c2.7,0,4.8-2.2,4.8-4.8c0-2.7-2.2-4.8-4.8-4.8c-2.7,0-4.8,2.2-4.8,4.8
		C229.1,26,231.3,28.2,233.9,28.2z"/>
	<path class="st2" d="M233.9,56.4c2.7,0,4.8-2.2,4.8-4.8c0-2.7-2.2-4.8-4.8-4.8c-2.7,0-4.8,2.2-4.8,4.8
		C229.1,54.2,231.3,56.4,233.9,56.4z"/>
	<path class="st2" d="M233.9,84.6c2.7,0,4.8-2.2,4.8-4.8c0-2.7-2.2-4.8-4.8-4.8c-2.7,0-4.8,2.2-4.8,4.8
		C229.1,82.5,231.3,84.6,233.9,84.6z"/>
	<path class="st2" d="M233.9,112.8c2.7,0,4.8-2.2,4.8-4.8c0-2.7-2.2-4.8-4.8-4.8c-2.7,0-4.8,2.2-4.8,4.8
		C229.1,110.7,231.3,112.8,233.9,112.8z"/>
	<path class="st2" d="M233.9,141c2.7,0,4.8-2.2,4.8-4.8c0-2.7-2.2-4.8-4.8-4.8c-2.7,0-4.8,2.2-4.8,4.8
		C229.1,138.9,231.3,141,233.9,141z"/>
	<path class="st2" d="M233.9,169.2c2.7,0,4.8-2.2,4.8-4.8c0-2.7-2.2-4.8-4.8-4.8c-2.7,0-4.8,2.2-4.8,4.8
		C229.1,167.1,231.3,169.2,233.9,169.2z"/>
	<path class="st2" d="M233.9,197.4c2.7,0,4.8-2.2,4.8-4.8c0-2.7-2.2-4.8-4.8-4.8c-2.7,0-4.8,2.2-4.8,4.8
		C229.1,195.3,231.3,197.4,233.9,197.4z"/>
	<path class="st2" d="M233.9,225.7c2.7,0,4.8-2.2,4.8-4.8c0-2.7-2.2-4.8-4.8-4.8c-2.7,0-4.8,2.2-4.8,4.8
		C229.1,223.5,231.3,225.7,233.9,225.7z"/>
	<path class="st2" d="M260.1-141c2.7,0,4.8-2.2,4.8-4.8c0-2.7-2.2-4.8-4.8-4.8s-4.8,2.2-4.8,4.8C255.2-143.2,257.4-141,260.1-141z"
		/>
	<path class="st2" d="M260.1-112.8c2.7,0,4.8-2.2,4.8-4.8c0-2.7-2.2-4.8-4.8-4.8s-4.8,2.2-4.8,4.8
		C255.2-115,257.4-112.8,260.1-112.8z"/>
	<path class="st2" d="M260.1-84.6c2.7,0,4.8-2.2,4.8-4.8s-2.2-4.8-4.8-4.8s-4.8,2.2-4.8,4.8S257.4-84.6,260.1-84.6z"/>
	<path class="st2" d="M260.1-56.4c2.7,0,4.8-2.2,4.8-4.8c0-2.7-2.2-4.8-4.8-4.8s-4.8,2.2-4.8,4.8C255.2-58.6,257.4-56.4,260.1-56.4z
		"/>
	<path class="st2" d="M260.1-28.2c2.7,0,4.8-2.2,4.8-4.8c0-2.7-2.2-4.8-4.8-4.8s-4.8,2.2-4.8,4.8C255.2-30.4,257.4-28.2,260.1-28.2z
		"/>
	<path class="st2" d="M260.1,0c2.7,0,4.8-2.2,4.8-4.8s-2.2-4.8-4.8-4.8s-4.8,2.2-4.8,4.8S257.4,0,260.1,0z"/>
	<path class="st2" d="M260.1,28.2c2.7,0,4.8-2.2,4.8-4.8c0-2.7-2.2-4.8-4.8-4.8s-4.8,2.2-4.8,4.8C255.2,26,257.4,28.2,260.1,28.2z"
		/>
	<path class="st2" d="M260.1,56.4c2.7,0,4.8-2.2,4.8-4.8c0-2.7-2.2-4.8-4.8-4.8s-4.8,2.2-4.8,4.8C255.2,54.2,257.4,56.4,260.1,56.4z
		"/>
	<path class="st2" d="M260.1,84.6c2.7,0,4.8-2.2,4.8-4.8c0-2.7-2.2-4.8-4.8-4.8s-4.8,2.2-4.8,4.8C255.2,82.5,257.4,84.6,260.1,84.6z
		"/>
	<path class="st2" d="M260.1,112.8c2.7,0,4.8-2.2,4.8-4.8c0-2.7-2.2-4.8-4.8-4.8s-4.8,2.2-4.8,4.8
		C255.2,110.7,257.4,112.8,260.1,112.8z"/>
	<path class="st2" d="M260.1,141c2.7,0,4.8-2.2,4.8-4.8c0-2.7-2.2-4.8-4.8-4.8s-4.8,2.2-4.8,4.8C255.2,138.9,257.4,141,260.1,141z"
		/>
	<path class="st2" d="M260.1,169.2c2.7,0,4.8-2.2,4.8-4.8c0-2.7-2.2-4.8-4.8-4.8s-4.8,2.2-4.8,4.8
		C255.2,167.1,257.4,169.2,260.1,169.2z"/>
	<path class="st2" d="M260.1,197.4c2.7,0,4.8-2.2,4.8-4.8c0-2.7-2.2-4.8-4.8-4.8s-4.8,2.2-4.8,4.8
		C255.2,195.3,257.4,197.4,260.1,197.4z"/>
	<path class="st2" d="M260.1,225.7c2.7,0,4.8-2.2,4.8-4.8c0-2.7-2.2-4.8-4.8-4.8s-4.8,2.2-4.8,4.8
		C255.2,223.5,257.4,225.7,260.1,225.7z"/>
	<path class="st2" d="M286.2-141c2.7,0,4.8-2.2,4.8-4.8c0-2.7-2.2-4.8-4.8-4.8s-4.8,2.2-4.8,4.8C281.4-143.2,283.5-141,286.2-141z"
		/>
	<path class="st2" d="M286.2-112.8c2.7,0,4.8-2.2,4.8-4.8c0-2.7-2.2-4.8-4.8-4.8s-4.8,2.2-4.8,4.8
		C281.4-115,283.5-112.8,286.2-112.8z"/>
	<path class="st2" d="M286.2-84.6c2.7,0,4.8-2.2,4.8-4.8s-2.2-4.8-4.8-4.8s-4.8,2.2-4.8,4.8S283.5-84.6,286.2-84.6z"/>
	<path class="st2" d="M286.2-56.4c2.7,0,4.8-2.2,4.8-4.8c0-2.7-2.2-4.8-4.8-4.8s-4.8,2.2-4.8,4.8C281.4-58.6,283.5-56.4,286.2-56.4z
		"/>
	<path class="st2" d="M286.2-28.2c2.7,0,4.8-2.2,4.8-4.8c0-2.7-2.2-4.8-4.8-4.8s-4.8,2.2-4.8,4.8C281.4-30.4,283.5-28.2,286.2-28.2z
		"/>
	<path class="st2" d="M286.2,0c2.7,0,4.8-2.2,4.8-4.8s-2.2-4.8-4.8-4.8s-4.8,2.2-4.8,4.8S283.5,0,286.2,0z"/>
	<path class="st2" d="M286.2,28.2c2.7,0,4.8-2.2,4.8-4.8c0-2.7-2.2-4.8-4.8-4.8s-4.8,2.2-4.8,4.8C281.4,26,283.5,28.2,286.2,28.2z"
		/>
	<path class="st2" d="M286.2,56.4c2.7,0,4.8-2.2,4.8-4.8c0-2.7-2.2-4.8-4.8-4.8s-4.8,2.2-4.8,4.8C281.4,54.2,283.5,56.4,286.2,56.4z
		"/>
	<path class="st2" d="M286.2,84.6c2.7,0,4.8-2.2,4.8-4.8c0-2.7-2.2-4.8-4.8-4.8s-4.8,2.2-4.8,4.8C281.4,82.5,283.5,84.6,286.2,84.6z
		"/>
	<path class="st2" d="M286.2,112.8c2.7,0,4.8-2.2,4.8-4.8c0-2.7-2.2-4.8-4.8-4.8s-4.8,2.2-4.8,4.8
		C281.4,110.7,283.5,112.8,286.2,112.8z"/>
	<path class="st2" d="M286.2,141c2.7,0,4.8-2.2,4.8-4.8c0-2.7-2.2-4.8-4.8-4.8s-4.8,2.2-4.8,4.8C281.4,138.9,283.5,141,286.2,141z"
		/>
	<path class="st2" d="M286.2,169.2c2.7,0,4.8-2.2,4.8-4.8c0-2.7-2.2-4.8-4.8-4.8s-4.8,2.2-4.8,4.8
		C281.4,167.1,283.5,169.2,286.2,169.2z"/>
	<path class="st2" d="M286.2,197.4c2.7,0,4.8-2.2,4.8-4.8c0-2.7-2.2-4.8-4.8-4.8s-4.8,2.2-4.8,4.8
		C281.4,195.3,283.5,197.4,286.2,197.4z"/>
	<path class="st2" d="M286.2,225.7c2.7,0,4.8-2.2,4.8-4.8c0-2.7-2.2-4.8-4.8-4.8s-4.8,2.2-4.8,4.8
		C281.4,223.5,283.5,225.7,286.2,225.7z"/>
	<path class="st2" d="M312.3-141c2.7,0,4.8-2.2,4.8-4.8c0-2.7-2.2-4.8-4.8-4.8c-2.7,0-4.8,2.2-4.8,4.8
		C307.5-143.2,309.7-141,312.3-141z"/>
	<path class="st2" d="M312.3-112.8c2.7,0,4.8-2.2,4.8-4.8c0-2.7-2.2-4.8-4.8-4.8c-2.7,0-4.8,2.2-4.8,4.8
		C307.5-115,309.7-112.8,312.3-112.8z"/>
	<path class="st2" d="M312.3-84.6c2.7,0,4.8-2.2,4.8-4.8s-2.2-4.8-4.8-4.8c-2.7,0-4.8,2.2-4.8,4.8S309.7-84.6,312.3-84.6z"/>
	<path class="st2" d="M312.3-56.4c2.7,0,4.8-2.2,4.8-4.8c0-2.7-2.2-4.8-4.8-4.8c-2.7,0-4.8,2.2-4.8,4.8
		C307.5-58.6,309.7-56.4,312.3-56.4z"/>
	<path class="st2" d="M312.3-28.2c2.7,0,4.8-2.2,4.8-4.8c0-2.7-2.2-4.8-4.8-4.8c-2.7,0-4.8,2.2-4.8,4.8
		C307.5-30.4,309.7-28.2,312.3-28.2z"/>
	<path class="st2" d="M312.3,0c2.7,0,4.8-2.2,4.8-4.8s-2.2-4.8-4.8-4.8c-2.7,0-4.8,2.2-4.8,4.8S309.7,0,312.3,0z"/>
	<path class="st2" d="M312.3,28.2c2.7,0,4.8-2.2,4.8-4.8c0-2.7-2.2-4.8-4.8-4.8c-2.7,0-4.8,2.2-4.8,4.8
		C307.5,26,309.7,28.2,312.3,28.2z"/>
	<path class="st2" d="M312.3,56.4c2.7,0,4.8-2.2,4.8-4.8c0-2.7-2.2-4.8-4.8-4.8c-2.7,0-4.8,2.2-4.8,4.8
		C307.5,54.2,309.7,56.4,312.3,56.4z"/>
	<path class="st2" d="M312.3,84.6c2.7,0,4.8-2.2,4.8-4.8c0-2.7-2.2-4.8-4.8-4.8c-2.7,0-4.8,2.2-4.8,4.8
		C307.5,82.5,309.7,84.6,312.3,84.6z"/>
	<path class="st2" d="M312.3,112.8c2.7,0,4.8-2.2,4.8-4.8c0-2.7-2.2-4.8-4.8-4.8c-2.7,0-4.8,2.2-4.8,4.8
		C307.5,110.7,309.7,112.8,312.3,112.8z"/>
	<path class="st2" d="M312.3,141c2.7,0,4.8-2.2,4.8-4.8c0-2.7-2.2-4.8-4.8-4.8c-2.7,0-4.8,2.2-4.8,4.8
		C307.5,138.9,309.7,141,312.3,141z"/>
	<path class="st2" d="M312.3,169.2c2.7,0,4.8-2.2,4.8-4.8c0-2.7-2.2-4.8-4.8-4.8c-2.7,0-4.8,2.2-4.8,4.8
		C307.5,167.1,309.7,169.2,312.3,169.2z"/>
	<path class="st2" d="M312.3,197.4c2.7,0,4.8-2.2,4.8-4.8c0-2.7-2.2-4.8-4.8-4.8c-2.7,0-4.8,2.2-4.8,4.8
		C307.5,195.3,309.7,197.4,312.3,197.4z"/>
	<path class="st2" d="M312.3,225.7c2.7,0,4.8-2.2,4.8-4.8c0-2.7-2.2-4.8-4.8-4.8c-2.7,0-4.8,2.2-4.8,4.8
		C307.5,223.5,309.7,225.7,312.3,225.7z"/>
	<path class="st2" d="M338.5-141c2.7,0,4.8-2.2,4.8-4.8c0-2.7-2.2-4.8-4.8-4.8s-4.8,2.2-4.8,4.8C333.7-143.2,335.8-141,338.5-141z"
		/>
	<path class="st2" d="M338.5-112.8c2.7,0,4.8-2.2,4.8-4.8c0-2.7-2.2-4.8-4.8-4.8s-4.8,2.2-4.8,4.8
		C333.7-115,335.8-112.8,338.5-112.8z"/>
	<path class="st2" d="M338.5-84.6c2.7,0,4.8-2.2,4.8-4.8s-2.2-4.8-4.8-4.8s-4.8,2.2-4.8,4.8S335.8-84.6,338.5-84.6z"/>
	<path class="st2" d="M338.5-56.4c2.7,0,4.8-2.2,4.8-4.8c0-2.7-2.2-4.8-4.8-4.8s-4.8,2.2-4.8,4.8C333.7-58.6,335.8-56.4,338.5-56.4z
		"/>
	<path class="st2" d="M338.5-28.2c2.7,0,4.8-2.2,4.8-4.8c0-2.7-2.2-4.8-4.8-4.8s-4.8,2.2-4.8,4.8C333.7-30.4,335.8-28.2,338.5-28.2z
		"/>
	<path class="st2" d="M338.5,0c2.7,0,4.8-2.2,4.8-4.8s-2.2-4.8-4.8-4.8s-4.8,2.2-4.8,4.8S335.8,0,338.5,0z"/>
	<path class="st2" d="M338.5,28.2c2.7,0,4.8-2.2,4.8-4.8c0-2.7-2.2-4.8-4.8-4.8s-4.8,2.2-4.8,4.8C333.7,26,335.8,28.2,338.5,28.2z"
		/>
	<path class="st2" d="M338.5,56.4c2.7,0,4.8-2.2,4.8-4.8c0-2.7-2.2-4.8-4.8-4.8s-4.8,2.2-4.8,4.8C333.7,54.2,335.8,56.4,338.5,56.4z
		"/>
	<path class="st2" d="M338.5,84.6c2.7,0,4.8-2.2,4.8-4.8c0-2.7-2.2-4.8-4.8-4.8s-4.8,2.2-4.8,4.8C333.7,82.5,335.8,84.6,338.5,84.6z
		"/>
	<path class="st2" d="M338.5,112.8c2.7,0,4.8-2.2,4.8-4.8c0-2.7-2.2-4.8-4.8-4.8s-4.8,2.2-4.8,4.8
		C333.7,110.7,335.8,112.8,338.5,112.8z"/>
	<path class="st2" d="M338.5,141c2.7,0,4.8-2.2,4.8-4.8c0-2.7-2.2-4.8-4.8-4.8s-4.8,2.2-4.8,4.8C333.7,138.9,335.8,141,338.5,141z"
		/>
	<path class="st2" d="M338.5,169.2c2.7,0,4.8-2.2,4.8-4.8c0-2.7-2.2-4.8-4.8-4.8s-4.8,2.2-4.8,4.8
		C333.7,167.1,335.8,169.2,338.5,169.2z"/>
	<path class="st2" d="M338.5,197.4c2.7,0,4.8-2.2,4.8-4.8c0-2.7-2.2-4.8-4.8-4.8s-4.8,2.2-4.8,4.8
		C333.7,195.3,335.8,197.4,338.5,197.4z"/>
	<path class="st2" d="M338.5,225.7c2.7,0,4.8-2.2,4.8-4.8c0-2.7-2.2-4.8-4.8-4.8s-4.8,2.2-4.8,4.8
		C333.7,223.5,335.8,225.7,338.5,225.7z"/>
	<path class="st2" d="M364.6-141c2.7,0,4.8-2.2,4.8-4.8c0-2.7-2.2-4.8-4.8-4.8c-2.7,0-4.8,2.2-4.8,4.8
		C359.8-143.2,362-141,364.6-141z"/>
	<path class="st2" d="M364.6-112.8c2.7,0,4.8-2.2,4.8-4.8c0-2.7-2.2-4.8-4.8-4.8c-2.7,0-4.8,2.2-4.8,4.8
		C359.8-115,362-112.8,364.6-112.8z"/>
	<path class="st2" d="M364.6-84.6c2.7,0,4.8-2.2,4.8-4.8s-2.2-4.8-4.8-4.8c-2.7,0-4.8,2.2-4.8,4.8S362-84.6,364.6-84.6z"/>
	<path class="st2" d="M364.6-56.4c2.7,0,4.8-2.2,4.8-4.8c0-2.7-2.2-4.8-4.8-4.8c-2.7,0-4.8,2.2-4.8,4.8
		C359.8-58.6,362-56.4,364.6-56.4z"/>
	<path class="st2" d="M364.6-28.2c2.7,0,4.8-2.2,4.8-4.8c0-2.7-2.2-4.8-4.8-4.8c-2.7,0-4.8,2.2-4.8,4.8
		C359.8-30.4,362-28.2,364.6-28.2z"/>
	<path class="st2" d="M364.6,0c2.7,0,4.8-2.2,4.8-4.8s-2.2-4.8-4.8-4.8c-2.7,0-4.8,2.2-4.8,4.8S362,0,364.6,0z"/>
	<path class="st2" d="M364.6,28.2c2.7,0,4.8-2.2,4.8-4.8c0-2.7-2.2-4.8-4.8-4.8c-2.7,0-4.8,2.2-4.8,4.8
		C359.8,26,362,28.2,364.6,28.2z"/>
	<path class="st2" d="M364.6,56.4c2.7,0,4.8-2.2,4.8-4.8c0-2.7-2.2-4.8-4.8-4.8c-2.7,0-4.8,2.2-4.8,4.8
		C359.8,54.2,362,56.4,364.6,56.4z"/>
	<path class="st2" d="M364.6,84.6c2.7,0,4.8-2.2,4.8-4.8c0-2.7-2.2-4.8-4.8-4.8c-2.7,0-4.8,2.2-4.8,4.8
		C359.8,82.5,362,84.6,364.6,84.6z"/>
	<path class="st2" d="M364.6,112.8c2.7,0,4.8-2.2,4.8-4.8c0-2.7-2.2-4.8-4.8-4.8c-2.7,0-4.8,2.2-4.8,4.8
		C359.8,110.7,362,112.8,364.6,112.8z"/>
	<path class="st2" d="M364.6,141c2.7,0,4.8-2.2,4.8-4.8c0-2.7-2.2-4.8-4.8-4.8c-2.7,0-4.8,2.2-4.8,4.8
		C359.8,138.9,362,141,364.6,141z"/>
	<path class="st2" d="M364.6,169.2c2.7,0,4.8-2.2,4.8-4.8c0-2.7-2.2-4.8-4.8-4.8c-2.7,0-4.8,2.2-4.8,4.8
		C359.8,167.1,362,169.2,364.6,169.2z"/>
	<path class="st2" d="M364.6,197.4c2.7,0,4.8-2.2,4.8-4.8c0-2.7-2.2-4.8-4.8-4.8c-2.7,0-4.8,2.2-4.8,4.8
		C359.8,195.3,362,197.4,364.6,197.4z"/>
	<path class="st2" d="M364.6,225.7c2.7,0,4.8-2.2,4.8-4.8c0-2.7-2.2-4.8-4.8-4.8c-2.7,0-4.8,2.2-4.8,4.8
		C359.8,223.5,362,225.7,364.6,225.7z"/>
	<path class="st2" d="M390.8-141c2.7,0,4.8-2.2,4.8-4.8c0-2.7-2.2-4.8-4.8-4.8c-2.7,0-4.8,2.2-4.8,4.8
		C385.9-143.2,388.1-141,390.8-141z"/>
	<path class="st2" d="M390.8-112.8c2.7,0,4.8-2.2,4.8-4.8c0-2.7-2.2-4.8-4.8-4.8c-2.7,0-4.8,2.2-4.8,4.8
		C385.9-115,388.1-112.8,390.8-112.8z"/>
	<path class="st2" d="M390.8-84.6c2.7,0,4.8-2.2,4.8-4.8s-2.2-4.8-4.8-4.8c-2.7,0-4.8,2.2-4.8,4.8S388.1-84.6,390.8-84.6z"/>
	<path class="st2" d="M390.8-56.4c2.7,0,4.8-2.2,4.8-4.8c0-2.7-2.2-4.8-4.8-4.8c-2.7,0-4.8,2.2-4.8,4.8
		C385.9-58.6,388.1-56.4,390.8-56.4z"/>
	<path class="st2" d="M390.8-28.2c2.7,0,4.8-2.2,4.8-4.8c0-2.7-2.2-4.8-4.8-4.8c-2.7,0-4.8,2.2-4.8,4.8
		C385.9-30.4,388.1-28.2,390.8-28.2z"/>
	<path class="st2" d="M390.8,0c2.7,0,4.8-2.2,4.8-4.8s-2.2-4.8-4.8-4.8c-2.7,0-4.8,2.2-4.8,4.8S388.1,0,390.8,0z"/>
	<path class="st2" d="M390.8,28.2c2.7,0,4.8-2.2,4.8-4.8c0-2.7-2.2-4.8-4.8-4.8c-2.7,0-4.8,2.2-4.8,4.8
		C385.9,26,388.1,28.2,390.8,28.2z"/>
	<path class="st2" d="M390.8,56.4c2.7,0,4.8-2.2,4.8-4.8c0-2.7-2.2-4.8-4.8-4.8c-2.7,0-4.8,2.2-4.8,4.8
		C385.9,54.2,388.1,56.4,390.8,56.4z"/>
	<path class="st2" d="M390.8,84.6c2.7,0,4.8-2.2,4.8-4.8c0-2.7-2.2-4.8-4.8-4.8c-2.7,0-4.8,2.2-4.8,4.8
		C385.9,82.5,388.1,84.6,390.8,84.6z"/>
	<path class="st2" d="M390.8,112.8c2.7,0,4.8-2.2,4.8-4.8c0-2.7-2.2-4.8-4.8-4.8c-2.7,0-4.8,2.2-4.8,4.8
		C385.9,110.7,388.1,112.8,390.8,112.8z"/>
	<path class="st2" d="M390.8,141c2.7,0,4.8-2.2,4.8-4.8c0-2.7-2.2-4.8-4.8-4.8c-2.7,0-4.8,2.2-4.8,4.8
		C385.9,138.9,388.1,141,390.8,141z"/>
	<path class="st2" d="M390.8,169.2c2.7,0,4.8-2.2,4.8-4.8c0-2.7-2.2-4.8-4.8-4.8c-2.7,0-4.8,2.2-4.8,4.8
		C385.9,167.1,388.1,169.2,390.8,169.2z"/>
	<path class="st2" d="M390.8,197.4c2.7,0,4.8-2.2,4.8-4.8c0-2.7-2.2-4.8-4.8-4.8c-2.7,0-4.8,2.2-4.8,4.8
		C385.9,195.3,388.1,197.4,390.8,197.4z"/>
	<path class="st2" d="M390.8,225.7c2.7,0,4.8-2.2,4.8-4.8c0-2.7-2.2-4.8-4.8-4.8c-2.7,0-4.8,2.2-4.8,4.8
		C385.9,223.5,388.1,225.7,390.8,225.7z"/>
	<path class="st2" d="M416.9-141c2.7,0,4.8-2.2,4.8-4.8c0-2.7-2.2-4.8-4.8-4.8s-4.8,2.2-4.8,4.8C412.1-143.2,414.2-141,416.9-141z"
		/>
	<path class="st2" d="M416.9-112.8c2.7,0,4.8-2.2,4.8-4.8c0-2.7-2.2-4.8-4.8-4.8s-4.8,2.2-4.8,4.8
		C412.1-115,414.2-112.8,416.9-112.8z"/>
	<path class="st2" d="M416.9-84.6c2.7,0,4.8-2.2,4.8-4.8s-2.2-4.8-4.8-4.8s-4.8,2.2-4.8,4.8S414.2-84.6,416.9-84.6z"/>
	<path class="st2" d="M416.9-56.4c2.7,0,4.8-2.2,4.8-4.8c0-2.7-2.2-4.8-4.8-4.8s-4.8,2.2-4.8,4.8C412.1-58.6,414.2-56.4,416.9-56.4z
		"/>
	<path class="st2" d="M416.9-28.2c2.7,0,4.8-2.2,4.8-4.8c0-2.7-2.2-4.8-4.8-4.8s-4.8,2.2-4.8,4.8C412.1-30.4,414.2-28.2,416.9-28.2z
		"/>
	<path class="st2" d="M416.9,0c2.7,0,4.8-2.2,4.8-4.8s-2.2-4.8-4.8-4.8s-4.8,2.2-4.8,4.8S414.2,0,416.9,0z"/>
	<path class="st2" d="M416.9,28.2c2.7,0,4.8-2.2,4.8-4.8c0-2.7-2.2-4.8-4.8-4.8s-4.8,2.2-4.8,4.8C412.1,26,414.2,28.2,416.9,28.2z"
		/>
	<path class="st2" d="M416.9,56.4c2.7,0,4.8-2.2,4.8-4.8c0-2.7-2.2-4.8-4.8-4.8s-4.8,2.2-4.8,4.8C412.1,54.2,414.2,56.4,416.9,56.4z
		"/>
	<path class="st2" d="M416.9,84.6c2.7,0,4.8-2.2,4.8-4.8c0-2.7-2.2-4.8-4.8-4.8s-4.8,2.2-4.8,4.8C412.1,82.5,414.2,84.6,416.9,84.6z
		"/>
	<path class="st2" d="M416.9,112.8c2.7,0,4.8-2.2,4.8-4.8c0-2.7-2.2-4.8-4.8-4.8s-4.8,2.2-4.8,4.8
		C412.1,110.7,414.2,112.8,416.9,112.8z"/>
	<path class="st2" d="M416.9,141c2.7,0,4.8-2.2,4.8-4.8c0-2.7-2.2-4.8-4.8-4.8s-4.8,2.2-4.8,4.8C412.1,138.9,414.2,141,416.9,141z"
		/>
	<path class="st2" d="M416.9,169.2c2.7,0,4.8-2.2,4.8-4.8c0-2.7-2.2-4.8-4.8-4.8s-4.8,2.2-4.8,4.8
		C412.1,167.1,414.2,169.2,416.9,169.2z"/>
	<path class="st2" d="M416.9,197.4c2.7,0,4.8-2.2,4.8-4.8c0-2.7-2.2-4.8-4.8-4.8s-4.8,2.2-4.8,4.8
		C412.1,195.3,414.2,197.4,416.9,197.4z"/>
	<path class="st2" d="M416.9,225.7c2.7,0,4.8-2.2,4.8-4.8c0-2.7-2.2-4.8-4.8-4.8s-4.8,2.2-4.8,4.8
		C412.1,223.5,414.2,225.7,416.9,225.7z"/>
	<path class="st2" d="M443-141c2.7,0,4.8-2.2,4.8-4.8c0-2.7-2.2-4.8-4.8-4.8c-2.7,0-4.8,2.2-4.8,4.8C438.2-143.2,440.4-141,443-141z
		"/>
	<path class="st2" d="M443-112.8c2.7,0,4.8-2.2,4.8-4.8c0-2.7-2.2-4.8-4.8-4.8c-2.7,0-4.8,2.2-4.8,4.8
		C438.2-115,440.4-112.8,443-112.8z"/>
	<path class="st2" d="M443-84.6c2.7,0,4.8-2.2,4.8-4.8s-2.2-4.8-4.8-4.8c-2.7,0-4.8,2.2-4.8,4.8S440.4-84.6,443-84.6z"/>
	<path class="st2" d="M443-56.4c2.7,0,4.8-2.2,4.8-4.8c0-2.7-2.2-4.8-4.8-4.8c-2.7,0-4.8,2.2-4.8,4.8
		C438.2-58.6,440.4-56.4,443-56.4z"/>
	<path class="st2" d="M443-28.2c2.7,0,4.8-2.2,4.8-4.8c0-2.7-2.2-4.8-4.8-4.8c-2.7,0-4.8,2.2-4.8,4.8
		C438.2-30.4,440.4-28.2,443-28.2z"/>
	<path class="st2" d="M443,0c2.7,0,4.8-2.2,4.8-4.8s-2.2-4.8-4.8-4.8c-2.7,0-4.8,2.2-4.8,4.8S440.4,0,443,0z"/>
	<path class="st2" d="M443,28.2c2.7,0,4.8-2.2,4.8-4.8c0-2.7-2.2-4.8-4.8-4.8c-2.7,0-4.8,2.2-4.8,4.8C438.2,26,440.4,28.2,443,28.2z
		"/>
	<path class="st2" d="M443,56.4c2.7,0,4.8-2.2,4.8-4.8c0-2.7-2.2-4.8-4.8-4.8c-2.7,0-4.8,2.2-4.8,4.8
		C438.2,54.2,440.4,56.4,443,56.4z"/>
	<path class="st2" d="M443,84.6c2.7,0,4.8-2.2,4.8-4.8c0-2.7-2.2-4.8-4.8-4.8c-2.7,0-4.8,2.2-4.8,4.8
		C438.2,82.5,440.4,84.6,443,84.6z"/>
	<path class="st2" d="M443,112.8c2.7,0,4.8-2.2,4.8-4.8c0-2.7-2.2-4.8-4.8-4.8c-2.7,0-4.8,2.2-4.8,4.8
		C438.2,110.7,440.4,112.8,443,112.8z"/>
	<path class="st2" d="M443,141c2.7,0,4.8-2.2,4.8-4.8c0-2.7-2.2-4.8-4.8-4.8c-2.7,0-4.8,2.2-4.8,4.8C438.2,138.9,440.4,141,443,141z
		"/>
	<path class="st2" d="M443,169.2c2.7,0,4.8-2.2,4.8-4.8c0-2.7-2.2-4.8-4.8-4.8c-2.7,0-4.8,2.2-4.8,4.8
		C438.2,167.1,440.4,169.2,443,169.2z"/>
	<path class="st2" d="M443,197.4c2.7,0,4.8-2.2,4.8-4.8c0-2.7-2.2-4.8-4.8-4.8c-2.7,0-4.8,2.2-4.8,4.8
		C438.2,195.3,440.4,197.4,443,197.4z"/>
	<path class="st2" d="M443,225.7c2.7,0,4.8-2.2,4.8-4.8c0-2.7-2.2-4.8-4.8-4.8c-2.7,0-4.8,2.2-4.8,4.8
		C438.2,223.5,440.4,225.7,443,225.7z"/>
	<path class="st2" d="M469.2-141c2.7,0,4.8-2.2,4.8-4.8c0-2.7-2.2-4.8-4.8-4.8c-2.7,0-4.8,2.2-4.8,4.8
		C464.4-143.2,466.5-141,469.2-141z"/>
	<path class="st2" d="M469.2-112.8c2.7,0,4.8-2.2,4.8-4.8c0-2.7-2.2-4.8-4.8-4.8c-2.7,0-4.8,2.2-4.8,4.8
		C464.4-115,466.5-112.8,469.2-112.8z"/>
	<path class="st2" d="M469.2-84.6c2.7,0,4.8-2.2,4.8-4.8s-2.2-4.8-4.8-4.8c-2.7,0-4.8,2.2-4.8,4.8S466.5-84.6,469.2-84.6z"/>
	<path class="st2" d="M469.2-56.4c2.7,0,4.8-2.2,4.8-4.8c0-2.7-2.2-4.8-4.8-4.8c-2.7,0-4.8,2.2-4.8,4.8
		C464.4-58.6,466.5-56.4,469.2-56.4z"/>
	<path class="st2" d="M469.2-28.2c2.7,0,4.8-2.2,4.8-4.8c0-2.7-2.2-4.8-4.8-4.8c-2.7,0-4.8,2.2-4.8,4.8
		C464.4-30.4,466.5-28.2,469.2-28.2z"/>
	<path class="st2" d="M469.2,0c2.7,0,4.8-2.2,4.8-4.8s-2.2-4.8-4.8-4.8c-2.7,0-4.8,2.2-4.8,4.8S466.5,0,469.2,0z"/>
	<path class="st2" d="M469.2,28.2c2.7,0,4.8-2.2,4.8-4.8c0-2.7-2.2-4.8-4.8-4.8c-2.7,0-4.8,2.2-4.8,4.8
		C464.4,26,466.5,28.2,469.2,28.2z"/>
	<path class="st2" d="M469.2,56.4c2.7,0,4.8-2.2,4.8-4.8c0-2.7-2.2-4.8-4.8-4.8c-2.7,0-4.8,2.2-4.8,4.8
		C464.4,54.2,466.5,56.4,469.2,56.4z"/>
	<path class="st2" d="M469.2,84.6c2.7,0,4.8-2.2,4.8-4.8c0-2.7-2.2-4.8-4.8-4.8c-2.7,0-4.8,2.2-4.8,4.8
		C464.4,82.5,466.5,84.6,469.2,84.6z"/>
	<path class="st2" d="M469.2,112.8c2.7,0,4.8-2.2,4.8-4.8c0-2.7-2.2-4.8-4.8-4.8c-2.7,0-4.8,2.2-4.8,4.8
		C464.4,110.7,466.5,112.8,469.2,112.8z"/>
	<path class="st2" d="M469.2,141c2.7,0,4.8-2.2,4.8-4.8c0-2.7-2.2-4.8-4.8-4.8c-2.7,0-4.8,2.2-4.8,4.8
		C464.4,138.9,466.5,141,469.2,141z"/>
	<path class="st2" d="M469.2,169.2c2.7,0,4.8-2.2,4.8-4.8c0-2.7-2.2-4.8-4.8-4.8c-2.7,0-4.8,2.2-4.8,4.8
		C464.4,167.1,466.5,169.2,469.2,169.2z"/>
	<path class="st2" d="M469.2,197.4c2.7,0,4.8-2.2,4.8-4.8c0-2.7-2.2-4.8-4.8-4.8c-2.7,0-4.8,2.2-4.8,4.8
		C464.4,195.3,466.5,197.4,469.2,197.4z"/>
	<path class="st2" d="M469.2,225.7c2.7,0,4.8-2.2,4.8-4.8c0-2.7-2.2-4.8-4.8-4.8c-2.7,0-4.8,2.2-4.8,4.8
		C464.4,223.5,466.5,225.7,469.2,225.7z"/>
	<path class="st2" d="M495.3-141c2.7,0,4.8-2.2,4.8-4.8c0-2.7-2.2-4.8-4.8-4.8c-2.7,0-4.8,2.2-4.8,4.8
		C490.5-143.2,492.7-141,495.3-141z"/>
	<path class="st2" d="M495.3-112.8c2.7,0,4.8-2.2,4.8-4.8c0-2.7-2.2-4.8-4.8-4.8c-2.7,0-4.8,2.2-4.8,4.8
		C490.5-115,492.7-112.8,495.3-112.8z"/>
	<path class="st2" d="M495.3-84.6c2.7,0,4.8-2.2,4.8-4.8s-2.2-4.8-4.8-4.8c-2.7,0-4.8,2.2-4.8,4.8S492.7-84.6,495.3-84.6z"/>
	<path class="st2" d="M495.3-56.4c2.7,0,4.8-2.2,4.8-4.8c0-2.7-2.2-4.8-4.8-4.8c-2.7,0-4.8,2.2-4.8,4.8
		C490.5-58.6,492.7-56.4,495.3-56.4z"/>
	<path class="st2" d="M495.3-28.2c2.7,0,4.8-2.2,4.8-4.8c0-2.7-2.2-4.8-4.8-4.8c-2.7,0-4.8,2.2-4.8,4.8
		C490.5-30.4,492.7-28.2,495.3-28.2z"/>
	<path class="st2" d="M495.3,0c2.7,0,4.8-2.2,4.8-4.8s-2.2-4.8-4.8-4.8c-2.7,0-4.8,2.2-4.8,4.8S492.7,0,495.3,0z"/>
	<path class="st2" d="M495.3,28.2c2.7,0,4.8-2.2,4.8-4.8c0-2.7-2.2-4.8-4.8-4.8c-2.7,0-4.8,2.2-4.8,4.8
		C490.5,26,492.7,28.2,495.3,28.2z"/>
	<path class="st2" d="M495.3,56.4c2.7,0,4.8-2.2,4.8-4.8c0-2.7-2.2-4.8-4.8-4.8c-2.7,0-4.8,2.2-4.8,4.8
		C490.5,54.2,492.7,56.4,495.3,56.4z"/>
	<path class="st2" d="M495.3,84.6c2.7,0,4.8-2.2,4.8-4.8c0-2.7-2.2-4.8-4.8-4.8c-2.7,0-4.8,2.2-4.8,4.8
		C490.5,82.5,492.7,84.6,495.3,84.6z"/>
	<path class="st2" d="M495.3,112.8c2.7,0,4.8-2.2,4.8-4.8c0-2.7-2.2-4.8-4.8-4.8c-2.7,0-4.8,2.2-4.8,4.8
		C490.5,110.7,492.7,112.8,495.3,112.8z"/>
	<path class="st2" d="M495.3,141c2.7,0,4.8-2.2,4.8-4.8c0-2.7-2.2-4.8-4.8-4.8c-2.7,0-4.8,2.2-4.8,4.8
		C490.5,138.9,492.7,141,495.3,141z"/>
	<path class="st2" d="M495.3,169.2c2.7,0,4.8-2.2,4.8-4.8c0-2.7-2.2-4.8-4.8-4.8c-2.7,0-4.8,2.2-4.8,4.8
		C490.5,167.1,492.7,169.2,495.3,169.2z"/>
	<path class="st2" d="M495.3,197.4c2.7,0,4.8-2.2,4.8-4.8c0-2.7-2.2-4.8-4.8-4.8c-2.7,0-4.8,2.2-4.8,4.8
		C490.5,195.3,492.7,197.4,495.3,197.4z"/>
	<path class="st2" d="M495.3,225.7c2.7,0,4.8-2.2,4.8-4.8c0-2.7-2.2-4.8-4.8-4.8c-2.7,0-4.8,2.2-4.8,4.8
		C490.5,223.5,492.7,225.7,495.3,225.7z"/>
	<path class="st2" d="M521.5-141c2.7,0,4.8-2.2,4.8-4.8c0-2.7-2.2-4.8-4.8-4.8c-2.7,0-4.8,2.2-4.8,4.8
		C516.7-143.2,518.8-141,521.5-141z"/>
	<path class="st2" d="M521.5-112.8c2.7,0,4.8-2.2,4.8-4.8c0-2.7-2.2-4.8-4.8-4.8c-2.7,0-4.8,2.2-4.8,4.8
		C516.7-115,518.8-112.8,521.5-112.8z"/>
	<path class="st2" d="M521.5-84.6c2.7,0,4.8-2.2,4.8-4.8s-2.2-4.8-4.8-4.8c-2.7,0-4.8,2.2-4.8,4.8S518.8-84.6,521.5-84.6z"/>
	<path class="st2" d="M521.5-56.4c2.7,0,4.8-2.2,4.8-4.8c0-2.7-2.2-4.8-4.8-4.8c-2.7,0-4.8,2.2-4.8,4.8
		C516.7-58.6,518.8-56.4,521.5-56.4z"/>
	<path class="st2" d="M521.5-28.2c2.7,0,4.8-2.2,4.8-4.8c0-2.7-2.2-4.8-4.8-4.8c-2.7,0-4.8,2.2-4.8,4.8
		C516.7-30.4,518.8-28.2,521.5-28.2z"/>
	<path class="st2" d="M521.5,0c2.7,0,4.8-2.2,4.8-4.8s-2.2-4.8-4.8-4.8c-2.7,0-4.8,2.2-4.8,4.8S518.8,0,521.5,0z"/>
	<path class="st2" d="M521.5,28.2c2.7,0,4.8-2.2,4.8-4.8c0-2.7-2.2-4.8-4.8-4.8c-2.7,0-4.8,2.2-4.8,4.8
		C516.7,26,518.8,28.2,521.5,28.2z"/>
	<path class="st2" d="M521.5,56.4c2.7,0,4.8-2.2,4.8-4.8c0-2.7-2.2-4.8-4.8-4.8c-2.7,0-4.8,2.2-4.8,4.8
		C516.7,54.2,518.8,56.4,521.5,56.4z"/>
	<path class="st2" d="M521.5,84.6c2.7,0,4.8-2.2,4.8-4.8c0-2.7-2.2-4.8-4.8-4.8c-2.7,0-4.8,2.2-4.8,4.8
		C516.7,82.5,518.8,84.6,521.5,84.6z"/>
	<path class="st2" d="M521.5,112.8c2.7,0,4.8-2.2,4.8-4.8c0-2.7-2.2-4.8-4.8-4.8c-2.7,0-4.8,2.2-4.8,4.8
		C516.7,110.7,518.8,112.8,521.5,112.8z"/>
	<path class="st2" d="M521.5,141c2.7,0,4.8-2.2,4.8-4.8c0-2.7-2.2-4.8-4.8-4.8c-2.7,0-4.8,2.2-4.8,4.8
		C516.7,138.9,518.8,141,521.5,141z"/>
	<path class="st2" d="M521.5,169.2c2.7,0,4.8-2.2,4.8-4.8c0-2.7-2.2-4.8-4.8-4.8c-2.7,0-4.8,2.2-4.8,4.8
		C516.7,167.1,518.8,169.2,521.5,169.2z"/>
	<path class="st2" d="M521.5,197.4c2.7,0,4.8-2.2,4.8-4.8c0-2.7-2.2-4.8-4.8-4.8c-2.7,0-4.8,2.2-4.8,4.8
		C516.7,195.3,518.8,197.4,521.5,197.4z"/>
	<path class="st2" d="M521.5,225.7c2.7,0,4.8-2.2,4.8-4.8c0-2.7-2.2-4.8-4.8-4.8c-2.7,0-4.8,2.2-4.8,4.8
		C516.7,223.5,518.8,225.7,521.5,225.7z"/>
	<path class="st2" d="M547.6-141c2.7,0,4.8-2.2,4.8-4.8c0-2.7-2.2-4.8-4.8-4.8c-2.7,0-4.8,2.2-4.8,4.8
		C542.8-143.2,544.9-141,547.6-141z"/>
	<path class="st2" d="M547.6-112.8c2.7,0,4.8-2.2,4.8-4.8c0-2.7-2.2-4.8-4.8-4.8c-2.7,0-4.8,2.2-4.8,4.8
		C542.8-115,544.9-112.8,547.6-112.8z"/>
	<path class="st2" d="M547.6-84.6c2.7,0,4.8-2.2,4.8-4.8s-2.2-4.8-4.8-4.8c-2.7,0-4.8,2.2-4.8,4.8S544.9-84.6,547.6-84.6z"/>
	<path class="st2" d="M547.6-56.4c2.7,0,4.8-2.2,4.8-4.8c0-2.7-2.2-4.8-4.8-4.8c-2.7,0-4.8,2.2-4.8,4.8
		C542.8-58.6,544.9-56.4,547.6-56.4z"/>
	<path class="st2" d="M547.6-28.2c2.7,0,4.8-2.2,4.8-4.8c0-2.7-2.2-4.8-4.8-4.8c-2.7,0-4.8,2.2-4.8,4.8
		C542.8-30.4,544.9-28.2,547.6-28.2z"/>
	<path class="st2" d="M547.6,0c2.7,0,4.8-2.2,4.8-4.8s-2.2-4.8-4.8-4.8c-2.7,0-4.8,2.2-4.8,4.8S544.9,0,547.6,0z"/>
	<path class="st2" d="M547.6,28.2c2.7,0,4.8-2.2,4.8-4.8c0-2.7-2.2-4.8-4.8-4.8c-2.7,0-4.8,2.2-4.8,4.8
		C542.8,26,544.9,28.2,547.6,28.2z"/>
	<path class="st2" d="M547.6,56.4c2.7,0,4.8-2.2,4.8-4.8c0-2.7-2.2-4.8-4.8-4.8c-2.7,0-4.8,2.2-4.8,4.8
		C542.8,54.2,544.9,56.4,547.6,56.4z"/>
	<path class="st2" d="M547.6,84.6c2.7,0,4.8-2.2,4.8-4.8c0-2.7-2.2-4.8-4.8-4.8c-2.7,0-4.8,2.2-4.8,4.8
		C542.8,82.5,544.9,84.6,547.6,84.6z"/>
	<path class="st2" d="M547.6,112.8c2.7,0,4.8-2.2,4.8-4.8c0-2.7-2.2-4.8-4.8-4.8c-2.7,0-4.8,2.2-4.8,4.8
		C542.8,110.7,544.9,112.8,547.6,112.8z"/>
	<path class="st2" d="M547.6,141c2.7,0,4.8-2.2,4.8-4.8c0-2.7-2.2-4.8-4.8-4.8c-2.7,0-4.8,2.2-4.8,4.8
		C542.8,138.9,544.9,141,547.6,141z"/>
	<path class="st2" d="M547.6,169.2c2.7,0,4.8-2.2,4.8-4.8c0-2.7-2.2-4.8-4.8-4.8c-2.7,0-4.8,2.2-4.8,4.8
		C542.8,167.1,544.9,169.2,547.6,169.2z"/>
	<path class="st2" d="M547.6,197.4c2.7,0,4.8-2.2,4.8-4.8c0-2.7-2.2-4.8-4.8-4.8c-2.7,0-4.8,2.2-4.8,4.8
		C542.8,195.3,544.9,197.4,547.6,197.4z"/>
	<path class="st2" d="M547.6,225.7c2.7,0,4.8-2.2,4.8-4.8c0-2.7-2.2-4.8-4.8-4.8c-2.7,0-4.8,2.2-4.8,4.8
		C542.8,223.5,544.9,225.7,547.6,225.7z"/>
	<path class="st2" d="M573.8-141c2.7,0,4.8-2.2,4.8-4.8c0-2.7-2.2-4.8-4.8-4.8c-2.7,0-4.8,2.2-4.8,4.8
		C568.9-143.2,571.1-141,573.8-141z"/>
	<path class="st2" d="M573.8-112.8c2.7,0,4.8-2.2,4.8-4.8c0-2.7-2.2-4.8-4.8-4.8c-2.7,0-4.8,2.2-4.8,4.8
		C568.9-115,571.1-112.8,573.8-112.8z"/>
	<path class="st2" d="M573.8-84.6c2.7,0,4.8-2.2,4.8-4.8s-2.2-4.8-4.8-4.8c-2.7,0-4.8,2.2-4.8,4.8S571.1-84.6,573.8-84.6z"/>
	<path class="st2" d="M573.8-56.4c2.7,0,4.8-2.2,4.8-4.8c0-2.7-2.2-4.8-4.8-4.8c-2.7,0-4.8,2.2-4.8,4.8
		C568.9-58.6,571.1-56.4,573.8-56.4z"/>
	<path class="st2" d="M573.8-28.2c2.7,0,4.8-2.2,4.8-4.8c0-2.7-2.2-4.8-4.8-4.8c-2.7,0-4.8,2.2-4.8,4.8
		C568.9-30.4,571.1-28.2,573.8-28.2z"/>
	<path class="st2" d="M573.8,0c2.7,0,4.8-2.2,4.8-4.8s-2.2-4.8-4.8-4.8c-2.7,0-4.8,2.2-4.8,4.8S571.1,0,573.8,0z"/>
	<path class="st2" d="M573.8,28.2c2.7,0,4.8-2.2,4.8-4.8c0-2.7-2.2-4.8-4.8-4.8c-2.7,0-4.8,2.2-4.8,4.8
		C568.9,26,571.1,28.2,573.8,28.2z"/>
	<path class="st2" d="M573.8,56.4c2.7,0,4.8-2.2,4.8-4.8c0-2.7-2.2-4.8-4.8-4.8c-2.7,0-4.8,2.2-4.8,4.8
		C568.9,54.2,571.1,56.4,573.8,56.4z"/>
	<path class="st2" d="M573.8,84.6c2.7,0,4.8-2.2,4.8-4.8c0-2.7-2.2-4.8-4.8-4.8c-2.7,0-4.8,2.2-4.8,4.8
		C568.9,82.5,571.1,84.6,573.8,84.6z"/>
	<path class="st2" d="M573.8,112.8c2.7,0,4.8-2.2,4.8-4.8c0-2.7-2.2-4.8-4.8-4.8c-2.7,0-4.8,2.2-4.8,4.8
		C568.9,110.7,571.1,112.8,573.8,112.8z"/>
	<path class="st2" d="M573.8,141c2.7,0,4.8-2.2,4.8-4.8c0-2.7-2.2-4.8-4.8-4.8c-2.7,0-4.8,2.2-4.8,4.8
		C568.9,138.9,571.1,141,573.8,141z"/>
	<path class="st2" d="M573.8,169.2c2.7,0,4.8-2.2,4.8-4.8c0-2.7-2.2-4.8-4.8-4.8c-2.7,0-4.8,2.2-4.8,4.8
		C568.9,167.1,571.1,169.2,573.8,169.2z"/>
	<path class="st2" d="M573.8,197.4c2.7,0,4.8-2.2,4.8-4.8c0-2.7-2.2-4.8-4.8-4.8c-2.7,0-4.8,2.2-4.8,4.8
		C568.9,195.3,571.1,197.4,573.8,197.4z"/>
	<path class="st2" d="M573.8,225.7c2.7,0,4.8-2.2,4.8-4.8c0-2.7-2.2-4.8-4.8-4.8c-2.7,0-4.8,2.2-4.8,4.8
		C568.9,223.5,571.1,225.7,573.8,225.7z"/>
	<path class="st2" d="M599.9-141c2.7,0,4.8-2.2,4.8-4.8c0-2.7-2.2-4.8-4.8-4.8c-2.7,0-4.8,2.2-4.8,4.8
		C595.1-143.2,597.2-141,599.9-141z"/>
	<path class="st2" d="M599.9-112.8c2.7,0,4.8-2.2,4.8-4.8c0-2.7-2.2-4.8-4.8-4.8c-2.7,0-4.8,2.2-4.8,4.8
		C595.1-115,597.2-112.8,599.9-112.8z"/>
	<path class="st2" d="M599.9-84.6c2.7,0,4.8-2.2,4.8-4.8s-2.2-4.8-4.8-4.8c-2.7,0-4.8,2.2-4.8,4.8S597.2-84.6,599.9-84.6z"/>
	<path class="st2" d="M599.9-56.4c2.7,0,4.8-2.2,4.8-4.8c0-2.7-2.2-4.8-4.8-4.8c-2.7,0-4.8,2.2-4.8,4.8
		C595.1-58.6,597.2-56.4,599.9-56.4z"/>
	<path class="st2" d="M599.9-28.2c2.7,0,4.8-2.2,4.8-4.8c0-2.7-2.2-4.8-4.8-4.8c-2.7,0-4.8,2.2-4.8,4.8
		C595.1-30.4,597.2-28.2,599.9-28.2z"/>
	<path class="st2" d="M599.9,0c2.7,0,4.8-2.2,4.8-4.8s-2.2-4.8-4.8-4.8c-2.7,0-4.8,2.2-4.8,4.8S597.2,0,599.9,0z"/>
	<path class="st2" d="M599.9,28.2c2.7,0,4.8-2.2,4.8-4.8c0-2.7-2.2-4.8-4.8-4.8c-2.7,0-4.8,2.2-4.8,4.8
		C595.1,26,597.2,28.2,599.9,28.2z"/>
	<path class="st2" d="M599.9,56.4c2.7,0,4.8-2.2,4.8-4.8c0-2.7-2.2-4.8-4.8-4.8c-2.7,0-4.8,2.2-4.8,4.8
		C595.1,54.2,597.2,56.4,599.9,56.4z"/>
	<path class="st2" d="M599.9,84.6c2.7,0,4.8-2.2,4.8-4.8c0-2.7-2.2-4.8-4.8-4.8c-2.7,0-4.8,2.2-4.8,4.8
		C595.1,82.5,597.2,84.6,599.9,84.6z"/>
	<path class="st2" d="M599.9,112.8c2.7,0,4.8-2.2,4.8-4.8c0-2.7-2.2-4.8-4.8-4.8c-2.7,0-4.8,2.2-4.8,4.8
		C595.1,110.7,597.2,112.8,599.9,112.8z"/>
	<path class="st2" d="M599.9,141c2.7,0,4.8-2.2,4.8-4.8c0-2.7-2.2-4.8-4.8-4.8c-2.7,0-4.8,2.2-4.8,4.8
		C595.1,138.9,597.2,141,599.9,141z"/>
	<path class="st2" d="M599.9,169.2c2.7,0,4.8-2.2,4.8-4.8c0-2.7-2.2-4.8-4.8-4.8c-2.7,0-4.8,2.2-4.8,4.8
		C595.1,167.1,597.2,169.2,599.9,169.2z"/>
	<path class="st2" d="M599.9,197.4c2.7,0,4.8-2.2,4.8-4.8c0-2.7-2.2-4.8-4.8-4.8c-2.7,0-4.8,2.2-4.8,4.8
		C595.1,195.3,597.2,197.4,599.9,197.4z"/>
	<path class="st2" d="M599.9,225.7c2.7,0,4.8-2.2,4.8-4.8c0-2.7-2.2-4.8-4.8-4.8c-2.7,0-4.8,2.2-4.8,4.8
		C595.1,223.5,597.2,225.7,599.9,225.7z"/>
	<path class="st2" d="M626-141c2.7,0,4.8-2.2,4.8-4.8c0-2.7-2.2-4.8-4.8-4.8c-2.7,0-4.8,2.2-4.8,4.8C621.2-143.2,623.4-141,626-141z
		"/>
	<path class="st2" d="M626-112.8c2.7,0,4.8-2.2,4.8-4.8c0-2.7-2.2-4.8-4.8-4.8c-2.7,0-4.8,2.2-4.8,4.8
		C621.2-115,623.4-112.8,626-112.8z"/>
	<path class="st2" d="M626-84.6c2.7,0,4.8-2.2,4.8-4.8s-2.2-4.8-4.8-4.8c-2.7,0-4.8,2.2-4.8,4.8S623.4-84.6,626-84.6z"/>
	<path class="st2" d="M626-56.4c2.7,0,4.8-2.2,4.8-4.8c0-2.7-2.2-4.8-4.8-4.8c-2.7,0-4.8,2.2-4.8,4.8
		C621.2-58.6,623.4-56.4,626-56.4z"/>
	<path class="st2" d="M626-28.2c2.7,0,4.8-2.2,4.8-4.8c0-2.7-2.2-4.8-4.8-4.8c-2.7,0-4.8,2.2-4.8,4.8
		C621.2-30.4,623.4-28.2,626-28.2z"/>
	<path class="st2" d="M626,0c2.7,0,4.8-2.2,4.8-4.8s-2.2-4.8-4.8-4.8c-2.7,0-4.8,2.2-4.8,4.8S623.4,0,626,0z"/>
	<path class="st2" d="M626,28.2c2.7,0,4.8-2.2,4.8-4.8c0-2.7-2.2-4.8-4.8-4.8c-2.7,0-4.8,2.2-4.8,4.8C621.2,26,623.4,28.2,626,28.2z
		"/>
	<path class="st2" d="M626,56.4c2.7,0,4.8-2.2,4.8-4.8c0-2.7-2.2-4.8-4.8-4.8c-2.7,0-4.8,2.2-4.8,4.8
		C621.2,54.2,623.4,56.4,626,56.4z"/>
	<path class="st2" d="M626,84.6c2.7,0,4.8-2.2,4.8-4.8c0-2.7-2.2-4.8-4.8-4.8c-2.7,0-4.8,2.2-4.8,4.8
		C621.2,82.5,623.4,84.6,626,84.6z"/>
	<path class="st2" d="M626,112.8c2.7,0,4.8-2.2,4.8-4.8c0-2.7-2.2-4.8-4.8-4.8c-2.7,0-4.8,2.2-4.8,4.8
		C621.2,110.7,623.4,112.8,626,112.8z"/>
	<path class="st2" d="M626,141c2.7,0,4.8-2.2,4.8-4.8c0-2.7-2.2-4.8-4.8-4.8c-2.7,0-4.8,2.2-4.8,4.8C621.2,138.9,623.4,141,626,141z
		"/>
	<path class="st2" d="M626,169.2c2.7,0,4.8-2.2,4.8-4.8c0-2.7-2.2-4.8-4.8-4.8c-2.7,0-4.8,2.2-4.8,4.8
		C621.2,167.1,623.4,169.2,626,169.2z"/>
	<path class="st2" d="M626,197.4c2.7,0,4.8-2.2,4.8-4.8c0-2.7-2.2-4.8-4.8-4.8c-2.7,0-4.8,2.2-4.8,4.8
		C621.2,195.3,623.4,197.4,626,197.4z"/>
	<path class="st2" d="M626,225.7c2.7,0,4.8-2.2,4.8-4.8c0-2.7-2.2-4.8-4.8-4.8c-2.7,0-4.8,2.2-4.8,4.8
		C621.2,223.5,623.4,225.7,626,225.7z"/>
	<path class="st2" d="M652.2-141c2.7,0,4.8-2.2,4.8-4.8c0-2.7-2.2-4.8-4.8-4.8c-2.7,0-4.8,2.2-4.8,4.8
		C647.4-143.2,649.5-141,652.2-141z"/>
	<path class="st2" d="M652.2-112.8c2.7,0,4.8-2.2,4.8-4.8c0-2.7-2.2-4.8-4.8-4.8c-2.7,0-4.8,2.2-4.8,4.8
		C647.4-115,649.5-112.8,652.2-112.8z"/>
	<path class="st2" d="M652.2-84.6c2.7,0,4.8-2.2,4.8-4.8s-2.2-4.8-4.8-4.8c-2.7,0-4.8,2.2-4.8,4.8S649.5-84.6,652.2-84.6z"/>
	<path class="st2" d="M652.2-56.4c2.7,0,4.8-2.2,4.8-4.8c0-2.7-2.2-4.8-4.8-4.8c-2.7,0-4.8,2.2-4.8,4.8
		C647.4-58.6,649.5-56.4,652.2-56.4z"/>
	<path class="st2" d="M652.2-28.2c2.7,0,4.8-2.2,4.8-4.8c0-2.7-2.2-4.8-4.8-4.8c-2.7,0-4.8,2.2-4.8,4.8
		C647.4-30.4,649.5-28.2,652.2-28.2z"/>
	<path class="st2" d="M652.2,0c2.7,0,4.8-2.2,4.8-4.8s-2.2-4.8-4.8-4.8c-2.7,0-4.8,2.2-4.8,4.8S649.5,0,652.2,0z"/>
	<path class="st2" d="M652.2,28.2c2.7,0,4.8-2.2,4.8-4.8c0-2.7-2.2-4.8-4.8-4.8c-2.7,0-4.8,2.2-4.8,4.8
		C647.4,26,649.5,28.2,652.2,28.2z"/>
	<path class="st2" d="M652.2,56.4c2.7,0,4.8-2.2,4.8-4.8c0-2.7-2.2-4.8-4.8-4.8c-2.7,0-4.8,2.2-4.8,4.8
		C647.4,54.2,649.5,56.4,652.2,56.4z"/>
	<path class="st2" d="M652.2,84.6c2.7,0,4.8-2.2,4.8-4.8c0-2.7-2.2-4.8-4.8-4.8c-2.7,0-4.8,2.2-4.8,4.8
		C647.4,82.5,649.5,84.6,652.2,84.6z"/>
	<path class="st2" d="M652.2,112.8c2.7,0,4.8-2.2,4.8-4.8c0-2.7-2.2-4.8-4.8-4.8c-2.7,0-4.8,2.2-4.8,4.8
		C647.4,110.7,649.5,112.8,652.2,112.8z"/>
	<path class="st2" d="M652.2,141c2.7,0,4.8-2.2,4.8-4.8c0-2.7-2.2-4.8-4.8-4.8c-2.7,0-4.8,2.2-4.8,4.8
		C647.4,138.9,649.5,141,652.2,141z"/>
	<path class="st2" d="M652.2,169.2c2.7,0,4.8-2.2,4.8-4.8c0-2.7-2.2-4.8-4.8-4.8c-2.7,0-4.8,2.2-4.8,4.8
		C647.4,167.1,649.5,169.2,652.2,169.2z"/>
	<path class="st2" d="M652.2,197.4c2.7,0,4.8-2.2,4.8-4.8c0-2.7-2.2-4.8-4.8-4.8c-2.7,0-4.8,2.2-4.8,4.8
		C647.4,195.3,649.5,197.4,652.2,197.4z"/>
	<path class="st2" d="M652.2,225.7c2.7,0,4.8-2.2,4.8-4.8c0-2.7-2.2-4.8-4.8-4.8c-2.7,0-4.8,2.2-4.8,4.8
		C647.4,223.5,649.5,225.7,652.2,225.7z"/>
	<path class="st2" d="M-158.2,253.9c2.7,0,4.8-2.2,4.8-4.8c0-2.7-2.2-4.8-4.8-4.8c-2.7,0-4.8,2.2-4.8,4.8
		C-163,251.7-160.8,253.9-158.2,253.9z"/>
	<path class="st2" d="M-158.2,282.1c2.7,0,4.8-2.2,4.8-4.8c0-2.7-2.2-4.8-4.8-4.8c-2.7,0-4.8,2.2-4.8,4.8
		C-163,279.9-160.8,282.1-158.2,282.1z"/>
	<path class="st2" d="M-158.2,310.3c2.7,0,4.8-2.2,4.8-4.8c0-2.7-2.2-4.8-4.8-4.8c-2.7,0-4.8,2.2-4.8,4.8
		C-163,308.1-160.8,310.3-158.2,310.3z"/>
	<path class="st2" d="M-158.2,338.5c2.7,0,4.8-2.2,4.8-4.8c0-2.7-2.2-4.8-4.8-4.8c-2.7,0-4.8,2.2-4.8,4.8
		C-163,336.3-160.8,338.5-158.2,338.5z"/>
	<path class="st2" d="M-132,253.9c2.7,0,4.8-2.2,4.8-4.8c0-2.7-2.2-4.8-4.8-4.8s-4.8,2.2-4.8,4.8
		C-136.9,251.7-134.7,253.9-132,253.9z"/>
	<path class="st2" d="M-132,282.1c2.7,0,4.8-2.2,4.8-4.8c0-2.7-2.2-4.8-4.8-4.8s-4.8,2.2-4.8,4.8
		C-136.9,279.9-134.7,282.1-132,282.1z"/>
	<path class="st2" d="M-132,310.3c2.7,0,4.8-2.2,4.8-4.8c0-2.7-2.2-4.8-4.8-4.8s-4.8,2.2-4.8,4.8
		C-136.9,308.1-134.7,310.3-132,310.3z"/>
	<path class="st2" d="M-132,338.5c2.7,0,4.8-2.2,4.8-4.8c0-2.7-2.2-4.8-4.8-4.8s-4.8,2.2-4.8,4.8
		C-136.9,336.3-134.7,338.5-132,338.5z"/>
	<path class="st2" d="M-105.9,253.9c2.7,0,4.8-2.2,4.8-4.8c0-2.7-2.2-4.8-4.8-4.8s-4.8,2.2-4.8,4.8
		C-110.7,251.7-108.6,253.9-105.9,253.9z"/>
	<path class="st2" d="M-105.9,282.1c2.7,0,4.8-2.2,4.8-4.8c0-2.7-2.2-4.8-4.8-4.8s-4.8,2.2-4.8,4.8
		C-110.7,279.9-108.6,282.1-105.9,282.1z"/>
	<path class="st2" d="M-105.9,310.3c2.7,0,4.8-2.2,4.8-4.8c0-2.7-2.2-4.8-4.8-4.8s-4.8,2.2-4.8,4.8
		C-110.7,308.1-108.6,310.3-105.9,310.3z"/>
	<path class="st2" d="M-105.9,338.5c2.7,0,4.8-2.2,4.8-4.8c0-2.7-2.2-4.8-4.8-4.8s-4.8,2.2-4.8,4.8
		C-110.7,336.3-108.6,338.5-105.9,338.5z"/>
	<path class="st2" d="M-79.8,253.9c2.7,0,4.8-2.2,4.8-4.8c0-2.7-2.2-4.8-4.8-4.8c-2.7,0-4.8,2.2-4.8,4.8
		C-84.6,251.7-82.4,253.9-79.8,253.9z"/>
	<path class="st2" d="M-79.8,282.1c2.7,0,4.8-2.2,4.8-4.8c0-2.7-2.2-4.8-4.8-4.8c-2.7,0-4.8,2.2-4.8,4.8
		C-84.6,279.9-82.4,282.1-79.8,282.1z"/>
	<path class="st2" d="M-79.8,310.3c2.7,0,4.8-2.2,4.8-4.8c0-2.7-2.2-4.8-4.8-4.8c-2.7,0-4.8,2.2-4.8,4.8
		C-84.6,308.1-82.4,310.3-79.8,310.3z"/>
	<path class="st2" d="M-79.8,338.5c2.7,0,4.8-2.2,4.8-4.8c0-2.7-2.2-4.8-4.8-4.8c-2.7,0-4.8,2.2-4.8,4.8
		C-84.6,336.3-82.4,338.5-79.8,338.5z"/>
	<path class="st2" d="M-53.6,253.9c2.7,0,4.8-2.2,4.8-4.8c0-2.7-2.2-4.8-4.8-4.8c-2.7,0-4.8,2.2-4.8,4.8
		C-58.4,251.7-56.3,253.9-53.6,253.9z"/>
	<path class="st2" d="M-53.6,282.1c2.7,0,4.8-2.2,4.8-4.8c0-2.7-2.2-4.8-4.8-4.8c-2.7,0-4.8,2.2-4.8,4.8
		C-58.4,279.9-56.3,282.1-53.6,282.1z"/>
	<path class="st2" d="M-53.6,310.3c2.7,0,4.8-2.2,4.8-4.8c0-2.7-2.2-4.8-4.8-4.8c-2.7,0-4.8,2.2-4.8,4.8
		C-58.4,308.1-56.3,310.3-53.6,310.3z"/>
	<path class="st2" d="M-53.6,338.5c2.7,0,4.8-2.2,4.8-4.8c0-2.7-2.2-4.8-4.8-4.8c-2.7,0-4.8,2.2-4.8,4.8
		C-58.4,336.3-56.3,338.5-53.6,338.5z"/>
	<path class="st2" d="M-27.5,253.9c2.7,0,4.8-2.2,4.8-4.8c0-2.7-2.2-4.8-4.8-4.8c-2.7,0-4.8,2.2-4.8,4.8
		C-32.3,251.7-30.1,253.9-27.5,253.9z"/>
	<path class="st2" d="M-27.5,282.1c2.7,0,4.8-2.2,4.8-4.8c0-2.7-2.2-4.8-4.8-4.8c-2.7,0-4.8,2.2-4.8,4.8
		C-32.3,279.9-30.1,282.1-27.5,282.1z"/>
	<path class="st2" d="M-27.5,310.3c2.7,0,4.8-2.2,4.8-4.8c0-2.7-2.2-4.8-4.8-4.8c-2.7,0-4.8,2.2-4.8,4.8
		C-32.3,308.1-30.1,310.3-27.5,310.3z"/>
	<path class="st2" d="M-27.5,338.5c2.7,0,4.8-2.2,4.8-4.8c0-2.7-2.2-4.8-4.8-4.8c-2.7,0-4.8,2.2-4.8,4.8
		C-32.3,336.3-30.1,338.5-27.5,338.5z"/>
	<path class="st2" d="M-1.3,253.9c2.7,0,4.8-2.2,4.8-4.8c0-2.7-2.2-4.8-4.8-4.8c-2.7,0-4.8,2.2-4.8,4.8
		C-6.2,251.7-4,253.9-1.3,253.9z"/>
	<path class="st2" d="M-1.3,282.1c2.7,0,4.8-2.2,4.8-4.8c0-2.7-2.2-4.8-4.8-4.8c-2.7,0-4.8,2.2-4.8,4.8
		C-6.2,279.9-4,282.1-1.3,282.1z"/>
	<path class="st2" d="M-1.3,310.3c2.7,0,4.8-2.2,4.8-4.8c0-2.7-2.2-4.8-4.8-4.8c-2.7,0-4.8,2.2-4.8,4.8
		C-6.2,308.1-4,310.3-1.3,310.3z"/>
	<path class="st2" d="M-1.3,338.5c2.7,0,4.8-2.2,4.8-4.8c0-2.7-2.2-4.8-4.8-4.8c-2.7,0-4.8,2.2-4.8,4.8
		C-6.2,336.3-4,338.5-1.3,338.5z"/>
	<path class="st2" d="M24.8,253.9c2.7,0,4.8-2.2,4.8-4.8c0-2.7-2.2-4.8-4.8-4.8c-2.7,0-4.8,2.2-4.8,4.8
		C20,251.7,22.1,253.9,24.8,253.9z"/>
	<path class="st2" d="M24.8,282.1c2.7,0,4.8-2.2,4.8-4.8c0-2.7-2.2-4.8-4.8-4.8c-2.7,0-4.8,2.2-4.8,4.8
		C20,279.9,22.1,282.1,24.8,282.1z"/>
	<path class="st2" d="M24.8,310.3c2.7,0,4.8-2.2,4.8-4.8c0-2.7-2.2-4.8-4.8-4.8c-2.7,0-4.8,2.2-4.8,4.8
		C20,308.1,22.1,310.3,24.8,310.3z"/>
	<path class="st2" d="M24.8,338.5c2.7,0,4.8-2.2,4.8-4.8c0-2.7-2.2-4.8-4.8-4.8c-2.7,0-4.8,2.2-4.8,4.8
		C20,336.3,22.1,338.5,24.8,338.5z"/>
	<path class="st2" d="M50.9,253.9c2.7,0,4.8-2.2,4.8-4.8c0-2.7-2.2-4.8-4.8-4.8c-2.7,0-4.8,2.2-4.8,4.8
		C46.1,251.7,48.3,253.9,50.9,253.9z"/>
	<path class="st2" d="M50.9,282.1c2.7,0,4.8-2.2,4.8-4.8c0-2.7-2.2-4.8-4.8-4.8c-2.7,0-4.8,2.2-4.8,4.8
		C46.1,279.9,48.3,282.1,50.9,282.1z"/>
	<path class="st2" d="M50.9,310.3c2.7,0,4.8-2.2,4.8-4.8c0-2.7-2.2-4.8-4.8-4.8c-2.7,0-4.8,2.2-4.8,4.8
		C46.1,308.1,48.3,310.3,50.9,310.3z"/>
	<path class="st2" d="M50.9,338.5c2.7,0,4.8-2.2,4.8-4.8c0-2.7-2.2-4.8-4.8-4.8c-2.7,0-4.8,2.2-4.8,4.8
		C46.1,336.3,48.3,338.5,50.9,338.5z"/>
	<path class="st2" d="M77.1,253.9c2.7,0,4.8-2.2,4.8-4.8c0-2.7-2.2-4.8-4.8-4.8c-2.7,0-4.8,2.2-4.8,4.8
		C72.3,251.7,74.4,253.9,77.1,253.9z"/>
	<path class="st2" d="M77.1,282.1c2.7,0,4.8-2.2,4.8-4.8c0-2.7-2.2-4.8-4.8-4.8c-2.7,0-4.8,2.2-4.8,4.8
		C72.3,279.9,74.4,282.1,77.1,282.1z"/>
	<path class="st2" d="M77.1,310.3c2.7,0,4.8-2.2,4.8-4.8c0-2.7-2.2-4.8-4.8-4.8c-2.7,0-4.8,2.2-4.8,4.8
		C72.3,308.1,74.4,310.3,77.1,310.3z"/>
	<path class="st2" d="M77.1,338.5c2.7,0,4.8-2.2,4.8-4.8c0-2.7-2.2-4.8-4.8-4.8c-2.7,0-4.8,2.2-4.8,4.8
		C72.3,336.3,74.4,338.5,77.1,338.5z"/>
	<path class="st2" d="M103.2,253.9c2.7,0,4.8-2.2,4.8-4.8c0-2.7-2.2-4.8-4.8-4.8s-4.8,2.2-4.8,4.8
		C98.4,251.7,100.6,253.9,103.2,253.9z"/>
	<path class="st2" d="M103.2,282.1c2.7,0,4.8-2.2,4.8-4.8c0-2.7-2.2-4.8-4.8-4.8s-4.8,2.2-4.8,4.8
		C98.4,279.9,100.6,282.1,103.2,282.1z"/>
	<path class="st2" d="M103.2,310.3c2.7,0,4.8-2.2,4.8-4.8c0-2.7-2.2-4.8-4.8-4.8s-4.8,2.2-4.8,4.8
		C98.4,308.1,100.6,310.3,103.2,310.3z"/>
	<path class="st2" d="M103.2,338.5c2.7,0,4.8-2.2,4.8-4.8c0-2.7-2.2-4.8-4.8-4.8s-4.8,2.2-4.8,4.8
		C98.4,336.3,100.6,338.5,103.2,338.5z"/>
	<path class="st2" d="M129.4,253.9c2.7,0,4.8-2.2,4.8-4.8c0-2.7-2.2-4.8-4.8-4.8c-2.7,0-4.8,2.2-4.8,4.8
		C124.5,251.7,126.7,253.9,129.4,253.9z"/>
	<path class="st2" d="M129.4,282.1c2.7,0,4.8-2.2,4.8-4.8c0-2.7-2.2-4.8-4.8-4.8c-2.7,0-4.8,2.2-4.8,4.8
		C124.5,279.9,126.7,282.1,129.4,282.1z"/>
	<path class="st2" d="M129.4,310.3c2.7,0,4.8-2.2,4.8-4.8c0-2.7-2.2-4.8-4.8-4.8c-2.7,0-4.8,2.2-4.8,4.8
		C124.5,308.1,126.7,310.3,129.4,310.3z"/>
	<path class="st2" d="M129.4,338.5c2.7,0,4.8-2.2,4.8-4.8c0-2.7-2.2-4.8-4.8-4.8c-2.7,0-4.8,2.2-4.8,4.8
		C124.5,336.3,126.7,338.5,129.4,338.5z"/>
	<path class="st2" d="M155.5,253.9c2.7,0,4.8-2.2,4.8-4.8c0-2.7-2.2-4.8-4.8-4.8c-2.7,0-4.8,2.2-4.8,4.8
		C150.7,251.7,152.8,253.9,155.5,253.9z"/>
	<path class="st2" d="M155.5,282.1c2.7,0,4.8-2.2,4.8-4.8c0-2.7-2.2-4.8-4.8-4.8c-2.7,0-4.8,2.2-4.8,4.8
		C150.7,279.9,152.8,282.1,155.5,282.1z"/>
	<path class="st2" d="M155.5,310.3c2.7,0,4.8-2.2,4.8-4.8c0-2.7-2.2-4.8-4.8-4.8c-2.7,0-4.8,2.2-4.8,4.8
		C150.7,308.1,152.8,310.3,155.5,310.3z"/>
	<path class="st2" d="M155.5,338.5c2.7,0,4.8-2.2,4.8-4.8c0-2.7-2.2-4.8-4.8-4.8c-2.7,0-4.8,2.2-4.8,4.8
		C150.7,336.3,152.8,338.5,155.5,338.5z"/>
	<path class="st2" d="M181.6,253.9c2.7,0,4.8-2.2,4.8-4.8c0-2.7-2.2-4.8-4.8-4.8c-2.7,0-4.8,2.2-4.8,4.8
		C176.8,251.7,179,253.9,181.6,253.9z"/>
	<path class="st2" d="M181.6,282.1c2.7,0,4.8-2.2,4.8-4.8c0-2.7-2.2-4.8-4.8-4.8c-2.7,0-4.8,2.2-4.8,4.8
		C176.8,279.9,179,282.1,181.6,282.1z"/>
	<path class="st2" d="M181.6,310.3c2.7,0,4.8-2.2,4.8-4.8c0-2.7-2.2-4.8-4.8-4.8c-2.7,0-4.8,2.2-4.8,4.8
		C176.8,308.1,179,310.3,181.6,310.3z"/>
	<path class="st2" d="M181.6,338.5c2.7,0,4.8-2.2,4.8-4.8c0-2.7-2.2-4.8-4.8-4.8c-2.7,0-4.8,2.2-4.8,4.8
		C176.8,336.3,179,338.5,181.6,338.5z"/>
	<path class="st2" d="M207.8,253.9c2.7,0,4.8-2.2,4.8-4.8c0-2.7-2.2-4.8-4.8-4.8c-2.7,0-4.8,2.2-4.8,4.8
		C203,251.7,205.1,253.9,207.8,253.9z"/>
	<path class="st2" d="M207.8,282.1c2.7,0,4.8-2.2,4.8-4.8c0-2.7-2.2-4.8-4.8-4.8c-2.7,0-4.8,2.2-4.8,4.8
		C203,279.9,205.1,282.1,207.8,282.1z"/>
	<path class="st2" d="M207.8,310.3c2.7,0,4.8-2.2,4.8-4.8c0-2.7-2.2-4.8-4.8-4.8c-2.7,0-4.8,2.2-4.8,4.8
		C203,308.1,205.1,310.3,207.8,310.3z"/>
	<path class="st2" d="M207.8,338.5c2.7,0,4.8-2.2,4.8-4.8c0-2.7-2.2-4.8-4.8-4.8c-2.7,0-4.8,2.2-4.8,4.8
		C203,336.3,205.1,338.5,207.8,338.5z"/>
	<path class="st2" d="M233.9,253.9c2.7,0,4.8-2.2,4.8-4.8c0-2.7-2.2-4.8-4.8-4.8c-2.7,0-4.8,2.2-4.8,4.8
		C229.1,251.7,231.3,253.9,233.9,253.9z"/>
	<path class="st2" d="M233.9,282.1c2.7,0,4.8-2.2,4.8-4.8c0-2.7-2.2-4.8-4.8-4.8c-2.7,0-4.8,2.2-4.8,4.8
		C229.1,279.9,231.3,282.1,233.9,282.1z"/>
	<path class="st2" d="M233.9,310.3c2.7,0,4.8-2.2,4.8-4.8c0-2.7-2.2-4.8-4.8-4.8c-2.7,0-4.8,2.2-4.8,4.8
		C229.1,308.1,231.3,310.3,233.9,310.3z"/>
	<path class="st2" d="M233.9,338.5c2.7,0,4.8-2.2,4.8-4.8c0-2.7-2.2-4.8-4.8-4.8c-2.7,0-4.8,2.2-4.8,4.8
		C229.1,336.3,231.3,338.5,233.9,338.5z"/>
	<path class="st2" d="M260.1,253.9c2.7,0,4.8-2.2,4.8-4.8c0-2.7-2.2-4.8-4.8-4.8s-4.8,2.2-4.8,4.8
		C255.2,251.7,257.4,253.9,260.1,253.9z"/>
	<path class="st2" d="M260.1,282.1c2.7,0,4.8-2.2,4.8-4.8c0-2.7-2.2-4.8-4.8-4.8s-4.8,2.2-4.8,4.8
		C255.2,279.9,257.4,282.1,260.1,282.1z"/>
	<path class="st2" d="M260.1,310.3c2.7,0,4.8-2.2,4.8-4.8c0-2.7-2.2-4.8-4.8-4.8s-4.8,2.2-4.8,4.8
		C255.2,308.1,257.4,310.3,260.1,310.3z"/>
	<path class="st2" d="M260.1,338.5c2.7,0,4.8-2.2,4.8-4.8c0-2.7-2.2-4.8-4.8-4.8s-4.8,2.2-4.8,4.8
		C255.2,336.3,257.4,338.5,260.1,338.5z"/>
	<path class="st2" d="M286.2,253.9c2.7,0,4.8-2.2,4.8-4.8c0-2.7-2.2-4.8-4.8-4.8s-4.8,2.2-4.8,4.8
		C281.4,251.7,283.5,253.9,286.2,253.9z"/>
	<path class="st2" d="M286.2,282.1c2.7,0,4.8-2.2,4.8-4.8c0-2.7-2.2-4.8-4.8-4.8s-4.8,2.2-4.8,4.8
		C281.4,279.9,283.5,282.1,286.2,282.1z"/>
	<path class="st2" d="M286.2,310.3c2.7,0,4.8-2.2,4.8-4.8c0-2.7-2.2-4.8-4.8-4.8s-4.8,2.2-4.8,4.8
		C281.4,308.1,283.5,310.3,286.2,310.3z"/>
	<path class="st2" d="M286.2,338.5c2.7,0,4.8-2.2,4.8-4.8c0-2.7-2.2-4.8-4.8-4.8s-4.8,2.2-4.8,4.8
		C281.4,336.3,283.5,338.5,286.2,338.5z"/>
	<path class="st2" d="M312.3,253.9c2.7,0,4.8-2.2,4.8-4.8c0-2.7-2.2-4.8-4.8-4.8c-2.7,0-4.8,2.2-4.8,4.8
		C307.5,251.7,309.7,253.9,312.3,253.9z"/>
	<path class="st2" d="M312.3,282.1c2.7,0,4.8-2.2,4.8-4.8c0-2.7-2.2-4.8-4.8-4.8c-2.7,0-4.8,2.2-4.8,4.8
		C307.5,279.9,309.7,282.1,312.3,282.1z"/>
	<path class="st2" d="M312.3,310.3c2.7,0,4.8-2.2,4.8-4.8c0-2.7-2.2-4.8-4.8-4.8c-2.7,0-4.8,2.2-4.8,4.8
		C307.5,308.1,309.7,310.3,312.3,310.3z"/>
	<path class="st2" d="M312.3,338.5c2.7,0,4.8-2.2,4.8-4.8c0-2.7-2.2-4.8-4.8-4.8c-2.7,0-4.8,2.2-4.8,4.8
		C307.5,336.3,309.7,338.5,312.3,338.5z"/>
	<path class="st2" d="M338.5,253.9c2.7,0,4.8-2.2,4.8-4.8c0-2.7-2.2-4.8-4.8-4.8s-4.8,2.2-4.8,4.8
		C333.7,251.7,335.8,253.9,338.5,253.9z"/>
	<path class="st2" d="M338.5,282.1c2.7,0,4.8-2.2,4.8-4.8c0-2.7-2.2-4.8-4.8-4.8s-4.8,2.2-4.8,4.8
		C333.7,279.9,335.8,282.1,338.5,282.1z"/>
	<path class="st2" d="M338.5,310.3c2.7,0,4.8-2.2,4.8-4.8c0-2.7-2.2-4.8-4.8-4.8s-4.8,2.2-4.8,4.8
		C333.7,308.1,335.8,310.3,338.5,310.3z"/>
	<path class="st2" d="M338.5,338.5c2.7,0,4.8-2.2,4.8-4.8c0-2.7-2.2-4.8-4.8-4.8s-4.8,2.2-4.8,4.8
		C333.7,336.3,335.8,338.5,338.5,338.5z"/>
	<path class="st2" d="M364.6,253.9c2.7,0,4.8-2.2,4.8-4.8c0-2.7-2.2-4.8-4.8-4.8c-2.7,0-4.8,2.2-4.8,4.8
		C359.8,251.7,362,253.9,364.6,253.9z"/>
	<path class="st2" d="M364.6,282.1c2.7,0,4.8-2.2,4.8-4.8c0-2.7-2.2-4.8-4.8-4.8c-2.7,0-4.8,2.2-4.8,4.8
		C359.8,279.9,362,282.1,364.6,282.1z"/>
	<path class="st2" d="M364.6,310.3c2.7,0,4.8-2.2,4.8-4.8c0-2.7-2.2-4.8-4.8-4.8c-2.7,0-4.8,2.2-4.8,4.8
		C359.8,308.1,362,310.3,364.6,310.3z"/>
	<path class="st2" d="M364.6,338.5c2.7,0,4.8-2.2,4.8-4.8c0-2.7-2.2-4.8-4.8-4.8c-2.7,0-4.8,2.2-4.8,4.8
		C359.8,336.3,362,338.5,364.6,338.5z"/>
	<path class="st2" d="M390.8,253.9c2.7,0,4.8-2.2,4.8-4.8c0-2.7-2.2-4.8-4.8-4.8c-2.7,0-4.8,2.2-4.8,4.8
		C385.9,251.7,388.1,253.9,390.8,253.9z"/>
	<path class="st2" d="M390.8,282.1c2.7,0,4.8-2.2,4.8-4.8c0-2.7-2.2-4.8-4.8-4.8c-2.7,0-4.8,2.2-4.8,4.8
		C385.9,279.9,388.1,282.1,390.8,282.1z"/>
	<path class="st2" d="M390.8,310.3c2.7,0,4.8-2.2,4.8-4.8c0-2.7-2.2-4.8-4.8-4.8c-2.7,0-4.8,2.2-4.8,4.8
		C385.9,308.1,388.1,310.3,390.8,310.3z"/>
	<path class="st2" d="M390.8,338.5c2.7,0,4.8-2.2,4.8-4.8c0-2.7-2.2-4.8-4.8-4.8c-2.7,0-4.8,2.2-4.8,4.8
		C385.9,336.3,388.1,338.5,390.8,338.5z"/>
	<path class="st2" d="M416.9,253.9c2.7,0,4.8-2.2,4.8-4.8c0-2.7-2.2-4.8-4.8-4.8s-4.8,2.2-4.8,4.8
		C412.1,251.7,414.2,253.9,416.9,253.9z"/>
	<path class="st2" d="M416.9,282.1c2.7,0,4.8-2.2,4.8-4.8c0-2.7-2.2-4.8-4.8-4.8s-4.8,2.2-4.8,4.8
		C412.1,279.9,414.2,282.1,416.9,282.1z"/>
	<path class="st2" d="M416.9,310.3c2.7,0,4.8-2.2,4.8-4.8c0-2.7-2.2-4.8-4.8-4.8s-4.8,2.2-4.8,4.8
		C412.1,308.1,414.2,310.3,416.9,310.3z"/>
	<path class="st2" d="M416.9,338.5c2.7,0,4.8-2.2,4.8-4.8c0-2.7-2.2-4.8-4.8-4.8s-4.8,2.2-4.8,4.8
		C412.1,336.3,414.2,338.5,416.9,338.5z"/>
	<path class="st2" d="M443,253.9c2.7,0,4.8-2.2,4.8-4.8c0-2.7-2.2-4.8-4.8-4.8c-2.7,0-4.8,2.2-4.8,4.8
		C438.2,251.7,440.4,253.9,443,253.9z"/>
	<path class="st2" d="M443,282.1c2.7,0,4.8-2.2,4.8-4.8c0-2.7-2.2-4.8-4.8-4.8c-2.7,0-4.8,2.2-4.8,4.8
		C438.2,279.9,440.4,282.1,443,282.1z"/>
	<path class="st2" d="M443,310.3c2.7,0,4.8-2.2,4.8-4.8c0-2.7-2.2-4.8-4.8-4.8c-2.7,0-4.8,2.2-4.8,4.8
		C438.2,308.1,440.4,310.3,443,310.3z"/>
	<path class="st2" d="M443,338.5c2.7,0,4.8-2.2,4.8-4.8c0-2.7-2.2-4.8-4.8-4.8c-2.7,0-4.8,2.2-4.8,4.8
		C438.2,336.3,440.4,338.5,443,338.5z"/>
	<path class="st2" d="M469.2,253.9c2.7,0,4.8-2.2,4.8-4.8c0-2.7-2.2-4.8-4.8-4.8c-2.7,0-4.8,2.2-4.8,4.8
		C464.4,251.7,466.5,253.9,469.2,253.9z"/>
	<path class="st2" d="M469.2,282.1c2.7,0,4.8-2.2,4.8-4.8c0-2.7-2.2-4.8-4.8-4.8c-2.7,0-4.8,2.2-4.8,4.8
		C464.4,279.9,466.5,282.1,469.2,282.1z"/>
	<path class="st2" d="M469.2,310.3c2.7,0,4.8-2.2,4.8-4.8c0-2.7-2.2-4.8-4.8-4.8c-2.7,0-4.8,2.2-4.8,4.8
		C464.4,308.1,466.5,310.3,469.2,310.3z"/>
	<path class="st2" d="M469.2,338.5c2.7,0,4.8-2.2,4.8-4.8c0-2.7-2.2-4.8-4.8-4.8c-2.7,0-4.8,2.2-4.8,4.8
		C464.4,336.3,466.5,338.5,469.2,338.5z"/>
	<path class="st2" d="M495.3,253.9c2.7,0,4.8-2.2,4.8-4.8c0-2.7-2.2-4.8-4.8-4.8c-2.7,0-4.8,2.2-4.8,4.8
		C490.5,251.7,492.7,253.9,495.3,253.9z"/>
	<path class="st2" d="M495.3,282.1c2.7,0,4.8-2.2,4.8-4.8c0-2.7-2.2-4.8-4.8-4.8c-2.7,0-4.8,2.2-4.8,4.8
		C490.5,279.9,492.7,282.1,495.3,282.1z"/>
	<path class="st2" d="M495.3,310.3c2.7,0,4.8-2.2,4.8-4.8c0-2.7-2.2-4.8-4.8-4.8c-2.7,0-4.8,2.2-4.8,4.8
		C490.5,308.1,492.7,310.3,495.3,310.3z"/>
	<path class="st2" d="M495.3,338.5c2.7,0,4.8-2.2,4.8-4.8c0-2.7-2.2-4.8-4.8-4.8c-2.7,0-4.8,2.2-4.8,4.8
		C490.5,336.3,492.7,338.5,495.3,338.5z"/>
	<path class="st2" d="M521.5,253.9c2.7,0,4.8-2.2,4.8-4.8c0-2.7-2.2-4.8-4.8-4.8c-2.7,0-4.8,2.2-4.8,4.8
		C516.7,251.7,518.8,253.9,521.5,253.9z"/>
	<path class="st2" d="M521.5,282.1c2.7,0,4.8-2.2,4.8-4.8c0-2.7-2.2-4.8-4.8-4.8c-2.7,0-4.8,2.2-4.8,4.8
		C516.7,279.9,518.8,282.1,521.5,282.1z"/>
	<path class="st2" d="M521.5,310.3c2.7,0,4.8-2.2,4.8-4.8c0-2.7-2.2-4.8-4.8-4.8c-2.7,0-4.8,2.2-4.8,4.8
		C516.7,308.1,518.8,310.3,521.5,310.3z"/>
	<path class="st2" d="M521.5,338.5c2.7,0,4.8-2.2,4.8-4.8c0-2.7-2.2-4.8-4.8-4.8c-2.7,0-4.8,2.2-4.8,4.8
		C516.7,336.3,518.8,338.5,521.5,338.5z"/>
	<path class="st2" d="M547.6,253.9c2.7,0,4.8-2.2,4.8-4.8c0-2.7-2.2-4.8-4.8-4.8c-2.7,0-4.8,2.2-4.8,4.8
		C542.8,251.7,544.9,253.9,547.6,253.9z"/>
	<path class="st2" d="M547.6,282.1c2.7,0,4.8-2.2,4.8-4.8c0-2.7-2.2-4.8-4.8-4.8c-2.7,0-4.8,2.2-4.8,4.8
		C542.8,279.9,544.9,282.1,547.6,282.1z"/>
	<path class="st2" d="M547.6,310.3c2.7,0,4.8-2.2,4.8-4.8c0-2.7-2.2-4.8-4.8-4.8c-2.7,0-4.8,2.2-4.8,4.8
		C542.8,308.1,544.9,310.3,547.6,310.3z"/>
	<path class="st2" d="M547.6,338.5c2.7,0,4.8-2.2,4.8-4.8c0-2.7-2.2-4.8-4.8-4.8c-2.7,0-4.8,2.2-4.8,4.8
		C542.8,336.3,544.9,338.5,547.6,338.5z"/>
	<path class="st2" d="M573.8,253.9c2.7,0,4.8-2.2,4.8-4.8c0-2.7-2.2-4.8-4.8-4.8c-2.7,0-4.8,2.2-4.8,4.8
		C568.9,251.7,571.1,253.9,573.8,253.9z"/>
	<path class="st2" d="M573.8,282.1c2.7,0,4.8-2.2,4.8-4.8c0-2.7-2.2-4.8-4.8-4.8c-2.7,0-4.8,2.2-4.8,4.8
		C568.9,279.9,571.1,282.1,573.8,282.1z"/>
	<path class="st2" d="M573.8,310.3c2.7,0,4.8-2.2,4.8-4.8c0-2.7-2.2-4.8-4.8-4.8c-2.7,0-4.8,2.2-4.8,4.8
		C568.9,308.1,571.1,310.3,573.8,310.3z"/>
	<path class="st2" d="M573.8,338.5c2.7,0,4.8-2.2,4.8-4.8c0-2.7-2.2-4.8-4.8-4.8c-2.7,0-4.8,2.2-4.8,4.8
		C568.9,336.3,571.1,338.5,573.8,338.5z"/>
	<path class="st2" d="M599.9,253.9c2.7,0,4.8-2.2,4.8-4.8c0-2.7-2.2-4.8-4.8-4.8c-2.7,0-4.8,2.2-4.8,4.8
		C595.1,251.7,597.2,253.9,599.9,253.9z"/>
	<path class="st2" d="M599.9,282.1c2.7,0,4.8-2.2,4.8-4.8c0-2.7-2.2-4.8-4.8-4.8c-2.7,0-4.8,2.2-4.8,4.8
		C595.1,279.9,597.2,282.1,599.9,282.1z"/>
	<path class="st2" d="M599.9,310.3c2.7,0,4.8-2.2,4.8-4.8c0-2.7-2.2-4.8-4.8-4.8c-2.7,0-4.8,2.2-4.8,4.8
		C595.1,308.1,597.2,310.3,599.9,310.3z"/>
	<path class="st2" d="M599.9,338.5c2.7,0,4.8-2.2,4.8-4.8c0-2.7-2.2-4.8-4.8-4.8c-2.7,0-4.8,2.2-4.8,4.8
		C595.1,336.3,597.2,338.5,599.9,338.5z"/>
	<path class="st2" d="M626,253.9c2.7,0,4.8-2.2,4.8-4.8c0-2.7-2.2-4.8-4.8-4.8c-2.7,0-4.8,2.2-4.8,4.8
		C621.2,251.7,623.4,253.9,626,253.9z"/>
	<path class="st2" d="M626,282.1c2.7,0,4.8-2.2,4.8-4.8c0-2.7-2.2-4.8-4.8-4.8c-2.7,0-4.8,2.2-4.8,4.8
		C621.2,279.9,623.4,282.1,626,282.1z"/>
	<path class="st2" d="M626,310.3c2.7,0,4.8-2.2,4.8-4.8c0-2.7-2.2-4.8-4.8-4.8c-2.7,0-4.8,2.2-4.8,4.8
		C621.2,308.1,623.4,310.3,626,310.3z"/>
	<path class="st2" d="M626,338.5c2.7,0,4.8-2.2,4.8-4.8c0-2.7-2.2-4.8-4.8-4.8c-2.7,0-4.8,2.2-4.8,4.8
		C621.2,336.3,623.4,338.5,626,338.5z"/>
	<path class="st2" d="M652.2,253.9c2.7,0,4.8-2.2,4.8-4.8c0-2.7-2.2-4.8-4.8-4.8c-2.7,0-4.8,2.2-4.8,4.8
		C647.4,251.7,649.5,253.9,652.2,253.9z"/>
	<path class="st2" d="M652.2,282.1c2.7,0,4.8-2.2,4.8-4.8c0-2.7-2.2-4.8-4.8-4.8c-2.7,0-4.8,2.2-4.8,4.8
		C647.4,279.9,649.5,282.1,652.2,282.1z"/>
	<path class="st2" d="M652.2,310.3c2.7,0,4.8-2.2,4.8-4.8c0-2.7-2.2-4.8-4.8-4.8c-2.7,0-4.8,2.2-4.8,4.8
		C647.4,308.1,649.5,310.3,652.2,310.3z"/>
	<path class="st2" d="M652.2,338.5c2.7,0,4.8-2.2,4.8-4.8c0-2.7-2.2-4.8-4.8-4.8c-2.7,0-4.8,2.2-4.8,4.8
		C647.4,336.3,649.5,338.5,652.2,338.5z"/>
	<path class="st2" d="M-158.2,366.7c2.7,0,4.8-2.2,4.8-4.8c0-2.7-2.2-4.8-4.8-4.8c-2.7,0-4.8,2.2-4.8,4.8
		C-163,364.5-160.8,366.7-158.2,366.7z"/>
	<path class="st2" d="M-158.2,394.9c2.7,0,4.8-2.2,4.8-4.8s-2.2-4.8-4.8-4.8c-2.7,0-4.8,2.2-4.8,4.8S-160.8,394.9-158.2,394.9z"/>
	<path class="st2" d="M-158.2,423.1c2.7,0,4.8-2.2,4.8-4.8c0-2.7-2.2-4.8-4.8-4.8c-2.7,0-4.8,2.2-4.8,4.8
		C-163,420.9-160.8,423.1-158.2,423.1z"/>
	<path class="st2" d="M-158.2,451.3c2.7,0,4.8-2.2,4.8-4.8c0-2.7-2.2-4.8-4.8-4.8c-2.7,0-4.8,2.2-4.8,4.8
		C-163,449.2-160.8,451.3-158.2,451.3z"/>
	<path class="st2" d="M-132,366.7c2.7,0,4.8-2.2,4.8-4.8c0-2.7-2.2-4.8-4.8-4.8s-4.8,2.2-4.8,4.8
		C-136.9,364.5-134.7,366.7-132,366.7z"/>
	<path class="st2" d="M-132,394.9c2.7,0,4.8-2.2,4.8-4.8s-2.2-4.8-4.8-4.8s-4.8,2.2-4.8,4.8S-134.7,394.9-132,394.9z"/>
	<path class="st2" d="M-132,423.1c2.7,0,4.8-2.2,4.8-4.8c0-2.7-2.2-4.8-4.8-4.8s-4.8,2.2-4.8,4.8
		C-136.9,420.9-134.7,423.1-132,423.1z"/>
	<path class="st2" d="M-132,451.3c2.7,0,4.8-2.2,4.8-4.8c0-2.7-2.2-4.8-4.8-4.8s-4.8,2.2-4.8,4.8
		C-136.9,449.2-134.7,451.3-132,451.3z"/>
	<path class="st2" d="M-105.9,366.7c2.7,0,4.8-2.2,4.8-4.8c0-2.7-2.2-4.8-4.8-4.8s-4.8,2.2-4.8,4.8
		C-110.7,364.5-108.6,366.7-105.9,366.7z"/>
	<path class="st2" d="M-105.9,394.9c2.7,0,4.8-2.2,4.8-4.8s-2.2-4.8-4.8-4.8s-4.8,2.2-4.8,4.8S-108.6,394.9-105.9,394.9z"/>
	<path class="st2" d="M-105.9,423.1c2.7,0,4.8-2.2,4.8-4.8c0-2.7-2.2-4.8-4.8-4.8s-4.8,2.2-4.8,4.8
		C-110.7,420.9-108.6,423.1-105.9,423.1z"/>
	<path class="st2" d="M-105.9,451.3c2.7,0,4.8-2.2,4.8-4.8c0-2.7-2.2-4.8-4.8-4.8s-4.8,2.2-4.8,4.8
		C-110.7,449.2-108.6,451.3-105.9,451.3z"/>
	<path class="st2" d="M-79.8,366.7c2.7,0,4.8-2.2,4.8-4.8c0-2.7-2.2-4.8-4.8-4.8c-2.7,0-4.8,2.2-4.8,4.8
		C-84.6,364.5-82.4,366.7-79.8,366.7z"/>
	<path class="st2" d="M-79.8,394.9c2.7,0,4.8-2.2,4.8-4.8s-2.2-4.8-4.8-4.8c-2.7,0-4.8,2.2-4.8,4.8S-82.4,394.9-79.8,394.9z"/>
	<path class="st2" d="M-79.8,423.1c2.7,0,4.8-2.2,4.8-4.8c0-2.7-2.2-4.8-4.8-4.8c-2.7,0-4.8,2.2-4.8,4.8
		C-84.6,420.9-82.4,423.1-79.8,423.1z"/>
	<path class="st2" d="M-79.8,451.3c2.7,0,4.8-2.2,4.8-4.8c0-2.7-2.2-4.8-4.8-4.8c-2.7,0-4.8,2.2-4.8,4.8
		C-84.6,449.2-82.4,451.3-79.8,451.3z"/>
	<path class="st2" d="M-53.6,366.7c2.7,0,4.8-2.2,4.8-4.8c0-2.7-2.2-4.8-4.8-4.8c-2.7,0-4.8,2.2-4.8,4.8
		C-58.4,364.5-56.3,366.7-53.6,366.7z"/>
	<path class="st2" d="M-53.6,394.9c2.7,0,4.8-2.2,4.8-4.8s-2.2-4.8-4.8-4.8c-2.7,0-4.8,2.2-4.8,4.8S-56.3,394.9-53.6,394.9z"/>
	<path class="st2" d="M-53.6,423.1c2.7,0,4.8-2.2,4.8-4.8c0-2.7-2.2-4.8-4.8-4.8c-2.7,0-4.8,2.2-4.8,4.8
		C-58.4,420.9-56.3,423.1-53.6,423.1z"/>
	<path class="st2" d="M-53.6,451.3c2.7,0,4.8-2.2,4.8-4.8c0-2.7-2.2-4.8-4.8-4.8c-2.7,0-4.8,2.2-4.8,4.8
		C-58.4,449.2-56.3,451.3-53.6,451.3z"/>
	<path class="st2" d="M-27.5,366.7c2.7,0,4.8-2.2,4.8-4.8c0-2.7-2.2-4.8-4.8-4.8c-2.7,0-4.8,2.2-4.8,4.8
		C-32.3,364.5-30.1,366.7-27.5,366.7z"/>
	<path class="st2" d="M-27.5,394.9c2.7,0,4.8-2.2,4.8-4.8s-2.2-4.8-4.8-4.8c-2.7,0-4.8,2.2-4.8,4.8S-30.1,394.9-27.5,394.9z"/>
	<path class="st2" d="M-27.5,423.1c2.7,0,4.8-2.2,4.8-4.8c0-2.7-2.2-4.8-4.8-4.8c-2.7,0-4.8,2.2-4.8,4.8
		C-32.3,420.9-30.1,423.1-27.5,423.1z"/>
	<path class="st2" d="M-27.5,451.3c2.7,0,4.8-2.2,4.8-4.8c0-2.7-2.2-4.8-4.8-4.8c-2.7,0-4.8,2.2-4.8,4.8
		C-32.3,449.2-30.1,451.3-27.5,451.3z"/>
	<path class="st2" d="M-1.3,366.7c2.7,0,4.8-2.2,4.8-4.8c0-2.7-2.2-4.8-4.8-4.8c-2.7,0-4.8,2.2-4.8,4.8
		C-6.2,364.5-4,366.7-1.3,366.7z"/>
	<path class="st2" d="M-1.3,394.9c2.7,0,4.8-2.2,4.8-4.8s-2.2-4.8-4.8-4.8c-2.7,0-4.8,2.2-4.8,4.8S-4,394.9-1.3,394.9z"/>
	<path class="st2" d="M-1.3,423.1c2.7,0,4.8-2.2,4.8-4.8c0-2.7-2.2-4.8-4.8-4.8c-2.7,0-4.8,2.2-4.8,4.8
		C-6.2,420.9-4,423.1-1.3,423.1z"/>
	<path class="st2" d="M-1.3,451.3c2.7,0,4.8-2.2,4.8-4.8c0-2.7-2.2-4.8-4.8-4.8c-2.7,0-4.8,2.2-4.8,4.8
		C-6.2,449.2-4,451.3-1.3,451.3z"/>
	<path class="st2" d="M24.8,366.7c2.7,0,4.8-2.2,4.8-4.8c0-2.7-2.2-4.8-4.8-4.8c-2.7,0-4.8,2.2-4.8,4.8
		C20,364.5,22.1,366.7,24.8,366.7z"/>
	<path class="st2" d="M24.8,394.9c2.7,0,4.8-2.2,4.8-4.8s-2.2-4.8-4.8-4.8c-2.7,0-4.8,2.2-4.8,4.8S22.1,394.9,24.8,394.9z"/>
	<path class="st2" d="M24.8,423.1c2.7,0,4.8-2.2,4.8-4.8c0-2.7-2.2-4.8-4.8-4.8c-2.7,0-4.8,2.2-4.8,4.8
		C20,420.9,22.1,423.1,24.8,423.1z"/>
	<path class="st2" d="M24.8,451.3c2.7,0,4.8-2.2,4.8-4.8c0-2.7-2.2-4.8-4.8-4.8c-2.7,0-4.8,2.2-4.8,4.8
		C20,449.2,22.1,451.3,24.8,451.3z"/>
	<path class="st2" d="M50.9,366.7c2.7,0,4.8-2.2,4.8-4.8c0-2.7-2.2-4.8-4.8-4.8c-2.7,0-4.8,2.2-4.8,4.8
		C46.1,364.5,48.3,366.7,50.9,366.7z"/>
	<path class="st2" d="M50.9,394.9c2.7,0,4.8-2.2,4.8-4.8s-2.2-4.8-4.8-4.8c-2.7,0-4.8,2.2-4.8,4.8S48.3,394.9,50.9,394.9z"/>
	<path class="st2" d="M50.9,423.1c2.7,0,4.8-2.2,4.8-4.8c0-2.7-2.2-4.8-4.8-4.8c-2.7,0-4.8,2.2-4.8,4.8
		C46.1,420.9,48.3,423.1,50.9,423.1z"/>
	<path class="st2" d="M50.9,451.3c2.7,0,4.8-2.2,4.8-4.8c0-2.7-2.2-4.8-4.8-4.8c-2.7,0-4.8,2.2-4.8,4.8
		C46.1,449.2,48.3,451.3,50.9,451.3z"/>
	<path class="st2" d="M77.1,366.7c2.7,0,4.8-2.2,4.8-4.8c0-2.7-2.2-4.8-4.8-4.8c-2.7,0-4.8,2.2-4.8,4.8
		C72.3,364.5,74.4,366.7,77.1,366.7z"/>
	<path class="st2" d="M77.1,394.9c2.7,0,4.8-2.2,4.8-4.8s-2.2-4.8-4.8-4.8c-2.7,0-4.8,2.2-4.8,4.8S74.4,394.9,77.1,394.9z"/>
	<path class="st2" d="M77.1,423.1c2.7,0,4.8-2.2,4.8-4.8c0-2.7-2.2-4.8-4.8-4.8c-2.7,0-4.8,2.2-4.8,4.8
		C72.3,420.9,74.4,423.1,77.1,423.1z"/>
	<path class="st2" d="M77.1,451.3c2.7,0,4.8-2.2,4.8-4.8c0-2.7-2.2-4.8-4.8-4.8c-2.7,0-4.8,2.2-4.8,4.8
		C72.3,449.2,74.4,451.3,77.1,451.3z"/>
	<path class="st2" d="M103.2,366.7c2.7,0,4.8-2.2,4.8-4.8c0-2.7-2.2-4.8-4.8-4.8s-4.8,2.2-4.8,4.8
		C98.4,364.5,100.6,366.7,103.2,366.7z"/>
	<path class="st2" d="M103.2,394.9c2.7,0,4.8-2.2,4.8-4.8s-2.2-4.8-4.8-4.8s-4.8,2.2-4.8,4.8S100.6,394.9,103.2,394.9z"/>
	<path class="st2" d="M103.2,423.1c2.7,0,4.8-2.2,4.8-4.8c0-2.7-2.2-4.8-4.8-4.8s-4.8,2.2-4.8,4.8
		C98.4,420.9,100.6,423.1,103.2,423.1z"/>
	<path class="st2" d="M103.2,451.3c2.7,0,4.8-2.2,4.8-4.8c0-2.7-2.2-4.8-4.8-4.8s-4.8,2.2-4.8,4.8
		C98.4,449.2,100.6,451.3,103.2,451.3z"/>
	<path class="st2" d="M129.4,366.7c2.7,0,4.8-2.2,4.8-4.8c0-2.7-2.2-4.8-4.8-4.8c-2.7,0-4.8,2.2-4.8,4.8
		C124.5,364.5,126.7,366.7,129.4,366.7z"/>
	<path class="st2" d="M129.4,394.9c2.7,0,4.8-2.2,4.8-4.8s-2.2-4.8-4.8-4.8c-2.7,0-4.8,2.2-4.8,4.8S126.7,394.9,129.4,394.9z"/>
	<path class="st2" d="M129.4,423.1c2.7,0,4.8-2.2,4.8-4.8c0-2.7-2.2-4.8-4.8-4.8c-2.7,0-4.8,2.2-4.8,4.8
		C124.5,420.9,126.7,423.1,129.4,423.1z"/>
	<path class="st2" d="M129.4,451.3c2.7,0,4.8-2.2,4.8-4.8c0-2.7-2.2-4.8-4.8-4.8c-2.7,0-4.8,2.2-4.8,4.8
		C124.5,449.2,126.7,451.3,129.4,451.3z"/>
	<path class="st2" d="M155.5,366.7c2.7,0,4.8-2.2,4.8-4.8c0-2.7-2.2-4.8-4.8-4.8c-2.7,0-4.8,2.2-4.8,4.8
		C150.7,364.5,152.8,366.7,155.5,366.7z"/>
	<path class="st2" d="M155.5,394.9c2.7,0,4.8-2.2,4.8-4.8s-2.2-4.8-4.8-4.8c-2.7,0-4.8,2.2-4.8,4.8S152.8,394.9,155.5,394.9z"/>
	<path class="st2" d="M155.5,423.1c2.7,0,4.8-2.2,4.8-4.8c0-2.7-2.2-4.8-4.8-4.8c-2.7,0-4.8,2.2-4.8,4.8
		C150.7,420.9,152.8,423.1,155.5,423.1z"/>
	<path class="st2" d="M155.5,451.3c2.7,0,4.8-2.2,4.8-4.8c0-2.7-2.2-4.8-4.8-4.8c-2.7,0-4.8,2.2-4.8,4.8
		C150.7,449.2,152.8,451.3,155.5,451.3z"/>
	<path class="st2" d="M181.6,366.7c2.7,0,4.8-2.2,4.8-4.8c0-2.7-2.2-4.8-4.8-4.8c-2.7,0-4.8,2.2-4.8,4.8
		C176.8,364.5,179,366.7,181.6,366.7z"/>
	<path class="st2" d="M181.6,394.9c2.7,0,4.8-2.2,4.8-4.8s-2.2-4.8-4.8-4.8c-2.7,0-4.8,2.2-4.8,4.8S179,394.9,181.6,394.9z"/>
	<path class="st2" d="M181.6,423.1c2.7,0,4.8-2.2,4.8-4.8c0-2.7-2.2-4.8-4.8-4.8c-2.7,0-4.8,2.2-4.8,4.8
		C176.8,420.9,179,423.1,181.6,423.1z"/>
	<path class="st2" d="M181.6,451.3c2.7,0,4.8-2.2,4.8-4.8c0-2.7-2.2-4.8-4.8-4.8c-2.7,0-4.8,2.2-4.8,4.8
		C176.8,449.2,179,451.3,181.6,451.3z"/>
	<path class="st2" d="M207.8,366.7c2.7,0,4.8-2.2,4.8-4.8c0-2.7-2.2-4.8-4.8-4.8c-2.7,0-4.8,2.2-4.8,4.8
		C203,364.5,205.1,366.7,207.8,366.7z"/>
	<path class="st2" d="M207.8,394.9c2.7,0,4.8-2.2,4.8-4.8s-2.2-4.8-4.8-4.8c-2.7,0-4.8,2.2-4.8,4.8S205.1,394.9,207.8,394.9z"/>
	<path class="st2" d="M207.8,423.1c2.7,0,4.8-2.2,4.8-4.8c0-2.7-2.2-4.8-4.8-4.8c-2.7,0-4.8,2.2-4.8,4.8
		C203,420.9,205.1,423.1,207.8,423.1z"/>
	<path class="st2" d="M207.8,451.3c2.7,0,4.8-2.2,4.8-4.8c0-2.7-2.2-4.8-4.8-4.8c-2.7,0-4.8,2.2-4.8,4.8
		C203,449.2,205.1,451.3,207.8,451.3z"/>
	<path class="st2" d="M233.9,366.7c2.7,0,4.8-2.2,4.8-4.8c0-2.7-2.2-4.8-4.8-4.8c-2.7,0-4.8,2.2-4.8,4.8
		C229.1,364.5,231.3,366.7,233.9,366.7z"/>
	<path class="st2" d="M233.9,394.9c2.7,0,4.8-2.2,4.8-4.8s-2.2-4.8-4.8-4.8c-2.7,0-4.8,2.2-4.8,4.8S231.3,394.9,233.9,394.9z"/>
	<path class="st2" d="M233.9,423.1c2.7,0,4.8-2.2,4.8-4.8c0-2.7-2.2-4.8-4.8-4.8c-2.7,0-4.8,2.2-4.8,4.8
		C229.1,420.9,231.3,423.1,233.9,423.1z"/>
	<path class="st2" d="M233.9,451.3c2.7,0,4.8-2.2,4.8-4.8c0-2.7-2.2-4.8-4.8-4.8c-2.7,0-4.8,2.2-4.8,4.8
		C229.1,449.2,231.3,451.3,233.9,451.3z"/>
	<path class="st2" d="M260.1,366.7c2.7,0,4.8-2.2,4.8-4.8c0-2.7-2.2-4.8-4.8-4.8s-4.8,2.2-4.8,4.8
		C255.2,364.5,257.4,366.7,260.1,366.7z"/>
	<path class="st2" d="M260.1,394.9c2.7,0,4.8-2.2,4.8-4.8s-2.2-4.8-4.8-4.8s-4.8,2.2-4.8,4.8S257.4,394.9,260.1,394.9z"/>
	<path class="st2" d="M260.1,423.1c2.7,0,4.8-2.2,4.8-4.8c0-2.7-2.2-4.8-4.8-4.8s-4.8,2.2-4.8,4.8
		C255.2,420.9,257.4,423.1,260.1,423.1z"/>
	<path class="st2" d="M260.1,451.3c2.7,0,4.8-2.2,4.8-4.8c0-2.7-2.2-4.8-4.8-4.8s-4.8,2.2-4.8,4.8
		C255.2,449.2,257.4,451.3,260.1,451.3z"/>
	<path class="st2" d="M286.2,366.7c2.7,0,4.8-2.2,4.8-4.8c0-2.7-2.2-4.8-4.8-4.8s-4.8,2.2-4.8,4.8
		C281.4,364.5,283.5,366.7,286.2,366.7z"/>
	<path class="st2" d="M286.2,394.9c2.7,0,4.8-2.2,4.8-4.8s-2.2-4.8-4.8-4.8s-4.8,2.2-4.8,4.8S283.5,394.9,286.2,394.9z"/>
	<path class="st2" d="M286.2,423.1c2.7,0,4.8-2.2,4.8-4.8c0-2.7-2.2-4.8-4.8-4.8s-4.8,2.2-4.8,4.8
		C281.4,420.9,283.5,423.1,286.2,423.1z"/>
	<path class="st2" d="M286.2,451.3c2.7,0,4.8-2.2,4.8-4.8c0-2.7-2.2-4.8-4.8-4.8s-4.8,2.2-4.8,4.8
		C281.4,449.2,283.5,451.3,286.2,451.3z"/>
	<path class="st2" d="M312.3,366.7c2.7,0,4.8-2.2,4.8-4.8c0-2.7-2.2-4.8-4.8-4.8c-2.7,0-4.8,2.2-4.8,4.8
		C307.5,364.5,309.7,366.7,312.3,366.7z"/>
	<path class="st2" d="M312.3,394.9c2.7,0,4.8-2.2,4.8-4.8s-2.2-4.8-4.8-4.8c-2.7,0-4.8,2.2-4.8,4.8S309.7,394.9,312.3,394.9z"/>
	<path class="st2" d="M312.3,423.1c2.7,0,4.8-2.2,4.8-4.8c0-2.7-2.2-4.8-4.8-4.8c-2.7,0-4.8,2.2-4.8,4.8
		C307.5,420.9,309.7,423.1,312.3,423.1z"/>
	<path class="st2" d="M312.3,451.3c2.7,0,4.8-2.2,4.8-4.8c0-2.7-2.2-4.8-4.8-4.8c-2.7,0-4.8,2.2-4.8,4.8
		C307.5,449.2,309.7,451.3,312.3,451.3z"/>
	<path class="st2" d="M338.5,366.7c2.7,0,4.8-2.2,4.8-4.8c0-2.7-2.2-4.8-4.8-4.8s-4.8,2.2-4.8,4.8
		C333.7,364.5,335.8,366.7,338.5,366.7z"/>
	<path class="st2" d="M338.5,394.9c2.7,0,4.8-2.2,4.8-4.8s-2.2-4.8-4.8-4.8s-4.8,2.2-4.8,4.8S335.8,394.9,338.5,394.9z"/>
	<path class="st2" d="M338.5,423.1c2.7,0,4.8-2.2,4.8-4.8c0-2.7-2.2-4.8-4.8-4.8s-4.8,2.2-4.8,4.8
		C333.7,420.9,335.8,423.1,338.5,423.1z"/>
	<path class="st2" d="M338.5,451.3c2.7,0,4.8-2.2,4.8-4.8c0-2.7-2.2-4.8-4.8-4.8s-4.8,2.2-4.8,4.8
		C333.7,449.2,335.8,451.3,338.5,451.3z"/>
	<path class="st2" d="M364.6,366.7c2.7,0,4.8-2.2,4.8-4.8c0-2.7-2.2-4.8-4.8-4.8c-2.7,0-4.8,2.2-4.8,4.8
		C359.8,364.5,362,366.7,364.6,366.7z"/>
	<path class="st2" d="M364.6,394.9c2.7,0,4.8-2.2,4.8-4.8s-2.2-4.8-4.8-4.8c-2.7,0-4.8,2.2-4.8,4.8S362,394.9,364.6,394.9z"/>
	<path class="st2" d="M364.6,423.1c2.7,0,4.8-2.2,4.8-4.8c0-2.7-2.2-4.8-4.8-4.8c-2.7,0-4.8,2.2-4.8,4.8
		C359.8,420.9,362,423.1,364.6,423.1z"/>
	<path class="st2" d="M364.6,451.3c2.7,0,4.8-2.2,4.8-4.8c0-2.7-2.2-4.8-4.8-4.8c-2.7,0-4.8,2.2-4.8,4.8
		C359.8,449.2,362,451.3,364.6,451.3z"/>
	<path class="st2" d="M390.8,366.7c2.7,0,4.8-2.2,4.8-4.8c0-2.7-2.2-4.8-4.8-4.8c-2.7,0-4.8,2.2-4.8,4.8
		C385.9,364.5,388.1,366.7,390.8,366.7z"/>
	<path class="st2" d="M390.8,394.9c2.7,0,4.8-2.2,4.8-4.8s-2.2-4.8-4.8-4.8c-2.7,0-4.8,2.2-4.8,4.8S388.1,394.9,390.8,394.9z"/>
	<path class="st2" d="M390.8,423.1c2.7,0,4.8-2.2,4.8-4.8c0-2.7-2.2-4.8-4.8-4.8c-2.7,0-4.8,2.2-4.8,4.8
		C385.9,420.9,388.1,423.1,390.8,423.1z"/>
	<path class="st2" d="M390.8,451.3c2.7,0,4.8-2.2,4.8-4.8c0-2.7-2.2-4.8-4.8-4.8c-2.7,0-4.8,2.2-4.8,4.8
		C385.9,449.2,388.1,451.3,390.8,451.3z"/>
	<path class="st2" d="M416.9,366.7c2.7,0,4.8-2.2,4.8-4.8c0-2.7-2.2-4.8-4.8-4.8s-4.8,2.2-4.8,4.8
		C412.1,364.5,414.2,366.7,416.9,366.7z"/>
	<path class="st2" d="M416.9,394.9c2.7,0,4.8-2.2,4.8-4.8s-2.2-4.8-4.8-4.8s-4.8,2.2-4.8,4.8S414.2,394.9,416.9,394.9z"/>
	<path class="st2" d="M416.9,423.1c2.7,0,4.8-2.2,4.8-4.8c0-2.7-2.2-4.8-4.8-4.8s-4.8,2.2-4.8,4.8
		C412.1,420.9,414.2,423.1,416.9,423.1z"/>
	<path class="st2" d="M416.9,451.3c2.7,0,4.8-2.2,4.8-4.8c0-2.7-2.2-4.8-4.8-4.8s-4.8,2.2-4.8,4.8
		C412.1,449.2,414.2,451.3,416.9,451.3z"/>
	<path class="st2" d="M443,366.7c2.7,0,4.8-2.2,4.8-4.8c0-2.7-2.2-4.8-4.8-4.8c-2.7,0-4.8,2.2-4.8,4.8
		C438.2,364.5,440.4,366.7,443,366.7z"/>
	<path class="st2" d="M443,394.9c2.7,0,4.8-2.2,4.8-4.8s-2.2-4.8-4.8-4.8c-2.7,0-4.8,2.2-4.8,4.8S440.4,394.9,443,394.9z"/>
	<path class="st2" d="M443,423.1c2.7,0,4.8-2.2,4.8-4.8c0-2.7-2.2-4.8-4.8-4.8c-2.7,0-4.8,2.2-4.8,4.8
		C438.2,420.9,440.4,423.1,443,423.1z"/>
	<path class="st2" d="M443,451.3c2.7,0,4.8-2.2,4.8-4.8c0-2.7-2.2-4.8-4.8-4.8c-2.7,0-4.8,2.2-4.8,4.8
		C438.2,449.2,440.4,451.3,443,451.3z"/>
	<path class="st2" d="M469.2,366.7c2.7,0,4.8-2.2,4.8-4.8c0-2.7-2.2-4.8-4.8-4.8c-2.7,0-4.8,2.2-4.8,4.8
		C464.4,364.5,466.5,366.7,469.2,366.7z"/>
	<path class="st2" d="M469.2,394.9c2.7,0,4.8-2.2,4.8-4.8s-2.2-4.8-4.8-4.8c-2.7,0-4.8,2.2-4.8,4.8S466.5,394.9,469.2,394.9z"/>
	<path class="st2" d="M469.2,423.1c2.7,0,4.8-2.2,4.8-4.8c0-2.7-2.2-4.8-4.8-4.8c-2.7,0-4.8,2.2-4.8,4.8
		C464.4,420.9,466.5,423.1,469.2,423.1z"/>
	<path class="st2" d="M469.2,451.3c2.7,0,4.8-2.2,4.8-4.8c0-2.7-2.2-4.8-4.8-4.8c-2.7,0-4.8,2.2-4.8,4.8
		C464.4,449.2,466.5,451.3,469.2,451.3z"/>
	<path class="st2" d="M495.3,366.7c2.7,0,4.8-2.2,4.8-4.8c0-2.7-2.2-4.8-4.8-4.8c-2.7,0-4.8,2.2-4.8,4.8
		C490.5,364.5,492.7,366.7,495.3,366.7z"/>
	<path class="st2" d="M495.3,394.9c2.7,0,4.8-2.2,4.8-4.8s-2.2-4.8-4.8-4.8c-2.7,0-4.8,2.2-4.8,4.8S492.7,394.9,495.3,394.9z"/>
	<path class="st2" d="M495.3,423.1c2.7,0,4.8-2.2,4.8-4.8c0-2.7-2.2-4.8-4.8-4.8c-2.7,0-4.8,2.2-4.8,4.8
		C490.5,420.9,492.7,423.1,495.3,423.1z"/>
	<path class="st2" d="M495.3,451.3c2.7,0,4.8-2.2,4.8-4.8c0-2.7-2.2-4.8-4.8-4.8c-2.7,0-4.8,2.2-4.8,4.8
		C490.5,449.2,492.7,451.3,495.3,451.3z"/>
	<path class="st2" d="M521.5,366.7c2.7,0,4.8-2.2,4.8-4.8c0-2.7-2.2-4.8-4.8-4.8c-2.7,0-4.8,2.2-4.8,4.8
		C516.7,364.5,518.8,366.7,521.5,366.7z"/>
	<path class="st2" d="M521.5,394.9c2.7,0,4.8-2.2,4.8-4.8s-2.2-4.8-4.8-4.8c-2.7,0-4.8,2.2-4.8,4.8S518.8,394.9,521.5,394.9z"/>
	<path class="st2" d="M521.5,423.1c2.7,0,4.8-2.2,4.8-4.8c0-2.7-2.2-4.8-4.8-4.8c-2.7,0-4.8,2.2-4.8,4.8
		C516.7,420.9,518.8,423.1,521.5,423.1z"/>
	<path class="st2" d="M521.5,451.3c2.7,0,4.8-2.2,4.8-4.8c0-2.7-2.2-4.8-4.8-4.8c-2.7,0-4.8,2.2-4.8,4.8
		C516.7,449.2,518.8,451.3,521.5,451.3z"/>
	<path class="st2" d="M547.6,366.7c2.7,0,4.8-2.2,4.8-4.8c0-2.7-2.2-4.8-4.8-4.8c-2.7,0-4.8,2.2-4.8,4.8
		C542.8,364.5,544.9,366.7,547.6,366.7z"/>
	<path class="st2" d="M547.6,394.9c2.7,0,4.8-2.2,4.8-4.8s-2.2-4.8-4.8-4.8c-2.7,0-4.8,2.2-4.8,4.8S544.9,394.9,547.6,394.9z"/>
	<path class="st2" d="M547.6,423.1c2.7,0,4.8-2.2,4.8-4.8c0-2.7-2.2-4.8-4.8-4.8c-2.7,0-4.8,2.2-4.8,4.8
		C542.8,420.9,544.9,423.1,547.6,423.1z"/>
	<path class="st2" d="M547.6,451.3c2.7,0,4.8-2.2,4.8-4.8c0-2.7-2.2-4.8-4.8-4.8c-2.7,0-4.8,2.2-4.8,4.8
		C542.8,449.2,544.9,451.3,547.6,451.3z"/>
	<path class="st2" d="M573.8,366.7c2.7,0,4.8-2.2,4.8-4.8c0-2.7-2.2-4.8-4.8-4.8c-2.7,0-4.8,2.2-4.8,4.8
		C568.9,364.5,571.1,366.7,573.8,366.7z"/>
	<path class="st2" d="M573.8,394.9c2.7,0,4.8-2.2,4.8-4.8s-2.2-4.8-4.8-4.8c-2.7,0-4.8,2.2-4.8,4.8S571.1,394.9,573.8,394.9z"/>
	<path class="st2" d="M573.8,423.1c2.7,0,4.8-2.2,4.8-4.8c0-2.7-2.2-4.8-4.8-4.8c-2.7,0-4.8,2.2-4.8,4.8
		C568.9,420.9,571.1,423.1,573.8,423.1z"/>
	<path class="st2" d="M573.8,451.3c2.7,0,4.8-2.2,4.8-4.8c0-2.7-2.2-4.8-4.8-4.8c-2.7,0-4.8,2.2-4.8,4.8
		C568.9,449.2,571.1,451.3,573.8,451.3z"/>
	<path class="st2" d="M599.9,366.7c2.7,0,4.8-2.2,4.8-4.8c0-2.7-2.2-4.8-4.8-4.8c-2.7,0-4.8,2.2-4.8,4.8
		C595.1,364.5,597.2,366.7,599.9,366.7z"/>
	<path class="st2" d="M599.9,394.9c2.7,0,4.8-2.2,4.8-4.8s-2.2-4.8-4.8-4.8c-2.7,0-4.8,2.2-4.8,4.8S597.2,394.9,599.9,394.9z"/>
	<path class="st2" d="M599.9,423.1c2.7,0,4.8-2.2,4.8-4.8c0-2.7-2.2-4.8-4.8-4.8c-2.7,0-4.8,2.2-4.8,4.8
		C595.1,420.9,597.2,423.1,599.9,423.1z"/>
	<path class="st2" d="M599.9,451.3c2.7,0,4.8-2.2,4.8-4.8c0-2.7-2.2-4.8-4.8-4.8c-2.7,0-4.8,2.2-4.8,4.8
		C595.1,449.2,597.2,451.3,599.9,451.3z"/>
	<path class="st2" d="M626,366.7c2.7,0,4.8-2.2,4.8-4.8c0-2.7-2.2-4.8-4.8-4.8c-2.7,0-4.8,2.2-4.8,4.8
		C621.2,364.5,623.4,366.7,626,366.7z"/>
	<path class="st2" d="M626,394.9c2.7,0,4.8-2.2,4.8-4.8s-2.2-4.8-4.8-4.8c-2.7,0-4.8,2.2-4.8,4.8S623.4,394.9,626,394.9z"/>
	<path class="st2" d="M626,423.1c2.7,0,4.8-2.2,4.8-4.8c0-2.7-2.2-4.8-4.8-4.8c-2.7,0-4.8,2.2-4.8,4.8
		C621.2,420.9,623.4,423.1,626,423.1z"/>
	<path class="st2" d="M626,451.3c2.7,0,4.8-2.2,4.8-4.8c0-2.7-2.2-4.8-4.8-4.8c-2.7,0-4.8,2.2-4.8,4.8
		C621.2,449.2,623.4,451.3,626,451.3z"/>
	<path class="st2" d="M652.2,366.7c2.7,0,4.8-2.2,4.8-4.8c0-2.7-2.2-4.8-4.8-4.8c-2.7,0-4.8,2.2-4.8,4.8
		C647.4,364.5,649.5,366.7,652.2,366.7z"/>
	<path class="st2" d="M652.2,394.9c2.7,0,4.8-2.2,4.8-4.8s-2.2-4.8-4.8-4.8c-2.7,0-4.8,2.2-4.8,4.8S649.5,394.9,652.2,394.9z"/>
	<path class="st2" d="M652.2,423.1c2.7,0,4.8-2.2,4.8-4.8c0-2.7-2.2-4.8-4.8-4.8c-2.7,0-4.8,2.2-4.8,4.8
		C647.4,420.9,649.5,423.1,652.2,423.1z"/>
	<path class="st2" d="M652.2,451.3c2.7,0,4.8-2.2,4.8-4.8c0-2.7-2.2-4.8-4.8-4.8c-2.7,0-4.8,2.2-4.8,4.8
		C647.4,449.2,649.5,451.3,652.2,451.3z"/>
</g>
</svg>
