<svg width="709" height="95" viewBox="0 0 709 95" fill="none" xmlns="http://www.w3.org/2000/svg">
<path d="M51.734 19.4799C49.2138 17.2435 45.899 15.9436 42.4025 15.8244C38.503 15.7052 33.7521 15.6258 29.6881 15.6201C23.5579 15.6088 17.6491 15.6996 14.4478 15.7791H14.4307H14.4137C6.09258 16.0969 0.558398 21.0521 0.314327 28.4027C0.132692 34.2377 0.013494 42.9391 0.00214186 52.2876C-0.0148864 62.8621 0.0702549 72.5002 0.234861 78.0798C0.564074 86.5031 5.945 91.5094 15.0097 91.8443C18.8013 92.0316 23.626 92.0429 28.2974 92.0486C33.1051 92.0543 38.0773 92.0656 42.1414 91.8897C50.139 91.5718 55.8946 85.8162 56.1329 77.8981C56.3089 73.4424 56.4281 63.9009 56.4508 53.0255C56.4678 43.3535 56.377 34.4533 56.2181 29.2257C56.1102 25.4113 54.5209 21.949 51.734 19.4799ZM41.8576 58.0999C41.8462 64.2358 41.8122 70.2467 41.6533 74.1292C41.5851 75.5028 41.324 76.4166 40.8586 76.9105C40.1888 77.6143 38.7017 77.813 37.5721 77.847C35.2563 77.9322 31.6406 77.9265 28.1385 77.9208C21.6564 77.9095 16.9282 77.847 15.1062 77.1602C14.601 76.9673 14.4307 76.9048 14.357 74.3789V74.3619V74.3449C14.2094 70.5816 14.198 64.5934 14.2037 58.0488L41.8576 58.0999ZM41.8746 44.4319L14.2321 44.3865C14.2661 39.6584 14.3513 35.5261 14.4251 32.6994C14.5499 30.0317 14.777 29.9466 15.3332 29.7479C17.2064 29.0838 21.9402 29.0951 28.4847 29.1065C34.6773 29.1178 39.1558 29.1235 40.9154 29.7819C41.3978 29.9635 41.6419 30.0544 41.7157 32.7335C41.7724 35.0096 41.8576 39.3007 41.8746 44.4319Z" fill="black"/>
<path d="M698.024 47.7009C696.651 46.1854 694.675 45.3453 692.45 45.3396L635.417 45.2432C633.209 45.2375 631.205 46.0775 629.775 47.5987C628.492 48.9666 627.754 50.8227 627.754 52.7015C627.749 56.2774 630.371 59.9045 635.394 59.9102L692.428 60.0066C697.281 60.0123 699.903 56.2661 699.909 52.7299C699.914 50.8341 699.245 49.0518 698.024 47.7009Z" fill="black"/>
<path d="M153.677 61.7831H153.671H153.665L140.27 61.8343V61.7378C145.367 60.4833 148.954 56.5839 149.181 51.657C149.266 49.3412 149.374 46.4918 149.38 43.7219C149.386 41.6501 149.3 39.6408 149.204 37.4157V37.3647L149.198 37.3135C148.937 34.0157 146.565 30.6101 142.733 28.9016L149.823 28.9356C154.142 28.9413 156.401 25.6889 156.407 22.4762C156.413 19.2636 154.165 15.9999 149.857 15.9942H149.851H149.845L125.722 16.0339V15.2506C125.728 11.3568 122.64 8.41096 118.536 8.40528C114.432 8.39961 111.333 11.3285 111.327 15.2279V16.0112L87.8399 15.892C83.3898 15.8863 80.9888 19.2125 80.9831 22.3514C80.9775 25.4903 83.3671 28.8278 87.8058 28.8335L94.5263 28.8221C90.1671 30.6215 88.3223 34.3393 88.135 37.8414C88.0385 40.1062 88.0328 42.354 88.0272 44.5279C88.0215 46.7416 88.0215 49.029 88.1066 51.7081C88.2258 54.7505 89.4235 57.3217 91.5634 59.1551C93.0221 60.4095 94.8555 61.2553 97.0238 61.7093L83.6679 61.6583C80.4837 61.6526 77.095 64.0082 77.0894 68.3901C77.0837 72.1931 79.8025 74.9574 83.5487 74.9631H83.6396L95.2415 74.8665C94.9463 75.6612 94.7874 76.4955 94.7874 77.3186C94.7817 79.8671 96.2518 81.9446 98.6244 82.7393L98.6471 82.7449L98.6698 82.7506C101.485 83.6361 104.204 84.601 106.548 86.6444C107.746 87.6945 109.21 88.2564 110.771 88.2564C111.452 88.2564 112.122 88.1429 112.758 87.9272C112.996 94.9712 121.244 94.9939 124.382 94.9996C135.502 95.0166 140.491 88.1258 140.503 81.2918V81.1102V81.0932V81.0762L140.429 74.753L153.592 75.0709H153.626H153.66H153.751C156.929 75.0765 160.318 72.721 160.323 68.339C160.323 64.5531 157.531 61.7888 153.677 61.7831ZM135.286 50.4423C135.127 50.465 134.912 50.4878 134.622 50.4878H134.582H134.543C131.852 50.5559 128.64 50.5616 125.194 50.5616V50.4254L135.286 50.4423ZM111.713 50.4026V50.5388C108.234 50.5275 105.033 50.5104 102.552 50.4366C102.28 50.4253 102.058 50.4083 101.882 50.3913L111.713 50.4026ZM114.222 74.7133L126.324 74.6111L126.375 79.4812V79.6458C126.375 80.5881 126.182 81.0024 126.08 81.0932C126.051 81.1216 125.75 81.3487 124.672 81.3487C123.65 81.3487 122.339 81.167 120.67 80.798C120.035 80.6164 119.478 80.6164 119.132 80.6164C118.667 80.6164 118.218 80.6675 117.781 80.7583C117.73 78.2211 116.266 76.2401 114.222 74.7133Z" fill="black"/>
<path d="M251.078 47.4622C246.594 45.311 242.553 42.7454 239.039 39.8109C242.791 35.6957 247.219 30.434 248.087 29.3896L248.121 29.3499L248.149 29.3101C249.699 27.2894 250.556 24.9679 250.562 22.7769C250.567 18.7469 247.741 14.0301 239.749 14.0188C239.017 14.0188 237.762 14.0017 236.315 13.979C234.271 13.9506 231.723 13.9166 229.577 13.9109C227.857 13.9052 225.911 13.9052 224.208 14.5352C223.305 14.8701 222.55 15.3469 221.949 15.9486C220.808 13.9392 218.742 12.7132 216.409 12.7076C214.235 12.7019 211.959 13.8598 210.659 15.784C209.569 15.4491 208.258 15.2391 206.686 15.2335C205.539 15.2335 203.717 15.2618 201.713 15.3072C201.702 11.5666 198.501 8.41078 194.709 8.39943C192.07 8.39375 189.777 9.95467 188.585 12.5827C184.935 20.2851 179.946 26.4778 173.747 30.9789C170.75 33.1756 170.12 35.5595 170.12 37.1715C170.115 40.7417 173.214 43.6479 177.034 43.6536C177.993 43.6536 179.003 43.4209 180.087 42.9384C180.434 45.1123 181.898 46.8095 184.157 47.5871C181.138 49.7497 177.976 51.4071 174.854 52.4629C171.641 53.4959 169.723 55.8572 169.717 58.7804C169.712 62.4868 172.919 65.62 176.722 65.6257C178.856 65.6314 182.233 64.1045 184.799 62.7593C185.009 63.1226 185.258 63.4631 185.537 63.7753C186.757 65.1546 188.494 65.9152 190.435 65.9208L191.758 65.9322C191.735 65.9606 191.712 65.989 191.689 66.0117C188.193 70.3255 183.629 73.5552 178.481 75.3715C175.513 76.4443 173.679 78.8566 173.674 81.672C173.668 85.6225 177.039 88.9657 181.041 88.9714C183.556 88.9771 187.313 87.2175 192.212 83.7495C192.144 84.1468 192.109 84.5555 192.109 84.9698C192.104 87.6319 193.296 89.7547 195.549 91.1056C197.473 92.2579 200.187 92.8198 203.831 92.8255C210.335 92.8369 214.252 90.4188 216.397 88.3868C219.111 85.8155 220.672 82.2396 220.677 78.5729V78.3912V78.3742V78.3572L220.626 73.5211C221.25 74.8266 222.335 75.8994 223.771 76.5919C230.292 79.8727 234.646 82.898 237.064 85.8553L237.075 85.8723L237.087 85.8893C238.574 87.6546 240.504 88.6252 242.519 88.6309C246.469 88.6365 249.813 85.2195 249.818 81.1725C249.824 79.1234 248.984 77.1538 247.451 75.6213C244.102 72.2043 237.853 68.3162 232.909 66.0287L239.022 66.0117C242.19 66.0174 244.619 63.9797 245.243 60.994C246.083 61.2495 246.889 61.3913 247.644 61.3913C251.913 61.397 255.392 58.0538 255.398 53.933C255.415 51.1801 253.797 48.762 251.078 47.4622ZM202.207 75.0253L202.247 74.9799L202.281 74.9345C203.342 73.5722 203.882 72.1645 203.887 70.7455C203.893 68.9916 203.149 67.3058 201.974 66.006L206.578 66.0344L206.561 76.6487C206.561 77.5568 206.555 78.8056 203.399 78.7999C202.508 78.7999 201.361 78.658 200.334 78.4196C199.857 78.3004 199.415 78.2663 199.04 78.255C200.294 77.1027 201.384 75.9959 202.207 75.0253ZM232.625 26.614C231.848 27.6186 230.894 28.7993 229.901 29.9856C229.129 28.9355 228.374 27.8286 227.636 26.6593L232.625 26.614ZM209.149 40.0322C210.937 37.3929 213.083 33.9815 214.621 30.7519C216.517 33.8794 218.696 37.0126 221.057 40.055L209.149 40.0322ZM199.352 51.952C200.243 52.4231 201.282 52.6899 202.417 52.6899L225.235 52.7296C227.341 52.7353 229.112 51.8328 230.236 50.3627C230.996 51.1006 231.939 51.9974 233.028 52.9681L198.382 52.9112C198.716 52.5934 199.034 52.2699 199.352 51.952ZM200.249 27.2895C200.533 27.2838 200.811 27.2781 201.078 27.2781C201.021 27.3916 200.964 27.5051 200.902 27.63C200.686 27.5165 200.47 27.403 200.249 27.2895ZM221.949 66.0571C221.392 66.6247 220.933 67.2888 220.603 68.0267L220.609 66.0628L221.949 66.0571Z" fill="black"/>
<path d="M282.773 38.9425C285.736 40.2026 289.079 42.5753 291.707 45.3055C293.314 46.9799 295.38 47.9051 297.52 47.9051C299.654 47.9108 301.697 47.0083 303.122 45.4303C304.524 43.8751 305.268 41.809 305.154 39.7486C305.04 37.6995 304.087 35.7753 302.464 34.3222C298.15 30.4511 292.604 27.6358 289.687 26.302L289.67 26.2963L289.653 26.2906C288.455 25.7627 287.246 25.4902 286.054 25.4902C282.467 25.4846 279.368 28.0218 278.686 31.5239C278.068 34.7082 279.708 37.6881 282.773 38.9425Z" fill="black"/>
<path d="M332.383 30.1954C331.384 30.1954 330.419 30.3883 329.527 30.7459C329.743 29.7413 329.726 28.7252 329.488 27.7489C330.118 27.9987 330.788 28.1349 331.474 28.1349C333.96 28.1406 336.339 26.4321 337.394 23.8949C338.484 21.2725 337.894 18.3777 335.856 16.3287C333.342 13.8085 328.335 11.3735 325.583 10.4482L325.566 10.4426L325.548 10.4369C324.828 10.2042 324.09 10.085 323.352 10.085C320.173 10.0793 317.347 12.3213 316.773 15.3069C316.58 16.3059 316.665 17.2709 316.983 18.1563C316.393 18.0031 315.797 17.918 315.195 17.918C312.022 17.9123 309.184 20.1373 308.594 23.0832C308.06 25.7623 309.531 28.2484 312.346 29.4347C313.878 30.1442 317.897 33.0731 318.714 34.0835L318.732 34.1062L318.749 34.1289C319.912 35.5081 321.479 36.2744 323.153 36.2744C323.636 36.2744 324.112 36.212 324.578 36.0871C319.924 44.3458 312.993 52.9848 305.336 60.0572C296.606 68.1173 287.4 73.7422 279.408 75.8991C274.566 77.1763 272.823 81.1041 273.255 84.4246C273.76 88.3411 277.012 91.1906 280.986 91.1962C281.973 91.1962 282.989 91.0316 284.011 90.6967C294.285 87.3195 304.95 80.8147 314.86 71.8805C324.334 63.338 332.524 53.1551 338.541 42.433C340.829 38.3405 339.756 35.3152 338.916 33.8791C337.604 31.6087 335.096 30.201 332.383 30.1954Z" fill="black"/>
<path d="M286.134 63.253C288.835 63.2586 291.333 61.7545 292.667 59.3251C293.683 57.5201 293.932 55.3461 293.354 53.3425C292.775 51.3445 291.395 49.6758 289.471 48.6371C284.607 45.9296 279.135 44.4992 275.394 43.7783C274.776 43.6591 274.163 43.5967 273.572 43.5967C268.912 43.591 266.182 47.0477 265.893 50.4704C265.586 54.0747 267.879 57.0149 271.467 57.6223C274.594 58.1615 278.403 59.7451 281.644 61.8509C283.097 62.7875 284.601 63.253 286.134 63.253Z" fill="black"/>
<path d="M511.355 29.3379C508.432 29.3322 505.866 30.9158 504.493 33.5722C499.923 42.3986 493.197 51.1908 485.552 58.3256C477.253 66.0678 468.586 71.2387 460.475 73.2821C455.406 74.5536 453.561 78.612 453.987 82.0687C454.481 86.1101 457.841 89.0446 461.967 89.0503C462.983 89.0503 464.034 88.8857 465.089 88.5508C475.386 85.3041 485.824 78.9979 495.269 70.3192C504.05 62.2535 511.82 52.3317 517.746 41.621C520.005 37.5853 518.927 34.5599 518.081 33.1125C516.725 30.791 514.148 29.3436 511.355 29.3379Z" fill="black"/>
<path d="M468.012 50.4361C469.579 51.8608 471.407 52.6044 473.302 52.6044C475.772 52.61 478.229 51.2932 479.711 49.1703C482.038 45.8328 481.987 40.6278 477.86 37.6933C472.457 33.8506 464.283 31.2736 461.019 30.3484C460.134 30.1043 459.271 29.9795 458.437 29.9795C453.879 29.9738 451.092 33.4362 450.689 36.8646C450.269 40.4746 452.392 43.5624 455.854 44.374C459.487 45.2255 464.987 47.6434 468.012 50.4361Z" fill="black"/>
<path d="M559.784 37.5684C556.571 37.5627 553.88 39.5663 552.581 42.9266C548.8 52.5589 542.023 61.0901 534.446 65.7501C531.159 67.7879 529.729 71.1708 530.699 74.5764C531.664 77.9707 534.763 80.3433 538.237 80.349C539.957 80.3547 541.694 79.7757 543.266 78.6745C553.097 71.8008 560.851 62.0266 566.97 48.79C568.122 46.2641 567.963 43.5396 566.527 41.3032C565.051 39.0044 562.468 37.574 559.784 37.5684Z" fill="black"/>
<path d="M613.116 33.879C613.127 27.0053 607.547 21.403 600.674 21.3916C593.851 21.3803 588.288 26.9598 588.277 33.8336C588.271 36.0132 588.839 38.0623 589.832 39.8446C589.611 39.6459 589.395 39.4415 589.174 39.2486C587.386 37.6649 585.337 36.8249 583.242 36.8249C580.086 36.8192 577.254 38.7377 576.198 41.5928C575.228 44.2151 576.017 47.0418 578.259 48.966C584.19 54.0915 592.477 65.1996 594.884 72.9304C595.979 76.5064 598.778 78.737 602.189 78.7427C604.715 78.7484 607.178 77.5167 608.779 75.4563C610.448 73.3051 610.97 70.5749 610.249 67.7652C609.154 63.5365 606.304 58.4564 601.78 52.6668C599.743 50.0615 597.393 47.3767 594.946 44.8281C596.649 45.7193 598.585 46.2245 600.634 46.2302C607.508 46.2415 613.104 40.7017 613.116 33.879ZM602.535 33.8563C602.535 34.8099 601.65 35.6499 600.645 35.6443C599.692 35.6443 598.942 34.8553 598.948 33.8449C598.948 32.8402 599.697 32.0513 600.656 32.0513C601.661 32.0626 602.541 32.9027 602.535 33.8563Z" fill="black"/>
<path d="M408.896 43.0402C407.761 43.0402 406.637 43.1991 405.553 43.5227L405.536 43.5283L405.519 43.534C400.331 45.1517 395.075 46.8772 389.926 48.5801C389.206 46.0826 388.581 44.0165 388.195 42.7507C387.281 39.6459 384.534 37.5457 381.367 37.54C380.856 37.54 380.351 37.5968 379.863 37.7103C378.024 38.1134 376.457 39.2486 375.555 40.8208C374.578 42.5237 374.436 44.6465 375.14 46.8034C375.668 48.4609 376.292 50.5156 377.019 52.8996L377.036 52.962C376.332 53.2061 375.634 53.4501 374.959 53.6885C372.847 54.4264 370.855 55.1302 368.999 55.7603C365.695 56.8728 363.765 60.006 364.316 63.3719C364.855 66.664 367.489 68.9685 370.73 68.9742C371.615 68.9742 372.524 68.8039 373.432 68.469C374.124 68.2136 374.845 67.9412 375.594 67.6574C377.218 67.05 378.994 66.3802 380.85 65.6991C383.705 75.269 386.515 84.8616 387.662 88.7894C388.695 92.2575 391.328 94.4031 394.541 94.4088C396.783 94.4144 398.895 93.3132 400.189 91.4628C401.642 89.3797 401.886 86.7063 400.864 83.9363C399.797 80.9848 398.395 76.7618 396.851 71.8917C397.867 72.5047 399.048 72.8509 400.285 72.8566C402.175 72.8623 404.054 72.0904 405.723 70.626C409.543 67.2771 414.64 61.6578 417.285 53.8929C418.21 51.1797 417.921 48.5744 416.479 46.5593C414.93 44.3627 412.092 43.0459 408.896 43.0402ZM393.576 61.1696C394.734 60.7666 395.847 60.3806 396.897 60.0287C396.766 60.1365 396.636 60.2444 396.505 60.3466L396.477 60.3692L396.454 60.392C395.444 61.2207 394.689 62.2083 394.206 63.2754C393.996 62.5716 393.786 61.8734 393.576 61.1696Z" fill="black"/>
<path d="M47.6872 83.3691C43.6912 83.5451 38.7871 83.5338 33.9738 83.5281C29.2513 83.5224 24.5288 83.5111 20.8053 83.3237C12.9042 83.0399 9.00469 79.0326 8.74359 72.3121C8.57331 66.409 8.49952 56.5099 8.51655 46.6108C8.53358 37.8015 8.63575 28.9015 8.82873 22.8167C9.02172 17.0044 13.3866 13.1957 20.1979 12.9346C23.649 12.8495 29.5521 12.77 35.3644 12.7757C40.1777 12.7814 44.9003 12.8835 47.988 12.98C53.5279 13.173 58.8804 17.0838 59.0507 23.6227C59.221 29.1625 59.3005 38.2443 59.2834 47.326C59.2664 57.3159 59.1586 67.3058 58.9713 72.1192C58.7726 78.4821 54.2261 83.108 47.6872 83.3691ZM50.389 41.5932C50.4004 35.8717 50.3152 30.6043 50.2301 26.9716C50.0598 20.7052 48.6975 20.6144 34.1668 20.586C18.8186 20.5576 17.5472 20.6484 17.2634 26.9148C17.1669 30.6383 17.0647 35.8149 17.0591 41.5364L50.389 41.5932ZM17.0477 49.534C17.0364 57.1627 17.025 64.4281 17.1953 68.7873C17.3656 74.6904 18.3646 75.0537 33.8035 75.0821C37.3454 75.0877 40.9781 75.0934 43.3393 75.0083C48.4251 74.8323 49.9747 72.4768 50.162 68.5716C50.3493 64.0307 50.3606 56.8561 50.3777 49.5907L17.0477 49.534Z" stroke="black" stroke-width="10"/>
<path d="M34.3995 12.7813C34.723 12.7813 35.0409 12.7813 35.3644 12.7813C40.1777 12.787 44.9002 12.8891 47.988 12.9856C53.5279 13.1786 58.8804 17.0894 59.0507 23.6283C59.221 29.1681 59.3005 38.2499 59.2834 47.3316C59.2664 57.3215 59.1586 67.3115 58.9712 72.1248C58.7783 78.482 54.2317 83.108 47.6929 83.3691C44.5426 83.5053 40.8248 83.528 37.0332 83.528C36.0172 83.528 34.9955 83.528 33.9794 83.5223C29.2569 83.5167 24.5344 83.5053 20.8109 83.318C12.9098 83.0342 9.01035 79.0269 8.74925 72.3064C8.57897 66.4033 8.50518 56.5042 8.52221 46.6051C8.53924 37.7958 8.6414 28.8957 8.83439 22.811C9.02738 16.9987 13.3923 13.19 20.2036 12.9289C23.456 12.8551 28.905 12.7813 34.3995 12.7813ZM50.389 41.5931C50.4004 35.8716 50.3152 30.6042 50.2301 26.9715C50.0598 20.7051 48.6975 20.6143 34.1668 20.5859C33.4118 20.5859 32.6966 20.5859 32.0098 20.5859C18.6938 20.5859 17.5358 20.9605 17.2634 26.9148C17.1669 30.6383 17.0647 35.8149 17.059 41.5364L50.389 41.5931ZM36.4996 75.082C39.1106 75.082 41.5797 75.0706 43.3393 75.0025C48.4251 74.8266 49.9746 72.471 50.162 68.5659C50.3493 64.025 50.3606 56.8504 50.3777 49.585L17.0477 49.5283C17.0363 57.1569 17.025 64.4223 17.1953 68.7816C17.3655 74.6847 18.3645 75.0479 33.8035 75.0763C34.706 75.082 35.6142 75.082 36.4996 75.082ZM34.3995 12.2137C28.6155 12.2137 23.1268 12.2988 20.1809 12.3726C13.029 12.6451 8.45977 16.641 8.26111 22.7996C8.07947 28.6062 7.96595 37.2849 7.94892 46.6107C7.93189 57.1626 8.01704 66.7779 8.17597 72.3291C8.45977 79.6059 12.819 83.6018 20.7825 83.8913C24.5117 84.0786 29.3194 84.09 33.9681 84.0956C34.9898 84.0956 36.0115 84.1013 37.0218 84.1013C40.6432 84.1013 44.4461 84.0843 47.7042 83.9367C54.4644 83.6642 59.3232 78.8168 59.5275 72.1418C59.7035 67.6917 59.8227 58.1843 59.8397 47.3316C59.8567 37.6823 59.7716 28.8106 59.607 23.6056C59.5218 20.3759 58.239 17.5719 55.9005 15.4945C53.772 13.61 50.968 12.5145 47.9994 12.4123C44.1226 12.2931 39.4001 12.2137 35.3587 12.208L34.3995 12.2137ZM17.6266 40.9744C17.6437 35.27 17.7458 30.2126 17.831 26.9375C18.0694 21.6474 18.4781 21.1592 32.0098 21.1592C32.6966 21.1592 33.4175 21.1592 34.1668 21.1592C48.9303 21.1819 49.5092 21.4033 49.6625 26.9942C49.7249 29.6279 49.8214 34.8897 49.8214 41.0312L17.6266 40.9744ZM36.4996 74.5144C35.6085 74.5144 34.706 74.5144 33.8035 74.5087C18.2964 74.4803 17.9161 74.0773 17.7629 68.7645C17.5926 64.5188 17.5983 57.5372 17.6153 50.0959L49.81 50.1526C49.7987 57.0661 49.7817 64.1328 49.6 68.5431C49.373 73.2656 46.9266 74.3157 43.328 74.4349C41.4662 74.5087 38.8325 74.5144 36.4996 74.5144Z" stroke="black" stroke-width="10"/>
<path d="M641.076 51.3962C637.807 51.3905 636.269 49.2109 636.269 47.0312C636.274 44.7608 638 42.3996 641.088 42.4053L698.121 42.5017C701.209 42.5074 702.747 44.7778 702.747 47.0483C702.741 49.2279 701.197 51.4983 698.11 51.4926L641.076 51.3962Z" stroke="black" stroke-width="10"/>
<path d="M641.082 42.4053C641.088 42.4053 641.088 42.4053 641.093 42.4053L698.127 42.5018C701.215 42.5074 702.753 44.7779 702.753 47.0483C702.747 49.2279 701.203 51.4927 698.127 51.4927C698.121 51.4927 698.121 51.4927 698.115 51.4927L641.082 51.3962C637.813 51.3905 636.274 49.2109 636.274 47.0313C636.274 44.7608 638 42.4053 641.082 42.4053ZM641.082 41.8377C637.597 41.8377 635.707 44.5111 635.701 47.0256C635.701 48.3254 636.172 49.5288 637.035 50.4199C638.011 51.4246 639.408 51.9581 641.071 51.9581L698.104 52.0547C701.521 52.0547 703.309 49.5344 703.309 47.0483C703.315 43.6938 700.704 41.9342 698.121 41.9285L641.088 41.832H641.082V41.8377Z" stroke="black" stroke-width="10"/>
<path d="M143.261 66.1814L143.255 68.4519L143.335 75.4448C143.335 75.5357 143.335 75.5356 143.335 75.6265C143.329 80.349 140.139 86.5189 130.058 86.5018C122.974 86.4905 121.249 84.7593 121.255 81.9439C121.26 79.8551 122.532 77.7664 124.802 77.772C125.075 77.772 125.347 77.772 125.62 77.8629C127.254 78.2318 128.889 78.5043 130.342 78.5043C132.976 78.5099 134.883 77.511 134.889 73.9691C134.889 73.8783 134.889 73.8782 134.889 73.7874L134.809 66.0679L143.261 66.1814ZM134.826 58.9956L134.741 55.9077C134.741 55.0904 134.923 54.3639 135.292 53.819C132.476 53.9041 129.57 53.8984 126.664 53.8928C119.762 53.8814 112.769 53.6884 106.048 53.5862C99.8728 53.3933 96.7907 50.2998 96.6148 45.9406C96.5296 43.3069 96.5296 41.0364 96.5353 38.8568C96.541 36.6772 96.541 34.4976 96.6375 32.318C96.8248 28.7761 99.1917 25.0582 105.912 24.8879C109.182 24.8028 114.267 24.8141 119.807 24.8198L119.813 20.2789L128.531 20.296L128.526 24.8369C133.975 24.8482 139.333 24.8539 143.238 24.9504C148.324 25.0526 151.769 28.5093 152.036 31.8695C152.121 33.8675 152.212 35.9563 152.206 38.0451C152.201 40.6788 152.104 43.3125 152.013 45.8554C151.826 49.9422 148.369 53.4784 142.739 53.6487H142.466C142.92 54.1936 143.102 55.0109 143.096 55.9191L143.181 59.0069L134.826 58.9956ZM119.824 13.1952L119.83 9.5625C119.836 6.9288 122.015 5.57227 124.195 5.57227C126.374 5.57794 128.554 6.94016 128.548 9.57386L128.543 13.2066L119.824 13.1952ZM120.25 30.6321C115.437 30.6264 110.987 30.7059 108.08 30.7911C105.265 30.8762 104.17 32.4201 104.079 34.1457C104.079 34.7814 103.897 35.5079 103.891 36.1436L120.239 36.172L120.25 30.6321ZM120.233 41.8935L103.886 41.8651C103.886 42.5917 104.067 43.409 104.062 44.1355C104.238 46.7693 105.509 47.4958 108.143 47.5923C111.321 47.6888 115.681 47.6945 120.222 47.7058L120.233 41.8935ZM144.396 36.2118C144.396 35.576 144.305 34.8495 144.311 34.2138C144.135 30.6719 143.045 30.6719 128.06 30.6435L128.049 36.1833L144.396 36.2118ZM128.043 41.9049L128.032 47.7172C132.573 47.7229 136.841 47.7342 140.292 47.6491C142.653 47.6548 144.107 46.7465 144.294 44.2037C144.294 43.4771 144.476 42.6598 144.481 41.9332L128.043 41.9049Z" stroke="black" stroke-width="10"/>
<path d="M124.189 5.57249C124.195 5.57249 124.195 5.57249 124.201 5.57249C126.38 5.57817 128.56 6.94039 128.554 9.57409L128.548 13.2068L119.83 13.1898L119.836 9.55711C119.836 6.93476 122.01 5.57249 124.189 5.57249ZM119.813 20.2792L128.531 20.2962L128.526 24.8371C133.975 24.8484 139.333 24.8542 143.238 24.9507C148.324 25.0528 151.769 28.5095 152.036 31.8698C152.121 33.8677 152.212 35.9565 152.206 38.0453C152.201 40.679 152.104 43.3128 152.013 45.8556C151.826 49.9424 148.369 53.4786 142.739 53.6489H142.466C142.92 54.1938 143.102 55.0112 143.096 55.9193L143.181 59.0072L134.826 58.9958L134.741 55.908C134.741 55.0906 134.923 54.3641 135.292 53.8192C133.129 53.8873 130.91 53.8987 128.685 53.8987C128.015 53.8987 127.339 53.8987 126.664 53.8987C119.762 53.8873 112.769 53.6943 106.048 53.5921C99.8729 53.3992 96.7908 50.3057 96.6148 45.9465C96.5297 43.3128 96.5297 41.0423 96.5353 38.8627C96.541 36.6831 96.541 34.5035 96.6375 32.3239C96.8248 28.782 99.1917 25.0641 105.912 24.8938C108.171 24.8371 111.299 24.82 114.841 24.82C116.424 24.82 118.093 24.82 119.807 24.8257L119.813 20.2792ZM120.239 36.1722L120.25 30.6323C120.034 30.6323 119.813 30.6323 119.597 30.6323C115.034 30.6323 110.85 30.7118 108.075 30.7913C105.259 30.8764 104.164 32.4203 104.073 34.1459C104.073 34.7816 103.892 35.5082 103.886 36.1439L120.239 36.1722ZM144.396 36.212C144.396 35.5763 144.305 34.8497 144.311 34.214C144.135 30.6721 143.045 30.6721 128.06 30.6437L128.049 36.1836L144.396 36.212ZM120.222 47.7061L120.233 41.8937L103.886 41.8653C103.886 42.5919 104.067 43.4092 104.062 44.1358C104.238 46.7695 105.509 47.496 108.143 47.5925C111.322 47.6947 115.681 47.7004 120.222 47.7061ZM131.818 47.7231C134.928 47.7231 137.823 47.7117 140.292 47.6493C140.298 47.6493 140.304 47.6493 140.309 47.6493C142.659 47.6493 144.112 46.7411 144.294 44.2039C144.294 43.4773 144.476 42.66 144.481 41.9335L128.043 41.9051L128.032 47.7174C129.32 47.7231 130.586 47.7231 131.818 47.7231ZM134.815 66.0795L143.261 66.1817L143.255 68.4521L143.335 75.4451C143.335 75.5359 143.335 75.5359 143.335 75.6267C143.329 80.3435 140.145 86.5021 130.098 86.5021C130.087 86.5021 130.07 86.5021 130.058 86.5021C122.975 86.4907 121.249 84.7595 121.255 81.9442C121.26 79.8554 122.532 77.7723 124.797 77.7723H124.802C125.075 77.7723 125.347 77.7723 125.62 77.8631C127.254 78.232 128.889 78.5045 130.342 78.5045C130.348 78.5045 130.353 78.5045 130.359 78.5045C132.981 78.5045 134.883 77.5055 134.889 73.9693C134.889 73.8785 134.889 73.8784 134.889 73.7876L134.815 66.0795ZM124.189 5.00488C121.749 5.00488 119.268 6.57143 119.262 9.56273L119.257 13.1954V13.763H119.824L128.543 13.7801H129.11V13.2125L129.116 9.57977C129.116 8.18345 128.577 6.9972 127.549 6.15146C126.653 5.41357 125.461 5.01056 124.195 5.00488H124.189ZM119.245 19.7116V20.2792L119.24 24.2524C117.724 24.2524 116.248 24.2468 114.841 24.2468C110.538 24.2468 107.865 24.2695 105.895 24.3205C99.9977 24.4681 96.3253 27.4481 96.0642 32.2898C95.9677 34.4864 95.9677 36.7058 95.9621 38.8571C95.9564 41.0537 95.9564 43.3184 96.0415 45.9635C96.2402 50.9811 99.8785 53.9668 106.026 54.1598C108.205 54.1938 110.408 54.2335 112.621 54.2789C117.225 54.3698 121.981 54.4606 126.658 54.4663C127.334 54.4663 128.004 54.4663 128.679 54.4663C130.41 54.4663 132.408 54.4606 134.389 54.4095C134.247 54.8579 134.173 55.3631 134.173 55.9023L134.259 59.0072L134.276 59.5577H134.826L143.181 59.5691H143.766L143.749 58.9844L143.664 55.8966C143.664 55.2382 143.579 54.6593 143.403 54.1711C148.642 53.7568 152.371 50.4192 152.581 45.8727C152.666 43.5966 152.774 40.7642 152.774 38.0397C152.78 36.019 152.7 34.0324 152.604 31.8357C152.32 28.2428 148.744 24.4852 143.25 24.3774C139.475 24.2809 134.446 24.2695 129.093 24.2638L129.099 20.2905V19.7229H128.531L119.813 19.7059L119.245 19.7116ZM104.646 34.1629C104.72 32.9255 105.379 31.444 108.098 31.3589C109.732 31.3078 114.131 31.2 119.597 31.2H119.677L119.671 35.6046L104.499 35.5819C104.51 35.4684 104.527 35.3492 104.544 35.2243C104.595 34.8724 104.641 34.5148 104.646 34.1629ZM128.617 35.6216L128.622 31.217C143.142 31.2454 143.596 31.3646 143.738 34.231C143.738 34.5659 143.76 34.9121 143.783 35.2527C143.794 35.3889 143.8 35.5195 143.806 35.6444L128.617 35.6216ZM104.629 44.1187C104.629 43.7271 104.584 43.3241 104.539 42.9381C104.516 42.7678 104.499 42.5976 104.482 42.4386L119.665 42.4614L119.66 47.1384C115.3 47.1328 111.202 47.1214 108.166 47.0306C105.606 46.9341 104.777 46.2529 104.629 44.1187ZM128.6 47.1555L128.605 42.4784L143.88 42.5067C143.863 42.6713 143.845 42.836 143.823 43.0062C143.777 43.3922 143.726 43.7952 143.726 44.1868C143.573 46.2189 142.546 47.0874 140.309 47.0874H140.304H140.281C137.625 47.1555 134.514 47.1612 131.818 47.1612C130.768 47.1555 129.689 47.1555 128.6 47.1555ZM134.236 65.5006L134.242 66.0795L134.321 73.799V73.975C134.315 76.7563 133.129 77.9426 130.359 77.9426C129.122 77.9426 127.663 77.7438 125.773 77.3181C125.427 77.2046 125.097 77.2046 124.808 77.2046C122.134 77.2046 120.693 79.6453 120.693 81.9442C120.687 83.7265 121.334 84.9354 122.713 85.7642C124.195 86.6496 126.533 87.064 130.064 87.0697H130.104C140.281 87.0697 143.897 80.9054 143.908 75.6267V75.4451L143.828 68.4465L143.834 66.1817V65.6197L143.272 65.6141L134.826 65.5119L134.236 65.5006Z" stroke="black" stroke-width="10"/>
<path d="M143.261 66.1825L159.336 66.5742H159.427C161.879 66.5799 163.156 64.5819 163.156 62.6748C163.161 60.7676 161.89 58.9512 159.347 58.9455L143.182 59.008L134.826 58.9967L89.3269 58.832C86.8748 58.8264 85.5977 60.8243 85.5977 62.7315C85.592 64.6387 86.7726 66.4551 89.2247 66.4607H89.3155L134.815 66.0804L143.261 66.1825Z" stroke="black" stroke-width="10"/>
<path d="M89.3155 58.8264H89.3212L134.821 58.991L143.176 59.0024L159.341 58.94C161.884 58.9456 163.15 60.762 163.15 62.6691C163.144 64.5763 161.873 66.5686 159.427 66.5686H159.421H159.33L143.255 66.177L134.809 66.0748L89.3099 66.4551H89.219C86.767 66.4494 85.5863 64.633 85.592 62.7259C85.5977 60.8187 86.8691 58.8264 89.3155 58.8264ZM89.3155 58.2588C87.2381 58.2588 85.0301 59.8254 85.0244 62.7259C85.0244 63.8611 85.3877 64.9055 86.0575 65.6775C86.8181 66.5573 87.9135 67.0227 89.219 67.0227H89.3099L134.815 66.6424L143.25 66.7446L159.319 67.1362H159.421C161.504 67.1362 163.712 65.5696 163.718 62.6691C163.723 60.603 162.355 58.378 159.341 58.3724L143.17 58.4348L134.821 58.4234L89.3212 58.2588H89.3155Z" stroke="black" stroke-width="10"/>
<path d="M128.532 20.2956L155.504 20.4318C158.047 20.4375 159.234 18.6212 159.234 16.8048C159.239 14.9885 158.059 13.1722 155.516 13.1665L128.543 13.2119L119.825 13.1948L93.4875 13.0586C90.8538 13.0529 89.4859 14.8693 89.4859 16.6856C89.4802 18.502 90.8424 20.3183 93.4761 20.324L119.813 20.2786L128.532 20.2956Z" stroke="black" stroke-width="10"/>
<path d="M93.4759 13.0588C93.4815 13.0588 93.4815 13.0588 93.4872 13.0588L119.824 13.195L128.543 13.2121L155.515 13.1667C158.058 13.1724 159.233 14.9887 159.233 16.805C159.228 18.6214 158.047 20.432 155.515 20.432C155.51 20.432 155.51 20.432 155.504 20.432L128.531 20.2958L119.813 20.2788L93.4759 20.3242C90.8422 20.3186 89.4856 18.5022 89.4856 16.6858C89.4856 14.8695 90.8478 13.0588 93.4759 13.0588ZM93.4759 12.4912C90.4846 12.4912 88.918 14.6027 88.918 16.6858C88.918 17.7813 89.3323 18.8144 90.0872 19.5806C90.9273 20.4377 92.0966 20.8862 93.4759 20.8918L119.819 20.8464L128.537 20.8634L155.51 20.9997C158.461 20.9997 159.807 18.8257 159.812 16.805C159.812 15.7039 159.443 14.6822 158.762 13.9273C157.985 13.0588 156.866 12.5991 155.527 12.5991L128.554 12.6445L119.836 12.6274L93.4986 12.4912H93.4759Z" stroke="black" stroke-width="10"/>
<path d="M114.086 78.8507C111.276 76.3929 108.097 75.2975 105.191 74.3836C103.829 73.9295 103.284 72.834 103.29 71.6534C103.295 69.6554 104.839 67.385 107.2 67.3906C108.835 67.3906 120.636 69.9563 120.63 75.2237C120.624 77.5849 118.626 79.7588 116.447 79.7588C115.624 79.7588 114.806 79.4864 114.086 78.8507Z" stroke="black" stroke-width="10"/>
<path d="M107.195 67.3909H107.201C108.835 67.3909 120.636 69.9565 120.63 75.2239C120.625 77.5851 118.627 79.7591 116.453 79.7591H116.447C115.63 79.7591 114.812 79.4809 114.086 78.8452C111.276 76.3875 108.097 75.292 105.191 74.3781C103.829 73.9241 103.284 72.8285 103.29 71.6479C103.29 69.6613 104.839 67.3909 107.195 67.3909ZM107.195 66.8232C104.521 66.8232 102.722 69.3207 102.722 71.6536C102.722 73.2429 103.557 74.4292 105.01 74.923C108.075 75.888 111.038 76.9437 113.711 79.2766C114.494 79.9634 115.437 80.3267 116.441 80.3267C118.927 80.3267 121.192 77.8973 121.198 75.2239C121.209 69.4229 108.892 66.8232 107.201 66.8232H107.195Z" stroke="black" stroke-width="10"/>
<path d="M205.221 41.9916C202.582 44.892 199.579 47.6109 196.401 50.063L244.715 50.1425C247.077 50.1482 248.252 51.9645 248.252 53.7808C248.246 55.688 247.065 57.5043 244.704 57.4987L223.453 57.5554L223.441 65.0024L223.521 72.7219C223.521 72.8127 223.521 72.8128 223.521 72.9036C223.51 78.3526 219.145 84.3409 209.518 84.3238C203.161 84.3125 200.624 82.4904 200.624 79.3118C200.629 77.3138 201.992 75.4067 204.262 75.4124C204.625 75.4124 204.989 75.4124 205.352 75.5032C206.532 75.7756 207.895 75.963 209.075 75.963C212.254 75.9687 215.069 74.7937 215.075 70.9794L215.098 57.5384L196.117 57.4135C193.665 57.4078 192.399 55.5007 192.399 53.6844C192.399 53.3211 192.399 52.9578 192.49 52.6854C188.851 54.9501 184.22 57.124 182.403 57.1183C180.042 57.1127 178.231 55.1147 178.231 53.1167C178.231 51.6637 179.145 50.2106 181.416 49.4897C186.507 47.7699 191.23 44.7842 195.328 41.1572C193.784 40.2434 192.331 39.6985 190.793 39.2444C189.158 38.6995 188.528 37.5131 188.528 36.2417C188.534 34.2437 190.168 32.1549 192.439 32.1606C194.346 32.1663 197.7 34.0791 200.425 35.9863C201.606 34.624 202.701 33.2675 203.7 31.9052C201.975 30.8097 200.436 30.2648 198.802 29.7199C197.167 29.1693 196.537 27.9887 196.537 26.7173C196.542 24.8101 198.177 22.7213 200.357 22.727C201.719 22.727 204.716 23.9133 207.707 25.9169C208.894 23.7373 210.534 20.5644 210.534 19.8379C210.534 19.0205 209.535 18.748 208.899 18.7424C206.901 18.7367 202.905 18.8218 199.636 18.907C197.814 21.5407 187.983 35.1462 182.716 35.1349C180.445 35.1292 178.629 33.4945 178.634 31.4965C178.634 30.2251 179.367 28.8628 181.092 27.597C187.818 22.7042 193.097 15.9951 196.838 8.09969C197.661 6.28335 199.023 5.5625 200.385 5.5625C202.474 5.56818 204.557 7.29368 204.557 9.65493C204.557 10.2907 204.375 11.0172 203.916 11.8345L203.552 12.5611C206.913 12.4759 210.545 12.3909 212.362 12.3965C215.177 12.4022 217.084 13.2195 218.168 14.4058C218.168 14.1334 218.078 13.9517 218.078 13.6793C218.083 11.4088 220.172 9.87063 222.079 9.87063C223.441 9.87063 224.713 10.6028 225.343 12.0559C227.965 17.7831 231.138 23.6011 235.486 28.7834C236.758 27.3303 242.769 20.3487 242.769 19.1681C242.769 18.3507 241.679 18.0783 240.771 18.0726L232.597 18.152H232.506C230.054 18.1463 228.788 16.4208 228.788 14.6953C228.794 11.0626 232.154 11.0683 235.242 11.074C238.875 11.0796 243.597 11.1762 245.414 11.1818C250.953 11.1932 253.4 13.9177 253.394 17.0963C253.394 18.6402 252.753 20.3657 251.572 21.9096C250.301 23.4535 244.471 30.3443 240.651 34.3345C244.732 38.1545 249.631 41.5261 255.528 44.3472C257.436 45.261 258.247 46.8049 258.247 48.258C258.242 50.6192 256.244 52.884 253.337 52.884C247.162 52.8727 228.663 36.4063 219.519 17.7718C219.519 17.9534 219.519 18.0442 219.519 18.2258C219.514 22.2218 213.593 31.5646 209.314 37.1896L205.221 41.9916ZM186.717 80.4698C184.083 80.4641 182.182 78.1937 182.182 76.0141C182.182 74.561 183.096 73.1079 185.094 72.387C190.73 70.4004 195.731 66.8642 199.551 62.1473C200.368 61.1484 201.367 60.6943 202.366 60.7C204.546 60.7057 206.72 62.7944 206.72 65.0649C206.72 65.8822 206.356 66.6996 205.715 67.517C201.719 72.2281 190.804 80.4754 186.717 80.4698Z" stroke="black" stroke-width="10"/>
<path d="M200.368 5.56761H200.374C202.462 5.57328 204.546 7.29879 204.546 9.66004C204.546 10.2958 204.364 11.0223 203.904 11.8396L203.541 12.5662C206.844 12.4811 210.409 12.4016 212.254 12.4016C212.288 12.4016 212.316 12.4016 212.35 12.4016C215.165 12.4072 217.073 13.2246 218.157 14.4109C218.157 14.1385 218.066 13.9568 218.066 13.6844C218.072 11.4139 220.155 9.87574 222.062 9.87574H222.068C223.43 9.87574 224.701 10.6079 225.331 12.061C227.954 17.7882 231.127 23.6062 235.474 28.7884C236.746 27.3353 242.757 20.3538 242.757 19.1732C242.757 18.3558 241.667 18.0833 240.759 18.0777L232.585 18.1571H232.495C230.042 18.1514 228.777 16.4259 228.777 14.7004C228.782 11.2039 231.893 11.0791 234.879 11.0791C234.998 11.0791 235.111 11.0791 235.23 11.0791C238.863 11.0847 243.586 11.1813 245.402 11.1869C250.942 11.1983 253.388 13.9228 253.383 17.1014C253.383 18.6453 252.741 20.3708 251.561 21.9147C250.289 23.4586 244.46 30.3494 240.64 34.3396C244.721 38.1597 249.619 41.5313 255.517 44.3523C257.424 45.2661 258.236 46.81 258.236 48.2631C258.23 50.6243 256.232 52.8891 253.331 52.8891C253.326 52.8891 253.326 52.8891 253.32 52.8891C247.145 52.8778 228.646 36.4115 219.502 17.7769C219.502 17.9585 219.502 18.0493 219.502 18.2309C219.496 22.2269 213.576 31.5697 209.296 37.1947L205.204 42.0024C202.565 44.9028 199.562 47.6217 196.383 50.0737L244.698 50.1532C247.059 50.1589 248.234 51.9753 248.234 53.7916C248.229 55.6988 247.048 57.5095 244.692 57.5095H244.687L223.436 57.5662L223.424 65.0132L223.504 72.7327C223.504 72.8235 223.504 72.8235 223.504 72.9144C223.492 78.3577 219.133 84.3346 209.535 84.3346C209.523 84.3346 209.512 84.3346 209.495 84.3346C203.138 84.3233 200.601 82.5012 200.601 79.3226C200.606 77.3246 201.969 75.4231 204.233 75.4231H204.239C204.602 75.4231 204.966 75.4232 205.329 75.514C206.509 75.7864 207.872 75.9737 209.052 75.9737C209.058 75.9737 209.069 75.9737 209.075 75.9737C212.242 75.9737 215.052 74.7931 215.058 70.9902L215.08 57.5492L196.099 57.4243C193.647 57.4186 192.382 55.5114 192.382 53.6951C192.382 53.3318 192.382 52.9686 192.472 52.6962C188.84 54.9609 184.208 57.1291 182.386 57.1291C182.386 57.1291 182.386 57.1291 182.38 57.1291C180.019 57.1235 178.208 55.1255 178.208 53.1275C178.208 51.6744 179.122 50.2214 181.393 49.5005C186.484 47.7807 191.207 44.795 195.305 41.168C193.761 40.2541 192.308 39.7092 190.77 39.2552C189.135 38.7102 188.505 37.5239 188.505 36.2525C188.511 34.2545 190.145 32.1714 192.41 32.1714H192.416C194.323 32.1771 197.677 34.0899 200.402 35.9971C201.583 34.6348 202.678 33.2782 203.677 31.9159C201.952 30.8205 200.413 30.2756 198.779 29.7307C197.144 29.1801 196.514 27.9995 196.514 26.7281C196.52 24.8209 198.154 22.7378 200.328 22.7378H200.334C201.696 22.7378 204.693 23.9241 207.684 25.9277C208.871 23.7481 210.511 20.5751 210.511 19.8486C210.511 19.0312 209.512 18.7588 208.876 18.7531C208.837 18.7531 208.797 18.7531 208.757 18.7531C206.725 18.7531 202.82 18.8383 199.613 18.9178C197.791 21.5458 187.966 35.1457 182.698 35.1457H182.693C180.422 35.14 178.606 33.5053 178.611 31.5073C178.611 30.2358 179.344 28.8736 181.069 27.6078C187.795 22.715 193.074 16.0059 196.815 8.11048C197.649 6.28846 199.011 5.56761 200.368 5.56761ZM202.366 60.6994H202.372C204.551 60.7051 206.725 62.7939 206.725 65.0643C206.725 65.8816 206.362 66.699 205.72 67.5164C201.719 72.2275 190.815 80.4692 186.723 80.4692H186.717C184.083 80.4635 182.182 78.1931 182.182 76.0135C182.182 74.5604 183.096 73.1073 185.094 72.3865C190.73 70.3998 195.731 66.8636 199.551 62.1468C200.374 61.1478 201.367 60.6994 202.366 60.6994ZM200.379 5H200.374C198.62 5 197.144 6.04436 196.315 7.87206C192.507 15.9208 187.268 22.4086 180.751 27.1481C178.526 28.7828 178.061 30.4175 178.061 31.5073C178.055 33.8231 180.144 35.7133 182.71 35.7133C188.318 35.7133 198.171 21.9885 199.931 19.4797C201.702 19.4343 206.351 19.3207 208.774 19.3207H208.893C209.115 19.3207 209.438 19.3661 209.688 19.4967C209.96 19.6386 209.961 19.7805 209.961 19.843C209.949 20.1211 209.416 21.5457 207.497 25.1103C204.756 23.3621 201.878 22.1645 200.351 22.1645C197.768 22.1645 195.963 24.5655 195.963 26.7224C195.963 28.4082 196.928 29.6966 198.614 30.2643C200.135 30.7751 201.441 31.2405 202.865 32.0749C202.076 33.125 201.219 34.1864 200.323 35.2365C198.444 33.948 194.703 31.6038 192.433 31.5981C190.27 31.5981 187.954 33.4655 187.954 36.2468C187.954 37.9326 188.919 39.2211 190.605 39.7887C192.087 40.2257 193.244 40.6799 194.346 41.2645C190.225 44.795 185.707 47.4514 181.234 48.9556C178.969 49.6764 177.664 51.192 177.664 53.1219C177.658 55.5512 179.872 57.6911 182.403 57.6911C184.259 57.6911 188.442 55.7556 191.831 53.7519C191.859 55.8123 193.358 57.9806 196.117 57.9862L214.53 58.1054L214.507 70.9845C214.501 73.919 212.679 75.4005 209.092 75.4005C207.997 75.4005 206.685 75.2359 205.476 74.9577C205.056 74.8499 204.653 74.8499 204.262 74.8499C201.532 74.8499 200.056 77.1487 200.056 79.3169C200.05 83.0575 203.144 84.8852 209.512 84.8966H209.552C219.525 84.8966 224.077 78.6813 224.088 72.9087V72.727L224.009 65.0019L224.02 58.1281L244.709 58.0771C247.536 58.0771 248.819 55.8577 248.825 53.7916C248.825 53.014 248.643 52.2704 248.291 51.629C250.34 52.8097 252.083 53.4567 253.343 53.4567C256.362 53.4567 258.82 51.1295 258.826 48.2688C258.832 46.4127 257.691 44.7553 255.784 43.8471C250.34 41.2418 245.533 38.0348 241.468 34.317C245.396 30.1621 251.033 23.4699 252.02 22.278C253.28 20.6319 253.973 18.8042 253.973 17.1071C253.979 15.285 253.224 13.656 251.856 12.5208C250.34 11.2664 248.178 10.625 245.425 10.6193C244.675 10.6193 243.421 10.6023 241.962 10.5796C239.925 10.5512 237.382 10.5171 235.253 10.5115H234.901C232.25 10.5115 228.238 10.5115 228.232 14.7004C228.226 16.6984 229.696 18.7247 232.517 18.7247H232.608L240.787 18.6453C241.485 18.6453 242.212 18.8439 242.212 19.1675C242.104 19.9394 238.727 24.2079 235.509 27.9087C231.995 23.6175 228.924 18.4807 225.871 11.8227C225.189 10.2561 223.77 9.30813 222.09 9.30813C220.036 9.30813 217.85 10.8293 217.555 13.1452C216.488 12.4413 214.848 11.8396 212.367 11.834H212.271C210.568 11.834 207.48 11.9021 204.494 11.9759C204.909 11.1926 205.124 10.4093 205.13 9.66572C205.119 6.87877 202.667 5 200.379 5ZM198.029 49.4948C200.828 47.2471 203.376 44.8574 205.635 42.3713L209.745 37.5523L209.756 37.541L209.768 37.5296C212.975 33.3123 218.753 24.7414 219.888 19.7521C226.546 32.4439 237.245 43.8811 245.186 49.597C245.033 49.5799 244.874 49.5743 244.715 49.5743L198.029 49.4948ZM202.372 60.1318H202.366C201.146 60.1318 199.993 60.7221 199.113 61.7892C195.362 66.4152 190.452 69.8947 184.906 71.8529C182.846 72.5965 181.62 74.1517 181.614 76.0135C181.608 78.4372 183.658 81.0368 186.717 81.0368C191.241 81.0368 202.377 72.3297 206.152 67.8797C206.912 66.9091 207.287 65.9668 207.293 65.0643C207.293 63.8383 206.736 62.5896 205.766 61.6246C204.807 60.6767 203.569 60.1318 202.372 60.1318Z" stroke="black" stroke-width="10"/>
<path d="M244.937 78.3864C241.582 74.2939 235.776 70.9224 230.695 68.3738C229.152 67.6473 228.521 66.3701 228.521 65.0987C228.527 63.1007 230.162 61.1936 232.432 61.1992C234.884 61.2049 246.225 66.9434 251.124 71.9497C252.213 73.0395 252.662 74.3109 252.662 75.4916C252.656 77.9436 250.567 80.1176 248.206 80.1176C247.116 80.1176 245.936 79.567 244.937 78.3864Z" stroke="black" stroke-width="10"/>
<path d="M232.427 61.1994H232.433C234.885 61.2051 246.225 66.9436 251.124 71.9499C252.214 73.0397 252.662 74.3112 252.662 75.4918C252.656 77.9439 250.568 80.1178 248.212 80.1178H248.206C247.117 80.1178 245.936 79.5672 244.937 78.3866C241.582 74.2941 235.776 70.9226 230.696 68.374C229.152 67.6475 228.522 66.3704 228.522 65.0989C228.522 63.1066 230.156 61.1994 232.427 61.1994ZM232.427 60.6318C229.963 60.6318 227.96 62.6355 227.954 65.0989C227.954 66.7563 228.862 68.1356 230.452 68.8848C234.794 71.0644 240.992 74.4701 244.494 78.7442C245.55 79.9929 246.861 80.6797 248.201 80.6854C250.88 80.6854 253.224 78.2617 253.23 75.4918C253.23 74.0501 252.628 72.6481 251.527 71.5469C246.731 66.6428 235.219 60.6375 232.433 60.6318H232.427Z" stroke="black" stroke-width="10"/>
<path d="M234.373 40.6791C234.367 42.4955 233.277 44.221 230.916 44.2153L208.098 44.1756C205.737 44.1699 204.653 42.4444 204.653 40.6281C204.659 38.9025 205.748 37.177 208.11 37.1826L230.927 37.2224C233.289 37.2224 234.378 38.9536 234.373 40.6791Z" stroke="black" stroke-width="10"/>
<path d="M208.104 37.1828H208.11L230.928 37.2226C233.289 37.2283 234.373 38.9538 234.373 40.6793C234.367 42.4957 233.278 44.2155 230.922 44.2155H230.916L208.098 44.1758C205.737 44.1701 204.653 42.4446 204.653 40.6283C204.659 38.9027 205.749 37.1828 208.104 37.1828ZM208.104 36.6152C205.351 36.6152 204.091 38.6927 204.085 40.6283C204.085 41.7181 204.432 42.7227 205.056 43.4549C205.783 44.3007 206.833 44.7434 208.093 44.7491L230.911 44.7888C232.914 44.7888 234.929 43.5231 234.935 40.685C234.935 39.6349 234.589 38.6587 233.959 37.9378C233.232 37.1034 232.182 36.6607 230.922 36.6607L208.104 36.6209V36.6152Z" stroke="black" stroke-width="10"/>
<path d="M288.864 53.803C285.51 51.6177 281.332 49.7956 277.609 49.1542C272.16 48.2347 273.902 39.6128 280.526 40.8956C284.795 41.7186 289.693 43.1831 293.78 45.4592C296.686 47.0087 297.044 50.1873 295.857 52.2761C294.677 54.45 291.861 55.7158 288.864 53.803ZM288.819 82.3196C281.639 84.6695 278.659 74.8556 285.839 72.9598C303.923 68.084 324.119 48.1382 333.683 30.0826C336.691 24.4576 345.767 28.1982 341.754 35.3614C330.096 56.1415 309.446 75.5424 288.819 82.3196ZM299.428 37.6545C296.618 34.7427 292.991 32.1033 289.54 30.6445C284.369 28.5444 288.013 20.473 294.183 23.2032C298.173 25.0252 302.805 27.6703 306.25 30.7638C308.697 32.9491 308.328 36.0368 306.693 37.8475C305.058 39.6639 301.88 40.2031 299.428 37.6545Z" stroke="black" stroke-width="10"/>
<path d="M291.725 22.6467C292.48 22.6467 293.309 22.817 294.188 23.203C298.179 25.025 302.81 27.6701 306.256 30.7635C308.702 32.9488 308.333 36.0366 306.699 37.8473C305.847 38.7895 304.581 39.3855 303.213 39.3855C301.953 39.3855 300.608 38.8747 299.433 37.6486C296.623 34.7368 292.996 32.0974 289.545 30.6386C285.101 28.845 287.156 22.6467 291.725 22.6467ZM338.042 27.3579C341.311 27.3579 344.416 30.6046 341.754 35.3612C330.095 56.1413 309.446 75.5421 288.819 82.3194C288.058 82.5691 287.349 82.6827 286.69 82.6827C281.122 82.6827 279.419 74.6567 285.839 72.9595C303.923 68.0838 324.118 48.138 333.683 30.0824C334.693 28.1922 336.39 27.3579 338.042 27.3579ZM279.232 40.7648C279.641 40.7648 280.078 40.8045 280.532 40.8953C284.8 41.7184 289.699 43.1828 293.785 45.4589C296.692 47.0085 297.049 50.187 295.863 52.2758C295.085 53.7062 293.598 54.745 291.822 54.745C290.896 54.745 289.892 54.4612 288.864 53.8084C285.51 51.6231 281.332 49.8011 277.609 49.1597C272.54 48.2969 273.698 40.7648 279.232 40.7648ZM291.725 22.0791C288.893 22.0791 287.003 24.1906 286.594 26.2794C286.265 27.9766 286.81 30.1505 289.324 31.1722C292.599 32.5572 296.135 35.066 299.019 38.0516C300.534 39.6296 302.135 39.9588 303.208 39.9588C304.695 39.9588 306.12 39.3287 307.113 38.2332C308.112 37.1264 308.64 35.6563 308.56 34.1975C308.481 32.7331 307.811 31.4049 306.625 30.3435C302.527 26.6654 297.219 23.9692 294.415 22.6921C293.507 22.2834 292.599 22.0791 291.725 22.0791ZM338.042 26.7903C335.976 26.7903 334.205 27.8914 333.177 29.8156C328.432 38.7725 320.917 48.3367 312.562 56.0505C303.565 64.3546 294.024 70.1669 285.686 72.4146C281.917 73.408 280.912 76.297 281.19 78.4653C281.497 80.8436 283.483 83.2503 286.679 83.2503C287.423 83.2503 288.194 83.1197 288.989 82.8586C298.962 79.5835 309.349 73.2377 319.021 64.5135C328.319 56.1299 336.345 46.1457 342.242 35.6393C343.531 33.3405 343.667 31.0984 342.634 29.3388C341.72 27.7722 339.96 26.7903 338.042 26.7903ZM279.232 40.1972C275.945 40.1972 274.027 42.6095 273.828 44.9991C273.658 47.0085 274.736 49.2449 277.518 49.716C280.946 50.3063 285.073 52.0148 288.558 54.2852C289.631 54.9663 290.726 55.3126 291.822 55.3126C293.695 55.3126 295.431 54.2512 296.357 52.5484C297.078 51.2769 297.254 49.7273 296.845 48.3083C296.43 46.8722 295.46 45.7143 294.047 44.965C289.449 42.3995 284.216 41.0373 280.634 40.3448C280.163 40.2426 279.686 40.1972 279.232 40.1972Z" stroke="black" stroke-width="10"/>
<path d="M319.164 21.1588C314.538 19.2459 318.176 13.8026 322.354 15.3521C324.806 16.266 329.341 18.6329 331.333 20.8182C334.869 24.6382 329.591 30.1724 326.599 26.6248C325.425 25.1661 320.98 21.9761 319.164 21.1588Z" stroke="black" stroke-width="10"/>
<path d="M320.861 15.0744C321.343 15.0744 321.843 15.1596 322.354 15.3469C324.806 16.2607 329.341 18.6277 331.333 20.813C334.069 23.7702 331.526 27.7548 328.847 27.7548C328.069 27.7548 327.275 27.4142 326.599 26.6139C325.419 25.1608 320.974 21.9709 319.164 21.1535C315.1 19.4791 317.415 15.0801 320.861 15.0744ZM320.861 15.0744V14.5068M320.861 14.5068C318.789 14.5068 316.871 15.977 316.502 17.8501C316.178 19.4791 317.092 20.9095 318.948 21.6814C320.651 22.4534 325.044 25.5922 326.162 26.9772C326.906 27.8626 327.837 28.3281 328.847 28.3281C330.408 28.3281 331.952 27.2099 332.678 25.5468C333.445 23.7986 333.098 21.8857 331.753 20.4326C329.693 18.1736 325.044 15.7499 322.552 14.819C321.996 14.6146 321.428 14.5068 320.861 14.5068Z" stroke="black" stroke-width="10"/>
<path d="M327.445 13.4524C322.819 11.6304 326.094 6.09615 330.362 7.46409C332.814 8.28712 337.44 10.5632 339.523 12.6577C343.15 16.2961 338.053 22.0119 334.971 18.5552C333.7 17.1872 329.255 14.1846 327.445 13.4524Z" stroke="black" stroke-width="10"/>
<path d="M329.017 7.24827C329.448 7.24827 329.896 7.31639 330.356 7.46397C332.808 8.287 337.434 10.5631 339.517 12.6576C342.355 15.507 339.852 19.6222 337.15 19.6222C336.401 19.6222 335.635 19.3043 334.965 18.5551C333.694 17.1928 329.249 14.1845 327.433 13.4579C323.312 11.8289 325.475 7.24827 329.017 7.24827ZM329.017 6.68066C326.911 6.68066 325.049 8.13371 324.68 10.0579C324.561 10.6936 324.385 12.8562 327.234 13.9801C328.971 14.6783 333.353 17.6412 334.556 18.9353C335.283 19.7527 336.186 20.1841 337.156 20.1841C338.734 20.1841 340.267 19.0375 340.976 17.3347C341.714 15.5524 341.322 13.6509 339.926 12.2489C337.792 10.1091 333.103 7.78185 330.538 6.91908C330.033 6.76583 329.522 6.68066 329.017 6.68066Z" stroke="black" stroke-width="10"/>
<path d="M469.919 80.1738C462.194 82.6146 459.305 72.2558 466.848 70.3599C485.108 65.7566 503.487 46.9915 512.688 29.2026C515.606 23.5777 524.954 27.409 520.941 34.5722C509.652 54.9891 490.818 73.5782 469.919 80.1738Z" stroke="black" stroke-width="10"/>
<path d="M517.019 26.5002C520.357 26.5002 523.621 29.7923 520.947 34.5716C509.652 54.9885 490.819 73.572 469.919 80.1676C469.113 80.423 468.358 80.5365 467.666 80.5365C461.706 80.5365 460.094 72.0508 466.848 70.3537C485.108 65.7504 503.488 46.9852 512.688 29.1964C513.665 27.3289 515.351 26.5002 517.019 26.5002ZM517.019 25.9326C514.936 25.9326 513.177 27.0281 512.189 28.9409C507.506 37.9943 500.615 47.0022 492.782 54.3074C484.206 62.3106 475.192 67.6688 466.712 69.803C464.022 70.4785 461.502 72.6922 461.922 76.1205C462.217 78.5215 464.141 81.1041 467.666 81.1041C468.443 81.1041 469.261 80.9736 470.089 80.7068C480.074 77.5566 490.217 71.4208 499.418 62.9691C508.017 55.068 515.634 45.3448 521.441 34.844C522.712 32.5736 522.837 30.3486 521.799 28.5833C520.845 26.9486 519.012 25.9326 517.019 25.9326Z" stroke="black" stroke-width="10"/>
<path d="M475.613 42.6711C472.258 39.5776 466.451 36.9326 462.183 35.9279C456.734 34.6451 459.021 25.4782 465.918 27.3967C470.731 28.7647 477.537 31.2337 481.89 34.3272C484.7 36.3308 484.513 39.7819 483.06 41.865C481.607 43.9538 478.422 45.2196 475.613 42.6711Z" stroke="black" stroke-width="10"/>
<path d="M464.102 27.136C464.669 27.136 465.276 27.2211 465.924 27.397C470.737 28.765 477.543 31.2341 481.896 34.3275C484.706 36.3312 484.518 39.7823 483.065 41.8654C482.186 43.1255 480.676 44.0904 478.996 44.0904C477.9 44.0904 476.731 43.6818 475.618 42.6714C472.264 39.5779 466.457 36.9329 462.189 35.9282C457.251 34.7703 458.658 27.136 464.102 27.136ZM464.102 26.5684C460.878 26.5684 458.908 29.0261 458.624 31.4498C458.386 33.4988 459.356 35.8487 462.058 36.4845C466.071 37.4324 471.883 40.0036 475.232 43.0914C476.368 44.1188 477.667 44.658 478.996 44.658C480.732 44.658 482.469 43.7158 483.531 42.1946C485.228 39.7653 485.2 35.985 482.225 33.8678C477.111 30.2351 469.227 27.7547 466.077 26.8578C465.396 26.6649 464.732 26.5684 464.102 26.5684Z" stroke="black" stroke-width="10"/>
<path d="M541.608 62.4944C550.156 57.2383 557.16 47.8047 560.901 38.2802C563.637 31.2022 572.804 35.9416 570.068 41.9299C564.783 53.3672 557.683 63.4309 547.312 70.6793C541.222 74.9364 535.336 66.3882 541.608 62.4944ZM603.267 66.4109C600.56 57.6867 591.677 46.2324 585.779 41.1353C581.426 37.4061 587.522 30.8729 592.965 35.6976C600.855 42.7019 611.01 54.4343 613.172 62.7952C614.977 69.7938 605.436 73.5003 603.267 66.4109Z" stroke="black" stroke-width="10"/>
<path d="M588.907 33.9885C590.184 33.9885 591.597 34.4823 592.965 35.697C600.855 42.7013 611.01 54.4338 613.172 62.7946C614.296 67.1482 611.027 70.2246 607.876 70.2246C605.958 70.2246 604.09 69.0894 603.267 66.4103C600.56 57.6862 591.677 46.2318 585.779 41.1347C582.527 38.342 585.115 33.9885 588.907 33.9885ZM565.448 34.7321C568.66 34.7321 571.833 38.0696 570.068 41.9237C564.784 53.361 557.683 63.4247 547.313 70.673C546.149 71.4847 544.991 71.831 543.924 71.831C539.411 71.831 536.528 65.6384 541.602 62.4882C550.151 57.2321 557.155 47.7984 560.895 38.274C561.877 35.7538 563.671 34.7321 565.448 34.7321ZM588.907 33.4209C586.699 33.4209 584.729 34.7435 584.003 36.7131C583.361 38.4443 583.889 40.2606 585.416 41.5717C590.882 46.2999 599.947 57.6238 602.728 66.5863C603.534 69.2257 605.458 70.8036 607.876 70.8036C609.704 70.8036 611.492 69.9011 612.667 68.3912C613.893 66.8076 614.273 64.7756 613.728 62.6641C611.583 54.3827 601.661 42.6616 593.351 35.2827C591.972 34.0623 590.439 33.4209 588.907 33.4209ZM565.448 34.1645C563.183 34.1645 561.332 35.5892 560.373 38.0696C556.417 48.1504 549.288 57.1015 541.313 62.0056C540.047 62.7889 539.173 63.7823 538.713 64.9573C538.299 66.013 538.248 67.1652 538.566 68.2834C539.258 70.7071 541.466 72.3986 543.93 72.3986C545.195 72.3986 546.444 71.9729 547.642 71.1385C557.132 64.5032 564.636 55.0241 570.584 42.1621C571.419 40.3287 571.317 38.4443 570.289 36.8493C569.239 35.2202 567.338 34.1645 565.448 34.1645Z" stroke="black" stroke-width="10"/>
<path d="M606.343 18.5547C601.076 18.5434 596.802 22.8969 596.791 28.1643C596.779 33.4317 601.042 37.7058 606.309 37.7172C611.577 37.7285 615.942 33.4658 615.953 28.1984C615.964 22.931 611.611 18.5604 606.343 18.5547ZM606.321 32.813C603.778 32.8074 601.785 30.7185 601.785 28.1756C601.791 25.6328 603.789 23.5496 606.332 23.5496C608.875 23.5553 611.049 25.6441 611.049 28.187C611.049 30.7299 608.864 32.8187 606.321 32.813Z" stroke="black" stroke-width="10"/>
<path d="M606.327 32.8132C608.864 32.8132 611.043 30.7301 611.049 28.1872C611.055 25.6443 608.875 23.5498 606.332 23.5498H606.327C603.789 23.5498 601.791 25.633 601.786 28.1758C601.78 30.7187 603.778 32.8132 606.321 32.8132H606.327ZM606.327 32.8132L606.321 32.2456C604.13 32.24 602.353 30.4179 602.353 28.1758C602.359 25.9395 604.141 24.1174 606.327 24.1174C608.586 24.1231 610.487 25.9849 610.481 28.1872C610.476 30.3839 608.574 32.2456 606.327 32.2456V32.8132ZM606.327 18.5549C606.332 18.5549 606.338 18.5549 606.344 18.5549C611.611 18.5663 615.965 22.9312 615.953 28.1986C615.942 33.4603 611.588 37.7174 606.327 37.7174C606.321 37.7174 606.315 37.7174 606.31 37.7174C601.042 37.706 596.779 33.4319 596.791 28.1645C596.802 22.9028 601.071 18.5549 606.327 18.5549ZM606.327 17.9873C600.764 17.9873 596.235 22.5508 596.223 28.1645C596.212 33.7384 600.741 38.2736 606.31 38.285C611.94 38.285 616.509 33.7611 616.521 28.1986C616.532 22.5793 611.963 17.9987 606.344 17.9873H606.327Z" stroke="black" stroke-width="10"/>
<path d="M386.237 49.0629C385.153 45.5211 384.251 42.5184 383.53 40.248C382.536 37.251 384.08 35.253 386.175 34.8046C388.082 34.3562 390.443 35.446 391.164 37.9037C391.794 39.9925 392.697 42.9895 393.69 46.537L395.767 53.7173C398.475 62.8955 401.727 73.2544 403.896 79.2483C406.336 85.8837 397.975 88.682 396.08 82.3248C394.275 76.1435 391.204 65.6995 388.406 56.3397L386.237 49.0629Z" stroke="black" stroke-width="10"/>
<path d="M387.032 34.7024C388.735 34.7024 390.54 35.8035 391.158 37.898C391.788 39.9868 392.691 42.9838 393.684 46.5313L395.762 53.7116C398.469 62.8898 401.721 73.2486 403.89 79.2426C405.377 83.2783 402.862 85.895 400.24 85.895C398.549 85.895 396.817 84.8109 396.074 82.3191C394.269 76.1378 391.198 65.6938 388.4 56.3339L386.231 49.0629C385.147 45.521 384.245 42.5184 383.524 40.2479C382.531 37.2509 384.075 35.253 386.169 34.8046C386.447 34.7365 386.742 34.7024 387.032 34.7024ZM387.032 34.1348C386.691 34.1348 386.356 34.1745 386.038 34.2483C384.812 34.5151 383.802 35.2303 383.212 36.269C382.752 37.075 382.338 38.4542 382.99 40.4238C383.518 42.0926 384.154 44.1587 384.881 46.554L385.692 49.2218L387.86 56.4872C390.994 66.9596 394.274 78.1471 395.535 82.4723C396.409 85.4125 398.543 86.4569 400.246 86.4569C401.744 86.4569 403.158 85.7191 404.026 84.476C405.042 83.0229 405.184 81.093 404.429 79.0383C402.056 72.4824 398.679 61.5673 396.312 53.5413L394.235 46.3668C393.185 42.6262 392.22 39.4419 391.703 37.7277C390.971 35.2529 388.831 34.1348 387.032 34.1348Z" stroke="black" stroke-width="10"/>
<path d="M393.684 46.5318C399.684 44.5452 405.95 42.4677 412.04 40.5662C416.581 39.2096 422.212 41.6731 420.293 47.3038C418.193 53.4737 414.101 58.8262 409.549 62.8165C404.366 67.346 399.292 60.7107 403.929 56.902C406.478 54.9097 409.021 51.8276 410.389 48.9215L410.479 48.8306C406.756 49.9148 401.392 51.7197 395.761 53.7121L388.399 56.3344C384.585 57.691 381.038 59.0476 378.131 60.1317C372.768 62.1184 370.514 54.4897 375.6 52.7698C378.778 51.6857 382.326 50.42 386.231 49.0634L393.684 46.5318Z" stroke="black" stroke-width="10"/>
<path d="M414.555 40.2034C418.369 40.2034 421.866 42.6895 420.299 47.3041C418.199 53.474 414.107 58.8266 409.554 62.8169C408.317 63.8953 407.085 64.3437 405.995 64.3437C402.505 64.3437 400.404 59.8028 403.935 56.9023C406.484 54.91 409.026 51.828 410.394 48.9218L410.485 48.831C406.762 49.9151 401.398 51.7201 395.767 53.7124L388.405 56.3347C384.591 57.6913 381.043 59.0479 378.137 60.1321C377.53 60.3591 376.957 60.4613 376.434 60.4613C372.359 60.4613 371.099 54.2913 375.606 52.7701C378.784 51.686 382.332 50.4203 386.237 49.0637L393.69 46.5321C399.689 44.5455 405.956 42.468 412.046 40.5666C412.863 40.3225 413.715 40.2034 414.555 40.2034ZM414.555 39.6357C413.647 39.6357 412.744 39.7663 411.882 40.0217C405.763 41.9288 399.53 43.9949 393.508 45.9929L386.055 48.5244C384.438 49.0864 382.888 49.6313 381.401 50.1535C379.289 50.897 377.291 51.5952 375.424 52.2309C372.796 53.1164 371.939 55.4322 372.251 57.3281C372.609 59.502 374.329 61.0232 376.434 61.0232C377.047 61.0232 377.683 60.8983 378.336 60.6599C379.023 60.4045 379.744 60.1321 380.493 59.854C382.928 58.9401 385.686 57.9014 388.598 56.8683L395.96 54.246C401.545 52.2764 406.029 50.7722 409.322 49.7732C407.948 52.2026 405.797 54.7341 403.589 56.4596C401.801 57.924 401.125 60.0242 401.812 61.9427C402.459 63.7477 404.1 64.917 406.001 64.917C407.329 64.917 408.686 64.338 409.935 63.2482C415.032 58.7755 418.909 53.1789 420.844 47.4914C421.718 44.9258 421.054 43.2003 420.339 42.207C419.181 40.5949 417.018 39.6357 414.555 39.6357Z" stroke="black" stroke-width="10"/>
<path d="M47.6872 83.3691C43.6912 83.5451 38.7871 83.5338 33.9738 83.5281C29.2513 83.5224 24.5288 83.5111 20.8053 83.3237C12.9042 83.0399 9.00469 79.0326 8.74359 72.3121C8.57331 66.409 8.49952 56.5099 8.51655 46.6108C8.53358 37.8015 8.63575 28.9015 8.82873 22.8167C9.02172 17.0044 13.3866 13.1957 20.1979 12.9346C23.649 12.8495 29.5521 12.77 35.3644 12.7757C40.1777 12.7814 44.9002 12.8835 47.988 12.98C53.5279 13.173 58.8804 17.0838 59.0507 23.6227C59.221 29.1625 59.3005 38.2443 59.2834 47.326C59.2664 57.3159 59.1586 67.3058 58.9713 72.1192C58.7726 78.4821 54.2261 83.108 47.6872 83.3691ZM50.389 41.5932C50.4004 35.8717 50.3152 30.6043 50.2301 26.9716C50.0598 20.7052 48.6975 20.6144 34.1668 20.586C18.8186 20.5576 17.5472 20.6484 17.2634 26.9148C17.1669 30.6383 17.0647 35.8149 17.0591 41.5364L50.389 41.5932ZM17.0477 49.534C17.0364 57.1627 17.025 64.4281 17.1953 68.7873C17.3656 74.6904 18.3646 75.0537 33.8035 75.0821C37.3454 75.0877 40.9781 75.0934 43.3393 75.0083C48.4251 74.8323 49.9747 72.4768 50.162 68.5716C50.3493 64.0307 50.3606 56.8561 50.3777 49.5908L17.0477 49.534Z" fill="#FFF100"/>
<path d="M641.076 51.3962C637.807 51.3905 636.269 49.2109 636.269 47.0312C636.274 44.7608 638 42.3996 641.088 42.4053L698.121 42.5017C701.209 42.5074 702.747 44.7778 702.747 47.0483C702.741 49.2279 701.197 51.4983 698.11 51.4926L641.076 51.3962Z" fill="#00A0E9"/>
<path d="M143.261 66.1814L143.255 68.4519L143.335 75.4448C143.335 75.5357 143.335 75.5356 143.335 75.6264C143.329 80.349 140.139 86.5189 130.058 86.5018C122.974 86.4905 121.249 84.7593 121.255 81.9439C121.26 79.8551 122.532 77.7663 124.802 77.772C125.075 77.772 125.347 77.772 125.62 77.8629C127.254 78.2318 128.889 78.5043 130.342 78.5043C132.976 78.5099 134.883 77.511 134.889 73.9691C134.889 73.8783 134.889 73.8782 134.889 73.7874L134.809 66.0679L143.261 66.1814ZM134.826 58.9956L134.741 55.9077C134.741 55.0904 134.923 54.3639 135.292 53.819C132.476 53.9041 129.57 53.8984 126.664 53.8928C119.762 53.8814 112.769 53.6884 106.048 53.5862C99.8728 53.3933 96.7907 50.2998 96.6148 45.9406C96.5296 43.3069 96.5296 41.0364 96.5353 38.8568C96.541 36.6772 96.541 34.4976 96.6375 32.318C96.8248 28.7761 99.1917 25.0582 105.912 24.8879C109.182 24.8028 114.267 24.8141 119.807 24.8198L119.813 20.2789L128.531 20.296L128.526 24.8369C133.975 24.8482 139.333 24.8539 143.238 24.9504C148.324 25.0526 151.769 28.5093 152.036 31.8695C152.121 33.8675 152.212 35.9563 152.206 38.0451C152.201 40.6788 152.104 43.3125 152.013 45.8554C151.826 49.9422 148.369 53.4784 142.739 53.6487H142.466C142.92 54.1936 143.102 55.0109 143.096 55.9191L143.181 59.0069L134.826 58.9956ZM119.824 13.1952L119.83 9.5625C119.836 6.9288 122.015 5.57227 124.195 5.57227C126.374 5.57794 128.554 6.94016 128.548 9.57386L128.543 13.2066L119.824 13.1952ZM120.25 30.6321C115.437 30.6264 110.987 30.7059 108.08 30.7911C105.265 30.8762 104.17 32.4201 104.079 34.1457C104.079 34.7814 103.897 35.5079 103.891 36.1436L120.239 36.172L120.25 30.6321ZM120.233 41.8935L103.886 41.8651C103.886 42.5917 104.067 43.409 104.062 44.1355C104.238 46.7693 105.509 47.4958 108.143 47.5923C111.321 47.6888 115.681 47.6945 120.222 47.7058L120.233 41.8935ZM144.396 36.2118C144.396 35.576 144.305 34.8495 144.311 34.2138C144.135 30.6719 143.045 30.6719 128.06 30.6435L128.049 36.1833L144.396 36.2118ZM128.043 41.9049L128.032 47.7172C132.573 47.7229 136.841 47.7342 140.292 47.6491C142.653 47.6548 144.107 46.7465 144.294 44.2037C144.294 43.4771 144.476 42.6598 144.481 41.9332L128.043 41.9049Z" fill="#FFF100"/>
<path d="M143.261 66.1816L159.336 66.5733H159.427C161.879 66.5789 163.156 64.581 163.156 62.6738C163.161 60.7666 161.89 58.9502 159.347 58.9446L143.182 59.0071L134.826 58.9957L89.3269 58.8311C86.8748 58.8254 85.5977 60.8234 85.5977 62.7305C85.592 64.6377 86.7726 66.4541 89.2247 66.4598H89.3155L134.815 66.0794L143.261 66.1816Z" fill="#00A0E9"/>
<path d="M128.532 20.2956L155.504 20.4318C158.047 20.4375 159.234 18.6212 159.234 16.8048C159.239 14.9885 158.059 13.1722 155.516 13.1665L128.543 13.2119L119.825 13.1948L93.4875 13.0586C90.8538 13.0529 89.4859 14.8693 89.4859 16.6856C89.4802 18.502 90.8424 20.3183 93.4761 20.324L119.813 20.2786L128.532 20.2956Z" fill="#00A0E9"/>
<path d="M114.086 78.8507C111.276 76.3929 108.097 75.2975 105.191 74.3836C103.829 73.9295 103.284 72.834 103.29 71.6534C103.295 69.6554 104.839 67.385 107.2 67.3906C108.835 67.3906 120.636 69.9563 120.63 75.2237C120.624 77.5849 118.626 79.7588 116.447 79.7588C115.624 79.7588 114.806 79.4864 114.086 78.8507Z" fill="#00A0E9"/>
<path d="M205.221 41.9896C202.581 44.8901 199.579 47.609 196.4 50.0611L244.715 50.1405C247.076 50.1462 248.251 51.9625 248.251 53.7789C248.245 55.686 247.065 57.5024 244.704 57.4967L223.452 57.5535L223.441 65.0005L223.52 72.7199C223.52 72.8108 223.52 72.8108 223.52 72.9016C223.509 78.3507 219.144 84.3389 209.518 84.3219C203.16 84.3105 200.623 82.4885 200.623 79.3099C200.629 77.3119 201.991 75.4047 204.261 75.4104C204.625 75.4104 204.988 75.4104 205.351 75.5012C206.532 75.7737 207.894 75.961 209.075 75.961C212.253 75.9667 215.069 74.7917 215.074 70.9774L215.097 57.5364L196.116 57.4116C193.664 57.4059 192.398 55.4988 192.398 53.6824C192.398 53.3191 192.398 52.9559 192.489 52.6834C188.851 54.9482 184.219 57.1221 182.403 57.1164C180.042 57.1107 178.231 55.1128 178.231 53.1148C178.231 51.6617 179.145 50.2086 181.415 49.4878C186.507 47.7679 191.229 44.7823 195.327 41.1552C193.783 40.2414 192.33 39.6965 190.792 39.2424C189.157 38.6975 188.527 37.5112 188.527 36.2397C188.533 34.2418 190.168 32.153 192.438 32.1587C194.345 32.1643 197.7 34.0772 200.424 35.9843C201.605 34.6221 202.701 33.2655 203.7 31.9033C201.974 30.8078 200.436 30.2628 198.801 29.7179C197.166 29.1673 196.536 27.9868 196.536 26.7153C196.542 24.8082 198.177 22.7193 200.356 22.725C201.719 22.725 204.716 23.9113 207.707 25.915C208.893 23.7354 210.534 20.5625 210.534 19.8359C210.534 19.0186 209.535 18.7461 208.899 18.7404C206.901 18.7347 202.905 18.8199 199.635 18.905C197.813 21.5387 187.982 35.1443 182.715 35.1329C180.445 35.1273 178.628 33.4925 178.634 31.4945C178.634 30.2231 179.366 28.8608 181.092 27.5951C187.818 22.7023 193.097 15.9932 196.837 8.09774C197.66 6.28139 199.022 5.56055 200.385 5.56055C202.474 5.56622 204.557 7.29173 204.557 9.65298C204.557 10.2887 204.375 11.0152 203.915 11.8326L203.552 12.5591C206.912 12.474 210.545 12.3889 212.361 12.3946C215.177 12.4003 217.084 13.2176 218.168 14.4039C218.168 14.1314 218.077 13.9498 218.077 13.6773C218.083 11.4069 220.172 9.86868 222.079 9.86868C223.441 9.86868 224.712 10.6009 225.342 12.054C227.965 17.7811 231.138 23.5992 235.486 28.7814C236.757 27.3283 242.768 20.3467 242.768 19.1661C242.768 18.3487 241.678 18.0763 240.77 18.0707L232.596 18.1501H232.506C230.054 18.1444 228.788 16.4189 228.788 14.6933C228.794 11.0607 232.154 11.0663 235.242 11.072C238.874 11.0777 243.597 11.1742 245.413 11.1799C250.953 11.1912 253.399 13.9157 253.394 17.0943C253.394 18.6382 252.752 20.3637 251.572 21.9076C250.3 23.4515 244.471 30.3423 240.651 34.3326C244.732 38.1526 249.63 41.5242 255.528 44.3452C257.435 45.2591 258.247 46.803 258.247 48.256C258.241 50.6173 256.243 52.8821 253.337 52.8821C247.161 52.8707 228.663 36.4044 219.519 17.7698C219.519 17.9514 219.519 18.0422 219.519 18.2239C219.513 22.2198 213.593 31.5627 209.313 37.1877L205.221 41.9896ZM186.717 80.4678C184.083 80.4621 182.182 78.1917 182.182 76.0121C182.182 74.559 183.095 73.1059 185.093 72.3851C190.73 70.3984 195.73 66.8622 199.55 62.1454C200.368 61.1464 201.367 60.6924 202.366 60.698C204.545 60.7037 206.719 62.7925 206.719 65.0629C206.719 65.8803 206.356 66.6977 205.715 67.515C201.719 72.2262 190.803 80.4735 186.717 80.4678Z" fill="#FFF100"/>
<path d="M244.937 78.3844C241.582 74.292 235.776 70.9204 230.695 68.3719C229.152 67.6453 228.521 66.3682 228.521 65.0967C228.527 63.0988 230.162 61.1916 232.432 61.1973C234.884 61.203 246.225 66.9414 251.124 71.9477C252.213 73.0376 252.662 74.309 252.662 75.4896C252.656 77.9417 250.567 80.1156 248.206 80.1156C247.116 80.1156 245.936 79.565 244.937 78.3844Z" fill="#00A0E9"/>
<path d="M234.373 40.6791C234.368 42.4955 233.278 44.221 230.917 44.2153L208.099 44.1756C205.737 44.1699 204.653 42.4444 204.653 40.6281C204.659 38.9025 205.749 37.177 208.11 37.1826L230.928 37.2224C233.289 37.2224 234.379 38.9536 234.373 40.6791Z" fill="#00A0E9"/>
<path d="M288.864 53.802C285.509 51.6167 281.332 49.7946 277.608 49.1533C272.159 48.2337 273.902 39.6118 280.526 40.8946C284.794 41.7176 289.693 43.1821 293.779 45.4582C296.686 47.0078 297.043 50.1863 295.857 52.2751C294.676 54.449 291.861 55.7148 288.864 53.802ZM288.819 82.3186C281.638 84.6685 278.658 74.8546 285.839 72.9588C303.923 68.083 324.118 48.1372 333.682 30.0816C336.691 24.4566 345.767 28.1972 341.754 35.3604C330.095 56.1406 309.445 75.5414 288.819 82.3186ZM299.427 37.6536C296.618 34.7417 292.99 32.1023 289.539 30.6435C284.368 28.5434 288.013 20.472 294.182 23.2022C298.173 25.0242 302.804 27.6693 306.25 30.7628C308.696 32.9481 308.327 36.0359 306.693 37.8465C305.058 39.6629 301.879 40.2021 299.427 37.6536Z" fill="#FFF100"/>
<path d="M319.163 21.1597C314.537 19.2469 318.175 13.8035 322.353 15.3531C324.805 16.267 329.34 18.6339 331.332 20.8192C334.869 24.6392 329.59 30.1734 326.598 26.6258C325.424 25.167 320.979 21.9771 319.163 21.1597Z" fill="#00A0E9"/>
<path d="M327.444 13.4514C322.818 11.6294 326.093 6.09517 330.362 7.46311C332.814 8.28614 337.44 10.5623 339.523 12.6567C343.15 16.2951 338.053 22.0109 334.971 18.5542C333.699 17.1863 329.255 14.1836 327.444 13.4514Z" fill="#00A0E9"/>
<path d="M469.92 80.1738C462.194 82.6146 459.305 72.2558 466.849 70.3599C485.109 65.7566 503.488 46.9915 512.689 29.2026C515.606 23.5777 524.955 27.409 520.942 34.5722C509.652 54.9891 490.819 73.5782 469.92 80.1738Z" fill="#FFF100"/>
<path d="M475.613 42.673C472.258 39.5796 466.451 36.9345 462.183 35.9298C456.734 34.647 459.021 25.4802 465.918 27.3987C470.731 28.7666 477.537 31.2357 481.89 34.3291C484.7 36.3328 484.513 39.7839 483.06 41.867C481.607 43.9558 478.422 45.2216 475.613 42.673Z" fill="#00A0E9"/>
<path d="M541.608 62.4924C550.156 57.2364 557.16 47.8027 560.901 38.2783C563.637 31.2002 572.804 35.9397 570.068 41.928C564.783 53.3653 557.683 63.429 547.312 70.6773C541.222 74.9344 535.336 66.3862 541.608 62.4924ZM603.267 66.4089C600.56 57.6848 591.677 46.2304 585.779 41.1333C581.426 37.4041 587.522 30.871 592.965 35.6956C600.855 42.6999 611.009 54.4324 613.172 62.7933C614.977 69.7919 605.436 73.4983 603.267 66.4089Z" fill="#FFF100"/>
<path d="M606.344 18.5537C601.077 18.5424 596.803 22.8959 596.792 28.1633C596.78 33.4307 601.043 37.7048 606.31 37.7162C611.578 37.7276 615.943 33.4648 615.954 28.1974C615.965 22.93 611.612 18.5594 606.344 18.5537ZM606.322 32.8121C603.779 32.8064 601.786 30.7176 601.786 28.1747C601.792 25.6318 603.79 23.5486 606.333 23.5486C608.876 23.5543 611.05 25.6431 611.05 28.186C611.05 30.7289 608.865 32.8177 606.322 32.8121Z" fill="#00A0E9"/>
<path d="M386.238 49.0629C385.154 45.5211 384.251 42.5184 383.53 40.248C382.537 37.251 384.081 35.253 386.175 34.8046C388.082 34.3562 390.444 35.446 391.165 37.9037C391.795 39.9925 392.697 42.9895 393.69 46.537L395.768 53.7173C398.475 62.8955 401.728 73.2544 403.896 79.2483C406.337 85.8837 397.976 88.682 396.08 82.3248C394.275 76.1435 391.204 65.6995 388.406 56.3397L386.238 49.0629Z" fill="#FFF100"/>
<path d="M393.685 46.5308C399.685 44.5442 405.951 42.4667 412.041 40.5652C416.582 39.2087 422.213 41.6722 420.294 47.3028C418.194 53.4727 414.102 58.8253 409.55 62.8155C404.367 67.3451 399.293 60.7097 403.93 56.901C406.479 54.9087 409.022 51.8267 410.39 48.9205L410.48 48.8297C406.757 49.9138 401.393 51.7188 395.762 53.7111L388.4 56.3334C384.586 57.69 381.039 59.0466 378.132 60.1308C372.769 62.1174 370.515 54.4887 375.601 52.7688C378.779 51.6847 382.327 50.419 386.232 49.0624L393.685 46.5308Z" fill="#00A0E9"/>
</svg>
