<svg width="396" height="92" viewBox="0 0 396 92" fill="none" xmlns="http://www.w3.org/2000/svg">
<path d="M8.07627 90.1976C4.73038 90.1976 1.80273 87.5007 1.80273 84.4216C1.80273 83.2967 2.20655 81.631 4.1463 80.1023C11.3933 74.5714 12.3235 65.9111 12.3235 58.9886C12.3235 56.6522 12.237 54.424 12.1577 52.5203V52.1165C12.1577 48.1216 15.2656 44.0475 22.217 43.9393C27.8487 43.7734 34.1006 43.7734 40.7203 43.7734C47.1669 43.7734 53.837 43.7734 59.7428 43.9393C70.278 44.2349 70.278 49.8739 70.278 57.0055C70.278 63.9858 68.4609 68.06 59.1515 68.2474C52.4742 68.4133 44.8233 68.4998 36.4153 68.4998C34.1006 68.4998 31.7066 68.4782 29.2549 68.4566C27.2142 68.4421 25.1374 68.4205 23.039 68.4133C20.7387 81.3281 13.4773 90.1976 8.07627 90.1976ZM23.8827 58.4477C27.8055 58.4982 31.584 58.5054 35.2688 58.5054V53.5876C31.7715 53.6092 28.3823 53.6813 25.3465 53.7462C23.8827 53.7462 23.8827 53.9986 23.8827 54.5106V58.4477ZM46.7414 58.4766C50.5993 58.4045 54.212 58.3324 57.5723 58.2603C58.6684 58.217 58.791 58.217 58.791 56.0032C58.791 55.3398 58.7116 54.662 58.6395 54.0707C58.6323 54.0418 58.6323 54.0202 58.6251 53.9986C57.5867 53.6164 53.4332 53.5876 46.7414 53.5803V58.4766Z" fill="black"/>
<path d="M40.7131 45.5693C47.2534 45.5693 53.801 45.5693 59.6851 45.7352C68.4681 45.9804 68.4681 49.8743 68.4681 56.9987C68.4681 63.3732 67.1413 66.2792 59.1082 66.4451C52.402 66.6109 44.6935 66.6903 36.4081 66.6903C31.685 66.6903 26.6373 66.6109 21.4959 66.6109C19.5922 79.944 12.3019 88.3952 8.07628 88.3952C5.67503 88.3952 3.60548 86.4916 3.60548 84.422C3.60548 83.4269 4.10304 82.4318 5.264 81.5232C12.9653 75.6391 14.1263 66.6975 14.1263 58.9889C14.1263 56.667 14.047 54.4316 13.9604 52.4414C13.9604 52.3621 13.9604 52.2755 13.9604 52.1097C13.9604 48.5475 16.9458 45.8145 22.2458 45.728C27.8776 45.5693 34.2521 45.5693 40.7131 45.5693ZM44.9387 60.3086C49.496 60.2292 53.7217 60.1427 57.6156 60.0634C59.851 59.9841 60.6009 59.1548 60.6009 56.0036C60.6009 55.2609 60.5216 54.5109 60.4351 53.8475C60.1034 51.778 59.2741 51.778 44.9459 51.778V60.3086M37.0715 60.3086V51.778C33.0118 51.778 29.1179 51.8573 25.3105 51.9438C23.4068 51.9438 22.08 52.5207 22.08 54.5109C22.08 55.6719 22.08 56.9122 22.08 58.239C22.08 58.9024 22.08 59.5658 22.08 60.2292C27.2935 60.3086 32.3484 60.3086 37.0715 60.3086ZM40.7131 41.9639C34.3819 41.9639 27.8415 41.9639 22.1593 42.1297C15.2079 42.2451 10.3549 46.3481 10.3549 52.1097V52.4414V52.5135V52.5856C10.4343 54.4749 10.5208 56.6814 10.5208 58.9817C10.5208 65.897 9.63384 73.6344 3.07187 78.646L3.05024 78.6604L3.0286 78.6749C0.5264 80.6507 0 82.8861 0 84.4148C0 88.525 3.69922 91.9935 8.07628 91.9935C14.1046 91.9935 21.7555 83.3692 24.5173 70.2164C26.1109 70.2236 27.6829 70.238 29.2332 70.2525C31.7282 70.2741 34.079 70.2957 36.4081 70.2957C44.8233 70.2957 52.4886 70.2092 59.1948 70.0433C69.8814 69.8198 72.0735 64.6712 72.0735 56.9987C72.0735 53.0904 72.0735 49.7157 70.4871 46.9827C68.0859 42.8364 63.2329 42.2307 59.7861 42.1297C53.8515 41.9639 47.1741 41.9639 40.7131 41.9639ZM48.5442 56.6382V55.3835C52.503 55.3907 55.4162 55.4195 56.9738 55.5493C56.981 55.7007 56.9882 55.8522 56.9882 55.9964C56.9882 56.1695 56.9882 56.3281 56.981 56.4651C54.3202 56.5228 51.5079 56.5805 48.5442 56.6382ZM25.6854 55.5421C28.1083 55.4916 30.7475 55.4339 33.4661 55.4051V56.7031C30.9278 56.7031 28.3319 56.6886 25.6854 56.667V55.5421Z" fill="black"/>
<path d="M16.0302 42.4825C12.6699 42.4825 10.9176 39.9082 10.9176 37.37C10.9176 34.9327 12.7131 32.3367 16.0302 32.3367L34.6849 32.4088V31.0604L9.82155 31.1325C6.43961 31.1325 4.61523 28.4933 4.61523 26.0199C4.61523 23.5466 6.43961 20.9074 9.81434 20.9074L34.5984 20.9867V18.1528C34.5984 14.2516 37.7135 12.2109 40.7926 12.2109C44.4414 12.2109 46.9868 14.6555 46.9868 18.1528L46.9364 20.9074H71.6916C74.9582 20.9074 76.7248 23.5466 76.7248 26.0199C76.7248 28.4933 74.9582 31.1325 71.6916 31.1325L46.9075 31.0604V32.4088L65.3099 32.3367C68.7495 32.3367 70.5955 34.9327 70.5955 37.37C70.5955 39.8505 68.7423 42.4825 65.3171 42.4825H16.0302Z" fill="black"/>
<path d="M40.7998 14.0068C43.0352 14.0068 45.1913 15.3337 45.1913 18.1459L45.112 22.7033H71.6988C73.8549 22.7033 74.9293 24.3618 74.9293 26.0131C74.9293 27.6716 73.8549 29.3229 71.6988 29.3229L45.112 29.2436V34.212L65.3243 34.1326C67.6462 34.1326 68.8 35.7912 68.8 37.3631C68.8 39.0217 67.639 40.673 65.3243 40.673H16.0302C13.7948 40.673 12.7204 39.0145 12.7204 37.3631C12.7204 35.7912 13.7948 34.1326 16.0302 34.1326L36.4877 34.212V29.2436L9.82155 29.3301C7.58616 29.3301 6.42519 27.6716 6.42519 26.0203C6.42519 24.3618 7.58616 22.7105 9.82155 22.7105L36.4084 22.7898V18.1532C36.4084 15.3337 38.6438 14.0068 40.7998 14.0068ZM40.7998 10.4014C36.2425 10.4014 32.8029 13.7328 32.8029 18.1459V19.1699L9.82876 19.0978C5.82668 19.0978 2.8125 22.0687 2.8125 26.0131C2.8125 29.9575 5.81947 32.9284 9.81434 32.9284H10.6869C9.64849 34.1903 9.10767 35.7984 9.10767 37.3631C9.10767 41.3075 12.0786 44.2785 16.023 44.2785H65.3099C69.9105 44.2785 72.3911 40.7162 72.3911 37.3631C72.3911 35.7984 71.843 34.1975 70.7758 32.9284H71.67C75.5783 32.9284 78.5204 29.9575 78.5204 26.0131C78.5204 22.0687 75.5783 19.0978 71.6844 19.0978H48.7752L48.7896 18.2108V18.1748V18.1387C48.7968 13.6607 45.4293 10.4014 40.7998 10.4014Z" fill="black"/>
<path d="M116.717 90.1113C113.457 90.1113 111.438 87.3279 111.438 84.7463C111.438 84.6598 111.438 84.5733 111.446 84.4795C110.89 84.6382 110.407 84.7247 110.011 84.7247C106.852 84.7247 104.898 82.2009 104.898 79.8573C104.898 77.9536 106.117 76.2663 108.085 75.4586C113.284 73.2593 119.19 69.3437 124.598 64.5484C122.385 63.2288 121.303 60.9213 121.303 57.5754C121.303 52.1023 121.303 48.4824 126.084 48.4824C128.86 48.4824 130.951 50.2924 130.951 52.6864C130.951 53.7176 130.922 54.9074 130.893 55.8232C130.879 56.3496 130.865 56.7822 130.865 57.0346C131.189 57.0995 131.853 57.1788 133.201 57.1788C135.271 57.1788 137.614 57.1788 138.011 56.8183C138.011 56.8183 138.104 56.6597 138.104 56.0828C138.104 53.6094 139.972 51.8788 142.64 51.8788C145.113 51.8788 147.673 53.4796 147.673 56.1693C147.673 61.0583 146.051 63.3947 143.549 64.5701C144.443 64.5629 145.099 64.5557 145.373 64.5557C150.803 64.5557 152.728 67.6708 152.728 70.3316C152.728 73.1655 150.716 75.4082 147.428 77.9536C150.76 78.5161 154.718 78.8261 159.398 78.8838C161.958 78.8838 163.912 80.975 163.912 83.7512C163.912 86.4193 161.958 89.1162 158.216 89.1162C149.894 89.1162 142.308 87.6668 136.201 84.9194C125.442 90.0536 116.803 90.1113 116.717 90.1113ZM124.901 76.6196C123.56 77.6436 122.125 78.6603 120.69 79.6121C122.644 79.3237 124.577 78.9055 126.444 78.3719C125.903 77.8094 125.392 77.2253 124.901 76.6196ZM135.22 73.3747C135.516 73.5982 135.826 73.8073 136.136 74.0092C136.482 73.7785 136.792 73.5694 137.066 73.3674C136.532 73.3747 135.92 73.3747 135.22 73.3747Z" fill="black"/>
<path d="M126.077 50.2852C127.569 50.2852 129.141 51.1144 129.141 52.6864C129.141 54.3449 129.055 56.4145 129.055 57.0779C129.055 58.484 129.552 58.9816 133.194 58.9816C138.083 58.9816 139.9 58.9816 139.9 56.0828C139.9 54.4243 141.227 53.6815 142.633 53.6815C144.205 53.6815 145.863 54.5901 145.863 56.1693C145.863 63.4596 142.222 63.7048 135.674 64.123C135.508 64.534 135.177 65.0316 134.679 65.5291L133.605 66.5243C137.83 66.4449 144.291 66.3584 145.366 66.3584C149.173 66.3584 150.918 68.1828 150.918 70.3316C150.918 72.8987 148.517 75.0548 143.13 78.8622C147.356 80.0232 152.743 80.6 159.37 80.6866C161.107 80.6866 162.103 82.1792 162.103 83.7512C162.103 85.4891 160.862 87.3134 158.209 87.3134C149.591 87.3134 142.056 85.7415 136.172 82.922C126.978 87.4793 118.779 88.3086 116.71 88.3086C114.553 88.3086 113.234 86.4842 113.234 84.7463C113.234 83.3402 114.142 81.9269 116.378 81.8475C121.267 81.6024 125.903 80.6073 129.963 79.1146C128.06 77.6219 126.488 75.8841 125.24 74.0597C118.945 79.1146 111.986 82.922 109.996 82.922C108.006 82.922 106.686 81.35 106.686 79.8573C106.686 78.7829 107.35 77.7012 108.756 77.1244C115.217 74.3914 122.255 69.3365 127.973 63.8706C124.411 63.2072 123.084 61.217 123.084 57.5754C123.091 52.1095 123.091 50.2852 126.077 50.2852ZM136.179 76.1365C137.34 75.3937 141.147 72.9059 141.147 71.9108C141.147 71.6657 140.982 71.4998 140.736 71.4998C140.65 71.4998 140.65 71.4998 140.571 71.4998C140.239 71.5791 134.773 71.5791 130.713 71.5791C132.206 73.317 133.944 74.889 136.179 76.1365ZM126.077 46.6797C121.988 46.6797 120.539 49.2324 120.041 50.7611C119.493 52.4485 119.493 54.4892 119.493 57.5754C119.493 60.8348 120.438 63.063 121.808 64.5701C116.998 68.6082 111.9 71.882 107.364 73.8073C104.739 74.889 103.095 77.2109 103.095 79.8645C103.095 83.4916 106.117 86.4553 109.859 86.5347C110.645 89.6282 113.421 91.9213 116.724 91.9213C119.803 91.9213 127.634 90.854 136.23 86.9024C142.431 89.5344 149.988 90.9261 158.223 90.9261C161.857 90.9261 165.722 88.4167 165.722 83.7584C165.722 80.0304 162.953 77.1027 159.413 77.0883C156.536 77.0523 153.947 76.9225 151.618 76.6917C153.478 74.7664 154.538 72.7834 154.538 70.3388C154.538 67.1228 152.483 63.8778 147.955 62.9909C148.914 61.3756 149.483 59.1763 149.483 56.1693C149.483 52.7513 146.484 50.076 142.647 50.076C139.244 50.076 136.713 52.2393 136.352 55.3256C135.523 55.3761 134.311 55.3761 133.208 55.3761C133.028 55.3761 132.862 55.3761 132.711 55.3689C132.732 54.5252 132.754 53.5662 132.754 52.6792C132.747 49.2684 129.877 46.6797 126.077 46.6797Z" fill="black"/>
<path d="M112.736 68.2403C110.01 68.2403 107.703 66.1275 107.703 63.6181C107.703 61.8586 108.727 60.3299 110.522 59.4357C111.589 58.8733 113.868 56.609 114.344 55.2389C115.072 53.2992 116.565 52.2031 118.447 52.2031C121.173 52.2031 123.567 54.4025 123.567 56.9047C123.574 60.4741 117.394 68.2403 112.736 68.2403Z" fill="black"/>
<path d="M118.454 54.0127C120.113 54.0127 121.771 55.3395 121.771 56.9115C121.771 59.6445 116.219 66.4372 112.743 66.4372C110.919 66.4372 109.513 65.0311 109.513 63.6177C109.513 62.7091 110.01 61.714 111.337 61.0506C112.743 60.3079 115.397 57.7408 116.06 55.8299C116.551 54.5103 117.459 54.0127 118.454 54.0127ZM118.454 50.4072C115.815 50.4072 113.652 51.9648 112.678 54.568L112.664 54.6112L112.649 54.6545C112.361 55.491 110.515 57.3946 109.671 57.8562C107.313 59.0532 105.907 61.2092 105.907 63.6249C105.907 67.1078 109.037 70.0499 112.743 70.0499C116.305 70.0499 119.601 66.9564 121.252 65.1104C122.492 63.7187 125.377 60.142 125.377 56.9187C125.377 53.3926 122.204 50.4072 118.454 50.4072Z" fill="black"/>
<path d="M100.146 90.1113C96.8432 90.1113 94.5357 87.9048 94.5357 84.7464L95.3938 49.7804C93.6992 51.6192 92.0047 52.7513 89.7909 52.7513C86.7046 52.7513 84.0942 50.2563 84.0942 47.3071C84.0942 45.8793 84.6423 44.5453 85.7239 43.3627C93.1512 35.4595 97.8888 27.7581 102.107 16.7614C103.001 14.526 104.898 13.1992 107.184 13.1992C110.27 13.1992 113.71 15.6726 113.71 19.2276C113.71 20.129 113.71 21.636 107.155 32.8202L106.088 84.7031C105.972 88.2221 102.936 90.1113 100.146 90.1113Z" fill="black"/>
<path d="M107.191 15.002C109.426 15.002 111.914 16.8263 111.914 19.2276C111.914 19.8045 111.748 21.463 105.374 32.3155L104.299 84.6671C104.22 87.0683 102.143 88.3086 100.16 88.3086C98.1702 88.3086 96.353 87.1476 96.353 84.7464V84.6671L97.3481 44.4083C94.1176 48.7997 92.3798 50.9486 89.8127 50.9486C87.6566 50.9486 85.9187 49.2108 85.9187 47.3071C85.9187 46.3985 86.2504 45.4827 87.0797 44.5741C94.781 36.3753 99.5907 28.4216 103.809 17.4032C104.458 15.7447 105.785 15.002 107.191 15.002ZM107.191 11.3965C104.184 11.3965 101.603 13.1848 100.449 16.062L100.442 16.0836L100.434 16.1052C96.3097 26.864 91.6731 34.3994 84.4405 42.0935L84.4189 42.1152L84.3972 42.1368C83.0055 43.6655 82.2988 45.4034 82.2988 47.2926C82.2988 51.2226 85.7312 54.5397 89.7982 54.5397C91.1899 54.5397 92.4014 54.208 93.5047 53.6239L92.7403 84.5589V84.6022V84.6454V84.7247C92.7403 88.8783 95.8626 91.8924 100.153 91.8924C104.429 91.8924 107.761 88.8278 107.898 84.768V84.7464V84.7247L108.958 33.3106C115.52 22.0687 115.52 20.4895 115.52 19.2132C115.52 14.6126 111.128 11.3965 107.191 11.3965Z" fill="black"/>
<path d="M155.317 66.3373C153.608 66.3373 152.094 65.4575 151.07 63.8495C149.808 61.7727 148.07 59.7465 146.397 58.398L146.332 58.3403C145.214 57.3452 144.652 56.2275 144.652 55.0089C144.652 53.4297 145.611 52.0019 147.017 51.2159C144.738 51.1943 142.258 51.1871 139.727 51.1871C140.397 52.1317 140.888 53.2133 140.888 54.3527C140.888 56.8549 138.688 59.0542 136.186 59.0542C134.715 59.0542 133.424 58.3115 132.653 57.0207C131.701 55.4559 130.201 54.1291 129.48 53.4946L129.35 53.3792C128.651 52.7951 128.189 52.0235 128.045 51.1871C124.512 51.1871 121.216 51.2015 118.498 51.2664C117.618 51.288 117.178 51.3817 116.976 51.4394C116.962 51.5764 116.947 51.7567 116.94 51.9082V54.6844C116.94 57.5255 114.214 59.2201 111.575 59.2201C108.518 59.2201 106.29 57.2803 106.29 54.5978V51.9442C106.29 49.4853 106.29 42.9594 115.109 42.8512H115.895C115.895 38.7121 115.902 34.3567 115.981 31.5228C116.06 28.5879 117.524 27.0015 119.5 26.1434L115.31 26.165C112.138 26.165 110.436 23.6989 110.436 21.3769C110.436 19.055 112.145 16.5889 115.303 16.5889H155.973C159.24 16.5889 161.006 19.055 161.006 21.3769C161.006 23.6989 159.24 26.165 155.973 26.165L149.065 26.1362C152.404 27.5928 152.937 30.2536 152.973 31.6021C153.06 33.1813 153.06 35.2364 153.06 37.616C153.06 39.3394 153.06 41.1061 153.024 42.8512H153.24C158.944 42.9882 162.571 45.7788 162.744 50.1343V54.5113L162.737 54.5906C162.571 56.4727 161.36 57.9798 159.615 58.6937C160.047 59.4797 160.336 60.345 160.336 61.3112C160.35 64.037 158.043 66.3373 155.317 66.3373Z" fill="black"/>
<path d="M155.981 18.3984C158.137 18.3984 159.211 19.8911 159.211 21.3838C159.211 22.8765 158.137 24.3691 155.981 24.3691L137.34 24.2898C137.095 25.1984 136.763 26.1142 136.511 26.8569C139.655 26.8569 142.64 26.8569 143.881 26.9362C148.517 27.1021 151.084 28.7606 151.171 31.6594C151.25 33.2314 151.25 35.3009 151.25 37.6229C151.25 39.9448 151.25 42.346 151.171 44.6608H153.24C156.716 44.7401 160.776 46.0669 160.942 50.2132C160.942 54.4388 160.942 54.4388 160.942 54.4388C160.776 56.3425 159.038 57.3376 157.3 57.3376C156.889 57.3376 156.471 57.2583 156.139 57.1718C157.379 58.4986 158.54 59.8254 158.54 61.3109C158.54 63.1353 156.968 64.5414 155.31 64.5414C154.315 64.5414 153.32 64.0438 152.577 62.8829C151.171 60.5609 149.267 58.4121 147.522 56.9987C146.779 56.3353 146.448 55.6719 146.448 55.0085C146.448 53.6024 147.854 52.3549 149.512 52.3549C151.005 52.3549 152.166 53.4293 153.651 54.7561V51.6915C153.572 49.8671 152.988 49.4561 150.587 49.4561C146.282 49.3767 140.729 49.3767 135.177 49.3767C136.172 50.0401 139.071 52.2755 139.071 54.3451C139.071 55.9171 137.578 57.2439 136.172 57.2439C135.429 57.2439 134.679 56.9122 134.182 56.0829C133.021 54.1792 131.283 52.6866 130.54 52.0232C130.043 51.6121 129.798 51.1146 129.798 50.617C129.798 50.206 129.963 49.7878 130.295 49.3767C125.904 49.3767 121.765 49.3767 118.447 49.4561C115.217 49.5354 115.217 50.4512 115.138 51.8573C115.138 51.8573 115.138 51.8573 115.138 54.5903V54.6696C115.138 56.4074 113.313 57.4025 111.575 57.4025C109.838 57.4025 108.1 56.494 108.1 54.5831C108.1 53.5086 108.1 52.8452 108.1 51.9294C108.1 48.8648 108.345 44.7257 115.138 44.6391H117.705C117.705 40.0818 117.705 34.7818 117.784 31.5512C117.863 28.4866 119.774 27.1598 124.908 26.9146C125.738 26.9146 127.31 26.8353 129.213 26.8353C129.379 26.1719 129.545 25.3426 129.79 24.2682L115.296 24.3475C113.306 24.3475 112.232 22.8548 112.232 21.3622C112.232 19.8695 113.306 18.3768 115.296 18.3768H155.981M124.584 33.3107H144.378C144.378 32.979 144.299 32.6473 144.299 32.4021C144.133 30.9095 144.133 30.7436 134.276 30.7436C125.911 30.7436 124.663 30.7436 124.663 32.4021L124.584 33.3107ZM124.584 39.0218H144.378V36.4547H124.584V39.0218ZM124.671 44.5742C127.901 44.4949 131.132 44.4949 134.449 44.4949C137.758 44.4949 141.075 44.4949 144.227 44.5742L144.306 42.0865H124.591L124.671 44.5742ZM155.981 14.793H115.311C111.568 14.793 108.641 17.6846 108.641 21.3838C108.641 24.9748 111.402 27.8015 114.986 27.9674C114.517 28.9192 114.229 30.0802 114.186 31.4791C114.121 33.9381 114.106 37.5075 114.106 41.0986C110.35 41.3437 107.638 42.7427 106.037 45.2521C104.501 47.6677 104.501 50.4584 104.501 51.951V54.6047C104.501 58.2679 107.544 61.0297 111.583 61.0297C115.599 61.0297 118.75 58.2462 118.75 54.6912V54.6119V53.076C121.079 53.0183 123.82 53.0039 126.776 53.0039C127.115 53.6601 127.591 54.2586 128.197 54.7778L128.29 54.8643C128.997 55.4844 130.302 56.6454 131.117 57.9866C132.213 59.8182 134.066 60.8782 136.186 60.8782C139.655 60.8782 142.691 57.8352 142.691 54.3739C142.691 54.0422 142.655 53.5807 142.525 53.0183C142.756 53.0183 142.994 53.0183 143.224 53.0183C142.986 53.6528 142.857 54.3307 142.857 55.0373C142.857 56.2488 143.253 58.0371 145.142 59.7173L145.207 59.7749L145.272 59.8254C146.772 61.0369 148.395 62.9333 149.512 64.7721L149.534 64.8082L149.556 64.8443C150.911 66.9499 153.01 68.1541 155.324 68.1541C159.031 68.1541 162.16 65.0245 162.16 61.3181C162.16 60.6691 162.067 60.0634 161.901 59.4865C163.393 58.376 164.374 56.7103 164.547 54.7561L164.562 54.5975V54.4388V50.2132V50.1411V50.069C164.367 45.1728 160.61 41.7836 154.863 41.1562C154.87 39.9664 154.87 38.7838 154.87 37.6229C154.87 35.236 154.87 33.1665 154.783 31.508C154.755 30.758 154.582 29.3807 153.788 27.9674L155.966 27.9746C160.422 27.9746 162.816 24.5782 162.816 21.3838C162.816 18.1893 160.422 14.793 155.981 14.793Z" fill="black"/>
<path d="M187.031 86.1383C183.173 86.1383 180.815 83.4558 180.469 80.8094C180.173 78.5307 181.305 75.4805 185.451 74.3916C199.909 70.4977 210.877 61.6066 214.778 50.6027C214.995 50.0186 215.038 49.7085 215.045 49.5643C214.887 49.4994 214.504 49.384 213.697 49.3624C211.937 49.3263 209.788 49.3119 207.322 49.3119C199.34 49.3119 188.307 49.5066 181.089 49.7806C180.981 49.7878 180.865 49.7878 180.75 49.7878C176.733 49.7878 174.527 46.8458 174.491 44.0767C174.455 41.4159 176.394 38.5027 180.728 38.3945C188.386 38.2142 198.251 38.1133 207.791 38.1133C210.848 38.1133 213.834 38.1205 216.653 38.1421C221.643 38.1926 225.292 39.7502 227.203 42.6562C228.479 44.5959 229.525 48.0428 227.246 53.4798C220.439 69.7117 208.498 79.9657 189.663 85.7345C188.776 86.0013 187.889 86.1383 187.031 86.1383Z" fill="black"/>
<path d="M207.798 39.9014C210.856 39.9014 213.834 39.9086 216.653 39.9302C224.939 40.0095 228.998 44.6534 225.602 52.7729C219.805 66.6036 209.695 77.7084 189.158 84.0036C188.408 84.2344 187.701 84.3353 187.045 84.3353C181.803 84.3353 180.036 77.6796 185.927 76.1365C202.246 71.745 212.767 61.7217 216.495 51.201C217.324 48.9656 216.906 47.6387 213.762 47.5594C211.909 47.5234 209.724 47.5089 207.344 47.5089C198.871 47.5089 187.961 47.7181 181.046 47.9777C180.952 47.9849 180.865 47.9849 180.779 47.9849C175.147 47.9849 174.52 40.3557 180.8 40.1898C188.797 39.9951 198.626 39.9014 207.798 39.9014ZM207.798 36.2959C198.244 36.2959 188.365 36.3969 180.699 36.5771C175.378 36.7141 172.652 40.4638 172.695 44.0909C172.746 47.7253 175.587 51.5831 180.757 51.5831C180.894 51.5831 181.038 51.5831 181.183 51.5759C188.365 51.3091 199.369 51.1144 207.33 51.1144C209.32 51.1144 211.101 51.1288 212.644 51.1505C208.599 61.0655 198.359 69.0553 184.976 72.6608C180.058 73.9515 178.262 77.8022 178.68 81.0471C179.2 85.0492 182.704 87.948 187.031 87.948C188.062 87.948 189.129 87.7822 190.196 87.4577C209.587 81.5158 221.888 70.9374 228.919 54.1719C231.501 47.9993 230.232 43.9611 228.717 41.6536C227.145 39.2668 223.778 36.4041 216.682 36.332C213.863 36.3103 210.877 36.2959 207.798 36.2959Z" fill="black"/>
<path d="M196.874 34.2255C193.11 34.2255 189.966 34.1894 187.276 34.1173C183.382 34.002 181.327 31.0527 181.37 28.3486C181.414 25.6805 183.44 22.8105 187.802 22.8105H187.925C191.761 22.8538 196.658 22.8754 201.705 22.8754C206.753 22.8754 211.757 22.8538 215.803 22.8105C219.898 22.8105 222.098 25.7021 222.098 28.4207C222.098 31.2546 220.057 34.1173 215.493 34.1173C213.055 34.1173 210.265 34.139 207.308 34.1678C203.955 34.1967 200.386 34.2255 196.874 34.2255Z" fill="black"/>
<path d="M187.802 24.6065C187.838 24.6065 187.874 24.6065 187.903 24.6065C191.876 24.6497 196.765 24.6714 201.705 24.6714C206.645 24.6714 211.634 24.6497 215.817 24.6065C218.636 24.6065 220.288 26.4308 220.288 28.4138C220.288 30.4041 218.881 32.3078 215.485 32.3078C210.293 32.3078 203.486 32.4159 196.866 32.4159C193.557 32.4159 190.297 32.3871 187.319 32.3078C181.889 32.1491 181.529 24.6065 187.802 24.6065ZM187.802 21.001C182.466 21.001 179.625 24.6786 179.567 28.3129C179.502 32.5097 182.791 35.7762 187.218 35.9132C189.937 35.9854 193.095 36.0286 196.874 36.0286C200.4 36.0286 203.919 35.9998 207.322 35.9709C210.279 35.9421 213.069 35.9205 215.492 35.9205C221.268 35.9205 223.9 32.0337 223.9 28.4211C223.9 24.1954 220.425 21.0082 215.824 21.0082C211.757 21.0515 206.753 21.0731 201.712 21.0731C196.672 21.0731 191.783 21.0515 187.946 21.0082L187.802 21.001Z" fill="black"/>
<path d="M282.475 87.9484C280.881 87.9484 279.41 87.3499 278.328 86.2538C277.499 85.4101 276.511 83.8742 276.54 81.3287C276.576 78.6967 276.648 74.9759 276.727 70.844C276.821 65.9838 276.929 60.6188 276.994 55.7514C271.067 61.1452 264.786 65.8035 257.496 70.2166C255.722 71.2983 253.97 71.8391 252.29 71.8391C249.247 71.8391 246.679 69.8993 246.038 67.1231C245.418 64.419 246.766 61.8231 249.477 60.5035C263.647 53.5737 279.597 38.7913 289.166 23.7204C290.529 21.5787 292.491 20.4033 294.69 20.4033C296.99 20.4033 299.154 21.7446 300.199 23.8141C301.23 25.862 300.978 28.1695 299.507 30.1525C295.815 35.0776 292.368 39.397 288.993 43.3558C288.755 52.1027 288.604 72.9135 288.842 81.0475C288.907 83.5425 287.883 85.1361 287.003 86.0375C285.828 87.2489 284.176 87.9484 282.475 87.9484Z" fill="black"/>
<path d="M294.69 22.2129C297.805 22.2129 300.524 25.7679 298.065 29.0849C294.337 34.0533 290.775 38.5313 287.212 42.6704C286.967 51.1216 286.801 72.8194 287.046 81.1048C287.133 84.3714 284.768 86.1453 282.475 86.1453C280.355 86.1453 278.307 84.6238 278.343 81.3572C278.429 74.7303 278.754 61.2314 278.84 51.5399C272.3 57.9216 265.176 63.4668 256.559 68.6875C254.972 69.6538 253.523 70.0504 252.282 70.0504C247.574 70.0504 245.8 64.3033 250.263 62.14C265.507 54.6839 281.328 39.4399 290.688 24.7007C291.82 22.9268 293.291 22.2129 294.69 22.2129ZM294.69 18.6074C291.899 18.6074 289.332 20.1217 287.652 22.7537C278.242 37.5722 262.587 52.0951 248.684 58.8951C245.252 60.5608 243.478 64.0365 244.285 67.5338C245.115 71.1321 248.403 73.6487 252.29 73.6487C254.309 73.6487 256.378 73.0141 258.441 71.7594C264.577 68.0386 270.021 64.1519 275.134 59.7964C275.076 63.4812 274.997 67.2814 274.932 70.822C274.853 75.0332 274.781 78.6675 274.745 81.3139C274.709 84.4795 275.978 86.4409 277.052 87.5298C278.473 88.9648 280.398 89.758 282.482 89.758C284.667 89.758 286.787 88.8638 288.308 87.3063C289.888 85.6838 290.717 83.4556 290.652 81.0183C290.414 73.079 290.558 53.1119 290.782 44.0477C294.056 40.197 297.387 36.0003 300.949 31.2554C302.824 28.7316 303.141 25.6525 301.815 23.0205C300.466 20.3308 297.668 18.6074 294.69 18.6074Z" fill="black"/>
<path d="M326.902 85.9716C323.599 85.9716 320.96 83.8011 320.477 80.686C320.087 78.1622 321.364 75.0903 325.084 73.9149C343.025 68.2327 353.38 53.1978 356.791 42.0569C357.116 40.9608 357.015 40.4056 356.914 40.2686C356.849 40.1748 356.539 40.0162 355.81 39.9946C354.375 39.9513 352.717 39.9297 350.856 39.9297C343.617 39.9297 334.286 40.2542 325.265 40.5714L322.784 40.658H322.561C318.753 40.658 316.64 37.6582 316.583 34.8387C316.525 31.9904 318.53 29.0195 322.489 28.8536C329.382 28.5436 338.994 28.3633 348.852 28.3633C352.609 28.3633 356.308 28.3921 359.538 28.4426C363.678 28.4931 367.225 30.1949 369.259 33.1081C371.141 35.805 371.494 39.2374 370.24 42.7708C360.375 70.9512 342.6 80.5706 330.089 85.3515C328.993 85.7625 327.926 85.9716 326.902 85.9716Z" fill="black"/>
<path d="M348.852 30.166C352.681 30.166 356.323 30.1949 359.51 30.2453C366.216 30.3247 370.939 35.3795 368.538 42.1723C362.74 58.7358 352.631 74.8091 329.44 83.6714C328.524 84.0175 327.673 84.1689 326.902 84.1689C321.76 84.1689 320.152 77.3618 325.633 75.6383C343.941 69.8407 354.794 54.7626 358.515 42.5905C359.178 40.3551 358.926 38.2856 355.861 38.199C354.354 38.1558 352.674 38.1341 350.864 38.1341C342.925 38.1341 332.44 38.5235 322.734 38.8624C322.676 38.8624 322.626 38.8624 322.568 38.8624C317.254 38.8624 316.742 30.9088 322.568 30.6564C330.183 30.3102 340.026 30.166 348.852 30.166ZM348.852 26.5605C338.966 26.5605 329.325 26.7408 322.402 27.0581C317.304 27.2744 314.708 31.1611 314.787 34.882C314.881 39.2086 318.227 42.4679 322.568 42.4679C322.662 42.4679 322.748 42.4679 322.842 42.4607L325.344 42.3742C334.351 42.0569 343.66 41.7324 350.871 41.7324C352.385 41.7324 353.77 41.7468 354.996 41.7757C351.65 52.4479 341.706 66.7616 324.544 72.1987C319.806 73.6914 318.191 77.679 318.703 80.9672C319.309 84.9116 322.763 87.7744 326.909 87.7744C328.149 87.7744 329.433 87.5292 330.716 87.0461C357.563 76.7849 367.103 57.1999 371.949 43.3621C373.391 39.2735 372.965 35.2642 370.744 32.0769C368.372 28.6806 364.298 26.6976 359.567 26.6399C356.323 26.5894 352.616 26.5605 348.852 26.5605Z" fill="black"/>
<path d="M372.331 33.7434C371.033 33.7434 369.807 33.1521 368.898 32.0704C368.019 30.9888 364.291 28.2414 362.827 27.578C360.166 26.4819 359.546 24.3187 359.87 22.6746C360.332 20.3454 362.582 18.5859 365.113 18.5859C365.776 18.5859 366.447 18.7085 367.096 18.9465C369.555 19.8551 373.946 22.1482 376.001 24.3908C377.573 26.0781 377.97 28.3279 377.068 30.3975C376.189 32.3949 374.285 33.7434 372.331 33.7434Z" fill="black"/>
<path d="M365.105 20.3887C365.538 20.3887 366 20.468 366.461 20.6339C368.697 21.4631 372.843 23.6192 374.66 25.6022C377.162 28.2991 374.79 31.9406 372.324 31.9406C371.61 31.9406 370.881 31.6306 370.268 30.9023C369.194 29.5754 365.214 26.6766 363.562 25.9339C359.856 24.4052 361.961 20.3887 365.105 20.3887ZM365.105 16.7832C361.738 16.7832 358.724 19.1628 358.096 22.3284C357.52 25.2633 359.091 27.9674 362.12 29.2437C363.447 29.8567 366.829 32.3949 367.478 33.1809L367.492 33.2026L367.521 33.2386C368.783 34.7313 370.492 35.5533 372.331 35.5533C374.992 35.5533 377.559 33.7722 378.713 31.1258C379.895 28.4217 379.354 25.3642 377.306 23.1577C374.941 20.5762 370.168 18.1677 367.716 17.2591C366.865 16.9418 365.992 16.7832 365.105 16.7832Z" fill="black"/>
<path d="M381.027 25.1764C379.78 25.1764 378.59 24.6211 377.681 23.6044C376.686 22.5372 372.843 19.898 371.48 19.3571C368.718 18.2755 368.069 16.0978 368.386 14.4176C368.833 12.0669 371.09 10.293 373.65 10.293C374.249 10.293 374.847 10.3867 375.431 10.5742C377.818 11.3674 382.339 13.5523 384.524 15.7372C386.168 17.3813 386.63 19.6312 385.757 21.744C384.907 23.7991 383.01 25.1764 381.027 25.1764Z" fill="black"/>
<path d="M373.65 12.0957C374.047 12.0957 374.465 12.1606 374.883 12.2904C377.119 13.0331 381.344 15.1099 383.248 17.0136C385.844 19.6095 383.508 23.3664 381.027 23.3664C380.335 23.3664 379.635 23.078 379.022 22.393C377.862 21.1527 373.802 18.3332 372.15 17.6698C368.386 16.1988 370.413 12.0957 373.65 12.0957ZM373.65 8.49023C370.247 8.49023 367.218 10.8915 366.62 14.0787C366.05 17.0785 367.709 19.8042 370.838 21.0301C371.913 21.4628 375.525 23.9361 376.376 24.8375C377.624 26.2148 379.275 26.9719 381.027 26.9719C383.724 26.9719 386.298 25.1476 387.423 22.429C388.57 19.66 387.95 16.6098 385.801 14.4609C383.385 12.0452 378.633 9.73773 376.023 8.8652L376.001 8.85799L375.979 8.85078C375.215 8.61282 374.436 8.49023 373.65 8.49023Z" fill="black"/>
<path d="M13.8453 82.6256C11.4441 82.6256 9.37451 80.7219 9.37451 78.6523C9.37451 77.6572 9.87207 76.6621 11.033 75.7535C18.7343 69.8694 19.8953 60.9278 19.8953 53.2193C19.8953 50.8973 19.816 48.6619 19.7295 46.6789C19.7295 46.5996 19.7295 46.5131 19.7295 46.3472C19.7295 42.785 22.7148 40.0521 28.0148 39.9655C33.6466 39.7997 40.0283 39.7997 46.4893 39.7997C53.0297 39.7997 59.5772 39.7997 65.4614 39.9655C74.2443 40.2107 74.2443 44.1046 74.2443 51.229C74.2443 57.6107 72.9175 60.5096 64.8845 60.6754C58.1783 60.8413 50.4698 60.9206 42.1844 60.9206C37.4612 60.9206 32.4135 60.8413 27.2721 60.8413C25.3612 74.1743 18.0709 82.6256 13.8453 82.6256ZM50.8736 16.9337L50.9529 12.3764C50.9529 9.55691 48.7968 8.2373 46.5614 8.2373C44.4054 8.2373 42.17 9.56412 42.17 12.3764V17.013L42.2565 23.4741V28.4424L21.799 28.3631C19.5636 28.3631 18.4892 30.0216 18.4892 31.5936C18.4892 33.2521 19.5636 34.9034 21.799 34.9034H71.0859C73.4078 34.9034 74.5616 33.2449 74.5616 31.5936C74.5616 30.0216 73.4006 28.3631 71.0859 28.3631L50.8736 28.4424V23.4741V16.9337ZM42.8406 46.0083C38.7808 46.0083 34.8869 46.0876 31.0795 46.1742C29.1758 46.1742 27.849 46.751 27.849 48.7413C27.849 49.9022 27.849 51.1425 27.849 52.4693C27.849 53.1327 27.849 53.7962 27.849 54.4596C33.0697 54.5389 38.1174 54.5389 42.8406 54.5389V46.0083ZM50.7077 54.5389C55.2651 54.4596 59.4907 54.373 63.3846 54.2937C65.62 54.2144 66.3699 53.3851 66.3699 50.2339C66.3699 49.4912 66.2906 48.7413 66.2041 48.0779C65.8724 46.0083 65.0431 46.0083 50.715 46.0083V54.5389H50.7077Z" stroke="black" stroke-width="10"/>
<path d="M50.7075 54.5393C55.2649 54.46 59.4905 54.3734 63.3844 54.2941C65.6198 54.2148 66.3697 53.3855 66.3697 50.2343C66.3697 49.4916 66.2904 48.7417 66.2039 48.0783C65.8722 46.0087 65.0429 46.0087 50.7147 46.0087V54.5393M46.5684 8.2377C48.8038 8.2377 50.9599 9.56451 50.9599 12.3768L50.8806 16.9341V23.4745V28.4428L71.0929 28.3635C73.4148 28.3635 74.5686 30.022 74.5686 31.594C74.5686 33.2525 73.4076 34.9038 71.0929 34.9038H21.7988C19.5634 34.9038 18.489 33.2453 18.489 31.594C18.489 30.022 19.5634 28.3635 21.7988 28.3635L42.2563 28.4428V23.4745L42.1697 17.0134V12.3768C42.177 9.56451 44.4124 8.2377 46.5684 8.2377ZM46.4819 39.8001C53.0222 39.8001 59.5698 39.8001 65.4539 39.9659C74.2369 40.2111 74.2369 44.105 74.2369 51.2294C74.2369 57.6039 72.9101 60.51 64.8771 60.6758C58.1709 60.8417 50.4624 60.921 42.177 60.921C37.4538 60.921 32.4061 60.8417 27.2647 60.8417C25.361 74.1747 18.0707 82.626 13.8451 82.626C11.4438 82.626 9.3743 80.7223 9.3743 78.6527C9.3743 77.6576 9.87186 76.6625 11.0328 75.7539C18.7341 69.8698 19.8951 60.9282 19.8951 53.2197C19.8951 50.8977 19.8158 48.6623 19.7292 46.6793C19.7292 46.6 19.7292 46.5135 19.7292 46.3476C19.7292 42.7854 22.7146 40.0525 28.0146 39.9659C33.6464 39.8001 40.0209 39.8001 46.4819 39.8001ZM42.8404 54.5393V46.0087C38.7806 46.0087 34.8867 46.088 31.0793 46.1746C29.1756 46.1746 27.8488 46.7514 27.8488 48.7417C27.8488 49.9026 27.8488 51.1429 27.8488 52.4697C27.8488 53.1331 27.8488 53.7965 27.8488 54.46C33.0623 54.5393 38.1172 54.5393 42.8404 54.5393ZM46.5684 7.5166C44.0302 7.5166 41.4559 9.18954 41.4559 12.3768V17.0134L41.5424 23.4817V27.7217L21.806 27.6424C19.1524 27.6424 17.7679 29.6326 17.7679 31.594C17.7679 33.5986 19.1524 35.6249 21.7988 35.6249H71.0857C73.8403 35.6249 75.2825 33.5986 75.2825 31.594C75.2825 29.6326 73.8403 27.6424 71.0857 27.6424L51.5945 27.7217V23.4745V16.9341L51.6738 12.3912C51.681 9.03811 49.0274 7.5166 46.5684 7.5166ZM46.4819 39.079C39.8767 39.079 33.632 39.079 27.9858 39.2448C22.6136 39.3314 19.0009 42.1797 19.0009 46.3404V46.6721C19.0803 48.6191 19.1668 50.8617 19.1668 53.2125C19.1668 60.3874 18.1933 69.365 10.5857 75.1698C8.9777 76.4318 8.646 77.7514 8.646 78.6455C8.646 81.1477 11.0761 83.3399 13.8379 83.3399C18.3375 83.3399 25.7648 75.0689 27.8776 61.5555C30.2861 61.5555 32.6873 61.5772 35.0165 61.5988C37.5043 61.6204 39.8478 61.6421 42.1625 61.6421C50.5561 61.6421 58.1997 61.5555 64.8771 61.3969C73.386 61.2238 74.9436 57.8347 74.9436 51.2367C74.9436 44.1771 74.9436 39.5188 65.4612 39.252C59.5842 39.079 52.9213 39.079 46.4819 39.079ZM51.4286 53.811V46.737C58.005 46.737 61.6826 46.7442 63.6079 46.9894C65.3241 47.2057 65.3674 47.5014 65.4828 48.2008C65.5621 48.8426 65.6414 49.5493 65.6414 50.2415C65.6414 53.2125 65.0141 53.5153 63.3556 53.5802C59.6852 53.6523 55.7047 53.7316 51.4286 53.811ZM28.5699 53.7461V52.4697V48.7417C28.5699 47.6312 28.9953 46.8957 31.0793 46.8957C34.454 46.8235 38.247 46.737 42.1193 46.7298V53.8182C37.7566 53.8182 33.2642 53.8182 28.5699 53.7461Z" stroke="black" stroke-width="10"/>
<path d="M50.8734 16.9336H77.4602C79.6163 16.9336 80.6908 18.5921 80.6908 20.2434C80.6908 21.8947 79.6163 23.5533 77.4602 23.5533L50.8734 23.4739H42.2563L15.5902 23.5605C13.3548 23.5605 12.1938 21.9019 12.1938 20.2506C12.1938 18.5993 13.3548 16.9408 15.5902 16.9408L42.177 17.0201L50.8734 16.9336Z" stroke="black" stroke-width="10"/>
<path d="M77.4674 16.934C79.6234 16.934 80.6979 18.5925 80.6979 20.2438C80.6979 21.9023 79.6234 23.5536 77.4674 23.5536L50.8806 23.4743H42.2562L15.5901 23.5609C13.3547 23.5609 12.1938 21.9023 12.1938 20.251C12.1938 18.5925 13.3547 16.9412 15.5901 16.9412L42.1769 17.0205L50.8733 16.9412H77.4674M77.4674 16.2129H50.8733L42.1697 16.2922L15.5901 16.2129C12.886 16.2129 11.4727 18.2392 11.4727 20.2438C11.4727 22.2485 12.886 24.2747 15.5901 24.2747L42.2635 24.1954H50.8733L77.4602 24.2747C80.0561 24.2747 81.4118 22.2485 81.4118 20.2438C81.4118 18.2392 80.0561 16.2129 77.4674 16.2129Z" stroke="black" stroke-width="10"/>
<path d="M111.136 26.5462L110.061 78.8978C109.982 81.2991 107.905 82.5393 105.922 82.5393C103.939 82.5393 102.115 81.3784 102.115 78.9771V78.8978L103.11 38.639L111.136 26.5462ZM139.381 60.755C143.607 60.6757 150.068 60.5892 151.142 60.5892C154.949 60.5892 156.695 62.4136 156.695 64.5624C156.695 67.1295 154.293 69.2856 148.907 73.093C153.132 74.2539 158.519 74.8308 165.146 74.9174C166.884 74.9174 167.879 76.41 167.879 77.982C167.879 79.7199 166.638 81.5442 163.985 81.5442C155.368 81.5442 147.832 79.9722 141.948 77.1528C132.754 81.7101 124.555 82.5393 122.486 82.5393C120.33 82.5393 119.01 80.715 119.01 78.9771C119.01 77.571 119.919 76.1576 122.154 76.0783C127.043 75.8331 131.68 74.838 135.739 73.3454C133.836 71.8527 132.264 70.1149 131.016 68.2905C124.721 73.3454 117.763 77.1528 115.772 77.1528C113.782 77.1528 112.462 75.5808 112.462 74.0881C112.462 73.0137 113.126 71.932 114.532 71.3551C120.993 68.6222 128.031 63.5673 133.749 58.1014C130.187 57.438 128.86 55.4478 128.86 51.8062C128.86 46.3403 128.86 44.5159 131.846 44.5159C133.338 44.5159 134.91 45.3452 134.91 46.9172C134.91 48.5757 134.824 50.6453 134.824 51.3087C134.824 52.7148 135.321 53.2124 138.963 53.2124C143.852 53.2124 145.669 53.2124 145.669 50.3136C145.669 48.655 146.996 47.9123 148.402 47.9123C149.974 47.9123 151.632 48.8209 151.632 50.4001C151.632 57.6904 147.991 57.9355 141.443 58.3538C141.277 58.7648 140.946 59.2624 140.448 59.7599L139.381 60.755ZM143.109 18.506C142.864 19.4146 142.532 20.3304 142.28 21.0731C145.424 21.0731 148.409 21.0731 149.649 21.1524C154.286 21.3183 156.853 22.9768 156.94 25.8756C157.019 27.4476 157.019 29.5171 157.019 31.8391C157.019 34.161 157.019 36.5623 156.94 38.877H159.009C162.485 38.9563 166.545 40.2831 166.711 44.4294C166.711 48.655 166.711 48.655 166.711 48.655C166.545 50.5587 164.807 51.5538 163.069 51.5538C162.658 51.5538 162.24 51.4745 161.908 51.388C163.148 52.7148 164.309 54.0416 164.309 55.5271C164.309 57.3515 162.737 58.7576 161.079 58.7576C160.084 58.7576 159.089 58.26 158.346 57.0991C156.94 54.7771 155.036 52.6283 153.291 51.2149C152.548 50.5515 152.216 49.8881 152.216 49.2247C152.216 47.8186 153.623 46.5711 155.281 46.5711C156.774 46.5711 157.935 47.6455 159.42 48.9723V45.9077C159.341 44.0833 158.757 43.6723 156.356 43.6723C152.051 43.5929 146.498 43.5929 140.946 43.5929C141.941 44.2563 144.84 46.4917 144.84 48.5613C144.84 50.1333 143.347 51.4601 141.941 51.4601C141.198 51.4601 140.448 51.1284 139.951 50.2991C138.79 48.3954 137.052 46.9028 136.309 46.2394C135.812 45.8283 135.566 45.3308 135.566 44.8332C135.566 44.4222 135.732 44.004 136.064 43.5929C131.672 43.5929 127.533 43.5929 124.216 43.6723C120.986 43.7516 120.986 44.6674 120.907 46.0735C120.907 46.0735 120.907 46.0735 120.907 48.8065V48.8858C120.907 50.6236 119.082 51.6187 117.344 51.6187C115.606 51.6187 113.869 50.7102 113.869 48.7993C113.869 47.7248 113.869 47.0614 113.869 46.1456C113.869 43.081 114.114 38.9419 120.907 38.8553H123.474C123.474 34.298 123.474 28.998 123.553 25.7674C123.632 22.7028 125.543 21.376 130.677 21.1308C131.507 21.1308 133.079 21.0515 134.982 21.0515C135.148 20.3881 135.314 19.5588 135.559 18.4844H143.109V18.506ZM115.275 57.8562C115.275 56.9476 115.772 55.9525 117.099 55.2891C118.505 54.5464 121.159 51.9721 121.822 50.0684C122.32 48.7416 123.228 48.244 124.224 48.244C125.882 48.244 127.541 49.5708 127.541 51.1428C127.541 53.8758 121.988 60.6685 118.512 60.6685C116.688 60.6685 115.275 59.2624 115.275 57.8562ZM150.154 27.5413C150.154 27.2096 150.075 26.8779 150.075 26.6328C149.909 25.1401 149.909 24.9742 140.052 24.9742C131.687 24.9742 130.439 24.9742 130.439 26.6328L130.36 27.5413H150.154ZM150.154 30.6853H130.36V33.2524H150.154V30.6853ZM150.068 36.3171H130.353L130.432 38.8049C133.663 38.7255 136.893 38.7255 140.21 38.7255C143.52 38.7255 146.837 38.7255 149.988 38.8049L150.068 36.3171ZM146.924 66.1416C146.924 65.8964 146.758 65.7306 146.513 65.7306C146.426 65.7306 146.426 65.7306 146.347 65.7306C146.015 65.8099 140.549 65.8099 136.489 65.8099C137.982 67.5478 139.72 69.1197 141.955 70.3672C143.109 69.6173 146.924 67.1367 146.924 66.1416Z" stroke="black" stroke-width="10"/>
<path d="M143.109 18.5063C142.864 19.4148 142.532 20.3306 142.28 21.0734C145.424 21.0734 148.409 21.0734 149.649 21.1527C154.286 21.3185 156.853 22.977 156.939 25.8759C157.019 27.4478 157.019 29.5174 157.019 31.8393C157.019 34.1612 157.019 36.5625 156.939 38.8772H159.009C162.485 38.9565 166.544 40.2834 166.71 44.4297C166.71 48.6553 166.71 48.6553 166.71 48.6553C166.544 50.559 164.807 51.5541 163.069 51.5541C162.658 51.5541 162.24 51.4748 161.908 51.3882C163.148 52.715 164.309 54.0419 164.309 55.5273C164.309 57.3517 162.737 58.7578 161.079 58.7578C160.083 58.7578 159.088 58.2603 158.346 57.0993C156.939 54.7774 155.036 52.6285 153.291 51.2152C152.548 50.5518 152.216 49.8884 152.216 49.2249C152.216 47.8188 153.622 46.5713 155.281 46.5713C156.774 46.5713 157.935 47.6457 159.42 48.9726V45.9079C159.341 44.0835 158.757 43.6725 156.355 43.6725C152.05 43.5932 146.498 43.5932 140.946 43.5932C141.941 44.2566 144.839 46.492 144.839 48.5615C144.839 50.1335 143.347 51.4603 141.941 51.4603C141.198 51.4603 140.448 51.1286 139.95 50.2994C138.789 48.3957 137.052 46.903 136.309 46.2396C135.811 45.8286 135.566 45.331 135.566 44.8335C135.566 44.4224 135.732 44.0042 136.064 43.5932C131.672 43.5932 127.533 43.5932 124.216 43.6725C120.986 43.7518 120.986 44.6676 120.906 46.0738C120.906 46.0738 120.906 46.0738 120.906 48.8067V48.886C120.906 50.6239 119.082 51.619 117.344 51.619C115.606 51.619 113.868 50.7104 113.868 48.7995C113.868 47.7251 113.868 47.0617 113.868 46.1459C113.868 43.0812 114.114 38.9421 120.906 38.8556H123.473C123.473 34.2983 123.473 28.9982 123.553 25.7677C123.632 22.703 125.543 21.3762 130.677 21.131C131.506 21.131 133.078 21.0517 134.982 21.0517C135.148 20.3883 135.314 19.5591 135.559 18.4846H143.109M130.353 27.5416H150.147C150.147 27.2099 150.067 26.8782 150.067 26.633C149.902 25.1403 149.902 24.9745 140.044 24.9745C131.679 24.9745 130.432 24.9745 130.432 26.633L130.353 27.5416ZM130.353 33.2527H150.147V30.6856H130.353V33.2527ZM150.067 36.3173H130.353L130.432 38.8051C133.662 38.7258 136.893 38.7258 140.21 38.7258C143.52 38.7258 146.837 38.7258 149.988 38.8051L150.067 36.3173ZM111.135 26.5465L110.061 78.898C109.982 81.2993 107.905 82.5396 105.922 82.5396C103.932 82.5396 102.115 81.3786 102.115 78.9774V78.898L103.11 38.6393L111.135 26.5465ZM131.845 44.5162C133.338 44.5162 134.91 45.3454 134.91 46.9174C134.91 48.576 134.823 50.6455 134.823 51.3089C134.823 52.715 135.321 53.2126 138.963 53.2126C143.852 53.2126 145.669 53.2126 145.669 50.3138C145.669 48.6553 146.996 47.9125 148.402 47.9125C149.974 47.9125 151.632 48.8211 151.632 50.4003C151.632 57.6906 147.991 57.9358 141.443 58.354C141.277 58.765 140.946 59.2626 140.448 59.7602L139.374 60.7553C143.599 60.676 150.06 60.5894 151.135 60.5894C154.942 60.5894 156.687 62.4138 156.687 64.5627C156.687 67.1298 154.286 69.2858 148.899 73.0932C153.125 74.2542 158.511 74.8311 165.138 74.9176C166.876 74.9176 167.871 76.4103 167.871 77.9823C167.871 79.7201 166.631 81.5445 163.977 81.5445C155.36 81.5445 147.825 79.9725 141.941 77.153C132.747 81.7103 124.548 82.5396 122.478 82.5396C120.322 82.5396 119.003 80.7152 119.003 78.9774C119.003 77.5712 119.911 76.1579 122.147 76.0786C127.036 75.8334 131.672 74.8383 135.732 73.3456C133.828 71.8529 132.256 70.1151 131.009 68.2907C124.714 73.3456 117.755 77.153 115.765 77.153C113.775 77.153 112.455 75.581 112.455 74.0883C112.455 73.0139 113.118 71.9323 114.525 71.3554C120.986 68.6224 128.024 63.5675 133.742 58.1016C130.18 57.4382 128.853 55.448 128.853 51.8065C128.86 46.3406 128.86 44.5162 131.845 44.5162ZM141.948 70.3675C143.109 69.6247 146.916 67.137 146.916 66.1419C146.916 65.8967 146.75 65.7308 146.505 65.7308C146.419 65.7308 146.419 65.7308 146.339 65.7308C146.008 65.8102 140.542 65.8102 136.482 65.8102C137.975 67.548 139.712 69.12 141.948 70.3675ZM124.223 48.2443C125.882 48.2443 127.54 49.5711 127.54 51.1431C127.54 53.876 121.988 60.6687 118.512 60.6687C116.688 60.6687 115.282 59.2626 115.282 57.8493C115.282 56.9407 115.779 55.9456 117.106 55.2822C118.512 54.5394 121.166 51.9723 121.829 50.0614C122.32 48.7418 123.228 48.2443 124.223 48.2443ZM144.053 17.7852H143.109H135.573H134.997L134.867 18.3476C134.759 18.8235 134.665 19.249 134.578 19.6312C134.521 19.8908 134.47 20.1287 134.42 20.3523C133.489 20.3595 132.667 20.3811 131.975 20.4027C131.449 20.4172 131.009 20.4316 130.684 20.4316C126.661 20.6263 122.954 21.4051 122.839 25.7749C122.76 28.8468 122.76 33.7214 122.752 38.1633H120.906C113.147 38.2571 113.147 43.6076 113.147 46.1747V48.8283C113.147 51.2584 115.325 52.3689 117.344 52.3689C118.469 52.3689 119.406 52.0588 120.113 51.5685C119.096 52.8881 117.654 54.1789 116.753 54.6548C115.354 55.3543 114.546 56.5224 114.546 57.8565C114.546 59.7385 116.392 61.397 118.498 61.397C122.147 61.397 127.295 55.3543 128.132 51.994C128.175 55.5057 129.473 57.5608 132.285 58.4838C126.473 63.856 119.954 68.2763 114.236 70.6992C112.664 71.3482 111.727 72.6173 111.727 74.0955C111.727 75.9271 113.349 77.8813 115.758 77.8813C116.443 77.8813 117.546 77.528 118.909 76.9078C118.476 77.5208 118.267 78.2563 118.267 78.9774C118.267 81.0397 119.875 83.2607 122.464 83.2607C124.872 83.2607 133.021 82.3016 141.933 77.9534C147.976 80.7729 155.584 82.2656 163.963 82.2656C166.992 82.2656 168.578 80.1095 168.578 77.9823C168.578 76.1435 167.367 74.1965 165.124 74.1965C159.218 74.1244 154.437 73.6557 150.572 72.7759C155.274 69.3652 157.394 67.2379 157.394 64.5627C157.394 61.0942 154.019 59.8683 151.12 59.8683C150.219 59.8683 145.33 59.926 141.198 59.9981C141.486 59.6808 141.717 59.3563 141.89 59.0463C147.947 58.6569 152.007 58.2459 152.317 51.2873C152.461 51.4459 152.62 51.6118 152.793 51.7632C154.581 53.2126 156.413 55.3398 157.711 57.4815C158.548 58.7795 159.73 59.4861 161.064 59.4861C163.206 59.4861 165.016 57.6762 165.016 55.5345C165.016 54.3375 164.424 53.2775 163.61 52.2463C165.405 52.0516 167.222 50.9339 167.417 48.7202V48.6913V48.6625V44.4369C167.266 40.6223 164.122 38.2859 159.009 38.1633H157.668C157.725 36.0649 157.725 33.9233 157.725 31.8465C157.725 29.4813 157.725 27.4406 157.639 25.847C157.581 23.9433 156.478 20.684 149.656 20.446C148.546 20.3739 146.044 20.3667 143.267 20.3595C143.448 19.8403 143.628 19.2706 143.787 18.7009L144.053 17.7852ZM131.146 26.8205L131.16 26.6979V26.6691V26.633C131.16 26.2364 131.16 26.0561 132.213 25.8975C133.518 25.6956 135.97 25.6956 140.044 25.6956C144.847 25.6956 147.349 25.7316 148.553 25.9552C149.267 26.085 149.281 26.085 149.346 26.6763C149.346 26.7267 149.354 26.77 149.354 26.8205H131.146ZM131.074 31.4067H149.426V32.5316H131.074V31.4067ZM131.103 37.0384H149.325L149.289 38.0624C146.339 37.9975 143.231 37.9975 140.21 37.9975C137.088 37.9975 134.124 37.9975 131.131 38.0624L131.103 37.0384ZM134.001 44.3287C134.304 44.3287 134.607 44.3287 134.91 44.3287C134.867 44.5018 134.852 44.6748 134.852 44.8479C134.852 44.8912 134.852 44.9272 134.852 44.9705C134.607 44.7181 134.319 44.5018 134.001 44.3287ZM145.568 48.4245C145.488 46.8597 144.205 45.3671 143.051 44.3287C147.825 44.3287 152.598 44.3359 156.348 44.408C158.634 44.408 158.648 44.7397 158.706 45.9584V47.4078C157.632 46.5208 156.586 45.8718 155.288 45.8718C153.529 45.8718 152 47.004 151.603 48.4822C150.839 47.653 149.613 47.1987 148.409 47.1987C147.161 47.1915 146.166 47.653 145.568 48.4245ZM121.635 46.117V46.0665C121.707 44.8767 121.728 44.4729 124.245 44.408C125.86 44.3648 127.67 44.3503 129.61 44.3359C128.334 45.2084 128.168 47.1626 128.146 50.321C127.706 48.7562 126.062 47.5232 124.223 47.5232C123.134 47.5232 122.24 47.9919 121.635 48.8716V48.8211V46.117ZM138.97 52.4987C135.552 52.4987 135.552 52.1021 135.552 51.3161C135.552 51.0637 135.566 50.6022 135.581 50.0398C135.602 49.1096 135.638 47.9558 135.638 46.9319C135.638 46.8165 135.631 46.7083 135.617 46.6002C135.696 46.6795 135.775 46.7516 135.862 46.8237L135.97 46.9246C136.727 47.5953 138.306 48.9942 139.352 50.7104C139.936 51.6767 140.859 52.2175 141.955 52.2175C143.159 52.2175 144.291 51.5252 144.962 50.5301C144.904 52.3689 144.032 52.4987 138.97 52.4987ZM138.126 66.5312C142.777 66.5312 144.969 66.5168 145.921 66.4808C145.496 66.9495 144.457 67.8797 141.933 69.5238C140.571 68.7234 139.316 67.7355 138.126 66.5312ZM121.909 75.3719C124.678 73.8071 127.908 71.6582 130.865 69.3363C131.874 70.7136 133.021 71.9755 134.297 73.0932C130.461 74.3696 126.278 75.1556 122.118 75.3647C122.046 75.3647 121.981 75.3647 121.909 75.3719ZM111.907 24.0803L110.537 26.1427L102.504 38.2354L102.389 38.4085L102.381 38.6176L101.386 78.8764V78.9774C101.386 81.5012 103.247 83.2607 105.915 83.2607C108.258 83.2607 110.681 81.768 110.775 78.9197L111.849 26.5609L111.907 24.0803Z" stroke="black" stroke-width="10"/>
<path d="M103.103 38.6387C99.8722 43.0302 98.1344 45.1791 95.5673 45.1791C93.4112 45.1791 91.6733 43.4412 91.6733 41.5375C91.6733 40.6289 92.0051 39.7132 92.8343 38.8046C100.536 30.6057 105.345 22.652 109.564 11.6337C110.227 9.97515 111.554 9.23242 112.96 9.23242C115.195 9.23242 117.683 11.0568 117.683 13.458C117.683 14.0349 117.517 15.6934 111.143 26.5459L103.103 38.6387Z" stroke="black" stroke-width="10"/>
<path d="M112.96 9.23281C115.195 9.23281 117.683 11.0572 117.683 13.4584C117.683 14.0353 117.517 15.6938 111.143 26.5463L103.11 38.6391C99.8793 43.0306 98.1415 45.1795 95.5744 45.1795C93.4183 45.1795 91.6805 43.4416 91.6805 41.5379C91.6805 40.6293 92.0122 39.7135 92.8414 38.805C100.543 30.6061 105.352 22.6524 109.571 11.6341C110.227 9.97554 111.554 9.23281 112.96 9.23281ZM112.96 8.51172C111.128 8.51172 109.607 9.57894 108.893 11.3673C104.617 22.5154 99.8144 30.3177 92.3078 38.3146C91.4064 39.3097 90.9521 40.3914 90.9521 41.5451C90.9521 43.9103 93.065 45.9078 95.5672 45.9078C98.5164 45.9078 100.377 43.5642 103.687 39.0718L111.741 26.9501L111.756 26.9357L111.763 26.9213C118.404 15.6217 118.404 14.1146 118.404 13.4656C118.404 10.6245 115.527 8.51172 112.96 8.51172Z" stroke="black" stroke-width="10"/>
<path d="M135.573 18.5066L121.079 18.5859C119.089 18.5859 118.015 17.0932 118.015 15.6006C118.015 14.1079 119.089 12.6152 121.079 12.6152H161.749C163.905 12.6152 164.98 14.1079 164.98 15.6006C164.98 17.0932 163.905 18.5859 161.749 18.5859L143.109 18.5066" stroke="black" stroke-width="10"/>
<path d="M194.912 78.2346C188.12 80.3041 185.055 72.1053 191.682 70.3674C208 65.976 218.521 55.9527 222.249 45.4319C223.078 43.1965 222.66 41.8697 219.516 41.7904C211.065 41.6246 195.662 41.8697 186.8 42.2014C180.916 42.4466 180.173 34.5794 186.555 34.4136C197.242 34.1684 211.159 34.0819 222.422 34.1684C230.708 34.2477 234.767 38.8916 231.371 47.0111C225.566 60.8345 215.456 71.9394 194.912 78.2346Z" stroke="black" stroke-width="10"/>
<path d="M213.567 34.1322C216.625 34.1322 219.603 34.1394 222.422 34.1611C230.708 34.2404 234.767 38.8843 231.371 47.0038C225.573 60.8344 215.464 71.9393 194.927 78.2345C194.177 78.4652 193.47 78.5662 192.814 78.5662C187.572 78.5662 185.805 71.9105 191.696 70.3673C208.015 65.9758 218.536 55.9526 222.264 45.4318C223.093 43.1964 222.675 41.8696 219.531 41.7903C217.677 41.7542 215.485 41.7398 213.106 41.7398C204.633 41.7398 193.73 41.9489 186.807 42.2085C186.714 42.2157 186.627 42.2157 186.541 42.2157C180.909 42.2157 180.281 34.5865 186.562 34.4207C194.566 34.226 204.395 34.1322 213.567 34.1322ZM213.567 33.4111C204.034 33.4111 194.177 33.5121 186.533 33.6924C184.009 33.7573 181.305 35.2211 181.349 38.2857C181.385 41.2999 184.046 42.9296 186.526 42.9296C186.627 42.9296 186.728 42.9296 186.829 42.9224C194.054 42.6556 205.102 42.4537 213.091 42.4537C215.565 42.4537 217.721 42.4681 219.502 42.5042C220.699 42.533 221.478 42.7637 221.752 43.1676C221.997 43.5281 221.932 44.2059 221.571 45.1794C217.548 56.5295 206.306 65.6802 191.494 69.6678C188.026 70.5764 187.074 73.057 187.312 74.8958C187.593 77.0735 189.569 79.2873 192.8 79.2873C193.55 79.2873 194.328 79.1647 195.122 78.9195C213.625 73.2517 225.35 63.1924 232.02 47.2778C233.679 43.319 233.693 39.9298 232.071 37.4637C230.369 34.875 227.03 33.4832 222.415 33.44C219.617 33.4256 216.639 33.4111 213.567 33.4111Z" stroke="black" stroke-width="10"/>
<path d="M221.254 26.5458C213.466 26.5458 202.037 26.791 193.088 26.5458C187.622 26.3799 187.291 18.7579 193.665 18.8445C201.619 18.9238 213.214 18.9238 221.579 18.8445C224.398 18.8445 226.05 20.6689 226.05 22.6519C226.05 24.6349 224.651 26.5458 221.254 26.5458Z" stroke="black" stroke-width="10"/>
<path d="M193.571 18.8373C193.607 18.8373 193.636 18.8373 193.672 18.8373C197.645 18.8806 202.535 18.9022 207.474 18.9022C212.414 18.9022 217.404 18.8806 221.586 18.8373C224.405 18.8373 226.057 20.6617 226.057 22.6447C226.057 24.6349 224.651 26.5386 221.254 26.5386C216.062 26.5386 209.255 26.6468 202.635 26.6468C199.326 26.6468 196.074 26.6179 193.088 26.5386C187.658 26.38 187.298 18.8373 193.571 18.8373ZM193.571 18.1162C189.944 18.1162 188.257 20.4381 188.221 22.587C188.178 25.5219 190.687 27.1876 193.074 27.2597C195.756 27.3318 198.886 27.3679 202.643 27.3679C206.154 27.3679 209.666 27.339 213.063 27.3102C216.026 27.2813 218.817 27.2597 221.254 27.2597C225.336 27.2597 226.778 24.7719 226.778 22.6447C226.778 19.7026 224.103 18.1162 221.586 18.1162C217.533 18.1595 212.522 18.1811 207.474 18.1811C202.419 18.1811 197.523 18.1595 193.679 18.1162H193.571Z" stroke="black" stroke-width="10"/>
<path d="M292.982 36.9014C292.736 45.3526 292.571 67.0504 292.816 75.3358C292.982 81.631 284.033 82.3737 284.119 75.581C284.206 68.9541 284.53 55.4552 284.617 45.7636L292.982 36.9014Z" stroke="black" stroke-width="10"/>
<path d="M292.981 36.9012C292.736 45.3525 292.57 67.0502 292.816 75.3356C292.902 78.6022 290.537 80.3761 288.244 80.3761C286.124 80.3761 284.076 78.8546 284.112 75.588C284.199 68.9612 284.523 55.4622 284.61 45.7707L292.981 36.9012ZM293.753 35.0264L292.455 36.4037L284.09 45.2659L283.896 45.4751V45.7563C283.845 51.5972 283.708 58.7721 283.586 65.1033C283.506 69.3073 283.434 72.9416 283.398 75.5736C283.376 77.2898 283.888 78.7248 284.876 79.7199C285.749 80.6069 286.946 81.09 288.251 81.09C289.664 81.09 291.035 80.5131 292.008 79.5108C292.736 78.7608 293.594 77.4268 293.537 75.314C293.284 66.9493 293.457 45.2587 293.703 36.9156L293.753 35.0264Z" stroke="black" stroke-width="10"/>
<path d="M284.61 45.7631C278.069 52.1448 270.945 57.69 262.328 62.9107C254.706 67.5474 250.401 59.1034 256.033 56.3704C271.276 48.9143 287.097 33.6703 296.457 18.9311C300.099 13.2128 307.389 18.5201 303.827 23.3226C300.099 28.2909 296.536 32.7689 292.974 36.908L284.61 45.7631Z" stroke="black" stroke-width="10"/>
<path d="M300.459 16.4438C303.574 16.4438 306.293 19.9988 303.834 23.3158C300.106 28.2841 296.544 32.7622 292.981 36.9012L284.617 45.7635C278.076 52.1452 270.952 57.6905 262.335 62.9112C260.748 63.8775 259.299 64.2741 258.059 64.2741C253.35 64.2741 251.576 58.5269 256.04 56.3636C271.284 48.9075 287.104 33.6635 296.464 18.9243C297.582 17.1576 299.06 16.4438 300.459 16.4438ZM300.459 15.7227C298.642 15.7227 297.005 16.725 295.851 18.5421C286.037 34.0097 270.281 48.5974 255.722 55.7219C253.48 56.8107 252.362 58.9307 252.867 61.1229C253.307 63.0554 255.088 65.0024 258.066 65.0024C259.544 65.0024 261.109 64.5048 262.717 63.5313C271.219 58.3827 278.343 52.9024 285.129 46.2827L293.515 37.3988C297.034 33.3102 300.596 28.8538 304.418 23.7485C305.637 22.1044 305.853 20.2079 305.016 18.5349C304.144 16.8259 302.356 15.7227 300.459 15.7227Z" stroke="black" stroke-width="10"/>
<path d="M331.394 69.8695C349.703 64.0719 360.556 48.9938 364.276 36.8217C364.94 34.5863 364.687 32.5167 361.623 32.4302C353.503 32.185 340.415 32.6753 328.488 33.0936C323.022 33.2594 322.438 25.1399 328.323 24.8947C339.254 24.3972 354.743 24.3178 365.264 24.4837C371.97 24.563 376.694 29.6179 374.292 36.4106C368.495 52.9742 358.385 69.0474 335.195 77.9097C328.164 80.5489 325.099 71.8525 331.394 69.8695Z" stroke="black" stroke-width="10"/>
<path d="M354.621 24.3969C358.45 24.3969 362.091 24.4257 365.279 24.4762C371.985 24.5555 376.708 29.6104 374.307 36.4031C368.509 52.9667 358.399 69.0399 335.209 77.9022C334.293 78.2483 333.442 78.3998 332.671 78.3998C327.529 78.3998 325.921 71.5926 331.402 69.8692C349.71 64.0716 360.563 48.9935 364.284 36.8214C364.947 34.586 364.695 32.5164 361.63 32.4299C360.123 32.3866 358.443 32.365 356.633 32.365C348.694 32.365 338.209 32.7544 328.503 33.0933C328.445 33.0933 328.395 33.0933 328.337 33.0933C323.022 33.0933 322.511 25.1396 328.337 24.8872C335.952 24.5411 345.795 24.3969 354.621 24.3969ZM354.621 24.3969V23.6758M354.621 23.6758C344.778 23.6758 335.18 23.8561 328.301 24.1661C324.89 24.3103 323.39 26.7981 323.434 29.0479C323.484 31.4131 325.186 33.8072 328.33 33.8072C328.387 33.8072 328.452 33.8072 328.517 33.8072L331.005 33.7207C340.033 33.4034 349.371 33.0789 356.626 33.0789C358.493 33.0789 360.166 33.1005 361.601 33.1438C362.567 33.1726 363.224 33.4106 363.548 33.8649C364.046 34.5499 363.837 35.7325 363.584 36.605C361.58 43.1526 357.736 49.7722 352.768 55.2454C346.848 61.7569 339.377 66.5738 331.171 69.1769C327.847 70.2297 327.01 72.8401 327.306 74.751C327.63 76.8566 329.44 79.1137 332.664 79.1137C333.558 79.1137 334.495 78.9334 335.454 78.5728C361.161 68.7515 370.326 49.9309 374.977 36.6339C376.11 33.4394 375.807 30.3531 374.127 27.9519C372.295 25.3271 369.072 23.7984 365.279 23.7479C362.063 23.7046 358.371 23.6758 354.621 23.6758Z" stroke="black" stroke-width="10"/>
<path d="M369.331 20.1647C365.105 18.4269 368.422 13.4585 372.23 14.8646C374.465 15.6939 378.612 17.85 380.429 19.833C383.659 23.3087 378.77 28.3636 376.037 25.1331C374.963 23.8135 370.99 20.9146 369.331 20.1647Z" stroke="black" stroke-width="10"/>
<path d="M370.874 14.6195C371.307 14.6195 371.768 14.6989 372.23 14.8647C374.465 15.694 378.612 17.85 380.429 19.8331C382.931 22.53 380.559 26.1715 378.092 26.1715C377.379 26.1715 376.65 25.8614 376.037 25.1331C374.963 23.8063 370.982 20.9075 369.331 20.1648C365.625 18.636 367.73 14.6195 370.874 14.6195ZM370.874 13.8984C368.891 13.8984 367.052 15.3118 366.699 17.1145C366.382 18.7081 367.269 20.0999 369.057 20.8354C370.665 21.5565 374.523 24.412 375.482 25.5946C376.203 26.4527 377.105 26.8926 378.1 26.8926C379.636 26.8926 381.136 25.8109 381.842 24.1957C382.57 22.53 382.239 20.72 380.962 19.3427C379.052 17.2587 374.775 15.0378 372.482 14.1869C371.956 13.9922 371.415 13.8984 370.874 13.8984Z" stroke="black" stroke-width="10"/>
<path d="M377.92 11.9074C373.694 10.2489 376.759 5.28054 380.653 6.52082C382.888 7.26355 387.114 9.34031 389.017 11.244C392.327 14.5538 387.611 19.7746 384.792 16.6306C383.638 15.3903 379.578 12.5708 377.92 11.9074Z" stroke="black" stroke-width="10"/>
<path d="M379.419 6.32656C379.816 6.32656 380.234 6.39146 380.652 6.52126C382.888 7.26399 387.113 9.34075 389.017 11.2444C391.613 13.8404 389.277 17.5973 386.796 17.5973C386.104 17.5973 385.404 17.3089 384.791 16.6238C383.631 15.3835 379.571 12.564 377.919 11.9006C374.155 10.4296 376.182 6.32656 379.419 6.32656ZM379.419 5.60547C377.379 5.60547 375.569 6.99718 375.223 8.84319C374.985 10.0907 375.504 11.7276 377.66 12.5785C379.181 13.1842 383.133 15.9027 384.272 17.1214C384.972 17.9002 385.851 18.3256 386.803 18.3256C388.325 18.3256 389.861 17.1863 390.531 15.5638C391.231 13.8692 390.863 12.0665 389.536 10.7397C387.568 8.77108 383.248 6.62943 380.89 5.84343C380.393 5.68479 379.902 5.60547 379.419 5.60547Z" stroke="black" stroke-width="10"/>
<path d="M13.8453 82.6256C11.4441 82.6256 9.37451 80.7219 9.37451 78.6523C9.37451 77.6572 9.87207 76.6621 11.033 75.7535C18.7343 69.8694 19.8953 60.9278 19.8953 53.2193C19.8953 50.8973 19.816 48.6619 19.7295 46.6789C19.7295 46.5996 19.7295 46.5131 19.7295 46.3472C19.7295 42.785 22.7148 40.0521 28.0148 39.9655C33.6466 39.7997 40.0283 39.7997 46.4893 39.7997C53.0297 39.7997 59.5772 39.7997 65.4614 39.9655C74.2443 40.2107 74.2443 44.1046 74.2443 51.229C74.2443 57.6107 72.9175 60.5096 64.8845 60.6754C58.1783 60.8413 50.4698 60.9206 42.1844 60.9206C37.4612 60.9206 32.4135 60.8413 27.2721 60.8413C25.3612 74.1743 18.0709 82.6256 13.8453 82.6256ZM50.8736 16.9337L50.9529 12.3764C50.9529 9.55691 48.7968 8.2373 46.5614 8.2373C44.4054 8.2373 42.17 9.56412 42.17 12.3764V17.013L42.2565 23.4741V28.4424L21.799 28.3631C19.5636 28.3631 18.4892 30.0216 18.4892 31.5936C18.4892 33.2521 19.5636 34.9034 21.799 34.9034H71.0859C73.4078 34.9034 74.5616 33.2449 74.5616 31.5936C74.5616 30.0216 73.4006 28.3631 71.0859 28.3631L50.8736 28.4424V23.4741V16.9337ZM42.8406 46.0083C38.7808 46.0083 34.8869 46.0876 31.0795 46.1742C29.1758 46.1742 27.849 46.751 27.849 48.7413C27.849 49.9022 27.849 51.1425 27.849 52.4693C27.849 53.1327 27.849 53.7962 27.849 54.4596C33.0697 54.5389 38.1174 54.5389 42.8406 54.5389V46.0083ZM50.7077 54.5389C55.2651 54.4596 59.4907 54.373 63.3846 54.2937C65.62 54.2144 66.3699 53.3851 66.3699 50.2339C66.3699 49.4912 66.2906 48.7413 66.2041 48.0779C65.8724 46.0083 65.0431 46.0083 50.715 46.0083V54.5389H50.7077Z" fill="#F5E928"/>
<path d="M50.8734 16.9336H77.4602C79.6163 16.9336 80.6908 18.5921 80.6908 20.2434C80.6908 21.8947 79.6163 23.5533 77.4602 23.5533L50.8734 23.4739H42.2563L15.5902 23.5605C13.3548 23.5605 12.1938 21.9019 12.1938 20.2506C12.1938 18.5993 13.3548 16.9408 15.5902 16.9408L42.177 17.0201L50.8734 16.9336Z" fill="#1C96D4"/>
<path d="M111.136 26.5462L110.061 78.8978C109.982 81.2991 107.905 82.5393 105.922 82.5393C103.939 82.5393 102.115 81.3784 102.115 78.9771V78.8978L103.11 38.639L111.136 26.5462ZM139.381 60.755C143.607 60.6757 150.068 60.5892 151.142 60.5892C154.949 60.5892 156.695 62.4136 156.695 64.5624C156.695 67.1295 154.293 69.2856 148.907 73.093C153.132 74.2539 158.519 74.8308 165.146 74.9174C166.884 74.9174 167.879 76.41 167.879 77.982C167.879 79.7199 166.638 81.5442 163.985 81.5442C155.368 81.5442 147.832 79.9722 141.948 77.1528C132.754 81.7101 124.555 82.5393 122.486 82.5393C120.33 82.5393 119.01 80.715 119.01 78.9771C119.01 77.571 119.919 76.1576 122.154 76.0783C127.043 75.8331 131.68 74.838 135.739 73.3454C133.836 71.8527 132.264 70.1149 131.016 68.2905C124.721 73.3454 117.763 77.1528 115.772 77.1528C113.782 77.1528 112.462 75.5808 112.462 74.0881C112.462 73.0137 113.126 71.932 114.532 71.3551C120.993 68.6222 128.031 63.5673 133.749 58.1014C130.187 57.438 128.86 55.4478 128.86 51.8062C128.86 46.3403 128.86 44.5159 131.846 44.5159C133.338 44.5159 134.91 45.3452 134.91 46.9172C134.91 48.5757 134.824 50.6453 134.824 51.3087C134.824 52.7148 135.321 53.2124 138.963 53.2124C143.852 53.2124 145.669 53.2124 145.669 50.3136C145.669 48.655 146.996 47.9123 148.402 47.9123C149.974 47.9123 151.632 48.8209 151.632 50.4001C151.632 57.6904 147.991 57.9355 141.443 58.3538C141.277 58.7648 140.946 59.2624 140.448 59.7599L139.381 60.755ZM143.109 18.506C142.864 19.4146 142.532 20.3304 142.28 21.0731C145.424 21.0731 148.409 21.0731 149.649 21.1524C154.286 21.3183 156.853 22.9768 156.94 25.8756C157.019 27.4476 157.019 29.5171 157.019 31.8391C157.019 34.161 157.019 36.5623 156.94 38.877H159.009C162.485 38.9563 166.545 40.2831 166.711 44.4294C166.711 48.655 166.711 48.655 166.711 48.655C166.545 50.5587 164.807 51.5538 163.069 51.5538C162.658 51.5538 162.24 51.4745 161.908 51.388C163.148 52.7148 164.309 54.0416 164.309 55.5271C164.309 57.3515 162.737 58.7576 161.079 58.7576C160.084 58.7576 159.089 58.26 158.346 57.0991C156.94 54.7771 155.036 52.6283 153.291 51.2149C152.548 50.5515 152.216 49.8881 152.216 49.2247C152.216 47.8186 153.623 46.5711 155.281 46.5711C156.774 46.5711 157.935 47.6455 159.42 48.9723V45.9077C159.341 44.0833 158.757 43.6723 156.356 43.6723C152.051 43.5929 146.498 43.5929 140.946 43.5929C141.941 44.2563 144.84 46.4917 144.84 48.5613C144.84 50.1333 143.347 51.4601 141.941 51.4601C141.198 51.4601 140.448 51.1284 139.951 50.2991C138.79 48.3954 137.052 46.9028 136.309 46.2394C135.812 45.8283 135.566 45.3308 135.566 44.8332C135.566 44.4222 135.732 44.004 136.064 43.5929C131.672 43.5929 127.533 43.5929 124.216 43.6723C120.986 43.7516 120.986 44.6674 120.907 46.0735C120.907 46.0735 120.907 46.0735 120.907 48.8065V48.8858C120.907 50.6236 119.082 51.6187 117.344 51.6187C115.606 51.6187 113.869 50.7102 113.869 48.7993C113.869 47.7248 113.869 47.0614 113.869 46.1456C113.869 43.081 114.114 38.9419 120.907 38.8553H123.474C123.474 34.298 123.474 28.998 123.553 25.7674C123.632 22.7028 125.543 21.376 130.677 21.1308C131.507 21.1308 133.079 21.0515 134.982 21.0515C135.148 20.3881 135.314 19.5588 135.559 18.4844H143.109V18.506ZM115.275 57.8562C115.275 56.9476 115.772 55.9525 117.099 55.2891C118.505 54.5464 121.159 51.9721 121.822 50.0684C122.32 48.7416 123.228 48.244 124.224 48.244C125.882 48.244 127.541 49.5708 127.541 51.1428C127.541 53.8758 121.988 60.6685 118.512 60.6685C116.688 60.6685 115.275 59.2624 115.275 57.8562ZM150.154 27.5413C150.154 27.2096 150.075 26.8779 150.075 26.6328C149.909 25.1401 149.909 24.9742 140.052 24.9742C131.687 24.9742 130.439 24.9742 130.439 26.6328L130.36 27.5413H150.154ZM150.154 30.6853H130.36V33.2524H150.154V30.6853ZM150.068 36.3171H130.353L130.432 38.8049C133.663 38.7255 136.893 38.7255 140.21 38.7255C143.52 38.7255 146.837 38.7255 149.988 38.8049L150.068 36.3171ZM146.924 66.1416C146.924 65.8964 146.758 65.7306 146.513 65.7306C146.426 65.7306 146.426 65.7306 146.347 65.7306C146.015 65.8099 140.549 65.8099 136.489 65.8099C137.982 67.5478 139.72 69.1197 141.955 70.3672C143.109 69.6173 146.924 67.1367 146.924 66.1416Z" fill="#F5E928"/>
<path d="M103.103 38.6387C99.8722 43.0302 98.1344 45.1791 95.5673 45.1791C93.4112 45.1791 91.6733 43.4412 91.6733 41.5375C91.6733 40.6289 92.0051 39.7132 92.8343 38.8046C100.536 30.6057 105.345 22.652 109.564 11.6337C110.227 9.97515 111.554 9.23242 112.96 9.23242C115.195 9.23242 117.683 11.0568 117.683 13.458C117.683 14.0349 117.517 15.6934 111.143 26.5459L103.103 38.6387Z" fill="#1C96D4"/>
<path d="M135.574 18.5056L121.08 18.5849C119.09 18.5849 118.015 17.0923 118.015 15.5996C118.015 14.1069 119.09 12.6143 121.08 12.6143H161.75C163.906 12.6143 164.98 14.1069 164.98 15.5996C164.98 17.0923 163.906 18.5849 161.75 18.5849L143.109 18.5056" fill="#1C96D4"/>
<path d="M194.912 78.2336C188.12 80.3032 185.055 72.1043 191.682 70.3665C208 65.975 218.521 55.9518 222.249 45.431C223.078 43.1956 222.66 41.8687 219.516 41.7894C211.065 41.6236 195.662 41.8687 186.8 42.2005C180.916 42.4456 180.173 34.5785 186.555 34.4126C197.242 34.1674 211.159 34.0809 222.422 34.1674C230.708 34.2468 234.767 38.8906 231.371 47.0102C225.566 60.8336 215.456 71.9385 194.912 78.2336Z" fill="#F5E928"/>
<path d="M221.254 26.5458C213.466 26.5458 202.037 26.791 193.088 26.5458C187.622 26.3799 187.291 18.7579 193.665 18.8445C201.619 18.9238 213.214 18.9238 221.579 18.8445C224.398 18.8445 226.05 20.6689 226.05 22.6519C226.05 24.6349 224.651 26.5458 221.254 26.5458Z" fill="#1C96D4"/>
<path d="M292.982 36.9004C292.736 45.3516 292.571 67.0494 292.816 75.3348C292.982 81.63 284.033 82.3727 284.119 75.58C284.206 68.9531 284.53 55.4542 284.617 45.7627L292.982 36.9004Z" fill="#F5E928"/>
<path d="M284.61 45.7631C278.069 52.1448 270.945 57.69 262.328 62.9107C254.706 67.5474 250.401 59.1034 256.033 56.3704C271.276 48.9143 287.097 33.6703 296.457 18.9311C300.099 13.2128 307.389 18.5201 303.827 23.3226C300.099 28.2909 296.536 32.7689 292.974 36.908L284.61 45.7631Z" fill="#1C96D4"/>
<path d="M331.394 69.8695C349.703 64.0719 360.556 48.9938 364.276 36.8217C364.94 34.5863 364.687 32.5167 361.623 32.4302C353.503 32.185 340.415 32.6753 328.488 33.0936C323.022 33.2594 322.438 25.1399 328.323 24.8947C339.254 24.3972 354.743 24.3178 365.264 24.4837C371.97 24.563 376.694 29.6179 374.292 36.4106C368.495 52.9742 358.385 69.0474 335.195 77.9097C328.164 80.5489 325.099 71.8525 331.394 69.8695Z" fill="#F5E928"/>
<path d="M369.331 20.1637C365.105 18.4259 368.422 13.4575 372.23 14.8637C374.465 15.6929 378.612 17.849 380.429 19.832C383.659 23.3077 378.77 28.3626 376.037 25.1321C374.963 23.8125 370.99 20.9137 369.331 20.1637Z" fill="#1C96D4"/>
<path d="M377.92 11.9074C373.694 10.2489 376.759 5.28054 380.653 6.52082C382.888 7.26355 387.114 9.34031 389.017 11.244C392.327 14.5538 387.611 19.7746 384.792 16.6306C383.638 15.3903 379.578 12.5708 377.92 11.9074Z" fill="#1C96D4"/>
</svg>
