<?xml version="1.0" encoding="UTF-8"?>
<svg id="_レイヤー_2" data-name="レイヤー 2" xmlns="http://www.w3.org/2000/svg" viewBox="0 0 792.59 122.16">
  <defs>
    <style>
      .cls-1 {
        fill: #f4e827;
      }

      .cls-2 {
        fill: #1d95d4;
      }

      .cls-3 {
        fill: #231815;
      }

      .cls-4 {
        stroke: #231815;
        stroke-width: 10px;
      }

      .cls-4, .cls-5 {
        fill: none;
      }

      .cls-5 {
        stroke: #000;
        stroke-width: 12px;
      }
    </style>
  </defs>
  <g id="_圖層_1" data-name="圖層 1">
    <g>
      <g>
        <path class="cls-3" d="m11.2,119.66c-4.64,0-8.7-3.75-8.7-8.01,0-1.57.56-3.87,3.25-5.99,10.05-7.67,11.34-19.68,11.34-29.28,0-3.24-.12-6.33-.23-8.97v-.56c0-5.54,4.31-11.19,13.95-11.34,7.81-.23,16.48-.23,25.66-.23s18.19,0,26.38.23c14.61.41,14.61,8.23,14.61,18.12s-2.52,15.33-15.43,15.59c-9.27.23-19.88.35-31.53.35-3.21,0-6.53-.03-9.93-.06-2.83-.02-5.71-.05-8.62-.06-3.18,17.91-13.25,30.21-20.74,30.21Zm21.91-44.02c5.44.07,10.68.08,15.79.08v-6.82c-4.84.03-9.54.13-13.76.22-2.03,0-2.03.36-2.03,1.06v5.46Zm31.7.03c5.35-.1,10.36-.2,15.02-.3,1.53-.06,1.69-.06,1.69-3.13,0-.88-.1-1.8-.21-2.68,0-.04-.01-.07-.02-.1-1.44-.53-7.2-.57-16.48-.58v6.79Z"/>
        <path class="cls-3" d="m56.46,57.77c9.07,0,18.15,0,26.31.23,12.18.34,12.18,5.74,12.18,15.62,0,8.84-1.84,12.87-12.98,13.1-9.3.23-19.99.34-31.48.34-6.55,0-13.55-.11-20.68-.11-2.64,18.49-12.75,30.21-18.61,30.21-3.33,0-6.2-2.64-6.2-5.51,0-1.38.69-2.76,2.3-4.02,10.68-8.16,12.29-20.56,12.29-31.25,0-3.22-.11-6.32-.23-9.08v-.46c0-4.94,4.14-8.73,11.49-8.85,7.81-.23,16.66-.23,25.62-.23m5.86,20.45c6.32-.11,12.18-.23,17.58-.34,3.1-.11,4.14-1.26,4.14-5.63,0-1.03-.11-2.07-.23-2.99-.46-2.87-1.61-2.87-21.48-2.87v11.83m-10.91,0v-11.83c-5.63,0-11.03.11-16.31.23-2.64,0-4.48.8-4.48,3.56v7.93c7.24.11,14.24.11,20.79.11m5.05-25.45c-8.78,0-17.85,0-25.73.23-9.64.16-16.37,5.85-16.37,13.84v.67c.11,2.62.23,5.68.23,8.87,0,9.59-1.23,20.32-10.33,27.27l-.03.02-.03.02c-3.48,2.73-4.21,5.83-4.21,7.95,0,5.7,5.13,10.51,11.2,10.51,8.36,0,18.97-11.96,22.8-30.2,2.21.01,4.39.03,6.54.05,3.46.03,6.72.06,9.95.06,11.67,0,22.3-.12,31.6-.35,14.82-.31,17.86-7.45,17.86-18.09,0-5.42,0-10.1-2.2-13.89-3.33-5.75-10.06-6.59-14.84-6.73-8.23-.23-17.49-.23-26.45-.23h0Zm10.86,20.35v-1.74c5.49,0,9.53.05,11.69.23.01.21.02.42.02.62,0,.24,0,.46-.01.65-3.69.08-7.59.16-11.7.23h0Zm-31.7-1.52c3.36-.07,7.02-.15,10.79-.19v1.8c-3.52,0-7.12-.02-10.79-.05v-1.56h0Z"/>
      </g>
      <g>
        <path class="cls-3" d="m22.23,53.49c-4.66,0-7.09-3.57-7.09-7.09s2.49-6.98,7.09-6.98l25.87.1v-1.87l-34.48.11c-4.69,0-7.22-3.66-7.22-7.09s2.53-7.1,7.21-7.1l34.37.11v-3.93c0-5.41,4.32-8.24,8.59-8.24,5.06,0,8.59,3.39,8.59,8.24l-.07,3.82h34.33c4.53,0,6.98,3.66,6.98,7.1s-2.45,7.09-6.98,7.09l-34.37-.11v1.87l25.52-.1c4.77,0,7.33,3.6,7.33,6.98s-2.57,7.09-7.32,7.09H22.23Z"/>
        <path class="cls-3" d="m56.58,14c3.1,0,6.09,1.84,6.09,5.74l-.11,6.32h36.87c2.99,0,4.48,2.3,4.48,4.59s-1.49,4.59-4.48,4.59l-36.87-.11v6.89l28.03-.11c3.22,0,4.82,2.3,4.82,4.48,0,2.3-1.61,4.59-4.82,4.59H22.23c-3.1,0-4.59-2.3-4.59-4.59s1.49-4.48,4.59-4.48l28.37.11v-6.89l-36.99.11c-3.1,0-4.71-2.3-4.71-4.59s1.61-4.59,4.71-4.59l36.87.11v-6.43c0-3.91,3.1-5.74,6.09-5.74m0-5c-6.32,0-11.09,4.62-11.09,10.74v1.42l-31.86-.1c-5.55,0-9.73,4.12-9.73,9.59s4.17,9.59,9.71,9.59h1.21c-1.44,1.75-2.19,3.98-2.19,6.14,0,5.47,4.12,9.59,9.59,9.59h68.35c6.38,0,9.82-4.94,9.82-9.59,0-2.17-.76-4.39-2.24-6.15h1.24c5.42,0,9.5-4.12,9.5-9.59s-4.08-9.59-9.48-9.59h-31.78l.02-1.23v-.05s0-.05,0-.05c0-6.23-4.66-10.74-11.09-10.74h0Z"/>
      </g>
      <g>
        <path class="cls-3" d="m161.86,119.54c-4.52,0-7.32-3.86-7.32-7.44,0-.12,0-.24.01-.37-.77.22-1.44.34-1.99.34-4.38,0-7.09-3.5-7.09-6.75,0-2.64,1.69-4.98,4.42-6.1,7.21-3.05,15.4-8.48,22.9-15.13-3.07-1.83-4.57-5.03-4.57-9.67,0-7.59,0-12.61,6.64-12.61,3.85,0,6.75,2.51,6.75,5.83,0,1.43-.04,3.08-.08,4.35-.02.73-.04,1.32-.04,1.68.45.09,1.37.2,3.24.2,2.87,0,6.12,0,6.67-.5h0s.13-.22.13-1.02c0-3.43,2.59-5.83,6.29-5.83,3.43,0,6.98,2.22,6.98,5.95,0,6.78-2.25,10.02-5.72,11.65,1.21-.01,2.12-.02,2.53-.02,7.53,0,10.2,4.32,10.2,8.01,0,3.93-2.79,7.04-7.35,10.57,4.62.78,10.11,1.21,16.6,1.29,3.56,0,6.26,2.9,6.26,6.75s-2.71,7.44-7.9,7.44c-11.54,0-22.06-2.01-30.53-5.82-14.92,7.12-26.9,7.2-27.02,7.2Zm11.35-18.71c-1.86,1.42-3.85,2.83-5.84,4.15,2.71-.4,5.39-.98,7.98-1.72-.75-.77-1.47-1.58-2.14-2.42Zm14.32-4.5c.41.31.84.6,1.27.88.48-.32.91-.61,1.29-.88-.74,0-1.59,0-2.56,0Z"/>
        <path class="cls-3" d="m174.84,64.31c2.07,0,4.25,1.15,4.25,3.33,0,2.3-.12,5.17-.12,6.09,0,1.95.69,2.64,5.74,2.64,6.78,0,9.3,0,9.3-4.02,0-2.3,1.84-3.33,3.79-3.33,2.18,0,4.48,1.26,4.48,3.45,0,10.11-5.05,10.45-14.13,11.03-.23.57-.69,1.26-1.38,1.95l-1.49,1.38c5.86-.11,14.82-.23,16.31-.23,5.28,0,7.7,2.53,7.7,5.51,0,3.56-3.33,6.55-10.8,11.83,5.86,1.61,13.33,2.41,22.52,2.53,2.41,0,3.79,2.07,3.79,4.25,0,2.41-1.72,4.94-5.4,4.94-11.95,0-22.4-2.18-30.56-6.09-12.75,6.32-24.12,7.47-26.99,7.47s-4.82-2.53-4.82-4.94c0-1.95,1.26-3.91,4.36-4.02,6.78-.34,13.21-1.72,18.84-3.79-2.64-2.07-4.82-4.48-6.55-7.01-8.73,7.01-18.38,12.29-21.14,12.29s-4.59-2.18-4.59-4.25c0-1.49.92-2.99,2.87-3.79,8.96-3.79,18.72-10.8,26.65-18.38-4.94-.92-6.78-3.68-6.78-8.73,0-7.58,0-10.11,4.14-10.11m14.01,35.84c1.61-1.03,6.89-4.48,6.89-5.86,0-.34-.23-.57-.57-.57h-.23c-.46.11-8.04.11-13.67.11,2.07,2.41,4.48,4.59,7.58,6.32m-14.01-40.84c-5.67,0-7.68,3.54-8.37,5.66-.76,2.34-.76,5.17-.76,9.45,0,4.52,1.31,7.61,3.21,9.7-6.67,5.6-13.74,10.14-20.03,12.81-3.64,1.5-5.92,4.72-5.92,8.4,0,5.03,4.19,9.14,9.38,9.25,1.09,4.29,4.94,7.47,9.52,7.47,4.27,0,15.13-1.48,27.05-6.96,8.6,3.65,19.08,5.58,30.5,5.58,5.04,0,10.4-3.48,10.4-9.94,0-5.17-3.84-9.23-8.75-9.25-3.99-.05-7.58-.23-10.81-.55,2.58-2.67,4.05-5.42,4.05-8.81,0-4.46-2.85-8.96-9.13-10.19,1.33-2.24,2.12-5.29,2.12-9.46,0-4.74-4.16-8.45-9.48-8.45-4.72,0-8.23,3-8.73,7.28-1.15.07-2.83.07-4.36.07-.25,0-.48,0-.69,0,.03-1.17.06-2.5.06-3.73,0-4.75-3.98-8.33-9.25-8.33h0Z"/>
      </g>
      <g>
        <path class="cls-3" d="m156.34,89.21c-3.78,0-6.98-2.93-6.98-6.41,0-2.44,1.42-4.56,3.91-5.8,1.48-.78,4.64-3.92,5.3-5.82,1.01-2.69,3.08-4.21,5.69-4.21,3.78,0,7.1,3.05,7.1,6.52,0,4.93-8.57,15.71-15.02,15.71Z"/>
        <path class="cls-3" d="m164.27,69.48c2.3,0,4.6,1.84,4.6,4.02,0,3.79-7.7,13.21-12.52,13.21-2.53,0-4.48-1.95-4.48-3.91,0-1.26.69-2.64,2.53-3.56,1.95-1.03,5.63-4.59,6.55-7.24.69-1.84,1.95-2.53,3.33-2.53m0-5c-3.66,0-6.66,2.16-8.01,5.77l-.02.06-.02.06c-.4,1.16-2.96,3.8-4.13,4.44-3.27,1.66-5.22,4.65-5.22,8,0,4.83,4.34,8.91,9.48,8.91s9.51-4.29,11.8-6.85c1.72-1.93,5.72-6.89,5.72-11.36,0-4.89-4.39-9.02-9.6-9.02h0Z"/>
      </g>
      <g>
        <path class="cls-3" d="m138.88,119.54c-4.58,0-7.78-3.06-7.78-7.44l1.19-48.49c-2.35,2.55-4.7,4.12-7.77,4.12-4.28,0-7.9-3.46-7.9-7.55,0-1.98.76-3.83,2.26-5.47,10.3-10.96,16.87-21.64,22.72-36.89,1.24-3.1,3.87-4.94,7.04-4.94,4.28,0,9.05,3.43,9.05,8.36,0,1.25,0,3.34-9.09,18.85l-1.48,71.95c-.17,4.89-4.37,7.5-8.24,7.5Z"/>
        <path class="cls-3" d="m148.65,15.38c3.1,0,6.55,2.53,6.55,5.86,0,.8-.23,3.1-9.07,18.15l-1.49,72.6c-.11,3.33-2.99,5.05-5.74,5.05s-5.28-1.61-5.28-4.94v-.11l1.38-55.83c-4.48,6.09-6.89,9.07-10.45,9.07-2.99,0-5.4-2.41-5.4-5.05,0-1.26.46-2.53,1.61-3.79,10.68-11.37,17.35-22.4,23.2-37.68.92-2.3,2.76-3.33,4.71-3.33m0-5c-4.17,0-7.75,2.48-9.35,6.47v.03s-.03.03-.03.03c-5.72,14.92-12.15,25.37-22.18,36.04l-.03.03-.03.03c-1.93,2.12-2.91,4.53-2.91,7.15,0,5.45,4.76,10.05,10.4,10.05,1.93,0,3.61-.46,5.14-1.28l-1.06,42.9v.06s0,.06,0,.06v.11c0,5.76,4.33,9.94,10.28,9.94s10.55-4.25,10.74-9.88v-.03s0-.03,0-.03l1.47-71.3c9.1-15.59,9.1-17.78,9.1-19.55,0-6.4-6.09-10.86-11.55-10.86h0Z"/>
      </g>
      <g>
        <path class="cls-3" d="m215.39,86.57c-2.37,0-4.47-1.22-5.89-3.45-1.75-2.88-4.16-5.69-6.48-7.56l-.09-.08c-1.55-1.38-2.33-2.93-2.33-4.63,0-2.19,1.33-4.17,3.28-5.26-3.16-.03-6.6-.04-10.11-.04.93,1.31,1.61,2.81,1.61,4.39,0,3.47-3.05,6.52-6.52,6.52-2.04,0-3.82-1.03-4.9-2.82-1.32-2.17-3.4-4.01-4.4-4.89l-.18-.16c-.97-.81-1.61-1.88-1.81-3.04-4.9,0-9.47.02-13.24.11-1.22.03-1.83.16-2.11.24-.02.19-.04.44-.05.65v3.85c0,3.94-3.78,6.29-7.44,6.29-4.24,0-7.32-2.69-7.32-6.41v-3.68c0-3.41,0-12.46,12.23-12.61h1.09c0-5.74.01-11.78.12-15.71.11-4.07,2.14-6.27,4.88-7.46l-5.81.03c-4.4,0-6.76-3.42-6.76-6.64s2.37-6.64,6.75-6.64h56.4c4.53,0,6.98,3.42,6.98,6.64s-2.45,6.64-6.98,6.64l-9.58-.04c4.63,2.02,5.37,5.71,5.42,7.58.12,2.19.12,5.04.12,8.34,0,2.39,0,4.84-.05,7.26h.3c7.91.19,12.94,4.06,13.18,10.1v6.07s0,.11,0,.11c-.23,2.61-1.91,4.7-4.33,5.69.6,1.09,1,2.29,1,3.63,0,3.78-3.2,6.98-6.98,6.98Z"/>
        <path class="cls-3" d="m216.31,20.09c2.99,0,4.48,2.07,4.48,4.14s-1.49,4.14-4.48,4.14l-25.85-.11c-.34,1.26-.8,2.53-1.15,3.56,4.36,0,8.5,0,10.22.11,6.43.23,9.99,2.53,10.11,6.55.11,2.18.11,5.05.11,8.27s0,6.55-.11,9.76h2.87c4.82.11,10.45,1.95,10.68,7.7v5.86c-.23,2.64-2.64,4.02-5.05,4.02-.57,0-1.15-.11-1.61-.23,1.72,1.84,3.33,3.68,3.33,5.74,0,2.53-2.18,4.48-4.48,4.48-1.38,0-2.76-.69-3.79-2.3-1.95-3.22-4.59-6.2-7.01-8.16-1.03-.92-1.49-1.84-1.49-2.76,0-1.95,1.95-3.68,4.25-3.68,2.07,0,3.68,1.49,5.74,3.33v-4.25c-.11-2.53-.92-3.1-4.25-3.1-5.97-.11-13.67-.11-21.37-.11,1.38.92,5.4,4.02,5.4,6.89,0,2.18-2.07,4.02-4.02,4.02-1.03,0-2.07-.46-2.76-1.61-1.61-2.64-4.02-4.71-5.05-5.63-.69-.57-1.03-1.26-1.03-1.95,0-.57.23-1.15.69-1.72-6.09,0-11.83,0-16.43.11-4.48.11-4.48,1.38-4.59,3.33v3.91c0,2.41-2.53,3.79-4.94,3.79s-4.82-1.26-4.82-3.91v-3.68c0-4.25.34-9.99,9.76-10.11h3.56c0-6.32,0-13.67.11-18.15.11-4.25,2.76-6.09,9.88-6.43,1.15,0,3.33-.11,5.97-.11.23-.92.46-2.07.8-3.56l-20.1.11c-2.76,0-4.25-2.07-4.25-4.14s1.49-4.14,4.25-4.14h56.4m-43.54,20.68h27.45c0-.46-.11-.92-.11-1.26-.23-2.07-.23-2.3-13.9-2.3-11.6,0-13.33,0-13.33,2.3l-.11,1.26m0,7.93h27.45v-3.56h-27.45v3.56m.11,7.7c4.48-.11,8.96-.11,13.56-.11s9.19,0,13.56.11l.11-3.45h-27.34l.11,3.45m43.42-41.3h-56.4c-5.19,0-9.25,4.01-9.25,9.14s3.83,8.9,8.8,9.13c-.65,1.32-1.05,2.93-1.11,4.87-.09,3.41-.11,8.36-.11,13.34-5.21.34-8.97,2.28-11.19,5.76-2.13,3.35-2.13,7.22-2.13,9.29v3.68c0,5.08,4.22,8.91,9.82,8.91s9.94-3.86,9.94-8.79v-2.25c3.23-.08,7.03-.1,11.13-.1.47.91,1.13,1.74,1.97,2.46l.13.12c.98.86,2.79,2.47,3.92,4.33,1.52,2.54,4.09,4.01,7.03,4.01,4.81,0,9.02-4.22,9.02-9.02,0-.46-.05-1.1-.23-1.88.32,0,.65,0,.97,0-.33.88-.51,1.82-.51,2.8,0,1.68.55,4.16,3.17,6.49l.09.08.09.07c2.08,1.68,4.33,4.31,5.88,6.86l.03.05.03.05c1.88,2.92,4.79,4.59,8,4.59,5.14,0,9.48-4.34,9.48-9.48,0-.9-.13-1.74-.36-2.54,2.07-1.54,3.43-3.85,3.67-6.56l.02-.22v-6.28c-.28-6.79-5.48-11.49-13.45-12.36.01-1.65.01-3.29.01-4.9,0-3.31,0-6.18-.12-8.48-.04-1.04-.28-2.95-1.38-4.91h3.02c6.18.01,9.5-4.69,9.5-9.12s-3.32-9.14-9.48-9.14h0Z"/>
      </g>
    </g>
    <g>
      <g>
        <g>
          <g>
            <path class="cls-4" d="m19.2,109.16c-3.33,0-6.2-2.64-6.2-5.51,0-1.38.69-2.76,2.3-4.02,10.68-8.16,12.29-20.56,12.29-31.25,0-3.22-.11-6.32-.23-9.07v-.46c0-4.94,4.14-8.73,11.49-8.85,7.81-.23,16.66-.23,25.62-.23s18.15,0,26.31.23c12.18.34,12.18,5.74,12.18,15.62,0,8.85-1.84,12.87-12.98,13.1-9.3.23-19.99.34-31.48.34-6.55,0-13.55-.11-20.68-.11-2.64,18.49-12.75,30.21-18.61,30.21ZM70.55,18.06l.11-6.32c0-3.91-2.99-5.74-6.09-5.74s-6.09,1.84-6.09,5.74v6.43l.12,8.96v6.89l-28.37-.11c-3.1,0-4.59,2.3-4.59,4.48,0,2.3,1.49,4.59,4.59,4.59h68.35c3.22,0,4.82-2.3,4.82-4.59s-1.61-4.48-4.82-4.48l-28.03.11v-15.97Zm-11.14,40.32c-5.63,0-11.03.11-16.31.23-2.64,0-4.48.8-4.48,3.56v7.93c7.24.11,14.24.11,20.79.11v-11.83Zm10.91,11.83c6.32-.11,12.18-.23,17.58-.34,3.1-.11,4.14-1.26,4.14-5.63,0-1.03-.11-2.07-.23-2.99-.46-2.87-1.61-2.87-21.48-2.87v11.83Z"/>
            <path class="cls-4" d="m64.58,6c3.1,0,6.09,1.84,6.09,5.74l-.11,6.32v15.97l28.03-.11c3.22,0,4.82,2.3,4.82,4.48,0,2.3-1.61,4.59-4.82,4.59H30.23c-3.1,0-4.59-2.3-4.59-4.59s1.49-4.48,4.59-4.48l28.37.11v-6.89l-.12-8.96v-6.43c0-3.91,3.1-5.74,6.09-5.74m-.12,43.77c9.07,0,18.15,0,26.31.23,12.18.34,12.18,5.74,12.18,15.62,0,8.85-1.84,12.87-12.98,13.1-9.3.23-19.99.34-31.48.34-6.55,0-13.55-.11-20.68-.11-2.64,18.49-12.75,30.21-18.61,30.21-3.33,0-6.2-2.64-6.2-5.51,0-1.38.69-2.76,2.3-4.02,10.68-8.16,12.29-20.56,12.29-31.25,0-3.22-.11-6.32-.23-9.07v-.46c0-4.94,4.14-8.73,11.49-8.85,7.81-.23,16.66-.23,25.62-.23m5.86,20.45c6.32-.11,12.18-.23,17.58-.34,3.1-.11,4.14-1.26,4.14-5.63,0-1.03-.11-2.07-.23-2.99-.46-2.87-1.61-2.87-21.48-2.87v11.83m-10.91,0v-11.83c-5.63,0-11.03.11-16.31.23-2.64,0-4.48.8-4.48,3.56v7.93c7.24.11,14.24.11,20.79.11m5.17-65.21c-3.52,0-7.09,2.32-7.09,6.74v6.43l.12,8.97v5.88s-27.37-.11-27.37-.11c-3.68,0-5.6,2.76-5.6,5.48,0,3.67,2.81,5.59,5.59,5.59h68.35c3.82,0,5.82-2.81,5.82-5.59s-2-5.48-5.82-5.48l-27.03.11v-14.96l.11-6.3c0-4.65-3.67-6.76-7.09-6.76h0Zm-.12,43.77c-9.16,0-17.82,0-25.65.23-7.45.12-12.46,4.07-12.46,9.84v.46c.11,2.7.23,5.81.23,9.07,0,9.95-1.35,22.4-11.9,30.45-2.23,1.75-2.69,3.58-2.69,4.82,0,3.47,3.37,6.51,7.2,6.51,6.24,0,16.54-11.47,19.47-30.21,3.34,0,6.67.03,9.9.06,3.45.03,6.7.06,9.91.06,11.64,0,22.24-.12,31.5-.34,11.8-.24,13.96-4.94,13.96-14.09,0-9.79,0-16.25-13.15-16.62-8.17-.23-17.4-.23-26.33-.23h0Zm6.86,20.43v-9.81c9.12,0,14.22.01,16.89.35,2.38.3,2.44.7,2.6,1.68.11.89.22,1.87.22,2.83,0,4.12-.87,4.54-3.17,4.63-5.09.11-10.61.22-16.54.33h0Zm-31.7-.08v-6.94c0-1.54.59-2.56,3.48-2.56,4.69-.1,9.94-.22,15.31-.23v9.83c-6.05,0-12.28,0-18.79-.1h0Z"/>
          </g>
          <g>
            <path class="cls-4" d="m70.55,18.06h36.87c2.99,0,4.48,2.3,4.48,4.59s-1.49,4.59-4.48,4.59l-36.87-.11h-11.95l-36.99.11c-3.1,0-4.71-2.3-4.71-4.59s1.61-4.59,4.71-4.59l36.87.11,12.06-.11Z"/>
            <path class="cls-4" d="m107.43,18.06c2.99,0,4.48,2.3,4.48,4.59s-1.49,4.59-4.48,4.59l-36.87-.11h-11.95l-36.99.11c-3.1,0-4.71-2.3-4.71-4.59s1.61-4.59,4.71-4.59l36.87.11,12.06-.11h36.87m0-1h-36.87l-12.07.12-36.86-.12c-3.75,0-5.71,2.81-5.71,5.59s1.96,5.59,5.71,5.59l36.99-.11h11.94l36.87.11c3.6,0,5.48-2.81,5.48-5.59s-1.88-5.59-5.48-5.59h0Z"/>
          </g>
        </g>
        <g>
          <g>
            <path class="cls-4" d="m154.12,31.39l-1.49,72.6c-.11,3.33-2.99,5.05-5.74,5.05s-5.28-1.61-5.28-4.94v-.11l1.38-55.83,11.14-16.77Zm39.17,47.44c5.86-.11,14.82-.23,16.31-.23,5.28,0,7.7,2.53,7.7,5.51,0,3.56-3.33,6.55-10.8,11.83,5.86,1.61,13.33,2.41,22.52,2.53,2.41,0,3.79,2.07,3.79,4.25,0,2.41-1.72,4.94-5.4,4.94-11.95,0-22.4-2.18-30.56-6.09-12.75,6.32-24.12,7.47-26.99,7.47s-4.82-2.53-4.82-4.94c0-1.95,1.26-3.91,4.36-4.02,6.78-.34,13.21-1.72,18.84-3.79-2.64-2.07-4.82-4.48-6.55-7.01-8.73,7.01-18.38,12.29-21.14,12.29s-4.59-2.18-4.59-4.25c0-1.49.92-2.99,2.87-3.79,8.96-3.79,18.72-10.8,26.65-18.38-4.94-.92-6.78-3.68-6.78-8.73,0-7.58,0-10.11,4.14-10.11,2.07,0,4.25,1.15,4.25,3.33,0,2.3-.12,5.17-.12,6.09,0,1.95.69,2.64,5.74,2.64,6.78,0,9.3,0,9.3-4.02,0-2.3,1.84-3.33,3.79-3.33,2.18,0,4.48,1.26,4.48,3.45,0,10.11-5.05,10.45-14.13,11.03-.23.57-.69,1.26-1.38,1.95l-1.49,1.38Zm5.17-58.59c-.34,1.26-.8,2.53-1.15,3.56,4.36,0,8.5,0,10.22.11,6.43.23,9.99,2.53,10.11,6.55.11,2.18.11,5.05.11,8.27s0,6.55-.11,9.76h2.87c4.82.11,10.45,1.95,10.68,7.7v5.86c-.23,2.64-2.64,4.02-5.05,4.02-.57,0-1.15-.11-1.61-.23,1.72,1.84,3.33,3.68,3.33,5.74,0,2.53-2.18,4.48-4.48,4.48-1.38,0-2.76-.69-3.79-2.3-1.95-3.22-4.59-6.2-7.01-8.16-1.03-.92-1.49-1.84-1.49-2.76,0-1.95,1.95-3.68,4.25-3.68,2.07,0,3.68,1.49,5.74,3.33v-4.25c-.11-2.53-.92-3.1-4.25-3.1-5.97-.11-13.67-.11-21.37-.11,1.38.92,5.4,4.02,5.4,6.89,0,2.18-2.07,4.02-4.02,4.02-1.03,0-2.07-.46-2.76-1.61-1.61-2.64-4.02-4.71-5.05-5.63-.69-.57-1.03-1.26-1.03-1.95,0-.57.23-1.15.69-1.72-6.09,0-11.83,0-16.43.11-4.48.11-4.48,1.38-4.59,3.33v3.91c0,2.41-2.53,3.79-4.94,3.79s-4.82-1.26-4.82-3.91v-3.68c0-4.25.34-9.99,9.76-10.11h3.56c0-6.32,0-13.67.11-18.15.11-4.25,2.76-6.09,9.88-6.43,1.15,0,3.33-.11,5.97-.11.23-.92.46-2.07.8-3.56h10.45Zm-38.6,54.56c0-1.26.69-2.64,2.53-3.56,1.95-1.03,5.63-4.6,6.55-7.24.69-1.84,1.95-2.53,3.33-2.53,2.3,0,4.6,1.84,4.6,4.02,0,3.79-7.7,13.21-12.52,13.21-2.53,0-4.48-1.95-4.48-3.91Zm48.36-42.04c0-.46-.11-.92-.11-1.26-.23-2.07-.23-2.3-13.9-2.3-11.6,0-13.33,0-13.33,2.3l-.11,1.26h27.45Zm0,4.37h-27.45v3.56h27.45v-3.56Zm-.11,7.81h-27.34l.11,3.45c4.48-.11,8.96-.11,13.56-.11s9.19,0,13.56.11l.11-3.45Zm-4.37,41.35c0-.34-.23-.57-.57-.57h-.23c-.46.11-8.04.11-13.67.11,2.07,2.41,4.48,4.59,7.58,6.32,1.61-1.03,6.89-4.48,6.89-5.86Z"/>
            <path class="cls-4" d="m198.46,20.24c-.34,1.26-.8,2.53-1.15,3.56,4.36,0,8.5,0,10.22.11,6.43.23,9.99,2.53,10.11,6.55.11,2.18.11,5.05.11,8.27s0,6.55-.11,9.76h2.87c4.82.11,10.45,1.95,10.68,7.7v5.86c-.23,2.64-2.64,4.02-5.05,4.02-.57,0-1.15-.11-1.61-.23,1.72,1.84,3.33,3.68,3.33,5.74,0,2.53-2.18,4.48-4.48,4.48-1.38,0-2.76-.69-3.79-2.3-1.95-3.22-4.59-6.2-7.01-8.16-1.03-.92-1.49-1.84-1.49-2.76,0-1.95,1.95-3.68,4.25-3.68,2.07,0,3.68,1.49,5.74,3.33v-4.25c-.11-2.53-.92-3.1-4.25-3.1-5.97-.11-13.67-.11-21.37-.11,1.38.92,5.4,4.02,5.4,6.89,0,2.18-2.07,4.02-4.02,4.02-1.03,0-2.07-.46-2.76-1.61-1.61-2.64-4.02-4.71-5.05-5.63-.69-.57-1.03-1.26-1.03-1.95,0-.57.23-1.15.69-1.72-6.09,0-11.83,0-16.43.11-4.48.11-4.48,1.38-4.59,3.33v3.91c0,2.41-2.53,3.79-4.94,3.79s-4.82-1.26-4.82-3.91v-3.68c0-4.25.34-9.99,9.76-10.11h3.56c0-6.32,0-13.67.11-18.15.11-4.25,2.76-6.09,9.88-6.43,1.15,0,3.33-.11,5.97-.11.23-.92.46-2.07.8-3.56h10.45m-17.69,12.52h27.45c0-.46-.11-.92-.11-1.26-.23-2.07-.23-2.3-13.9-2.3-11.6,0-13.33,0-13.33,2.3l-.11,1.26m0,7.93h27.45v-3.56h-27.45v3.56m27.34,4.25h-27.34l.11,3.45c4.48-.11,8.96-.11,13.56-.11s9.19,0,13.56.11l.11-3.45m-53.99-13.55l-1.49,72.6c-.11,3.33-2.99,5.05-5.74,5.05s-5.28-1.61-5.28-4.94v-.11l1.38-55.83,11.14-16.77m28.72,24.93c2.07,0,4.25,1.15,4.25,3.33,0,2.3-.12,5.17-.12,6.09,0,1.95.69,2.64,5.74,2.64,6.78,0,9.3,0,9.3-4.02,0-2.3,1.84-3.33,3.79-3.33,2.18,0,4.48,1.26,4.48,3.45,0,10.11-5.05,10.45-14.13,11.03-.23.57-.69,1.26-1.38,1.95l-1.49,1.38c5.86-.11,14.82-.23,16.31-.23,5.28,0,7.7,2.53,7.7,5.51,0,3.56-3.33,6.55-10.8,11.83,5.86,1.61,13.33,2.41,22.52,2.53,2.41,0,3.79,2.07,3.79,4.25,0,2.41-1.72,4.94-5.4,4.94-11.95,0-22.4-2.18-30.56-6.09-12.75,6.32-24.12,7.47-26.99,7.47s-4.82-2.53-4.82-4.94c0-1.95,1.26-3.91,4.36-4.02,6.78-.34,13.21-1.72,18.84-3.79-2.64-2.07-4.82-4.48-6.55-7.01-8.73,7.01-18.38,12.29-21.14,12.29s-4.59-2.18-4.59-4.25c0-1.49.92-2.99,2.87-3.79,8.96-3.79,18.72-10.8,26.65-18.38-4.94-.92-6.78-3.68-6.78-8.73,0-7.58,0-10.11,4.14-10.11m14.01,35.84c1.61-1.03,6.89-4.48,6.89-5.86,0-.34-.23-.57-.57-.57h-.23c-.46.11-8.04.11-13.67.11,2.07,2.41,4.48,4.59,7.58,6.32m-24.58-30.67c2.3,0,4.6,1.84,4.6,4.02,0,3.79-7.7,13.21-12.52,13.21-2.53,0-4.48-1.95-4.48-3.91,0-1.26.69-2.64,2.53-3.56,1.95-1.03,5.63-4.6,6.55-7.24.69-1.84,1.95-2.53,3.33-2.53m27.5-42.24h-12.56l-.18.78c-.15.66-.28,1.25-.4,1.79-.08.36-.15.69-.22,1-1.29.01-2.43.04-3.39.07-.73.02-1.34.04-1.79.04-5.58.27-10.72,1.35-10.88,7.41-.11,4.26-.11,11.02-.12,17.18h-2.56c-10.76.13-10.76,7.55-10.76,11.11v3.68c0,3.37,3.02,4.91,5.82,4.91,1.56,0,2.86-.43,3.84-1.11-1.41,1.83-3.41,3.62-4.66,4.28-1.94.97-3.06,2.59-3.06,4.44,0,2.61,2.56,4.91,5.48,4.91,5.06,0,12.2-8.38,13.36-13.04.06,4.87,1.86,7.72,5.76,9-8.06,7.45-17.1,13.58-25.03,16.94-2.18.9-3.48,2.66-3.48,4.71,0,2.54,2.25,5.25,5.59,5.25.95,0,2.48-.49,4.37-1.35-.6.85-.89,1.87-.89,2.87,0,2.86,2.23,5.94,5.82,5.94,3.34,0,14.64-1.33,27-7.36,8.38,3.91,18.93,5.98,30.55,5.98,4.2,0,6.4-2.99,6.4-5.94,0-2.55-1.68-5.25-4.79-5.25-8.19-.1-14.82-.75-20.18-1.97,6.52-4.73,9.46-7.68,9.46-11.39,0-4.81-4.68-6.51-8.7-6.51-1.25,0-8.03.08-13.76.18.4-.44.72-.89.96-1.32,8.4-.54,14.03-1.11,14.46-10.76.2.22.42.45.66.66,2.48,2.01,5.02,4.96,6.82,7.93,1.16,1.8,2.8,2.78,4.65,2.78,2.97,0,5.48-2.51,5.48-5.48,0-1.66-.82-3.13-1.95-4.56,2.49-.27,5.01-1.82,5.28-4.89v-.04s0-.04,0-.04v-5.86c-.21-5.29-4.57-8.53-11.66-8.7h-1.86c.08-2.91.08-5.88.08-8.76,0-3.28,0-6.11-.12-8.32-.07-2.64-1.61-7.16-11.07-7.49-1.54-.1-5.01-.11-8.86-.12.25-.72.5-1.51.72-2.3l.34-1.26h0Zm-17.9,12.52l.02-.17v-.05s0-.05,0-.05c0-.55,0-.8,1.46-1.02,1.81-.28,5.21-.28,10.86-.28,6.66,0,10.13.05,11.8.36.99.18,1.01.18,1.1,1,0,.07,0,.13.01.2h-25.26Zm-.09,6.37h25.45v1.56h-25.45v-1.56h0Zm.03,7.81h25.27l-.05,1.42c-4.09-.09-8.4-.09-12.59-.09s-8.44,0-12.59.09l-.05-1.42h0Zm4.02,10.11c.42,0,.84,0,1.26,0-.06.24-.08.48-.08.72,0,.06,0,.11,0,.17-.34-.35-.74-.65-1.18-.89h0Zm16.04,5.68c-.11-2.17-1.89-4.24-3.49-5.68,6.62,0,13.24.01,18.44.11,3.17,0,3.19.45,3.27,2.15v2.01c-1.49-1.23-2.94-2.13-4.74-2.13-2.44,0-4.56,1.57-5.11,3.62-1.06-1.15-2.76-1.78-4.43-1.78s-3.12.63-3.94,1.71h0Zm-33.19-3.2v-.07c.1-1.65.13-2.21,3.62-2.3,2.24-.06,4.75-.08,7.44-.1-1.77,1.21-2,3.92-2.03,8.3-.61-2.17-2.89-3.88-5.44-3.88-1.51,0-2.75.65-3.59,1.87v-3.83h0Zm24.04,8.85c-4.74,0-4.74-.55-4.74-1.64,0-.35.02-.99.04-1.77.03-1.29.08-2.89.08-4.31,0-.16,0-.31-.03-.46.11.11.22.21.34.31l.15.13c1.05.93,3.24,2.87,4.69,5.25.81,1.34,2.09,2.09,3.61,2.09,1.67,0,3.24-.96,4.17-2.34-.07,2.57-1.28,2.75-8.3,2.75h0Zm-1.17,19.46c6.45,0,9.49-.02,10.81-.08-.59.65-2.03,1.94-5.53,4.22-1.88-1.11-3.62-2.48-5.27-4.15h0Zm-22.48,12.26c3.84-2.17,8.32-5.15,12.42-8.37,1.4,1.91,2.99,3.66,4.76,5.21-5.32,1.77-11.12,2.86-16.89,3.15-.1,0-.19,0-.28.02h0Zm-13.87-71.13l-1.9,2.87-11.14,16.77-.16.24v.29s-1.39,55.83-1.39,55.83v.14c0,3.5,2.58,5.94,6.28,5.94,3.25,0,6.61-2.07,6.74-6.02l1.49-72.61.07-3.44h0Z"/>
          </g>
          <g>
            <path class="cls-4" d="m142.98,48.16c-4.48,6.09-6.89,9.07-10.45,9.07-2.99,0-5.4-2.41-5.4-5.05,0-1.26.46-2.53,1.61-3.79,10.68-11.37,17.35-22.4,23.2-37.68.92-2.3,2.76-3.33,4.71-3.33,3.1,0,6.55,2.53,6.55,5.86,0,.8-.23,3.1-9.07,18.15l-11.14,16.77Z"/>
            <path class="cls-4" d="m156.65,7.38c3.1,0,6.55,2.53,6.55,5.86,0,.8-.23,3.1-9.07,18.15l-11.14,16.77c-4.48,6.09-6.89,9.07-10.45,9.07-2.99,0-5.4-2.41-5.4-5.05,0-1.26.46-2.53,1.61-3.79,10.68-11.37,17.35-22.4,23.2-37.68.92-2.3,2.76-3.33,4.71-3.33m0-1c-2.54,0-4.65,1.48-5.64,3.96-5.93,15.46-12.59,26.28-23,37.36-1.25,1.38-1.88,2.88-1.88,4.48,0,3.28,2.93,6.05,6.4,6.05,4.09,0,6.67-3.25,11.26-9.48l11.17-16.81.02-.02v-.02c9.23-15.67,9.23-17.76,9.23-18.66,0-3.93-3.98-6.86-7.55-6.86h0Z"/>
          </g>
          <path class="cls-4" d="m188.01,20.24l-20.1.11c-2.76,0-4.25-2.07-4.25-4.14s1.49-4.14,4.25-4.14h56.4c2.99,0,4.48,2.07,4.48,4.14s-1.49,4.14-4.48,4.14l-25.85-.11"/>
        </g>
      </g>
      <g>
        <g>
          <path class="cls-1" d="m19.2,109.16c-3.33,0-6.2-2.64-6.2-5.51,0-1.38.69-2.76,2.3-4.02,10.68-8.16,12.29-20.56,12.29-31.25,0-3.22-.11-6.32-.23-9.07v-.46c0-4.94,4.14-8.73,11.49-8.85,7.81-.23,16.66-.23,25.62-.23s18.15,0,26.31.23c12.18.34,12.18,5.74,12.18,15.62,0,8.85-1.84,12.87-12.98,13.1-9.3.23-19.99.34-31.48.34-6.55,0-13.55-.11-20.68-.11-2.64,18.49-12.75,30.21-18.61,30.21ZM70.55,18.06l.11-6.32c0-3.91-2.99-5.74-6.09-5.74s-6.09,1.84-6.09,5.74v6.43l.12,8.96v6.89l-28.37-.11c-3.1,0-4.59,2.3-4.59,4.48,0,2.3,1.49,4.59,4.59,4.59h68.35c3.22,0,4.82-2.3,4.82-4.59s-1.61-4.48-4.82-4.48l-28.03.11v-15.97Zm-11.14,40.32c-5.63,0-11.03.11-16.31.23-2.64,0-4.48.8-4.48,3.56v7.93c7.24.11,14.24.11,20.79.11v-11.83Zm10.91,11.83c6.32-.11,12.18-.23,17.58-.34,3.1-.11,4.14-1.26,4.14-5.63,0-1.03-.11-2.07-.23-2.99-.46-2.87-1.61-2.87-21.48-2.87v11.83Z"/>
          <path class="cls-2" d="m70.55,18.06h36.87c2.99,0,4.48,2.3,4.48,4.59s-1.49,4.59-4.48,4.59l-36.87-.11h-11.95l-36.99.11c-3.1,0-4.71-2.3-4.71-4.59s1.61-4.59,4.71-4.59l36.87.11,12.06-.11Z"/>
        </g>
        <g>
          <path class="cls-1" d="m154.12,31.39l-1.49,72.6c-.11,3.33-2.99,5.05-5.74,5.05s-5.28-1.61-5.28-4.94v-.11l1.38-55.83,11.14-16.77Zm39.17,47.44c5.86-.11,14.82-.23,16.31-.23,5.28,0,7.7,2.53,7.7,5.51,0,3.56-3.33,6.55-10.8,11.83,5.86,1.61,13.33,2.41,22.52,2.53,2.41,0,3.79,2.07,3.79,4.25,0,2.41-1.72,4.94-5.4,4.94-11.95,0-22.4-2.18-30.56-6.09-12.75,6.32-24.12,7.47-26.99,7.47s-4.82-2.53-4.82-4.94c0-1.95,1.26-3.91,4.36-4.02,6.78-.34,13.21-1.72,18.84-3.79-2.64-2.07-4.82-4.48-6.55-7.01-8.73,7.01-18.38,12.29-21.14,12.29s-4.59-2.18-4.59-4.25c0-1.49.92-2.99,2.87-3.79,8.96-3.79,18.72-10.8,26.65-18.38-4.94-.92-6.78-3.68-6.78-8.73,0-7.58,0-10.11,4.14-10.11,2.07,0,4.25,1.15,4.25,3.33,0,2.3-.12,5.17-.12,6.09,0,1.95.69,2.64,5.74,2.64,6.78,0,9.3,0,9.3-4.02,0-2.3,1.84-3.33,3.79-3.33,2.18,0,4.48,1.26,4.48,3.45,0,10.11-5.05,10.45-14.13,11.03-.23.57-.69,1.26-1.38,1.95l-1.49,1.38Zm5.17-58.59c-.34,1.26-.8,2.53-1.15,3.56,4.36,0,8.5,0,10.22.11,6.43.23,9.99,2.53,10.11,6.55.11,2.18.11,5.05.11,8.27s0,6.55-.11,9.76h2.87c4.82.11,10.45,1.95,10.68,7.7v5.86c-.23,2.64-2.64,4.02-5.05,4.02-.57,0-1.15-.11-1.61-.23,1.72,1.84,3.33,3.68,3.33,5.74,0,2.53-2.18,4.48-4.48,4.48-1.38,0-2.76-.69-3.79-2.3-1.95-3.22-4.59-6.2-7.01-8.16-1.03-.92-1.49-1.84-1.49-2.76,0-1.95,1.95-3.68,4.25-3.68,2.07,0,3.68,1.49,5.74,3.33v-4.25c-.11-2.53-.92-3.1-4.25-3.1-5.97-.11-13.67-.11-21.37-.11,1.38.92,5.4,4.02,5.4,6.89,0,2.18-2.07,4.02-4.02,4.02-1.03,0-2.07-.46-2.76-1.61-1.61-2.64-4.02-4.71-5.05-5.63-.69-.57-1.03-1.26-1.03-1.95,0-.57.23-1.15.69-1.72-6.09,0-11.83,0-16.43.11-4.48.11-4.48,1.38-4.59,3.33v3.91c0,2.41-2.53,3.79-4.94,3.79s-4.82-1.26-4.82-3.91v-3.68c0-4.25.34-9.99,9.76-10.11h3.56c0-6.32,0-13.67.11-18.15.11-4.25,2.76-6.09,9.88-6.43,1.15,0,3.33-.11,5.97-.11.23-.92.46-2.07.8-3.56h10.45Zm-38.6,54.56c0-1.26.69-2.64,2.53-3.56,1.95-1.03,5.63-4.6,6.55-7.24.69-1.84,1.95-2.53,3.33-2.53,2.3,0,4.6,1.84,4.6,4.02,0,3.79-7.7,13.21-12.52,13.21-2.53,0-4.48-1.95-4.48-3.91Zm48.36-42.04c0-.46-.11-.92-.11-1.26-.23-2.07-.23-2.3-13.9-2.3-11.6,0-13.33,0-13.33,2.3l-.11,1.26h27.45Zm0,4.37h-27.45v3.56h27.45v-3.56Zm-.11,7.81h-27.34l.11,3.45c4.48-.11,8.96-.11,13.56-.11s9.19,0,13.56.11l.11-3.45Zm-4.37,41.35c0-.34-.23-.57-.57-.57h-.23c-.46.11-8.04.11-13.67.11,2.07,2.41,4.48,4.59,7.58,6.32,1.61-1.03,6.89-4.48,6.89-5.86Z"/>
          <path class="cls-2" d="m142.98,48.16c-4.48,6.09-6.89,9.07-10.45,9.07-2.99,0-5.4-2.41-5.4-5.05,0-1.26.46-2.53,1.61-3.79,10.68-11.37,17.35-22.4,23.2-37.68.92-2.3,2.76-3.33,4.71-3.33,3.1,0,6.55,2.53,6.55,5.86,0,.8-.23,3.1-9.07,18.15l-11.14,16.77Z"/>
          <path class="cls-2" d="m188.01,20.24l-20.1.11c-2.76,0-4.25-2.07-4.25-4.14s1.49-4.14,4.25-4.14h56.4c2.99,0,4.48,2.07,4.48,4.14s-1.49,4.14-4.48,4.14l-25.85-.11"/>
        </g>
      </g>
    </g>
    <g>
      <g>
        <path class="cls-1" d="m271.41,105.6c.23,9.32-12.88,9.66-12.42.46.8-18.63,1.15-63.71.69-80.27-.23-7.82,12.19-7.71,11.96.11-.12,5.64-.23,15.64-.35,26.91.58,0,1.27,0,1.96.11,6.44,1.04,21.39,4.72,27.6,10.01,5.98,5.06-.58,15.07-7.13,10.24-4.95-3.68-16.33-8.17-22.43-9.32-.11,15.87-.11,32.43.12,41.75Z"/>
        <path class="cls-1" d="m330.29,69.03c-4.14,0-6.1-2.76-6.1-5.52s2.19-5.87,6.1-5.87h72.22c3.91,0,5.87,2.88,5.87,5.75s-1.96,5.64-5.87,5.64h-72.22Z"/>
        <path class="cls-1" d="m471.75,34.41c4.95-.35,10.58-.81,15.18-1.04,8.86-.46,16.56,5.75,12.31,13.92-14.03,26.8-29.9,50.14-62.22,62.91-9.78,3.79-14.49-7.48-4.95-10.81,25.53-8.86,44.51-31.86,53.02-51.41.92-2.19,0-4.37-2.76-4.25-4.83.11-13.23.92-18.4,1.5-7.82,10.35-17.94,22.43-25.88,27.83-7.71,5.18-14.49-4.71-6.67-9.55,11.04-6.79,25.99-27.95,31.28-37.03,3.79-6.44,15.3-.92,9.89,6.79l-.81,1.15Z"/>
        <path class="cls-1" d="m539.02,72.82c-4.25-2.76-9.54-5.06-14.26-5.87-6.9-1.15-4.71-12.08,3.68-10.47,5.41,1.04,11.62,2.88,16.79,5.75,3.68,1.96,4.14,5.98,2.64,8.63-1.5,2.76-5.06,4.37-8.86,1.96Zm0,36.11c-9.08,2.99-12.88-9.43-3.79-11.85,22.89-6.21,48.42-31.51,60.49-54.4,3.79-7.13,15.3-2.42,10.24,6.67-14.72,26.34-40.83,50.95-66.93,59.57Zm13.34-56.58c-3.57-3.68-8.17-7.02-12.54-8.86-6.56-2.65-1.96-12.88,5.87-9.43,5.06,2.3,10.93,5.64,15.3,9.55,3.1,2.76,2.64,6.67.57,8.97-2.07,2.3-6.09,2.99-9.2-.23Z"/>
        <path class="cls-1" d="m633.44,83.4c-3.22,0-5.41-2.07-5.52-4.49-.11-2.53,2.07-4.6,5.87-4.6,7.82,0,23.81-.46,32.09-.46,0-2.3-.12-4.14-.12-5.41-.11-2.53-1.72-3.45-4.25-3.56-7.36-.23-21.39.34-30.02.69-7.59.34-7.82-9.2-.34-9.55,9.32-.35,24.84-.58,33.24-.35,8.28.23,11.62,5.18,11.62,11.5,0,5.06.12,17.14,0,24.61-.23,8.97-6.67,11.04-13.11,11.39-8.97.46-23.92.58-32.55.58-7.36,0-7.36-10.24-.11-10.01,8.97.34,25.53.34,31.74-.12,2.07-.11,3.68-1.26,3.79-3.45.12-1.73.23-4.25.23-7.02-10.93.23-24.96.35-32.55.23Z"/>
        <path class="cls-1" d="m707.5,69.03c-4.14,0-6.1-2.76-6.1-5.52s2.19-5.87,6.1-5.87h72.22c3.91,0,5.87,2.88,5.87,5.75s-1.96,5.64-5.87,5.64h-72.22Z"/>
      </g>
      <g>
        <path class="cls-5" d="m271.41,105.6c.23,9.32-12.88,9.66-12.42.46.8-18.63,1.15-63.71.69-80.27-.23-7.82,12.19-7.71,11.96.11-.12,5.64-.23,15.64-.35,26.91.58,0,1.27,0,1.96.11,6.44,1.04,21.39,4.72,27.6,10.01,5.98,5.06-.58,15.07-7.13,10.24-4.95-3.68-16.33-8.17-22.43-9.32-.11,15.87-.11,32.43.12,41.75Z"/>
        <path class="cls-5" d="m330.29,69.03c-4.14,0-6.1-2.76-6.1-5.52s2.19-5.87,6.1-5.87h72.22c3.91,0,5.87,2.88,5.87,5.75s-1.96,5.64-5.87,5.64h-72.22Z"/>
        <path class="cls-5" d="m471.75,34.41c4.95-.35,10.58-.81,15.18-1.04,8.86-.46,16.56,5.75,12.31,13.92-14.03,26.8-29.9,50.14-62.22,62.91-9.78,3.79-14.49-7.48-4.95-10.81,25.53-8.86,44.51-31.86,53.02-51.41.92-2.19,0-4.37-2.76-4.25-4.83.11-13.23.92-18.4,1.5-7.82,10.35-17.94,22.43-25.88,27.83-7.71,5.18-14.49-4.71-6.67-9.55,11.04-6.79,25.99-27.95,31.28-37.03,3.79-6.44,15.3-.92,9.89,6.79l-.81,1.15Z"/>
        <path class="cls-5" d="m539.02,72.82c-4.25-2.76-9.54-5.06-14.26-5.87-6.9-1.15-4.71-12.08,3.68-10.47,5.41,1.04,11.62,2.88,16.79,5.75,3.68,1.96,4.14,5.98,2.64,8.63-1.5,2.76-5.06,4.37-8.86,1.96Zm0,36.11c-9.08,2.99-12.88-9.43-3.79-11.85,22.89-6.21,48.42-31.51,60.49-54.4,3.79-7.13,15.3-2.42,10.24,6.67-14.72,26.34-40.83,50.95-66.93,59.57Zm13.34-56.58c-3.57-3.68-8.17-7.02-12.54-8.86-6.56-2.65-1.96-12.88,5.87-9.43,5.06,2.3,10.93,5.64,15.3,9.55,3.1,2.76,2.64,6.67.57,8.97-2.07,2.3-6.09,2.99-9.2-.23Z"/>
        <path class="cls-5" d="m633.44,83.4c-3.22,0-5.41-2.07-5.52-4.49-.11-2.53,2.07-4.6,5.87-4.6,7.82,0,23.81-.46,32.09-.46,0-2.3-.12-4.14-.12-5.41-.11-2.53-1.72-3.45-4.25-3.56-7.36-.23-21.39.34-30.02.69-7.59.34-7.82-9.2-.34-9.55,9.32-.35,24.84-.58,33.24-.35,8.28.23,11.62,5.18,11.62,11.5,0,5.06.12,17.14,0,24.61-.23,8.97-6.67,11.04-13.11,11.39-8.97.46-23.92.58-32.55.58-7.36,0-7.36-10.24-.11-10.01,8.97.34,25.53.34,31.74-.12,2.07-.11,3.68-1.26,3.79-3.45.12-1.73.23-4.25.23-7.02-10.93.23-24.96.35-32.55.23Z"/>
        <path class="cls-5" d="m707.5,69.03c-4.14,0-6.1-2.76-6.1-5.52s2.19-5.87,6.1-5.87h72.22c3.91,0,5.87,2.88,5.87,5.75s-1.96,5.64-5.87,5.64h-72.22Z"/>
      </g>
      <g>
        <path d="m271.41,105.6c.23,9.32-12.88,9.66-12.42.46.8-18.63,1.15-63.71.69-80.27-.23-7.82,12.19-7.71,11.96.11-.12,5.64-.23,15.64-.35,26.91.58,0,1.27,0,1.96.11,6.44,1.04,21.39,4.72,27.6,10.01,5.98,5.06-.58,15.07-7.13,10.24-4.95-3.68-16.33-8.17-22.43-9.32-.11,15.87-.11,32.43.12,41.75Z"/>
        <path d="m330.29,69.03c-4.14,0-6.1-2.76-6.1-5.52s2.19-5.87,6.1-5.87h72.22c3.91,0,5.87,2.88,5.87,5.75s-1.96,5.64-5.87,5.64h-72.22Z"/>
        <path d="m471.75,34.41c4.95-.35,10.58-.81,15.18-1.04,8.86-.46,16.56,5.75,12.31,13.92-14.03,26.8-29.9,50.14-62.22,62.91-9.78,3.79-14.49-7.48-4.95-10.81,25.53-8.86,44.51-31.86,53.02-51.41.92-2.19,0-4.37-2.76-4.25-4.83.11-13.23.92-18.4,1.5-7.82,10.35-17.94,22.43-25.88,27.83-7.71,5.18-14.49-4.71-6.67-9.55,11.04-6.79,25.99-27.95,31.28-37.03,3.79-6.44,15.3-.92,9.89,6.79l-.81,1.15Z"/>
        <path d="m539.02,72.82c-4.25-2.76-9.54-5.06-14.26-5.87-6.9-1.15-4.71-12.08,3.68-10.47,5.41,1.04,11.62,2.88,16.79,5.75,3.68,1.96,4.14,5.98,2.64,8.63-1.5,2.76-5.06,4.37-8.86,1.96Zm0,36.11c-9.08,2.99-12.88-9.43-3.79-11.85,22.89-6.21,48.42-31.51,60.49-54.4,3.79-7.13,15.3-2.42,10.24,6.67-14.72,26.34-40.83,50.95-66.93,59.57Zm13.34-56.58c-3.57-3.68-8.17-7.02-12.54-8.86-6.56-2.65-1.96-12.88,5.87-9.43,5.06,2.3,10.93,5.64,15.3,9.55,3.1,2.76,2.64,6.67.57,8.97-2.07,2.3-6.09,2.99-9.2-.23Z"/>
        <path d="m633.44,83.4c-3.22,0-5.41-2.07-5.52-4.49-.11-2.53,2.07-4.6,5.87-4.6,7.82,0,23.81-.46,32.09-.46,0-2.3-.12-4.14-.12-5.41-.11-2.53-1.72-3.45-4.25-3.56-7.36-.23-21.39.34-30.02.69-7.59.34-7.82-9.2-.34-9.55,9.32-.35,24.84-.58,33.24-.35,8.28.23,11.62,5.18,11.62,11.5,0,5.06.12,17.14,0,24.61-.23,8.97-6.67,11.04-13.11,11.39-8.97.46-23.92.58-32.55.58-7.36,0-7.36-10.24-.11-10.01,8.97.34,25.53.34,31.74-.12,2.07-.11,3.68-1.26,3.79-3.45.12-1.73.23-4.25.23-7.02-10.93.23-24.96.35-32.55.23Z"/>
        <path d="m707.5,69.03c-4.14,0-6.1-2.76-6.1-5.52s2.19-5.87,6.1-5.87h72.22c3.91,0,5.87,2.88,5.87,5.75s-1.96,5.64-5.87,5.64h-72.22Z"/>
      </g>
    </g>
    <g>
      <g>
        <path class="cls-1" d="m278.41,99.6c.23,9.32-12.88,9.66-12.42.46.8-18.63,1.15-63.71.69-80.27-.23-7.82,12.19-7.71,11.96.11-.12,5.64-.23,15.64-.35,26.91.58,0,1.27,0,1.96.11,6.44,1.04,21.39,4.72,27.6,10.01,5.98,5.06-.58,15.07-7.13,10.24-4.95-3.68-16.33-8.17-22.43-9.32-.11,15.87-.11,32.43.12,41.75Z"/>
        <path class="cls-1" d="m337.29,63.03c-4.14,0-6.1-2.76-6.1-5.52s2.19-5.87,6.1-5.87h72.22c3.91,0,5.87,2.88,5.87,5.75s-1.96,5.64-5.87,5.64h-72.22Z"/>
        <path class="cls-1" d="m478.75,28.41c4.95-.35,10.58-.81,15.18-1.04,8.86-.46,16.56,5.75,12.31,13.92-14.03,26.8-29.9,50.14-62.22,62.91-9.78,3.79-14.49-7.48-4.95-10.81,25.53-8.86,44.51-31.86,53.02-51.41.92-2.19,0-4.37-2.76-4.25-4.83.11-13.23.92-18.4,1.5-7.82,10.35-17.94,22.43-25.88,27.83-7.71,5.18-14.49-4.71-6.67-9.55,11.04-6.79,25.99-27.95,31.28-37.03,3.79-6.44,15.3-.92,9.89,6.79l-.81,1.15Z"/>
        <path class="cls-2" d="m546.02,66.82c-4.25-2.76-9.54-5.06-14.26-5.87-6.9-1.15-4.71-12.08,3.68-10.47,5.41,1.04,11.62,2.88,16.79,5.75,3.68,1.96,4.14,5.98,2.64,8.63-1.5,2.76-5.06,4.37-8.86,1.96Zm0,36.11c-9.08,2.99-12.88-9.43-3.79-11.85,22.89-6.21,48.42-31.51,60.49-54.4,3.79-7.13,15.3-2.42,10.24,6.67-14.72,26.34-40.83,50.95-66.93,59.57Zm13.34-56.58c-3.57-3.68-8.17-7.02-12.54-8.86-6.56-2.65-1.96-12.88,5.87-9.43,5.06,2.3,10.93,5.64,15.3,9.55,3.1,2.76,2.64,6.67.57,8.97-2.07,2.3-6.09,2.99-9.2-.23Z"/>
        <path class="cls-1" d="m640.44,77.4c-3.22,0-5.41-2.07-5.52-4.49-.11-2.53,2.07-4.6,5.87-4.6,7.82,0,23.81-.46,32.09-.46,0-2.3-.12-4.14-.12-5.41-.11-2.53-1.72-3.45-4.25-3.56-7.36-.23-21.39.34-30.02.69-7.59.34-7.82-9.2-.34-9.55,9.32-.35,24.84-.58,33.24-.35,8.28.23,11.62,5.18,11.62,11.5,0,5.06.12,17.14,0,24.61-.23,8.97-6.67,11.04-13.11,11.39-8.97.46-23.92.58-32.55.58-7.36,0-7.36-10.24-.11-10.01,8.97.34,25.53.34,31.74-.12,2.07-.11,3.68-1.26,3.79-3.45.12-1.73.23-4.25.23-7.02-10.93.23-24.96.35-32.55.23Z"/>
        <path class="cls-1" d="m714.5,63.03c-4.14,0-6.1-2.76-6.1-5.52s2.19-5.87,6.1-5.87h72.22c3.91,0,5.87,2.88,5.87,5.75s-1.96,5.64-5.87,5.64h-72.22Z"/>
      </g>
      <g>
        <path class="cls-5" d="m278.41,99.6c.23,9.32-12.88,9.66-12.42.46.8-18.63,1.15-63.71.69-80.27-.23-7.82,12.19-7.71,11.96.11-.12,5.64-.23,15.64-.35,26.91.58,0,1.27,0,1.96.11,6.44,1.04,21.39,4.72,27.6,10.01,5.98,5.06-.58,15.07-7.13,10.24-4.95-3.68-16.33-8.17-22.43-9.32-.11,15.87-.11,32.43.12,41.75Z"/>
        <path class="cls-5" d="m337.29,63.03c-4.14,0-6.1-2.76-6.1-5.52s2.19-5.87,6.1-5.87h72.22c3.91,0,5.87,2.88,5.87,5.75s-1.96,5.64-5.87,5.64h-72.22Z"/>
        <path class="cls-5" d="m478.75,28.41c4.95-.35,10.58-.81,15.18-1.04,8.86-.46,16.56,5.75,12.31,13.92-14.03,26.8-29.9,50.14-62.22,62.91-9.78,3.79-14.49-7.48-4.95-10.81,25.53-8.86,44.51-31.86,53.02-51.41.92-2.19,0-4.37-2.76-4.25-4.83.11-13.23.92-18.4,1.5-7.82,10.35-17.94,22.43-25.88,27.83-7.71,5.18-14.49-4.71-6.67-9.55,11.04-6.79,25.99-27.95,31.28-37.03,3.79-6.44,15.3-.92,9.89,6.79l-.81,1.15Z"/>
        <path class="cls-5" d="m546.02,66.82c-4.25-2.76-9.54-5.06-14.26-5.87-6.9-1.15-4.71-12.08,3.68-10.47,5.41,1.04,11.62,2.88,16.79,5.75,3.68,1.96,4.14,5.98,2.64,8.63-1.5,2.76-5.06,4.37-8.86,1.96Zm0,36.11c-9.08,2.99-12.88-9.43-3.79-11.85,22.89-6.21,48.42-31.51,60.49-54.4,3.79-7.13,15.3-2.42,10.24,6.67-14.72,26.34-40.83,50.95-66.93,59.57Zm13.34-56.58c-3.57-3.68-8.17-7.02-12.54-8.86-6.56-2.65-1.96-12.88,5.87-9.43,5.06,2.3,10.93,5.64,15.3,9.55,3.1,2.76,2.64,6.67.57,8.97-2.07,2.3-6.09,2.99-9.2-.23Z"/>
        <path class="cls-5" d="m640.44,77.4c-3.22,0-5.41-2.07-5.52-4.49-.11-2.53,2.07-4.6,5.87-4.6,7.82,0,23.81-.46,32.09-.46,0-2.3-.12-4.14-.12-5.41-.11-2.53-1.72-3.45-4.25-3.56-7.36-.23-21.39.34-30.02.69-7.59.34-7.82-9.2-.34-9.55,9.32-.35,24.84-.58,33.24-.35,8.28.23,11.62,5.18,11.62,11.5,0,5.06.12,17.14,0,24.61-.23,8.97-6.67,11.04-13.11,11.39-8.97.46-23.92.58-32.55.58-7.36,0-7.36-10.24-.11-10.01,8.97.34,25.53.34,31.74-.12,2.07-.11,3.68-1.26,3.79-3.45.12-1.73.23-4.25.23-7.02-10.93.23-24.96.35-32.55.23Z"/>
        <path class="cls-5" d="m714.5,63.03c-4.14,0-6.1-2.76-6.1-5.52s2.19-5.87,6.1-5.87h72.22c3.91,0,5.87,2.88,5.87,5.75s-1.96,5.64-5.87,5.64h-72.22Z"/>
      </g>
      <g>
        <path class="cls-1" d="m278.41,99.6c.23,9.32-12.88,9.66-12.42.46.8-18.63,1.15-63.71.69-80.27-.23-7.82,12.19-7.71,11.96.11-.12,5.64-.23,15.64-.35,26.91.58,0,1.27,0,1.96.11,6.44,1.04,21.39,4.72,27.6,10.01,5.98,5.06-.58,15.07-7.13,10.24-4.95-3.68-16.33-8.17-22.43-9.32-.11,15.87-.11,32.43.12,41.75Z"/>
        <path class="cls-1" d="m337.29,63.03c-4.14,0-6.1-2.76-6.1-5.52s2.19-5.87,6.1-5.87h72.22c3.91,0,5.87,2.88,5.87,5.75s-1.96,5.64-5.87,5.64h-72.22Z"/>
        <path class="cls-1" d="m478.75,28.41c4.95-.35,10.58-.81,15.18-1.04,8.86-.46,16.56,5.75,12.31,13.92-14.03,26.8-29.9,50.14-62.22,62.91-9.78,3.79-14.49-7.48-4.95-10.81,25.53-8.86,44.51-31.86,53.02-51.41.92-2.19,0-4.37-2.76-4.25-4.83.11-13.23.92-18.4,1.5-7.82,10.35-17.94,22.43-25.88,27.83-7.71,5.18-14.49-4.71-6.67-9.55,11.04-6.79,25.99-27.95,31.28-37.03,3.79-6.44,15.3-.92,9.89,6.79l-.81,1.15Z"/>
        <path class="cls-1" d="m546.02,66.82c-4.25-2.76-9.54-5.06-14.26-5.87-6.9-1.15-4.71-12.08,3.68-10.47,5.41,1.04,11.62,2.88,16.79,5.75,3.68,1.96,4.14,5.98,2.64,8.63-1.5,2.76-5.06,4.37-8.86,1.96Zm0,36.11c-9.08,2.99-12.88-9.43-3.79-11.85,22.89-6.21,48.42-31.51,60.49-54.4,3.79-7.13,15.3-2.42,10.24,6.67-14.72,26.34-40.83,50.95-66.93,59.57Zm13.34-56.58c-3.57-3.68-8.17-7.02-12.54-8.86-6.56-2.65-1.96-12.88,5.87-9.43,5.06,2.3,10.93,5.64,15.3,9.55,3.1,2.76,2.64,6.67.57,8.97-2.07,2.3-6.09,2.99-9.2-.23Z"/>
        <path class="cls-1" d="m640.44,77.4c-3.22,0-5.41-2.07-5.52-4.49-.11-2.53,2.07-4.6,5.87-4.6,7.82,0,23.81-.46,32.09-.46,0-2.3-.12-4.14-.12-5.41-.11-2.53-1.72-3.45-4.25-3.56-7.36-.23-21.39.34-30.02.69-7.59.34-7.82-9.2-.34-9.55,9.32-.35,24.84-.58,33.24-.35,8.28.23,11.62,5.18,11.62,11.5,0,5.06.12,17.14,0,24.61-.23,8.97-6.67,11.04-13.11,11.39-8.97.46-23.92.58-32.55.58-7.36,0-7.36-10.24-.11-10.01,8.97.34,25.53.34,31.74-.12,2.07-.11,3.68-1.26,3.79-3.45.12-1.73.23-4.25.23-7.02-10.93.23-24.96.35-32.55.23Z"/>
        <path class="cls-1" d="m714.5,63.03c-4.14,0-6.1-2.76-6.1-5.52s2.19-5.87,6.1-5.87h72.22c3.91,0,5.87,2.88,5.87,5.75s-1.96,5.64-5.87,5.64h-72.22Z"/>
      </g>
    </g>
    <path class="cls-2" d="m278.41,99.6c.23,9.32-12.88,9.66-12.42.46.8-18.63,1.15-63.71.69-80.27-.23-7.82,12.19-7.71,11.96.11-.12,5.64-.46,70.38-.23,79.7Z"/>
    <path class="cls-2" d="m470.93,39.22c-7.82,10.35-17.94,22.43-25.88,27.83-7.71,5.18-14.49-4.71-6.67-9.55,11.04-6.79,25.99-27.95,31.28-37.03,3.79-6.44,15.3-.92,9.89,6.79l-.81,1.15s-4.59,6.61-7.82,10.81Z"/>
    <path class="cls-2" d="m546.02,66.82c-4.25-2.76-9.54-5.06-14.26-5.87-6.9-1.15-4.71-12.08,3.68-10.47,5.41,1.04,11.62,2.88,16.79,5.75,3.68,1.96,4.14,5.98,2.64,8.63-1.5,2.76-5.06,4.37-8.86,1.96Z"/>
    <path class="cls-2" d="m714.5,63.03c-4.14,0-6.1-2.76-6.1-5.52s2.19-5.87,6.1-5.87h72.22c3.91,0,5.87,2.88,5.87,5.75s-1.96,5.64-5.87,5.64h-72.22Z"/>
  </g>
</svg>