<svg width="628" height="95" viewBox="0 0 628 95" fill="none" xmlns="http://www.w3.org/2000/svg">
<path d="M414.405 55.853C417.15 52.0258 419.85 47.7814 422.764 42.7253C424.725 39.3095 424.861 35.8148 423.158 32.8725C421.112 29.3384 416.609 27.2246 411.119 27.2246C402.444 27.2246 388.865 27.3993 382.05 27.6811C378.533 27.8446 375.044 30.4544 375.157 35.1215C375.247 39.0841 378.195 42.0658 382.005 42.0658C382.084 42.0658 382.169 42.0658 382.248 42.0602C384.559 42.0094 387.219 41.9305 390.038 41.8516C396.108 41.6825 402.387 41.5078 406.564 41.5078C406.592 41.5078 406.621 41.5078 406.649 41.5078C403.148 47.7644 398.143 54.0324 392.444 59.2914C385.776 65.4409 378.381 70.0291 371.053 72.5656C366.454 74.1607 364.926 78.0275 365.456 81.1558C366.059 84.7238 369.024 87.2152 372.665 87.2152C373.703 87.2152 374.768 87.0123 375.839 86.6177C387.14 82.3282 396.818 75.8292 405.38 66.7712C412.426 71.3876 420.188 78.5348 423.801 83.0328C425.317 84.9324 427.335 85.9864 429.483 85.9864C432.216 85.9864 434.888 84.239 436.28 81.5278C437.746 78.6757 437.526 75.4403 435.689 72.8643C431.585 67.1544 421.49 60.2665 414.405 55.853Z" fill="black"/>
<path d="M617.605 46.4293C616.241 44.9243 614.274 44.0957 612.07 44.0957H555.433C553.24 44.0957 551.251 44.9299 549.836 46.4462C548.568 47.8046 547.835 49.6534 547.835 51.5135C547.835 55.0646 550.445 58.6608 555.433 58.6608H612.07C616.889 58.6608 619.488 54.9293 619.488 51.4233C619.482 49.5407 618.817 47.7652 617.605 46.4293Z" fill="black"/>
<path d="M77.87 56.9919H77.8531H77.8361L56.4001 57.2061C61.7718 53.4802 65.4356 49.8052 65.4356 45.0197C65.4356 42.7087 64.4717 40.6118 62.7244 39.1125C61.7379 38.267 60.5486 37.6414 59.1733 37.2355C60.4359 37.2524 61.6872 37.2637 62.9216 37.2806C65.1594 37.337 65.5821 37.6244 65.6441 37.6808C65.6441 37.6808 65.8358 37.9514 65.8358 38.9716V43.9318V44.1122C65.8358 47.9395 68.919 50.7183 73.1634 50.7183C77.8249 50.7183 80.5023 47.4322 80.7503 44.1742C80.8517 43.1427 80.8517 41.9026 80.8517 40.5949C80.8517 38.8814 80.8517 36.9368 80.7559 35.5783C80.5192 29.0849 75.0855 24.4686 67.5268 24.3389H67.5042H67.4817C67.29 24.3389 67.0984 24.3389 66.9067 24.3389C68.857 21.6108 70.5705 18.6347 70.5705 16.6055C70.5705 13.1108 67.3746 9.36803 62.6116 9.36803C59.5735 9.36803 57.0765 11.1154 55.9266 14.0465C54.2243 18.4148 52.4319 21.9377 50.7973 24.1585C50.7183 24.1585 50.6394 24.1585 50.5605 24.1585C50.7803 23.5103 50.91 22.8283 50.91 22.1068C50.91 19.7338 48.6441 16.0249 47.3082 14.2043C45.3523 11.5438 42.2465 8.37598 38.532 8.37598C34.5131 8.37598 31.1142 11.2788 31.1142 14.7115C31.1142 16.0531 31.644 17.4115 32.6022 18.5275C32.8897 18.8601 33.1772 19.1927 33.459 19.5196C34.8456 21.1148 35.9898 22.4506 36.8635 24.1811C35.7813 24.1867 34.7047 24.1924 33.6225 24.198C33.6845 23.8373 33.7296 23.4708 33.7296 23.0932C33.7296 20.7202 31.4636 17.0113 30.1278 15.1907C28.1718 12.5302 25.0661 9.36239 21.3515 9.36239C17.3326 9.36239 13.9337 12.2652 13.9337 15.6979C13.9337 17.0395 14.4636 18.3979 15.4218 19.514C15.7093 19.8465 15.9967 20.1791 16.2786 20.506C17.4284 21.8306 18.4092 22.9692 19.2096 24.3051L17.0282 24.3333C13.077 24.384 9.70627 25.6072 7.28816 27.8675C5.09551 29.9192 3.82163 32.6981 3.69199 35.6911V35.7531V35.8151C3.69199 36.4295 3.66944 37.0946 3.65253 37.7992C3.62999 38.5827 3.6018 39.4 3.6018 40.2342C3.6018 41.0402 3.62999 41.7899 3.65253 42.517C3.67508 43.1202 3.69199 43.6951 3.69199 44.2024V44.2475V44.2926C3.83854 48.7455 7.39525 51.079 10.8392 51.079C14.4241 51.079 17.265 48.9823 18.0428 45.9836C18.3416 46.6713 18.7587 47.3025 19.2829 47.8493C20.5455 49.1739 22.3548 49.9067 24.3671 49.9067H24.5475H24.6095H24.6715C27.6195 49.7826 31.1931 49.6699 34.7723 49.591C32.5966 50.769 31.1142 52.8715 31.1142 55.2051C31.1142 55.9153 31.2494 56.586 31.5031 57.2117L6.89359 57.0764C2.95923 57.0764 0 60.0695 0 64.0433C0 65.7963 0.631303 67.4478 1.77554 68.6822C3.05505 70.0632 4.89823 70.8298 6.96687 70.8298L42.6523 70.6607C42.6523 70.7396 42.658 70.8185 42.658 70.8974C42.658 71.3991 42.6072 74.037 41.6039 76.5115C40.392 79.4933 38.4136 80.8855 35.3755 80.8855C33.8141 80.8855 32.0555 80.5924 30.2912 80.0287C29.3274 79.7131 28.5157 79.7131 27.9802 79.7131C24.0233 79.7131 20.9232 82.8133 20.9232 86.7702C20.9232 89.8421 22.6931 94.9996 34.5638 94.9996C44.4673 94.9996 49.777 90.4678 52.4826 86.6687C56.293 81.3252 56.8623 75.0573 56.8623 71.7993C56.8623 71.416 56.8566 71.0383 56.8454 70.6607L77.9376 70.7396C81.7649 70.7396 84.6452 67.8199 84.6452 63.9531C84.6565 59.985 81.7423 56.9919 77.87 56.9919ZM42.8102 49.4726C43.4189 49.467 44.0108 49.467 44.5857 49.4613C44.3602 49.6192 44.1235 49.7826 43.8811 49.9517C43.5317 49.777 43.1709 49.6192 42.8102 49.4726ZM18.2796 39.1012C18.381 38.0077 18.5276 37.7541 18.5558 37.709C18.5614 37.709 19.0462 37.3257 21.5544 37.2806C21.5544 37.2806 21.5545 37.2806 21.5601 37.2806C20.0495 37.9063 18.9503 38.9829 18.2796 40.2342V39.1012Z" fill="black"/>
<path d="M167.944 15.3428C165.43 13.122 162.121 11.8651 158.638 11.8087C150.183 11.6283 141.395 11.5381 132.529 11.5381C123.628 11.5381 115.14 11.6283 107.299 11.8087C99.0697 12.0285 93.4781 17.0564 93.3598 24.322C93.2076 31.9032 92.999 43.2949 92.999 54.4892C92.999 64.4153 93.1174 72.2108 93.3598 78.3209C93.5289 82.4751 94.8704 85.7668 97.3561 88.106C99.8813 90.4847 103.466 91.7417 108.015 91.8488C116.115 92.0291 124.632 92.1193 133.335 92.1193C141.97 92.1193 150.662 92.0235 158.468 91.8488C166.394 91.6289 172.081 85.9472 172.312 78.0334C172.554 71.85 172.673 64.2406 172.673 54.7598C172.673 44.828 172.498 34.6032 172.312 25.0322C172.273 21.2388 170.717 17.7891 167.944 15.3428ZM158.48 51.4228C158.48 58.8519 158.406 65.2326 158.249 70.7847C157.685 70.3732 157.031 70.0632 156.298 69.8828C155.616 69.7137 154.951 69.5333 154.309 69.3417C156.326 67.9607 157.623 66.3374 157.623 64.1391C157.623 61.8675 156.112 59.8496 153.97 58.8745C154.376 57.3639 154.376 55.8476 154.376 54.7598C154.376 51.8513 154.365 48.6383 152.246 46.4852H155.526C156.659 46.4852 157.64 46.1865 158.463 45.6961C158.474 47.528 158.48 49.4331 158.48 51.4228ZM106.938 52.1443C106.938 50.0419 106.944 47.9564 106.955 45.8934C107.722 46.271 108.59 46.4852 109.531 46.4852H112.073C109.791 48.6947 109.785 51.9922 109.785 54.7598C109.785 57.5499 110.027 60.6951 112.913 62.713C113.798 63.333 114.858 63.8009 116.205 64.1447C113.11 65.7568 110.208 66.8503 107.463 67.7803C107.327 67.8254 107.198 67.8762 107.068 67.9269C106.978 63.0343 106.938 57.6908 106.938 52.1443ZM155.526 34.8963H155.453C156.276 33.8422 156.721 32.5233 156.721 31.2212C156.721 27.9181 154.269 25.4267 151.017 25.4267H139.445C139.417 25.2069 139.377 24.9871 139.326 24.7729C144.625 24.8068 149.844 24.8687 154.495 24.9307C156.541 24.9702 157.251 25.2238 157.488 25.4267C157.617 25.5338 158.04 26.0693 158.119 28.3465C158.203 30.5956 158.277 33.008 158.333 35.6009C157.51 35.1499 156.558 34.8963 155.526 34.8963ZM125.635 24.7729C125.584 24.9871 125.545 25.2069 125.522 25.4267H114.041C110.473 25.4267 108.336 28.3747 108.336 31.2212C108.336 32.6416 108.787 33.9099 109.565 34.8963H109.531C108.607 34.8963 107.784 35.0936 107.068 35.4374C107.107 32.9742 107.153 30.5842 107.209 28.3183C107.248 26.3173 107.57 25.7255 107.756 25.5508C107.981 25.3366 108.725 24.9758 111.115 24.9307C115.467 24.8687 120.41 24.8011 125.635 24.7729ZM123.707 73.2084L123.668 77.2725V77.3908C123.668 77.8079 123.719 78.2081 123.814 78.5971C120.478 78.5689 117.259 78.5294 114.26 78.4899C116.684 77.481 119.903 75.7787 123.707 73.2084ZM136.486 73.7608C138.909 75.6321 141.559 77.2668 144.089 78.5745C141.519 78.597 138.921 78.6196 136.333 78.6308C136.452 78.2081 136.519 77.7684 136.519 77.3062L136.486 73.7608Z" fill="black"/>
<path d="M260.548 48.2435C256.089 46.1185 252.076 43.5763 248.581 40.6678C252.301 36.5757 256.692 31.3449 257.543 30.3077L257.577 30.2683L257.605 30.2288C259.144 28.2222 259.99 25.9111 259.99 23.7354C259.99 19.7334 257.171 15.0551 249.235 15.0551C248.508 15.0551 247.262 15.0381 245.825 15.0212C243.795 14.9987 241.265 14.9649 239.134 14.9649C237.426 14.9649 235.493 14.9648 233.802 15.5905C232.906 15.9231 232.156 16.3966 231.558 16.9997C230.42 15.0043 228.368 13.7924 226.051 13.7924C223.893 13.7924 221.638 14.9423 220.347 16.8531C219.265 16.5262 217.963 16.3177 216.402 16.3177C215.263 16.3177 213.454 16.3515 211.464 16.3966C211.447 12.682 208.262 9.55371 204.497 9.55371C201.876 9.55371 199.604 11.1094 198.421 13.7135C194.808 21.3681 189.864 27.5232 183.715 32.01C180.744 34.197 180.124 36.5644 180.124 38.1652C180.124 41.7107 183.207 44.5909 187.001 44.5909C187.953 44.5909 188.957 44.3542 190.033 43.8751C190.383 46.034 191.837 47.7193 194.08 48.4858C191.087 50.6334 187.953 52.2906 184.848 53.3446C181.657 54.3761 179.758 56.721 179.758 59.6295C179.758 63.3102 182.948 66.416 186.725 66.416C188.844 66.416 192.198 64.8941 194.74 63.5582C194.949 63.9133 195.197 64.2515 195.473 64.5672C196.685 65.9368 198.415 66.6865 200.343 66.6865L201.656 66.6922C201.634 66.7203 201.611 66.7485 201.588 66.7711C198.122 71.0606 193.596 74.279 188.489 76.0884C185.541 77.1593 183.726 79.5549 183.726 82.3507C183.726 86.2738 187.08 89.5881 191.054 89.5881C193.551 89.5881 197.276 87.8352 202.135 84.3855C202.068 84.7801 202.034 85.1859 202.034 85.5974C202.034 88.2409 203.217 90.3491 205.461 91.6849C207.377 92.8235 210.066 93.3759 213.69 93.3759C220.15 93.3759 224.033 90.9691 226.164 88.9455C228.858 86.3865 230.403 82.8298 230.403 79.1942V79.0138V78.9969V78.98L230.347 74.1776C230.972 75.474 232.049 76.5393 233.475 77.2213C239.957 80.468 244.28 83.4667 246.693 86.3978L246.704 86.4147L246.715 86.4316C248.192 88.179 250.114 89.1428 252.115 89.1428C256.038 89.1428 259.353 85.7439 259.353 81.725C259.353 79.6902 258.513 77.7343 256.996 76.2124C253.665 72.8248 247.454 68.9749 242.539 66.709L248.609 66.6809C251.754 66.6809 254.167 64.6573 254.781 61.6868C255.616 61.9405 256.422 62.0814 257.166 62.0814C261.404 62.0814 264.854 58.7557 264.854 54.6636C264.86 51.9298 263.247 49.5287 260.548 48.2435ZM212.061 75.6995L212.101 75.6543L212.135 75.6093C213.189 74.2565 213.718 72.853 213.718 71.4438C213.718 69.7021 212.98 68.028 211.808 66.7429L216.379 66.7654V77.3059C216.379 78.2078 216.379 79.4479 213.245 79.4479C212.36 79.4479 211.221 79.3069 210.201 79.0758C209.728 78.9574 209.288 78.9236 208.916 78.9123C210.167 77.7625 211.244 76.6633 212.061 75.6995ZM218.893 40.9384C220.663 38.3117 222.788 34.9241 224.315 31.7112C226.204 34.817 228.368 37.9228 230.724 40.9384H218.893ZM210.038 28.3011C210.32 28.2955 210.596 28.2898 210.861 28.2898C210.804 28.4026 210.748 28.5153 210.686 28.6393C210.472 28.5209 210.258 28.4082 210.038 28.3011ZM208.228 53.7448C208.555 53.4291 208.871 53.1079 209.192 52.7922C210.077 53.2601 211.109 53.5194 212.236 53.5194H234.895C236.986 53.5194 238.745 52.6231 239.856 51.1632C240.611 51.896 241.552 52.7866 242.634 53.7448H208.228ZM242.189 27.574C241.417 28.5717 240.47 29.7497 239.489 30.9277C238.723 29.885 237.973 28.7858 237.234 27.6303L242.189 27.574ZM231.649 66.7598C231.096 67.3235 230.64 67.9886 230.313 68.7157V66.7654L231.649 66.7598Z" fill="black"/>
<path d="M319.783 67.4592V67.4423C319.552 62.172 319.45 55.6166 319.49 49.1007C325.222 49.1063 331.073 49.1514 336.749 49.4558C336.935 49.4671 337.121 49.4727 337.296 49.4727C340.114 49.4727 341.89 48.3059 342.887 47.3308C344.206 46.04 344.967 44.2419 344.979 42.4044C344.996 39.7833 343.485 37.1229 340.548 35.9618C345.029 34.1693 348.197 29.8122 348.197 24.7279C348.197 18.0034 342.724 12.5303 335.999 12.5303C329.326 12.5303 323.892 18.0034 323.892 24.7279C323.892 29.2429 326.378 33.1773 330.047 35.2572C327.685 35.2346 325.267 35.2177 322.872 35.2177C321.767 35.2177 320.702 35.2233 319.665 35.229C319.743 31.3228 319.811 28.5158 319.879 26.5317V26.5091V26.4866C319.913 24.5025 319.202 22.6706 317.883 21.3291C316.531 19.9538 314.614 19.1646 312.63 19.1646C310.685 19.1646 308.904 19.8974 307.608 21.2333C306.644 22.2253 305.511 24.0065 305.59 26.8755C305.663 28.8709 305.674 31.8639 305.68 35.3868C299.485 35.4995 293.313 35.7194 286.566 35.9787C283.742 36.0914 282.034 37.2525 281.093 38.1995C279.819 39.4903 279.132 41.2094 279.171 43.0413C279.239 46.3726 281.854 49.9124 286.566 49.9124C286.702 49.9124 286.837 49.9068 286.978 49.9011C293.657 49.6531 299.779 49.4276 305.793 49.2585C305.86 57.8657 305.849 66.7321 305.77 72.4815C305.753 73.3608 305.567 73.6426 305.55 73.6651C305.539 73.6651 305.364 73.7441 304.913 73.7441C304.147 73.7441 303.093 73.5242 301.684 73.0789C300.957 72.8422 300.19 72.7182 299.435 72.7182C295.793 72.7182 292.676 75.683 292.338 79.4652C292.175 81.3253 292.727 83.129 293.9 84.5438C295.134 86.0375 297.017 87.0465 299.339 87.4636C301.481 87.8356 303.476 88.0273 305.28 88.0273C310.167 88.0273 313.932 86.6745 316.474 84.0083C318.735 81.6353 319.879 78.4055 319.879 74.4091C319.879 71.9065 319.879 70.3959 319.789 67.4649L319.783 67.4592ZM335.994 23.0369C336.879 23.0369 337.685 23.843 337.685 24.7279C337.685 25.6129 336.879 26.4189 335.994 26.4189C335.109 26.4189 334.303 25.6129 334.303 24.7279C334.303 23.843 335.109 23.0369 335.994 23.0369Z" fill="black"/>
<path d="M331.202 52.2403C329.9 51.4681 328.542 51.0791 327.166 51.0791C323.976 51.0791 321.158 53.238 320.312 56.3325C319.54 59.1564 320.707 61.9691 323.288 63.5022C327.099 65.7513 333.051 70.9651 335.508 74.8488C336.878 76.9794 338.89 78.1405 341.19 78.1405C342.667 78.1405 344.144 77.6558 345.463 76.7314C346.923 75.7112 348.044 74.1216 348.535 72.3799C349.11 70.3338 348.805 68.2201 347.678 66.4276C343.372 59.6524 333.992 53.8636 331.202 52.2403Z" fill="black"/>
<path d="M301.723 55.1207C300.505 52.9956 298.076 51.626 295.534 51.626C293.071 51.626 290.867 52.9168 289.632 55.0756C287.643 58.5759 282.609 64.2971 278.556 66.9125C276.877 67.9947 275.738 69.635 275.366 71.5289C274.977 73.513 275.428 75.621 276.606 77.3008C277.976 79.2623 280.23 80.4348 282.632 80.4348C284.114 80.4348 285.585 79.9781 286.876 79.1157C292.924 75.1137 299.062 66.2586 301.458 62.1326C302.828 59.7821 302.929 57.2231 301.723 55.1207Z" fill="black"/>
<path d="M510.616 25.2353C510.408 25.2353 510.194 25.2409 509.979 25.2466H509.962H509.946C507.195 25.3593 504.241 25.5791 501.293 25.8159C501.643 24.1869 501.384 22.5072 500.521 20.974C499.118 18.4883 496.367 16.8818 493.509 16.8818C490.229 16.8818 487.523 18.8884 486.08 22.3888C482.974 29.8122 471.047 44.5689 463.122 49.4728C459.216 51.8852 458.602 55.4927 459.334 58.0686C460.219 61.18 463.116 63.3558 466.391 63.3558C468.094 63.3558 469.841 62.7752 471.431 61.6817L471.442 61.6761L471.453 61.6704C474.097 59.816 476.966 57.178 479.733 54.3315C480.432 56.1747 482.005 57.6233 484.147 58.2039C486.035 58.7337 488.002 59.5229 489.896 60.4924C482.022 68.6655 473.11 74.4543 463.353 77.7066C460.14 78.7663 457.175 81.641 457.824 85.6824C458.382 89.1659 461.544 91.6911 465.349 91.6911C466.583 91.6911 467.857 91.4375 469.142 90.9415C482.811 85.6937 493.363 78.6141 502.122 68.7726C503.12 69.6406 504.112 70.5876 505.121 71.6642C506.564 73.2368 508.469 74.1104 510.464 74.1104C512.319 74.1104 514.111 73.3777 515.515 72.0531C518.068 69.6406 519.077 65.0693 515.926 61.3435C514.635 59.7709 513.001 58.2152 511.129 56.7666C513.936 52.4997 516.828 47.6634 519.928 42.0549C522.363 37.6189 522.662 33.2168 520.74 29.9701C518.423 26.0582 513.959 25.2353 510.616 25.2353ZM491.999 40.0201C495.234 39.6707 501.26 39.1014 504.884 38.8928C503.165 42.4833 501.175 45.9725 498.965 49.2924C495.837 47.7254 492.466 46.4234 489.259 45.5553C488.774 45.4201 488.29 45.3186 487.811 45.2566C489.535 43.1654 490.99 41.3278 491.999 40.0201Z" fill="black"/>
<path d="M380.506 78.3443C373.922 80.7793 370.856 71.9411 377.62 69.5962C394.034 63.9145 408.283 49.4848 415.408 36.0471C416.22 34.5139 415.859 33.0709 413.875 33.0709C408.193 32.9807 395.747 33.4317 387.811 33.612C382.4 33.7924 382.039 25.1345 387.811 24.864C394.395 24.5934 407.652 24.4131 416.761 24.4131C424.877 24.4131 429.477 29.5537 425.96 35.6863C422.893 41.0073 419.647 46.1479 415.949 51.0179C423.434 55.5272 434.888 63.1029 439.037 68.8748C442.644 73.9252 435.88 80.9597 431.641 75.6387C427.222 70.1374 417.933 61.9304 410.538 57.5113C402.602 66.3496 392.861 73.6546 380.506 78.3443Z" stroke="black" stroke-width="10"/>
<path d="M416.761 24.4133C424.878 24.4133 429.477 29.5539 425.96 35.6865C422.893 41.0075 419.647 46.1481 415.949 51.0181C423.435 55.5274 434.888 63.1031 439.037 68.875C441.737 72.6515 438.631 77.5385 435.125 77.5385C433.941 77.5385 432.712 76.9804 431.641 75.6389C427.222 70.1376 417.933 61.9306 410.538 57.5115C402.602 66.3497 392.861 73.6548 380.506 78.3445C379.723 78.6319 378.984 78.7672 378.313 78.7672C373.331 78.7672 371.662 71.665 377.62 69.5964C394.034 63.9147 408.283 49.485 415.408 36.0473C416.22 34.5141 415.859 33.0711 413.875 33.0711C413.368 33.0655 412.809 33.0598 412.206 33.0598C406.017 33.0598 395.043 33.4487 387.811 33.6122C387.755 33.6122 387.698 33.6122 387.648 33.6122C382.394 33.6122 382.101 25.1291 387.811 24.8585C394.395 24.5936 407.652 24.4133 416.761 24.4133ZM416.761 23.8496C408.109 23.8496 394.569 24.0243 387.789 24.3005C385.449 24.4076 382.975 26.0648 383.054 29.4355C383.11 31.7916 384.705 34.1815 387.648 34.1815C387.71 34.1815 387.772 34.1815 387.834 34.1759C390.139 34.1251 392.799 34.0462 395.623 33.9673C401.711 33.7982 408.007 33.6179 412.212 33.6179C412.815 33.6179 413.368 33.6235 413.869 33.6291C414.314 33.6291 414.889 33.7137 415.126 34.1082C415.352 34.4803 415.267 35.1059 414.912 35.7767C411.282 42.6308 405.848 49.5639 399.62 55.3076C392.726 61.6657 385.055 66.4174 377.44 69.0553C373.855 70.2954 372.987 73.1137 373.331 75.1429C373.742 77.6005 375.794 79.3196 378.319 79.3196C379.086 79.3196 379.892 79.1674 380.709 78.863C392.219 74.4947 402.021 67.742 410.651 58.2217C418.283 62.8776 427.211 71 431.207 75.9771C432.594 77.7188 434.105 78.0852 435.131 78.0852C437.03 78.0852 438.913 76.817 439.922 74.8498C440.993 72.7642 440.84 70.4025 439.499 68.5311C437.988 66.4343 432.769 60.5384 416.778 50.8434C419.985 46.5708 423.068 41.8248 426.45 35.9514C427.989 33.2684 428.13 30.5685 426.85 28.3533C425.204 25.5406 421.434 23.8496 416.761 23.8496Z" stroke="black" stroke-width="10"/>
<path d="M561.064 50.2058C557.817 50.2058 556.284 48.0413 556.284 45.8768C556.284 43.6222 557.998 41.2773 561.064 41.2773H617.701C620.767 41.2773 622.3 43.532 622.3 45.7866C622.3 47.9511 620.767 50.2058 617.701 50.2058H561.064Z" stroke="black" stroke-width="10"/>
<path d="M617.701 41.2775C620.767 41.2775 622.301 43.5322 622.301 45.7868C622.301 47.9513 620.767 50.206 617.701 50.206H561.064C557.818 50.206 556.284 48.0415 556.284 45.877C556.284 43.6224 557.998 41.2775 561.064 41.2775H617.701ZM617.701 40.7139H561.064C557.592 40.7139 555.721 43.3744 555.721 45.877C555.721 48.2331 557.395 50.7697 561.064 50.7697H617.701C621.089 50.7697 622.864 48.2613 622.864 45.7868C622.864 42.4556 620.266 40.7139 617.701 40.7139Z" stroke="black" stroke-width="10"/>
<path d="M59.4267 62.1994C59.6071 63.462 59.6973 64.8148 59.6973 66.1676C59.6973 74.2844 55.9095 86.5497 40.2171 86.5497C33.1826 86.5497 29.3948 84.6558 29.3948 81.1385C29.3948 78.8839 31.1083 76.8998 33.6336 76.8998C34.0845 76.8998 34.5354 76.8998 35.0765 77.0801C37.0606 77.7114 39.1349 78.0722 41.0288 78.0722C51.1296 78.0722 51.1296 65.9873 51.1296 65.2658C51.1296 64.1836 51.0394 63.1915 50.8591 62.1994H59.4267ZM45.8988 54.4435C44.8166 53.722 43.6442 53.0005 42.2914 52.5495C40.3975 51.9182 39.5858 50.7459 39.5858 49.5734C39.5858 47.6795 41.6601 45.7856 44.3657 45.7856C46.3498 45.7856 48.2437 46.7777 49.6867 47.5893C52.0315 46.0562 56.8113 42.7193 56.8113 41.637C56.8113 41.2763 56.4506 41.0959 55.8193 41.0959C54.8273 41.0058 53.1137 41.0057 51.0394 41.0057C45.2675 41.0057 36.5195 41.1861 30.2065 41.4567C30.1163 41.4567 30.1163 41.4567 30.0261 41.4567C27.3205 41.4567 25.9677 39.5628 25.9677 37.6689C25.9677 35.8652 27.3205 33.9712 30.1163 33.881C33.9943 33.7007 38.8643 33.7007 43.6442 33.7007C50.2278 33.7007 56.8113 33.7908 60.9599 33.881C66.1005 33.9712 68.265 36.5866 68.265 39.3824C68.265 43.8015 63.4851 47.4991 55.3684 52.5495C55.8193 53.1808 56.2702 53.8122 56.631 54.4435H45.8988ZM34.0845 21.4354C42.0208 21.3452 49.867 21.3452 57.8034 21.3452C60.4188 18.369 62.7636 13.1383 64.2066 9.44064C65.0183 7.36636 66.6416 6.55469 68.265 6.55469C70.7902 6.55469 73.4056 8.44857 73.4056 10.9738C73.4056 12.6873 70.5196 17.1065 66.822 21.4354C68.8963 21.4354 71.0607 21.5256 73.135 21.5256C78.456 21.6158 83.4162 24.5017 83.5966 30.0932C83.6868 31.3558 83.6868 33.2498 83.6868 34.9633C83.6868 36.2259 83.6868 37.3983 83.5966 38.3002C83.4162 40.9156 81.0714 42.2683 78.8167 42.2683C76.4719 42.2683 74.3074 41.0057 74.3074 38.4805C74.3074 38.3903 74.3074 38.3904 74.3074 38.3002V33.3399C74.3074 29.5521 72.3233 28.9208 68.6257 28.8306C61.4108 28.7405 53.2941 28.6503 45.4479 28.6503C39.0447 28.6503 32.7317 28.7405 27.1402 28.8306C22.1799 28.9208 21.3683 30.1834 21.0977 33.3399C21.0977 33.3399 21.0977 33.34 21.0977 38.5707V38.6609C21.0977 41.1862 18.843 42.6291 16.4982 42.6291C14.4239 42.6291 12.2595 41.3665 12.1693 38.5707C12.1693 37.3983 12.0791 36.0455 12.0791 34.6025C12.0791 33.0694 12.1693 31.5362 12.1693 30.1834C12.3497 25.9447 15.6865 21.6158 22.721 21.5256L30.2967 21.4354H34.0845Z" stroke="black" stroke-width="10"/>
<path d="M68.2652 6.55487C70.7904 6.55487 73.4058 8.44876 73.4058 10.974C73.4058 12.6875 70.5198 17.1066 66.8222 21.4356C68.8965 21.4356 71.0609 21.5258 73.1352 21.5258C78.4562 21.616 83.4164 24.5019 83.5968 30.0934C83.687 31.356 83.687 33.2499 83.687 34.9635C83.687 36.2261 83.687 37.3985 83.5968 38.3004C83.4164 40.9158 81.0716 42.2685 78.8169 42.2685C76.4721 42.2685 74.3076 41.0059 74.3076 38.4807C74.3076 38.3905 74.3076 38.3906 74.3076 38.3004V33.3401C74.3076 29.5523 72.3235 28.921 68.6259 28.8308C61.411 28.7406 53.2943 28.6505 45.4481 28.6505C39.0449 28.6505 32.7319 28.7406 27.1403 28.8308C22.1801 28.921 21.3684 30.1836 21.0979 33.3401C21.0979 33.3401 21.0979 33.3401 21.0979 38.5709V38.6611C21.0979 41.1863 18.8432 42.6293 16.4984 42.6293C14.4241 42.6293 12.2597 41.3667 12.1695 38.5709C12.1695 37.3985 12.0793 36.0457 12.0793 34.6027C12.0793 33.0696 12.1695 31.5364 12.1695 30.1836C12.3498 25.9449 15.6867 21.616 22.7212 21.5258L30.2969 21.4356H34.0847C42.021 21.3454 49.8672 21.3454 57.8036 21.3454C60.419 18.3692 62.7638 13.1384 64.2068 9.44082C65.0185 7.36654 66.6418 6.55487 68.2652 6.55487ZM43.6444 33.7009C50.228 33.7009 56.8115 33.791 60.9601 33.8812C66.1007 33.9714 68.2652 36.5868 68.2652 39.3826C68.2652 43.8017 63.4853 47.4993 55.3686 52.5497C55.8195 53.181 56.2704 53.8124 56.6312 54.4437H45.899C44.8168 53.7222 43.6444 53.0006 42.2916 52.5497C40.3977 51.9184 39.586 50.746 39.586 49.5736C39.586 47.6797 41.6603 45.7858 44.3659 45.7858C46.35 45.7858 48.2439 46.7778 49.6868 47.5895C52.0317 46.0564 56.8115 42.7194 56.8115 41.6372C56.8115 41.2765 56.4508 41.0961 55.8195 41.0961C54.8274 41.0059 53.1139 41.0059 51.0396 41.0059C45.2677 41.0059 36.5197 41.1863 30.2067 41.4569C30.1165 41.4569 30.1165 41.4569 30.0263 41.4569C27.3207 41.4569 25.9679 39.563 25.9679 37.6691C25.9679 35.8654 27.3207 33.9714 30.1165 33.8812C33.9945 33.7008 38.8645 33.7009 43.6444 33.7009ZM59.4269 62.1996C59.6073 63.4622 59.6975 64.815 59.6975 66.1678C59.6975 74.2845 55.9097 86.5499 40.2173 86.5499C33.1828 86.5499 29.395 84.656 29.395 81.1387C29.395 78.8841 31.1085 76.9 33.6337 76.9C34.0847 76.9 34.5356 76.8999 35.0767 77.0803C37.0608 77.7116 39.1351 78.0724 41.029 78.0724C51.1298 78.0724 51.1298 65.9875 51.1298 65.266C51.1298 64.1837 51.0396 63.1916 50.8593 62.1996H59.4269ZM68.2652 5.99121C66.1571 5.99121 64.4886 7.17491 63.6826 9.23791C62.5102 12.2422 60.171 17.6816 57.5443 20.7873C49.8616 20.7873 41.9252 20.7874 34.079 20.8776H30.2969L22.7156 20.9678C15.3091 21.0636 11.7975 25.6574 11.6058 30.1667C11.6058 30.8375 11.5833 31.5195 11.5607 32.2466C11.5382 33.0132 11.5156 33.8136 11.5156 34.6084C11.5156 35.3749 11.5382 36.1077 11.5664 36.8179C11.5889 37.4436 11.6058 38.0298 11.6058 38.5766C11.7073 41.7556 14.2156 43.1986 16.4984 43.1986C19.0011 43.1986 21.6615 41.609 21.6615 38.6667V38.5766V33.3683C21.9039 30.5557 22.4507 29.4847 27.1516 29.4001C32.9573 29.3043 39.1915 29.2198 45.4481 29.2198C53.1308 29.2198 61.1292 29.3043 68.6203 29.4001C72.2333 29.4903 73.744 30.054 73.744 33.3458V38.306V38.4864C73.744 41.051 75.8295 42.8378 78.8169 42.8378C81.3196 42.8378 83.9575 41.2934 84.1604 38.3454C84.2506 37.4323 84.2506 36.2374 84.2506 34.9691C84.2506 33.2669 84.2506 31.3391 84.1604 30.0596C84.0703 27.2921 82.8527 24.9472 80.6319 23.3013C78.6704 21.8471 76.0155 21.0185 73.1465 20.9678C72.1037 20.9678 71.0327 20.9452 69.99 20.9226C69.3418 20.9113 68.6823 20.8945 68.0228 20.8888C70.92 17.3772 73.9694 12.9862 73.9694 10.9796C73.9694 8.03729 70.9651 5.99121 68.2652 5.99121ZM43.6444 33.1372C38.8927 33.1372 33.9832 33.1372 30.0883 33.3176C27.0163 33.419 25.4043 35.5835 25.4043 37.6691C25.4043 39.8335 26.9938 42.0205 30.0263 42.0205H30.2067C36.3111 41.7612 45.0648 41.5696 51.0396 41.5696C53.0575 41.5696 54.7993 41.5696 55.7688 41.6598H55.7969H55.8251C56.0393 41.6598 56.1633 41.6823 56.231 41.7048C55.9491 42.3362 53.4972 44.4048 49.6699 46.93C48.4524 46.2536 46.4514 45.2221 44.3715 45.2221C41.525 45.2221 39.028 47.257 39.028 49.5736C39.028 51.1519 40.1553 52.4314 42.1169 53.0852C43.402 53.5136 44.5462 54.2182 45.589 54.9115L45.7299 55.0073H45.899H56.6312H57.6007L57.1159 54.1618C56.8341 53.6715 56.5072 53.1867 56.169 52.7075C64.3815 47.5613 68.8232 43.8749 68.8232 39.3769C68.8232 37.7367 68.1412 36.243 66.9011 35.1833C65.5032 33.9883 63.5078 33.357 60.9657 33.3119C56.9581 33.2274 50.3012 33.1372 43.6444 33.1372ZM59.9173 61.6359H59.4269H50.8593H50.1829L50.3012 62.3011C50.476 63.2706 50.5605 64.2401 50.5605 65.266C50.5605 66.0776 50.4703 68.9354 49.3374 71.7255C47.7817 75.5641 44.9803 77.5087 41.0234 77.5087C39.2253 77.5087 37.2299 77.1762 35.2402 76.5449C34.6201 76.3363 34.0903 76.3363 33.6281 76.3363C30.9338 76.3363 28.8257 78.4444 28.8257 81.1387C28.8257 83.8668 30.7985 87.1135 40.2117 87.1135C54.9909 87.1135 60.2555 76.2912 60.2555 66.1678C60.2555 64.7643 60.1653 63.4059 59.9793 62.1208L59.9173 61.6359Z" stroke="black" stroke-width="10"/>
<path d="M56.631 54.4444L83.5064 54.1738C86.1218 54.1738 87.4746 56.2481 87.4746 58.3224C87.4746 60.3065 86.212 62.2906 83.5966 62.2906L59.4268 62.2004H50.8591L12.6202 62.3808C9.82447 62.3808 8.47168 60.3967 8.47168 58.4126C8.47168 56.3383 9.91466 54.264 12.5301 54.264L45.8989 54.4444H56.631Z" stroke="black" stroke-width="10"/>
<path d="M83.5064 54.174C86.1218 54.174 87.4746 56.2483 87.4746 58.3226C87.4746 60.3067 86.212 62.2908 83.5966 62.2908L59.4267 62.2006H50.8591L12.6202 62.381C9.82443 62.381 8.47164 60.3969 8.47164 58.4128C8.47164 56.3385 9.91462 54.2642 12.53 54.2642L45.8988 54.4446H56.631L83.5064 54.174ZM83.5064 53.6104H83.5007L56.6253 53.881H45.8988L12.53 53.7006C9.5257 53.7006 7.90234 56.1299 7.90234 58.4128C7.90234 60.5941 9.37914 62.9446 12.6146 62.9446L50.8591 62.7642H59.4267L83.5966 62.8544C85.7385 62.8544 88.0382 61.434 88.0382 58.3226C88.0382 55.9777 86.4825 53.6104 83.5064 53.6104Z" stroke="black" stroke-width="10"/>
<path d="M48.7849 20.9853C47.5223 20.9853 46.3499 20.354 45.7186 18.8208C44.456 15.4839 42.4719 13.4998 40.3976 11.0648C39.8565 10.4335 39.5859 9.71203 39.5859 9.08072C39.5859 7.18682 41.8406 5.56348 44.1854 5.56348C48.7849 5.56348 53.7451 14.4017 53.7451 16.476C53.7451 18.911 51.1297 20.9853 48.7849 20.9853Z" stroke="black" stroke-width="10"/>
<path d="M44.1856 5.56366C48.7851 5.56366 53.7453 14.4019 53.7453 16.4762C53.7453 18.9112 51.1299 20.9855 48.7851 20.9855C47.5225 20.9855 46.3501 20.3542 45.7188 18.821C44.4562 15.4841 42.4721 13.5 40.3978 11.065C39.8567 10.4337 39.5861 9.71221 39.5861 9.08091C39.5861 7.187 41.8408 5.56366 44.1856 5.56366ZM44.1856 5C41.4349 5 39.0225 6.90517 39.0225 9.08091C39.0225 9.87004 39.3663 10.7268 39.9694 11.4314C40.2512 11.764 40.5387 12.0909 40.8149 12.4122C42.5228 14.3794 44.1349 16.2338 45.1889 19.0183C45.8597 20.6529 47.1336 21.5491 48.7851 21.5491C51.8965 21.5491 54.309 18.821 54.309 16.4762C54.309 14.0468 49.1627 5 44.1856 5Z" stroke="black" stroke-width="10"/>
<path d="M31.6101 21.9765C30.3475 21.9765 29.1751 21.3452 28.5438 19.812C27.2812 16.4752 25.2971 14.4911 23.2228 12.056C22.6817 11.4247 22.4111 10.7032 22.4111 10.0719C22.4111 8.17803 24.6658 6.55469 27.0106 6.55469C31.6101 6.55469 36.5703 15.3929 36.5703 17.4672C36.5703 19.9022 33.9549 21.9765 31.6101 21.9765Z" stroke="black" stroke-width="10"/>
<path d="M27.0108 6.55487C31.6103 6.55487 36.5705 15.3931 36.5705 17.4674C36.5705 19.9024 33.9551 21.9767 31.6103 21.9767C30.3477 21.9767 29.1753 21.3454 28.544 19.8122C27.2814 16.4753 25.2973 14.4912 23.223 12.0562C22.6819 11.4249 22.4113 10.7034 22.4113 10.0721C22.4113 8.17822 24.666 6.55487 27.0108 6.55487ZM27.0108 5.99121C24.2601 5.99121 21.8477 7.89638 21.8477 10.0721C21.8477 10.8612 22.1915 11.718 22.7946 12.4226C23.0764 12.7552 23.3639 13.0821 23.6401 13.4034C25.348 15.3706 26.9601 17.225 28.0141 20.0095C28.6849 21.6441 29.9588 22.5403 31.6103 22.5403C34.7217 22.5403 37.1342 19.8122 37.1342 17.4674C37.1342 15.038 31.9879 5.99121 27.0108 5.99121Z" stroke="black" stroke-width="10"/>
<path d="M164.049 83.3938C156.112 83.5742 147.545 83.6643 138.977 83.6643C130.409 83.6643 121.842 83.5742 113.725 83.3938C105.879 83.2134 102.091 79.2452 101.82 72.5714C101.55 65.8075 101.459 57.4202 101.459 48.8525C101.459 38.391 101.64 27.5686 101.82 18.7304C101.91 12.9585 106.239 9.17071 113.003 8.99034C120.849 8.80997 129.417 8.71973 138.165 8.71973C146.913 8.71973 155.751 8.80997 164.229 8.99034C169.73 9.08053 175.051 12.9585 175.141 19.4519C175.322 28.6509 175.502 39.1124 175.502 49.1231C175.502 57.4202 175.412 65.4467 175.141 72.3009C174.961 78.6139 170.542 83.2134 164.049 83.3938ZM166.935 45.7862C166.935 37.6694 166.844 29.6429 166.574 22.6084C166.393 17.4678 164.59 16.5659 160.171 16.4757C153.407 16.3855 145.651 16.2954 138.075 16.2954C130.409 16.2954 123.014 16.3855 116.701 16.4757C111.56 16.5659 110.117 18.0089 110.027 22.6084C109.847 29.9134 109.757 38.3008 109.757 46.5077C109.757 54.7146 109.847 62.7412 110.027 69.5051C110.208 74.6457 112.011 75.5476 117.603 75.6378C123.826 75.728 130.68 75.8181 137.895 75.8181C145.019 75.8181 152.505 75.728 159.81 75.6378C164.86 75.5476 166.393 73.2028 166.574 69.2346C166.844 62.0197 166.935 53.9029 166.935 45.7862Z" stroke="black" stroke-width="10"/>
<path d="M138.165 8.71991C146.913 8.71991 155.751 8.81016 164.229 8.99053C169.73 9.08071 175.051 12.9587 175.141 19.4521C175.321 28.651 175.502 39.1126 175.502 49.1233C175.502 57.4204 175.412 65.4469 175.141 72.3011C174.961 78.6141 170.542 83.2136 164.048 83.394C156.112 83.5743 147.544 83.6645 138.977 83.6645C130.409 83.6645 121.841 83.5743 113.724 83.394C105.878 83.2136 102.09 79.2454 101.82 72.5716C101.549 65.8077 101.459 57.4204 101.459 48.8527C101.459 38.3911 101.64 27.5688 101.82 18.7306C101.91 12.9587 106.239 9.1709 113.003 8.99053C120.849 8.81016 129.417 8.71991 138.165 8.71991ZM137.894 75.8183C145.019 75.8183 152.504 75.7282 159.809 75.638C164.86 75.5478 166.393 73.203 166.573 69.2348C166.844 62.0199 166.934 53.9031 166.934 45.7864C166.934 37.6696 166.844 29.6431 166.573 22.6086C166.393 17.468 164.589 16.5661 160.17 16.4759C153.406 16.3857 145.65 16.2956 138.075 16.2956C130.409 16.2956 123.014 16.3857 116.701 16.4759C111.56 16.5661 110.117 18.0091 110.027 22.6086C109.846 29.9136 109.756 38.3009 109.756 46.5079C109.756 54.7148 109.846 62.7414 110.027 69.5053C110.207 74.6459 112.011 75.5478 117.602 75.638C123.825 75.7282 130.679 75.8183 137.894 75.8183ZM138.165 8.15625C129.282 8.15625 120.81 8.24649 112.992 8.42687C105.957 8.61287 101.352 12.6543 101.256 18.7193C101.104 26.3006 100.896 37.6753 100.896 48.8527C100.896 58.7506 101.014 66.5179 101.256 72.5942C101.549 79.8485 105.856 83.7773 113.713 83.9576C121.796 84.138 130.296 84.2282 138.977 84.2282C147.595 84.2282 156.27 84.1324 164.06 83.9576C170.728 83.7716 175.513 78.9861 175.705 72.318C175.947 66.1684 176.066 58.5815 176.066 49.1233C176.066 39.2084 175.891 29.0005 175.705 19.4408C175.609 12.4063 169.724 8.51705 164.24 8.42687C155.791 8.24649 147.014 8.15625 138.165 8.15625ZM137.894 75.2546C130.623 75.2546 123.611 75.1645 117.608 75.0743C112.236 74.9898 110.754 74.2795 110.585 69.4827C110.41 62.8541 110.314 54.9064 110.314 46.5022C110.314 38.0416 110.41 29.784 110.585 22.6142C110.669 18.2627 111.926 17.1129 116.706 17.0284C122.929 16.9382 130.33 16.8479 138.069 16.8479C145.65 16.8479 153.491 16.9382 160.159 17.0284C164.995 17.1298 165.863 18.5107 166.004 22.6198C166.247 28.9272 166.365 36.5028 166.365 45.7807C166.365 55.0755 166.247 62.7414 166.004 69.2066C165.846 72.6562 164.73 74.9785 159.793 75.0687C152.978 75.1588 145.239 75.2546 137.894 75.2546Z" stroke="black" stroke-width="10"/>
<path d="M161.253 66.9801C158.728 66.3488 155.842 65.447 152.956 64.0942C157.826 62.0199 160.441 60.4867 160.441 58.5026C160.441 56.8793 158.637 55.4363 156.743 55.4363C156.022 55.4363 155.3 55.7068 154.579 56.1578C151.693 58.1419 149.529 59.4946 146.823 60.5769C145.109 59.4044 143.576 57.9615 142.133 56.4283C155.301 56.4283 157.194 55.8872 157.194 49.1233C157.194 41.0065 156.473 40.8262 137.895 40.8262C119.497 40.8262 118.234 41.0065 118.234 49.1233C118.234 54.4442 119.316 56.4283 130.409 56.4283C124.727 60.6671 119.587 62.9217 113.995 64.8156C112.643 65.2665 112.011 66.3488 112.011 67.431C112.011 69.2347 113.544 71.2188 115.709 71.2188C116.881 71.2188 123.104 69.0544 132.213 62.0199L132.123 71.6698C132.123 71.6698 132.123 71.6698 132.123 71.76C132.123 73.4735 133.926 74.2852 135.73 74.2852C137.534 74.2852 139.338 73.3833 139.338 71.6698L139.247 61.6591C145.2 68.4231 156.293 73.4735 159.72 73.4735C161.974 73.4735 163.327 71.4894 163.327 69.7759C163.327 68.5133 162.696 67.3409 161.253 66.9801ZM138.616 51.4681C127.162 51.4681 125.9 51.2877 125.9 50.0251C125.9 47.2293 125.9 47.2294 125.9 47.2294C125.99 46.2373 126.892 45.9668 136.091 45.9668C140.059 45.9668 144.208 45.9668 147.003 46.057C149.168 46.057 149.619 46.1471 149.619 48.6723C149.619 49.2134 149.619 49.7546 149.529 50.0251C149.348 51.2877 148.987 51.4681 138.616 51.4681Z" stroke="black" stroke-width="10"/>
<path d="M137.894 40.8264C156.473 40.8264 157.194 41.0067 157.194 49.1235C157.194 55.8874 155.3 56.4285 142.133 56.4285C143.576 57.9617 145.109 59.4046 146.823 60.577C149.528 59.4948 151.693 58.142 154.579 56.1579C155.3 55.707 156.022 55.4364 156.743 55.4364C158.637 55.4364 160.441 56.8795 160.441 58.5028C160.441 60.4869 157.825 62.0201 152.955 64.0944C155.841 65.4471 158.727 66.349 161.252 66.9803C162.695 67.341 163.327 68.5134 163.327 69.776C163.327 71.4896 161.974 73.4736 159.719 73.4736C156.292 73.4736 145.199 68.4232 139.247 61.6593L139.337 71.6699C139.337 73.3835 137.534 74.2853 135.73 74.2853C133.926 74.2853 132.122 73.4737 132.122 71.7602C132.122 71.67 132.122 71.6699 132.122 71.6699L132.213 62.02C123.104 69.0546 116.881 71.219 115.709 71.219C113.544 71.219 112.011 69.2349 112.011 67.4312C112.011 66.349 112.642 65.2667 113.995 64.8158C119.587 62.9219 124.727 60.6672 130.409 56.4285C119.316 56.4285 118.234 54.4444 118.234 49.1235C118.234 41.0067 119.496 40.8264 137.894 40.8264ZM138.616 51.4683C148.987 51.4683 149.348 51.2879 149.528 50.0253C149.618 49.7547 149.618 49.2136 149.618 48.6725C149.618 46.1473 149.168 46.0572 147.003 46.0572C144.207 45.967 140.059 45.967 136.091 45.967C126.892 45.967 125.99 46.2375 125.9 47.2296C125.9 47.2296 125.9 47.2295 125.9 50.0253C125.9 51.2879 127.162 51.4683 138.616 51.4683ZM137.894 40.2627C119.384 40.2627 117.67 40.5107 117.67 49.1235C117.67 54.7939 119.243 56.778 128.69 56.9753C123.211 60.8082 118.313 62.7585 113.815 64.2803C112.355 64.7651 111.447 65.9713 111.447 67.4312C111.447 69.4886 113.195 71.7826 115.709 71.7826C116.943 71.7826 122.929 69.7197 131.638 63.1643L131.559 71.6643V71.7602C131.559 73.8852 133.723 74.849 135.73 74.849C137.804 74.849 139.901 73.7555 139.901 71.6699L139.822 63.1079C146.084 69.4886 156.366 74.0373 159.719 74.0373C161.726 74.0373 163.89 72.4084 163.89 69.776C163.89 68.102 162.932 66.8168 161.388 66.4335C158.806 65.7909 156.495 65.0243 154.348 64.1056C158.671 62.1891 160.999 60.6504 160.999 58.5028C160.999 56.6033 158.97 54.8728 156.738 54.8728C156.552 54.8728 156.371 54.8897 156.185 54.9179C157.465 53.6666 157.752 51.7614 157.752 49.1235C157.752 45.1384 157.606 42.63 154.725 41.4125C152.132 40.3077 147.431 40.2627 137.894 40.2627ZM126.463 47.2578C126.559 46.6997 128.836 46.525 136.091 46.525C140.076 46.525 144.196 46.525 146.986 46.6152C147.882 46.6152 148.519 46.6321 148.75 46.835C148.965 47.021 149.055 47.5734 149.055 48.6669C149.055 49.084 149.055 49.6589 148.993 49.8393L148.976 49.89L148.97 49.9407C148.908 50.3635 148.891 50.5044 147.815 50.6566C146.4 50.8595 143.491 50.899 138.616 50.899C133.114 50.899 129.794 50.8595 128.03 50.6566C126.463 50.4762 126.463 50.2338 126.463 50.0197V47.2578ZM143.458 56.9865C148.254 56.9696 151.253 56.84 153.299 56.3384C150.937 57.9279 149.089 59.027 146.885 59.9345C145.78 59.151 144.67 58.1984 143.458 56.9865Z" stroke="black" stroke-width="10"/>
<path d="M115.168 38.0306C113.274 38.0306 112.282 36.5877 112.282 35.0545C112.282 33.6115 113.274 32.0784 115.168 32.0784H134.017V28.5611H119.677C117.783 28.5611 116.791 27.1181 116.791 25.585C116.791 24.142 117.783 22.6088 119.677 22.6088H133.926V20.6248C133.926 18.0996 136.001 16.8369 138.075 16.8369C140.149 16.8369 142.314 18.0996 142.314 20.6248V22.6088H156.653C158.547 22.6088 159.539 24.0518 159.539 25.585C159.539 27.0279 158.547 28.5611 156.653 28.5611H142.223V32.0784H161.163C163.056 32.0784 164.048 33.5214 164.048 35.0545C164.048 36.4975 163.056 38.0306 161.163 38.0306H115.168Z" stroke="black" stroke-width="10"/>
<path d="M138.075 16.8371C140.149 16.8371 142.313 18.0998 142.313 20.625V22.609H156.653C158.547 22.609 159.539 24.052 159.539 25.5852C159.539 27.0281 158.547 28.5613 156.653 28.5613H142.223V32.0786H161.162C163.056 32.0786 164.048 33.5215 164.048 35.0547C164.048 36.4977 163.056 38.0308 161.162 38.0308H115.167C113.273 38.0308 112.281 36.5879 112.281 35.0547C112.281 33.6117 113.273 32.0786 115.167 32.0786H134.016V28.5613H119.677C117.783 28.5613 116.791 27.1183 116.791 25.5852C116.791 24.1422 117.783 22.609 119.677 22.609H133.926V20.625C133.926 18.0998 136 16.8371 138.075 16.8371ZM138.075 16.2734C135.735 16.2734 133.362 17.7672 133.362 20.625V22.0453H119.677C117.433 22.0453 116.227 23.8716 116.227 25.5852C116.227 27.3438 117.411 29.125 119.677 29.125H133.453V31.5149H115.167C112.924 31.5149 111.718 33.3412 111.718 35.0547C111.718 36.8133 112.901 38.5945 115.167 38.5945H161.162C163.406 38.5945 164.612 36.7682 164.612 35.0547C164.612 33.2961 163.428 31.5149 161.162 31.5149H142.787V29.125H156.653C158.896 29.125 160.103 27.2987 160.103 25.5852C160.103 23.8265 158.919 22.0453 156.653 22.0453H142.877V20.625C142.877 17.7672 140.459 16.2734 138.075 16.2734Z" stroke="black" stroke-width="10"/>
<path d="M215.003 42.8999C212.388 45.7858 209.412 48.4914 206.255 50.9264H254.234C256.579 50.9264 257.752 52.7302 257.752 54.5339C257.752 56.4278 256.579 58.2315 254.234 58.2315L233.131 58.3217V65.717L233.221 73.3828C233.221 73.473 233.221 73.4729 233.221 73.5631C233.221 78.9743 228.892 84.9266 219.332 84.9266C213.019 84.9266 210.494 83.1228 210.494 79.9663C210.494 77.9822 211.847 76.0883 214.102 76.0883C214.462 76.0883 214.823 76.0883 215.184 76.1785C216.356 76.4491 217.709 76.6295 218.881 76.6295C222.038 76.6295 224.834 75.457 224.834 71.6692V58.3217L205.985 58.2315C203.55 58.2315 202.287 56.3376 202.287 54.5339C202.287 54.1731 202.287 53.8124 202.377 53.5418C198.77 55.7965 194.171 57.961 192.367 57.961C190.022 57.961 188.218 55.9769 188.218 53.9928C188.218 52.5498 189.12 51.1068 191.375 50.3853C196.425 48.6718 201.115 45.6957 205.173 42.0882C203.64 41.1864 202.197 40.6453 200.664 40.1943C199.041 39.6532 198.409 38.4808 198.409 37.2182C198.409 35.2341 200.033 33.1598 202.287 33.1598C204.181 33.1598 207.518 35.0537 210.224 36.9476C211.396 35.5949 212.478 34.242 213.47 32.8892C211.757 31.807 210.224 31.2659 208.6 30.7248C206.977 30.1837 206.346 29.0112 206.346 27.7486C206.346 25.8547 207.969 23.7805 210.133 23.7805C211.486 23.7805 214.462 24.9529 217.439 26.937C218.611 24.7725 220.234 21.616 220.234 20.8945C220.234 20.0829 219.242 19.8123 218.611 19.8123C216.627 19.8123 212.659 19.9024 209.412 19.9926C207.608 22.608 197.868 36.1359 192.637 36.1359C190.383 36.1359 188.579 34.5126 188.579 32.5285C188.579 31.2659 189.3 29.9132 191.014 28.6505C197.688 23.7805 202.919 17.1067 206.616 9.26055C207.428 7.45683 208.781 6.73535 210.133 6.73535C212.208 6.73535 214.282 8.44886 214.282 10.7937C214.282 11.425 214.102 12.1465 213.651 12.9581L213.29 13.6796C216.627 13.5895 220.234 13.4993 222.038 13.4993C224.834 13.4993 226.728 14.3109 227.81 15.4833C227.81 15.2128 227.72 15.0325 227.72 14.7619C227.72 12.5072 229.794 10.974 231.688 10.974C233.041 10.974 234.303 11.6956 234.935 13.1385C237.55 18.8203 240.706 24.5921 245.035 29.7327C246.298 28.2898 252.25 21.3455 252.25 20.173C252.25 19.3614 251.168 19.0908 250.266 19.0908L242.149 19.181H242.059C239.624 19.181 238.362 17.4675 238.362 15.754C238.362 12.1465 241.699 12.1465 244.765 12.1465C248.372 12.1465 253.062 12.2367 254.866 12.2367C260.367 12.2367 262.802 14.9422 262.802 18.0987C262.802 19.6319 262.171 21.3455 260.998 22.8787C259.736 24.4118 253.964 31.2659 250.176 35.2341C254.234 39.0219 259.104 42.3588 264.967 45.1545C266.86 46.0564 267.672 47.5896 267.672 49.0325C267.672 51.3774 265.688 53.632 262.802 53.632C256.669 53.632 238.271 37.3084 229.163 18.8202C229.163 19.0006 229.163 19.0908 229.163 19.2712C229.163 23.2394 223.301 32.5285 219.062 38.12L215.003 42.8999ZM196.696 81.1388C194.08 81.1388 192.186 78.8841 192.186 76.7196C192.186 75.2767 193.088 73.8337 195.072 73.1122C200.664 71.1282 205.624 67.6109 209.412 62.9212C210.224 61.9291 211.216 61.4782 212.208 61.4782C214.372 61.4782 216.537 63.5525 216.537 65.8071C216.537 66.6188 216.176 67.4305 215.545 68.2422C211.576 72.9319 200.754 81.1388 196.696 81.1388Z" stroke="black" stroke-width="10"/>
<path d="M210.134 6.73554C212.208 6.73554 214.282 8.44904 214.282 10.7939C214.282 11.4252 214.102 12.1466 213.651 12.9583L213.29 13.6798C216.627 13.5896 220.235 13.4995 222.038 13.4995C224.834 13.4995 226.728 14.3111 227.81 15.4835C227.81 15.213 227.72 15.0326 227.72 14.7621C227.72 12.5074 229.794 10.9742 231.688 10.9742C233.041 10.9742 234.304 11.6958 234.935 13.1387C237.55 18.8205 240.707 24.5923 245.036 29.7329C246.298 28.2899 252.251 21.3456 252.251 20.1732C252.251 19.3616 251.168 19.091 250.266 19.091L242.15 19.1812H242.06C239.625 19.1812 238.362 17.4677 238.362 15.7541C238.362 12.1467 241.699 12.1467 244.765 12.1467C248.373 12.1467 253.062 12.2369 254.866 12.2369C260.367 12.2369 262.802 14.9424 262.802 18.0989C262.802 19.6321 262.171 21.3457 260.999 22.8788C259.736 24.412 253.964 31.2661 250.176 35.2343C254.235 39.0221 259.105 42.359 264.967 45.1547C266.861 46.0566 267.672 47.5897 267.672 49.0327C267.672 51.3776 265.688 53.6322 262.802 53.6322C256.67 53.6322 238.272 37.3086 229.163 18.8204C229.163 19.0008 229.163 19.091 229.163 19.2714C229.163 23.2396 223.301 32.5287 219.062 38.1202L215.004 42.9001C212.388 45.786 209.412 48.4916 206.256 50.9266H254.235C256.579 50.9266 257.752 52.7303 257.752 54.5341C257.752 56.428 256.579 58.2317 254.235 58.2317L233.131 58.3219V65.7172L233.221 73.383C233.221 73.4732 233.221 73.4731 233.221 73.5633C233.221 78.9745 228.892 84.9268 219.333 84.9268C213.02 84.9268 210.494 83.123 210.494 79.9665C210.494 77.9824 211.847 76.0885 214.102 76.0885C214.463 76.0885 214.823 76.0885 215.184 76.1787C216.357 76.4493 217.709 76.6297 218.882 76.6297C222.038 76.6297 224.834 75.4572 224.834 71.6694V58.3219L205.985 58.2317C203.55 58.2317 202.288 56.3378 202.288 54.5341C202.288 54.1733 202.288 53.8126 202.378 53.542C198.77 55.7967 194.171 57.9612 192.367 57.9612C190.022 57.9612 188.219 55.9771 188.219 53.993C188.219 52.55 189.12 51.107 191.375 50.3855C196.425 48.672 201.115 45.6959 205.173 42.0884C203.64 41.1866 202.197 40.6455 200.664 40.1945C199.041 39.6534 198.41 38.481 198.41 37.2184C198.41 35.2343 200.033 33.16 202.288 33.16C204.181 33.16 207.518 35.0539 210.224 36.9478C211.396 35.595 212.479 34.2422 213.471 32.8894C211.757 31.8072 210.224 31.2661 208.601 30.725C206.977 30.1839 206.346 29.0114 206.346 27.7488C206.346 25.8549 207.969 23.7807 210.134 23.7807C211.486 23.7807 214.463 24.9531 217.439 26.9372C218.611 24.7727 220.235 21.6162 220.235 20.8947C220.235 20.0831 219.242 19.8125 218.611 19.8125C216.627 19.8125 212.659 19.9026 209.412 19.9928C207.608 22.6082 197.868 36.1361 192.638 36.1361C190.383 36.1361 188.579 34.5128 188.579 32.5287C188.579 31.2661 189.301 29.9133 191.014 28.6507C197.688 23.7807 202.919 17.1069 206.616 9.26073C207.428 7.45701 208.781 6.73554 210.134 6.73554ZM212.208 61.4784C214.372 61.4784 216.537 63.5527 216.537 65.8073C216.537 66.619 216.176 67.4307 215.545 68.2424C211.577 72.932 200.754 81.139 196.696 81.139C194.081 81.139 192.187 78.8843 192.187 76.7198C192.187 75.2768 193.089 73.8339 195.073 73.1124C200.664 71.1283 205.624 67.611 209.412 62.9214C210.224 61.9293 211.216 61.4784 212.208 61.4784ZM210.134 6.17188C208.386 6.17188 206.921 7.21462 206.103 9.02961C202.333 17.028 197.141 23.4819 190.682 28.1941C188.478 29.8175 188.016 31.4465 188.016 32.5287C188.016 34.8285 190.09 36.6998 192.638 36.6998C198.201 36.6998 207.969 23.0479 209.711 20.5509C211.509 20.5002 216.244 20.3761 218.611 20.3761C218.944 20.3761 219.671 20.5058 219.671 20.8947C219.66 21.1709 219.13 22.5913 217.23 26.1311C214.508 24.4007 211.65 23.217 210.128 23.217C207.563 23.217 205.777 25.6069 205.777 27.7488C205.777 29.4229 206.74 30.7025 208.415 31.2605C209.925 31.7622 211.222 32.23 212.642 33.0529C211.858 34.0957 211.013 35.1497 210.122 36.1981C208.251 34.9242 204.537 32.5964 202.282 32.5964C200.134 32.5964 197.84 34.4564 197.84 37.2184C197.84 38.8925 198.804 40.172 200.478 40.73C201.949 41.164 203.099 41.6149 204.193 42.1898C200.106 45.7015 195.619 48.3451 191.183 49.8501C188.94 50.5716 187.644 52.0822 187.644 53.993C187.644 56.4054 189.847 58.5248 192.356 58.5248C194.193 58.5248 198.347 56.5971 201.713 54.6017C201.746 56.6478 203.234 58.7954 205.974 58.7954L224.259 58.8855V71.6751C224.259 74.5948 222.444 76.0717 218.87 76.0717C217.805 76.0717 216.503 75.9138 215.297 75.6376C214.88 75.5305 214.48 75.5305 214.091 75.5305C211.379 75.5305 209.92 77.819 209.92 79.9722C209.92 83.6867 212.997 85.4961 219.321 85.4961C229.253 85.4961 233.774 79.3127 233.774 73.569V73.3886L233.683 65.7172V58.8912L254.229 58.801C257.03 58.801 258.31 56.5914 258.31 54.5397C258.31 53.79 258.13 53.0404 257.769 52.3866C259.809 53.559 261.545 54.2015 262.797 54.2015C265.795 54.2015 268.23 51.8849 268.23 49.0384C268.23 47.1952 267.097 45.5549 265.204 44.653C259.798 42.0715 255.012 38.8981 250.971 35.2117C254.866 31.0801 260.452 24.4232 261.427 23.2395C262.678 21.6049 263.36 19.7843 263.36 18.0989C263.36 14.9931 261.128 11.6732 254.86 11.6732C254.116 11.6732 252.871 11.6563 251.422 11.6394C249.398 11.6168 246.873 11.583 244.759 11.583C241.654 11.583 237.793 11.583 237.793 15.7541C237.793 17.7382 239.258 19.7448 242.054 19.7448H242.144L250.266 19.6546C250.96 19.6546 251.681 19.8463 251.681 20.1732C251.574 20.9454 248.232 25.1842 245.041 28.8649C241.547 24.6093 238.486 19.5137 235.442 12.902C234.76 11.3463 233.357 10.4106 231.683 10.4106C229.648 10.4106 227.478 11.9212 227.184 14.2322C226.119 13.5333 224.496 12.9358 222.033 12.9358C220.37 12.9358 217.241 13.009 214.215 13.0936C214.626 12.3157 214.84 11.5379 214.84 10.7939C214.846 8.0263 212.411 6.17188 210.134 6.17188ZM207.885 50.363C210.658 48.1252 213.189 45.7466 215.426 43.2777L219.496 38.4866L219.507 38.4753L219.519 38.464C222.698 34.2704 228.425 25.7535 229.541 20.7932C236.175 33.3855 246.817 44.7264 254.714 50.3912C254.562 50.3743 254.404 50.3686 254.246 50.3686H207.885V50.363ZM212.208 60.9148C210.996 60.9148 209.846 61.5009 208.978 62.5663C205.264 67.1657 200.388 70.6323 194.887 72.5825C192.841 73.3266 191.623 74.871 191.623 76.7198C191.623 79.1267 193.663 81.7026 196.696 81.7026C201.183 81.7026 212.231 73.0335 215.973 68.6087C216.723 67.6448 217.101 66.7092 217.101 65.8073C217.101 63.2934 214.728 60.9148 212.208 60.9148Z" stroke="black" stroke-width="10"/>
<path d="M254.511 78.9748C251.174 74.9165 245.402 71.5796 240.351 69.0544C238.818 68.3329 238.187 67.0703 238.187 65.8077C238.187 63.8236 239.81 61.9297 242.065 61.9297C244.5 61.9297 255.773 67.6114 260.643 72.5716C261.726 73.6539 262.176 74.9165 262.176 76.0889C262.176 78.5239 260.102 80.6884 257.757 80.6884C256.675 80.6884 255.503 80.1473 254.511 78.9748Z" stroke="black" stroke-width="10"/>
<path d="M242.065 61.9299C244.5 61.9299 255.773 67.6116 260.643 72.5718C261.726 73.6541 262.177 74.9167 262.177 76.0891C262.177 78.5241 260.102 80.6886 257.758 80.6886C256.675 80.6886 255.503 80.1474 254.511 78.975C251.174 74.9166 245.402 71.5798 240.352 69.0546C238.818 68.3331 238.187 67.0705 238.187 65.8079C238.187 63.8238 239.811 61.9299 242.065 61.9299ZM242.065 61.3662C239.613 61.3662 237.624 63.3616 237.624 65.8079C237.624 67.4481 238.531 68.8178 240.109 69.5619C244.427 71.7207 250.588 75.0914 254.071 79.3301C255.12 80.5702 256.427 81.2466 257.752 81.2466C260.407 81.2466 262.735 78.8341 262.735 76.0834C262.735 74.6517 262.132 73.2651 261.038 72.166C256.264 67.3129 244.827 61.3662 242.065 61.3662Z" stroke="black" stroke-width="10"/>
<path d="M243.959 41.5482C243.959 43.3519 242.876 45.0655 240.532 45.0655H217.872C215.528 45.0655 214.445 43.3519 214.445 41.5482C214.445 39.8347 215.528 38.1211 217.872 38.1211H240.532C242.876 38.1211 243.959 39.8347 243.959 41.5482Z" stroke="black" stroke-width="10"/>
<path d="M240.532 38.1213C242.877 38.1213 243.959 39.8349 243.959 41.5484C243.959 43.3521 242.877 45.0656 240.532 45.0656H217.873C215.528 45.0656 214.445 43.3521 214.445 41.5484C214.445 39.8349 215.528 38.1213 217.873 38.1213H240.532ZM240.532 37.5576H217.873C215.133 37.5576 213.882 39.6263 213.882 41.5484C213.882 44.3667 215.888 45.6293 217.873 45.6293H240.532C242.516 45.6293 244.523 44.3667 244.523 41.5484C244.523 39.6263 243.271 37.5576 240.532 37.5576Z" stroke="black" stroke-width="10"/>
<path d="M314.124 32.53C314.124 27.7501 314.124 23.6918 314.034 21.1665C313.853 14.4928 322.782 15.1241 322.692 20.8058C322.602 23.6016 322.511 27.7501 322.421 32.4398L322.331 40.6467C322.241 47.9518 322.331 55.7078 322.602 61.9306C322.692 64.8165 322.692 66.2595 322.692 68.7847C322.692 75.9094 318.363 81.3206 305.466 79.0659C297.44 77.623 300.957 68.3338 306.458 70.1375C310.156 71.31 314.124 71.8511 314.214 66.8908C314.304 60.4876 314.304 50.2064 314.214 40.7369L314.124 32.53ZM343.525 67.7025C340.729 63.2834 334.326 57.782 330.358 55.4372C325.938 52.8218 330.267 45.9677 335.408 49.034C339.286 51.2886 347.312 56.6096 350.92 62.2913C352.453 64.7264 351.281 67.5221 349.477 68.7847C347.673 70.0473 345.148 70.2277 343.525 67.7025ZM341.631 28.3814C336.49 28.3814 332.342 24.2328 332.342 19.0922C332.342 13.9516 336.49 9.71289 341.631 9.71289C346.771 9.71289 351.01 13.9516 351.01 19.0922C351.01 24.2328 346.771 28.3814 341.631 28.3814ZM341.631 14.5829C339.196 14.5829 337.121 16.6572 337.121 19.0922C337.121 21.5273 339.196 23.6015 341.631 23.6015C344.066 23.6015 346.14 21.5273 346.14 19.0922C346.14 16.6572 344.066 14.5829 341.631 14.5829Z" stroke="black" stroke-width="10"/>
<path d="M341.631 9.71308C346.771 9.71308 351.01 13.9518 351.01 19.0924C351.01 24.233 346.771 28.3816 341.631 28.3816C336.49 28.3816 332.341 24.233 332.341 19.0924C332.341 13.9518 336.49 9.71308 341.631 9.71308ZM341.631 23.6017C344.066 23.6017 346.14 21.5274 346.14 19.0924C346.14 16.6574 344.066 14.5831 341.631 14.5831C339.196 14.5831 337.121 16.6574 337.121 19.0924C337.121 21.5274 339.196 23.6017 341.631 23.6017ZM318.255 16.353C320.476 16.353 322.737 17.9369 322.691 20.806C322.601 23.6017 322.511 27.7503 322.421 32.44L322.331 40.6469C322.241 47.9519 322.331 55.7079 322.601 61.9308C322.691 64.8167 322.691 66.2597 322.691 68.7849C322.691 74.7936 319.608 79.5847 310.911 79.5847C309.293 79.5847 307.489 79.4212 305.466 79.0661C298.144 77.7472 300.427 69.9066 305.06 69.9066C305.505 69.9066 305.973 69.9799 306.458 70.1377C307.856 70.583 309.293 70.9325 310.539 70.9325C312.596 70.9325 314.158 69.9743 314.208 66.891C314.299 60.4878 314.299 50.2066 314.208 40.7371L314.118 32.5302C314.118 27.7503 314.118 23.6919 314.028 21.1667C313.943 17.8637 316.085 16.353 318.255 16.353ZM332.804 48.2563C333.621 48.2563 334.5 48.4874 335.413 49.0285C339.291 51.2832 347.318 56.6042 350.925 62.2859C352.458 64.7209 351.286 67.5167 349.482 68.7793C348.693 69.3317 347.758 69.6811 346.827 69.6811C345.638 69.6811 344.443 69.1175 343.53 67.697C340.734 63.2779 334.331 57.7766 330.363 55.4318C326.722 53.2842 329.01 48.2563 332.804 48.2563ZM341.631 9.14941C336.197 9.14941 331.778 13.608 331.778 19.0924C331.778 24.5261 336.197 28.9452 341.631 28.9452C347.115 28.9452 351.574 24.5261 351.574 19.0924C351.574 13.608 347.115 9.14941 341.631 9.14941ZM341.631 23.0381C339.494 23.0381 337.685 21.2287 337.685 19.0924C337.685 16.9561 339.494 15.1468 341.631 15.1468C343.767 15.1468 345.576 16.9561 345.576 19.0924C345.576 21.2287 343.772 23.0381 341.631 23.0381ZM318.255 15.7894C316.925 15.7894 315.719 16.2797 314.845 17.176C313.898 18.1511 313.419 19.5321 313.464 21.1837C313.554 23.7032 313.555 27.7954 313.555 32.5302L313.645 40.7427C313.735 50.2179 313.735 60.4765 313.645 66.8854C313.6 69.2979 312.641 70.3744 310.539 70.3744C309.524 70.3744 308.279 70.1321 306.627 69.6022C306.109 69.4331 305.579 69.3429 305.06 69.3429C302.287 69.3429 300.416 71.7328 300.213 74.0382C300.015 76.2534 301.267 78.8857 305.37 79.6241C307.371 79.9736 309.237 80.1484 310.917 80.1484C318.875 80.1484 323.261 76.1125 323.261 68.7849C323.261 66.2203 323.261 64.8055 323.171 61.9139C322.906 55.8433 322.81 48.0985 322.9 40.6525L322.99 32.4456C323.097 26.9668 323.182 23.2748 323.261 20.8229C323.283 19.4194 322.815 18.1962 321.908 17.2775C320.972 16.3305 319.642 15.7894 318.255 15.7894ZM332.804 47.6927C330.374 47.6927 328.61 49.502 328.12 51.2888C327.612 53.132 328.362 54.9076 330.07 55.9222C334.185 58.3516 340.379 63.7852 343.051 68.0014C344.246 69.8559 345.762 70.2448 346.827 70.2448C347.825 70.2448 348.885 69.8897 349.804 69.2415C351.906 67.7704 353.078 64.6532 351.399 61.9871C349.781 59.4394 347.166 56.7338 343.615 53.9324C340.221 51.255 336.941 49.2709 335.69 48.5438C334.748 47.9801 333.773 47.6927 332.804 47.6927Z" stroke="black" stroke-width="10"/>
<path d="M284.542 70.0472C283.279 68.2435 283.189 65.2674 285.714 63.644C290.043 60.8483 295.454 54.8058 297.709 50.8376C300.234 46.4185 307.72 49.8456 304.653 55.0764C302.399 58.9544 296.537 67.4319 290.945 71.1295C288.51 72.7528 285.805 71.851 284.542 70.0472Z" stroke="black" stroke-width="10"/>
<path d="M301.164 48.8088C303.955 48.8088 306.733 51.5256 304.654 55.0767C302.399 58.9547 296.537 67.4322 290.945 71.1298C290.06 71.7216 289.136 71.9753 288.262 71.9753C286.735 71.9753 285.348 71.1918 284.542 70.0475C283.279 68.2438 283.189 65.2677 285.714 63.6443C290.043 60.8486 295.455 54.8061 297.709 50.838C298.521 49.4175 299.845 48.8088 301.164 48.8088ZM301.164 48.2451C299.496 48.2451 298.059 49.0906 297.219 50.5618C295.06 54.3665 289.795 60.3413 285.41 63.1765C284.226 63.9375 283.465 65.031 283.212 66.333C282.941 67.7027 283.268 69.2133 284.085 70.3744C285.021 71.7103 286.622 72.5446 288.268 72.5446C289.305 72.5446 290.342 72.2176 291.267 71.6033C296.976 67.8267 302.844 59.3323 305.15 55.3641C306.125 53.7069 306.215 52.016 305.409 50.6125C304.58 49.1695 302.917 48.2451 301.164 48.2451Z" stroke="black" stroke-width="10"/>
<path d="M322.421 32.4407C329.365 32.3505 336.219 32.4407 342.893 32.5309C349.747 32.6211 349.206 41.3691 342.532 41.0083C335.858 40.6476 329.094 40.6476 322.33 40.6476L314.214 40.7378C306.999 40.9181 299.694 41.1887 292.479 41.4593C286.436 41.7298 285.625 33.4327 292.298 33.1622C299.423 32.8916 306.818 32.6211 314.123 32.5309L322.421 32.4407Z" stroke="black" stroke-width="10"/>
<path d="M328.502 32.4006C333.367 32.4006 338.175 32.4626 342.893 32.5303C349.606 32.6205 349.223 41.019 342.926 41.019C342.797 41.019 342.667 41.0133 342.532 41.0077C335.858 40.647 329.094 40.647 322.33 40.647L314.213 40.7372C306.999 40.9175 299.693 41.1881 292.479 41.4587C292.383 41.4643 292.287 41.4643 292.191 41.4643C286.408 41.4643 285.732 33.4265 292.298 33.1616C299.423 32.891 306.818 32.6205 314.123 32.5303L322.42 32.4401C324.455 32.4119 326.484 32.4006 328.502 32.4006ZM328.502 32.4006V31.8369M328.502 31.8369C326.343 31.8369 324.354 31.8482 322.415 31.8764L314.118 31.9666C307.004 32.0568 300.015 32.3048 292.276 32.5979C289.711 32.6994 286.983 34.2381 287.051 37.3665C287.096 39.6831 288.877 42.0336 292.191 42.0336C292.293 42.0336 292.4 42.0336 292.501 42.028C300.268 41.7349 307.263 41.4812 314.225 41.3065L322.336 41.2163C328.976 41.2163 335.841 41.2163 342.504 41.577C342.65 41.5827 342.791 41.5883 342.932 41.5883C346.472 41.5883 348.343 39.1589 348.36 36.7577C348.377 34.4862 346.675 32.0173 342.904 31.9722C338.468 31.9045 333.44 31.8369 328.502 31.8369Z" stroke="black" stroke-width="10"/>
<path d="M512.904 51.8287C516.422 46.6881 519.759 41.0966 523.095 35.0541C526.613 28.6509 524.989 22.1575 515.7 22.4281C511.371 22.6084 506.411 23.0594 501.992 23.4201C502.623 22.5182 503.164 21.7065 503.615 20.985C506.772 15.7543 497.483 10.1627 494.326 17.8285C491.079 25.5845 478.994 40.826 470.246 46.2371C464.114 50.025 469.435 57.8712 475.477 53.7226C481.52 49.4839 489.817 40.0143 496.13 31.7172C499.196 31.3565 508.485 30.4546 512.093 30.3644C514.438 30.2742 514.798 30.7252 513.085 34.4228C511.101 38.5714 508.575 42.9905 505.509 47.3194L500.008 54.1735C492.342 62.8313 482.331 70.5874 469.886 74.7359C463.032 76.9906 466.549 85.4681 473.764 82.6723C489.276 76.72 499.376 68.8738 507.403 59.2239L512.904 51.8287Z" stroke="black" stroke-width="10"/>
<path d="M499.146 14.0637C502.488 14.0637 505.656 17.5978 503.616 20.9797C503.165 21.7012 502.624 22.5129 501.992 23.4148C506.411 23.0541 511.372 22.6031 515.7 22.4228C515.886 22.4171 516.073 22.4171 516.253 22.4171C525.052 22.4171 526.54 28.7752 523.096 35.0488C519.759 41.0913 516.422 46.6828 512.905 51.8234L507.403 59.2186C499.377 68.8686 489.276 76.7147 473.764 82.667C472.761 83.0559 471.831 83.225 470.991 83.225C465.777 83.225 463.99 76.6696 469.892 74.7307C482.337 70.5821 492.348 62.826 500.014 54.1682L505.515 47.3141C508.581 42.9852 511.107 38.5661 513.091 34.4175C514.68 30.9792 514.483 30.3479 512.567 30.3479C512.42 30.3479 512.262 30.3535 512.099 30.3591C508.491 30.4493 499.202 31.3512 496.136 31.7119C489.823 40.009 481.526 49.4786 475.483 53.7173C474.277 54.5459 473.099 54.8953 472.039 54.8953C467.778 54.8953 465.349 49.2643 470.252 46.2318C479 40.8207 491.085 25.5792 494.332 17.8232C495.437 15.1177 497.319 14.0637 499.146 14.0637ZM499.146 13.5C496.829 13.5 494.879 14.9993 493.802 17.6091C490.499 25.4947 478.341 40.5614 469.948 45.7527C468.088 46.9026 466.374 49.1009 467.141 51.8121C467.75 53.9597 469.762 55.459 472.028 55.459C473.291 55.459 474.559 55.0306 475.793 54.1795C477.772 52.7929 485.082 47.1225 496.429 32.2418C499.766 31.8585 508.666 31.0073 512.104 30.9228C512.268 30.9171 512.42 30.9115 512.561 30.9115C513.378 30.9115 513.525 31.0468 513.553 31.0862C513.728 31.3568 513.395 32.3996 512.572 34.1807C510.442 38.6393 507.911 42.9457 505.059 46.9759L499.568 53.8187C490.882 63.6264 480.827 70.4919 469.706 74.2008C466.273 75.3281 465.399 77.8589 465.687 79.6852C466.138 82.5091 468.747 83.8 470.985 83.8C471.938 83.8 472.941 83.597 473.967 83.2024C488.222 77.7293 498.988 70.2269 507.837 59.5906L507.849 59.5794L507.86 59.5681L513.361 52.1729C516.619 47.4099 519.962 41.9086 523.592 35.3363C525.632 31.6217 525.942 28.0312 524.437 25.489C523.462 23.8375 521.247 21.8647 516.259 21.8647C516.073 21.8647 515.881 21.8647 515.689 21.8704C512.087 22.0226 508.114 22.3494 504.269 22.6707C503.886 22.7045 503.508 22.7328 503.131 22.7666C503.492 22.2367 503.813 21.7407 504.095 21.2898C505.025 19.7453 505.059 17.9868 504.196 16.4592C503.198 14.6893 501.169 13.5 499.146 13.5Z" stroke="black" stroke-width="10"/>
<path d="M507.403 59.224C509.624 60.8586 511.462 62.651 512.814 64.094C514.889 66.3487 517.594 65.8977 519.218 64.3645C520.841 62.8314 521.472 59.9454 519.398 57.5104C517.775 55.5263 515.492 53.5366 512.905 51.8287C511.095 50.6337 507.392 48.3847 505.509 47.3194C501.609 45.1155 497.483 43.5316 494.146 42.6297C487.833 40.826 485.488 48.4918 490.538 49.8446C493.424 50.6563 496.812 52.1105 500.008 54.1735C501.885 55.3854 505.6 57.8937 507.403 59.224Z" stroke="black" stroke-width="10"/>
<path d="M492.303 42.3537C492.872 42.3537 493.486 42.4382 494.146 42.6242C497.483 43.5261 501.609 45.11 505.509 47.314C507.392 48.3793 511.101 50.6283 512.904 51.8233C515.492 53.5368 517.774 55.5209 519.398 57.5049C521.472 59.94 520.841 62.8259 519.217 64.3591C518.389 65.1426 517.273 65.6443 516.106 65.6443C514.99 65.6443 513.829 65.1877 512.814 64.0886C511.461 62.6456 509.624 60.8531 507.403 59.2185C505.599 57.8939 501.89 55.3856 500.008 54.168C496.812 52.105 493.424 50.6508 490.538 49.8392C486.012 48.6329 487.421 42.3537 492.303 42.3537ZM492.303 41.79C489.355 41.79 487.54 43.8756 487.269 45.9386C486.993 48.058 488.216 49.8053 490.392 50.3859C493.498 51.2596 496.806 52.7702 499.703 54.6416C501.485 55.7914 505.239 58.3279 507.071 59.675C508.88 61.0053 510.622 62.5779 512.403 64.4775C513.446 65.6104 514.725 66.2135 516.106 66.2135C517.363 66.2135 518.637 65.6893 519.606 64.7706C520.548 63.88 521.151 62.623 521.258 61.321C521.342 60.2838 521.168 58.7112 519.826 57.1442C518.175 55.1263 515.886 53.1253 513.214 51.3554C511.304 50.0928 507.589 47.8438 505.785 46.8236C500.96 44.0954 496.513 42.6806 494.292 42.0775C493.61 41.8915 492.94 41.79 492.303 41.79Z" stroke="black" stroke-width="10"/>
<path d="M380.506 78.3433C373.922 80.7783 370.856 71.9401 377.62 69.5952C394.034 63.9135 408.283 49.4838 415.408 36.0461C416.22 34.5129 415.859 33.07 413.875 33.07C408.193 32.9798 395.747 33.4307 387.811 33.611C382.4 33.7914 382.039 25.1336 387.811 24.863C394.395 24.5924 407.652 24.4121 416.761 24.4121C424.877 24.4121 429.477 29.5527 425.96 35.6854C422.893 41.0063 419.647 46.1469 415.949 51.0169C423.434 55.5262 434.888 63.1019 439.037 68.8738C442.644 73.9242 435.88 80.9587 431.641 75.6378C427.222 70.1364 417.933 61.9295 410.538 57.5103C402.602 66.3486 392.861 73.6536 380.506 78.3433Z" fill="#FFF100"/>
<path d="M561.064 50.2058C557.817 50.2058 556.284 48.0413 556.284 45.8768C556.284 43.6222 557.997 41.2773 561.064 41.2773H617.7C620.767 41.2773 622.3 43.532 622.3 45.7866C622.3 47.9511 620.767 50.2058 617.7 50.2058H561.064Z" fill="#00A0E9"/>
<path d="M59.4267 62.2004C59.6071 63.463 59.6973 64.8158 59.6973 66.1686C59.6973 74.2853 55.9095 86.5507 40.2171 86.5507C33.1826 86.5507 29.3948 84.6568 29.3948 81.1395C29.3948 78.8849 31.1083 76.9008 33.6336 76.9008C34.0845 76.9008 34.5354 76.9007 35.0765 77.0811C37.0606 77.7124 39.1349 78.0732 41.0288 78.0732C51.1296 78.0732 51.1296 65.9882 51.1296 65.2668C51.1296 64.1845 51.0394 63.1924 50.8591 62.2004H59.4267ZM45.8988 54.4445C44.8166 53.723 43.6442 53.0014 42.2914 52.5505C40.3975 51.9192 39.5858 50.7468 39.5858 49.5744C39.5858 47.6805 41.6601 45.7866 44.3657 45.7866C46.3498 45.7866 48.2437 46.7786 49.6867 47.5903C52.0315 46.0572 56.8113 42.7202 56.8113 41.638C56.8113 41.2773 56.4506 41.0969 55.8193 41.0969C54.8273 41.0067 53.1137 41.0067 51.0394 41.0067C45.2675 41.0067 36.5195 41.1871 30.2065 41.4577C30.1163 41.4577 30.1163 41.4577 30.0261 41.4577C27.3205 41.4577 25.9677 39.5638 25.9677 37.6699C25.9677 35.8661 27.3205 33.9722 30.1163 33.882C33.9943 33.7016 38.8643 33.7017 43.6442 33.7017C50.2278 33.7017 56.8113 33.7918 60.9599 33.882C66.1005 33.9722 68.265 36.5876 68.265 39.3834C68.265 43.8025 63.4851 47.5001 55.3684 52.5505C55.8193 53.1818 56.2702 53.8132 56.631 54.4445H45.8988ZM34.0845 21.4364C42.0208 21.3462 49.867 21.3462 57.8034 21.3462C60.4188 18.37 62.7636 13.1392 64.2066 9.44161C65.0183 7.36734 66.6416 6.55566 68.265 6.55566C70.7902 6.55566 73.4056 8.44955 73.4056 10.9748C73.4056 12.6883 70.5196 17.1074 66.822 21.4364C68.8963 21.4364 71.0607 21.5266 73.135 21.5266C78.456 21.6168 83.4162 24.5027 83.5966 30.0942C83.6868 31.3568 83.6868 33.2507 83.6868 34.9643C83.6868 36.2269 83.6868 37.3993 83.5966 38.3012C83.4162 40.9166 81.0714 42.2693 78.8167 42.2693C76.4719 42.2693 74.3074 41.0067 74.3074 38.4815C74.3074 38.3913 74.3074 38.3914 74.3074 38.3012V33.3409C74.3074 29.5531 72.3233 28.9218 68.6257 28.8316C61.4108 28.7414 53.2941 28.6513 45.4479 28.6513C39.0447 28.6513 32.7317 28.7414 27.1402 28.8316C22.1799 28.9218 21.3683 30.1844 21.0977 33.3409C21.0977 33.3409 21.0977 33.3409 21.0977 38.5717V38.6619C21.0977 41.1871 18.843 42.6301 16.4982 42.6301C14.4239 42.6301 12.2595 41.3675 12.1693 38.5717C12.1693 37.3993 12.0791 36.0465 12.0791 34.6035C12.0791 33.0703 12.1693 31.5372 12.1693 30.1844C12.3497 25.9457 15.6865 21.6168 22.721 21.5266L30.2967 21.4364H34.0845Z" fill="#FFF100"/>
<path d="M56.631 54.4444L83.5064 54.1738C86.1218 54.1738 87.4746 56.2481 87.4746 58.3224C87.4746 60.3065 86.212 62.2906 83.5966 62.2906L59.4268 62.2004H50.8591L12.6202 62.3808C9.82447 62.3808 8.47168 60.3967 8.47168 58.4126C8.47168 56.3383 9.91466 54.264 12.5301 54.264L45.8989 54.4444H56.631Z" fill="#00A0E9"/>
<path d="M48.7849 20.9853C47.5223 20.9853 46.3499 20.354 45.7186 18.8208C44.456 15.4839 42.4719 13.4998 40.3976 11.0648C39.8565 10.4335 39.5859 9.71203 39.5859 9.08072C39.5859 7.18682 41.8406 5.56348 44.1854 5.56348C48.7849 5.56348 53.7451 14.4017 53.7451 16.476C53.7451 18.911 51.1297 20.9853 48.7849 20.9853Z" fill="#00A0E9"/>
<path d="M31.6101 21.9775C30.3475 21.9775 29.1751 21.3462 28.5438 19.813C27.2812 16.4761 25.2971 14.492 23.2228 12.057C22.6817 11.4257 22.4111 10.7042 22.4111 10.0729C22.4111 8.17901 24.6658 6.55566 27.0106 6.55566C31.6101 6.55566 36.5703 15.3939 36.5703 17.4682C36.5703 19.9032 33.9549 21.9775 31.6101 21.9775Z" fill="#00A0E9"/>
<path d="M164.049 83.3938C156.112 83.5742 147.545 83.6643 138.977 83.6643C130.409 83.6643 121.842 83.5742 113.725 83.3938C105.879 83.2134 102.091 79.2452 101.82 72.5714C101.55 65.8075 101.459 57.4202 101.459 48.8525C101.459 38.391 101.64 27.5686 101.82 18.7304C101.91 12.9585 106.239 9.17071 113.003 8.99034C120.849 8.80997 129.417 8.71973 138.165 8.71973C146.913 8.71973 155.751 8.80997 164.229 8.99034C169.73 9.08053 175.051 12.9585 175.141 19.4519C175.322 28.6509 175.502 39.1124 175.502 49.1231C175.502 57.4202 175.412 65.4467 175.141 72.3009C174.961 78.6139 170.542 83.2134 164.049 83.3938ZM166.935 45.7862C166.935 37.6694 166.844 29.6429 166.574 22.6084C166.393 17.4678 164.59 16.5659 160.171 16.4757C153.407 16.3855 145.651 16.2954 138.075 16.2954C130.409 16.2954 123.014 16.3855 116.701 16.4757C111.56 16.5659 110.117 18.0089 110.027 22.6084C109.847 29.9134 109.757 38.3008 109.757 46.5077C109.757 54.7146 109.847 62.7412 110.027 69.5051C110.208 74.6457 112.011 75.5476 117.603 75.6378C123.826 75.728 130.68 75.8181 137.895 75.8181C145.019 75.8181 152.505 75.728 159.81 75.6378C164.86 75.5476 166.393 73.2028 166.574 69.2346C166.844 62.0197 166.935 53.9029 166.935 45.7862Z" fill="#00A0E9"/>
<path d="M161.253 66.9801C158.728 66.3488 155.842 65.447 152.956 64.0942C157.826 62.0199 160.441 60.4867 160.441 58.5026C160.441 56.8793 158.637 55.4363 156.743 55.4363C156.022 55.4363 155.3 55.7068 154.579 56.1578C151.693 58.1419 149.529 59.4946 146.823 60.5769C145.109 59.4044 143.576 57.9615 142.133 56.4283C155.301 56.4283 157.194 55.8872 157.194 49.1233C157.194 41.0065 156.473 40.8262 137.895 40.8262C119.497 40.8262 118.234 41.0065 118.234 49.1233C118.234 54.4442 119.316 56.4283 130.409 56.4283C124.727 60.667 119.587 62.9217 113.995 64.8156C112.643 65.2665 112.011 66.3488 112.011 67.431C112.011 69.2347 113.544 71.2188 115.709 71.2188C116.881 71.2188 123.104 69.0544 132.213 62.0199L132.123 71.6698C132.123 71.6698 132.123 71.6698 132.123 71.76C132.123 73.4735 133.926 74.2852 135.73 74.2852C137.534 74.2852 139.338 73.3833 139.338 71.6698L139.247 61.6591C145.2 68.4231 156.293 73.4735 159.72 73.4735C161.974 73.4735 163.327 71.4894 163.327 69.7759C163.327 68.5133 162.696 67.3409 161.253 66.9801ZM138.616 51.4681C127.162 51.4681 125.9 51.2877 125.9 50.0251C125.9 47.2293 125.9 47.2294 125.9 47.2294C125.99 46.2373 126.892 45.9668 136.091 45.9668C140.059 45.9668 144.208 45.9668 147.003 46.057C149.168 46.057 149.619 46.1471 149.619 48.6723C149.619 49.2134 149.619 49.7546 149.529 50.0251C149.348 51.2877 148.987 51.4681 138.616 51.4681Z" fill="#FFF100"/>
<path d="M115.168 38.0306C113.274 38.0306 112.282 36.5877 112.282 35.0545C112.282 33.6115 113.274 32.0784 115.168 32.0784H134.017V28.5611H119.677C117.783 28.5611 116.791 27.1181 116.791 25.585C116.791 24.142 117.783 22.6088 119.677 22.6088H133.926V20.6248C133.926 18.0996 136.001 16.8369 138.075 16.8369C140.149 16.8369 142.314 18.0996 142.314 20.6248V22.6088H156.653C158.547 22.6088 159.539 24.0518 159.539 25.585C159.539 27.0279 158.547 28.5611 156.653 28.5611H142.223V32.0784H161.163C163.056 32.0784 164.048 33.5214 164.048 35.0545C164.048 36.4975 163.056 38.0306 161.163 38.0306H115.168Z" fill="#FFF100"/>
<path d="M215.003 42.9009C212.388 45.7868 209.412 48.4924 206.255 50.9274H254.234C256.579 50.9274 257.752 52.7311 257.752 54.5349C257.752 56.4288 256.579 58.2325 254.234 58.2325L233.131 58.3227V65.718L233.221 73.3838C233.221 73.474 233.221 73.4739 233.221 73.5641C233.221 78.9753 228.892 84.9276 219.332 84.9276C213.019 84.9276 210.494 83.1238 210.494 79.9673C210.494 77.9832 211.847 76.0893 214.102 76.0893C214.462 76.0893 214.823 76.0893 215.184 76.1795C216.356 76.4501 217.709 76.6305 218.881 76.6305C222.038 76.6305 224.834 75.458 224.834 71.6702V58.3227L205.985 58.2325C203.55 58.2325 202.287 56.3386 202.287 54.5349C202.287 54.1741 202.287 53.8134 202.377 53.5428C198.77 55.7975 194.171 57.962 192.367 57.962C190.022 57.962 188.218 55.9779 188.218 53.9938C188.218 52.5508 189.12 51.1078 191.375 50.3863C196.425 48.6728 201.115 45.6967 205.173 42.0892C203.64 41.1874 202.197 40.6463 200.664 40.1953C199.041 39.6542 198.409 38.4818 198.409 37.2192C198.409 35.2351 200.033 33.1608 202.287 33.1608C204.181 33.1608 207.518 35.0547 210.224 36.9486C211.396 35.5958 212.478 34.243 213.47 32.8902C211.757 31.808 210.224 31.2669 208.6 30.7258C206.977 30.1846 206.346 29.0122 206.346 27.7496C206.346 25.8557 207.969 23.7815 210.133 23.7815C211.486 23.7815 214.462 24.9539 217.439 26.938C218.611 24.7735 220.234 21.617 220.234 20.8955C220.234 20.0839 219.242 19.8133 218.611 19.8133C216.627 19.8133 212.659 19.9034 209.412 19.9936C207.608 22.609 197.868 36.1369 192.637 36.1369C190.383 36.1369 188.579 34.5136 188.579 32.5295C188.579 31.2669 189.3 29.9141 191.014 28.6515C197.688 23.7815 202.919 17.1077 206.616 9.26152C207.428 7.4578 208.781 6.73633 210.133 6.73633C212.208 6.73633 214.282 8.44983 214.282 10.7947C214.282 11.426 214.102 12.1474 213.651 12.9591L213.29 13.6806C216.627 13.5904 220.234 13.5003 222.038 13.5003C224.834 13.5003 226.728 14.3119 227.81 15.4843C227.81 15.2138 227.72 15.0334 227.72 14.7629C227.72 12.5082 229.794 10.975 231.688 10.975C233.041 10.975 234.303 11.6965 234.935 13.1395C237.55 18.8212 240.706 24.5931 245.035 29.7337C246.298 28.2907 252.25 21.3464 252.25 20.174C252.25 19.3623 251.168 19.0918 250.266 19.0918L242.149 19.182H242.059C239.624 19.182 238.362 17.4685 238.362 15.7549C238.362 12.1475 241.699 12.1475 244.765 12.1475C248.372 12.1475 253.062 12.2377 254.866 12.2377C260.367 12.2377 262.802 14.9432 262.802 18.0997C262.802 19.6329 262.171 21.3465 260.998 22.8796C259.736 24.4128 253.964 31.2669 250.176 35.2351C254.234 39.0229 259.104 42.3597 264.967 45.1555C266.86 46.0574 267.672 47.5905 267.672 49.0335C267.672 51.3783 265.688 53.633 262.802 53.633C256.669 53.633 238.271 37.3093 229.163 18.8212C229.163 19.0016 229.163 19.0918 229.163 19.2722C229.163 23.2404 223.301 32.5295 219.062 38.121L215.003 42.9009ZM196.696 81.1398C194.08 81.1398 192.186 78.8851 192.186 76.7206C192.186 75.2776 193.088 73.8347 195.072 73.1132C200.664 71.1291 205.624 67.6118 209.412 62.9222C210.224 61.9301 211.216 61.4792 212.208 61.4792C214.372 61.4792 216.537 63.5535 216.537 65.8081C216.537 66.6198 216.176 67.4315 215.545 68.2432C211.576 72.9328 200.754 81.1398 196.696 81.1398Z" fill="#FFF100"/>
<path d="M254.51 78.9748C251.173 74.9165 245.401 71.5796 240.351 69.0544C238.818 68.3329 238.187 67.0703 238.187 65.8077C238.187 63.8236 239.81 61.9297 242.065 61.9297C244.5 61.9297 255.773 67.6114 260.643 72.5716C261.725 73.6539 262.176 74.9165 262.176 76.0889C262.176 78.5239 260.102 80.6884 257.757 80.6884C256.675 80.6884 255.502 80.1473 254.51 78.9748Z" fill="#00A0E9"/>
<path d="M243.959 41.5472C243.959 43.3509 242.876 45.0645 240.532 45.0645H217.872C215.528 45.0645 214.445 43.3509 214.445 41.5472C214.445 39.8337 215.528 38.1201 217.872 38.1201H240.532C242.876 38.1201 243.959 39.8337 243.959 41.5472Z" fill="#00A0E9"/>
<path d="M314.123 32.529C314.123 27.7492 314.123 23.6908 314.033 21.1656C313.853 14.4918 322.781 15.1231 322.691 20.8048C322.601 23.6006 322.51 27.7491 322.42 32.4388L322.33 40.6457C322.24 47.9508 322.33 55.7068 322.601 61.9296C322.691 64.8156 322.691 66.2586 322.691 68.7838C322.691 75.9085 318.362 81.3196 305.465 79.065C297.439 77.622 300.956 68.3328 306.457 70.1366C310.155 71.309 314.123 71.8501 314.213 66.8899C314.303 60.4867 314.303 50.2054 314.213 40.7359L314.123 32.529ZM343.524 67.7015C340.728 63.2824 334.325 57.781 330.357 55.4362C325.937 52.8208 330.266 45.9667 335.407 49.033C339.285 51.2877 347.312 56.6086 350.919 62.2904C352.452 64.7254 351.28 67.5212 349.476 68.7838C347.672 70.0464 345.147 70.2267 343.524 67.7015ZM341.63 28.3804C336.489 28.3804 332.341 24.2319 332.341 19.0913C332.341 13.9507 336.489 9.71191 341.63 9.71191C346.77 9.71191 351.009 13.9507 351.009 19.0913C351.009 24.2319 346.77 28.3804 341.63 28.3804ZM341.63 14.582C339.195 14.582 337.121 16.6562 337.121 19.0913C337.121 21.5263 339.195 23.6006 341.63 23.6006C344.065 23.6006 346.139 21.5263 346.139 19.0913C346.139 16.6562 344.065 14.582 341.63 14.582Z" fill="#FFF100"/>
<path d="M284.542 70.0463C283.279 68.2425 283.189 65.2664 285.714 63.6431C290.043 60.8473 295.454 54.8049 297.709 50.8367C300.234 46.4176 307.72 49.8446 304.653 55.0754C302.399 58.9534 296.537 67.4309 290.945 71.1285C288.51 72.7519 285.805 71.85 284.542 70.0463Z" fill="#00A0E9"/>
<path d="M322.42 32.4387C329.364 32.3485 336.219 32.4387 342.892 32.5289C349.746 32.6191 349.205 41.3671 342.532 41.0064C335.858 40.6456 329.094 40.6456 322.33 40.6456L314.213 40.7358C306.998 40.9162 299.693 41.1868 292.478 41.4573C286.436 41.7279 285.624 33.4308 292.298 33.1602C299.423 32.8897 306.818 32.6191 314.123 32.5289L322.42 32.4387Z" fill="#00A0E9"/>
<path d="M512.904 51.8287C516.422 46.6881 519.759 41.0966 523.095 35.0541C526.613 28.6509 524.989 22.1575 515.7 22.4281C511.371 22.6084 506.411 23.0594 501.992 23.4201C502.623 22.5182 503.164 21.7065 503.615 20.985C506.772 15.7543 497.483 10.1627 494.326 17.8285C491.079 25.5845 478.994 40.826 470.246 46.2371C464.114 50.025 469.435 57.8712 475.477 53.7226C481.52 49.4839 489.817 40.0143 496.13 31.7172C499.196 31.3565 508.485 30.4546 512.093 30.3644C514.438 30.2742 514.798 30.7252 513.085 34.4228C511.101 38.5714 508.575 42.9905 505.509 47.3194L500.008 54.1735C492.342 62.8313 482.331 70.5874 469.886 74.736C463.032 76.9906 466.549 85.4681 473.764 82.6723C489.276 76.72 499.376 68.8738 507.403 59.2239L512.904 51.8287Z" fill="#FFF100"/>
<path d="M507.403 59.2239C509.624 60.8586 511.462 62.651 512.814 64.094C514.889 66.3487 517.594 65.8977 519.218 64.3645C520.841 62.8314 521.472 59.9454 519.398 57.5104C517.775 55.5263 515.492 53.5366 512.905 51.8287C511.095 50.6337 507.392 48.3847 505.509 47.3194C501.609 45.1155 497.483 43.5316 494.146 42.6297C487.833 40.826 485.488 48.4918 490.538 49.8446C493.424 50.6563 496.812 52.1105 500.008 54.1735C501.885 55.3854 505.6 57.8937 507.403 59.2239Z" fill="#00A0E9"/>
</svg>
