<svg width="551" height="95" viewBox="0 0 551 95" fill="none" xmlns="http://www.w3.org/2000/svg">
<path d="M73.2687 78.9273C64.3072 78.3035 57.4509 75.2792 52.8838 71.7759L71.4419 72.0989H71.4642H71.4864H71.5756C73.4804 72.0989 75.1903 71.3526 76.3877 70.0047C77.4348 68.824 78.0141 67.2812 78.0141 65.6605C78.0141 61.8285 75.2682 59.0437 71.4864 59.0437L61.3998 59.0771C64.8474 58.949 67.4095 56.309 67.4095 52.828C67.4095 50.3829 65.9781 47.8097 63.2935 46.9074C65.1537 46.6791 66.5684 45.7712 67.5041 44.5515C68.3841 44.9024 69.3644 45.0973 70.4171 45.0973C74.5052 45.0973 76.3042 42.9586 77.0951 41.1651C77.925 39.2882 77.925 37.2051 77.925 35.3616C77.925 33.7965 77.925 32.1813 77.8303 30.761C77.7077 27.5752 76.2262 24.601 73.6586 22.3898C71.3138 20.368 68.2338 19.1761 65.2094 19.1204C59.4114 19.0425 53.4464 18.9701 47.3587 18.9478V15.3944C47.3587 11.3675 44.1673 8.33203 39.9399 8.33203C35.7126 8.33203 32.5212 11.3675 32.5212 15.3944V18.9478C26.5004 18.9701 20.552 19.0425 14.7707 19.1204C10.8998 19.1706 7.60814 20.3848 5.25775 22.6293C3.14128 24.6456 1.90482 27.3858 1.77672 30.3433V30.4046V30.4658C1.77672 31.1342 1.75444 31.8081 1.73216 32.5155C1.70988 33.2395 1.6876 33.9859 1.6876 34.7433C1.6876 35.4841 1.70988 36.197 1.73773 36.8932C1.76001 37.4947 1.77672 38.0684 1.77672 38.5753V38.6198V38.6643C1.90482 42.6132 4.80661 45.3702 8.83903 45.3702C9.97524 45.3702 11.0279 45.1418 11.9636 44.7408C12.916 45.877 14.3251 46.7014 16.1854 46.913C13.4117 47.8264 11.9413 50.433 11.9413 52.9227C11.9413 55.9247 14.0689 58.9601 18.1292 59.0827L8.22637 59.0493C4.07698 59.0493 1.59849 62.4134 1.59849 65.666C1.59849 69.3977 4.34433 72.1045 8.12612 72.1045H8.21523H8.23751H8.25979L26.7399 71.8316C22.3733 76.0088 15.4502 78.7325 5.7813 80.1082H5.76459H5.74788C2.3114 80.6373 0 83.2828 0 86.6914C0 90.1167 2.50634 93.7538 7.15143 93.7538C7.37422 93.7538 28.8564 92.2165 40.0291 77.5572C51.1015 90.4064 68.3173 93.3082 72.294 93.3082C77.1619 93.3082 80.0693 89.4428 80.0693 85.7111C80.0693 82.6534 77.9417 79.2225 73.2687 78.9273ZM62.4023 34.1864L47.058 34.2643C47.0468 33.9524 47.0245 33.6461 47.0023 33.3342C46.9744 32.7605 46.863 32.2091 46.6848 31.6856C51.5192 31.719 56.2256 31.7747 60.4697 31.8304C62.096 31.8861 62.7644 31.9975 63.0261 32.0977C63.1765 32.4542 63.2601 33.2562 63.3102 34.2588C63.0094 34.2142 62.7087 34.1864 62.4023 34.1864ZM15.996 33.7909C16.0963 32.6547 16.23 32.315 16.2801 32.2258C16.3803 32.159 16.954 31.8638 19.1429 31.8248C23.2811 31.758 28.0209 31.6856 32.9556 31.6577C32.7941 32.2091 32.705 32.7884 32.705 33.4066V33.5848V33.6907L32.7105 33.7964C32.7217 33.9524 32.7328 34.1028 32.7384 34.2588L17.1378 34.1864C16.7368 34.1864 16.3581 34.2253 15.9905 34.281V33.7909H15.996ZM46.6737 59.1273C46.6792 59.0938 46.6792 59.0548 46.6848 59.0158L59.7623 59.0827L46.6737 59.1273ZM32.5602 59.0214C32.5546 59.0604 32.5546 59.0938 32.549 59.1328L19.6274 59.0882L32.5602 59.0214Z" fill="black"/>
<path d="M99.0287 42.1623C100.12 42.1623 103.022 42.1623 112.09 34.4706C116.506 30.7222 121.263 26.0605 123.647 23.1308C124.276 22.3622 124.733 21.5601 125.028 20.7191C124.861 21.3318 124.76 21.989 124.76 22.7075C124.76 25.9936 127.128 29.3243 131.645 29.3243H160.696C164.077 29.3243 167.669 26.9738 167.669 22.6184C167.669 18.7419 164.673 15.8234 160.696 15.8234H131.645C128.999 15.8234 126.231 17.3439 125.195 20.1956C125.351 19.6219 125.429 19.0315 125.429 18.43C125.429 14.5034 122.115 11.1895 118.188 11.1895C116.055 11.1895 114 12.3201 112.557 14.2862L112.541 14.3084L112.524 14.3307C108.486 20.0898 103.59 24.3227 96.1603 28.4721C92.4342 30.5774 91.8828 33.5238 91.8828 35.0944C91.8773 38.9932 95.0854 42.1623 99.0287 42.1623Z" fill="black"/>
<path d="M166.405 35.9677H128.62C128.18 35.9677 127.746 36.0123 127.328 36.0847C126.86 32.5647 123.669 29.6406 120.065 29.6406C117.893 29.6406 115.949 30.6877 114.59 32.587C109.132 40.3734 102.565 46.3329 94.4948 50.8276C92.0943 52.103 90.7241 54.3587 90.7241 57.0155C90.7241 60.9588 93.8543 64.1669 97.6973 64.1669C99.0118 64.1669 100.499 63.8995 104.303 61.3096L103.646 86.9801V87.0136V87.047V87.2252C103.646 91.0069 106.581 93.7529 110.619 93.7529C114.618 93.7529 117.726 90.9123 117.859 87.1417V87.1082V87.0749L118.294 49.6413C119.909 48.0595 121.24 46.7005 122.343 45.5085C122.638 46.1491 123.034 46.745 123.535 47.2574C124.426 48.1764 126.03 49.2736 128.62 49.2736H144.722C144.711 53.7683 144.672 58.3243 144.633 62.7577C144.588 67.659 144.549 72.293 144.549 76.4312C144.549 77.5619 144.549 78.726 141.096 78.726C139.72 78.726 138.005 78.5311 136.005 78.1523L135.749 78.1021H135.593C135.582 78.1021 135.571 78.0966 135.565 78.0966C135.382 78.0631 135.109 78.0131 134.774 78.0131C131.154 78.0131 128.425 81.0096 128.425 84.9863C128.425 92.6724 136.44 92.6723 140.745 92.6723C146.777 92.6723 151.478 91.0794 154.725 87.9437C157.393 85.3649 158.858 81.8784 158.858 78.1244V77.9462V77.9239V77.9016L158.679 65.5147C158.601 60.6079 158.59 55.0995 158.59 49.2681H166.41C170.938 49.2681 173.383 45.8594 173.383 42.6513C173.378 39.4209 170.933 35.9677 166.405 35.9677Z" fill="black"/>
<path d="M268.284 48.733C268.284 45.77 266.313 43.4363 263.144 42.6454C257.975 41.3644 252.612 39.9386 247.187 37.8834H258.638C262.208 37.8834 264.898 35.1542 264.898 31.5339C264.898 28.4985 262.704 25.2737 258.638 25.2737H232.282L232.293 24.9952C237.562 24.5051 244.09 23.7865 249.158 22.862L249.181 22.8565L249.203 22.8509C252.144 22.2661 254.115 19.8767 254.115 16.9136C254.115 13.7055 251.67 10.2969 247.142 10.2969C246.719 10.2969 246.078 10.2969 245.371 10.4361C229.291 13.4159 213.507 13.8615 205.526 13.8615C203.125 13.8615 200.858 13.8614 198.686 13.7723H198.63H198.575H198.397C195.233 13.7723 191.869 15.9333 191.869 19.9435C191.869 21.9151 192.844 23.9982 194.687 25.2681H192.426C190.549 25.2681 188.856 25.9754 187.658 27.2564C186.594 28.3982 185.987 29.9522 185.987 31.5284C185.987 35.1486 188.755 37.8778 192.426 37.8778H206.172C200.975 40.7294 195.244 43.0742 188.02 45.3578L187.998 45.3634L187.976 45.3689C184.885 46.3993 183.041 48.6884 183.041 51.4844C183.041 53.5507 184.06 55.4054 185.653 56.6363C184.684 57.767 184.11 59.2541 184.11 60.9306C184.11 64.6511 186.917 67.4582 190.638 67.4582L205.659 67.3913C204.74 69.1068 203.794 70.6886 202.763 72.2091C201.9 73.5068 201.482 74.7377 201.482 75.9964C201.482 77.5782 202.162 78.9985 203.287 80.0623C201.733 80.1291 200.101 80.1625 198.385 80.1625C196.442 80.1625 194.437 80.1626 192.448 80.0734H192.387H192.326H192.147C190.131 80.0734 188.332 80.8308 187.079 82.2121C185.965 83.4374 185.352 85.0583 185.352 86.7793C185.352 90.0487 187.686 93.4295 192.147 93.5743H192.192H192.237C192.866 93.5743 193.506 93.5966 194.119 93.6189C194.748 93.6412 195.406 93.6633 196.068 93.6633C213.212 93.6633 225.576 90.3606 233.792 83.5768C240.542 85.7601 246.446 88.6952 250.946 92.0982C252.255 93.1398 253.731 93.6633 255.329 93.6633C259.256 93.6633 262.57 90.1824 262.57 86.0664C262.57 83.6325 261.445 81.5216 259.401 80.118C255.168 77.1661 249.292 74.5149 242.274 72.3873C243.004 70.8111 243.628 69.1458 244.162 67.3858L260.398 67.4638C263.612 67.4638 266.848 65.2192 266.848 60.9361C266.848 58.2739 265.6 56.4025 263.884 55.3665C264.686 54.9766 265.433 54.4586 266.079 53.8014C267.488 52.3978 268.284 50.5487 268.284 48.733ZM216.698 46.1152C217.278 45.7421 217.862 45.3634 218.442 44.9735L218.431 45.731C217.823 45.7922 217.244 45.9259 216.698 46.1152ZM212.683 50.0976C212.193 51.5735 211.68 53.0773 211.145 54.5756L201.081 54.4976C202.329 53.9406 203.253 53.5006 203.548 53.3669C206.077 52.1639 209.965 50.209 214.142 47.7027C213.479 48.3654 212.978 49.173 212.683 50.0976ZM220.887 67.3802H229.386C229.113 68.0318 228.812 68.6724 228.478 69.285C225.883 68.8562 223.22 68.5164 220.514 68.2713C220.636 67.9761 220.759 67.681 220.887 67.3802ZM225.771 54.5756C226.239 53.211 226.44 52.565 226.523 52.1639C229.976 51.7351 232.377 49.3401 232.377 46.1487V46.0596V46.0428V46.0262L232.355 44.3386C240.531 49.3123 248.395 52.6262 253.792 54.4475L225.771 54.5756Z" fill="black"/>
<path d="M351.679 79.9063C349.133 79.7448 346.27 79.2379 343.391 78.4581C344.405 77.9958 345.34 77.4055 346.187 76.7093C348.526 74.7655 349.88 72.1199 350.008 69.2627C350.186 65.286 350.275 60.652 350.275 55.8621C350.275 52.1416 350.18 48.4823 350.002 45.2797C349.868 42.7901 348.454 40.3339 346.114 38.5516C344.761 37.5212 343.157 36.7638 341.419 36.3015C343.536 35.5162 345.112 34.2408 346.165 32.464C347.691 29.8909 347.691 26.8498 347.691 24.4047C347.691 20.9515 347.691 12.8589 336.323 12.6138H336.256C331.455 12.5303 326.019 12.4355 320.489 12.4355C313.671 12.4355 306.514 12.5414 301.29 12.6138C290.446 12.7308 289.544 18.3784 289.544 24.6665C289.544 27.9136 289.677 30.7932 291.32 33.1603C292.39 34.6975 293.871 35.6554 295.464 36.2569C293.498 36.7694 291.822 37.6327 290.474 38.858C288.513 40.6347 287.36 43.1132 287.227 45.8256C287.054 48.8332 286.954 53.0439 286.954 57.3715C286.954 61.7214 287.048 65.9432 287.227 69.2683C287.422 73.8354 290.284 77.2663 294.868 78.7979C291.616 79.9063 288.268 80.6081 285.127 80.7919C280.387 81.0815 278.226 84.6516 278.226 87.8486C278.226 91.3129 280.855 95.0001 285.734 95.0001C289.254 95.0001 302.203 92.1038 311.332 86.4841C313.404 85.2365 314.54 83.2536 314.54 80.8977C314.54 80.5691 314.518 80.2349 314.468 79.9063C316.924 79.9286 319.419 79.9342 321.903 79.9342C321.892 80.0734 321.892 80.2182 321.892 80.3574C321.892 82.7858 323.123 84.8745 325.273 86.0831C330.464 89.0628 336.184 91.118 340.066 92.3099C344.488 93.6689 348.593 94.5489 350.52 94.5489C355.388 94.5489 358.295 90.5945 358.295 86.7737C358.295 82.9863 355.577 80.1569 351.679 79.9063ZM333.471 25.0174C331.645 25.268 326.649 25.268 318.439 25.268C313.46 25.268 308.308 25.268 304.153 25.1789H304.125H304.097C303.852 25.1789 303.657 25.1733 303.496 25.1678C303.496 25.1232 303.496 25.0786 303.496 25.0285C303.496 24.9784 303.496 24.8949 303.496 24.8058C303.629 24.7946 303.796 24.7835 304.008 24.7835H304.041H304.075C308.23 24.6888 313.382 24.6888 318.361 24.6888C323.385 24.6888 328.576 24.6888 332.736 24.7835H332.77H332.803C333.093 24.7835 333.321 24.7891 333.494 24.8002C333.494 24.8448 333.494 24.8893 333.494 24.9394C333.477 24.9673 333.477 24.9895 333.471 25.0174Z" fill="black"/>
<path d="M449.938 40.6697L449.916 40.6586L449.894 40.6474C440.063 34.7325 430.239 26.4392 421.477 16.6701C418.487 13.267 414.638 11.3789 410.672 11.3789C406.712 11.3789 402.947 13.3785 400.335 16.8595C393.629 25.9213 382.05 38.0075 372.866 43.5994C370.398 45.0809 369.034 47.3199 369.034 49.8986C369.034 53.97 372.593 57.4065 376.809 57.4065C378.925 57.4065 380.919 56.6657 382.729 55.1954C391.741 48.172 404.206 35.5066 411.112 26.3557C411.224 26.2053 411.324 26.0883 411.402 25.9992C411.519 26.1106 411.664 26.2666 411.842 26.4783C419.266 35.2561 431.397 47.2475 440.214 53.1903C441.667 54.1594 443.238 54.644 444.887 54.644C449.359 54.644 453.286 50.8009 453.286 46.4232C453.297 44.1006 452.072 42.0065 449.938 40.6697Z" fill="black"/>
<path d="M443.026 76.6051H419.077V66.8471H434.471C438.303 66.8471 441.088 63.9898 441.088 60.052C441.088 56.7604 438.771 53.2571 434.471 53.2571H419.077V39.5558C419.077 37.3948 418.241 35.4788 416.721 34.1643C415.412 33.0281 413.674 32.4043 411.836 32.4043C409.993 32.4043 408.261 33.0281 406.952 34.1643C405.437 35.4788 404.596 37.3948 404.596 39.5558V76.6051H400.096V56.3093C400.096 51.7199 396.408 49.2469 392.944 49.2469C388.817 49.2469 385.704 52.2824 385.704 56.3093V76.6051H379.399C374.765 76.6051 372.336 80.0248 372.336 83.4C372.336 86.6917 374.809 90.195 379.399 90.195H443.026C446.847 90.195 449.732 87.3099 449.732 83.4891C449.732 79.5681 446.847 76.6051 443.026 76.6051Z" fill="black"/>
<path d="M534.102 34.8998C530.682 34.8998 527.981 36.9272 527.19 39.8345C526.249 34.8051 521.308 30.8228 515.544 30.7115C513.739 30.6558 512.102 30.6335 510.598 30.6279V29.4193H535.349C539.761 29.4193 542.144 25.916 542.144 22.6243C542.144 18.6977 539.226 15.7402 535.349 15.7402H473.326C468.959 15.7402 466.353 19.2881 466.353 22.7134C466.353 26.0441 468.747 29.4193 473.326 29.4193H496.924V30.5778C496.039 30.6056 495.125 30.639 494.145 30.6724L493.014 30.7115C488.202 30.8396 485.39 32.7778 483.886 34.3874C482.17 36.2198 481.134 38.6927 480.923 41.3996C480.917 39.3499 480.071 37.5175 478.545 36.2365C477.236 35.1393 475.542 34.5378 473.771 34.5378C470.413 34.5378 466.943 36.9049 466.798 41.4219V41.4442V41.4664C466.698 47.153 466.62 52.2882 466.62 57.5571C466.62 64.2073 466.715 70.6792 466.798 76.2265C466.904 80.6878 468.235 84.1967 470.747 86.6696C473.203 89.0813 476.668 90.3903 481.045 90.5518C485.98 90.7913 493.399 90.9082 503.09 90.9082C512.87 90.9082 520.606 90.7857 526.093 90.5518C534.976 90.3012 541.142 84.4975 541.431 76.104C541.61 70.7961 541.61 64.2463 541.61 57.9192C541.61 51.6143 541.61 45.6604 541.431 41.6781C541.292 37.7459 538.218 34.8998 534.102 34.8998ZM480.75 59.0944C480.795 62.1075 480.861 64.4245 480.884 65.3045C481.123 72.0438 486.064 76.5274 493.477 76.739L494.641 76.7725C499.659 76.9284 502.182 77.0064 504.878 77.0064C507.468 77.0064 510.191 76.9117 515.137 76.739C521.347 76.5441 526.154 72.5228 527.162 66.942C527.117 69.5319 527.051 71.9714 526.961 74.1825C526.833 76.5942 525.19 76.8838 523.653 76.9673C518.835 77.1344 511.639 77.2347 503.898 77.2347C496.145 77.2347 488.837 77.14 483.852 76.9673C481.491 76.8671 481.051 76.4104 480.923 73.9096C480.75 70.3283 480.75 65.7278 480.75 60.86C480.745 60.2807 480.745 59.6903 480.75 59.0944ZM510.603 47.2032V42.7307C511.985 42.7697 513.294 42.8588 513.8 43.0816C513.823 43.1819 513.845 43.3545 513.856 43.6442V43.6831V43.7221C513.906 44.6578 513.928 45.8386 513.934 47.1976H510.603V47.2032ZM510.603 64.4412V59.1891H513.94C513.934 60.9324 513.912 62.4528 513.856 63.4665V63.5V63.5333C513.839 63.9734 513.784 64.2017 513.745 64.302C513.633 64.341 513.355 64.4022 512.803 64.4022H512.781H512.759L510.603 64.4412ZM494.023 59.1891H496.919V64.4691C495.777 64.4412 494.702 64.38 494.151 64.2463C494.134 64.1126 494.117 63.9177 494.112 63.6392V63.6002V63.5612C494.05 62.4807 494.034 60.9379 494.023 59.1891ZM494.028 47.2032C494.034 45.8442 494.056 44.6578 494.112 43.8447V43.8168V43.789C494.14 43.2431 494.151 42.9145 495.326 42.8755L496.924 42.8421V47.1976H494.028V47.2032Z" fill="black"/>
<path d="M49.6145 50.6485C49.6145 52.609 49.3471 54.5695 49.0798 56.3518L77.0617 56.2627C79.5569 56.2627 80.8045 58.1341 80.8045 60.0947C80.8045 61.877 79.5569 63.7483 77.1508 63.7483H77.0617L51.6641 63.3028C56.2089 69.5408 65.9224 75.2441 78.6657 76.1352C81.5174 76.3134 82.8541 78.1848 82.8541 80.1453C82.8541 82.4623 81.0718 84.9576 77.8637 84.9576C74.9229 84.9576 55.8525 82.2841 45.4261 67.2238C35.9799 83.7099 12.8102 85.4032 12.7211 85.4032C9.86944 85.4032 8.35449 83.2643 8.35449 81.1256C8.35449 79.3433 9.42386 77.6502 11.7408 77.2937C26.1774 75.2441 34.1977 70.2537 38.0296 63.3919L13.7905 63.7483H13.7014C11.2062 63.7483 9.95855 61.9661 9.95855 60.0947C9.95855 58.2233 11.2953 56.2627 13.7905 56.2627L40.5248 56.3518C40.8812 54.4804 41.0595 52.609 41.0595 50.6485H49.6145ZM41.1486 43.8759C41.1486 42.0936 41.2377 40.3112 41.2377 38.5289L22.7019 38.6181C20.1176 38.6181 18.87 36.9249 18.87 35.1426C18.87 33.2712 20.2067 31.3998 22.7019 31.3998L41.1486 31.489C41.1486 30.3305 41.1486 29.1719 41.0595 28.0134C41.0595 27.9243 41.0595 27.9243 41.0595 27.8352C41.0595 25.5183 43.1091 24.3598 45.2478 24.3598C47.4757 24.3598 49.7036 25.6074 49.7927 27.9244C49.8818 29.0829 49.8818 30.2414 49.8818 31.489L67.972 31.3998C70.3781 31.3998 71.6257 33.1821 71.6257 35.0535C71.6257 36.8358 70.3781 38.6181 67.972 38.6181L49.8818 38.5289C49.8818 40.3112 49.7927 42.1827 49.7036 43.8759H41.1486ZM40.8812 16.1613V9.83416C40.8812 6.9825 43.1982 5.55664 45.5152 5.55664C47.8322 5.55664 50.1491 6.9825 50.1491 9.83416V16.1613H40.8812Z" stroke="black" stroke-width="10"/>
<path d="M45.5148 5.55696C47.8318 5.55696 50.1488 6.98282 50.1488 9.83449V16.1616H40.8809V9.83449C40.8809 6.98282 43.1979 5.55696 45.5148 5.55696ZM45.2475 24.3601C47.4753 24.3601 49.7032 25.6077 49.7923 27.9247C49.8814 29.0832 49.8814 30.2417 49.8814 31.4893L67.9716 31.4001C70.3777 31.4001 71.6253 33.1824 71.6253 35.0538C71.6253 36.8361 70.3777 38.6184 67.9716 38.6184L49.8814 38.5293C49.8814 40.3115 49.7923 42.183 49.7032 43.8762H41.1482C41.1482 42.0939 41.2373 40.3115 41.2373 38.5293L22.7015 38.6184C20.1172 38.6184 18.8696 36.9252 18.8696 35.1429C18.8696 33.2715 20.2063 31.4001 22.7015 31.4001L41.1482 31.4893C41.1482 30.3308 41.1482 29.1722 41.0591 28.0138C41.0591 27.9246 41.0591 27.9247 41.0591 27.8356C41.0591 25.5186 43.1087 24.3601 45.2475 24.3601ZM49.6141 50.6488C49.6141 52.6093 49.3467 54.5698 49.0794 56.3521L77.0613 56.2631C79.5565 56.2631 80.8041 58.1345 80.8041 60.095C80.8041 61.8773 79.5565 63.7486 77.1504 63.7486H77.0613L51.6637 63.3031C56.2086 69.5411 65.922 75.2444 78.6654 76.1355C81.517 76.3138 82.8538 78.1851 82.8538 80.1457C82.8538 82.4626 81.0715 84.9579 77.8633 84.9579C74.9226 84.9579 55.8521 82.2844 45.4257 67.2241C35.9796 83.7103 12.8098 85.4035 12.7207 85.4035C9.86907 85.4035 8.35413 83.2647 8.35413 81.1259C8.35413 79.3436 9.4235 77.6505 11.7405 77.2941C26.177 75.2444 34.1973 70.254 38.0292 63.3922L13.7901 63.7486H13.701C11.2058 63.7486 9.95819 61.9664 9.95819 60.095C9.95819 58.2236 11.2949 56.2631 13.7901 56.2631L40.5244 56.3521C40.8809 54.4807 41.0591 52.6093 41.0591 50.6488H49.6141ZM45.5148 5C42.9361 5 40.3239 6.65979 40.3239 9.83449V16.1616V16.7186H40.8809H50.1488H50.7057V16.1616V9.83449C50.7057 6.65979 48.0936 5 45.5148 5ZM45.2475 23.8031C42.9639 23.8031 40.5021 25.0674 40.5021 27.8356V28.0138V28.0361V28.0584C40.5745 29.0108 40.5857 29.9799 40.5913 30.9323L22.7015 30.8488C19.8499 30.8488 18.3127 33.0655 18.3127 35.1485C18.3127 37.0923 19.6884 39.1809 22.7015 39.1809L40.6804 39.0918C40.6748 39.7936 40.6581 40.5009 40.6414 41.1916C40.6191 42.0716 40.5968 42.9795 40.5968 43.8818V44.4387H41.1538H49.7088H50.2379L50.2657 43.9096C50.3437 42.4336 50.4273 40.7404 50.444 39.0918L67.9772 39.1809C70.7453 39.1809 72.1934 37.109 72.1934 35.0594C72.1934 32.9652 70.7453 30.8488 67.9828 30.8488L50.4495 30.9323C50.4495 29.8908 50.4384 28.8882 50.3604 27.8857C50.2435 25.2122 47.7037 23.8031 45.2475 23.8031ZM50.1711 50.0919H49.6141H41.0591H40.5021V50.6488C40.5021 52.4033 40.3573 54.0909 40.0621 55.7952L13.7957 55.7061C10.944 55.7061 9.40679 57.9674 9.40679 60.095C9.40679 62.1223 10.7546 64.3056 13.7066 64.3056H13.7957L37.049 63.9659C32.816 70.7386 24.495 74.9214 11.6681 76.7427C9.31768 77.1047 7.80273 78.8257 7.80273 81.1259C7.80273 83.5264 9.49591 85.9605 12.7263 85.9605C12.9491 85.9605 35.6009 84.3452 45.4758 68.2434C51.0232 75.8571 58.7093 80.0566 64.2567 82.2566C70.4724 84.7184 76.1145 85.5149 77.8745 85.5149C79.952 85.5149 81.2553 84.5791 81.9793 83.7994C82.8927 82.8136 83.4219 81.4824 83.4219 80.1457C83.4219 78.0181 81.9626 75.7846 78.7099 75.5786C65.9332 74.6874 57.122 69.1122 52.8222 63.8767L77.0613 64.3H77.1616C79.8963 64.3 81.3722 62.1279 81.3722 60.0894C81.3722 57.9729 80.0244 55.7005 77.0725 55.7005L49.7366 55.7896C49.965 54.1967 50.1822 52.4144 50.1822 50.6432V50.0919H50.1711Z" stroke="black" stroke-width="10"/>
<path d="M50.1493 16.1621C57.1002 16.1621 63.9621 16.2512 70.7347 16.3403C75.5469 16.4294 80.4482 20.1722 80.6264 25.3409C80.7156 26.6776 80.7156 28.2817 80.7156 29.7966C80.7156 33.0047 80.7156 36.7475 75.9925 36.7475C73.8537 36.7475 71.715 35.4999 71.715 33.0047C71.715 32.9156 71.715 32.9156 71.715 32.8265C71.715 24.4497 71.6259 23.6477 66.1008 23.4695C59.0608 23.3804 50.8622 23.2912 42.9311 23.2912C36.4257 23.2912 30.0986 23.3804 24.6626 23.4695C19.7613 23.5586 19.0484 24.8062 18.7811 28.1034C18.7811 28.1034 18.7811 28.1034 18.7811 33.0938V33.1829C18.7811 35.6781 16.5532 37.0148 14.4145 37.0148C12.2757 37.0148 10.2261 35.7673 10.137 33.0047C10.137 31.8462 10.0479 30.5095 10.0479 29.1728C10.0479 27.747 10.137 26.3211 10.137 24.8953C10.3152 20.7069 13.5233 16.4294 20.3851 16.3403C27.1578 16.2512 34.0196 16.1621 40.8814 16.1621H50.1493Z" stroke="black" stroke-width="10"/>
<path d="M50.1492 16.1624C57.1001 16.1624 63.9619 16.2515 70.7346 16.3406C75.5468 16.4297 80.448 20.1726 80.6263 25.3412C80.7154 26.6779 80.7154 28.282 80.7154 29.7969C80.7154 33.005 80.7154 36.7478 75.9923 36.7478C73.8536 36.7478 71.7148 35.5002 71.7148 33.005C71.7148 32.9159 71.7148 32.9159 71.7148 32.8268C71.7148 24.45 71.6257 23.648 66.1006 23.4698C59.0606 23.3807 50.8621 23.2915 42.9309 23.2915C36.4255 23.2915 30.0984 23.3807 24.6624 23.4698C19.7612 23.5589 19.0482 24.8065 18.7809 28.1037C18.7809 28.1037 18.7809 28.1037 18.7809 33.0941V33.1832C18.7809 35.6784 16.553 37.0152 14.4143 37.0152C12.2755 37.0152 10.2259 35.7676 10.1368 33.005C10.1368 31.8466 10.0477 30.5098 10.0477 29.1731C10.0477 27.7473 10.1368 26.3214 10.1368 24.8956C10.315 20.7072 13.5231 16.4297 20.385 16.3406C27.1576 16.2515 34.0195 16.1624 40.8813 16.1624H50.1492ZM50.1492 15.6055H40.8813C33.9248 15.6055 27.0407 15.6946 20.3794 15.7837C13.1834 15.8784 9.76921 20.4177 9.57984 24.8734C9.57984 25.603 9.55756 26.3215 9.53528 27.0177C9.513 27.725 9.49072 28.4546 9.49072 29.1731C9.49072 29.8749 9.513 30.5711 9.53528 31.245C9.55756 31.8688 9.57427 32.4592 9.57427 33.005C9.67452 36.163 12.075 37.5721 14.4087 37.5721C16.7981 37.5721 19.3323 36.0349 19.3323 33.1832V33.0941V28.126C19.5774 25.1574 20.0786 24.1103 24.668 24.0268C30.0427 23.9377 36.4144 23.8485 42.9253 23.8485C50.9289 23.8485 59.1274 23.9377 66.0895 24.0268C71.1523 24.1883 71.1523 24.5169 71.1523 32.8268V33.005C71.1523 35.8289 73.5862 37.3048 75.9868 37.3048C81.2668 37.3048 81.2668 32.9661 81.2668 29.7969C81.2668 28.2541 81.2668 26.6612 81.1777 25.3022C80.9883 19.727 75.6247 15.8728 70.7401 15.7837C64.0788 15.6946 57.1892 15.6055 50.1492 15.6055Z" stroke="black" stroke-width="10"/>
<path d="M49.614 50.6489L66.724 50.738C69.041 50.738 70.1995 49.0449 70.1995 47.2626C70.1995 45.5694 69.041 43.7871 66.724 43.7871L49.7032 43.8762H41.1482L23.9491 43.7871C21.543 43.7871 20.2954 45.5694 20.2954 47.3517C20.2954 49.0449 21.4539 50.738 23.9491 50.738L41.0591 50.6489H49.614Z" stroke="black" stroke-width="10"/>
<path d="M66.724 43.7874C69.041 43.7874 70.1995 45.5697 70.1995 47.2629C70.1995 49.0452 69.041 50.7383 66.724 50.7383L49.6141 50.6492H41.0591L23.9491 50.7383C21.4539 50.7383 20.2954 49.0452 20.2954 47.352C20.2954 45.5697 21.543 43.7874 23.9491 43.7874L41.1482 43.8766H49.7032L66.724 43.7874ZM66.724 43.2305L49.6976 43.3196H41.1482L23.9491 43.2305C21.181 43.2305 19.7329 45.3024 19.7329 47.352C19.7329 49.2513 21.0529 51.2953 23.9436 51.2953L41.0591 51.2062H49.6141L66.724 51.2953C69.4977 51.2953 70.762 49.2067 70.762 47.2629C70.7565 45.2578 69.3696 43.2305 66.724 43.2305Z" stroke="black" stroke-width="10"/>
<path d="M112.796 50.1126C105.845 55.5486 104.241 55.8159 103.261 55.8159C100.766 55.8159 99.0728 53.6772 99.0728 51.4494C99.0728 50.0235 99.6965 48.5977 101.39 47.7066C109.232 43.34 116.361 37.2801 122.421 28.636C123.312 27.3884 124.47 26.8538 125.629 26.8538C127.946 26.8538 130.174 28.9925 130.174 31.3986C130.174 32.6462 129.728 34.5176 121.084 42.8944L120.638 81.4809C120.549 84.0652 118.321 85.402 116.183 85.402C114.044 85.402 111.994 84.1543 111.994 81.6591C111.994 81.5699 111.994 81.57 111.994 81.4809L112.796 50.1126ZM161.369 40.9339C161.369 47.7957 161.369 54.301 161.458 60.0043L161.637 72.3912C161.637 72.4803 161.637 72.4803 161.637 72.5694C161.637 77.7381 157.983 84.3325 146.309 84.3325C139.536 84.3325 136.774 83.3522 136.774 79.4312C136.774 77.2925 138.021 75.2429 140.338 75.2429C140.516 75.2429 140.784 75.332 141.051 75.332C142.923 75.6885 144.883 75.9557 146.665 75.9557C150.141 75.9557 152.903 74.7973 152.903 70.8763C152.903 62.2322 153.082 51.2711 153.082 40.9339H161.369ZM137.214 20.9723C134.451 20.9723 133.114 19.1009 133.114 17.1403C133.114 15.0907 134.54 13.041 137.214 13.041H166.265C169.028 13.041 170.453 15.0016 170.453 17.0512C170.453 19.0117 169.028 20.9723 166.265 20.9723H137.214Z" stroke="black" stroke-width="10"/>
<path d="M166.27 13.0413C169.033 13.0413 170.459 15.0019 170.459 17.0515C170.459 19.012 169.033 20.9726 166.27 20.9726H137.219C134.456 20.9726 133.12 19.1012 133.12 17.1407C133.12 15.091 134.545 13.0413 137.219 13.0413H166.27ZM125.628 26.8541C127.945 26.8541 130.173 28.9929 130.173 31.3989C130.173 32.6465 129.728 34.518 121.084 42.8947L120.638 81.4813C120.549 84.0656 118.321 85.4023 116.182 85.4023C114.044 85.4023 111.994 84.1546 111.994 81.6594C111.994 81.5703 111.994 81.5704 111.994 81.4813L112.796 50.113C105.845 55.5489 104.241 55.8163 103.261 55.8163C100.766 55.8163 99.0724 53.6775 99.0724 51.4497C99.0724 50.0239 99.6962 48.598 101.389 47.7069C109.231 43.3403 116.361 37.2805 122.42 28.6364C123.312 27.3888 124.47 26.8541 125.628 26.8541ZM161.369 40.9342C161.369 47.796 161.369 54.3013 161.458 60.0047L161.636 72.3915C161.636 72.4807 161.636 72.4806 161.636 72.5697C161.636 77.7384 157.983 84.3328 146.309 84.3328C139.536 84.3328 136.773 83.3526 136.773 79.4315C136.773 77.2928 138.021 75.2432 140.338 75.2432C140.516 75.2432 140.783 75.3323 141.051 75.3323C142.922 75.6888 144.883 75.9561 146.665 75.9561C150.141 75.9561 152.903 74.7977 152.903 70.8766C152.903 62.2325 153.081 51.2715 153.081 40.9342H161.369ZM166.27 12.4844H137.219C134.908 12.4844 132.563 14.0829 132.563 17.1407C132.563 19.2571 134.022 21.5295 137.219 21.5295H166.27C169.384 21.5295 171.016 19.2794 171.016 17.0515C171.016 14.0551 168.626 12.4844 166.27 12.4844ZM125.628 26.2971C124.197 26.2971 122.894 27.01 121.969 28.3133C116.322 36.3726 109.499 42.555 101.122 47.2223C99.4456 48.1023 98.521 49.6061 98.521 51.4497C98.521 53.8168 100.337 56.3732 103.266 56.3732C104.442 56.3732 106.112 55.9666 112.217 51.2714L111.443 81.4645V81.6538C111.443 83.7257 112.93 85.9537 116.188 85.9537C118.605 85.9537 121.1 84.422 121.201 81.4924L121.646 43.123C130.04 34.9691 130.741 32.9195 130.741 31.3878C130.73 28.7311 128.302 26.2971 125.628 26.2971ZM161.926 40.3772H161.369H153.081H152.524V40.9342C152.524 46.3312 152.474 51.8674 152.43 57.2198C152.385 62.1211 152.346 66.7439 152.346 70.8766C152.346 73.9622 150.542 75.3992 146.665 75.3992C145.128 75.3992 143.323 75.1987 141.157 74.7865L141.107 74.7754H141.056C140.962 74.7754 140.845 74.7531 140.728 74.7308C140.6 74.7085 140.472 74.6862 140.343 74.6862C137.637 74.6862 136.222 77.0756 136.222 79.4315C136.222 84.0209 139.77 84.8898 146.314 84.8898C151.75 84.8898 155.933 83.5086 158.746 80.7906C161.753 77.8833 162.204 74.391 162.204 72.5697V72.3915L162.026 59.9935C161.937 54.2958 161.937 47.8016 161.937 40.9286V40.3772H161.926Z" stroke="black" stroke-width="10"/>
<path d="M104.598 33.8038C102.102 33.8038 100.231 31.7542 100.231 29.5264C100.231 28.0114 101.033 26.4965 103.083 25.338C109.944 21.5061 115.559 17.2286 120.371 10.3668C121.351 9.03006 122.599 8.40625 123.757 8.40625C126.074 8.40625 128.213 10.4559 128.213 12.862C128.213 13.8422 127.856 14.8225 127.054 15.8028C122.777 21.0605 108.964 33.8038 104.598 33.8038Z" stroke="black" stroke-width="10"/>
<path d="M123.757 8.40657C126.074 8.40657 128.213 10.4562 128.213 12.8623C128.213 13.8426 127.856 14.8228 127.054 15.8031C122.777 21.0608 108.964 33.8042 104.597 33.8042C102.102 33.8042 100.231 31.7546 100.231 29.5267C100.231 28.0118 101.033 26.4968 103.082 25.3383C109.944 21.5064 115.558 17.2289 120.371 10.3671C121.351 9.03039 122.598 8.40657 123.757 8.40657ZM123.757 7.84961C122.337 7.84961 120.939 8.6461 119.919 10.0385C115.67 16.1039 110.551 20.5317 102.81 24.8538C100.214 26.3186 99.6738 28.2067 99.6738 29.5267C99.6738 32.1946 101.885 34.3611 104.597 34.3611C107.221 34.3611 112.367 30.4679 116.221 27.1986C120.549 23.5337 125.183 18.9889 127.489 16.154C128.341 15.1124 128.77 14.0041 128.77 12.8623C128.77 10.1944 126.43 7.84961 123.757 7.84961Z" stroke="black" stroke-width="10"/>
<path d="M153.076 40.9346H134.184C131.422 40.9346 130.085 39.0632 130.085 37.1918C130.085 35.2313 131.511 33.1816 134.184 33.1816H171.969C174.731 33.1816 176.157 35.1422 176.157 37.1027C176.157 38.9741 174.731 40.9346 171.969 40.9346H161.364H153.076Z" stroke="black" stroke-width="10"/>
<path d="M171.974 33.182C174.736 33.182 176.162 35.1425 176.162 37.103C176.162 38.9744 174.736 40.9349 171.974 40.9349H161.369H153.082H134.189C131.427 40.9349 130.09 39.0636 130.09 37.1922C130.09 35.2316 131.516 33.182 134.189 33.182H171.974ZM171.974 32.625H134.189C131.165 32.625 129.533 34.9754 129.533 37.1922C129.533 39.2641 130.992 41.4919 134.189 41.4919H153.082H161.369H171.974C174.274 41.4919 176.719 39.9547 176.719 37.103C176.719 34.8807 175.087 32.625 171.974 32.625Z" stroke="black" stroke-width="10"/>
<path d="M240.325 29.5269C249.415 34.7846 258.326 37.3689 268.04 39.775C270.178 40.3097 271.07 41.6464 271.07 43.1614C271.07 45.3001 269.02 47.7953 266.079 47.7953C264.921 47.7953 250.573 44.1416 235.067 33.6261L235.157 40.4879V40.5771C235.157 42.8049 233.107 43.8743 230.968 43.8743C228.919 43.8743 226.78 42.7158 226.78 40.5771V40.4879L226.869 33.8935C215.284 42.9831 198.263 49.845 195.857 49.845C193.184 49.845 191.401 47.8844 191.401 45.9239C191.401 44.4981 192.293 43.1614 194.431 42.4484C204.858 39.1512 213.056 35.4976 221.344 29.5269H240.325ZM226.958 22.4868L226.78 17.4964C219.829 17.942 213.056 18.2093 207.888 18.2093C206.551 18.2093 205.303 18.1203 204.145 18.1203C201.56 18.0311 200.224 16.1597 200.224 14.3774C200.224 12.6842 201.471 10.9911 203.966 10.9911C204.056 10.9911 204.056 10.9911 204.145 10.9911C206.373 11.0802 208.69 11.0802 211.096 11.0802C223.215 11.0802 238.008 10.1 251.464 7.60476C251.91 7.51564 252.356 7.51562 252.712 7.51562C255.475 7.51562 256.9 9.47614 256.9 11.3475C256.9 12.8625 256.009 14.1992 254.227 14.5557C249.326 15.4468 242.375 16.2488 235.157 16.8726L234.978 22.4868H226.958ZM218.67 51.8055C219.472 49.6667 220.185 47.528 220.898 45.3892C221.433 43.6961 223.215 42.894 224.908 42.894C227.136 42.894 229.364 44.0525 229.364 45.9239C229.364 46.1021 229.364 46.2804 227.404 51.8055H218.67ZM263.406 76.8522C258.683 73.5549 251.821 70.7033 243.801 68.5645C245.494 65.7129 246.741 62.5939 247.633 59.0293H238.788C238.075 62.0202 236.922 64.5767 235.424 66.7823C231.057 65.9802 226.512 65.4456 221.878 65.1782C222.848 63.2455 223.728 61.1402 224.602 59.0293H215.73C214.304 62.1483 212.7 65.1782 210.65 68.2081C210.115 69.0101 209.848 69.723 209.848 70.4359C209.848 72.3964 211.898 73.6441 214.036 73.6441C215.64 73.6441 217.245 73.0203 218.403 71.4162C221.968 71.5944 225.532 72.04 228.919 72.6638C223.126 76.0501 214.838 77.3868 203.966 77.3868C202.006 77.3868 199.956 77.3869 197.907 77.2978C197.818 77.2978 197.818 77.2978 197.728 77.2978C195.055 77.2978 193.718 79.2583 193.718 81.2188C193.718 83.1793 195.055 85.1398 197.818 85.229C199.154 85.229 200.402 85.318 201.65 85.318C219.205 85.318 231.235 81.7535 238.721 74.8916C246.385 77.2086 253.069 80.4167 258.237 84.3378C259.128 85.0507 260.019 85.318 260.911 85.318C263.406 85.318 265.366 82.912 265.366 80.5059C265.366 79.1692 264.832 77.8324 263.406 76.8522Z" stroke="black" stroke-width="10"/>
<path d="M252.712 7.51595C255.474 7.51595 256.9 9.47647 256.9 11.3479C256.9 12.8628 256.009 14.1995 254.227 14.556C249.326 15.4471 242.375 16.2491 235.156 16.8729L234.978 22.4872H226.958L226.78 17.4967C219.829 17.9423 213.056 18.2096 207.887 18.2096C206.551 18.2096 205.303 18.1206 204.145 18.1206C201.56 18.0315 200.224 16.16 200.224 14.3777C200.224 12.6846 201.471 10.9914 203.966 10.9914C204.055 10.9914 204.055 10.9914 204.145 10.9914C206.372 11.0805 208.689 11.0805 211.095 11.0805C223.215 11.0805 238.008 10.1003 251.464 7.60508C251.91 7.51597 252.355 7.51595 252.712 7.51595ZM240.325 29.5272C249.415 34.785 258.326 37.3692 268.04 39.7753C270.178 40.31 271.069 41.6468 271.069 43.1617C271.069 45.3004 269.02 47.7956 266.079 47.7956C264.921 47.7956 250.573 44.142 235.067 33.6265L235.156 40.4882V40.5774C235.156 42.8052 233.107 43.8746 230.968 43.8746C228.918 43.8746 226.78 42.7161 226.78 40.5774V40.4882L226.869 33.8938C215.284 42.9835 198.263 49.8453 195.857 49.8453C193.183 49.8453 191.401 47.8847 191.401 45.9242C191.401 44.4984 192.292 43.1617 194.431 42.4488C204.857 39.1515 213.056 35.4979 221.344 29.5272H240.325ZM224.908 42.8944C227.136 42.8944 229.364 44.0528 229.364 45.9242C229.364 46.1025 229.364 46.2807 227.403 51.8058H218.67C219.472 49.6671 220.185 47.5283 220.898 45.3896C221.433 43.6964 223.215 42.8944 224.908 42.8944ZM247.632 59.0296C246.741 62.5942 245.494 65.7132 243.8 68.5649C251.821 70.7036 258.683 73.5553 263.406 76.8525C264.831 77.8328 265.366 79.1695 265.366 80.5062C265.366 82.9123 263.406 85.3183 260.91 85.3183C260.019 85.3183 259.128 85.051 258.237 84.3381C253.068 80.417 246.385 77.2089 238.721 74.892C231.235 81.7538 219.205 85.3183 201.649 85.3183C200.402 85.3183 199.154 85.2293 197.817 85.2293C195.055 85.1402 193.718 83.1797 193.718 81.2192C193.718 79.2586 195.055 77.2981 197.728 77.2981C197.817 77.2981 197.817 77.2981 197.907 77.2981C199.956 77.3872 202.006 77.3872 203.966 77.3872C214.838 77.3872 223.126 76.0505 228.918 72.6641C225.532 72.0403 221.967 71.5947 218.403 71.4165C217.244 73.0206 215.64 73.6444 214.036 73.6444C211.898 73.6444 209.848 72.3968 209.848 70.4363C209.848 69.7233 210.115 69.0104 210.65 68.2084C212.7 65.1785 214.304 62.1486 215.729 59.0296H224.602C223.727 61.1405 222.847 63.2459 221.878 65.1785C226.512 65.4459 231.057 65.9806 235.424 66.7826C236.922 64.577 238.075 62.0205 238.788 59.0296H247.632ZM252.712 6.95898C252.328 6.95898 251.854 6.95895 251.353 7.0592C235.095 10.0724 219.149 10.5236 211.09 10.5236C208.667 10.5236 206.378 10.5236 204.161 10.4344H203.961C201.137 10.4344 199.661 12.4172 199.661 14.3777C199.661 16.4385 201.193 18.5773 204.122 18.6775C204.69 18.6775 205.258 18.6998 205.86 18.7221C206.512 18.7444 207.186 18.7666 207.887 18.7666C212.772 18.7666 219.272 18.5271 226.245 18.0871L226.401 22.5039L226.418 23.0386H226.952H234.973H235.513L235.53 22.4983L235.691 17.3798C241.172 16.9008 248.679 16.1266 254.322 15.0962C256.254 14.7119 257.452 13.2694 257.452 11.3423C257.457 8.4962 255.012 6.95898 252.712 6.95898ZM240.475 28.9702H240.325H221.344H221.165L221.021 29.076C213.318 34.6234 205.57 38.344 194.264 41.9197C192.086 42.6437 190.844 44.103 190.844 45.9242C190.844 48.0797 192.76 50.4022 195.857 50.4022C198.341 50.4022 214.593 43.9025 226.295 35.0356L226.223 40.4771V40.5718C226.223 41.3794 226.473 42.0645 226.897 42.6215C226.262 42.4321 225.582 42.3318 224.908 42.3318C223.232 42.3318 221.037 43.0893 220.369 45.2169C219.673 47.3055 218.949 49.4777 218.152 51.6053L217.868 52.3572H218.67H227.403H227.799L227.933 51.984C229.926 46.3698 229.926 46.1971 229.926 45.9131C229.926 45.2614 229.709 44.6822 229.347 44.1921C229.876 44.3425 230.428 44.4204 230.974 44.4204C234.232 44.4204 235.719 42.4209 235.719 40.5662V40.4771L235.641 34.668C250.551 44.5597 264.586 48.3414 266.085 48.3414C269.354 48.3414 271.632 45.6068 271.632 43.1506C271.632 41.2012 270.373 39.7697 268.179 39.2239C259.368 37.0406 249.983 34.4563 240.609 29.0315L240.475 28.9702ZM248.345 58.4727H247.632H238.788H238.348L238.248 58.9015C237.613 61.575 236.577 64.0144 235.167 66.1699C231.18 65.4514 227.008 64.9502 222.753 64.6717C223.555 63.0008 224.307 61.2074 225.125 59.2413L225.443 58.4727H224.607H215.735H215.379L215.228 58.7957C213.635 62.2823 212.037 65.173 210.193 67.8965C209.581 68.8155 209.296 69.6231 209.296 70.4363C209.296 72.7922 211.708 74.2013 214.042 74.2013C215.373 74.2013 217.228 73.8115 218.676 71.9902C221.466 72.1406 224.34 72.458 227.247 72.937C221.901 75.5882 214.437 76.8302 203.972 76.8302C202.006 76.8302 199.973 76.8302 197.934 76.7411H197.734C194.737 76.7411 193.167 78.9913 193.167 81.2192C193.167 83.3468 194.62 85.6804 197.806 85.7862C198.497 85.7862 199.154 85.8084 199.789 85.8307C200.402 85.853 201.037 85.8753 201.66 85.8753C218.921 85.8753 231.102 82.489 238.871 75.5158C246.368 77.816 252.946 81.013 257.908 84.7837C258.822 85.5189 259.813 85.8753 260.916 85.8753C263.584 85.8753 265.929 83.369 265.929 80.5062C265.929 78.8075 265.166 77.3816 263.729 76.3958C259.173 73.2155 252.589 70.3917 244.653 68.2195C246.179 65.5071 247.337 62.5385 248.178 59.1689L248.345 58.4727Z" stroke="black" stroke-width="10"/>
<path d="M240.325 29.5283H264.207C266.524 29.5283 267.683 27.746 267.683 25.9637C267.683 24.2706 266.524 22.4883 264.207 22.4883H234.978H226.958H197.995C195.589 22.4883 194.342 24.2706 194.342 25.9637C194.342 27.746 195.589 29.5283 197.995 29.5283H221.343H240.325Z" stroke="black" stroke-width="10"/>
<path d="M264.207 22.4886C266.524 22.4886 267.683 24.2709 267.683 25.9641C267.683 27.7463 266.524 29.5286 264.207 29.5286H240.325H221.343H197.995C195.589 29.5286 194.342 27.7463 194.342 25.9641C194.342 24.2709 195.589 22.4886 197.995 22.4886H226.957H234.978H264.207ZM264.207 21.9316H234.978H226.957H197.995C195.261 21.9316 193.785 24.0091 193.785 25.9641C193.785 28.0137 195.233 30.0856 197.995 30.0856H221.343H240.325H264.207C266.853 30.0856 268.24 28.0137 268.24 25.9641C268.24 23.959 266.858 21.9316 264.207 21.9316Z" stroke="black" stroke-width="10"/>
<path d="M247.633 59.0235L265.99 59.1126C268.485 59.1126 269.644 57.2411 269.644 55.3697C269.644 53.4983 268.485 51.627 265.99 51.627L227.404 51.8052H218.67L196.214 51.627C193.718 51.627 192.471 53.4983 192.471 55.3697C192.471 57.2411 193.718 59.1126 196.214 59.1126L215.73 59.0235H247.633Z" stroke="black" stroke-width="10"/>
<path d="M265.99 51.6273C268.485 51.6273 269.644 53.4987 269.644 55.3701C269.644 57.2415 268.485 59.1129 265.99 59.1129L247.633 59.0238H215.73L196.214 59.1129C193.718 59.1129 192.471 57.2415 192.471 55.3701C192.471 53.4987 193.718 51.6273 196.214 51.6273L218.67 51.8055H227.404L265.99 51.6273ZM265.99 51.0703L227.398 51.2486H218.665L196.214 51.0703C193.384 51.0703 191.908 53.2313 191.908 55.3701C191.908 57.5088 193.384 59.6699 196.208 59.6699L215.73 59.5808H247.633L265.99 59.6699C268.886 59.6699 270.201 57.442 270.201 55.3701C270.201 53.2982 268.886 51.0703 265.99 51.0703Z" stroke="black" stroke-width="10"/>
<path d="M357.07 77.116C359.833 77.2943 361.08 79.1657 361.08 81.2154C361.08 83.6214 359.298 86.2057 356.09 86.2057C353.238 86.2057 341.208 83.2649 332.207 78.0963C330.781 77.2943 330.247 76.0466 330.247 74.799C330.247 73.6405 330.781 72.393 331.672 71.591C326.326 71.591 320.622 71.591 315.365 71.5018C316.523 72.393 317.325 73.9079 317.325 75.3338C317.325 76.5814 316.79 77.7399 315.454 78.5419C306.631 83.9779 294.155 86.6513 291.304 86.6513C288.185 86.6513 286.581 84.4234 286.581 82.2847C286.581 80.235 287.917 78.1855 290.858 78.0072C296.918 77.6508 304.403 75.4229 310.641 71.4127C308.948 71.4127 307.255 71.3236 305.74 71.3236C299.235 71.1454 295.759 67.9373 295.581 63.5707C295.403 60.1843 295.314 55.996 295.314 51.8076C295.314 47.7083 295.403 43.52 295.581 40.4009C295.759 36.8364 298.344 33.0044 305.473 32.9153C310.285 32.8262 315.988 32.8262 321.87 32.8262C329.177 32.8262 336.663 32.8262 343.257 33.0044C348.693 33.0936 352.614 36.4799 352.793 39.8662C352.971 43.0743 353.06 46.6389 353.06 50.2926C353.06 54.9265 352.971 59.5605 352.793 63.5707C352.614 67.6699 348.782 71.3236 342.812 71.4127C341.119 71.4127 339.425 71.5018 337.643 71.5018C343.792 74.71 351.367 76.7596 357.07 77.116ZM344.594 49.6688H303.512V54.3919H344.594V49.6688ZM344.327 42.5397C344.238 40.49 342.99 39.2424 339.96 39.1533C334.702 39.0642 327.128 38.9751 320.088 38.9751C315.721 38.9751 311.533 38.9751 308.146 39.0642C305.295 39.1533 303.78 40.8465 303.691 42.5397V44.0546H344.416L344.327 42.5397ZM303.691 60.0061V61.521C303.78 64.0162 305.562 64.9074 308.235 64.9965C313.315 65.1747 320.177 65.2638 326.771 65.2638C331.583 65.2638 336.217 65.1747 340.049 65.0856C342.455 64.9965 344.148 64.0162 344.327 61.6101C344.327 61.0755 344.416 60.5408 344.416 60.0061H303.691Z" stroke="black" stroke-width="10"/>
<path d="M321.87 32.8265C329.177 32.8265 336.663 32.8265 343.257 33.0048C348.693 33.0939 352.614 36.4802 352.792 39.8665C352.971 43.0747 353.06 46.6392 353.06 50.2929C353.06 54.9269 352.971 59.5609 352.792 63.571C352.614 67.6703 348.782 71.3239 342.812 71.413C341.118 71.413 339.425 71.5022 337.643 71.5022C343.792 74.7103 351.367 76.7599 357.07 77.1164C359.832 77.2946 361.08 79.166 361.08 81.2157C361.08 83.6218 359.298 86.2061 356.09 86.2061C353.238 86.2061 341.208 83.2653 332.207 78.0966C330.781 77.2946 330.246 76.047 330.246 74.7994C330.246 73.6409 330.781 72.3933 331.672 71.5913C326.325 71.5913 320.622 71.5913 315.364 71.5022C316.523 72.3933 317.325 73.9083 317.325 75.3341C317.325 76.5817 316.79 77.7402 315.453 78.5422C306.631 83.9782 294.155 86.6517 291.303 86.6517C288.184 86.6517 286.58 84.4237 286.58 82.285C286.58 80.2354 287.917 78.1858 290.858 78.0076C296.918 77.6511 304.403 75.4232 310.641 71.413C308.948 71.413 307.255 71.3239 305.74 71.3239C299.235 71.1457 295.759 67.9376 295.581 63.571C295.403 60.1847 295.314 55.9963 295.314 51.8079C295.314 47.7086 295.403 43.5203 295.581 40.4013C295.759 36.8367 298.343 33.0047 305.473 32.9156C310.285 32.8265 315.988 32.8265 321.87 32.8265ZM303.69 44.0549H344.416L344.327 42.54C344.237 40.4904 342.99 39.2427 339.96 39.1536C334.702 39.0645 327.127 38.9754 320.087 38.9754C315.721 38.9754 311.532 38.9754 308.146 39.0645C305.294 39.1537 303.779 40.8468 303.69 42.54V44.0549ZM303.512 54.3922H344.594V49.6691H303.512V54.3922ZM344.416 60.0064H303.69V61.5213C303.779 64.0165 305.562 64.9077 308.235 64.9968C313.315 65.175 320.177 65.2641 326.771 65.2641C331.583 65.2641 336.217 65.175 340.049 65.0859C342.455 64.9968 344.148 64.0166 344.327 61.6105C344.327 61.0758 344.416 60.5411 344.416 60.0064ZM321.87 32.2695C315.91 32.2695 310.279 32.2696 305.461 32.3587C302.053 32.4032 299.391 33.2721 297.547 34.943C296.027 36.3243 295.13 38.2514 295.024 40.3734C294.851 43.3532 294.757 47.5248 294.757 51.8079C294.757 56.1244 294.851 60.3127 295.024 63.5988C295.224 68.5279 299.324 71.7026 305.723 71.8809C306.47 71.8809 307.233 71.9032 308.04 71.9255C308.257 71.931 308.48 71.9366 308.697 71.9421C303.245 75.0723 296.695 77.1053 290.824 77.4506C287.505 77.6511 286.023 80.0237 286.023 82.285C286.023 84.7301 287.839 87.2086 291.303 87.2086C294.539 87.2086 307.11 84.3401 315.749 79.0156C317.147 78.1801 317.887 76.9047 317.887 75.3341C317.887 74.209 317.453 73.0338 316.723 72.0814C321.201 72.1426 325.897 72.1483 330.491 72.1483C329.99 72.9392 329.695 73.8804 329.695 74.7994C329.695 76.4257 330.492 77.7681 331.94 78.5812C336.969 81.4719 342.522 83.4602 346.298 84.6187C350.397 85.8774 354.424 86.7574 356.095 86.7574C359.565 86.7574 361.643 83.9392 361.643 81.2101C361.643 78.5589 359.866 76.732 357.109 76.5538C351.885 76.2252 345.39 74.4875 339.982 72.0145C340.094 72.009 340.205 72.009 340.311 72.0035C341.174 71.9812 341.987 71.9589 342.812 71.9589C349.495 71.8586 353.171 67.6703 353.349 63.5821C353.522 59.6333 353.617 55.0327 353.617 50.2818C353.617 46.6003 353.522 42.9856 353.349 39.822C353.166 36.3465 349.261 32.5313 343.268 32.4366C336.668 32.2696 329.144 32.2695 321.87 32.2695ZM304.247 42.5567C304.325 41.1977 305.584 39.7051 308.163 39.6215C311.538 39.5324 315.693 39.5324 320.087 39.5324C328.531 39.5324 336.791 39.6549 339.949 39.7106C342.505 39.7885 343.686 40.6686 343.77 42.5622L343.825 43.498H304.247V42.5567ZM304.069 50.2261H344.037V53.8353H304.069V50.2261ZM304.247 60.5634H343.831C343.825 60.6302 343.82 60.697 343.814 60.7639C343.792 61.0312 343.77 61.3097 343.77 61.5882C343.619 63.4819 342.399 64.4398 340.027 64.529C336.457 64.6125 331.717 64.7072 326.771 64.7072C319.842 64.7072 313.097 64.6125 308.252 64.4398C304.788 64.3229 304.292 62.8079 304.242 61.499L304.247 60.5634Z" stroke="black" stroke-width="10"/>
<path d="M341.831 9.83256C337.019 9.74902 331.583 9.6543 326.058 9.6543C319.464 9.6543 312.691 9.74902 306.899 9.83256C298.522 9.92168 297.898 13.2189 297.898 19.1004C297.898 24.7146 298.254 28.6357 307.077 28.9086C312.156 28.9977 317.949 29.0868 323.919 29.0868C329.801 29.0868 335.861 28.9977 341.386 28.9086C350.475 28.6357 350.475 23.3835 350.475 18.8386C350.475 14.4665 350.03 10.0108 341.831 9.83256ZM341.653 20.621C341.208 22.4868 340.762 22.4868 324.008 22.4868C318.929 22.4868 313.849 22.4868 309.661 22.3977C307.166 22.3977 306.275 22.1359 306.275 19.4624C306.275 17.9419 306.364 16.4326 309.572 16.4326C313.76 16.3379 318.84 16.3379 323.919 16.3379C328.999 16.3379 334.168 16.3379 338.356 16.4326C341.029 16.4326 341.831 16.9673 341.831 19.3734C341.831 19.8189 341.742 20.2589 341.653 20.621Z" stroke="black" stroke-width="10"/>
<path d="M326.058 9.65462C331.583 9.65462 337.019 9.74934 341.831 9.83289C350.03 10.0111 350.475 14.4668 350.475 18.839C350.475 23.3838 350.475 28.636 341.386 28.9089C335.861 28.998 329.801 29.0871 323.919 29.0871C317.949 29.0871 312.156 28.998 307.077 28.9089C298.254 28.636 297.898 24.7149 297.898 19.1007C297.898 13.2192 298.522 9.922 306.898 9.83289C312.691 9.74934 319.463 9.65462 326.058 9.65462ZM324.008 22.4871C340.762 22.4871 341.207 22.4871 341.653 20.6213C341.742 20.2593 341.831 19.8193 341.831 19.3737C341.831 16.9676 341.029 16.4329 338.356 16.4329C334.167 16.3382 328.999 16.3382 323.919 16.3382C318.84 16.3382 313.76 16.3382 309.572 16.4329C306.364 16.4329 306.275 17.9423 306.275 19.4628C306.275 22.1362 307.166 22.398 309.661 22.398C313.849 22.4871 318.929 22.4871 324.008 22.4871ZM326.058 9.09766C319.257 9.09766 312.106 9.19795 306.893 9.27592C298.009 9.37061 297.341 13.2247 297.341 19.1007C297.341 25.1828 298.015 29.1874 307.06 29.4659C312.345 29.5606 318.038 29.6441 323.919 29.6441C329.845 29.6441 336.044 29.5494 341.397 29.4659C351.032 29.1763 351.032 23.4451 351.032 18.839C351.032 14.0992 350.325 9.45972 341.842 9.27592H341.787C336.997 9.18681 331.566 9.09766 326.058 9.09766ZM324.008 21.9301C319.018 21.9301 313.855 21.9301 309.672 21.841C307.416 21.841 306.832 21.7463 306.832 19.4628C306.832 18.0815 306.832 16.9899 309.572 16.9899C313.766 16.8952 318.929 16.8952 323.919 16.8952C328.954 16.8952 334.162 16.8952 338.345 16.9899C340.812 16.9899 341.274 17.3686 341.274 19.3737C341.274 19.7803 341.18 20.2036 341.113 20.4876C340.94 21.2005 340.873 21.4957 338.89 21.7018C336.657 21.9301 332.43 21.9301 324.008 21.9301Z" stroke="black" stroke-width="10"/>
<path d="M412.95 73.818V33.9838C412.95 31.0431 415.178 29.6172 417.406 29.6172C419.634 29.6172 421.862 31.0431 421.862 33.9838V50.47H440.041C442.625 50.47 443.873 52.5196 443.873 54.4801C443.873 56.5297 442.625 58.4903 440.041 58.4903H421.862V73.818H412.95ZM394.058 73.818V50.7373C394.058 47.8857 396.286 46.4598 398.514 46.4598C400.653 46.4598 402.88 47.8857 402.88 50.7373V73.818H394.058Z" stroke="black" stroke-width="10"/>
<path d="M417.406 29.6175C419.634 29.6175 421.862 31.0434 421.862 33.9842V50.4703H440.041C442.625 50.4703 443.873 52.5199 443.873 54.4804C443.873 56.5301 442.625 58.4906 440.041 58.4906H421.862V73.8183H412.95V33.9842C412.95 31.0434 415.178 29.6175 417.406 29.6175ZM398.514 46.4601C400.652 46.4601 402.88 47.886 402.88 50.7376V73.8183H394.058V50.7376C394.058 47.886 396.286 46.4601 398.514 46.4601ZM417.406 29.0605C413.964 29.0605 412.393 31.6115 412.393 33.9842V73.8183V74.3753H412.95H421.862H422.419V73.8183V59.0476H440.041C443.054 59.0476 444.43 56.6804 444.43 54.4804C444.43 52.2136 442.92 49.9133 440.041 49.9133H422.419V33.9842C422.419 31.6115 420.848 29.0605 417.406 29.0605ZM398.514 45.9032C396.024 45.9032 393.501 47.5629 393.501 50.7376V73.8183V74.3753H394.058H402.88H403.437V73.8183V50.7376C403.437 47.5629 400.959 45.9032 398.514 45.9032Z" stroke="black" stroke-width="10"/>
<path d="M450.467 46.2814C449.487 46.2814 448.418 46.014 447.348 45.3011C439.15 39.776 427.387 28.3693 419.545 19.1014C418.564 17.943 417.762 17.4083 416.96 17.4083C416.069 17.4083 415.356 17.943 414.465 19.1014C407.336 28.5476 395.038 40.8453 386.572 47.4398C385.146 48.5983 383.721 49.0439 382.384 49.0439C379.532 49.0439 377.394 46.7269 377.394 44.3208C377.394 42.895 378.106 41.4692 379.889 40.3998C389.691 34.4292 401.544 21.864 408.138 12.9526C410.277 10.1009 413.218 8.58594 416.247 8.58594C419.277 8.58594 422.396 10.0118 424.981 12.9526C433.447 22.3987 443.516 31.1319 454.032 37.459C455.458 38.3502 456.082 39.5978 456.082 40.8454C456.082 43.5188 453.497 46.2814 450.467 46.2814Z" stroke="black" stroke-width="10"/>
<path d="M416.247 8.58626C419.277 8.58626 422.396 10.0121 424.98 12.9529C433.446 22.399 443.516 31.1322 454.032 37.4594C455.458 38.3505 456.081 39.5981 456.081 40.8457C456.081 43.5191 453.497 46.2817 450.467 46.2817C449.487 46.2817 448.418 46.0143 447.348 45.3014C439.15 39.7763 427.387 28.3697 419.544 19.1018C418.564 17.9433 417.762 17.4086 416.96 17.4086C416.069 17.4086 415.356 17.9433 414.465 19.1018C407.336 28.5479 395.038 40.8457 386.572 47.4401C385.146 48.5986 383.72 49.0442 382.384 49.0442C379.532 49.0442 377.393 46.7272 377.393 44.3211C377.393 42.8953 378.106 41.4695 379.889 40.4002C389.691 34.4295 401.543 21.8644 408.138 12.9529C410.277 10.1013 413.217 8.58626 416.247 8.58626ZM416.247 8.0293C413 8.0293 409.881 9.70025 407.692 12.6187C400.864 21.8421 389.028 34.1844 379.599 39.9267C377.315 41.2968 376.836 43.0735 376.836 44.3211C376.836 47.1839 379.376 49.6012 382.384 49.6012C383.982 49.6012 385.514 49.0219 386.923 47.8746C395.796 40.9627 408.093 28.47 414.911 19.4416C415.852 18.2218 416.409 17.9712 416.96 17.9712C417.567 17.9712 418.258 18.4446 419.121 19.4694C426.445 28.1246 438.387 39.9434 447.042 45.7692C448.111 46.4822 449.264 46.8442 450.473 46.8442C453.703 46.8442 456.644 43.987 456.644 40.8513C456.644 39.2918 455.825 37.9216 454.333 36.9915C444.307 30.9595 434.304 22.5216 425.398 12.5853C422.814 9.65009 419.567 8.0293 416.247 8.0293Z" stroke="black" stroke-width="10"/>
<path d="M421.862 73.8164H448.596C451.181 73.8164 452.517 75.866 452.517 77.9156C452.517 79.8761 451.181 81.8366 448.596 81.8366H384.963C382.111 81.8366 380.686 79.787 380.686 77.8265C380.686 75.7769 382.111 73.8164 384.963 73.8164H394.053H421.862Z" stroke="black" stroke-width="10"/>
<path d="M448.596 73.8167C451.18 73.8167 452.517 75.8663 452.517 77.9159C452.517 79.8764 451.18 81.837 448.596 81.837H384.963C382.111 81.837 380.685 79.7874 380.685 77.8269C380.685 75.7772 382.111 73.8167 384.963 73.8167H394.052H421.856H448.596ZM448.596 73.2598H421.862H394.058H384.968C381.649 73.2598 380.134 75.6268 380.134 77.8269C380.134 80.0937 381.794 82.3939 384.968 82.3939H448.596C451.537 82.3939 453.074 80.1438 453.074 77.9159C453.074 75.6045 451.537 73.2598 448.596 73.2598Z" stroke="black" stroke-width="10"/>
<path d="M530.141 35.6812C529.963 31.8492 526.22 28.0174 521.052 27.9283C518.111 27.8391 515.616 27.8391 513.388 27.8391V21.0664H505.278V27.75C503.229 27.75 501.179 27.8391 498.684 27.9283C491.911 28.1065 489.41 32.3839 489.238 36.3941C489.149 38.8893 489.06 43.2559 489.06 47.7116C489.06 52.1673 489.149 56.7122 489.238 59.6529C489.41 64.5542 492.886 68.208 499.13 68.3862C504.922 68.5644 507.595 68.6535 510.447 68.6535C512.942 68.6535 515.527 68.5644 520.606 68.3862C526.309 68.208 529.963 64.1978 530.141 59.5638C530.32 56.9795 530.32 52.3455 530.32 47.7116C530.32 43.0776 530.32 38.4437 530.141 35.6812ZM505.278 61.7026C498.238 61.7026 496.991 61.5244 496.902 58.138C496.807 56.4448 496.807 53.7714 496.807 50.8306H505.278V61.7026ZM505.278 44.4144H496.807C496.807 41.8301 496.807 39.5131 496.902 38.0873C496.991 36.2159 498.06 34.6118 500.823 34.5227L505.278 34.4336V44.4144ZM522.21 58.0489C522.121 60.8114 520.695 61.6135 518.378 61.6135L513.388 61.7026V50.8306H522.299C522.299 53.7714 522.299 56.4448 522.21 58.0489ZM513.388 44.4144V34.3444C519.982 34.3444 522.121 34.5227 522.21 37.9982C522.299 39.6022 522.299 41.8301 522.299 44.4144H513.388Z" stroke="black" stroke-width="10"/>
<path d="M513.388 21.0667V27.8394C515.616 27.8394 518.111 27.8395 521.052 27.9286C526.22 28.0177 529.963 31.8496 530.141 35.6815C530.32 38.444 530.32 43.078 530.32 47.7119C530.32 52.3459 530.32 56.9798 530.141 59.5641C529.963 64.1981 526.309 68.2083 520.606 68.3865C515.527 68.5647 512.942 68.6538 510.447 68.6538C507.595 68.6538 504.922 68.5647 499.13 68.3865C492.886 68.2083 489.411 64.5546 489.238 59.6533C489.149 56.7125 489.06 52.1676 489.06 47.7119C489.06 43.2562 489.149 38.8896 489.238 36.3944C489.411 32.3843 491.911 28.1068 498.684 27.9286C501.179 27.8395 503.229 27.7503 505.278 27.7503V21.0667H513.388ZM513.388 44.4147H522.299C522.299 41.8304 522.299 39.6025 522.21 37.9985C522.121 34.523 519.982 34.3448 513.388 34.3448V44.4147ZM496.807 44.4147H505.278V34.4339L500.823 34.523C498.06 34.6121 496.991 36.2162 496.902 38.0876C496.807 39.5134 496.807 41.8304 496.807 44.4147ZM513.388 61.7029L518.378 61.6138C520.695 61.6138 522.121 60.8118 522.21 58.0492C522.299 56.4452 522.299 53.7717 522.299 50.831H513.388V61.7029ZM505.278 61.7029V50.831H496.807C496.807 53.7717 496.807 56.4452 496.902 58.1383C496.991 61.5247 498.238 61.7029 505.278 61.7029ZM513.945 20.5098H513.388H505.278H504.721V21.0667V27.1933C503.162 27.2045 501.586 27.2602 499.792 27.327L498.662 27.366C495.398 27.4496 492.847 28.4521 491.076 30.3402C489.628 31.883 488.781 34.0217 488.675 36.3665C488.592 38.6779 488.497 43.0335 488.497 47.7064C488.497 53.3373 488.636 58.2832 488.675 59.6644C488.87 65.2062 492.869 68.7597 499.107 68.9379L500.277 68.9713C505.273 69.1272 507.779 69.2052 510.441 69.2052C512.992 69.2052 515.699 69.1106 520.623 68.9379C526.254 68.7597 530.492 64.8275 530.693 59.5809C530.871 56.9965 530.871 52.2735 530.871 47.7064C530.871 43.1393 530.871 38.4218 530.693 35.6425C530.509 31.7438 526.777 27.4663 521.057 27.366C518.362 27.2825 516.022 27.2769 513.939 27.2769V21.0612V20.5098H513.945ZM513.945 43.8578V34.9017C520.562 34.924 521.586 35.3808 521.653 38.0096C521.737 39.4967 521.742 41.5185 521.742 43.8522H513.945V43.8578ZM497.364 43.8578C497.364 41.4739 497.37 39.4299 497.459 38.1266C497.525 36.7787 498.16 35.1691 500.839 35.08L504.721 35.002V43.8578H497.364ZM513.945 51.3879H521.742C521.742 54.0558 521.737 56.5342 521.653 58.0158C521.581 60.2325 520.695 61.0568 518.378 61.0568L513.945 61.1348V51.3879ZM497.364 51.3879H504.721V61.146C498.088 61.1348 497.531 60.8452 497.459 58.1216C497.37 56.5343 497.364 54.0558 497.364 51.3879Z" stroke="black" stroke-width="10"/>
<path d="M483.707 35.9423C483.618 41.5565 483.529 48.5965 483.529 55.2801C483.529 60.0923 483.529 64.8153 483.707 68.469C483.885 72.0336 485.133 73.9941 489.321 74.1723C494.579 74.3505 501.975 74.4397 509.461 74.4397C516.857 74.4397 524.254 74.3505 529.333 74.1723C532.898 73.9941 535.126 72.2118 535.304 68.7363C535.482 64.2806 535.571 59.0229 535.571 53.5869C535.571 47.5271 535.482 41.3783 535.304 36.2096C535.304 36.1205 535.304 36.1205 535.304 36.0314C535.304 33.447 537.443 32.1104 539.671 32.1104C541.899 32.1104 544.126 33.4471 544.215 36.2096C544.394 40.1307 544.394 46.1013 544.394 52.3393C544.394 58.5773 544.394 65.1718 544.215 70.4295C543.948 78.0933 538.156 82.0144 531.561 82.1927C525.412 82.46 516.946 82.5491 508.659 82.5491C500.371 82.5491 492.262 82.46 486.737 82.1927C479.429 81.9253 475.33 78.0934 475.152 70.6078C475.063 64.9045 474.974 58.4882 474.974 51.9828C474.974 46.5469 475.063 41.1109 475.152 35.9423C475.241 33.0906 477.291 31.7539 479.34 31.7539C481.479 31.7539 483.707 33.1797 483.707 35.8532V35.9423Z" stroke="black" stroke-width="10"/>
<path d="M479.341 31.7542C481.479 31.7542 483.707 33.1801 483.707 35.8535V35.9426C483.618 41.5568 483.529 48.5968 483.529 55.2804C483.529 60.0926 483.529 64.8156 483.707 68.4693C483.885 72.0339 485.133 73.9944 489.321 74.1726C494.579 74.3509 501.976 74.44 509.461 74.44C516.858 74.44 524.254 74.3509 529.334 74.1726C532.898 73.9944 535.126 72.2121 535.304 68.7366C535.483 64.2809 535.572 59.0232 535.572 53.5872C535.572 47.5274 535.483 41.3786 535.304 36.2099C535.304 36.1208 535.304 36.1208 535.304 36.0317C535.304 33.4474 537.443 32.1107 539.671 32.1107C541.899 32.1107 544.127 33.4474 544.216 36.2099C544.394 40.131 544.394 46.1016 544.394 52.3396C544.394 58.5776 544.394 65.1721 544.216 70.4298C543.948 78.0937 538.156 82.0148 531.562 82.193C525.413 82.4603 516.947 82.5494 508.659 82.5494C500.372 82.5494 492.262 82.4603 486.737 82.193C479.43 81.9257 475.33 78.0937 475.152 70.6081C475.063 64.9048 474.974 58.4885 474.974 51.9832C474.974 46.5472 475.063 41.1113 475.152 35.9426C475.241 33.091 477.291 31.7542 479.341 31.7542ZM479.341 31.1973C476.183 31.1973 474.668 33.6479 474.595 35.9259C474.495 41.6069 474.417 46.7366 474.417 51.9832C474.417 58.6166 474.506 65.0774 474.595 70.6192C474.779 78.2719 478.967 82.4715 486.715 82.75C491.61 82.9839 498.99 83.1064 508.659 83.1064C518.423 83.1064 526.137 82.9839 531.584 82.75C535.087 82.6553 538.301 81.5191 540.623 79.5418C543.208 77.3418 544.645 74.2005 544.773 70.4466C544.951 65.1777 544.951 58.65 544.951 52.3341C544.951 46.0515 544.951 40.1142 544.773 36.1765C544.673 32.9962 542.055 31.5482 539.671 31.5482C537.226 31.5482 534.747 33.0853 534.747 36.0261V36.2044C534.92 41.2059 535.015 47.3715 535.015 53.5816C535.015 59.1234 534.92 64.3534 534.747 68.7088C534.552 72.5463 531.679 73.4931 529.306 73.6101C524.471 73.7772 517.236 73.8775 509.461 73.8775C501.686 73.8775 494.351 73.7827 489.338 73.6101C485.773 73.4597 484.442 72.1063 484.259 68.4359C484.08 64.7989 484.08 60.1706 484.08 55.2748C484.08 49.7999 484.136 43.4727 484.259 35.9481V35.8479C484.264 32.8292 481.73 31.1973 479.341 31.1973Z" stroke="black" stroke-width="10"/>
<path d="M505.273 21.0605H478.895C476.044 21.0605 474.707 19.1001 474.707 17.1396C474.707 15.0899 476.222 12.9512 478.895 12.9512H540.919C543.592 12.9512 544.929 15.0008 544.929 17.0504C544.929 19.0109 543.592 21.0605 540.919 21.0605H513.383H505.273Z" stroke="black" stroke-width="10"/>
<path d="M540.919 12.9515C543.592 12.9515 544.929 15.0011 544.929 17.0507C544.929 19.0113 543.592 21.0609 540.919 21.0609H513.383H505.273H478.895C476.044 21.0609 474.707 19.1004 474.707 17.1399C474.707 15.0903 476.222 12.9515 478.895 12.9515H540.919ZM540.919 12.3945H478.895C475.927 12.3945 474.15 14.8062 474.15 17.1399C474.15 19.2953 475.637 21.6178 478.895 21.6178H505.273H513.383H540.919C543.915 21.6178 545.486 19.3176 545.486 17.0507C545.486 14.7393 543.921 12.3945 540.919 12.3945Z" stroke="black" stroke-width="10"/>
<path d="M49.6145 50.6504C49.6145 52.611 49.3471 54.5715 49.0798 56.3538L77.0617 56.2647C79.5569 56.2647 80.8045 58.1361 80.8045 60.0966C80.8045 61.8789 79.5569 63.7503 77.1508 63.7503H77.0617L51.6641 63.3047C56.2089 69.5427 65.9224 75.246 78.6657 76.1372C81.5174 76.3154 82.8541 78.1868 82.8541 80.1473C82.8541 82.4643 81.0718 84.9595 77.8637 84.9595C74.9229 84.9595 55.8525 82.2861 45.4261 67.2257C35.9799 83.7119 12.8102 85.4051 12.7211 85.4051C9.86944 85.4051 8.35449 83.2663 8.35449 81.1275C8.35449 79.3453 9.42386 77.6522 11.7408 77.2957C26.1774 75.2461 34.1977 70.2556 38.0296 63.3938L13.7905 63.7503H13.7014C11.2062 63.7503 9.95855 61.968 9.95855 60.0966C9.95855 58.2252 11.2953 56.2647 13.7905 56.2647L40.5248 56.3538C40.8812 54.4824 41.0595 52.611 41.0595 50.6504H49.6145ZM41.1486 43.8778C41.1486 42.0955 41.2377 40.3132 41.2377 38.5309L22.7019 38.62C20.1176 38.62 18.87 36.9269 18.87 35.1446C18.87 33.2732 20.2067 31.4018 22.7019 31.4018L41.1486 31.4909C41.1486 30.3324 41.1486 29.1739 41.0595 28.0154C41.0595 27.9263 41.0595 27.9263 41.0595 27.8372C41.0595 25.5202 43.1091 24.3617 45.2478 24.3617C47.4757 24.3617 49.7036 25.6093 49.7927 27.9263C49.8818 29.0848 49.8818 30.2433 49.8818 31.4909L67.972 31.4018C70.3781 31.4018 71.6257 33.184 71.6257 35.0554C71.6257 36.8377 70.3781 38.62 67.972 38.62L49.8818 38.5309C49.8818 40.3132 49.7927 42.1846 49.7036 43.8778H41.1486ZM40.8812 16.1632V9.83611C40.8812 6.98445 43.1982 5.55859 45.5152 5.55859C47.8322 5.55859 50.1491 6.98445 50.1491 9.83611V16.1632H40.8812Z" fill="#FFF100"/>
<path d="M50.1488 16.1641C57.0998 16.1641 63.9616 16.2531 70.7343 16.3423C75.5464 16.4314 80.4477 20.1742 80.6259 25.3428C80.7151 26.6795 80.7151 28.2836 80.7151 29.7986C80.7151 33.0067 80.7151 36.7495 75.992 36.7495C73.8533 36.7495 71.7145 35.5019 71.7145 33.0067C71.7145 32.9176 71.7145 32.9175 71.7145 32.8284C71.7145 24.4517 71.6254 23.6497 66.1003 23.4714C59.0603 23.3823 50.8618 23.2932 42.9306 23.2932C36.4252 23.2932 30.0981 23.3823 24.6621 23.4714C19.7608 23.5606 19.0479 24.8081 18.7806 28.1054C18.7806 28.1054 18.7806 28.1053 18.7806 33.0957V33.1849C18.7806 35.6801 16.5527 37.0168 14.414 37.0168C12.2752 37.0168 10.2256 35.7692 10.1365 33.0067C10.1365 31.8482 10.0474 30.5115 10.0474 29.1748C10.0474 27.7489 10.1365 26.3231 10.1365 24.8972C10.3147 20.7089 13.5228 16.4314 20.3846 16.3423C27.1573 16.2531 34.0191 16.1641 40.8809 16.1641H50.1488Z" fill="#00A0E9"/>
<path d="M49.6145 50.6508L66.7245 50.74C69.0415 50.74 70.1999 49.0468 70.1999 47.2645C70.1999 45.5713 69.0415 43.7891 66.7245 43.7891L49.7036 43.8782H41.1487L23.9496 43.7891C21.5435 43.7891 20.2959 45.5714 20.2959 47.3537C20.2959 49.0468 21.4544 50.74 23.9496 50.74L41.0596 50.6508H49.6145Z" fill="#00A0E9"/>
<path d="M112.796 50.1126C105.845 55.5486 104.241 55.8159 103.261 55.8159C100.766 55.8159 99.0728 53.6772 99.0728 51.4494C99.0728 50.0235 99.6965 48.5977 101.39 47.7066C109.232 43.34 116.361 37.2801 122.421 28.636C123.312 27.3884 124.47 26.8538 125.629 26.8538C127.946 26.8538 130.174 28.9925 130.174 31.3986C130.174 32.6462 129.728 34.5176 121.084 42.8944L120.638 81.4809C120.549 84.0652 118.321 85.402 116.183 85.402C114.044 85.402 111.994 84.1543 111.994 81.6591C111.994 81.5699 111.994 81.57 111.994 81.4809L112.796 50.1126ZM161.369 40.9339C161.369 47.7957 161.369 54.301 161.458 60.0043L161.637 72.3912C161.637 72.4803 161.637 72.4803 161.637 72.5694C161.637 77.7381 157.983 84.3325 146.309 84.3325C139.536 84.3325 136.774 83.3522 136.774 79.4312C136.774 77.2925 138.021 75.2429 140.338 75.2429C140.516 75.2429 140.784 75.332 141.051 75.332C142.923 75.6885 144.883 75.9557 146.665 75.9557C150.141 75.9557 152.903 74.7973 152.903 70.8763C152.903 62.2322 153.082 51.2711 153.082 40.9339H161.369ZM137.214 20.9723C134.451 20.9723 133.114 19.1009 133.114 17.1403C133.114 15.0907 134.54 13.041 137.214 13.041H166.265C169.028 13.041 170.453 15.0016 170.453 17.0512C170.453 19.0117 169.028 20.9723 166.265 20.9723H137.214Z" fill="#FFF100"/>
<path d="M104.598 33.8058C102.103 33.8058 100.231 31.7562 100.231 29.5283C100.231 28.0134 101.033 26.4984 103.083 25.3399C109.945 21.508 115.559 17.2305 120.371 10.3687C121.352 9.03201 122.599 8.4082 123.758 8.4082C126.075 8.4082 128.213 10.4578 128.213 12.8639C128.213 13.8442 127.857 14.8245 127.055 15.8047C122.777 21.0625 108.965 33.8058 104.598 33.8058Z" fill="#00A0E9"/>
<path d="M153.076 40.9366H134.184C131.421 40.9366 130.084 39.0652 130.084 37.1938C130.084 35.2333 131.51 33.1836 134.184 33.1836H171.968C174.731 33.1836 176.157 35.1441 176.157 37.1046C176.157 38.9761 174.731 40.9366 171.968 40.9366H161.364H153.076Z" fill="#00A0E9"/>
<path d="M240.325 29.5288C249.414 34.7866 258.326 37.3709 268.039 39.7769C270.178 40.3116 271.069 41.6484 271.069 43.1633C271.069 45.3021 269.019 47.7972 266.079 47.7972C264.92 47.7972 250.573 44.1436 235.067 33.6281L235.156 40.4899V40.579C235.156 42.8069 233.106 43.8763 230.968 43.8763C228.918 43.8763 226.779 42.7178 226.779 40.579V40.4899L226.868 33.8954C215.284 42.9851 198.263 49.8469 195.857 49.8469C193.183 49.8469 191.401 47.8864 191.401 45.9259C191.401 44.5 192.292 43.1633 194.431 42.4504C204.857 39.1532 213.056 35.4995 221.343 29.5288H240.325ZM226.958 22.4888L226.779 17.4983C219.828 17.9439 213.056 18.2113 207.887 18.2113C206.55 18.2113 205.303 18.1222 204.144 18.1222C201.56 18.0331 200.223 16.1616 200.223 14.3794C200.223 12.6862 201.471 10.993 203.966 10.993C204.055 10.993 204.055 10.993 204.144 10.993C206.372 11.0821 208.689 11.0822 211.095 11.0822C223.215 11.0822 238.008 10.1019 251.464 7.60671C251.91 7.5176 252.355 7.51758 252.712 7.51758C255.474 7.51758 256.9 9.4781 256.9 11.3495C256.9 12.8644 256.009 14.2012 254.227 14.5576C249.325 15.4488 242.374 16.2507 235.156 16.8745L234.978 22.4888H226.958ZM218.67 51.8074C219.472 49.6687 220.185 47.5299 220.898 45.3912C221.432 43.698 223.215 42.896 224.908 42.896C227.136 42.896 229.364 44.0545 229.364 45.9259C229.364 46.1041 229.364 46.2823 227.403 51.8074H218.67ZM263.405 76.8541C258.682 73.5569 251.82 70.7052 243.8 68.5665C245.493 65.7148 246.741 62.5958 247.632 59.0313H238.787C238.075 62.0222 236.922 64.5786 235.423 66.7842C231.057 65.9822 226.512 65.4475 221.878 65.1802C222.847 63.2475 223.727 61.1422 224.602 59.0313H215.729C214.303 62.1503 212.699 65.1801 210.65 68.21C210.115 69.0121 209.848 69.725 209.848 70.4379C209.848 72.3984 211.897 73.646 214.036 73.646C215.64 73.646 217.244 73.0222 218.403 71.4181C221.967 71.5964 225.532 72.0419 228.918 72.6657C223.126 76.0521 214.838 77.3888 203.966 77.3888C202.005 77.3888 199.956 77.3888 197.906 77.2997C197.817 77.2997 197.817 77.2997 197.728 77.2997C195.055 77.2997 193.718 79.2603 193.718 81.2208C193.718 83.1813 195.055 85.1418 197.817 85.2309C199.154 85.2309 200.401 85.32 201.649 85.32C219.205 85.32 231.235 81.7554 238.721 74.8936C246.384 77.2106 253.068 80.4187 258.237 84.3397C259.128 85.0526 260.019 85.32 260.91 85.32C263.405 85.32 265.366 82.9139 265.366 80.5079C265.366 79.1711 264.831 77.8344 263.405 76.8541Z" fill="#FFF100"/>
<path d="M240.324 29.5303H264.207C266.524 29.5303 267.682 27.748 267.682 25.9657C267.682 24.2725 266.524 22.4902 264.207 22.4902H234.977H226.957H197.995C195.589 22.4902 194.341 24.2725 194.341 25.9657C194.341 27.748 195.589 29.5303 197.995 29.5303H221.343H240.324Z" fill="#00A0E9"/>
<path d="M247.632 59.0254L265.99 59.1145C268.485 59.1145 269.643 57.2431 269.643 55.3717C269.643 53.5003 268.485 51.6289 265.99 51.6289L227.403 51.8072H218.67L196.213 51.6289C193.718 51.6289 192.47 53.5003 192.47 55.3717C192.47 57.2431 193.718 59.1145 196.213 59.1145L215.729 59.0254H247.632Z" fill="#00A0E9"/>
<path d="M357.071 77.116C359.833 77.2943 361.081 79.1657 361.081 81.2154C361.081 83.6214 359.298 86.2057 356.09 86.2057C353.239 86.2057 341.208 83.2649 332.208 78.0963C330.782 77.2943 330.247 76.0466 330.247 74.799C330.247 73.6405 330.782 72.393 331.673 71.591C326.326 71.591 320.623 71.591 315.365 71.5018C316.523 72.393 317.325 73.9079 317.325 75.3338C317.325 76.5814 316.791 77.7399 315.454 78.5419C306.632 83.9779 294.156 86.6513 291.304 86.6513C288.185 86.6513 286.581 84.4234 286.581 82.2847C286.581 80.2351 287.918 78.1855 290.859 78.0072C296.918 77.6508 304.404 75.4229 310.642 71.4127C308.949 71.4127 307.256 71.3236 305.741 71.3236C299.235 71.1454 295.76 67.9373 295.582 63.5707C295.403 60.1843 295.314 55.996 295.314 51.8076C295.314 47.7083 295.403 43.52 295.582 40.4009C295.76 36.8364 298.344 33.0044 305.473 32.9153C310.285 32.8262 315.989 32.8262 321.87 32.8262C329.178 32.8262 336.663 32.8262 343.258 33.0044C348.694 33.0936 352.615 36.4799 352.793 39.8662C352.971 43.0743 353.06 46.6389 353.06 50.2926C353.06 54.9265 352.971 59.5605 352.793 63.5707C352.615 67.6699 348.783 71.3236 342.812 71.4127C341.119 71.4127 339.426 71.5018 337.644 71.5018C343.792 74.71 351.367 76.7596 357.071 77.116ZM344.595 49.6688H303.513V54.3919H344.595V49.6688ZM344.327 42.5397C344.238 40.49 342.99 39.2424 339.961 39.1533C334.703 39.0642 327.128 38.9751 320.088 38.9751C315.721 38.9751 311.533 38.9751 308.147 39.0642C305.295 39.1533 303.78 40.8465 303.691 42.5397V44.0546H344.416L344.327 42.5397ZM303.691 60.0061V61.521C303.78 64.0162 305.562 64.9074 308.236 64.9965C313.315 65.1747 320.177 65.2638 326.772 65.2638C331.584 65.2638 336.218 65.1747 340.05 65.0856C342.456 64.9965 344.149 64.0162 344.327 61.6101C344.327 61.0755 344.416 60.5408 344.416 60.0061H303.691Z" fill="#FFF100"/>
<path d="M341.832 9.83452C337.02 9.75097 331.584 9.65625 326.059 9.65625C319.464 9.65625 312.691 9.75097 306.899 9.83452C298.522 9.92363 297.898 13.2208 297.898 19.1024C297.898 24.7166 298.255 28.6377 307.077 28.9106C312.157 28.9997 317.949 29.0888 323.92 29.0888C329.801 29.0888 335.861 28.9997 341.386 28.9106C350.476 28.6377 350.476 23.3854 350.476 18.8406C350.476 14.4684 350.03 10.0127 341.832 9.83452ZM341.654 20.6229C341.208 22.4888 340.762 22.4887 324.009 22.4887C318.929 22.4887 313.85 22.4887 309.662 22.3996C307.166 22.3996 306.275 22.1378 306.275 19.4644C306.275 17.9439 306.364 16.4345 309.572 16.4345C313.761 16.3399 318.84 16.3398 323.92 16.3398C328.999 16.3398 334.168 16.3399 338.356 16.4345C341.03 16.4345 341.832 16.9692 341.832 19.3753C341.832 19.8209 341.743 20.2609 341.654 20.6229Z" fill="#00A0E9"/>
<path d="M412.95 73.818V33.9838C412.95 31.0431 415.178 29.6172 417.406 29.6172C419.634 29.6172 421.862 31.0431 421.862 33.9838V50.47H440.041C442.625 50.47 443.873 52.5196 443.873 54.4801C443.873 56.5297 442.625 58.4903 440.041 58.4903H421.862V73.818H412.95ZM394.058 73.818V50.7373C394.058 47.8857 396.286 46.4598 398.514 46.4598C400.653 46.4598 402.88 47.8857 402.88 50.7373V73.818H394.058Z" fill="#FFF100"/>
<path d="M450.468 46.2833C449.488 46.2833 448.418 46.016 447.349 45.303C439.15 39.7779 427.387 28.3713 419.545 19.1034C418.565 17.9449 417.763 17.4103 416.961 17.4103C416.07 17.4103 415.357 17.9449 414.466 19.1034C407.336 28.5495 395.039 40.8473 386.573 47.4418C385.147 48.6003 383.721 49.0458 382.384 49.0458C379.533 49.0458 377.394 46.7289 377.394 44.3228C377.394 42.8969 378.107 41.4712 379.889 40.4018C389.692 34.4311 401.544 21.866 408.139 12.9545C410.277 10.1029 413.218 8.58789 416.248 8.58789C419.278 8.58789 422.397 10.0138 424.981 12.9545C433.447 22.4007 443.517 31.1339 454.032 37.461C455.458 38.3521 456.082 39.5997 456.082 40.8473C456.082 43.5208 453.498 46.2833 450.468 46.2833Z" fill="#00A0E9"/>
<path d="M421.862 73.8184H448.596C451.181 73.8184 452.517 75.8679 452.517 77.9175C452.517 79.8781 451.181 81.8386 448.596 81.8386H384.963C382.111 81.8386 380.686 79.789 380.686 77.8285C380.686 75.7788 382.111 73.8184 384.963 73.8184H394.053H421.862Z" fill="#00A0E9"/>
<path d="M530.142 35.6831C529.964 31.8512 526.221 28.0193 521.052 27.9302C518.111 27.8411 515.616 27.8411 513.388 27.8411V21.0684H505.279V27.7519C503.229 27.7519 501.18 27.8411 498.684 27.9302C491.912 28.1084 489.411 32.3859 489.238 36.396C489.149 38.8912 489.06 43.2578 489.06 47.7135C489.06 52.1693 489.149 56.7141 489.238 59.6549C489.411 64.5562 492.886 68.2099 499.13 68.3881C504.922 68.5664 507.596 68.6555 510.448 68.6555C512.943 68.6555 515.527 68.5664 520.607 68.3881C526.31 68.2099 529.964 64.1997 530.142 59.5658C530.32 56.9815 530.32 52.3475 530.32 47.7135C530.32 43.0796 530.32 38.4457 530.142 35.6831ZM505.279 61.7046C498.239 61.7046 496.991 61.5263 496.902 58.14C496.807 56.4468 496.807 53.7734 496.807 50.8326H505.279V61.7046ZM505.279 44.4164H496.807C496.807 41.832 496.807 39.5151 496.902 38.0892C496.991 36.2178 498.061 34.6138 500.823 34.5246L505.279 34.4355V44.4164ZM522.211 58.0508C522.122 60.8134 520.696 61.6154 518.379 61.6154L513.388 61.7046V50.8326H522.3C522.3 53.7734 522.3 56.4468 522.211 58.0508ZM513.388 44.4164V34.3464C519.983 34.3464 522.122 34.5246 522.211 38.0001C522.3 39.6042 522.3 41.832 522.3 44.4164H513.388Z" fill="#FFF100"/>
<path d="M483.708 35.9442C483.619 41.5585 483.53 48.5985 483.53 55.282C483.53 60.0942 483.53 64.8172 483.708 68.4709C483.886 72.0355 485.134 73.996 489.322 74.1743C494.58 74.3525 501.976 74.4417 509.462 74.4417C516.858 74.4417 524.255 74.3525 529.334 74.1743C532.899 73.996 535.127 72.2137 535.305 68.7383C535.483 64.2826 535.572 59.0248 535.572 53.5889C535.572 47.5291 535.483 41.3802 535.305 36.2116C535.305 36.1225 535.305 36.1224 535.305 36.0333C535.305 33.449 537.444 32.1123 539.672 32.1123C541.899 32.1123 544.127 33.449 544.216 36.2116C544.395 40.1326 544.395 46.1033 544.395 52.3413C544.395 58.5793 544.395 65.1737 544.216 70.4315C543.949 78.0953 538.157 82.0164 531.562 82.1946C525.413 82.462 516.947 82.551 508.66 82.551C500.372 82.551 492.263 82.462 486.738 82.1946C479.43 81.9273 475.331 78.0953 475.153 70.6097C475.064 64.9064 474.975 58.4901 474.975 51.9848C474.975 46.5488 475.064 41.1129 475.153 35.9442C475.242 33.0926 477.292 31.7559 479.341 31.7559C481.48 31.7559 483.708 33.1817 483.708 35.8551V35.9442Z" fill="#00A0E9"/>
<path d="M505.273 21.0625H478.895C476.044 21.0625 474.707 19.102 474.707 17.1415C474.707 15.0919 476.222 12.9531 478.895 12.9531H540.919C543.592 12.9531 544.929 15.0027 544.929 17.0524C544.929 19.0129 543.592 21.0625 540.919 21.0625H513.383H505.273Z" fill="#00A0E9"/>
</svg>
