<svg width="268" height="282" viewBox="0 0 268 282" fill="none" xmlns="http://www.w3.org/2000/svg">
<path d="M41.999 29.0723V3" stroke="#FF31D2" stroke-width="6" stroke-miterlimit="10" stroke-linecap="round"/>
<path d="M32.8587 32.8602L14.4224 14.4238" stroke="#FF31D2" stroke-width="6" stroke-miterlimit="10" stroke-linecap="round"/>
<path d="M29.0723 42H3" stroke="#FF31D2" stroke-width="6" stroke-miterlimit="10" stroke-linecap="round"/>
<path d="M32.8587 51.1426L14.4224 69.5789" stroke="#FF31D2" stroke-width="6" stroke-miterlimit="10" stroke-linecap="round"/>
<path d="M41.999 81.0001V54.9277" stroke="#FF31D2" stroke-width="6" stroke-miterlimit="10" stroke-linecap="round"/>
<path d="M69.578 69.5789L51.1416 51.1426" stroke="#FF31D2" stroke-width="6" stroke-miterlimit="10" stroke-linecap="round"/>
<path d="M81.0005 42H54.9282" stroke="#FF31D2" stroke-width="6" stroke-miterlimit="10" stroke-linecap="round"/>
<path d="M69.578 14.4238L51.1416 32.8602" stroke="#FF31D2" stroke-width="6" stroke-miterlimit="10" stroke-linecap="round"/>
<path d="M247 198.193L246.875 198.742C246.619 199.865 246.365 201.07 246.102 202.321C245.486 205.248 244.817 208.427 243.939 211.39C243.939 211.39 243.939 211.39 243.939 211.391L239.145 209.971L247 198.193ZM247 198.193V197.63M247 198.193V197.63M129.341 136.541C122.804 130.925 113.425 130.758 107.149 137.024L110.682 140.563L107.149 137.024C102.097 142.069 101.223 149.04 103.961 154.985C94.2784 145.302 84.5933 135.62 74.9061 125.94C74.8434 125.878 74.7782 125.812 74.7104 125.744C73.9567 124.987 72.8938 123.92 71.665 123.019L71.6591 123.015C62.108 116.033 48.6591 121.197 46.3273 132.824C45.001 139.397 47.8481 144.408 51.5799 148.132C65.7041 162.24 79.8217 176.353 93.9372 190.469L91.6088 193.439C90.0054 195.485 89.315 196.851 88.7323 198.139L129.341 136.541ZM129.341 136.541C126.41 130.529 127.007 123.454 132.213 118.263C138.981 111.515 149.18 112.407 155.8 119.015L129.341 136.541ZM247 197.63V197.609V197.588V197.568V197.547V197.526V197.506V197.485V197.464V197.444V197.423V197.402V197.382V197.361V197.34V197.32V197.299V197.278V197.257V197.237V197.216V197.195V197.175V197.154V197.133V197.113V197.092V197.071V197.051V197.03V197.009V196.989V196.968V196.947V196.926V196.906V196.885V196.864V196.844V196.823V196.802V196.782V196.761V196.74V196.72V196.699V196.678V196.658V196.637V196.616V196.595V196.575V196.554V196.533V196.513V196.492V196.471V196.451V196.43V196.409V196.389V196.368V196.347V196.327V196.306V196.285V196.264V196.244V196.223V196.202V196.182V196.161V196.14V196.12V196.099V196.078V196.058V196.037V196.016V195.996V195.975V195.954V195.933V195.913V195.892V195.871V195.851V195.83V195.809V195.789V195.768V195.747V195.727V195.706V195.685V195.665V195.644V195.623V195.602V195.582V195.561V195.54V195.52V195.499V195.478V195.458V195.437V195.416V195.396V195.375V195.354V195.334V195.313V195.292V195.271V195.251V195.23V195.209V195.189V195.168V195.147V195.127V195.106V195.085V195.065V195.044V195.023V195.003V194.982V194.961V194.94V194.92V194.899V194.878V194.858V194.837V194.816V194.796V194.775V194.754V194.734V194.713V194.692V194.671V194.651V194.63V194.609V194.589V194.568V194.547V194.527V194.506V194.485V194.465V194.444V194.423V194.403V194.382V194.361V194.34V194.32V194.299V194.278V194.258V194.237V194.216V194.196V194.175V194.154V194.134V194.113V194.092V194.071V194.051V194.03V194.009V193.989V193.968V193.947V193.927V193.906V193.885V193.865V193.844V193.823V193.802V193.782V193.761V193.74V193.72V193.699V193.678V193.658V193.637V193.616V193.596V193.575V193.554V193.533V193.513V193.492V193.471V193.451V193.43V193.409V193.389V193.368V193.347V193.327V193.306V193.285V193.264V193.244V193.223V193.202V193.182V193.161V193.14V193.12V193.099V193.078V193.058V193.037V193.016V192.995V192.975V192.954V192.933V192.913V192.892V192.871V192.851V192.83V192.809V192.789V192.768V192.747V192.726V192.706V192.685V192.664V192.644V192.623V192.602V192.582V192.561V192.54V192.519V192.499V192.478V192.457V192.437V192.416V192.395V192.375V192.354V192.333V192.313V192.292V192.271V192.25V192.23V192.209V192.188V192.168V192.147V192.126V192.106V192.085V192.064V192.043V192.023V192.002V191.981V191.961V191.94V191.919V191.899V191.878V191.857V191.836V191.816V191.795V191.774V191.754V191.733V191.712V191.692V191.671V191.65V191.63V191.609V191.588V191.567V191.547V191.526V191.505V191.485V191.464V191.443V191.423V191.402V191.381V191.36V191.34V191.319V191.298V191.278V191.257V191.236V191.216V191.195V191.174V191.153V191.133V191.112V191.091V191.071V191.05V191.029V191.008V190.988V190.967V190.946V190.926V190.905V190.884V190.864V190.843V190.822V190.801V190.781V190.76V190.739V190.719V190.698V190.677V190.657V190.636V190.615V190.594V190.574V190.553V190.532V190.512V190.491V190.47V190.45V190.429V190.408V190.387V190.367V190.346V190.325V190.305V190.284V190.263V190.242V190.222V190.201V190.18V190.16V190.139V190.118V190.098V190.077V190.056V190.035V190.015V189.994V189.973V189.953V189.932V189.911V189.89V189.87V189.849V189.828V189.808V189.787V189.766V189.746V189.725V189.704V189.683V189.663V189.642V189.621V189.601V189.58V189.559V189.538V189.518V189.497V189.476V189.456V189.435V189.414V189.393V189.373V189.352V189.331V189.311V189.29V189.269V189.249V189.228V189.207V189.186V189.166V189.145V189.124V189.104V189.083V189.062V189.041V189.021V189V188.979V188.959V188.938V188.917V188.896V188.876V188.855V188.834V188.814V188.793V188.772V188.751V188.731V188.71V188.689V188.669V188.648V188.627V188.606V188.586V188.565V188.544V188.524V188.503V188.482V188.461V188.441V188.42V188.399V188.379V188.358V188.337V188.316V188.296V188.275V188.254V188.234V188.213V188.192V188.171V188.151V188.13V188.109V188.089V188.068V188.047V188.026V188.006V187.985V187.964V187.944V187.923V187.902V187.881V187.861V187.84V187.819V187.798V187.778V187.757V187.736V187.716V187.695V187.674V187.653V187.633V187.612V187.591V187.571V187.55V187.529V187.508V187.488V187.467V187.446V187.426V187.405V187.384V187.363V187.343V187.322V187.301V187.28V187.26V187.239V187.218V187.198V187.177V187.156V187.135V187.115V187.094V187.073V187.053V187.032V186.154L246.701 185.329C246.657 185.208 246.615 185.1 246.578 185.009C246.557 184.958 246.537 184.91 246.519 184.867M247 197.63L246.519 184.867M160.284 123.488C158.209 118.835 158.411 113.494 161.181 108.859L161.182 108.858C166.49 99.9834 178.558 98.2793 186.126 105.523C189.558 108.805 192.925 112.204 196.235 115.546C197.504 116.827 198.764 118.1 200.017 119.354C200.017 119.354 200.018 119.355 200.019 119.356M160.284 123.488L200.019 119.356M160.284 123.488C158.791 121.997 157.297 120.507 155.802 119.017L160.284 123.488ZM200.019 119.356C202.906 122.241 205.776 125.125 208.641 128.003C214.825 134.216 220.984 140.403 227.235 146.528L227.237 146.529C237.972 157.052 244.703 169.724 246.519 184.867M200.019 119.356L246.519 184.867M154.635 156.26C154.425 156.055 154.214 155.85 154.007 155.643L133.908 141.014C137.575 144.668 141.234 148.332 144.889 151.991C147.017 154.121 149.144 156.25 151.269 158.375C151.27 158.376 151.271 158.377 151.272 158.378C151.561 158.667 151.85 158.955 152.139 159.244L152.14 159.246C152.444 159.549 152.644 159.755 152.791 159.908C153.022 160.147 153.125 160.253 153.296 160.39L153.306 160.398L153.316 160.407C153.332 160.42 153.341 160.425 153.34 160.426C153.34 160.426 153.33 160.421 153.31 160.413C153.303 160.41 153.294 160.407 153.284 160.404C153.239 160.39 153.165 160.375 153.064 160.377C152.956 160.38 152.852 160.404 152.764 160.441C152.676 160.478 152.63 160.517 152.622 160.525L152.928 160.847L152.942 160.862L152.944 160.864L152.944 160.864L156.065 164.151C157.737 162.562 157.897 159.939 156.354 158.061C155.831 157.423 155.233 156.842 154.635 156.26ZM127.29 180.029C127.289 180.029 127.288 180.026 127.286 180.02C127.289 180.026 127.29 180.029 127.29 180.029ZM148.994 163.178C149.368 163.563 149.745 163.951 150.161 164.286L141.342 155.515C143.762 157.937 146.182 160.36 148.605 162.781C148.735 162.911 148.864 163.044 148.994 163.178ZM128.227 179.159C128.234 179.161 128.237 179.163 128.237 179.163C128.237 179.163 128.234 179.162 128.227 179.159ZM181.363 144.496C181.363 144.496 181.36 144.495 181.353 144.492C181.36 144.494 181.363 144.496 181.363 144.496Z" fill="#FAFF00" stroke="#FAFF00" stroke-width="10"/>
<path d="M263 183.193L262.875 183.742C262.619 184.865 262.365 186.07 262.102 187.321C261.486 190.248 260.817 193.427 259.939 196.39C259.939 196.39 259.939 196.39 259.939 196.391L255.145 194.971L263 183.193ZM263 183.193V182.63M263 183.193V182.63M145.341 121.541C138.804 115.925 129.425 115.758 123.149 122.024L126.682 125.563L123.149 122.024C118.097 127.069 117.223 134.04 119.961 139.985C110.278 130.302 100.593 120.62 90.9061 110.94C90.8434 110.878 90.7782 110.812 90.7104 110.744C89.9567 109.987 88.8938 108.92 87.665 108.019L87.6591 108.015C78.108 101.033 64.6591 106.197 62.3273 117.824C61.001 124.397 63.8481 129.408 67.5799 133.132C81.7041 147.24 95.8217 161.353 109.937 175.469L107.609 178.439C106.005 180.485 105.315 181.851 104.732 183.139L145.341 121.541ZM145.341 121.541C142.41 115.529 143.007 108.454 148.213 103.263C154.981 96.5146 165.18 97.4066 171.8 104.015L145.341 121.541ZM263 182.63V182.609V182.588V182.568V182.547V182.526V182.506V182.485V182.464V182.444V182.423V182.402V182.382V182.361V182.34V182.32V182.299V182.278V182.257V182.237V182.216V182.195V182.175V182.154V182.133V182.113V182.092V182.071V182.051V182.03V182.009V181.989V181.968V181.947V181.926V181.906V181.885V181.864V181.844V181.823V181.802V181.782V181.761V181.74V181.72V181.699V181.678V181.658V181.637V181.616V181.595V181.575V181.554V181.533V181.513V181.492V181.471V181.451V181.43V181.409V181.389V181.368V181.347V181.327V181.306V181.285V181.264V181.244V181.223V181.202V181.182V181.161V181.14V181.12V181.099V181.078V181.058V181.037V181.016V180.996V180.975V180.954V180.933V180.913V180.892V180.871V180.851V180.83V180.809V180.789V180.768V180.747V180.727V180.706V180.685V180.665V180.644V180.623V180.602V180.582V180.561V180.54V180.52V180.499V180.478V180.458V180.437V180.416V180.396V180.375V180.354V180.334V180.313V180.292V180.271V180.251V180.23V180.209V180.189V180.168V180.147V180.127V180.106V180.085V180.065V180.044V180.023V180.003V179.982V179.961V179.94V179.92V179.899V179.878V179.858V179.837V179.816V179.796V179.775V179.754V179.734V179.713V179.692V179.671V179.651V179.63V179.609V179.589V179.568V179.547V179.527V179.506V179.485V179.465V179.444V179.423V179.403V179.382V179.361V179.34V179.32V179.299V179.278V179.258V179.237V179.216V179.196V179.175V179.154V179.134V179.113V179.092V179.071V179.051V179.03V179.009V178.989V178.968V178.947V178.927V178.906V178.885V178.865V178.844V178.823V178.802V178.782V178.761V178.74V178.72V178.699V178.678V178.658V178.637V178.616V178.596V178.575V178.554V178.533V178.513V178.492V178.471V178.451V178.43V178.409V178.389V178.368V178.347V178.327V178.306V178.285V178.264V178.244V178.223V178.202V178.182V178.161V178.14V178.12V178.099V178.078V178.058V178.037V178.016V177.995V177.975V177.954V177.933V177.913V177.892V177.871V177.851V177.83V177.809V177.789V177.768V177.747V177.726V177.706V177.685V177.664V177.644V177.623V177.602V177.582V177.561V177.54V177.519V177.499V177.478V177.457V177.437V177.416V177.395V177.375V177.354V177.333V177.313V177.292V177.271V177.25V177.23V177.209V177.188V177.168V177.147V177.126V177.106V177.085V177.064V177.043V177.023V177.002V176.981V176.961V176.94V176.919V176.899V176.878V176.857V176.836V176.816V176.795V176.774V176.754V176.733V176.712V176.692V176.671V176.65V176.63V176.609V176.588V176.567V176.547V176.526V176.505V176.485V176.464V176.443V176.423V176.402V176.381V176.36V176.34V176.319V176.298V176.278V176.257V176.236V176.216V176.195V176.174V176.153V176.133V176.112V176.091V176.071V176.05V176.029V176.008V175.988V175.967V175.946V175.926V175.905V175.884V175.864V175.843V175.822V175.801V175.781V175.76V175.739V175.719V175.698V175.677V175.657V175.636V175.615V175.594V175.574V175.553V175.532V175.512V175.491V175.47V175.45V175.429V175.408V175.387V175.367V175.346V175.325V175.305V175.284V175.263V175.242V175.222V175.201V175.18V175.16V175.139V175.118V175.098V175.077V175.056V175.035V175.015V174.994V174.973V174.953V174.932V174.911V174.89V174.87V174.849V174.828V174.808V174.787V174.766V174.746V174.725V174.704V174.683V174.663V174.642V174.621V174.601V174.58V174.559V174.538V174.518V174.497V174.476V174.456V174.435V174.414V174.393V174.373V174.352V174.331V174.311V174.29V174.269V174.249V174.228V174.207V174.186V174.166V174.145V174.124V174.104V174.083V174.062V174.041V174.021V174V173.979V173.959V173.938V173.917V173.896V173.876V173.855V173.834V173.814V173.793V173.772V173.751V173.731V173.71V173.689V173.669V173.648V173.627V173.606V173.586V173.565V173.544V173.524V173.503V173.482V173.461V173.441V173.42V173.399V173.379V173.358V173.337V173.316V173.296V173.275V173.254V173.234V173.213V173.192V173.171V173.151V173.13V173.109V173.089V173.068V173.047V173.026V173.006V172.985V172.964V172.944V172.923V172.902V172.881V172.861V172.84V172.819V172.798V172.778V172.757V172.736V172.716V172.695V172.674V172.653V172.633V172.612V172.591V172.571V172.55V172.529V172.508V172.488V172.467V172.446V172.426V172.405V172.384V172.363V172.343V172.322V172.301V172.28V172.26V172.239V172.218V172.198V172.177V172.156V172.135V172.115V172.094V172.073V172.053V172.032V171.154L262.701 170.329C262.657 170.208 262.615 170.1 262.578 170.009C262.557 169.958 262.537 169.91 262.519 169.867M263 182.63L262.519 169.867M176.284 108.488C174.209 103.835 174.411 98.4942 177.181 93.8593L177.182 93.8579C182.49 84.9834 194.558 83.2793 202.126 90.5228C205.558 93.8046 208.925 97.204 212.235 100.546C213.504 101.827 214.764 103.1 216.017 104.354C216.017 104.354 216.018 104.355 216.019 104.356M176.284 108.488L216.019 104.356M176.284 108.488C174.791 106.997 173.297 105.507 171.802 104.017L176.284 108.488ZM216.019 104.356C218.906 107.241 221.776 110.125 224.641 113.003C230.825 119.216 236.984 125.403 243.235 131.528L243.237 131.529C253.972 142.052 260.703 154.724 262.519 169.867M216.019 104.356L262.519 169.867M170.635 141.26C170.425 141.055 170.214 140.85 170.007 140.643L149.908 126.014C153.575 129.668 157.234 133.332 160.889 136.991C163.017 139.121 165.144 141.25 167.269 143.375C167.27 143.376 167.271 143.377 167.272 143.378C167.561 143.667 167.85 143.955 168.139 144.244L168.14 144.246C168.444 144.549 168.644 144.755 168.791 144.908C169.022 145.147 169.125 145.253 169.296 145.39L169.306 145.398L169.316 145.407C169.332 145.42 169.341 145.425 169.34 145.426C169.34 145.426 169.33 145.421 169.31 145.413C169.303 145.41 169.294 145.407 169.284 145.404C169.239 145.39 169.165 145.375 169.064 145.377C168.956 145.38 168.852 145.404 168.764 145.441C168.676 145.478 168.63 145.517 168.622 145.525L168.928 145.847L168.942 145.862L168.944 145.864L168.944 145.864L172.065 149.151C173.737 147.562 173.897 144.939 172.354 143.061C171.831 142.423 171.233 141.842 170.635 141.26ZM143.29 165.029C143.289 165.029 143.288 165.026 143.286 165.02C143.289 165.026 143.29 165.029 143.29 165.029ZM164.994 148.178C165.368 148.563 165.745 148.951 166.161 149.286L157.342 140.515C159.762 142.937 162.182 145.36 164.605 147.781C164.735 147.911 164.864 148.044 164.994 148.178ZM144.227 164.159C144.234 164.161 144.237 164.163 144.237 164.163C144.237 164.163 144.234 164.162 144.227 164.159ZM197.363 129.496C197.363 129.496 197.36 129.495 197.353 129.492C197.36 129.494 197.363 129.496 197.363 129.496Z" fill="#00FFE4" stroke="black" stroke-width="10"/>
</svg>
