<svg width="292" height="309" viewBox="0 0 292 309" fill="none" xmlns="http://www.w3.org/2000/svg">
<path fill-rule="evenodd" clip-rule="evenodd" d="M43.966 148.056L233.931 74.2296L160.104 264.194L117.58 221.67L73.614 265.636L42.526 234.548L86.4921 190.582L43.966 148.056Z" fill="black"/>
<path fill-rule="evenodd" clip-rule="evenodd" d="M48.02 119.428L220.029 52.5797L153.181 224.589L114.676 186.084L74.866 225.894L46.7165 197.745L86.5267 157.935L48.02 119.428Z" fill="white"/>
<path d="M220.029 52.5797L218.218 47.9193L228.803 43.8054L224.689 54.3909L220.029 52.5797ZM48.02 119.428L44.4844 122.963L39.0648 117.544L46.2088 114.767L48.02 119.428ZM153.181 224.589L157.841 226.4L155.065 233.544L149.645 228.124L153.181 224.589ZM114.676 186.084L111.141 182.549L114.676 179.013L118.212 182.549L114.676 186.084ZM74.866 225.894L78.4016 229.43L74.866 232.965L71.3305 229.43L74.866 225.894ZM46.7165 197.745L43.181 201.28L39.6454 197.745L43.181 194.209L46.7165 197.745ZM86.5267 157.935L90.0623 154.399L93.5978 157.935L90.0623 161.47L86.5267 157.935ZM221.84 57.2401L49.8312 124.088L46.2088 114.767L218.218 47.9193L221.84 57.2401ZM148.52 222.777L215.369 50.7685L224.689 54.3909L157.841 226.4L148.52 222.777ZM118.212 182.549L156.716 221.053L149.645 228.124L111.141 189.62L118.212 182.549ZM71.3305 222.359L111.141 182.549L118.212 189.62L78.4016 229.43L71.3305 222.359ZM50.252 194.209L78.4016 222.359L71.3305 229.43L43.181 201.28L50.252 194.209ZM90.0623 161.47L50.252 201.28L43.181 194.209L82.9912 154.399L90.0623 161.47ZM51.5555 115.892L90.0623 154.399L82.9912 161.47L44.4844 122.963L51.5555 115.892Z" fill="black"/>
</svg>
