<svg width="1350" height="2772" viewBox="0 0 1350 2772" fill="none" xmlns="http://www.w3.org/2000/svg">
<rect x="5" y="5" width="1340" height="2762" fill="#FFF3D2" stroke="black" stroke-width="10"/>
<mask id="mask0_398_207" style="mask-type:alpha" maskUnits="userSpaceOnUse" x="0" y="0" width="1350" height="1736">
<rect x="5" y="5" width="1340" height="1726" fill="#FFF3D2" stroke="black" stroke-width="10"/>
</mask>
<g mask="url(#mask0_398_207)">
<path d="M85.0352 -74V1946" stroke="#FFD4AD" stroke-width="3" stroke-miterlimit="10"/>
<path d="M232.524 -74V1946" stroke="#FFD4AD" stroke-width="3" stroke-miterlimit="10"/>
<path d="M380.014 -74V1946" stroke="#FFD4AD" stroke-width="3" stroke-miterlimit="10"/>
<path d="M527.502 -74V1946" stroke="#FFD4AD" stroke-width="3" stroke-miterlimit="10"/>
<path d="M675.008 -74V1946" stroke="#FFD4AD" stroke-width="3" stroke-miterlimit="10"/>
<path d="M822.498 -74V1946" stroke="#FFD4AD" stroke-width="3" stroke-miterlimit="10"/>
<path d="M969.987 -74V1946" stroke="#FFD4AD" stroke-width="3" stroke-miterlimit="10"/>
<path d="M1117.48 -74V1946" stroke="#FFD4AD" stroke-width="3" stroke-miterlimit="10"/>
<path d="M1264.96 -74V1946" stroke="#FFD4AD" stroke-width="3" stroke-miterlimit="10"/>
<path d="M1685 51.041H-335" stroke="#FFD4AD" stroke-width="3" stroke-miterlimit="10"/>
<path d="M1685 198.545H-335" stroke="#FFD4AD" stroke-width="3" stroke-miterlimit="10"/>
<path d="M1685 346.035H-335" stroke="#FFD4AD" stroke-width="3" stroke-miterlimit="10"/>
<path d="M1685 493.523H-335" stroke="#FFD4AD" stroke-width="3" stroke-miterlimit="10"/>
<path d="M1685 641.014H-335" stroke="#FFD4AD" stroke-width="3" stroke-miterlimit="10"/>
<path d="M1685 788.502H-335" stroke="#FFD4AD" stroke-width="3" stroke-miterlimit="10"/>
<path d="M1685 936.008H-335" stroke="#FFD4AD" stroke-width="3" stroke-miterlimit="10"/>
<path d="M1685 1083.5H-335" stroke="#FFD4AD" stroke-width="3" stroke-miterlimit="10"/>
<path d="M1685 1230.99H-335" stroke="#FFD4AD" stroke-width="3" stroke-miterlimit="10"/>
<path d="M1685 1378.48H-335" stroke="#FFD4AD" stroke-width="3" stroke-miterlimit="10"/>
<path d="M1685 1525.96H-335" stroke="#FFD4AD" stroke-width="3" stroke-miterlimit="10"/>
<path d="M1685 1673.45H-335" stroke="#FFD4AD" stroke-width="3" stroke-miterlimit="10"/>
</g>
<mask id="mask1_398_207" style="mask-type:alpha" maskUnits="userSpaceOnUse" x="0" y="874" width="1350" height="1894">
<rect x="5" y="879" width="1340" height="1884" fill="#FFF3D2" stroke="black" stroke-width="10"/>
</mask>
<g mask="url(#mask1_398_207)">
<path d="M85.0352 811V2831" stroke="#FFD4AD" stroke-width="3" stroke-miterlimit="10"/>
<path d="M232.524 811V2831" stroke="#FFD4AD" stroke-width="3" stroke-miterlimit="10"/>
<path d="M380.014 811V2831" stroke="#FFD4AD" stroke-width="3" stroke-miterlimit="10"/>
<path d="M527.502 811V2831" stroke="#FFD4AD" stroke-width="3" stroke-miterlimit="10"/>
<path d="M675.008 811V2831" stroke="#FFD4AD" stroke-width="3" stroke-miterlimit="10"/>
<path d="M822.498 811V2831" stroke="#FFD4AD" stroke-width="3" stroke-miterlimit="10"/>
<path d="M969.987 811V2831" stroke="#FFD4AD" stroke-width="3" stroke-miterlimit="10"/>
<path d="M1117.48 811V2831" stroke="#FFD4AD" stroke-width="3" stroke-miterlimit="10"/>
<path d="M1264.96 811V2831" stroke="#FFD4AD" stroke-width="3" stroke-miterlimit="10"/>
<path d="M1685 936.041H-335" stroke="#FFD4AD" stroke-width="3" stroke-miterlimit="10"/>
<path d="M1685 1083.54H-335" stroke="#FFD4AD" stroke-width="3" stroke-miterlimit="10"/>
<path d="M1685 1231.04H-335" stroke="#FFD4AD" stroke-width="3" stroke-miterlimit="10"/>
<path d="M1685 1378.52H-335" stroke="#FFD4AD" stroke-width="3" stroke-miterlimit="10"/>
<path d="M1685 1526.01H-335" stroke="#FFD4AD" stroke-width="3" stroke-miterlimit="10"/>
<path d="M1685 1673.5H-335" stroke="#FFD4AD" stroke-width="3" stroke-miterlimit="10"/>
<path d="M1685 1821.01H-335" stroke="#FFD4AD" stroke-width="3" stroke-miterlimit="10"/>
<path d="M1685 1968.5H-335" stroke="#FFD4AD" stroke-width="3" stroke-miterlimit="10"/>
<path d="M1685 2115.99H-335" stroke="#FFD4AD" stroke-width="3" stroke-miterlimit="10"/>
<path d="M1685 2263.48H-335" stroke="#FFD4AD" stroke-width="3" stroke-miterlimit="10"/>
<path d="M1685 2410.96H-335" stroke="#FFD4AD" stroke-width="3" stroke-miterlimit="10"/>
<path d="M1685 2558.45H-335" stroke="#FFD4AD" stroke-width="3" stroke-miterlimit="10"/>
<path d="M1685 2705.96H-335" stroke="#FFD4AD" stroke-width="3" stroke-miterlimit="10"/>
</g>
<rect x="5" y="5" width="1340" height="2762" stroke="black" stroke-width="10"/>
</svg>
