<svg width="601" height="95" viewBox="0 0 601 95" fill="none" xmlns="http://www.w3.org/2000/svg">
<path d="M312.151 27.1154C306.646 23.7944 299.961 22.0391 292.82 22.0391C284.124 22.0391 275.608 24.6179 268.83 29.2988C262.226 33.8823 257.111 40.6762 254.408 48.4344C251.569 56.5936 251.824 64.6552 255.118 71.1457C258.59 77.9396 264.328 81.9867 270.466 81.9867C274.329 81.9867 278.105 80.3884 281.388 77.3599C282.597 76.2384 283.805 74.9545 284.98 73.5405C283.87 75.3229 283.393 77.4033 283.631 79.4946C284.211 84.5331 288.616 88.19 294.104 88.19C295.253 88.19 296.439 88.033 297.631 87.7187C308.066 84.9773 317.411 78.5735 322.038 70.994C326.746 63.252 328.279 54.096 326.248 45.861C324.341 38.0811 319.329 31.4226 312.151 27.1154ZM279.292 44.2086C279.357 44.1544 279.427 44.1056 279.498 44.0568C277.699 49.9351 274.616 56.1276 271.436 60.023C270.786 55.7267 273.749 48.5048 279.292 44.2086ZM300.226 41.3913C300.779 41.6622 301.32 41.971 301.846 42.3069C304.772 44.1706 306.722 47.042 307.356 50.4173C308.028 53.9876 307.177 57.883 304.961 61.372C303.043 64.3951 297.691 67.4725 292.229 68.6969L292.208 68.7023L292.186 68.7077C289.867 69.2441 287.895 70.2952 286.416 71.7634C292.852 63.3604 298.384 51.3817 300.226 41.3913Z" fill="black"/>
<path d="M415.023 28.649C414.606 28.3185 414.156 28.0313 413.69 27.7713C414.807 26.2489 415.424 24.4395 415.424 22.4836C415.424 17.2447 411.036 12.8183 405.846 12.8183C404.302 12.8183 402.86 13.1758 401.566 13.8856C399.263 15.0504 396.283 16.3127 392.94 17.5534C392.957 16.7733 392.968 16.031 392.968 15.3755V15.2888C392.968 10.0282 388.888 6.05692 383.476 6.05692C378.134 6.05692 374.097 10.0335 374.07 15.3158C374.059 15.8197 374.054 16.4049 374.043 17.0604C373.615 17.0063 373.176 16.9791 372.727 16.9791H364.708V14.7686C364.708 9.7355 360.575 5.79688 355.303 5.79688C349.983 5.79688 345.811 9.7355 345.811 14.7686V36.6402C345.714 36.6565 345.611 36.6728 345.513 36.689C344.549 36.8407 343.557 36.9924 342.588 37.1603C337.695 37.8809 334.288 41.6354 334.288 46.3271C334.288 48.7706 335.312 51.1544 337.099 52.8664C338.914 54.6055 341.412 55.5591 344.126 55.5591C344.944 55.5591 346.944 55.2503 349.658 54.7086C348.623 56.491 348.016 58.5334 347.908 60.6842C347.729 63.7182 347.642 66.9039 347.642 70.1654C347.642 73.4106 347.735 76.5529 347.913 79.511C348.358 87.0742 354.133 92.2049 362.623 92.5733H362.639H362.655C367.314 92.7467 372.662 92.8388 378.112 92.8388C382.804 92.8388 387.609 92.7467 391.749 92.6654H391.776H391.803C399.805 92.4162 406.079 86.7438 406.409 79.4623C406.582 76.4013 406.674 73.0693 406.674 69.8241C406.674 66.4867 406.582 63.1439 406.409 60.1587C406.274 57.6557 405.282 55.3315 403.689 53.3974C406.089 52.9314 408.164 52.2217 410.006 51.2574C413.945 49.1932 418.642 44.9023 418.642 36.1851C418.637 33.1566 417.353 30.4802 415.023 28.649ZM399.22 35.405C399.22 35.5133 399.22 35.6054 399.214 35.6921C398.602 35.8492 397.35 36.0551 395.015 36.0551C394.739 36.0551 394.49 36.0496 394.252 36.0442C395.888 35.6216 397.573 35.1667 399.252 34.6736C399.236 34.912 399.22 35.1557 399.22 35.405Z" fill="black"/>
<path d="M502.997 71.8229C501.015 70.6581 499.107 69.2495 497.33 67.6513C501.876 64.807 505.322 61.5021 505.322 57.1624C505.322 55.9326 505.056 54.7354 504.59 53.6356C506.183 52.0861 507.147 49.8864 507.147 47.3672C507.147 43.3363 504.514 40.0423 500.836 39.0563C501.101 38.2165 501.253 37.3117 501.253 36.3582C501.253 35.2747 501.058 34.2562 500.717 33.3189C503.409 31.8724 505.154 29.1038 505.154 25.7827C505.154 20.9175 501.334 17.2443 496.269 17.2443H495.727C495.835 16.7133 495.878 16.1878 495.878 15.6407C495.878 13.0347 494.622 10.5209 492.427 8.74384C490.596 7.25937 488.234 6.40874 485.953 6.40874C482.345 6.40874 479.295 8.42412 477.794 11.794L477.751 11.8862L477.713 11.9782C477.323 12.9588 476.748 14.1561 476.06 15.4618C475.15 14.0532 474.029 12.791 472.999 11.7724C470.762 9.56197 467.359 6.92341 463.849 6.92341C458.75 6.92341 454.443 10.9542 454.443 15.7219C454.443 16.437 454.535 17.1305 454.72 17.8023C453.311 18.317 452.081 19.1622 451.128 20.2403C451.187 17.3472 451.236 15.4673 451.236 15.4294V15.3589V15.2885V15.2018C451.236 9.98988 447.118 6.05664 441.657 6.05664C436.099 6.05664 431.905 9.98988 431.905 15.2018V15.2885V15.3372V15.386L432.062 24.1736H429.256C423.367 24.1736 419.851 28.9576 419.851 33.579C419.851 38.7421 423.822 42.6375 429.083 42.6375H429.256H429.31H429.364L429.782 42.6266C426.618 48.2069 422.852 53.1533 420.111 55.9488C418.177 57.8884 417.158 60.256 417.158 62.7916C417.158 67.8409 421.547 72.1101 426.737 72.1101C428.633 72.1101 430.47 71.5467 432.057 70.5065L431.895 85.1833V85.2157V85.2482V85.3348C431.895 90.498 436.05 94.3935 441.56 94.3935C446.755 94.3935 450.743 90.9315 451.187 86.2126C451.827 86.348 452.493 86.4184 453.181 86.4184C453.306 86.4184 453.452 86.4185 453.62 86.4131C454.227 89.2033 456.069 91.4407 458.864 92.7085C461.042 93.6945 463.778 94.1334 467.744 94.1334C471.807 94.1334 477.48 93.2395 481.462 88.9811C483.363 86.9495 484.631 84.3813 485.173 81.5478C489.274 86.1258 493.831 89.539 497.991 89.539C500.657 89.539 503.149 88.4718 505.013 86.5269C506.752 84.7173 507.743 82.2901 507.743 79.8738C507.749 76.5311 506.021 73.6 502.997 71.8229ZM453.186 64.5198L453.235 64.5415L453.284 64.5632C453.685 64.7528 454.08 64.9262 454.465 65.0941C454.958 65.3108 455.424 65.5167 455.884 65.7442C454.346 66.5081 452.775 67.1583 450.987 67.7922C450.965 66.1939 450.949 64.5577 450.927 62.9162C451.561 63.55 452.32 64.0864 453.186 64.5198Z" fill="black"/>
<path d="M589.763 62.657C581.707 58.4799 573.444 52.1519 565.459 46.0299C562.089 43.4456 558.605 40.78 555.257 38.3745C550.657 35.0534 546.48 33.5039 542.124 33.5039C537.877 33.5039 533.705 35.01 529.36 38.1036C525.02 41.1701 518.687 44.9787 516.829 45.9431C512.261 48.3432 510.029 52.7641 511.124 57.2175C512.256 61.8064 516.601 65.1384 521.461 65.1384C523.411 65.1384 525.367 64.5911 527.112 63.5617C530.882 61.3567 534.214 58.6153 537.438 55.9606C538.511 55.0775 539.524 54.2486 540.548 53.4359C541.431 52.7424 541.886 52.5094 542.065 52.439C542.281 52.5094 542.915 52.775 544.188 53.7177C547.677 56.3019 551.692 59.791 555.95 63.4913C563.817 70.3232 571.955 77.3878 579.247 81.0069C580.959 81.8521 582.72 82.2801 584.486 82.2801C589.465 82.2801 593.772 78.8345 594.953 73.9043C596.047 69.3154 593.962 64.8024 589.763 62.657Z" fill="black"/>
<path d="M155.853 72.1323C149.043 68.8113 143.105 65.138 137.942 61.0313L149.439 61.1885H149.477H149.515H149.601C154.667 61.1885 158.486 57.2931 158.486 52.13C158.486 46.9993 154.548 42.9847 149.515 42.9847L142.244 43.0227C144.119 39.5661 144.259 38.087 144.27 37.3123C148.967 36.9168 152.419 33.1352 152.419 28.205C152.419 23.0744 148.48 19.0599 143.447 19.0599H125.942C125.958 17.6296 125.98 16.1613 125.98 14.6822C125.98 9.47035 121.824 5.53711 116.314 5.53711C110.902 5.53711 106.823 9.47035 106.823 14.6822V14.7039V14.7256L106.86 19.0544H87.882C82.7514 19.0544 78.7368 23.1069 78.7368 28.2863C78.7368 33.2111 82.318 36.971 87.1669 37.3123C87.2861 38.9647 87.9416 41.0939 90.0654 43.001L83.9921 42.9847C78.8452 42.9847 74.8306 47.0426 74.8306 52.2166C74.8306 57.331 78.726 61.1885 83.8891 61.1885H83.9758H84.0137H84.0516L95.6186 61.0259C90.255 65.8802 84.2142 69.9977 77.3715 73.4759C73.8229 75.2584 71.71 78.4549 71.71 82.0415C71.71 87.3238 76.1254 91.6201 81.5486 91.6201C83.434 91.6201 85.314 91.0783 87.1398 90.0164C94.405 85.8231 100.998 81.0229 106.844 75.6647L106.73 86.0614V86.0885V86.1157V86.2023C106.73 91.2192 110.848 95.0008 116.309 95.0008C121.868 95.0008 126.061 91.1813 126.061 86.1157C126.061 82.3395 126.023 78.5524 125.98 74.8195C128.694 77.3063 131.56 79.7334 134.448 81.971C145.787 90.7586 149.563 90.7586 150.988 90.7586C156.65 90.7586 161.434 86.1319 161.434 80.6599C161.434 76.9921 159.348 73.8064 155.853 72.1323Z" fill="black"/>
<path d="M238.279 40.996H235.695C236.47 39.4195 236.936 37.6424 237.017 35.6812C237.109 34.1425 237.109 32.4901 237.109 30.8972C237.109 26.9964 236.985 23.6917 236.741 21.0749C236.242 14.7415 230.196 9.37784 223.234 9.10153H223.213H223.191C220.222 9.00943 217.307 8.92284 214.268 8.92284C211.153 8.92284 207.978 9.01485 205.182 9.09611C201.233 9.22072 197.819 10.6132 195.295 13.1162C192.965 15.4296 191.594 18.5339 191.437 21.8658C191.367 23.1769 191.286 24.7589 191.221 26.4276C190.663 26.3192 190.077 26.2597 189.476 26.2597H188.999V17.2879C188.999 12.076 184.92 8.14258 179.507 8.14258C174.144 8.14258 170.102 12.076 170.102 17.2879V26.2597H169.105C164.072 26.2597 160.133 30.3121 160.133 35.4915C160.133 40.5571 163.991 44.3767 169.105 44.3767H170.129L170.173 53.8795C168.715 54.3563 167.22 54.8222 165.773 55.2285C161.672 56.3283 158.925 59.9149 158.925 64.1841C158.925 69.3635 162.94 73.4159 168.07 73.4159C168.943 73.4159 170.601 73.4159 176.436 71.1513C176.436 71.1947 176.436 71.2434 176.436 71.2922C176.436 74.9546 178.76 78.1945 182.01 79.6356C181.821 80.3508 181.723 81.0984 181.723 81.8677C181.723 86.9604 185.862 91.0996 190.955 91.0996C192.705 91.0996 194.623 90.5091 196.519 89.6206C198.031 92.6491 201.222 94.7403 204.911 94.7403C207.387 94.7403 210.4 93.3805 213.255 91.5168C213.569 91.7389 213.899 91.9447 214.246 92.1343C216.354 93.2775 219.008 93.7868 222.855 93.7868C231.209 93.7868 237.694 89.4363 240.642 81.846C242.299 77.6364 243.356 69.553 243.356 65.831C243.356 62.77 242.722 60.1371 241.476 57.9537C244.867 56.7347 247.17 53.5978 247.17 49.7079C247.165 44.7398 243.345 40.996 238.279 40.996Z" fill="black"/>
<path d="M71.087 15.609L71.0653 15.5819L71.0437 15.5549C68.5407 12.4288 63.5834 9.22144 61.0208 8.04036C59.7585 7.44983 58.404 7.14648 57.0171 7.14648C53.2029 7.14648 49.7681 9.51398 48.4786 12.8947C48.0181 12.8242 47.5522 12.7863 47.0809 12.7863C43.0284 12.7863 39.3714 15.5169 38.3908 19.2714C38.0332 20.6475 38.0494 22.0236 38.407 23.3076C35.1943 23.0042 32.014 22.923 29.5056 22.923C24.3695 22.923 19.2064 23.2697 14.9697 23.8928C11.9087 24.3425 9.32439 25.6699 7.50944 27.7449C5.71074 29.7982 4.82764 32.3933 5.02268 35.048C5.39109 40.1245 9.48151 43.8139 14.7422 43.8139C15.4898 43.8139 16.2591 43.7381 17.0285 43.5919C20.6205 42.893 24.3804 42.5461 28.2162 42.5461C32.4962 42.5461 36.6679 42.9796 40.6283 43.8302C41.5385 44.0198 42.4162 44.1174 43.2722 44.1174C48.1861 44.1174 52.1844 40.9805 53.1975 36.5108C53.4793 36.5379 53.761 36.5596 54.0481 36.5596C57.3584 36.5596 60.5169 34.5333 62.0989 31.3964C62.2452 31.1039 62.3752 30.8004 62.489 30.5024C63.0308 30.6162 63.5834 30.6867 64.1468 30.6867C67.4734 30.6867 70.6265 28.6388 72.1814 25.464C73.7634 22.2079 73.3571 18.5237 71.087 15.609Z" fill="black"/>
<path d="M49.9143 65.5126C48.8199 65.5126 47.6876 65.6697 46.5553 65.9839L46.539 65.9893L46.5228 65.9947C40.8449 67.6147 35.4055 68.4653 30.795 68.4653C24.6512 68.4653 20.1382 67.0349 17.3806 64.2123C14.6283 61.4113 11.7515 60.8262 9.82275 60.8262C6.19284 60.8262 2.86091 62.8959 1.13264 66.2278C-0.61188 69.5977 -0.324738 73.6285 1.8803 76.7599C4.56209 80.5253 9.18345 83.6134 15.2622 85.6993C20.7612 87.5901 27.1596 88.5868 33.7693 88.5868C40.0268 88.5868 46.2898 87.6604 51.8755 85.9105C58.3118 83.9222 60.5439 78.3202 59.8884 73.9589C59.1353 68.9853 55.0341 65.5126 49.9143 65.5126Z" fill="black"/>
<path d="M392.8 19.757C398.348 18.0234 404.762 15.6829 409.53 13.2557C410.137 12.909 410.743 12.8223 411.264 12.8223C413.517 12.8223 415.424 14.9026 415.424 17.0697C415.424 18.5434 414.558 19.9304 412.564 20.7972C407.103 23.1377 398.781 25.3914 392.8 26.6917V19.757Z" stroke="black" stroke-width="10"/>
<path d="M411.269 12.823C413.523 12.823 415.43 14.9034 415.43 17.0705C415.43 18.5441 414.563 19.9311 412.569 20.798C407.108 23.1385 398.787 25.3922 392.805 26.6925V19.7578C398.353 18.0241 404.768 15.6836 409.536 13.2565C410.142 12.9097 410.749 12.823 411.269 12.823ZM411.269 12.2812C410.516 12.2812 409.861 12.4437 409.265 12.7851C403.69 15.624 396.457 18.0457 392.643 19.2376L392.264 19.3569V19.7578V26.6925V27.3642L392.919 27.2235C398.57 25.9937 407.163 23.7073 412.781 21.2964C414.84 20.4024 415.972 18.9017 415.972 17.0705C415.972 14.5187 413.772 12.2812 411.269 12.2812Z" stroke="black" stroke-width="10"/>
<path d="M197.982 47.0728C199.283 48.0968 199.424 49.76 198.622 51.1578C198.497 51.38 198.351 51.5912 198.188 51.7862C197.809 52.2468 197.338 52.6694 196.801 52.9511C190.387 56.3318 176.604 62.5731 173.483 62.5731C171.056 62.5731 169.756 60.666 169.756 58.759C169.756 57.1987 170.623 55.5516 172.616 55.0315C175.39 54.2513 178.251 53.2978 181.025 52.3443L180.938 33.5338H188.913V49.137C190.82 48.2702 192.554 47.4899 194.212 46.6177C195.393 45.9946 196.926 46.2493 197.966 47.062C197.972 47.0674 197.977 47.0728 197.982 47.0728ZM180.938 26.2578V11.8681C180.938 9.35428 182.932 8.14062 184.926 8.14062C187.006 8.14062 189 9.35428 189 11.8681V26.2578H180.938ZM228.701 37.3534C225.841 37.5267 222.633 37.6134 219.426 37.6134C205.383 37.6134 201.916 37.0933 201.916 27.2113C201.916 23.8306 202.089 19.8431 202.263 16.7224C202.436 12.9083 205.296 9.26753 210.758 9.09416C213.705 9.00747 216.739 8.92089 219.686 8.92089C222.72 8.92089 225.667 9.00747 228.441 9.09416C232.775 9.26753 236.503 12.5616 236.763 16.1157C237.023 18.8896 237.11 22.2702 237.11 25.4775C237.11 27.0378 237.11 28.5982 237.023 29.9851C236.85 34.4927 233.642 37.0933 228.701 37.3534ZM229.308 26.171H209.284C209.284 31.2854 209.371 31.4587 219.079 31.4587C228.441 31.4587 229.221 31.1988 229.308 28.4249V26.171ZM229.135 18.6295C228.961 15.3355 228.441 15.2488 219.599 15.2488C210.671 15.2488 209.717 15.2488 209.544 18.7161L209.457 20.1031H229.221L229.135 18.6295ZM235.463 51.7429H229.135C223.587 51.7429 217.346 51.7429 212.318 51.8296C213.271 50.4427 214.225 49.0558 215.092 47.6688H206.77C202.263 54.4302 197.235 58.9378 189.173 63.0986C187.873 63.7921 187.266 64.8322 187.266 65.8725C187.266 67.6928 188.913 69.6 191.167 69.6C194.114 69.6 202.783 63.0119 207.464 57.8975C209.111 57.8975 210.931 57.8109 212.751 57.8109C208.417 65.0057 202.436 70.12 194.548 73.5007C193.161 74.1075 192.554 75.2344 192.554 76.448C192.554 78.355 194.027 80.2621 196.368 80.2621C200.529 80.2621 213.445 71.247 220.726 57.8109H225.754C221.94 67.0861 217.086 72.8939 208.504 77.2281C207.03 77.9216 206.423 79.1352 206.423 80.2621C206.423 82.0825 207.984 83.9028 210.324 83.9028C211.971 83.9028 216.045 81.9091 220.466 77.8349C220.38 78.095 220.38 78.355 220.38 78.6151C220.38 81.7357 222.72 82.9493 228.268 82.9493C234.076 82.9493 238.757 80.2621 241.01 74.4543C242.311 71.1603 243.351 63.8787 243.351 60.4113C243.351 54.8635 240.577 51.8295 235.463 51.7429ZM235.809 61.1048C234.769 73.9341 231.562 75.2344 228.181 75.2344C227.228 75.2344 226.187 75.061 224.974 74.8009C224.627 74.7143 224.367 74.6277 224.107 74.6277C223.847 74.6277 223.674 74.7143 223.5 74.7143C227.834 69.86 231.302 63.8788 233.469 57.8109C234.943 57.9842 235.809 58.8511 235.809 60.6715V61.1048Z" stroke="black" stroke-width="10"/>
<path d="M188.913 33.54V49.1432C190.82 48.2764 192.554 47.4961 194.211 46.6239C194.661 46.3855 195.165 46.2772 195.669 46.2772C196.487 46.2772 197.321 46.5643 197.966 47.0627C197.971 47.0681 197.977 47.0682 197.982 47.0736C199.283 48.0975 199.423 49.7608 198.622 51.1586C198.497 51.3807 198.351 51.592 198.188 51.787C197.809 52.2475 197.338 52.6702 196.801 52.9519C190.387 56.3326 176.604 62.5739 173.483 62.5739C171.056 62.5739 169.756 60.6668 169.756 58.7597C169.756 57.1994 170.622 55.5524 172.616 55.0322C175.39 54.2521 178.251 53.2986 181.025 52.3451L180.938 33.5346H188.913M184.925 8.14139C187.006 8.14139 189 9.35504 189 11.8689V26.2585H180.938V11.8689C180.938 9.35504 182.932 8.14139 184.925 8.14139ZM219.686 8.92165C222.72 8.92165 225.667 9.00824 228.441 9.09492C232.775 9.26829 236.503 12.5624 236.763 16.1165C237.023 18.8904 237.109 22.2709 237.109 25.4783C237.109 27.0386 237.109 28.5989 237.023 29.9859C236.849 34.4935 233.642 37.0941 228.701 37.3541C225.84 37.5275 222.633 37.6142 219.426 37.6142C205.383 37.6142 201.916 37.0941 201.916 27.2121C201.916 23.8314 202.089 19.8438 202.262 16.7232C202.436 12.9091 205.296 9.26829 210.757 9.09492C213.705 9.00824 216.739 8.92165 219.686 8.92165ZM209.457 20.1039H229.221L229.134 18.6303C228.961 15.3362 228.441 15.2496 219.599 15.2496C210.671 15.2496 209.717 15.2495 209.544 18.7169L209.457 20.1039ZM219.079 31.4595C228.441 31.4595 229.221 31.1995 229.308 28.4256V26.1718H209.284C209.284 31.2861 209.37 31.4595 219.079 31.4595ZM215.092 47.6696C214.225 49.0565 213.271 50.4434 212.318 51.8304C217.345 51.7437 223.587 51.7436 229.134 51.7436H235.462C240.577 51.8303 243.351 54.8643 243.351 60.4121C243.351 63.8794 242.31 71.161 241.01 74.455C238.756 80.2629 234.075 82.9501 228.268 82.9501C222.72 82.9501 220.379 81.7365 220.379 78.6158C220.379 78.3558 220.379 78.0958 220.466 77.8357C216.045 81.9099 211.971 83.9036 210.324 83.9036C207.983 83.9036 206.423 82.0832 206.423 80.2629C206.423 79.136 207.03 77.9223 208.504 77.2289C217.085 72.8946 221.94 67.0869 225.754 57.8116H220.726C213.445 71.2477 200.529 80.2629 196.368 80.2629C194.027 80.2629 192.554 78.3558 192.554 76.4487C192.554 75.2351 193.16 74.1083 194.547 73.5015C202.436 70.1208 208.417 65.0064 212.751 57.8116C210.931 57.8116 209.11 57.8983 207.463 57.8983C202.782 63.0127 194.114 69.6007 191.167 69.6007C188.913 69.6007 187.266 67.6936 187.266 65.8732C187.266 64.833 187.873 63.7929 189.173 63.0994C197.235 58.9385 202.262 54.431 206.77 47.6696H215.092ZM223.5 74.7151C223.673 74.7151 223.847 74.6284 224.107 74.6284C224.367 74.6284 224.627 74.715 224.974 74.8017C226.187 75.0618 227.227 75.2352 228.181 75.2352C231.562 75.2352 234.769 73.9348 235.809 61.1056V60.6722C235.809 58.8519 234.942 57.985 233.469 57.8116C231.302 63.8795 227.834 69.8607 223.5 74.7151ZM184.925 7.59961C181.816 7.59961 180.396 9.81013 180.396 11.8689V26.2585V26.8003H180.938H189H189.541V26.2585V11.8689C189.541 8.93245 187.147 7.59961 184.925 7.59961ZM219.686 8.37987C216.646 8.37987 213.51 8.47188 210.741 8.55314C204.754 8.74277 201.899 12.779 201.721 16.6961C201.563 19.5404 201.374 23.6851 201.374 27.2121C201.374 37.69 205.415 38.1559 219.426 38.1559C222.698 38.1559 225.916 38.0638 228.734 37.8959C234.081 37.6142 237.386 34.6669 237.565 30.0076C237.651 28.6152 237.651 27.0223 237.651 25.4783C237.651 21.7021 237.532 18.5382 237.304 16.0677C237.023 12.1831 232.97 8.73735 228.463 8.55314C225.532 8.46104 222.655 8.37987 219.686 8.37987ZM210.037 19.5621L210.086 18.7494C210.232 15.8726 210.497 15.7913 219.599 15.7913C228.441 15.7913 228.446 15.8997 228.593 18.6574L228.647 19.5621H210.037ZM209.825 26.7135H228.766V28.4256C228.701 30.5331 228.69 30.9177 219.079 30.9177C214.555 30.9177 211.938 30.8852 210.801 30.2568C209.934 29.78 209.836 28.8481 209.825 26.7135ZM189.455 32.9982H188.913H180.938H180.396V33.54L180.483 51.9604C178.023 52.8056 175.184 53.7483 172.47 54.5122C170.07 55.1406 169.214 57.194 169.214 58.7597C169.214 61.6203 171.359 63.1157 173.483 63.1157C176.842 63.1157 190.82 56.7172 197.056 53.4286C197.614 53.1361 198.15 52.6864 198.605 52.1284C198.789 51.9063 198.952 51.6679 199.093 51.4241C200.079 49.7012 199.765 47.7833 198.318 46.6455C197.565 46.0604 196.606 45.73 195.674 45.73C195.062 45.73 194.472 45.8708 193.962 46.1363C192.543 46.884 191.037 47.572 189.455 48.2926V33.5291V32.9982ZM216.067 47.1278H215.092H206.77H206.477L206.315 47.3716C201.786 54.16 196.747 58.5809 188.918 62.6226C187.515 63.3702 186.719 64.5567 186.719 65.8786C186.719 68.3925 189.059 70.1479 191.161 70.1479C194.499 70.1479 203.265 63.224 207.696 58.4455C208.433 58.4401 209.186 58.4238 209.983 58.4021C210.568 58.3858 211.169 58.3751 211.77 58.3643C207.566 64.9902 201.851 69.7848 194.331 73.0084C192.852 73.6531 192.006 74.9101 192.006 76.4542C192.006 79.1793 194.222 80.8101 196.362 80.8101C200.632 80.8101 213.499 72.0766 221.04 58.3588H224.93C221.089 67.3686 216.213 72.7322 208.249 76.7522C206.764 77.451 205.871 78.7676 205.871 80.2683C205.871 82.2783 207.572 84.4508 210.313 84.4508C212.047 84.4508 215.79 82.6195 219.848 79.1088C220.163 82.9608 224.253 83.4973 228.257 83.4973C234.585 83.4973 239.293 80.3549 241.503 74.6554C242.879 71.1609 243.882 63.7277 243.882 60.4175C243.882 54.5717 240.891 51.2994 235.462 51.2073H229.124C223.971 51.2073 218.185 51.2073 213.347 51.2778C214.095 50.1834 214.848 49.0673 215.541 47.962L216.067 47.1278ZM224.692 74.1679C228.517 69.6494 231.73 64.1179 233.821 58.4238C234.818 58.673 235.267 59.3828 235.267 60.6722V61.084C234.243 73.6424 231.204 74.6934 228.181 74.6934C227.379 74.6934 226.485 74.5687 225.087 74.2708L224.903 74.2221C224.833 74.2004 224.762 74.1841 224.692 74.1679Z" stroke="black" stroke-width="10"/>
<path d="M300.654 32.8479C299.267 43.8568 291.466 60.2401 283.144 67.9551C276.469 74.1096 269.188 70.7289 265.374 63.274C259.912 52.5252 265.72 36.4019 277.336 28.3402C287.998 20.9721 303.861 19.7585 314.784 26.3465C328.22 34.4082 330.387 50.3581 322.845 62.7539C318.771 69.4286 310.276 74.8032 301.694 77.0569C294.066 79.0507 291.379 70.2955 298.834 68.5618C305.422 67.0881 312.096 63.3608 314.957 58.8532C321.112 49.1445 318.771 37.7889 310.189 32.3278C306.809 30.1607 303.168 29.1204 299.441 28.8603C300.394 29.7272 300.914 31.1142 300.654 32.8479ZM281.41 34.4949C273.349 40.7362 269.014 52.2651 272.655 58.9398C273.955 61.4537 276.209 62.7539 278.376 60.8469C284.878 55.1257 290.945 41.3429 291.812 31.981C291.899 30.9407 292.159 29.9872 292.592 29.2938C288.605 30.1606 284.704 31.981 281.41 34.4949Z" stroke="black" stroke-width="10"/>
<path d="M298.243 22.0398C304.138 22.0398 309.946 23.4267 314.784 26.3469C328.22 34.4086 330.387 50.3585 322.845 62.7543C318.771 69.429 310.276 74.8036 301.694 77.0573C300.925 77.2578 300.199 77.3498 299.538 77.3498C293.627 77.3498 292.137 70.1171 298.834 68.5622C305.422 67.0885 312.097 63.3612 314.957 58.8536C321.112 49.1449 318.771 37.7893 310.189 32.3282C306.809 30.1611 303.168 29.1208 299.441 28.8607C300.394 29.7276 300.914 31.1146 300.654 32.8483C299.267 43.8572 291.466 60.2406 283.144 67.9555C280.744 70.1713 278.263 71.1519 275.895 71.1519C271.68 71.1519 267.817 68.0475 265.374 63.2744C259.913 52.5256 265.72 36.4023 277.336 28.3406C283.274 24.234 290.826 22.0398 298.243 22.0398ZM292.593 29.2942C288.605 30.161 284.704 31.9814 281.41 34.4953C273.349 40.7366 269.014 52.2655 272.655 58.9402C273.522 60.6197 274.822 61.7576 276.231 61.7576C276.93 61.7576 277.656 61.4757 278.376 60.8473C284.878 55.1261 290.946 41.3433 291.812 31.9814C291.899 30.9411 292.159 29.9876 292.593 29.2942ZM298.243 21.498C290.528 21.498 282.998 23.7681 277.027 27.891C271.355 31.8244 266.766 37.9247 264.436 44.6156C262.036 51.5071 262.199 58.2197 264.886 63.5129C267.503 68.6327 271.615 71.6828 275.89 71.6828C278.544 71.6828 281.107 70.5614 283.507 68.3455C291.617 60.8257 299.717 44.5995 301.185 32.9079C301.375 31.651 301.18 30.4645 300.638 29.511C304.035 29.9173 307.139 31.0171 309.886 32.7779C318.397 38.1902 320.375 49.2749 314.486 58.5556C311.858 62.6947 305.514 66.5034 298.704 68.0258C294.792 68.936 293.671 71.5474 293.893 73.5087C294.137 75.6162 296 77.8809 299.522 77.8809C300.253 77.8809 301.028 77.7779 301.819 77.572C310.932 75.1774 319.362 69.467 323.295 63.0252C327.331 56.3939 328.659 48.5814 326.936 41.5979C325.305 34.9936 321.198 29.5543 315.055 25.8702C310.309 23.0151 304.49 21.498 298.243 21.498ZM276.231 61.2158C275.109 61.2158 273.955 60.273 273.137 58.691C269.702 52.3901 273.804 41.0671 281.741 34.9233C284.699 32.6641 288.101 31.0007 291.639 30.0797C291.455 30.6323 291.33 31.2555 291.276 31.9381C290.371 41.7009 284.179 55.0232 278.024 60.4409C277.434 60.9556 276.832 61.2158 276.231 61.2158Z" stroke="black" stroke-width="10"/>
<path d="M356.653 35.7935V9.35474C356.653 7.01426 358.733 5.80078 360.727 5.80078C362.721 5.80078 364.714 7.01426 364.714 9.35474V16.983H378.151C380.664 16.983 381.878 18.7168 381.878 20.4505C381.878 22.1842 380.664 23.9178 378.151 23.9178H364.714V34.0598L356.653 35.7935ZM397.487 48.016C402.601 48.1894 406.242 51.6568 406.415 55.0375C406.588 57.9847 406.675 61.1921 406.675 64.3994C406.675 67.52 406.588 70.7274 406.415 73.7613C406.242 77.9222 402.601 81.6495 397.053 81.8229C392.806 81.9096 388.125 81.9963 383.53 81.9963C378.243 81.9963 372.955 81.9096 368.274 81.7363C362.206 81.4762 358.999 78.1822 358.739 73.7613C358.565 70.9007 358.479 67.8667 358.479 64.7461C358.479 61.6254 358.565 58.5048 358.739 55.5575C358.912 51.9168 361.426 48.1028 368.101 47.9294C370.354 47.8427 372.695 47.8426 375.295 47.8426C375.902 45.9356 376.422 43.7685 376.682 42.2948C376.942 40.5611 378.676 39.6943 380.41 39.6943C382.49 39.6943 384.657 40.9079 384.657 43.1617C384.657 44.1153 384.137 46.0223 383.357 47.8426C388.125 47.8426 392.974 47.9294 397.487 48.016ZM398.614 61.3654C398.614 56.6844 398.614 54.6907 394.366 54.604C389.858 54.5173 384.397 54.4307 379.37 54.4307C376.162 54.4307 373.128 54.4307 370.528 54.5174C366.28 54.6907 366.28 56.8578 366.28 61.2787L398.614 61.3654ZM366.275 67.52C366.275 68.9937 366.275 70.3806 366.362 71.6808C366.448 75.2349 367.835 75.3216 384.218 75.3216C387.773 75.3216 391.24 75.235 394.447 75.1483C398.608 74.9749 398.608 73.0678 398.608 67.6067L366.275 67.52ZM392.8 26.6916V31.8061C392.8 34.58 393.927 36.0535 400.428 36.0535C408.75 36.0535 410.05 33.7998 410.05 29.9857C410.05 27.4718 411.871 26.4316 413.865 26.4316C416.118 26.4316 418.632 27.8185 418.632 30.7658C418.632 41.5147 409.27 43.2484 400.862 43.2484C391.847 43.2484 384.739 41.9481 384.739 33.1063C384.739 27.8186 384.825 14.7292 384.912 9.96159C384.912 7.36106 386.906 6.06082 388.899 6.06082C390.98 6.06082 392.974 7.36111 392.974 9.87496V9.96159C392.974 12.3888 392.8 16.0295 392.8 19.757V26.6916Z" stroke="black" stroke-width="10"/>
<path d="M360.727 5.80154C362.721 5.80154 364.714 7.01502 364.714 9.3555V16.9838H378.15C380.664 16.9838 381.878 18.7175 381.878 20.4512C381.878 22.1849 380.664 23.9185 378.15 23.9185H364.714V34.0606L356.653 35.7943V9.3555C356.653 7.01502 358.733 5.80154 360.727 5.80154ZM388.899 6.06159C390.98 6.06159 392.973 7.36187 392.973 9.87572V9.96236C392.973 12.3895 392.8 16.0303 392.8 19.7577V26.6924V31.8069C392.8 34.5808 393.927 36.0543 400.428 36.0543C408.75 36.0543 410.05 33.8005 410.05 29.9864C410.05 27.4726 411.871 26.4323 413.864 26.4323C416.118 26.4323 418.632 27.8193 418.632 30.7666C418.632 41.5154 409.27 43.2491 400.862 43.2491C391.846 43.2491 384.738 41.9489 384.738 33.1071C384.738 27.8193 384.825 14.73 384.912 9.96236C384.917 7.36182 386.905 6.06159 388.899 6.06159ZM380.404 39.695C382.485 39.695 384.652 40.9087 384.652 43.1625C384.652 44.116 384.132 46.023 383.351 47.8434C388.119 47.8434 392.973 47.9301 397.481 48.0168C402.595 48.1902 406.236 51.6575 406.409 55.0382C406.583 57.9855 406.67 61.1928 406.67 64.4001C406.67 67.5208 406.583 70.7281 406.409 73.7621C406.236 77.9229 402.595 81.6503 397.048 81.8237C392.8 81.9103 388.119 81.9971 383.525 81.9971C378.237 81.9971 372.949 81.9104 368.268 81.737C362.2 81.477 358.993 78.183 358.733 73.7621C358.56 70.9015 358.473 67.8675 358.473 64.7468C358.473 61.6262 358.56 58.5056 358.733 55.5583C358.906 51.9176 361.42 48.1035 368.095 47.9302C370.349 47.8435 372.689 47.8434 375.29 47.8434C375.897 45.9363 376.417 43.7692 376.677 42.2956C376.937 40.5619 378.67 39.695 380.404 39.695ZM398.613 61.3661C398.613 56.6852 398.613 54.6914 394.366 54.6048C389.858 54.5181 384.397 54.4315 379.369 54.4315C376.162 54.4315 373.128 54.4314 370.528 54.5181C366.28 54.6915 366.28 56.8586 366.28 61.2795L398.613 61.3661ZM384.218 75.3223C387.772 75.3223 391.24 75.2357 394.447 75.1491C398.608 74.9757 398.608 73.0685 398.608 67.6074L366.275 67.5208C366.275 68.9944 366.275 70.3813 366.361 71.6816C366.448 75.2357 367.835 75.3223 384.218 75.3223ZM360.727 5.25977C357.731 5.25977 356.111 7.3726 356.111 9.3555V35.7943V36.4661L356.766 36.3252L364.828 34.5915L365.256 34.4995V34.0606V24.4603H378.15C380.209 24.4603 382.42 23.2035 382.42 20.4512C382.42 17.699 380.209 16.442 378.15 16.442H365.256V9.3555C365.256 6.66287 362.981 5.25977 360.727 5.25977ZM388.899 5.51981C386.651 5.51981 384.37 7.04759 384.37 9.96236C384.278 14.8709 384.197 27.9873 384.197 33.1071C384.197 42.9674 392.8 43.7909 400.862 43.7909C406.29 43.7909 410.191 43.0704 413.149 41.5209C417.148 39.4296 419.174 35.8105 419.174 30.7666C419.174 27.5647 416.503 25.8906 413.864 25.8906C411.22 25.8906 409.508 27.4997 409.508 29.9864C409.508 33.2208 408.858 35.5125 400.428 35.5125C393.851 35.5125 393.342 33.9794 393.342 31.8069V26.6924V19.7577C393.342 17.7044 393.396 15.6564 393.445 13.8523C393.483 12.4112 393.515 11.0513 393.515 9.96236V9.87572C393.521 7.01513 391.196 5.51981 388.899 5.51981ZM380.404 39.1533C377.777 39.1533 376.368 40.692 376.14 42.2144C375.88 43.688 375.398 45.6438 374.889 47.3016C372.402 47.3016 370.224 47.3071 368.073 47.3884C364.866 47.4697 362.347 48.369 360.597 50.0539C359.145 51.4517 358.289 53.3967 358.191 55.5313C358.018 58.4677 357.931 61.572 357.931 64.7468C357.931 67.8945 358.018 70.9394 358.191 73.7946C358.489 78.8494 362.249 82.0187 368.247 82.2788C372.852 82.4467 378.134 82.5388 383.525 82.5388C388.168 82.5388 392.946 82.4467 397.058 82.3654C402.503 82.1975 406.756 78.5081 406.951 73.7838C407.119 70.8094 407.211 67.5641 407.211 64.4001C407.211 61.1495 407.119 57.9042 406.951 55.0057C406.772 51.5329 403.11 47.6646 397.503 47.475C393.185 47.3938 388.617 47.3125 384.159 47.3016C384.793 45.6709 385.193 44.0727 385.193 43.1625C385.193 40.5565 382.728 39.1533 380.404 39.1533ZM366.816 60.7377C366.822 56.7286 366.973 55.2062 370.544 55.0599C373.133 54.9732 376.157 54.9733 379.364 54.9733C384.706 54.9733 390.476 55.0707 394.35 55.1465C397.92 55.217 398.061 56.5389 398.066 60.8244L366.816 60.7377ZM384.218 74.7806C367.786 74.7806 366.974 74.6343 366.903 71.6708C366.827 70.5276 366.816 69.3303 366.816 68.068L398.066 68.1492C398.055 73.4424 397.844 74.4664 394.425 74.6073C391.191 74.694 387.734 74.7806 384.218 74.7806Z" stroke="black" stroke-width="10"/>
<path d="M484.864 34.0596L484.951 38.7405H503.935C506.102 38.7405 507.142 40.3876 507.142 41.9479C507.142 43.5949 506.102 45.1552 504.021 45.1552H503.935L485.557 44.9818C486.684 48.6225 488.245 52.09 490.238 55.384C493.359 53.4769 496.653 50.7897 498.647 48.7093C499.427 47.9291 500.294 47.5823 501.074 47.5823C503.241 47.5823 505.322 49.6627 505.322 51.7431C505.322 54.6037 500.034 57.8111 494.053 60.845C497.26 64.9192 501.247 68.4733 505.668 71.0738C507.142 71.9407 507.749 73.1543 507.749 74.4545C507.749 76.5349 505.928 78.702 503.414 78.702C499.167 78.702 490.238 68.9934 484.777 57.6377L484.864 60.0649L485.471 72.4608C485.471 72.6342 485.471 72.8075 485.471 72.9809C485.471 77.5752 482.784 83.2964 473.162 83.2964C467.354 83.2964 464.233 82.2561 464.233 78.8754C464.233 76.8816 465.533 74.9746 467.787 74.9746C468.047 74.9746 468.307 74.9746 468.567 75.0612C470.214 75.408 471.861 75.6681 473.248 75.6681C475.936 75.6681 477.756 74.6279 477.756 70.6404L477.669 44.9818L461.979 45.1552C461.286 45.1552 460.679 45.0685 460.159 44.8085C460.332 45.2419 460.506 45.7619 460.506 46.1953C460.506 48.2758 458.685 50.0962 456.778 50.0962C455.911 50.0962 455.045 49.6628 454.264 48.7093C453.311 47.409 452.011 45.8487 450.797 44.5484C450.884 58.0712 451.23 79.8289 451.23 79.8289V79.9156C451.23 82.3427 449.063 83.5564 446.983 83.5564C444.816 83.5564 442.735 82.3427 442.735 79.9156V79.8289L443.082 48.5358C440.828 52.5233 438.314 56.2508 435.714 59.4582C434.674 60.7584 433.373 61.2785 432.16 61.2785C429.993 61.2785 427.999 59.4581 427.999 57.3777C427.999 56.3375 428.432 55.2972 429.386 54.3437C433.807 49.8361 439.528 41.6878 443.082 33.6261V31.6324L450.884 31.7191C450.884 33.7995 450.797 35.88 450.797 37.7871C451.144 37.7871 451.49 37.8737 451.837 38.0471C453.831 39.0006 456.952 41.341 458.685 42.988C458.599 42.728 458.599 42.3813 458.599 42.1213C458.599 40.4743 459.812 38.7405 461.979 38.7405H477.669L477.583 34.0596H484.864ZM477.583 27.8183V23.5707H463.366C460.939 23.5707 459.812 22.0971 459.812 20.5368C459.812 18.8898 461.026 17.2428 463.366 17.2428H470.648C469.347 15.3357 468.481 14.2089 466.487 12.5619C465.62 11.8684 465.273 11.0882 465.273 10.308C465.273 8.48763 467.18 6.92731 469.261 6.92731C471.948 6.92731 477.929 12.8219 477.929 15.5091C477.929 16.1159 477.756 16.7227 477.496 17.2428H483.564C485.297 14.4689 487.118 11.1749 488.158 8.57434C488.851 7.01402 490.065 6.40723 491.365 6.40723C493.532 6.40723 495.873 8.14094 495.873 10.2214C495.873 11.0882 495.613 12.0417 491.972 17.2428H501.681C504.021 17.2428 505.148 18.8031 505.148 20.3634C505.148 22.0104 504.021 23.5707 501.681 23.5707H484.777L484.864 27.8183H477.583ZM442.995 24.1776L442.735 9.87468V9.78791C442.735 7.27406 444.902 6.06055 447.07 6.06055C449.15 6.06055 451.23 7.27406 451.23 9.78791V9.87468C451.23 9.87468 451.057 16.4626 450.97 24.1776H442.995ZM458.599 75.5813C456.085 75.5813 454.611 73.4143 454.611 71.3339C454.611 69.8602 455.391 68.4732 457.125 67.8664C463.02 65.8727 466.747 63.7923 471.775 60.2383C472.381 59.8049 473.075 59.5448 473.682 59.5448C475.502 59.5448 476.976 61.1051 476.976 63.0121C476.976 64.0523 476.456 65.1793 475.242 66.2195C470.821 69.8603 461.286 75.5813 458.599 75.5813Z" stroke="black" stroke-width="10"/>
<path d="M447.069 6.06131C449.15 6.06131 451.23 7.27483 451.23 9.78867V9.87544C451.23 9.87544 451.057 16.4634 450.97 24.1783H442.995L442.735 9.87544V9.78867C442.735 7.27483 444.902 6.06131 447.069 6.06131ZM491.365 6.40799C493.532 6.40799 495.873 8.1417 495.873 10.2221C495.873 11.089 495.613 12.0425 491.972 17.2435H501.681C504.021 17.2435 505.148 18.8039 505.148 20.3642C505.148 22.0112 504.021 23.5715 501.681 23.5715H484.777L484.864 27.819H477.582V23.5715H463.366C460.939 23.5715 459.812 22.0979 459.812 20.5376C459.812 18.8906 461.026 17.2435 463.366 17.2435H470.648C469.347 15.3365 468.48 14.2096 466.487 12.5626C465.62 11.8692 465.273 11.0889 465.273 10.3088C465.273 8.48839 467.18 6.92807 469.261 6.92807C471.948 6.92807 477.929 12.8227 477.929 15.5099C477.929 16.1167 477.756 16.7234 477.496 17.2435H483.563C485.297 14.4696 487.118 11.1756 488.158 8.5751C488.851 7.01478 490.065 6.40799 491.365 6.40799ZM443.082 31.6332L450.884 31.7198C450.884 33.8002 450.797 35.8808 450.797 37.7878C451.144 37.7878 451.49 37.8745 451.837 38.0479C453.831 39.0014 456.951 41.3418 458.685 42.9888C458.598 42.7288 458.598 42.3821 458.598 42.122C458.598 40.475 459.812 38.7412 461.979 38.7412H477.669L477.582 34.0603H484.864L484.95 38.7412H503.934C506.101 38.7412 507.142 40.3883 507.142 41.9486C507.142 43.5956 506.101 45.1559 504.021 45.1559H503.934L485.557 44.9825C486.684 48.6233 488.244 52.0907 490.238 55.3847C493.359 53.4777 496.653 50.7904 498.647 48.71C499.427 47.9299 500.294 47.5831 501.074 47.5831C503.241 47.5831 505.321 49.6635 505.321 51.7439C505.321 54.6045 500.034 57.8118 494.052 60.8458C497.26 64.9199 501.247 68.4741 505.668 71.0746C507.142 71.9414 507.748 73.155 507.748 74.4553C507.748 76.5357 505.928 78.7027 503.414 78.7027C499.167 78.7027 490.238 68.9941 484.777 57.6385L484.864 60.0656L485.471 72.4616C485.471 72.635 485.471 72.8083 485.471 72.9817C485.471 77.5759 482.783 83.2971 473.161 83.2971C467.354 83.2971 464.233 82.2568 464.233 78.8761C464.233 76.8824 465.533 74.9754 467.787 74.9754C468.047 74.9754 468.307 74.9753 468.567 75.062C470.214 75.4087 471.861 75.6689 473.248 75.6689C475.935 75.6689 477.756 74.6286 477.756 70.6412L477.669 44.9825L461.979 45.1559C461.286 45.1559 460.679 45.0693 460.159 44.8092C460.332 45.2427 460.505 45.7627 460.505 46.1961C460.505 48.2765 458.685 50.097 456.778 50.097C455.911 50.097 455.044 49.6635 454.264 48.71C453.311 47.4097 452.01 45.8495 450.797 44.5492C450.883 58.072 451.23 79.8297 451.23 79.8297V79.9163C451.23 82.3435 449.063 83.5572 446.983 83.5572C444.816 83.5572 442.735 82.3435 442.735 79.9163V79.8297L443.082 48.5366C440.828 52.5241 438.314 56.2516 435.714 59.4589C434.674 60.7592 433.373 61.2792 432.16 61.2792C429.993 61.2792 427.999 59.4589 427.999 57.3785C427.999 56.3382 428.432 55.298 429.386 54.3444C433.807 49.8369 439.528 41.6885 443.082 33.6269V31.6332ZM473.681 59.5456C475.502 59.5456 476.975 61.1058 476.975 63.0129C476.975 64.0531 476.455 65.1801 475.242 66.2203C470.821 69.861 461.286 75.5821 458.598 75.5821C456.085 75.5821 454.611 73.4151 454.611 71.3346C454.611 69.861 455.391 68.474 457.125 67.8672C463.019 65.8734 466.747 63.7931 471.774 60.2391C472.381 59.8056 473.075 59.5456 473.681 59.5456ZM447.069 5.51953C444.723 5.51953 442.193 6.85766 442.193 9.78867V9.87544L442.453 24.1892L442.464 24.7201H442.995H450.97H451.507L451.512 24.1837C451.599 16.5609 451.772 9.95672 451.772 9.88629V9.78325C451.772 6.85224 449.334 5.51953 447.069 5.51953ZM491.365 5.86621C489.691 5.86621 488.374 6.74936 487.665 8.35302C486.765 10.6068 485.167 13.6299 483.266 16.7018H478.292C478.411 16.3008 478.471 15.9 478.471 15.5099C478.471 12.5247 472.273 6.3863 469.261 6.3863C466.85 6.3863 464.731 8.2175 464.731 10.3088C464.731 11.3165 465.219 12.243 466.151 12.9852C467.782 14.3343 468.621 15.304 469.613 16.7018H463.366C460.679 16.7018 459.27 18.6305 459.27 20.5376C459.27 22.32 460.538 24.1132 463.366 24.1132H477.041V27.819V28.3608H477.582H484.864H485.416L485.406 27.8082L485.33 24.1132H501.681C504.433 24.1132 505.69 22.1683 505.69 20.3642C505.69 18.598 504.433 16.7018 501.681 16.7018H493.012C496.176 12.1129 496.42 11.1757 496.42 10.2221C496.414 8.16337 494.258 5.86621 491.365 5.86621ZM442.54 31.086V31.6332V33.5131C438.829 41.889 433.07 49.8152 429.001 53.9652C427.993 54.9729 427.457 56.154 427.457 57.3785C427.457 59.746 429.657 61.821 432.16 61.821C433.682 61.821 435.091 61.1004 436.136 59.7948C438.341 57.075 440.525 53.9165 442.518 50.5845L442.193 79.8243V79.9163C442.193 82.7877 444.675 84.099 446.983 84.099C449.361 84.099 451.772 82.6631 451.772 79.9163V79.8297C451.767 79.613 451.447 59.3884 451.349 45.9632C452.249 46.9871 453.132 48.0762 453.831 49.0297L453.842 49.0404L453.852 49.0513C454.703 50.0861 455.716 50.6388 456.783 50.6388C459.016 50.6388 461.053 48.5203 461.053 46.1961C461.053 46.0227 461.031 45.8332 460.988 45.6273C461.286 45.6761 461.616 45.6977 461.985 45.6977L477.133 45.5297L477.187 61.3767C476.585 59.9789 475.242 59.0038 473.687 59.0038C472.983 59.0038 472.17 59.2909 471.466 59.8002C466.806 63.0942 463.111 65.2721 456.957 67.3579C455.147 67.9918 454.075 69.4764 454.075 71.3401C454.075 73.6968 455.77 76.1293 458.604 76.1293C461.519 76.1293 471.254 70.2185 475.594 66.6428C476.434 65.9222 476.927 65.2071 477.203 64.557L477.225 70.6466C477.225 74.3686 475.637 75.1325 473.259 75.1325C472.094 75.1325 470.604 74.9374 468.719 74.5419C468.388 74.439 468.074 74.439 467.798 74.439C465.815 74.439 463.702 75.9939 463.702 78.8816C463.702 83.2537 468.491 83.8442 473.172 83.8442C477.674 83.8442 481.093 82.6307 483.331 80.236C485.07 78.3777 486.023 75.8043 486.023 72.9871V72.4669L485.416 60.0928C490.867 70.3757 499.102 79.2499 503.425 79.2499C506.34 79.2499 508.301 76.7741 508.301 74.4607C508.301 73.3338 507.895 71.7518 505.955 70.614C501.854 68.1977 498.04 64.8983 494.903 61.03C504.557 56.0619 505.874 53.548 505.874 51.7493C505.874 49.333 503.544 47.0467 501.085 47.0467C500.104 47.0467 499.102 47.5019 498.273 48.3308C496.279 50.4112 493.185 52.8925 490.428 54.637C488.727 51.7494 487.34 48.6937 486.31 45.5351L503.94 45.7031H504.032C506.551 45.7031 507.694 43.7582 507.694 41.9541C507.694 40.0903 506.405 38.2049 503.945 38.2049H485.481L485.406 34.0549L485.395 33.524H484.864H477.582H477.03L477.041 34.0766L477.116 38.2049H461.979C459.698 38.2049 458.268 39.9277 458.078 41.721C456.296 40.1932 453.815 38.4 452.07 37.5656C451.832 37.4464 451.588 37.3598 451.339 37.311C451.344 36.5363 451.36 35.7399 451.377 34.9055C451.398 33.8707 451.42 32.798 451.42 31.7307V31.1943L450.884 31.1889L443.082 31.1022L442.54 31.086Z" stroke="black" stroke-width="10"/>
<path d="M552.83 43.9419C548.496 40.7345 546.242 40.9079 542.601 43.7685C538.44 47.0625 534.366 50.79 529.772 53.4772C524.051 56.8579 517.81 48.9696 524.744 45.3288C526.911 44.2019 533.499 40.2145 537.92 37.0939C545.462 31.7194 551.27 32.8463 557.511 37.3539C568.607 45.3289 580.656 55.8176 592.705 62.0589C598.339 64.9195 593.745 74.0213 587.07 70.7273C576.582 65.5262 562.885 51.3967 552.83 43.9419Z" stroke="black" stroke-width="10"/>
<path d="M547.537 33.4969C550.955 33.4969 554.168 34.938 557.511 37.349C568.607 45.3239 580.656 55.8126 592.705 62.0539C597.494 64.4865 594.894 71.4321 589.898 71.4321C589.021 71.4321 588.067 71.2154 587.07 70.7224C576.581 65.5213 562.885 51.3918 552.83 43.9369C550.663 42.3333 549.016 41.5748 547.456 41.5748C545.895 41.5748 544.422 42.3332 542.601 43.7635C538.44 47.0575 534.366 50.785 529.772 53.4723C528.802 54.0465 527.811 54.2958 526.879 54.2958C522.312 54.2958 518.985 48.347 524.744 45.3239C526.911 44.197 533.499 40.2095 537.92 37.0889C541.426 34.5913 544.562 33.4969 547.537 33.4969ZM547.537 32.9551C544.34 32.9551 541.09 34.1633 537.601 36.65C533.001 39.8953 526.5 43.8014 524.49 44.8471C521.916 46.2015 520.713 48.3579 521.271 50.6279C521.862 53.028 524.273 54.8375 526.873 54.8375C527.968 54.8375 529.035 54.5341 530.043 53.9381C533.494 51.9173 536.674 49.3005 539.751 46.7704C540.792 45.9144 541.87 45.0259 542.932 44.1861C544.779 42.7342 546.134 42.1166 547.45 42.1166C548.837 42.1166 550.392 42.81 552.499 44.3704C556.14 47.0684 560.231 50.6225 564.559 54.377C572.193 61.0083 580.092 67.8619 586.827 71.2046C587.856 71.7139 588.891 71.9685 589.898 71.9685C593.068 71.9685 595.089 69.563 595.62 67.3308C596.199 64.9091 595.175 62.6987 592.943 61.5664C584.502 57.1942 576.061 50.7254 567.902 44.4733C564.408 41.7969 561.108 39.2668 557.82 36.9047C554.087 34.212 550.82 32.9551 547.537 32.9551Z" stroke="black" stroke-width="10"/>
<path d="M125.8 26.5186C125.713 32.0664 125.713 37.5274 125.713 43.0752H128.921C131.608 39.8679 134.555 34.4936 136.375 29.6393C136.896 28.1656 138.109 27.4722 139.409 27.4722C141.663 27.4722 144.264 29.4658 144.264 31.7196C144.264 32.9332 141.056 38.8277 137.329 43.0752L154.926 42.9886C157.266 42.9886 158.48 44.8957 158.48 46.7161C158.48 48.5365 157.353 50.3568 155.013 50.3568H154.926L129.614 50.01C138.196 59.8054 148.598 66.5668 158.913 71.5945C160.734 72.4613 161.427 73.8483 161.427 75.2352C161.427 77.5757 159.173 79.9161 156.4 79.9161C152.065 79.9161 135.682 67.5203 125.8 55.9046C125.887 64.1396 126.06 72.3747 126.06 80.6964C126.06 83.0368 123.893 84.1637 121.726 84.1637C119.645 84.1637 117.565 83.0368 117.565 80.783V80.6964L117.825 56.5113C110.37 65.6132 101.095 73.4148 89.8259 79.9161C88.7857 80.5229 87.8322 80.783 86.9653 80.783C84.4515 80.783 82.5444 78.7893 82.5444 76.6222C82.5444 75.3219 83.3246 73.8482 85.2316 72.8947C96.3272 67.2602 105.689 59.9787 113.751 50.01L89.3925 50.3568H89.3058C86.8787 50.3568 85.6651 48.6231 85.6651 46.8027C85.6651 44.8957 86.9653 42.9886 89.3925 42.9886L117.912 43.0752L117.825 26.5186H125.8ZM117.738 19.0638L117.652 9.26838C117.652 6.75453 119.732 5.54102 121.726 5.54102C123.893 5.54102 125.973 6.84122 125.973 9.26838C125.973 12.5624 125.887 15.7698 125.887 19.0638H117.738Z" stroke="black" stroke-width="10"/>
<path d="M121.726 5.54178C123.893 5.54178 125.974 6.84198 125.974 9.26914C125.974 12.5631 125.887 15.7705 125.887 19.0645H117.739L117.652 9.26914C117.652 6.7553 119.732 5.54178 121.726 5.54178ZM125.8 26.5194C125.714 32.0672 125.714 37.5282 125.714 43.076H128.921C131.608 39.8687 134.555 34.4944 136.376 29.64C136.896 28.1664 138.109 27.4729 139.41 27.4729C141.663 27.4729 144.264 29.4666 144.264 31.7204C144.264 32.9339 141.057 38.8285 137.329 43.076L154.926 42.9894C157.267 42.9894 158.48 44.8965 158.48 46.7169C158.48 48.5372 157.353 50.3576 155.013 50.3576H154.926L129.614 50.0108C138.196 59.8061 148.598 66.5675 158.914 71.5952C160.734 72.4621 161.428 73.849 161.428 75.236C161.428 77.5764 159.174 79.9169 156.4 79.9169C152.066 79.9169 135.682 67.5211 125.8 55.9054C125.887 64.1404 126.06 72.3754 126.06 80.6971C126.06 83.0376 123.893 84.1644 121.726 84.1644C119.646 84.1644 117.565 83.0376 117.565 80.7838V80.6971L117.825 56.5121C110.37 65.614 101.095 73.4155 89.8262 79.9169C88.786 80.5237 87.8325 80.7838 86.9657 80.7838C84.4518 80.7838 82.5448 78.7901 82.5448 76.623C82.5448 75.3227 83.3249 73.849 85.232 72.8955C96.3276 67.261 105.689 59.9795 113.751 50.0108L89.3928 50.3576H89.3061C86.879 50.3576 85.6654 48.6239 85.6654 46.8035C85.6654 44.8964 86.9657 42.9894 89.3928 42.9894L117.912 43.076L117.825 26.5194H125.8ZM121.726 5C119.434 5 117.11 6.46815 117.11 9.26914L117.197 19.0699L117.202 19.6063H117.739H125.887H126.429V19.0645C126.429 17.4229 126.45 15.7705 126.472 14.1723C126.494 12.574 126.515 10.9161 126.515 9.26914C126.515 6.46274 124.11 5 121.726 5ZM126.353 25.9776H125.8H117.825H117.278L117.284 26.5248L117.365 42.5342L89.3928 42.4476C87.269 42.4476 85.1236 43.9429 85.1236 46.8035C85.1236 48.7756 86.4347 50.8994 89.3061 50.8994H89.3928L112.592 50.5688C105.029 59.6707 95.9862 66.8276 84.9827 72.4133C83.1136 73.3452 81.9976 74.9218 81.9976 76.623C81.9976 79.1747 84.2676 81.3255 86.9602 81.3255C87.9679 81.3255 89.0244 81.0113 90.0917 80.3829C100.776 74.2174 109.91 66.703 117.262 58.0237L117.018 80.6863V80.7783C117.018 82.7287 118.633 84.7008 121.721 84.7008C124.067 84.7008 126.597 83.4439 126.597 80.6917C126.597 75.1331 126.515 69.5256 126.44 64.1078C126.407 61.8595 126.375 59.6165 126.353 57.3682C135.921 68.1983 151.784 80.4534 156.394 80.4534C159.363 80.4534 161.964 78.0153 161.964 75.2305C161.964 73.4318 160.962 71.9691 159.141 71.1023C147.45 65.4028 138.174 58.6738 130.833 50.5634L154.915 50.8939H155.007C157.76 50.8939 159.017 48.7269 159.017 46.7114C159.017 43.9375 156.904 42.4422 154.921 42.4422L138.494 42.5235C141.349 39.002 144.8 33.3782 144.8 31.7149C144.8 29.0602 141.848 26.9257 139.404 26.9257C137.741 26.9257 136.419 27.8684 135.861 29.4558C134.079 34.2072 131.202 39.4245 128.661 42.5289H126.25C126.25 37.0678 126.255 31.8884 126.337 26.5248L126.353 25.9776Z" stroke="black" stroke-width="10"/>
<path d="M125.887 19.0645H148.859C151.199 19.0645 152.413 20.9714 152.413 22.7918C152.413 24.6989 151.199 26.5193 148.859 26.5193H125.8H117.826H93.2938C90.78 26.5193 89.5664 24.699 89.5664 22.8786C89.5664 20.9715 90.8667 19.0645 93.2938 19.0645H117.739H125.887Z" stroke="black" stroke-width="10"/>
<path d="M148.864 19.0652C151.204 19.0652 152.418 20.9722 152.418 22.7926C152.418 24.6996 151.204 26.5201 148.864 26.5201H125.806H117.831H93.299C90.7851 26.5201 89.5716 24.6997 89.5716 22.8793C89.5716 20.9723 90.8718 19.0652 93.299 19.0652H117.744H125.892H148.864ZM148.864 18.5234H125.892H117.744H93.299C91.1752 18.5234 89.0298 20.0188 89.0298 22.8793C89.0298 24.8948 90.368 27.0619 93.299 27.0619H117.831H125.806H148.864C151.551 27.0619 152.96 24.9163 152.96 22.7926C152.96 20.723 151.524 18.5234 148.864 18.5234Z" stroke="black" stroke-width="10"/>
<path d="M104.823 40.3873C102.916 37.3533 100.489 34.7529 99.2754 33.7127C98.3218 32.9325 97.9751 32.1524 97.9751 31.2855C97.9751 29.6385 99.7955 28.0781 101.876 28.0781C105.603 28.0781 112.018 34.6662 112.018 37.7869C112.018 40.214 109.851 42.2077 107.77 42.2077C106.73 42.2077 105.603 41.6876 104.823 40.3873Z" stroke="black" stroke-width="10"/>
<path d="M101.876 28.0789C105.603 28.0789 112.018 34.667 112.018 37.7876C112.018 40.2148 109.851 42.2085 107.77 42.2085C106.73 42.2085 105.603 41.6883 104.823 40.3881C102.916 37.3541 100.489 34.7537 99.2752 33.7135C98.3216 32.9333 97.9749 32.1531 97.9749 31.2863C97.9749 29.6393 99.7953 28.0789 101.876 28.0789ZM101.876 27.5371C99.5081 27.5371 97.4331 29.2871 97.4331 31.2863C97.4331 32.3915 97.9099 33.2963 98.9338 34.1306C100.077 35.1112 102.477 37.6738 104.368 40.6752C105.159 41.9917 106.4 42.7503 107.776 42.7503C110.035 42.7503 112.565 40.6265 112.565 37.7876C112.56 34.434 105.961 27.5371 101.876 27.5371Z" stroke="black" stroke-width="10"/>
<path d="M189 26.2578H194.894C197.148 26.2578 198.275 28.0782 198.275 29.8985C198.275 31.7189 197.148 33.5393 194.894 33.5393H188.913H180.938H174.523C172.096 33.5393 170.969 31.8055 170.969 30.0718C170.969 28.1648 172.27 26.2578 174.523 26.2578H180.938H189Z" stroke="black" stroke-width="10"/>
<path d="M194.894 26.2586C197.148 26.2586 198.275 28.0789 198.275 29.8993C198.275 31.7197 197.148 33.54 194.894 33.54H188.913H180.938H174.523C172.096 33.54 170.969 31.8063 170.969 30.0726C170.969 28.1655 172.269 26.2586 174.523 26.2586H180.938H188.999H194.894ZM194.894 25.7168H188.999H180.938H174.523C172.535 25.7168 170.427 27.2445 170.427 30.0726C170.427 32.0013 171.711 34.0818 174.523 34.0818H180.938H188.913H194.894C197.467 34.0818 198.816 31.9797 198.816 29.8993C198.816 27.8189 197.467 25.7168 194.894 25.7168Z" stroke="black" stroke-width="10"/>
<path d="M198.047 47.6689C196.276 47.6689 194.818 46.2493 194.808 44.4777C194.808 44.4723 194.808 44.4669 194.808 44.4615C194.808 42.7278 196.108 40.9941 198.448 40.9941H243.698C246.038 40.9941 247.165 42.6412 247.165 44.2882C247.165 46.0219 246.038 47.6689 243.698 47.6689H215.092H198.047Z" stroke="black" stroke-width="10"/>
<path d="M243.697 40.9949C246.038 40.9949 247.165 42.6419 247.165 44.289C247.165 46.0226 246.038 47.6696 243.697 47.6696H215.092L198.047 47.6751C196.276 47.6751 194.818 46.2555 194.807 44.4839C194.807 44.4785 194.807 44.4731 194.807 44.4676C194.807 42.734 196.108 41.0003 198.448 41.0003H243.697M243.697 40.4531H198.448C195.734 40.4531 194.266 42.5172 194.266 44.4622C194.276 46.5427 195.972 48.2168 198.047 48.2168L215.092 48.2114H243.697C245.626 48.2114 247.707 46.9816 247.707 44.289C247.707 42.4415 246.455 40.4531 243.697 40.4531Z" stroke="black" stroke-width="10"/>
<path d="M364.714 34.0607C369.482 32.9338 373.903 31.8069 377.283 30.68C377.804 30.5066 378.41 30.4199 378.844 30.4199C381.098 30.4199 382.658 31.9803 382.658 33.714C382.658 35.1009 381.704 36.4878 379.364 37.2679C366.968 41.4288 351.278 44.7228 349.544 44.7228C346.684 44.7228 345.124 42.8157 345.124 40.9087C345.124 39.175 346.337 37.4414 348.851 37.0947C351.365 36.6612 354.052 36.3144 356.653 35.7943L364.714 34.0607Z" stroke="black" stroke-width="10"/>
<path d="M378.844 30.4207C381.097 30.4207 382.658 31.981 382.658 33.7147C382.658 35.1017 381.704 36.4885 379.364 37.2687C366.968 41.4295 351.278 44.7236 349.544 44.7236C346.684 44.7236 345.123 42.8165 345.123 40.9094C345.123 39.1757 346.337 37.4422 348.851 37.0954C351.365 36.662 354.052 36.3152 356.652 35.7951L364.714 34.0614C369.482 32.9345 373.903 31.8076 377.283 30.6807C377.803 30.5074 378.41 30.4207 378.844 30.4207ZM378.844 29.8789C378.307 29.8789 377.641 29.9873 377.11 30.1661C374.206 31.1358 370.343 32.176 364.589 33.5359L356.539 35.2696C354.94 35.5892 353.282 35.8439 351.684 36.0931C350.714 36.2448 349.718 36.3965 348.759 36.5645C345.876 36.96 344.582 39.0349 344.582 40.9148C344.582 43.7429 347.139 45.2708 349.544 45.2708C351.43 45.2708 367.277 41.9064 379.537 37.7889C381.867 37.0142 383.199 35.5297 383.199 33.7202C383.199 31.5639 381.287 29.8789 378.844 29.8789Z" stroke="black" stroke-width="10"/>
<path d="M21.4331 32.8482C14.585 34.1485 13.4581 24.96 21.173 23.8331C29.408 22.6195 41.6305 22.5328 48.8253 24.0931C56.1068 25.6534 54.1998 34.5819 47.1783 33.1082C39.1167 31.3746 29.9281 31.2012 21.4331 32.8482Z" stroke="black" stroke-width="10"/>
<path d="M34.9178 22.9226C40.0647 22.9226 45.114 23.2911 48.8252 24.093C55.5541 25.5341 54.438 33.2706 48.6844 33.2706C48.213 33.2706 47.7092 33.2164 47.1782 33.1081C42.8873 32.1871 38.2822 31.7048 33.6284 31.7048C29.5325 31.7048 25.4096 32.0787 21.433 32.848C20.9833 32.9347 20.5553 32.9726 20.1544 32.9726C14.4711 32.9726 13.9619 24.884 21.1729 23.8329C25.1604 23.2424 30.0851 22.9226 34.9178 22.9226ZM34.9178 22.3809C30.0147 22.3809 25.1062 22.706 21.0916 23.2966C16.8604 23.9142 15.1213 26.8288 15.3 29.2723C15.5113 32.187 17.9656 33.5144 20.1544 33.5144C20.5986 33.5144 21.0591 33.4711 21.5305 33.379C25.4096 32.6259 29.4784 32.2466 33.6284 32.2466C38.2497 32.2466 42.7736 32.7126 47.0644 33.639C47.6225 33.7582 48.1643 33.8124 48.6844 33.8124C51.9892 33.8124 53.7392 31.5315 53.9613 29.4131C54.2051 27.0889 52.7477 24.3801 48.939 23.562C45.4174 22.7981 40.4385 22.3809 34.9178 22.3809Z" stroke="black" stroke-width="10"/>
<path d="M57.147 24.3528C56.1935 22.8792 52.3794 19.3251 50.7323 18.3716C46.5715 16.0311 50.559 11.2635 54.3731 13.2572C56.5402 14.3841 60.6144 17.1579 62.2614 19.4117C65.2086 23.3992 59.5742 28.0802 57.147 24.3528Z" stroke="black" stroke-width="10"/>
<path d="M52.4929 12.7801C53.0997 12.7801 53.739 12.9264 54.3729 13.2569C56.54 14.3838 60.6142 17.1576 62.2612 19.4114C64.45 22.3695 61.909 25.7178 59.4602 25.7178C58.6096 25.7178 57.7753 25.3169 57.1468 24.3579C56.1933 22.8843 52.3792 19.3302 50.7322 18.3767C47.2594 16.4208 49.459 12.7801 52.4929 12.7801ZM52.4929 12.2383C50.6509 12.2383 48.9443 13.4627 48.5163 15.0826C48.137 16.5346 48.863 17.9432 50.4613 18.8425C52.0433 19.7581 55.7707 23.231 56.6863 24.6451C57.3635 25.6853 58.3441 26.2541 59.4548 26.2541C60.9176 26.2541 62.402 25.2572 63.1551 23.7727C63.9299 22.2395 63.7619 20.5276 62.6946 19.0864C60.9934 16.7622 56.8705 13.9449 54.6221 12.7746C53.9395 12.4171 53.2243 12.2383 52.4929 12.2383Z" stroke="black" stroke-width="10"/>
<path d="M60.6144 12.9097C56.3668 10.6559 60.2676 5.71492 64.1684 7.53529C66.4222 8.57551 70.4964 11.3494 72.2301 13.5165C75.264 17.4173 69.8029 22.185 67.2891 18.5442C66.2488 17.0706 62.2614 13.7765 60.6144 12.9097Z" stroke="black" stroke-width="10"/>
<path d="M62.4349 7.13943C62.9929 7.13943 63.5781 7.25861 64.1686 7.53492C66.4224 8.57513 70.4966 11.3491 72.2302 13.5162C74.5003 16.4363 72.0135 19.8441 69.5593 19.8441C68.7358 19.8441 67.9177 19.4595 67.2892 18.5439C66.249 17.0702 62.2615 13.7762 60.6145 12.9093C57.0063 10.9914 59.2764 7.13943 62.4349 7.13943ZM62.4349 6.59766C60.5116 6.59766 58.7454 7.8871 58.3174 9.5937C57.9436 11.0944 58.7075 12.5085 60.3545 13.3861C61.904 14.2042 65.8427 17.444 66.8396 18.8526C67.5168 19.8386 68.4866 20.3804 69.5539 20.3804C71.0113 20.3804 72.4795 19.3781 73.2054 17.8882C73.9694 16.3279 73.7635 14.6105 72.6474 13.1802C70.8162 10.8939 66.6012 8.06049 64.3853 7.04195C63.7623 6.74397 63.1013 6.59766 62.4349 6.59766Z" stroke="black" stroke-width="10"/>
<path d="M11.7251 68.214C8.60449 63.7931 14.239 57.8118 18.9199 62.5795C26.2881 70.121 40.331 69.5143 53.4203 65.7869C60.6151 63.7931 62.6955 73.155 55.6741 75.3221C38.5106 80.6965 17.7063 76.6224 11.7251 68.214Z" stroke="black" stroke-width="10"/>
<path d="M15.2355 60.825C16.4112 60.825 17.7006 61.3397 18.9196 62.5803C23.0425 66.7954 29.2513 68.4695 36.2131 68.4695C41.7013 68.4695 47.6555 67.4347 53.4254 65.7877C54.108 65.5981 54.7473 65.5114 55.3379 65.5114C60.9344 65.5114 62.0343 73.3617 55.6792 75.3229C50.3481 76.9916 44.6703 77.7501 39.1929 77.7501C27.0246 77.7501 15.8531 74.0119 11.7302 68.2149C9.41683 64.948 11.8928 60.825 15.2355 60.825ZM15.2355 60.2832C13.4314 60.2832 11.7627 61.3451 10.8796 63.0517C9.96402 64.8234 10.1157 66.8659 11.286 68.5292C15.4414 74.3695 26.6562 78.2919 39.1929 78.2919C44.9628 78.2919 50.7219 77.4468 55.8417 75.8432C59.5637 74.6946 60.8586 71.7148 60.4902 69.2768C60.1651 67.1367 58.4477 64.9751 55.3433 64.9751C54.6877 64.9751 53.9943 65.0726 53.2846 65.2731C47.0866 67.0393 41.3438 67.9332 36.2186 67.9332C28.7149 67.9332 23.0263 66.0098 19.3151 62.212C18.0744 60.9442 16.6658 60.2832 15.2355 60.2832Z" stroke="black" stroke-width="10"/>
<path d="M450.971 24.1777H456.865C459.379 24.1777 460.679 26.0848 460.679 27.9919C460.679 29.8989 459.379 31.806 456.952 31.806H456.865L450.884 31.7192L443.082 31.6326L434.674 31.806C434.587 31.806 434.587 31.806 434.501 31.806C431.9 31.806 430.687 30.0723 430.687 28.1653C430.687 26.2582 432.073 24.1777 434.674 24.1777H442.996H450.971Z" stroke="black" stroke-width="10"/>
<path d="M456.865 24.1785C459.379 24.1785 460.679 26.0856 460.679 27.9926C460.679 29.8997 459.379 31.8068 456.952 31.8068H456.865L450.884 31.72L443.082 31.6334L434.674 31.8068C434.587 31.8068 434.587 31.8068 434.5 31.8068C431.9 31.8068 430.686 30.0731 430.686 28.166C430.686 26.259 432.073 24.1785 434.674 24.1785H442.996H450.97H456.865ZM456.865 23.6367H450.97H442.996H434.674C431.732 23.6367 430.145 25.9718 430.145 28.166C430.145 30.2465 431.494 32.3485 434.5 32.3485H434.674L443.093 32.1751L450.878 32.2618L456.86 32.3485H456.952C459.075 32.3485 461.221 30.8532 461.221 27.9926C461.221 25.8255 459.726 23.6367 456.865 23.6367Z" stroke="black" stroke-width="10"/>
<path d="M467.874 58.5049C465.36 55.9044 462.846 55.1242 461.026 54.2573C459.812 53.6505 459.379 52.7837 459.379 51.8302C459.379 50.0965 461.113 48.1895 463.106 48.1895C464.493 48.1895 473.855 51.1367 473.855 55.4709C473.855 57.5513 472.122 59.6317 470.214 59.6317C469.434 59.6317 468.654 59.2851 467.874 58.5049Z" stroke="black" stroke-width="10"/>
<path d="M463.107 48.1902C464.494 48.1902 473.855 51.1375 473.855 55.4717C473.855 57.5521 472.122 59.6325 470.215 59.6325C469.435 59.6325 468.654 59.2858 467.874 58.5057C465.36 55.9051 462.847 55.1249 461.026 54.2581C459.813 53.6513 459.379 52.7845 459.379 51.8309C459.379 50.0973 461.113 48.1902 463.107 48.1902ZM463.107 47.6484C460.701 47.6484 458.837 49.8968 458.837 51.8309C458.837 53.115 459.493 54.0955 460.782 54.7456C461.118 54.9082 461.465 55.0599 461.833 55.2171C463.464 55.9322 465.485 56.8207 467.484 58.8849C468.346 59.7463 469.261 60.1797 470.215 60.1797C472.366 60.1797 474.397 57.8934 474.397 55.4771C474.397 50.6119 464.624 47.6484 463.107 47.6484Z" stroke="black" stroke-width="10"/>
<path d="M484.865 34.0596H497.954C500.208 34.0596 501.248 32.4993 501.248 30.939C501.248 29.3787 500.208 27.8184 497.954 27.8184H484.865H477.583H465.794C463.54 27.8184 462.327 29.4654 462.327 31.1124C462.327 32.586 463.454 34.0596 465.794 34.0596H477.583H484.865Z" stroke="black" stroke-width="10"/>
<path d="M497.954 27.8191C500.207 27.8191 501.248 29.3794 501.248 30.9398C501.248 32.5001 500.207 34.0604 497.954 34.0604H484.864H477.583H465.794C463.453 34.0604 462.326 32.5868 462.326 31.1132C462.326 29.4662 463.54 27.8191 465.794 27.8191H477.583H484.864H497.954ZM497.954 27.2773H484.864H477.583H465.794C463.849 27.2773 461.785 28.621 461.785 31.1132C461.785 32.7927 463.042 34.6022 465.794 34.6022H477.583H484.864H497.954C500.587 34.6022 501.789 32.706 501.789 30.9398C501.789 29.1736 500.592 27.2773 497.954 27.2773Z" stroke="black" stroke-width="10"/>
<path d="M392.799 19.757C398.347 18.0234 404.762 15.6829 409.529 13.2557C410.136 12.909 410.743 12.8223 411.263 12.8223C413.517 12.8223 415.424 14.9026 415.424 17.0697C415.424 18.5434 414.557 19.9304 412.563 20.7972C407.102 23.1377 398.781 25.3914 392.799 26.6917V19.757Z" fill="#00A0E9"/>
<path d="M197.982 47.0728C199.282 48.0968 199.423 49.76 198.621 51.1578C198.497 51.38 198.35 51.5912 198.188 51.7862C197.809 52.2468 197.337 52.6694 196.801 52.9511C190.386 56.3318 176.603 62.5731 173.483 62.5731C171.056 62.5731 169.755 60.666 169.755 58.759C169.755 57.1987 170.622 55.5516 172.616 55.0315C175.39 54.2513 178.25 53.2978 181.024 52.3443L180.938 33.5338H188.913V49.137C190.82 48.2702 192.553 47.4899 194.211 46.6177C195.392 45.9946 196.926 46.2493 197.966 47.062C197.971 47.0674 197.977 47.0728 197.982 47.0728ZM180.938 26.2578V11.8681C180.938 9.35428 182.931 8.14062 184.925 8.14062C187.006 8.14062 188.999 9.35428 188.999 11.8681V26.2578H180.938ZM228.701 37.3534C225.84 37.5267 222.633 37.6134 219.426 37.6134C205.383 37.6134 201.915 37.0933 201.915 27.2113C201.915 23.8306 202.089 19.8431 202.262 16.7224C202.435 12.9083 205.296 9.26753 210.757 9.09416C213.704 9.00747 216.738 8.92089 219.686 8.92089C222.72 8.92089 225.667 9.00747 228.441 9.09416C232.775 9.26753 236.502 12.5616 236.762 16.1157C237.022 18.8896 237.109 22.2702 237.109 25.4775C237.109 27.0378 237.109 28.5982 237.022 29.9851C236.849 34.4927 233.642 37.0933 228.701 37.3534ZM229.308 26.171H209.283C209.283 31.2854 209.37 31.4587 219.079 31.4587C228.441 31.4587 229.221 31.1988 229.308 28.4249V26.171ZM229.134 18.6295C228.961 15.3355 228.441 15.2488 219.599 15.2488C210.67 15.2488 209.717 15.2488 209.544 18.7161L209.457 20.1031H229.221L229.134 18.6295ZM235.462 51.7429H229.134C223.586 51.7429 217.345 51.7429 212.317 51.8296C213.271 50.4427 214.224 49.0558 215.091 47.6688H206.77C202.262 54.4302 197.234 58.9378 189.173 63.0986C187.872 63.7921 187.266 64.8322 187.266 65.8725C187.266 67.6928 188.913 69.6 191.166 69.6C194.114 69.6 202.782 63.0119 207.463 57.8975C209.11 57.8975 210.93 57.8109 212.751 57.8109C208.417 65.0057 202.435 70.12 194.547 73.5007C193.16 74.1075 192.553 75.2344 192.553 76.448C192.553 78.355 194.027 80.2621 196.367 80.2621C200.528 80.2621 213.444 71.247 220.726 57.8109H225.753C221.939 67.0861 217.085 72.8939 208.503 77.2281C207.03 77.9216 206.423 79.1352 206.423 80.2621C206.423 82.0825 207.983 83.9028 210.324 83.9028C211.971 83.9028 216.045 81.9091 220.466 77.8349C220.379 78.095 220.379 78.355 220.379 78.6151C220.379 81.7357 222.72 82.9493 228.267 82.9493C234.075 82.9493 238.756 80.2621 241.01 74.4543C242.31 71.1603 243.35 63.8787 243.35 60.4113C243.35 54.8635 240.577 51.8295 235.462 51.7429ZM235.809 61.1048C234.769 73.9341 231.561 75.2344 228.181 75.2344C227.227 75.2344 226.187 75.061 224.973 74.8009C224.627 74.7143 224.367 74.6277 224.106 74.6277C223.846 74.6277 223.673 74.7143 223.5 74.7143C227.834 69.86 231.301 63.8788 233.468 57.8109C234.942 57.9842 235.809 58.8511 235.809 60.6715V61.1048Z" fill="#FFF100"/>
<path d="M300.654 32.8459C299.267 43.8548 291.466 60.2382 283.144 67.9531C276.469 74.1077 269.188 70.7269 265.374 63.2721C259.912 52.5232 265.72 36.3999 277.336 28.3383C287.998 20.9701 303.861 19.7566 314.784 26.3446C328.22 34.4062 330.387 50.3561 322.845 62.752C318.771 69.4267 310.276 74.8012 301.694 77.055C294.066 79.0487 291.379 70.2935 298.834 68.5598C305.422 67.0862 312.096 63.3588 314.957 58.8512C321.112 49.1426 318.771 37.7869 310.189 32.3258C306.809 30.1587 303.168 29.1184 299.441 28.8584C300.394 29.7252 300.914 31.1122 300.654 32.8459ZM281.41 34.4929C273.349 40.7342 269.014 52.2632 272.655 58.9379C273.955 61.4517 276.209 62.752 278.376 60.8449C284.878 55.1238 290.945 41.3409 291.812 31.979C291.899 30.9388 292.159 29.9853 292.592 29.2918C288.605 30.1587 284.704 31.9791 281.41 34.4929Z" fill="#FFF100"/>
<path d="M356.652 35.7935V9.35474C356.652 7.01426 358.733 5.80078 360.727 5.80078C362.72 5.80078 364.714 7.01426 364.714 9.35474V16.983H378.15C380.664 16.983 381.878 18.7168 381.878 20.4505C381.878 22.1842 380.664 23.9178 378.15 23.9178H364.714V34.0598L356.652 35.7935ZM397.486 48.016C402.601 48.1894 406.241 51.6568 406.415 55.0374C406.588 57.9847 406.675 61.1921 406.675 64.3994C406.675 67.52 406.588 70.7274 406.415 73.7613C406.241 77.9222 402.6 81.6495 397.053 81.8229C392.805 81.9096 388.124 81.9963 383.53 81.9963C378.242 81.9963 372.954 81.9096 368.273 81.7363C362.206 81.4762 358.998 78.1822 358.738 73.7613C358.565 70.9007 358.478 67.8667 358.478 64.7461C358.478 61.6254 358.565 58.5048 358.738 55.5575C358.912 51.9168 361.425 48.1028 368.1 47.9294C370.354 47.8427 372.694 47.8426 375.295 47.8426C375.902 45.9356 376.422 43.7685 376.682 42.2948C376.942 40.5611 378.676 39.6943 380.409 39.6943C382.49 39.6943 384.657 40.9079 384.657 43.1617C384.657 44.1153 384.137 46.0223 383.357 47.8426C388.124 47.8426 392.973 47.9294 397.486 48.016ZM398.613 61.3654C398.613 56.6844 398.613 54.6907 394.365 54.604C389.858 54.5173 384.397 54.4307 379.369 54.4307C376.162 54.4307 373.128 54.4307 370.527 54.5174C366.28 54.6907 366.28 56.8578 366.28 61.2787L398.613 61.3654ZM366.274 67.52C366.274 68.9937 366.274 70.3806 366.361 71.6808C366.448 75.2349 367.835 75.3216 384.218 75.3216C387.772 75.3216 391.239 75.235 394.447 75.1483C398.608 74.9749 398.608 73.0678 398.608 67.6067L366.274 67.52ZM392.8 26.6916V31.8061C392.8 34.58 393.927 36.0535 400.428 36.0535C408.75 36.0535 410.05 33.7998 410.05 29.9857C410.05 27.4718 411.87 26.4316 413.864 26.4316C416.118 26.4316 418.632 27.8185 418.632 30.7658C418.632 41.5147 409.27 43.2484 400.861 43.2484C391.846 43.2484 384.738 41.9481 384.738 33.1063C384.738 27.8186 384.825 14.7292 384.911 9.9616C384.911 7.36106 386.905 6.06082 388.899 6.06082C390.979 6.06082 392.973 7.36111 392.973 9.87496V9.9616C392.973 12.3888 392.8 16.0295 392.8 19.757V26.6916Z" fill="#FFF100"/>
<path d="M484.864 34.0596L484.951 38.7405H503.935C506.102 38.7405 507.142 40.3876 507.142 41.9479C507.142 43.5949 506.102 45.1552 504.021 45.1552H503.935L485.557 44.9818C486.684 48.6225 488.245 52.09 490.238 55.384C493.359 53.4769 496.653 50.7897 498.647 48.7093C499.427 47.9291 500.294 47.5823 501.074 47.5823C503.241 47.5823 505.322 49.6627 505.322 51.7431C505.322 54.6037 500.034 57.8111 494.053 60.845C497.26 64.9192 501.247 68.4733 505.668 71.0738C507.142 71.9407 507.749 73.1543 507.749 74.4545C507.749 76.535 505.928 78.702 503.414 78.702C499.167 78.702 490.238 68.9934 484.777 57.6377L484.864 60.0649L485.471 72.4608C485.471 72.6342 485.471 72.8075 485.471 72.9809C485.471 77.5752 482.784 83.2964 473.162 83.2964C467.354 83.2964 464.233 82.2561 464.233 78.8754C464.233 76.8816 465.533 74.9746 467.787 74.9746C468.047 74.9746 468.307 74.9746 468.567 75.0612C470.214 75.408 471.861 75.6681 473.248 75.6681C475.936 75.6681 477.756 74.6279 477.756 70.6404L477.669 44.9818L461.979 45.1552C461.286 45.1552 460.679 45.0685 460.159 44.8085C460.332 45.2419 460.506 45.7619 460.506 46.1953C460.506 48.2758 458.685 50.0962 456.778 50.0962C455.911 50.0962 455.045 49.6628 454.264 48.7093C453.311 47.409 452.011 45.8487 450.797 44.5484C450.884 58.0712 451.23 79.8289 451.23 79.8289V79.9156C451.23 82.3427 449.063 83.5564 446.983 83.5564C444.816 83.5564 442.735 82.3427 442.735 79.9156V79.8289L443.082 48.5358C440.828 52.5233 438.314 56.2508 435.714 59.4582C434.674 60.7584 433.373 61.2785 432.16 61.2785C429.993 61.2785 427.999 59.4581 427.999 57.3777C427.999 56.3375 428.432 55.2972 429.386 54.3437C433.807 49.8361 439.528 41.6878 443.082 33.6261V31.6324L450.884 31.7191C450.884 33.7995 450.797 35.88 450.797 37.7871C451.144 37.7871 451.49 37.8737 451.837 38.0471C453.831 39.0006 456.952 41.341 458.685 42.988C458.599 42.728 458.599 42.3813 458.599 42.1213C458.599 40.4743 459.812 38.7405 461.979 38.7405H477.669L477.583 34.0596H484.864ZM477.583 27.8183V23.5707H463.366C460.939 23.5707 459.812 22.0971 459.812 20.5368C459.812 18.8898 461.026 17.2428 463.366 17.2428H470.648C469.347 15.3357 468.481 14.2089 466.487 12.5619C465.62 11.8684 465.273 11.0882 465.273 10.308C465.273 8.48763 467.18 6.92731 469.261 6.92731C471.948 6.92731 477.929 12.8219 477.929 15.5091C477.929 16.1159 477.756 16.7227 477.496 17.2428H483.564C485.297 14.4689 487.118 11.1749 488.158 8.57434C488.851 7.01402 490.065 6.40723 491.365 6.40723C493.532 6.40723 495.873 8.14094 495.873 10.2214C495.873 11.0882 495.613 12.0417 491.972 17.2428H501.681C504.021 17.2428 505.148 18.8031 505.148 20.3634C505.148 22.0104 504.021 23.5707 501.681 23.5707H484.777L484.864 27.8183H477.583ZM442.995 24.1776L442.735 9.87468V9.78791C442.735 7.27406 444.902 6.06055 447.07 6.06055C449.15 6.06055 451.23 7.27406 451.23 9.78791V9.87468C451.23 9.87468 451.057 16.4626 450.97 24.1776H442.995ZM458.599 75.5813C456.085 75.5813 454.611 73.4143 454.611 71.3339C454.611 69.8602 455.391 68.4732 457.125 67.8664C463.02 65.8727 466.747 63.7924 471.775 60.2383C472.381 59.8049 473.075 59.5448 473.682 59.5448C475.502 59.5448 476.976 61.1051 476.976 63.0121C476.976 64.0523 476.456 65.1793 475.242 66.2195C470.821 69.8603 461.286 75.5813 458.599 75.5813Z" fill="#FFF100"/>
<path d="M552.83 43.9419C548.495 40.7345 546.242 40.9079 542.601 43.7685C538.44 47.0625 534.366 50.79 529.772 53.4772C524.05 56.8579 517.809 48.9696 524.744 45.3288C526.911 44.2019 533.499 40.2145 537.92 37.0939C545.461 31.7194 551.269 32.8463 557.511 37.3539C568.606 45.3289 580.655 55.8176 592.704 62.0589C598.339 64.9195 593.745 74.0213 587.07 70.7273C576.581 65.5262 562.885 51.3967 552.83 43.9419Z" fill="#FFF100"/>
<path d="M125.801 26.5186C125.714 32.0664 125.714 37.5274 125.714 43.0752H128.922C131.609 39.8679 134.556 34.4936 136.376 29.6393C136.897 28.1656 138.11 27.4722 139.41 27.4722C141.664 27.4722 144.265 29.4658 144.265 31.7196C144.265 32.9332 141.057 38.8277 137.33 43.0752L154.927 42.9886C157.267 42.9886 158.481 44.8957 158.481 46.7161C158.481 48.5365 157.354 50.3568 155.014 50.3568H154.927L129.615 50.01C138.197 59.8054 148.599 66.5668 158.914 71.5945C160.735 72.4613 161.428 73.8483 161.428 75.2352C161.428 77.5757 159.174 79.9161 156.401 79.9161C152.066 79.9161 135.683 67.5203 125.801 55.9046C125.888 64.1396 126.061 72.3747 126.061 80.6964C126.061 83.0368 123.894 84.1637 121.727 84.1637C119.646 84.1637 117.566 83.0368 117.566 80.783V80.6964L117.826 56.5113C110.371 65.6132 101.096 73.4148 89.8269 79.9161C88.7867 80.5229 87.8332 80.783 86.9663 80.783C84.4525 80.783 82.5454 78.7893 82.5454 76.6222C82.5454 75.3219 83.3256 73.8482 85.2326 72.8947C96.3282 67.2602 105.69 59.9787 113.752 50.01L89.3935 50.3568H89.3068C86.8796 50.3568 85.666 48.6231 85.666 46.8027C85.666 44.8957 86.9663 42.9886 89.3935 42.9886L117.913 43.0752L117.826 26.5186H125.801ZM117.739 19.0638L117.653 9.26838C117.653 6.75453 119.733 5.54102 121.727 5.54102C123.894 5.54102 125.974 6.84122 125.974 9.26838C125.974 12.5624 125.888 15.7698 125.888 19.0638H117.739Z" fill="#FFF100"/>
<path d="M125.887 19.0645H148.859C151.199 19.0645 152.413 20.9714 152.413 22.7918C152.413 24.6989 151.199 26.5193 148.859 26.5193H125.8H117.826H93.2938C90.78 26.5193 89.5664 24.699 89.5664 22.8786C89.5664 20.9715 90.8667 19.0645 93.2938 19.0645H117.739H125.887Z" fill="#00A0E9"/>
<path d="M104.823 40.3873C102.916 37.3533 100.489 34.7529 99.2754 33.7127C98.3218 32.9325 97.9751 32.1524 97.9751 31.2855C97.9751 29.6385 99.7955 28.0781 101.876 28.0781C105.603 28.0781 112.018 34.6662 112.018 37.7869C112.018 40.214 109.851 42.2077 107.77 42.2077C106.73 42.2077 105.603 41.6876 104.823 40.3873Z" fill="#00A0E9"/>
<path d="M188.999 26.2578H194.894C197.147 26.2578 198.274 28.0782 198.274 29.8985C198.274 31.7189 197.147 33.5393 194.894 33.5393H188.912H180.937H174.523C172.096 33.5393 170.969 31.8055 170.969 30.0718C170.969 28.1648 172.269 26.2578 174.523 26.2578H180.937H188.999Z" fill="#00A0E9"/>
<path d="M198.047 47.6689C196.275 47.6689 194.818 46.2493 194.807 44.4777C194.807 44.4723 194.807 44.4669 194.807 44.4615C194.807 42.7278 196.107 40.9941 198.448 40.9941H243.697C246.038 40.9941 247.165 42.6412 247.165 44.2882C247.165 46.0219 246.038 47.6689 243.697 47.6689H215.091H198.047Z" fill="#00A0E9"/>
<path d="M364.714 34.0607C369.481 32.9338 373.902 31.8069 377.283 30.68C377.803 30.5066 378.41 30.4199 378.843 30.4199C381.097 30.4199 382.657 31.9803 382.657 33.714C382.657 35.1009 381.704 36.4878 379.363 37.2679C366.968 41.4288 351.278 44.7228 349.544 44.7228C346.683 44.7228 345.123 42.8157 345.123 40.9087C345.123 39.175 346.337 37.4414 348.85 37.0947C351.364 36.6612 354.052 36.3144 356.652 35.7943L364.714 34.0607Z" fill="#00A0E9"/>
<path d="M21.4331 32.8482C14.585 34.1485 13.4581 24.96 21.173 23.8331C29.408 22.6195 41.6305 22.5328 48.8253 24.0931C56.1068 25.6534 54.1998 34.5819 47.1783 33.1082C39.1167 31.3746 29.9281 31.2012 21.4331 32.8482Z" fill="#FFF100"/>
<path d="M57.147 24.3528C56.1935 22.8792 52.3794 19.3251 50.7323 18.3716C46.5715 16.0311 50.559 11.2635 54.3731 13.2572C56.5402 14.3841 60.6144 17.1579 62.2614 19.4117C65.2086 23.3992 59.5742 28.0802 57.147 24.3528Z" fill="#00A0E9"/>
<path d="M60.6139 12.9097C56.3663 10.6559 60.2671 5.71492 64.1679 7.53529C66.4217 8.57551 70.4959 11.3494 72.2296 13.5165C75.2635 17.4173 69.8024 22.185 67.2886 18.5442C66.2484 17.0706 62.2609 13.7765 60.6139 12.9097Z" fill="#00A0E9"/>
<path d="M11.7237 68.214C8.60302 63.7931 14.2375 57.8118 18.9185 62.5795C26.2866 70.121 40.3295 69.5143 53.4189 65.7869C60.6137 63.7931 62.6941 73.155 55.6726 75.3221C38.5091 80.6965 17.7049 76.6224 11.7237 68.214Z" fill="#00A0E9"/>
<path d="M450.97 24.1797H456.865C459.379 24.1797 460.679 26.0868 460.679 27.9938C460.679 29.9009 459.379 31.808 456.951 31.808H456.865L450.884 31.7212L443.082 31.6346L434.674 31.808C434.587 31.808 434.587 31.808 434.5 31.808C431.9 31.808 430.686 30.0743 430.686 28.1672C430.686 26.2602 432.073 24.1797 434.674 24.1797H442.995H450.97Z" fill="#00A0E9"/>
<path d="M467.873 58.5049C465.36 55.9044 462.846 55.1242 461.025 54.2573C459.812 53.6505 459.378 52.7837 459.378 51.8302C459.378 50.0965 461.112 48.1895 463.106 48.1895C464.493 48.1895 473.855 51.1367 473.855 55.4709C473.855 57.5513 472.121 59.6317 470.214 59.6317C469.434 59.6317 468.654 59.2851 467.873 58.5049Z" fill="#00A0E9"/>
<path d="M484.864 34.0616H497.953C500.207 34.0616 501.247 32.5013 501.247 30.941C501.247 29.3806 500.207 27.8203 497.953 27.8203H484.864H477.582H465.793C463.539 27.8203 462.326 29.4674 462.326 31.1144C462.326 32.588 463.453 34.0616 465.793 34.0616H477.582H484.864Z" fill="#00A0E9"/>
</svg>
