<svg width="458" height="96" viewBox="0 0 458 96" fill="none" xmlns="http://www.w3.org/2000/svg">
<path d="M79.2416 67.6219C84.3108 63.5698 86.5952 56.3848 86.5952 52.0662C86.5952 46.774 82.3309 42.624 76.8919 42.624C76.3861 42.624 75.8857 42.6621 75.407 42.7382C76.6471 39.5672 77.2835 37.0381 77.2835 35.8796C77.2835 34.9332 77.1366 34.0194 76.8593 33.1546C80.7917 32.2354 83.5493 28.8088 83.5493 24.4793C83.5493 20.0084 80.5578 16.5165 76.3589 15.7877C75.6137 13.6447 73.8515 11.2352 70.0876 9.1031C68.3906 8.14039 64.8553 6.51411 62.3533 6.51411C60.5639 6.51411 58.8614 7.08522 57.4201 8.04793C55.8319 6.85134 53.8412 6.16602 51.6492 6.16602C46.5474 6.16602 42.5551 10.1964 42.5551 15.3471V15.5647C35.7672 15.5701 29.3002 15.581 23.2193 15.6517C14.7507 15.7768 8.61546 21.5749 8.61546 29.4452V29.7933V29.9129L8.6209 30.0326C8.69161 31.7024 8.78951 34.2533 8.78951 37.1088C8.78951 43.293 8.19121 52.1532 3.03499 57.6738L3.0078 57.701L2.9806 57.7282C0.80498 60.1214 0.348101 62.5527 0.348101 64.1735C0.348101 68.2637 3.26343 71.8371 7.18499 73.1099C6.89672 73.3166 6.63565 73.4797 6.42896 73.5831L6.39089 73.5994C2.44758 75.242 0 78.5979 0 82.3617C0 84.7223 1.03886 87.1046 2.85006 88.8886C4.75373 90.7705 7.31553 91.8039 10.0514 91.8039C14.7942 91.8039 19.7873 87.7409 22.5177 85.1247C23.4097 87.0175 24.8728 88.9103 27.2932 90.3734C30.785 92.4783 35.6965 93.3703 43.73 93.3703C51.3447 93.3703 57.3113 92.8863 61.7169 90.5257C65.1109 88.7036 66.9439 86.0983 67.9338 83.5637C68.3199 84.0478 68.6789 84.5265 68.9835 84.9996C70.7621 87.8279 73.6393 89.4488 76.8864 89.4488C82.2874 89.4488 86.8508 84.8854 86.8508 79.4844C86.8562 75.7641 84.289 71.7773 79.2416 67.6219ZM57.9966 66.4362C58.3121 66.2023 58.6275 65.963 58.9376 65.7128C58.6874 66.0826 58.4644 66.4688 58.274 66.8713C58.1815 66.7244 58.0891 66.5776 57.9966 66.4362ZM23.3281 62.0251C23.0126 62.4167 22.7298 62.8355 22.485 63.2761C22.4687 63.2706 22.447 63.2652 22.4307 63.2598C22.6645 62.792 22.8984 62.3242 23.116 61.8347C23.1812 61.9 23.252 61.9653 23.3281 62.0251Z" fill="black"/>
<path d="M172.168 73.6246L172.119 73.6083L172.07 73.592C169.546 72.6619 167.044 71.7101 164.558 70.6821L167.936 70.7311H167.974H168.012H168.099C173.283 70.7311 177.193 66.8204 177.193 61.637C177.193 57.7426 174.963 54.5662 171.635 53.2282C172.026 52.9617 172.412 52.6788 172.788 52.3634C177.596 48.2569 178.156 41.5342 178.156 36.8349C178.156 31.3632 173.968 27.3927 168.192 27.3927C166.93 27.3927 165.739 27.6102 164.662 28.0127C164.667 27.9094 164.667 27.8006 164.667 27.6973C164.667 23.841 162.987 20.5993 159.93 18.5597C157.651 17.0422 154.648 16.2372 151.004 16.1665C151.004 16.1502 151.004 16.1338 151.004 16.123V16.0359C151.004 10.7437 146.702 6.59375 141.214 6.59375C135.78 6.59375 131.685 10.5806 131.685 15.8619V16.0359V16.2807L131.69 16.3242C129.901 16.3351 128.41 16.3351 127.464 16.3351C126.512 16.3351 125.609 16.4602 124.755 16.6832C124.179 15.5627 123.368 14.5456 122.33 13.6808L122.281 13.6373L122.226 13.5938C119.354 11.3148 111.5 7.54558 107.97 7.54558C102.803 7.54558 98.4413 11.75 98.4413 16.7267C98.4413 18.2877 98.8655 19.7399 99.6487 20.9909C95.9991 22.3017 93.3068 25.7501 93.3068 29.6934C93.3068 33.7673 96.0698 37.0633 100.182 37.8955C101.803 38.2327 103.402 38.8201 105.039 39.6849C103.195 41.1426 101.231 42.4697 98.9906 43.7805C96.0318 45.4667 94.2641 48.4309 94.2641 51.7161C94.2641 53.1412 94.5904 54.4955 95.1615 55.7084C93.7854 57.3075 92.9587 59.4015 92.9587 61.724C92.9587 66.8584 96.8694 70.7311 102.053 70.7311H102.14H102.178H102.216L107.611 70.6549C104.712 72.0963 101.552 73.4669 98.0007 74.843C94.0737 76.3768 91.6533 79.6565 91.6533 83.3986C91.6533 88.5548 96.0426 92.7538 101.444 92.7538C104.136 92.7538 109.107 90.7196 116.222 86.711C118.446 85.46 121.775 83.4911 125.386 81.0326L125.332 85.8625V85.8897V85.9169V86.0039C125.332 90.9915 129.428 94.7499 134.861 94.7499C140.202 94.7499 144.39 90.9099 144.39 86.0039V85.9169V85.8897V85.8625L144.336 80.7607C148.459 83.5781 152.174 85.7265 155.013 87.244C158.559 89.1368 164.993 92.3132 168.279 92.3132C173.821 92.3132 178.504 87.7118 178.504 82.2618C178.499 78.4599 176.073 75.153 172.168 73.6246ZM125.152 34.1371C125.783 34.2785 126.436 34.3492 127.111 34.3492C127.421 34.3492 127.91 34.3438 128.541 34.3329C127.986 35.1379 127.328 35.8994 126.534 36.6228C126.208 35.7253 125.734 34.8877 125.152 34.1371ZM119.855 30.7975C119.849 30.7703 119.849 30.7431 119.849 30.7159C119.871 30.7431 119.887 30.7758 119.915 30.803C119.893 30.803 119.877 30.803 119.855 30.7975ZM144.265 52.5374C143.988 50.7371 143.21 49.138 142.041 47.8762C142.574 47.2507 143.08 46.6089 143.558 45.9453C143.596 45.8909 143.634 45.8365 143.678 45.7821C144.042 47.8598 144.945 50.4162 147.153 52.483C147.175 52.5048 147.202 52.5265 147.224 52.5483H144.265V52.5374Z" fill="black"/>
<path d="M259.046 73.1645H245.775V68.6392H252.954C258.186 68.6392 262.135 64.7285 262.135 59.5451C262.135 54.3128 258.186 50.364 252.954 50.364H245.775V48.9716H255.826C261.211 48.9716 265.268 45.099 265.268 39.9645C265.268 37.4626 264.316 35.2598 262.728 33.6444C265.72 32.0833 267.705 29.0647 267.705 25.5184C267.705 23.147 266.715 20.8354 264.996 19.1656C263.234 17.4577 260.868 16.5113 258.165 16.4298C252.954 16.2883 246.389 16.2611 239.683 16.2557V15.7716C239.683 10.2401 235.435 6.06836 229.805 6.06836C224.176 6.06836 219.928 10.2401 219.928 15.7716V16.2829C216.768 16.3155 213.853 16.3754 211.438 16.4243C206.325 16.4896 202.474 17.6916 199.657 20.1066C197.514 21.945 196.111 24.3653 195.458 27.3296C194.299 26.7966 193.13 26.5246 191.944 26.5246C186.875 26.5246 182.589 30.5278 182.589 35.2706C182.589 37.4408 183.438 39.4805 185.118 41.3461L185.151 41.3841L185.183 41.4222C185.814 42.0966 186.891 43.8099 187.756 45.9801C188.267 47.2801 189.013 48.3951 189.932 49.2871C189.475 49.4339 189.013 49.5753 188.534 49.7113L188.501 49.7222L188.469 49.7331C184.58 50.897 182.067 54.2747 182.067 58.3377C182.067 63.8311 186.304 68.302 191.509 68.302C191.754 68.302 192.004 68.2911 192.254 68.2639C190.846 71.696 188.958 74.7636 186.505 77.6898C185.08 79.3378 184.33 81.3394 184.33 83.4878C184.33 88.5135 188.855 92.756 194.207 92.756C197.405 92.756 200.222 91.3962 202.36 88.829C203.986 90.3574 206.211 91.2766 208.74 91.2766H258.953C264.235 91.2766 268.221 87.3659 268.221 82.1825C268.227 77.1241 264.191 73.1645 259.046 73.1645ZM210.959 73.1645H210.905C210.921 73.1156 210.937 73.0612 210.959 73.0122V73.1645Z" fill="black"/>
<path d="M353.468 25.4738H351.423V16.2057C351.423 10.7721 347.289 6.67645 341.806 6.67645C336.324 6.67645 332.19 10.7721 332.19 16.2057V25.4738H319.381C317.744 23.3798 315.188 22.0798 312.218 22.0798H308.645L308.693 15.7216V15.6998V15.6781C308.693 10.4947 304.522 6.58398 298.99 6.58398C293.508 6.58398 289.374 10.4947 289.374 15.6781V15.6998V15.7216L289.423 22.0798H284.109C278.909 22.0798 274.841 26.1918 274.841 31.435C274.841 36.6184 278.828 40.5291 284.109 40.5291H294.389C294.269 41.1437 294.144 41.7583 294.013 42.373C290.859 40.8827 289.238 40.5291 287.764 40.5291C282.597 40.5291 278.235 44.7716 278.235 49.7973C278.235 53.2891 280.231 56.2752 283.581 57.7872C284.936 58.4236 286.48 59.2612 288.145 60.2565C284.892 67.1587 280.862 72.7392 276.347 76.5302C274.183 78.336 272.926 80.9032 272.926 83.5683C272.926 88.7354 277.49 93.0976 282.891 93.0976C287.062 93.0976 291.446 89.9483 296.287 83.4759C298.675 80.2831 300.992 76.5193 303.075 72.489C304.647 73.6094 306.469 74.2132 308.394 74.2132C313.654 74.2132 318.272 69.5138 318.272 64.1618C318.272 62.9543 318.043 61.7904 317.575 60.621C319.294 62.046 320.823 63.6505 321.812 65.1191L321.851 65.1789L321.894 65.2387C323.716 67.7896 326.474 69.2582 329.454 69.2582C330.401 69.2582 331.32 69.1113 332.196 68.8448V73.7182C331.896 73.7889 331.385 73.8705 330.586 73.8705C328.987 73.8705 326.827 73.5224 323.983 72.8153L323.858 72.7827L323.732 72.7555L323.553 72.7174C323.058 72.6141 322.378 72.4727 321.53 72.4727C316.477 72.4727 312.523 76.6227 312.523 81.9149C312.523 86.6033 315.666 90.514 320.339 91.6399L320.382 91.6508L320.426 91.6616C324.151 92.4993 327.659 92.9235 330.841 92.9235C337.216 92.9235 342.329 91.27 346.038 88.012C349.622 84.8628 351.597 80.3158 351.597 75.2139V75.0399V75.0018V74.9638L351.423 62.4702V44.0101H353.468C358.95 44.0101 363.084 40.0233 363.084 34.742C363.084 29.4606 358.95 25.4738 353.468 25.4738ZM330.678 46.9363C329.873 46.3435 328.154 45.136 326.131 44.0101H332.19V48.1057C331.712 47.7195 331.211 47.3279 330.678 46.9363ZM313.289 42.7591C313.409 42.8298 313.54 42.8897 313.665 42.9549C313.496 43.0637 313.338 43.1779 313.175 43.2922C313.213 43.1181 313.257 42.9386 313.289 42.7591Z" fill="black"/>
<path d="M445.643 73.1034C443.506 72.1624 441.227 71.1127 438.899 69.9161C441.45 67.4794 442.891 63.944 442.891 59.6363C442.891 58.8639 442.864 57.8468 442.842 56.8624C442.826 56.1444 442.804 55.3993 442.804 55.024V54.9315L442.799 54.8391C442.744 53.2019 442.413 50.651 441.085 48.2306C445.85 47.7628 449.331 44.0317 449.331 39.1855C449.331 34.7689 446.437 31.2771 442.309 30.3416C447.041 30.0968 450.549 26.4254 450.549 21.6064C450.549 16.6188 446.791 12.8604 441.803 12.8604H428.412C427.493 8.73765 423.637 5.54492 419.177 5.54492C415.979 5.54492 413.21 7.17664 411.584 10.0267L411.568 10.0539L411.551 10.0811C410.556 11.8705 409.713 13.2684 408.908 14.4269C407.483 13.4261 405.721 12.855 403.774 12.855H397.377C396.355 8.72133 392.444 5.54492 387.935 5.54492C384.4 5.54492 381.446 7.45403 380.021 10.6576C377.024 17.1464 374.892 20.0618 370.138 24.1574C368.006 25.9522 366.832 28.3835 366.832 30.9997C366.832 33.246 367.729 35.3346 369.192 36.95C369.018 37.6625 368.92 38.4077 368.92 39.18C368.92 44.0153 372.581 47.8607 377.394 48.2415C376.415 50.069 375.882 52.2446 375.8 54.7575L375.795 54.8445V54.9315C375.795 55.6767 375.773 56.5197 375.757 57.4117C375.735 58.3962 375.708 59.4133 375.708 60.4141C375.708 61.5019 375.735 62.5571 375.757 63.4926C375.779 64.2758 375.795 65.0101 375.795 65.6356V65.7389L375.8 65.8423C375.882 67.9744 376.703 69.878 378.041 71.3629C376.35 72.2549 374.555 73.1251 372.635 73.9954C368.773 75.7631 366.483 79.0755 366.483 82.8665C366.483 88.0227 370.759 92.2217 376.013 92.2217C377.802 92.2217 379.537 91.7702 381.18 90.8891C388.223 87.2014 394.119 83.3941 399.297 79.1353L399.205 86.1898V86.2224V86.255V86.342C399.205 91.2807 403.338 95.001 408.821 95.001C414.401 95.001 418.611 91.2807 418.611 86.342V86.255V86.2333V86.2115L418.546 78.6621C421.015 80.7344 423.626 82.7468 426.269 84.6015C433.237 89.4858 438.377 91.9606 441.542 91.9606C447.134 91.9606 451.681 87.4516 451.681 81.9092C451.681 78.042 449.424 74.7514 445.643 73.1034Z" fill="black"/>
<path d="M80.0686 22.5111C74.1509 22.424 68.2332 22.337 62.3155 22.337C63.0987 28.5158 64.143 34.2594 65.8835 39.1328C67.7111 35.8259 69.1035 32.4319 70.0607 29.1249C70.5829 27.3845 71.8882 26.6883 73.2806 26.6883C75.1952 26.6883 77.2838 28.1677 77.2838 30.4303C77.2838 31.3006 75.1082 38.9587 69.7126 46.6169C71.3661 48.9666 73.7158 51.5774 75.6303 51.5774C77.1097 51.5774 78.2411 49.9239 78.9373 45.6597C79.2854 43.484 80.7648 42.6138 82.3312 42.6138C84.4198 42.6138 86.5954 44.0932 86.5954 46.6169C86.5954 50.0109 83.7236 59.7577 76.0654 59.7577C74.0639 59.7577 69.4516 59.1485 64.8392 52.5346C61.8804 55.5805 58.4864 58.1042 54.8314 59.9317C54.7444 60.0188 54.6573 60.1058 54.5703 60.1058C59.1826 63.2387 59.7048 65.1532 59.7048 66.3716C59.7048 68.7212 57.6162 70.7228 55.4406 70.7228C54.3963 70.7228 53.439 70.2877 52.5687 69.2434C50.3931 66.4586 46.477 63.6738 44.1273 62.2814C42.996 61.5852 42.4739 60.6279 42.4739 59.7577C42.4739 57.9302 44.3884 56.1026 46.651 56.1026C47.3472 56.1026 47.8694 56.1897 49.4358 56.8859C49.4358 56.7988 49.4358 56.7118 49.4358 56.6248C49.4358 55.4935 49.958 54.2751 51.3504 53.6659C55.2665 51.7514 58.5734 49.0536 61.1842 46.0078C57.9643 39.0458 56.1368 30.6914 54.9184 22.337C46.651 22.337 38.7318 22.424 31.4217 22.5111C28.811 22.5111 27.7667 23.9905 27.7667 26.0791C27.7667 27.1234 27.8537 28.3417 27.8537 29.8211C27.8537 37.9145 26.8964 51.4903 19.7604 60.6279C18.542 62.1074 17.1496 62.7165 15.7572 62.7165C13.4076 62.7165 11.2319 60.889 11.2319 58.7134C11.2319 57.8431 11.58 56.8859 12.4503 55.9286C18.7161 49.2277 19.6733 39.3069 19.6733 31.6487C19.6733 28.8639 19.5863 26.3402 19.4993 24.3386C19.4993 24.2516 19.4993 24.0775 19.4993 23.9905C19.4993 19.5522 22.8062 15.7231 28.7239 15.6361C36.5562 15.5491 45.1716 15.5491 54.0482 15.5491C53.8741 13.8956 53.613 12.2421 53.439 10.5887C53.439 10.3276 53.439 10.1535 53.439 9.89246C53.439 7.45576 55.2665 6.15039 57.094 6.15039C59.0956 6.15039 61.0972 7.54279 61.2712 10.3276C61.3582 12.0681 61.4453 13.8086 61.6193 15.5491C64.7522 15.5491 67.9721 15.6361 71.105 15.6361C69.3645 13.8086 67.363 12.7643 65.5354 11.807C64.5782 11.3719 64.2301 10.5887 64.2301 9.89246C64.2301 8.23899 65.9706 6.49849 67.7981 6.49849C69.1905 6.49849 76.8487 9.28328 76.8487 13.1994C76.8487 14.0697 76.5006 14.9399 75.9784 15.6361H80.1556C82.4183 15.6361 83.5496 17.2896 83.5496 19.0301C83.5496 20.7706 82.4183 22.5111 80.1556 22.5111H80.0686ZM42.3868 54.1011C31.6828 54.1011 30.4644 52.8827 30.4644 45.2245C30.4644 39.916 31.2477 36.8702 37.5134 36.8702C39.515 36.8702 41.6906 36.7831 43.7792 36.7831C53.439 36.7831 53.7001 38.7847 53.7001 45.9207C53.7001 51.9254 53.0909 54.1011 42.3868 54.1011ZM49.1748 82.4712C35.6859 82.4712 32.0309 79.8604 32.0309 72.5503C32.0309 63.9349 32.1179 63.0646 32.1179 62.3684C32.2919 59.7577 34.2935 58.5393 36.2951 58.5393C38.3837 58.5393 40.4723 59.9317 40.4723 62.2814C40.4723 64.7181 40.3853 70.7228 40.3853 71.6801C40.5593 74.726 42.3868 75.4222 49.4358 75.4222C57.7032 75.4222 60.662 74.726 60.662 70.7228C60.662 68.4602 62.4896 67.5029 64.4911 67.5029C66.7538 67.5029 69.1035 68.8083 69.1035 70.8969C69.1035 80.4696 63.7079 82.4712 49.1748 82.4712ZM36.9913 46.791C36.9913 47.9223 37.5134 48.2704 42.7349 48.2704C46.8251 48.2704 47.2602 48.0093 47.2602 45.3116C47.2602 42.4397 47.1732 42.4397 42.0387 42.4397C38.0356 42.4397 37.0783 42.6138 36.9913 43.7451C36.9913 43.7451 36.9913 43.7451 36.9913 46.791Z" stroke="black" stroke-width="10"/>
<path d="M57.094 6.15133C59.0956 6.15133 61.0971 7.54372 61.2712 10.3285C61.3582 12.069 61.4452 13.8095 61.6193 15.55C64.7522 15.55 67.9721 15.637 71.105 15.637C69.3645 13.8095 67.3629 12.7652 65.5354 11.8079C64.5781 11.3728 64.23 10.5896 64.23 9.8934C64.23 8.23992 65.9705 6.49943 67.798 6.49943C69.1904 6.49943 76.8486 9.28422 76.8486 13.2003C76.8486 14.0706 76.5005 14.9408 75.9784 15.637H80.1556C82.4182 15.637 83.5495 17.2905 83.5495 19.031C83.5495 20.7715 82.4182 22.512 80.1556 22.512H80.0685C74.1508 22.425 68.2332 22.3379 62.3155 22.3379C63.0987 28.5167 64.143 34.2604 65.8835 39.1337C67.711 35.8268 69.1034 32.4328 70.0607 29.1259C70.5828 27.3854 71.8882 26.6892 73.2806 26.6892C75.1951 26.6892 77.2837 28.1686 77.2837 30.4313C77.2837 31.3015 75.1081 38.9597 69.7126 46.6179C71.3661 48.9675 73.7157 51.5783 75.6303 51.5783C77.1097 51.5783 78.241 49.9248 78.9372 45.6606C79.2853 43.485 80.7647 42.6147 82.3312 42.6147C84.4198 42.6147 86.5954 44.0942 86.5954 46.6179C86.5954 50.0118 83.7236 59.7586 76.0654 59.7586C74.0638 59.7586 69.4515 59.1495 64.8392 52.5356C61.8803 55.5814 58.4864 58.1052 54.8313 59.9327C54.7443 60.0197 54.6573 60.1067 54.5703 60.1067C59.1826 63.2396 59.7047 65.1542 59.7047 66.3725C59.7047 68.7222 57.6161 70.7238 55.4405 70.7238C54.3962 70.7238 53.4389 70.2886 52.5687 69.2443C50.3931 66.4595 46.477 63.6747 44.1273 62.2823C42.996 61.5861 42.4738 60.6289 42.4738 59.7586C42.4738 57.9311 44.3884 56.1036 46.651 56.1036C47.3472 56.1036 47.8694 56.1906 49.4358 56.8868C49.4358 56.7998 49.4358 56.7128 49.4358 56.6257C49.4358 55.4944 49.9579 54.2761 51.3503 53.6669C55.2665 51.7523 58.5734 49.0546 61.1841 46.0087C57.9642 39.0467 56.1367 30.6923 54.9184 22.3379C46.651 22.3379 38.7317 22.425 31.4217 22.512C28.8109 22.512 27.7666 23.9914 27.7666 26.08C27.7666 27.1243 27.8536 28.3427 27.8536 29.8221C27.8536 37.9154 26.8964 51.4913 19.7603 60.6289C18.542 62.1083 17.1496 62.7175 15.7572 62.7175C13.4075 62.7175 11.2319 60.89 11.2319 58.7143C11.2319 57.8441 11.58 56.8868 12.4502 55.9295C18.716 49.2286 19.6733 39.3078 19.6733 31.6496C19.6733 28.8648 19.5863 26.3411 19.4993 24.3395C19.4993 24.2525 19.4993 24.0784 19.4993 23.9914C19.4993 19.5532 22.8062 15.7241 28.7239 15.637C36.5561 15.55 45.1716 15.55 54.0481 15.55C53.8741 13.8965 53.613 12.2431 53.4389 10.5896C53.4389 10.3285 53.4389 10.1545 53.4389 9.8934C53.4389 7.4567 55.2665 6.15133 57.094 6.15133ZM43.7792 36.7841C53.4389 36.7841 53.7 38.7856 53.7 45.9217C53.7 51.9264 53.0908 54.102 42.3868 54.102C31.6827 54.102 30.4644 52.8837 30.4644 45.2255C30.4644 39.917 31.2476 36.8711 37.5134 36.8711C39.515 36.8711 41.6906 36.7841 43.7792 36.7841ZM42.7349 48.2713C46.825 48.2713 47.2602 48.0103 47.2602 45.3125C47.2602 42.4407 47.1731 42.4407 42.0387 42.4407C38.0355 42.4407 37.0783 42.6147 36.9912 43.7461C36.9912 43.7461 36.9912 43.7461 36.9912 46.7919C36.9912 47.9232 37.5134 48.2713 42.7349 48.2713ZM36.295 58.5403C38.3836 58.5403 40.4722 59.9327 40.4722 62.2823C40.4722 64.719 40.3852 70.7238 40.3852 71.681C40.5593 74.7269 42.3868 75.4231 49.4358 75.4231C57.7032 75.4231 60.662 74.7269 60.662 70.7238C60.662 68.4611 62.4895 67.5038 64.4911 67.5038C66.7537 67.5038 69.1034 68.8092 69.1034 70.8978C69.1034 80.4705 63.7079 82.4721 49.1747 82.4721C35.6859 82.4721 32.0308 79.8614 32.0308 72.5513C32.0308 63.9358 32.1179 63.0656 32.1179 62.3694C32.2919 59.7586 34.2935 58.5403 36.295 58.5403ZM57.094 5.60742C55.0598 5.60742 52.895 7.1086 52.895 9.8934V10.5896V10.6168L52.9005 10.644C52.9875 11.4816 53.1017 12.3247 53.2051 13.1405C53.2866 13.7497 53.3682 14.3806 53.4389 15.0007C44.6657 15.0007 36.3766 15.0007 28.7184 15.0877C22.9694 15.1747 18.9553 18.8298 18.9553 23.986V24.3341C19.0315 26.0746 19.1294 28.6962 19.1294 31.6442C19.1294 38.6605 18.3951 48.7717 12.0532 55.5542C11.1557 56.5387 10.688 57.6265 10.688 58.7089C10.688 61.1293 13.0594 63.2559 15.7572 63.2559C17.4215 63.2559 18.9499 62.4673 20.1791 60.9715C25.6345 53.9878 28.3975 43.5067 28.3975 29.8166C28.3975 29.0008 28.3703 28.2611 28.3486 27.603C28.3268 27.059 28.3105 26.5423 28.3105 26.0746C28.3105 24.0404 29.3276 23.0505 31.4217 23.0505C38.6719 22.9634 46.4062 22.8819 54.4506 22.8764C55.8974 32.6069 57.8391 39.9496 60.5478 45.9108C58.3341 48.4345 55.707 50.5938 52.8624 52.2419C54.0536 50.8603 54.2439 48.8098 54.2439 45.9162C54.2439 38.5626 53.7653 36.2347 43.7792 36.2347C42.7186 36.2347 41.6253 36.2565 40.5701 36.2782C39.5041 36.3 38.4979 36.3218 37.5134 36.3218C30.4807 36.3218 29.9205 40.178 29.9205 45.22C29.9205 53.4058 31.5522 54.6405 42.3868 54.6405C45.8188 54.6405 48.2664 54.4175 50.0069 53.9062C49.4195 54.4719 49.0387 55.2225 48.9245 56.0764C47.8422 55.6358 47.3146 55.5597 46.6456 55.5597C44.1762 55.5597 41.9245 57.5613 41.9245 59.7586C41.9245 60.9117 42.6207 61.9995 43.839 62.7447C45.8895 63.963 49.9362 66.7641 52.139 69.5761C53.0745 70.702 54.1841 71.2622 55.4405 71.2622C58.0023 71.2622 60.2486 68.9724 60.2486 66.3671C60.2486 65.0128 59.6993 63.0982 55.5928 60.1502C58.9106 58.4261 61.9946 56.1471 64.7739 53.3732C68.9511 59.0787 73.199 60.2971 76.0654 60.2971C80.4819 60.2971 83.1851 57.2675 84.67 54.7329C86.367 51.8394 87.1393 48.4944 87.1393 46.6124C87.1393 43.7678 84.6972 42.0654 82.3312 42.0654C80.2208 42.0654 78.7523 43.3762 78.3987 45.5681C77.8059 49.1905 76.8758 51.0289 75.6303 51.0289C74.3358 51.0289 72.3832 49.3809 70.3761 46.607C75.5161 39.1936 77.8276 31.5571 77.8276 30.4258C77.8276 27.864 75.478 26.1398 73.2806 26.1398C71.4422 26.1398 70.077 27.1678 69.5385 28.9627C68.6737 31.9596 67.4826 34.913 65.9923 37.7685C64.725 33.8742 63.7405 29.0824 62.9301 22.8764C68.6628 22.8819 74.45 22.9689 80.0577 23.0505H80.1501C82.7337 23.0505 84.088 21.0271 84.088 19.0256C84.088 17.1273 82.8533 15.0877 80.1501 15.0877H76.9356C77.2294 14.4731 77.3871 13.8258 77.3871 13.1949C77.3871 8.85998 69.4461 5.95008 67.7926 5.95008C65.7149 5.95008 63.6807 7.9027 63.6807 9.88796C63.6807 10.9323 64.2844 11.8243 65.2906 12.292L65.3015 12.2975C66.7864 13.0752 68.3147 13.8748 69.7289 15.0823C68.603 15.0768 67.4717 15.0605 66.3621 15.0442C64.9643 15.0224 63.5175 15.0061 62.1088 15.0007C61.9674 13.4288 61.8858 11.8351 61.8096 10.2959C61.6138 7.07597 59.2261 5.60742 57.094 5.60742ZM37.5351 43.7678C37.5895 43.213 38.041 42.9846 42.0387 42.9846C44.3666 42.9846 45.7753 42.9846 46.3138 43.2783C46.6619 43.4687 46.7163 43.882 46.7163 45.3125C46.7163 47.5425 46.7163 47.7274 42.7349 47.7274C37.5351 47.7274 37.5351 47.3576 37.5351 46.7919V43.7678ZM36.295 57.9964C34.0922 57.9964 31.7752 59.3398 31.5739 62.3313V62.3476V62.3639C31.5739 62.5162 31.5685 62.674 31.5631 62.9187C31.5413 63.789 31.4869 65.8286 31.4869 72.5458C31.4869 80.4705 35.7838 83.0106 49.1747 83.0106C63.3326 83.0106 69.6473 81.2592 69.6473 70.8924C69.6473 68.4285 67.0257 66.9545 64.4911 66.9545C61.8368 66.9545 60.1181 68.4339 60.1181 70.7183C60.1181 74.0579 58.0241 74.8738 49.4358 74.8738C41.881 74.8738 41.0651 73.9437 40.9291 71.6593C40.9291 71.2785 40.94 70.1744 40.9563 68.8201C40.9835 66.5738 41.0161 63.7781 41.0161 62.2769C41.0161 59.6009 38.6175 57.9964 36.295 57.9964Z" stroke="black" stroke-width="10"/>
<path d="M15.4961 80.9056C12.6243 80.9056 10.8838 78.643 10.8838 76.9025C10.8838 75.5101 11.8411 74.0307 13.9297 73.1604C16.1053 72.2902 20.8916 68.026 22.197 65.2412C22.9802 63.5877 24.1986 62.9785 25.591 62.9785C27.6796 62.9785 29.9422 64.719 29.9422 66.8946C29.9422 71.1589 20.1084 80.9056 15.4961 80.9056Z" stroke="black" stroke-width="10"/>
<path d="M25.5909 62.9795C27.6795 62.9795 29.9422 64.72 29.9422 66.8956C29.9422 71.1598 20.1084 80.9066 15.4961 80.9066C12.6242 80.9066 10.8837 78.6439 10.8837 76.9034C10.8837 75.511 11.841 74.0316 13.9296 73.1614C16.1052 72.2911 20.8916 68.0269 22.197 65.2421C22.9802 63.5886 24.1986 62.9795 25.5909 62.9795ZM25.5909 62.4355C23.8233 62.4355 22.5124 63.3004 21.7075 65.0082C20.4347 67.7277 15.6701 71.8777 13.7284 72.6555C11.6017 73.5421 10.3398 75.1249 10.3398 76.9034C10.3398 77.9477 10.862 79.0845 11.7322 79.9439C12.7167 80.912 14.0547 81.4505 15.4961 81.4505C18.1884 81.4505 22.0828 78.5787 24.8295 75.8863C27.5653 73.2103 30.4861 69.441 30.4861 66.8956C30.4861 64.3447 27.9025 62.4355 25.5909 62.4355Z" stroke="black" stroke-width="10"/>
<path d="M32.5528 33.128C30.4642 33.128 29.4199 31.6486 29.4199 30.1691C29.4199 28.6027 30.5512 26.9492 32.5528 26.9492H51.4372C53.4388 26.9492 54.4831 28.5157 54.4831 29.9951C54.4831 31.5615 53.4388 33.128 51.4372 33.128H32.5528Z" stroke="black" stroke-width="10"/>
<path d="M51.4372 26.9502C53.4387 26.9502 54.483 28.5166 54.483 29.996C54.483 31.5625 53.4387 33.1289 51.4372 33.1289H32.5528C30.4642 33.1289 29.4199 31.6495 29.4199 30.1701C29.4199 28.6036 30.5512 26.9502 32.5528 26.9502H51.4372ZM51.4372 26.4062H32.5528C30.2521 26.4062 28.876 28.3208 28.876 30.1701C28.876 31.9106 30.1378 33.6728 32.5528 33.6728H51.4372C53.7923 33.6728 55.0269 31.8235 55.0269 29.996C55.0269 28.2555 53.7705 26.4062 51.4372 26.4062Z" stroke="black" stroke-width="10"/>
<path d="M79.0244 76.6404C76.5877 72.8113 72.7586 69.7654 70.0608 67.9379C68.8425 67.0676 68.3203 66.1104 68.3203 65.0661C68.3203 63.2385 70.1478 61.498 72.4975 61.498C75.6304 61.498 86.8566 69.5043 86.8566 74.0296C86.8566 76.5533 84.594 78.5549 82.3313 78.5549C81.113 78.5549 79.8946 78.0328 79.0244 76.6404Z" stroke="black" stroke-width="10"/>
<path d="M72.4975 61.499C75.6304 61.499 86.8566 69.5053 86.8566 74.0306C86.8566 76.5543 84.5939 78.5559 82.3313 78.5559C81.1129 78.5559 79.8946 78.0337 79.0243 76.6413C76.5876 72.8122 72.7585 69.7663 70.0608 67.9388C68.8424 67.0686 68.3203 66.1113 68.3203 65.067C68.3203 63.2395 70.1478 61.499 72.4975 61.499ZM72.4975 60.9551C69.9357 60.9551 67.7764 62.837 67.7764 65.067C67.7764 66.3343 68.4399 67.4493 69.7453 68.3794C72.4594 70.2178 76.1851 73.1875 78.5674 76.9296C79.6879 78.719 81.2326 79.0943 82.3313 79.0943C85.0345 79.0943 87.4005 76.7229 87.4005 74.0251C87.4005 70.9521 83.0601 67.1338 81.1945 65.6381C78.3825 63.3863 74.461 60.9551 72.4975 60.9551Z" stroke="black" stroke-width="10"/>
<path d="M148.562 59.497C157.178 66.0239 165.967 69.6789 175.627 73.247C177.629 74.0302 178.499 75.4226 178.499 76.815C178.499 79.0776 176.41 81.4273 173.713 81.4273C171.363 81.4273 157.352 75.3356 144.211 64.2834L144.385 80.47V80.557C144.385 82.7327 142.297 83.864 140.295 83.864C138.207 83.864 136.205 82.7327 136.205 80.557V80.47L136.379 64.4575C126.284 73.421 109.923 81.8624 106.878 81.8624C104.354 81.8624 102.526 79.9479 102.526 77.9463C102.526 76.6409 103.397 75.2485 105.398 74.4653C115.754 70.4622 123.586 66.285 131.593 59.497H148.562ZM136.292 52.5351L136.205 48.706C136.118 46.0082 138.381 44.8769 140.295 44.8769C142.384 44.8769 144.385 46.0952 144.385 48.5319C144.385 48.6189 144.385 48.6189 144.385 48.706L144.298 52.5351H136.292ZM109.14 50.2724C106.791 50.2724 105.137 48.2708 105.137 46.2693C105.137 45.0509 105.746 43.8326 107.139 43.0493C112.795 39.7424 116.798 36.3484 120.802 31.9102C121.585 31.0399 122.542 30.6048 123.499 30.6048C125.327 30.6048 127.067 32.1712 127.067 34.1728C127.067 35.0431 126.719 36.0874 125.849 37.0446C119.67 44.0066 112.099 50.2724 109.14 50.2724ZM169.884 30.6918C169.884 28.4292 171.711 27.3849 173.626 27.3849C175.54 27.3849 178.151 28.3421 178.151 31.388C178.151 43.3104 173.539 45.225 164.314 45.225C156.308 45.225 154.306 42.1791 154.306 37.0446C154.306 33.8247 155.612 28.2551 155.96 25.6444C155.96 25.4703 155.96 25.2963 155.96 25.1222C155.96 23.7298 155.089 23.2077 153.523 23.2077H150.042C148.301 33.4766 143.689 42.5272 130.722 47.3136C129.939 47.5746 129.33 47.7487 128.721 47.7487C126.11 47.7487 124.718 45.6601 124.718 43.6585C124.718 42.2661 125.414 40.9607 126.893 40.3516C136.379 36.6965 140.382 31.1269 141.862 23.2947C137.684 23.3817 133.681 23.4688 132.55 23.4688C130.287 23.4688 128.895 21.6412 128.895 19.8137C128.895 18.0732 130.2 16.3327 132.898 16.3327C134.726 16.3327 138.468 16.3327 142.558 16.2457C142.645 15.2884 142.645 14.4182 142.645 13.4609C142.645 12.5036 142.645 11.5464 142.558 10.5891C142.558 10.5021 142.558 10.5021 142.558 10.415C142.558 7.80428 144.559 6.58594 146.648 6.58594C148.824 6.58594 150.999 7.97834 150.999 10.5891V10.6761C150.999 12.5036 150.912 14.3311 150.825 16.1587H156.308C161.268 16.2457 164.662 17.9862 164.662 22.2504C164.662 22.8596 164.575 23.4688 164.488 24.0779C163.792 27.733 162.661 33.8247 162.661 36.0003C162.661 36.0003 162.661 36.0874 162.661 36.1744C162.661 37.5668 162.748 38.176 164.923 38.176C168.143 38.176 169.884 37.8279 169.884 31.475C169.884 31.214 169.884 31.0399 169.884 30.7788V30.6918Z" stroke="black" stroke-width="10"/>
<path d="M146.648 6.58687C148.824 6.58687 150.999 7.97927 150.999 10.59V10.677C150.999 12.5046 150.912 14.3321 150.825 16.1596H156.308C161.268 16.2466 164.662 17.9871 164.662 22.2513C164.662 22.8605 164.575 23.4697 164.488 24.0789C163.792 27.7339 162.661 33.8257 162.661 36.0013C162.661 36.0013 162.661 36.0883 162.661 36.1753C162.661 37.5677 162.748 38.1769 164.923 38.1769C168.143 38.1769 169.884 37.8288 169.884 31.476C169.884 31.2149 169.884 31.0409 169.884 30.7798V30.6928C169.884 28.4301 171.711 27.3858 173.626 27.3858C175.54 27.3858 178.151 28.3431 178.151 31.389C178.151 43.3114 173.539 45.2259 164.314 45.2259C156.308 45.2259 154.306 42.18 154.306 37.0456C154.306 33.8256 155.612 28.2561 155.96 25.6453C155.96 25.4713 155.96 25.2972 155.96 25.1232C155.96 23.7308 155.089 23.2086 153.523 23.2086H150.042C148.301 33.4775 143.689 42.5281 130.722 47.3145C129.939 47.5756 129.33 47.7496 128.721 47.7496C126.11 47.7496 124.718 45.661 124.718 43.6595C124.718 42.2671 125.414 40.9617 126.893 40.3525C136.379 36.6975 140.382 31.1279 141.862 23.2956C137.684 23.3827 133.681 23.4697 132.55 23.4697C130.287 23.4697 128.895 21.6422 128.895 19.8147C128.895 18.0742 130.2 16.3337 132.898 16.3337C134.726 16.3337 138.468 16.3337 142.558 16.2466C142.645 15.2894 142.645 14.4191 142.645 13.4618C142.645 12.5046 142.645 11.5473 142.558 10.59C142.558 10.503 142.558 10.503 142.558 10.416C142.558 7.80522 144.559 6.58687 146.648 6.58687ZM123.499 30.6057C125.327 30.6057 127.067 32.1722 127.067 34.1737C127.067 35.044 126.719 36.0883 125.849 37.0456C119.67 44.0076 112.099 50.2733 109.14 50.2733C106.791 50.2733 105.137 48.2718 105.137 46.2702C105.137 45.0519 105.746 43.8335 107.139 43.0503C112.795 39.7433 116.798 36.3494 120.802 31.9111C121.585 31.0409 122.542 30.6057 123.499 30.6057ZM140.295 44.8778C142.384 44.8778 144.385 46.0962 144.385 48.5328C144.385 48.6199 144.385 48.6199 144.385 48.7069L144.298 52.536H136.292L136.205 48.7069C136.118 46.0091 138.381 44.8778 140.295 44.8778ZM148.563 59.498C157.178 66.0248 165.968 69.6799 175.627 73.2479C177.629 74.0311 178.499 75.4235 178.499 76.8159C178.499 79.0786 176.41 81.4282 173.713 81.4282C171.363 81.4282 157.352 75.3365 144.211 64.2843L144.385 80.471V80.558C144.385 82.7336 142.297 83.8649 140.295 83.8649C138.207 83.8649 136.205 82.7336 136.205 80.558V80.471L136.379 64.4584C126.284 73.422 109.924 81.8634 106.878 81.8634C104.354 81.8634 102.526 79.9488 102.526 77.9472C102.526 76.6419 103.397 75.2495 105.398 74.4663C115.754 70.4631 123.586 66.2859 131.593 59.498H148.563ZM146.648 6.04297C143.444 6.04297 142.014 8.24035 142.014 10.416V10.59V10.6172V10.6444C142.101 11.5745 142.101 12.5372 142.101 13.4673C142.101 14.2668 142.101 14.9739 142.052 15.719C138.158 15.7952 134.628 15.7952 132.898 15.7952C130.706 15.7952 128.351 17.0571 128.351 19.8201C128.351 21.8815 129.923 24.019 132.55 24.019C133.562 24.019 136.765 23.9538 140.475 23.8722L141.193 23.8559C139.517 31.786 135.144 36.5941 126.692 39.8467C125.109 40.4994 124.168 41.9244 124.168 43.6595C124.168 45.9058 125.762 48.2935 128.715 48.2935C129.439 48.2935 130.157 48.076 130.891 47.8312C137.113 45.5359 141.737 42.2018 145.033 37.6384C147.703 33.9399 149.493 29.3983 150.499 23.7525H153.523C155.1 23.7525 155.416 24.2747 155.416 25.1232V25.6072C155.307 26.4285 155.1 27.5272 154.866 28.7945C154.371 31.4705 153.762 34.8047 153.762 37.0401C153.762 43.2352 156.819 45.7644 164.314 45.7644C173.854 45.7644 178.695 43.5398 178.695 31.3835C178.695 28.2397 176.149 26.8365 173.626 26.8365C171.494 26.8365 169.34 28.0276 169.34 30.6873V30.7743V31.4705C169.34 37.6275 167.773 37.6275 164.923 37.6275C163.204 37.633 163.204 37.41 163.204 36.1753V36.0013C163.204 33.7277 164.526 26.793 165.021 24.1822C165.114 23.5404 165.206 22.8986 165.206 22.2513C165.206 19.2925 163.661 15.7462 156.319 15.6157H151.396C151.472 13.9894 151.543 12.3251 151.543 10.677V10.59C151.543 8.33281 149.862 6.04297 146.648 6.04297ZM123.499 30.0618C122.363 30.0618 121.258 30.5894 120.399 31.5467C116.222 36.1753 112.175 39.4768 106.867 42.5825C105.425 43.3929 104.593 44.7418 104.593 46.2702C104.593 48.9897 106.943 50.8172 109.14 50.8172C112.529 50.8172 120.486 43.9097 126.257 37.4045C127.127 36.4473 127.611 35.2942 127.611 34.1737C127.611 31.9437 125.724 30.0618 123.499 30.0618ZM140.295 44.3339C138.919 44.3339 137.592 44.856 136.749 45.7263C135.998 46.4986 135.623 47.5375 135.661 48.7287L135.748 52.5523L135.759 53.0853H136.292H144.298H144.831L144.842 52.5523L144.929 48.7232V48.5383C144.929 45.6502 142.525 44.3339 140.295 44.3339ZM148.742 58.9541H148.557H131.587H131.386L131.234 59.0846C123.826 65.3667 116.282 69.6744 105.197 73.9604C103.179 74.7491 101.977 76.2394 101.977 77.9472C101.977 80.4057 104.174 82.4073 106.872 82.4073C109.934 82.4073 125.572 74.4173 135.819 65.6659L135.656 80.4655V80.558C135.656 82.4725 137.249 84.4088 140.29 84.4088C142.59 84.4088 144.924 83.0871 144.924 80.558V80.471L144.761 65.4537C157.95 76.2992 171.363 81.9721 173.707 81.9721C176.851 81.9721 179.038 79.2526 179.038 76.8159C179.038 75.0265 177.863 73.5416 175.818 72.7421C167.044 69.5004 157.744 65.7801 148.883 59.0629L148.742 58.9541Z" stroke="black" stroke-width="10"/>
<path d="M114.188 30.0855C111.664 28.6061 109.227 27.6488 106.703 27.1267C104.963 26.7786 104.18 25.5602 104.18 24.2549C104.18 22.4274 105.833 20.4258 108.27 20.4258C110.794 20.4258 115.232 21.7312 117.756 23.0365C119.322 23.8197 119.931 25.2121 119.931 26.5175C119.931 28.6061 118.365 30.6947 116.189 30.6947C115.58 30.6947 114.884 30.5207 114.188 30.0855Z" stroke="black" stroke-width="10"/>
<path d="M108.27 20.4248C110.794 20.4248 115.232 21.7301 117.756 23.0355C119.322 23.8187 119.931 25.2111 119.931 26.5165C119.931 28.6051 118.365 30.6937 116.189 30.6937C115.58 30.6937 114.884 30.5196 114.188 30.0845C111.664 28.6051 109.227 27.6478 106.703 27.1257C104.963 26.7776 104.18 25.5592 104.18 24.2539C104.18 22.4263 105.833 20.4248 108.27 20.4248ZM108.27 19.8809C105.496 19.8809 103.636 22.1435 103.636 24.2539C103.636 25.9889 104.773 27.2943 106.595 27.6587C109.064 28.17 111.463 29.1164 113.91 30.5523C114.623 30.9983 115.411 31.2376 116.189 31.2376C118.751 31.2376 120.475 28.7955 120.475 26.5165C120.475 24.7814 119.572 23.3347 118 22.5514C115.509 21.2624 111 19.8809 108.27 19.8809Z" stroke="black" stroke-width="10"/>
<path d="M119.409 18.5951C117.321 16.5936 113.057 14.766 111.316 13.9828C109.924 13.3736 109.314 12.4164 109.314 11.285C109.314 9.45751 111.142 7.54297 113.405 7.54297C115.145 7.54297 121.759 10.4148 124.283 12.4164C125.327 13.2866 125.762 14.3309 125.762 15.3752C125.762 17.5508 123.935 19.6394 121.846 19.6394C121.063 19.6394 120.193 19.2913 119.409 18.5951Z" stroke="black" stroke-width="10"/>
<path d="M113.405 7.54391C115.145 7.54391 121.759 10.4157 124.283 12.4173C125.327 13.2875 125.762 14.3318 125.762 15.3761C125.762 17.5518 123.935 19.6404 121.846 19.6404C121.063 19.6404 120.193 19.2923 119.409 18.5961C117.321 16.5945 113.056 14.767 111.316 13.9837C109.924 13.3746 109.314 12.4173 109.314 11.286C109.314 9.45845 111.142 7.54391 113.405 7.54391ZM113.405 7C111.218 7 108.771 8.83296 108.771 11.286C108.771 12.2813 109.173 13.6411 111.098 14.4841L111.479 14.6527C113.323 15.474 117.152 17.1873 119.034 18.9877C119.904 19.7655 120.9 20.1843 121.846 20.1843C124.179 20.1843 126.306 17.8944 126.306 15.3761C126.306 14.0816 125.729 12.9122 124.631 11.9985C122.091 9.98604 115.379 7 113.405 7Z" stroke="black" stroke-width="10"/>
<path d="M148.562 59.4971L173.451 59.8452H173.538C175.975 59.8452 177.193 58.0177 177.193 56.1902C177.193 54.3627 175.975 52.5352 173.451 52.5352H144.298H136.292H107.574C105.137 52.5352 103.832 54.4497 103.832 56.2772C103.832 58.1047 105.05 59.8452 107.487 59.8452H107.574L131.592 59.4971H148.562Z" stroke="black" stroke-width="10"/>
<path d="M173.451 52.5361C175.975 52.5361 177.193 54.3636 177.193 56.1911C177.193 58.0187 175.975 59.8462 173.538 59.8462H173.451L148.562 59.4981H131.592L107.574 59.8462H107.487C105.05 59.8462 103.832 58.1057 103.832 56.2782C103.832 54.4506 105.137 52.5361 107.574 52.5361H136.292H144.298H173.451ZM173.451 51.9922H144.298H136.292H107.574C104.789 51.9922 103.288 54.2004 103.288 56.2782C103.288 58.258 104.604 60.3901 107.487 60.3901H107.574L131.603 60.042H148.568L173.451 60.3901H173.538C176.296 60.3901 177.737 58.2797 177.737 56.1911C177.737 53.3084 175.513 51.9922 173.451 51.9922Z" stroke="black" stroke-width="10"/>
<path d="M263.354 23.9045C256.044 23.8175 246.384 23.7305 237.333 23.7305C229.936 23.7305 222.887 23.8175 217.927 23.9045C215.142 23.9916 213.924 25.2969 213.924 27.4726C213.924 27.5596 213.924 27.6466 213.924 27.7336C214.185 32.433 214.359 37.2193 214.359 42.0057C214.359 55.8427 212.444 69.2445 203.655 79.8615C202.436 81.3409 201.044 81.8631 199.652 81.8631C197.302 81.8631 195.213 80.0356 195.213 78.034C195.213 77.2508 195.474 76.4675 196.084 75.7713C202.088 68.6353 204.699 61.0642 205.83 52.9708C204.003 54.2762 199.303 57.4091 196.954 57.4091C194.517 57.4091 192.951 55.0594 192.951 52.8838C192.951 51.4044 193.734 50.012 195.474 49.4899C199.739 48.2715 203.046 46.7921 206.44 44.7035C206.44 43.9203 206.44 43.2241 206.44 42.4408C206.44 37.4804 206.178 32.433 205.917 27.1245C205.917 26.6893 205.917 26.3412 205.917 25.9931C205.917 19.4663 209.485 16.5074 216.97 16.4204C220.973 16.3334 225.759 16.2464 230.806 16.2464V10.3287C230.806 7.45685 232.982 6.06445 235.245 6.06445C237.42 6.06445 239.683 7.45685 239.683 10.3287V16.2464C248.211 16.2464 256.914 16.2464 263.441 16.4204C266.313 16.5074 267.705 18.335 267.705 20.0755C267.705 21.99 266.226 23.9045 263.441 23.9045H263.354ZM221.837 73.1606V48.6196C221.837 46.2699 223.752 45.1386 225.754 45.1386C227.668 45.1386 229.67 46.2699 229.67 48.6196V73.1606H221.837ZM245.769 73.1606V57.7572H258.388C260.912 57.7572 262.13 55.9297 262.13 54.1022C262.13 52.1876 260.912 50.3601 258.388 50.3601H245.769V38.0896H237.676V73.1606H245.769Z" stroke="black" stroke-width="10"/>
<path d="M235.239 6.06539C237.415 6.06539 239.678 7.45779 239.678 10.3296V16.2473C248.206 16.2473 256.909 16.2473 263.435 16.4213C266.307 16.5084 267.7 18.3359 267.7 20.0764C267.7 21.9909 266.22 23.9055 263.435 23.9055H263.348C256.038 23.8185 246.379 23.7314 237.328 23.7314C229.931 23.7314 222.882 23.8185 217.921 23.9055C215.137 23.9925 213.918 25.2979 213.918 27.4735C213.918 27.5605 213.918 27.6475 213.918 27.7346C214.179 32.4339 214.353 37.2203 214.353 42.0066C214.353 55.8436 212.439 69.2454 203.649 79.8624C202.431 81.3419 201.039 81.864 199.646 81.864C197.297 81.864 195.208 80.0365 195.208 78.0349C195.208 77.2517 195.469 76.4685 196.078 75.7723C202.083 68.6362 204.694 61.0651 205.825 52.9718C203.997 54.2771 199.298 57.41 196.948 57.41C194.512 57.41 192.945 55.0604 192.945 52.8848C192.945 51.4053 193.729 50.0129 195.469 49.4908C199.733 48.2724 203.04 46.793 206.434 44.7044C206.434 43.9212 206.434 43.225 206.434 42.4418C206.434 37.4814 206.173 32.4339 205.912 27.1254C205.912 26.6903 205.912 26.3422 205.912 25.9941C205.912 19.4672 209.48 16.5084 216.964 16.4213C220.967 16.3343 225.754 16.2473 230.801 16.2473V10.3296C230.801 7.45779 232.977 6.06539 235.239 6.06539ZM245.769 38.0905V50.361H258.388C260.912 50.361 262.13 52.1886 262.13 54.1031C262.13 55.9306 260.912 57.7581 258.388 57.7581H245.769V73.1615H237.676V38.0905H245.769ZM225.754 45.1395C227.668 45.1395 229.67 46.2709 229.67 48.6205V73.1615H221.838V48.6205C221.838 46.2709 223.752 45.1395 225.754 45.1395ZM235.239 5.52148C232.841 5.52148 230.257 7.0281 230.257 10.3296V15.7034C225.281 15.7088 220.554 15.8013 216.953 15.8774C209.05 15.9699 205.368 19.1844 205.368 25.9941V27.1254L205.406 27.9086C205.656 32.9615 205.89 37.7315 205.89 42.4418V44.3998C202.518 46.4504 199.336 47.821 195.317 48.9686C193.489 49.518 192.396 50.9811 192.396 52.8848C192.396 56.0176 194.757 57.9539 196.943 57.9539C199.13 57.9539 202.991 55.5608 205.096 54.1357C203.731 62.6261 200.712 69.414 195.659 75.4187C195.007 76.1639 194.664 77.0668 194.664 78.0295C194.664 80.3574 196.992 82.4025 199.646 82.4025C201.381 82.4025 202.866 81.6628 204.068 80.2051C213.668 68.6145 214.897 53.7006 214.897 42.0012C214.897 37.6608 214.756 32.9887 214.462 27.7128V27.4681C214.462 25.4774 215.566 24.5201 217.938 24.4439C221.636 24.3787 229.077 24.2699 237.328 24.2699C246.748 24.2699 256.675 24.3624 263.343 24.4439H263.435C266.59 24.4439 268.244 22.2466 268.244 20.0709C268.244 18.0585 266.596 15.9699 263.452 15.872C257.055 15.7034 248.527 15.698 240.222 15.698V10.3296C240.222 7.17496 237.72 5.52148 235.239 5.52148ZM246.313 37.5466H245.769H237.676H237.132V38.0905V73.1615V73.7054H237.676H245.769H246.313V73.1615V58.302H258.388C260.455 58.302 262.674 56.9858 262.674 54.1031C262.674 52.0363 261.331 49.8171 258.388 49.8171H246.313V38.0905V37.5466ZM225.754 44.5956C222.692 44.5956 221.294 46.6842 221.294 48.6205V73.1615V73.7054H221.838H229.67H230.214V73.1615V48.6205C230.214 45.9772 227.973 44.5956 225.754 44.5956Z" stroke="black" stroke-width="10"/>
<path d="M198.254 38.5251C197.209 35.9143 195.817 33.5646 194.599 32.2593C193.815 31.389 193.467 30.6058 193.467 29.8226C193.467 27.995 195.469 26.5156 197.383 26.5156C200.603 26.5156 205.477 33.9998 205.477 36.6105C205.477 38.9602 203.388 40.7877 201.3 40.7877C200.081 40.7877 198.863 40.0915 198.254 38.5251Z" stroke="black" stroke-width="10"/>
<path d="M197.383 26.5166C200.603 26.5166 205.477 34.0007 205.477 36.6114C205.477 38.9611 203.388 40.7886 201.299 40.7886C200.081 40.7886 198.863 40.0924 198.254 38.526C197.209 35.9152 195.817 33.5656 194.599 32.2602C193.815 31.39 193.467 30.6067 193.467 29.8235C193.467 27.996 195.469 26.5166 197.383 26.5166ZM197.383 25.9727C195.278 25.9727 192.923 27.6207 192.923 29.8235C192.923 30.759 193.337 31.6728 194.196 32.6246C195.398 33.9137 196.758 36.2525 197.753 38.7272C198.384 40.359 199.717 41.3325 201.305 41.3325C203.818 41.3325 206.026 39.1243 206.026 36.6114C206.021 33.8375 201.028 25.9727 197.383 25.9727Z" stroke="black" stroke-width="10"/>
<path d="M245.77 73.1602H264.48C267.004 73.1602 268.222 74.9877 268.222 76.7282C268.222 78.5557 267.004 80.3832 264.393 80.3832H214.18C211.656 80.3832 210.438 78.5557 210.438 76.7282C210.438 74.9877 211.656 73.1602 214.18 73.1602H221.838H245.77Z" stroke="black" stroke-width="10"/>
<path d="M264.485 73.1611C267.009 73.1611 268.227 74.9886 268.227 76.7291C268.227 78.5566 267.009 80.3842 264.398 80.3842H214.185C211.661 80.3842 210.443 78.5566 210.443 76.7291C210.443 74.9886 211.661 73.1611 214.185 73.1611H221.843H245.775H264.485ZM264.485 72.6172H245.775H221.843H214.185C211.373 72.6172 209.899 74.684 209.899 76.7291C209.899 78.7524 211.242 80.9281 214.185 80.9281H264.398C267.401 80.9281 268.771 78.7524 268.771 76.7291C268.771 74.6895 267.297 72.6172 264.485 72.6172Z" stroke="black" stroke-width="10"/>
<path d="M237.676 38.0902H222.359C219.749 38.0902 218.443 36.2627 218.443 34.5222C218.443 32.6947 219.749 30.8672 222.359 30.8672H261.26C263.957 30.8672 265.263 32.6947 265.263 34.5222C265.263 36.2627 263.957 38.0902 261.26 38.0902H245.769H237.676Z" stroke="black" stroke-width="10"/>
<path d="M261.265 30.8681C263.963 30.8681 265.268 32.6956 265.268 34.5232C265.268 36.2637 263.963 38.0912 261.265 38.0912H245.769H237.676H222.359C219.749 38.0912 218.443 36.2637 218.443 34.5232C218.443 32.6956 219.749 30.8681 222.359 30.8681H261.265ZM261.265 30.3242H222.365C219.439 30.3242 217.905 32.4346 217.905 34.5232C217.905 36.5682 219.439 38.6351 222.365 38.6351H237.681H245.774H261.265C264.251 38.6351 265.812 36.5682 265.812 34.5232C265.812 32.4998 264.387 30.3242 261.265 30.3242Z" stroke="black" stroke-width="10"/>
<path d="M309.998 49.3151C312.174 42.6142 313.653 35.8263 314.524 29.6475H317.656C318.44 29.6475 319.136 29.3864 319.658 29.0383C319.658 29.1254 319.658 29.2994 319.658 29.3864C319.658 31.301 320.876 33.1285 323.748 33.1285H343.068V68.2866C343.068 72.0286 340.631 73.8561 336.019 73.8561C333.843 73.8561 331.232 73.421 328.099 72.6378C327.664 72.5508 327.316 72.4637 326.968 72.4637C324.705 72.4637 323.4 74.4653 323.4 76.4669C323.4 78.3814 324.531 80.296 327.055 80.9052C330.536 81.6884 333.582 82.0365 336.28 82.0365C346.81 82.0365 351.596 76.6409 351.596 69.766C351.596 69.6789 351.596 69.6789 351.596 69.5919L351.422 57.0603V33.1285H358.906C361.691 33.1285 363.083 31.214 363.083 29.2994C363.083 27.3849 361.691 25.4703 358.906 25.4703H351.422V10.7631C351.422 7.97834 349.333 6.67296 347.245 6.67296C345.156 6.67296 343.068 7.97834 343.068 10.7631V25.4703H323.748C322.791 25.4703 321.921 25.7314 321.311 26.1665C321.311 26.0795 321.311 25.9055 321.311 25.8184C321.311 23.9039 320.093 22.0764 317.656 22.0764H308.606L308.693 10.241C308.693 7.80428 306.517 6.58594 304.429 6.58594C302.34 6.58594 300.251 7.80428 300.251 10.241L300.338 22.0764H289.547C287.024 22.0764 285.718 24.0779 285.718 25.9925C285.718 27.82 286.937 29.6475 289.547 29.6475H306.169C305.56 34.695 304.516 39.9165 303.036 44.9639L300.425 52.7091C296.857 61.6727 291.81 69.766 285.283 75.2485C284.239 76.1188 283.804 77.1631 283.804 78.1204C283.804 80.296 285.892 82.2105 288.329 82.2105C293.028 82.2105 301.557 70.5492 306.865 57.6695L309.998 49.3151Z" stroke="black" stroke-width="10"/>
<path d="M304.429 6.58687C306.517 6.58687 308.693 7.80522 308.693 10.2419L308.606 22.0773H317.656C320.093 22.0773 321.311 23.9048 321.311 25.8194C321.311 25.9064 321.311 26.0804 321.311 26.1675C321.921 25.7323 322.791 25.4713 323.748 25.4713H343.068V10.7641C343.068 7.97927 345.156 6.6739 347.245 6.6739C349.333 6.6739 351.422 7.97927 351.422 10.7641V25.4713H358.906C361.691 25.4713 363.083 27.3858 363.083 29.3004C363.083 31.2149 361.691 33.1295 358.906 33.1295H351.422V57.0613L351.596 69.5929C351.596 69.6799 351.596 69.6799 351.596 69.7669C351.596 76.6419 346.81 82.0374 336.28 82.0374C333.582 82.0374 330.536 81.6893 327.055 80.9061C324.531 80.2969 323.4 78.3824 323.4 76.4678C323.4 74.4662 324.705 72.4647 326.968 72.4647C327.316 72.4647 327.664 72.5517 328.099 72.6387C331.232 73.422 333.843 73.8571 336.019 73.8571C340.631 73.8571 343.068 72.0296 343.068 68.2875V33.1295H323.748C320.876 33.1295 319.658 31.3019 319.658 29.3874C319.658 29.3004 319.658 29.1263 319.658 29.0393C319.136 29.3874 318.44 29.6485 317.656 29.6485H314.523C313.653 35.8272 312.174 42.6152 309.998 49.3161L306.865 57.6705C301.557 70.5501 293.028 82.2115 288.329 82.2115C285.892 82.2115 283.804 80.2969 283.804 78.1213C283.804 77.164 284.239 76.1197 285.283 75.2495C291.81 69.7669 296.857 61.6736 300.425 52.71L303.036 44.9648C304.516 39.9174 305.56 34.6959 306.169 29.6485H289.547C286.937 29.6485 285.718 27.8209 285.718 25.9934C285.718 24.0789 287.024 22.0773 289.547 22.0773H300.338L300.251 10.2419C300.251 7.80522 302.34 6.58687 304.429 6.58687ZM304.429 6.04297C302.084 6.04297 299.707 7.48432 299.707 10.2419L299.789 21.5334H289.547C286.708 21.5334 285.174 23.8287 285.174 25.9934C285.174 28.0167 286.545 30.1924 289.547 30.1924H305.554C304.924 35.1745 303.901 40.0914 302.514 44.8125L299.914 52.5251C296.107 62.087 290.923 69.7995 284.935 74.8361C283.858 75.7335 283.26 76.9029 283.26 78.1267C283.26 80.5961 285.631 82.7608 288.329 82.7608C291.592 82.7608 295.666 77.9636 297.804 75.1026C301.296 70.4305 304.782 64.1538 307.366 57.8826L310.504 49.5119C312.5 43.3603 314.05 36.7029 314.991 30.1978H317.651C318.157 30.1978 318.663 30.0999 319.136 29.9204C319.337 31.7588 320.621 33.6788 323.743 33.6788H342.518V68.2929C342.518 71.676 340.392 73.3186 336.013 73.3186C333.979 73.3186 331.504 72.9379 328.224 72.1166L327.991 72.0676C327.637 71.9969 327.305 71.9262 326.963 71.9262C324.292 71.9262 322.851 74.2704 322.851 76.4733C322.851 78.3987 323.922 80.7157 326.924 81.4391C330.308 82.2006 333.451 82.5868 336.274 82.5868C341.425 82.5868 345.45 81.3467 348.24 78.8936C350.786 76.6528 352.134 73.4981 352.134 69.7723V69.5983L351.96 57.0613V33.6788H358.901C361.245 33.6788 363.622 32.1776 363.622 29.3058C363.622 27.1302 362.001 24.9328 358.901 24.9328H351.96V10.7641C351.96 7.58222 349.513 6.12999 347.239 6.12999C344.966 6.12999 342.518 7.58222 342.518 10.7641V24.9274H323.743C323.052 24.9274 322.394 25.047 321.817 25.2755C321.605 23.3827 320.283 21.5334 317.651 21.5334H309.15L309.231 10.2474C309.237 7.48432 306.816 6.04297 304.429 6.04297Z" stroke="black" stroke-width="10"/>
<path d="M309.998 49.3169C317.918 55.0605 318.266 57.4102 318.266 58.7155C318.266 61.1522 316.09 63.3279 313.827 63.3279C312.696 63.3279 311.565 62.8057 310.607 61.5874C309.563 60.282 308.345 58.9766 306.865 57.6712L300.426 52.7108C297.293 50.6222 294.073 48.7077 291.288 47.4023C289.721 46.7061 289.112 45.5748 289.112 44.3564C289.112 42.4419 290.94 40.5273 293.202 40.5273C293.899 40.5273 295.291 40.6144 303.036 44.9656L309.998 49.3169Z" stroke="black" stroke-width="10"/>
<path d="M293.202 40.5283C293.899 40.5283 295.291 40.6153 303.036 44.9665L309.998 49.3178C317.918 55.0614 318.266 57.4111 318.266 58.7165C318.266 61.1532 316.09 63.3288 313.827 63.3288C312.696 63.3288 311.565 62.8066 310.607 61.5883C309.563 60.2829 308.345 58.9775 306.865 57.6722L300.425 52.7118C297.293 50.6232 294.073 48.7086 291.288 47.4032C289.721 46.707 289.112 45.5757 289.112 44.3574C289.112 42.4428 290.94 40.5283 293.202 40.5283ZM293.202 39.9844C290.733 39.9844 288.568 42.0295 288.568 44.3574C288.568 45.9238 289.455 47.1857 291.065 47.8982C293.616 49.0948 296.743 50.9114 300.105 53.1523L306.517 58.091C307.882 59.2985 309.079 60.5494 310.183 61.9255C311.184 63.1983 312.446 63.8727 313.827 63.8727C316.433 63.8727 318.81 61.4142 318.81 58.7165C318.81 57.5199 318.809 55.0342 310.319 48.8772L310.303 48.8663L310.286 48.8555L303.325 44.5042C295.28 39.9844 293.926 39.9844 293.202 39.9844Z" stroke="black" stroke-width="10"/>
<path d="M331.755 56.6267C329.579 53.4068 325.837 50.0998 322.269 48.0112C320.877 47.228 320.354 46.0967 320.354 44.9654C320.354 43.2249 321.921 41.4844 324.184 41.4844C327.229 41.4844 339.326 49.0555 339.326 53.9289C339.326 56.3656 337.15 58.3672 334.888 58.3672C333.756 58.3672 332.625 57.845 331.755 56.6267Z" stroke="black" stroke-width="10"/>
<path d="M324.184 41.4853C327.229 41.4853 339.326 49.0565 339.326 53.9299C339.326 56.3666 337.15 58.3681 334.888 58.3681C333.756 58.3681 332.625 57.846 331.755 56.6276C329.579 53.4077 325.837 50.1008 322.269 48.0122C320.877 47.229 320.354 46.0976 320.354 44.9663C320.354 43.2258 321.921 41.4853 324.184 41.4853ZM324.184 40.9414C321.48 40.9414 319.811 43.03 319.811 44.9663C319.811 46.4403 320.588 47.6913 322.003 48.4854C325.614 50.6012 329.269 53.9135 331.303 56.9322C332.217 58.2158 333.49 58.912 334.888 58.912C337.542 58.912 339.87 56.5841 339.87 53.9299C339.87 50.797 335.703 47.267 333.218 45.4395C329.731 42.8777 325.842 40.9414 324.184 40.9414Z" stroke="black" stroke-width="10"/>
<path d="M410.083 80.8195L410.344 60.7167C403.382 68.636 395.201 74.8147 384.062 80.6454C383.105 81.1676 382.235 81.3416 381.452 81.3416C379.102 81.3416 377.361 79.4271 377.361 77.4255C377.361 75.9461 378.232 74.4666 380.32 73.5094C393.374 67.5917 401.641 61.3259 410.431 49.2294V48.0111C405.992 48.0111 401.728 48.0981 398.073 48.1851C395.201 48.2722 394.853 49.2294 394.853 54.625C394.853 56.5395 394.94 58.5411 395.027 60.1946C395.027 60.2816 395.027 60.3686 395.027 60.3686C395.027 62.5442 393.026 63.6756 391.024 63.6756C388.936 63.6756 386.76 62.4572 386.673 60.1946C386.673 58.7151 386.586 56.8876 386.586 54.9731C386.586 53.1456 386.673 51.144 386.673 49.4905C386.847 44.095 389.719 41.8323 396.246 41.7453C400.336 41.6583 405.209 41.6583 410.344 41.6583L410.257 37.22L383.627 37.3941C381.103 37.3941 379.798 35.5665 379.798 33.739C379.798 31.9115 381.103 30.084 383.627 30.084L410.17 30.171V28.1694C410.17 26.69 410.953 25.6457 411.997 25.1236C410.779 24.5144 409.822 23.296 409.822 22.0777C409.822 21.1204 410.344 20.1631 411.475 19.2929C416.174 15.8989 418.263 13.5493 421.744 7.28347C422.44 6.06512 423.484 5.54297 424.616 5.54297C426.617 5.54297 428.619 7.19644 428.619 9.28504C428.619 10.4164 427.314 12.505 427.053 12.8531H447.242C449.505 12.8531 450.549 14.5065 450.549 16.16C450.549 17.8135 449.505 19.4669 447.242 19.4669H422.179C420.526 21.3815 418.611 23.122 416.435 24.6884C416.348 24.7755 416.174 24.7755 416.087 24.8625C417.48 25.3846 418.611 26.516 418.611 28.1694V30.171L445.502 30.084C448.113 30.084 449.331 31.9115 449.331 33.739C449.331 35.5665 448.113 37.3941 445.502 37.3941L418.524 37.22L418.437 41.6583C423.746 41.6583 428.967 41.6583 433.579 41.7453C439.758 41.8323 442.63 44.4431 442.804 49.5775C442.804 50.5348 442.891 52.8845 442.891 54.1899C442.891 58.9762 440.454 62.7183 434.102 62.7183C433.318 62.7183 432.448 62.6313 431.578 62.5442C431.317 62.5442 430.969 62.4572 430.708 62.3702C436.277 66.6344 442.195 69.6803 448.896 72.6391C450.897 73.5094 451.681 74.9888 451.681 76.4682C451.681 78.8179 449.679 81.0805 446.981 81.0805C443.239 81.0805 427.836 70.9857 418.437 60.3686L418.611 80.8195C418.611 80.8195 418.611 80.8195 418.611 80.9065C418.611 82.9951 416.435 84.1264 414.26 84.1264C412.171 84.1264 410.083 83.0821 410.083 80.9065V80.8195ZM392.417 19.4669C391.024 21.4685 385.716 29.3008 381.887 29.3008C379.711 29.3008 377.709 27.5603 377.709 25.5587C377.709 24.6884 378.058 23.7312 379.102 22.8609C384.758 17.9875 387.282 14.2455 390.415 7.45752C391.024 6.06512 392.156 5.54297 393.374 5.54297C395.375 5.54297 397.638 7.28347 397.638 9.54611C397.638 10.2423 397.551 10.4164 396.333 12.8531H409.212C411.475 12.8531 412.519 14.5065 412.519 16.16C412.519 17.8135 411.475 19.4669 409.212 19.4669H392.417ZM418.35 49.8386C421.657 54.1028 424.964 57.6708 428.532 60.6297C428.271 60.1075 428.184 59.5854 428.184 58.9762C428.184 57.3227 429.228 55.7563 431.143 55.7563C431.404 55.7563 431.665 55.7563 431.926 55.8433C432.361 55.9304 432.796 56.0174 433.144 56.0174C434.102 56.0174 434.798 55.5823 434.798 53.6677C434.798 53.5807 434.798 53.4937 434.798 53.4066C434.798 53.4066 434.798 52.0142 434.711 51.057C434.624 49.4035 433.753 48.2722 431.404 48.1851C427.401 48.0981 422.875 48.0111 418.35 48.0111V49.8386Z" stroke="black" stroke-width="10"/>
<path d="M424.616 5.54391C426.617 5.54391 428.619 7.19738 428.619 9.28597C428.619 10.4173 427.314 12.5059 427.053 12.854H447.242C449.505 12.854 450.549 14.5075 450.549 16.1609C450.549 17.8144 449.505 19.4679 447.242 19.4679H422.179C420.526 21.3824 418.611 23.1229 416.436 24.6894C416.349 24.7764 416.174 24.7764 416.087 24.8634C417.48 25.3856 418.611 26.5169 418.611 28.1704V30.1719L445.502 30.0849C448.113 30.0849 449.331 31.9124 449.331 33.74C449.331 35.5675 448.113 37.395 445.502 37.395L418.524 37.2209L418.437 41.6592C423.746 41.6592 428.967 41.6592 433.579 41.7462C439.758 41.8333 442.63 44.444 442.804 49.5785C442.804 50.5357 442.891 52.8854 442.891 54.1908C442.891 58.9772 440.454 62.7192 434.102 62.7192C433.318 62.7192 432.448 62.6322 431.578 62.5452C431.317 62.5452 430.969 62.4582 430.708 62.3711C436.277 66.6353 442.195 69.6812 448.896 72.6401C450.897 73.5103 451.681 74.9897 451.681 76.4691C451.681 78.8188 449.679 81.0815 446.981 81.0815C443.239 81.0815 427.836 70.9866 418.437 60.3696L418.611 80.8204C418.611 80.8204 418.611 80.8204 418.611 80.9074C418.611 82.996 416.436 84.1273 414.26 84.1273C412.171 84.1273 410.083 83.083 410.083 80.9074V80.8204L410.344 60.7177C403.382 68.6369 395.201 74.8157 384.062 80.6463C383.105 81.1685 382.235 81.3425 381.452 81.3425C379.102 81.3425 377.361 79.428 377.361 77.4264C377.361 75.947 378.232 74.4676 380.32 73.5103C393.374 67.5926 401.641 61.3268 410.431 49.2304V48.012C405.993 48.012 401.728 48.0991 398.073 48.1861C395.201 48.2731 394.853 49.2304 394.853 54.6259C394.853 56.5405 394.94 58.542 395.027 60.1955C395.027 60.2825 395.027 60.3696 395.027 60.3696C395.027 62.5452 393.026 63.6765 391.024 63.6765C388.936 63.6765 386.76 62.4582 386.673 60.1955C386.673 58.7161 386.586 56.8886 386.586 54.974C386.586 53.1465 386.673 51.1449 386.673 49.4915C386.847 44.0959 389.719 41.8333 396.246 41.7462C400.336 41.6592 405.209 41.6592 410.344 41.6592L410.257 37.2209L383.627 37.395C381.103 37.395 379.798 35.5675 379.798 33.74C379.798 31.9124 381.103 30.0849 383.627 30.0849L410.17 30.1719V28.1704C410.17 26.6909 410.953 25.6466 411.997 25.1245C410.779 24.5153 409.822 23.297 409.822 22.0786C409.822 21.1214 410.344 20.1641 411.475 19.2938C416.174 15.8999 418.263 13.5502 421.744 7.2844C422.44 6.06605 423.485 5.54391 424.616 5.54391ZM428.532 60.6306C428.271 60.1085 428.184 59.5863 428.184 58.9772C428.184 57.3237 429.228 55.7572 431.143 55.7572C431.404 55.7572 431.665 55.7572 431.926 55.8443C432.361 55.9313 432.796 56.0183 433.144 56.0183C434.102 56.0183 434.798 55.5832 434.798 53.6686C434.798 53.5816 434.798 53.4946 434.798 53.4076C434.798 53.4076 434.798 52.0152 434.711 51.0579C434.624 49.4044 433.753 48.2731 431.404 48.1861C427.401 48.0991 422.875 48.012 418.35 48.012V49.8396C421.657 54.1038 424.964 57.6718 428.532 60.6306ZM393.374 5.54391C395.376 5.54391 397.638 7.2844 397.638 9.54705C397.638 10.2432 397.551 10.4173 396.333 12.854H409.212C411.475 12.854 412.519 14.5075 412.519 16.1609C412.519 17.8144 411.475 19.4679 409.212 19.4679H392.417C391.024 21.4695 385.716 29.3017 381.887 29.3017C379.711 29.3017 377.709 27.5612 377.709 25.5596C377.709 24.6894 378.058 23.7321 379.102 22.8618C384.758 17.9885 387.282 14.2464 390.415 7.45845C391.024 6.06605 392.156 5.54391 393.374 5.54391ZM424.616 5C423.202 5 422.016 5.71795 421.271 7.01245C418.312 12.3427 416.419 14.7849 412.808 17.6132C412.976 17.1454 413.063 16.645 413.063 16.1609C413.063 14.3062 411.856 12.3101 409.212 12.3101H397.214C398.106 10.5206 398.182 10.2759 398.182 9.54705C398.182 6.94718 395.642 5 393.374 5C391.775 5 390.551 5.7941 389.915 7.24089C387.016 13.523 384.606 17.401 378.743 22.4485C377.709 23.3079 377.16 24.3848 377.16 25.5596C377.16 27.8386 379.363 29.8402 381.876 29.8456C380.146 30.5037 379.249 32.13 379.249 33.74C379.249 35.8286 380.75 37.9389 383.622 37.9389L409.718 37.7703L409.784 41.1153C404.839 41.1153 400.178 41.1207 396.229 41.2023C389.425 41.2948 386.309 43.8457 386.124 49.4751C386.124 50.291 386.102 51.1612 386.08 52.0859C386.058 53.0432 386.037 54.0331 386.037 54.974C386.037 56.002 386.058 56.981 386.086 57.9329C386.107 58.7433 386.124 59.5102 386.124 60.1955C386.2 62.159 387.94 64.2204 391.019 64.2204C393.276 64.2204 395.566 62.8987 395.566 60.3696V60.1955V60.1792V60.1629C395.49 58.7487 395.392 56.6384 395.392 54.6205C395.392 49.0019 395.86 48.7898 398.084 48.7245C401.543 48.643 405.634 48.5559 409.881 48.5505V49.0563C401.581 60.4403 393.494 66.9399 380.092 73.0208C377.242 74.3262 376.812 76.3441 376.812 77.4319C376.812 79.8522 378.933 81.8919 381.446 81.8919C382.436 81.8919 383.377 81.6417 384.318 81.1304C395.076 75.4956 402.996 69.6105 409.778 62.1699L409.539 80.8204V80.9129C409.539 83.4964 411.986 84.6767 414.26 84.6767C416.691 84.6767 419.155 83.3822 419.155 80.9129V80.8258L418.992 61.8C428.576 72.1669 443.179 81.6308 446.981 81.6308C449.826 81.6308 452.224 79.2703 452.224 76.4746C452.224 75.365 451.822 73.3254 449.113 72.1451C444.088 69.926 438.29 67.1466 432.747 63.2033C433.21 63.2414 433.666 63.2631 434.102 63.2631C440.036 63.2631 443.435 59.9562 443.435 54.1908C443.435 53.4783 443.408 52.4938 443.386 51.5365C443.364 50.7533 443.348 50.0082 443.348 49.5785C443.158 44.0252 439.965 41.2948 433.585 41.2023C429.125 41.1207 424.202 41.1153 418.986 41.1153L419.052 37.7703L445.491 37.9389C448.499 37.9389 449.869 35.7633 449.869 33.74C449.869 31.7166 448.499 29.541 445.496 29.541L419.15 29.628V28.1704C419.15 26.7725 418.437 25.5651 417.197 24.8036C419.144 23.3568 420.901 21.7468 422.424 20.0118H447.242C449.886 20.0118 451.093 18.0157 451.093 16.1609C451.093 14.3062 449.886 12.3101 447.242 12.3101H428.037C428.532 11.4562 429.163 10.178 429.163 9.28597C429.163 7.00157 427.036 5 424.616 5ZM392.699 20.0118H409.212C409.512 20.0118 409.789 19.9846 410.055 19.9411C409.435 20.7569 409.278 21.5184 409.278 22.0786C409.278 23.1991 409.941 24.3467 410.986 25.1354C410.11 25.8588 409.626 26.9248 409.626 28.1704V29.628L383.627 29.541C383.535 29.541 383.448 29.541 383.361 29.5464C387.048 28.1432 391.193 22.182 392.699 20.0118ZM418.894 49.6546V48.5559C423.147 48.5614 427.406 48.643 431.393 48.73C433.748 48.817 434.112 50.0354 434.167 51.0851C434.254 52.0261 434.254 53.3913 434.254 53.4076V53.6686C434.254 55.4744 433.639 55.4744 433.144 55.4744C432.856 55.4744 432.454 55.3928 432.062 55.3167C431.73 55.2133 431.42 55.2133 431.143 55.2133C428.842 55.2133 427.64 57.1061 427.64 58.9772C427.64 59.037 427.64 59.0968 427.64 59.1512C424.719 56.5677 421.847 53.4456 418.894 49.6546Z" stroke="black" stroke-width="10"/>
<path d="M402.25 29.04C401.554 29.04 400.858 28.7789 400.336 28.1697C399.03 26.6033 397.638 25.9071 396.071 25.2979C394.94 24.8628 394.418 23.9925 394.418 23.1223C394.418 21.5558 395.984 19.9023 398.16 19.9023C398.595 19.9023 405.905 21.6428 405.905 25.4719C405.905 27.3865 403.991 29.04 402.25 29.04Z" stroke="black" stroke-width="10"/>
<path d="M398.16 19.9033C398.595 19.9033 405.905 21.6438 405.905 25.4729C405.905 27.3874 403.991 29.0409 402.25 29.0409C401.554 29.0409 400.858 28.7798 400.336 28.1706C399.03 26.6042 397.638 25.908 396.071 25.2988C394.94 24.8637 394.418 23.9934 394.418 23.1232C394.418 21.5568 395.984 19.9033 398.16 19.9033ZM398.16 19.3594C395.598 19.3594 393.874 21.3066 393.874 23.1232C393.874 24.3198 394.625 25.326 395.876 25.8047C397.502 26.4356 398.747 27.11 399.917 28.5187C400.51 29.2095 401.336 29.5848 402.25 29.5848C404.192 29.5848 406.449 27.7899 406.449 25.4729C406.449 21.1488 398.704 19.3594 398.16 19.3594Z" stroke="black" stroke-width="10"/>
<path d="M433.579 29.04C432.883 29.04 432.187 28.7789 431.665 28.1697C430.359 26.6033 428.967 25.9071 427.401 25.2979C426.269 24.8628 425.747 23.9925 425.747 23.1223C425.747 21.5558 427.314 19.9023 429.489 19.9023C429.924 19.9023 437.234 21.6428 437.234 25.4719C437.234 27.3865 435.32 29.04 433.579 29.04Z" stroke="black" stroke-width="10"/>
<path d="M429.489 19.9033C429.924 19.9033 437.234 21.6438 437.234 25.4729C437.234 27.3874 435.32 29.0409 433.579 29.0409C432.883 29.0409 432.187 28.7798 431.665 28.1706C430.359 26.6042 428.967 25.908 427.4 25.2988C426.269 24.8637 425.747 23.9934 425.747 23.1232C425.747 21.5568 427.313 19.9033 429.489 19.9033ZM429.489 19.3594C426.927 19.3594 425.203 21.3066 425.203 23.1232C425.203 24.3198 425.954 25.326 427.205 25.8047C428.831 26.4356 430.077 27.11 431.246 28.5187C431.839 29.2095 432.665 29.5848 433.579 29.5848C435.521 29.5848 437.778 27.7899 437.778 25.4729C437.778 21.1488 430.033 19.3594 429.489 19.3594Z" stroke="black" stroke-width="10"/>
<path d="M80.0686 22.515C74.1509 22.4279 68.2332 22.3409 62.3155 22.3409C63.0987 28.5197 64.143 34.2633 65.8835 39.1367C67.7111 35.8298 69.1035 32.4358 70.0607 29.1289C70.5829 27.3884 71.8882 26.6922 73.2806 26.6922C75.1952 26.6922 77.2838 28.1716 77.2838 30.4342C77.2838 31.3045 75.1082 38.9627 69.7126 46.6208C71.3661 48.9705 73.7158 51.5813 75.6303 51.5813C77.1097 51.5813 78.2411 49.9278 78.9373 45.6636C79.2854 43.4879 80.7648 42.6177 82.3312 42.6177C84.4198 42.6177 86.5954 44.0971 86.5954 46.6208C86.5954 50.0148 83.7236 59.7616 76.0654 59.7616C74.0639 59.7616 69.4515 59.1524 64.8392 52.5385C61.8804 55.5844 58.4864 58.1081 54.8314 59.9356C54.7444 60.0227 54.6573 60.1097 54.5703 60.1097C59.1826 63.2426 59.7048 65.1571 59.7048 66.3755C59.7048 68.7251 57.6162 70.7267 55.4406 70.7267C54.3963 70.7267 53.439 70.2916 52.5687 69.2473C50.3931 66.4625 46.477 63.6777 44.1273 62.2853C42.996 61.5891 42.4739 60.6318 42.4739 59.7616C42.4739 57.9341 44.3884 56.1065 46.6511 56.1065C47.3472 56.1065 47.8694 56.1936 49.4358 56.8898C49.4358 56.8027 49.4358 56.7157 49.4358 56.6287C49.4358 55.4974 49.958 54.279 51.3504 53.6699C55.2665 51.7553 58.5734 49.0575 61.1842 46.0117C57.9643 39.0497 56.1368 30.6953 54.9184 22.3409C46.651 22.3409 38.7318 22.4279 31.4217 22.515C28.811 22.515 27.7667 23.9944 27.7667 26.083C27.7667 27.1273 27.8537 28.3456 27.8537 29.8251C27.8537 37.9184 26.8964 51.4942 19.7604 60.6318C18.542 62.1113 17.1496 62.7204 15.7572 62.7204C13.4076 62.7204 11.2319 60.8929 11.2319 58.7173C11.2319 57.847 11.58 56.8898 12.4503 55.9325C18.7161 49.2316 19.6733 39.3108 19.6733 31.6526C19.6733 28.8678 19.5863 26.3441 19.4993 24.3425C19.4993 24.2555 19.4993 24.0814 19.4993 23.9944C19.4993 19.5561 22.8062 15.727 28.7239 15.64C36.5562 15.553 45.1716 15.553 54.0482 15.553C53.8741 13.8995 53.613 12.246 53.439 10.5926C53.439 10.3315 53.439 10.1574 53.439 9.89636C53.439 7.45967 55.2665 6.1543 57.094 6.1543C59.0956 6.1543 61.0972 7.54669 61.2712 10.3315C61.3582 12.072 61.4453 13.8125 61.6193 15.553C64.7522 15.553 67.9721 15.64 71.105 15.64C69.3645 13.8125 67.363 12.7682 65.5354 11.8109C64.5782 11.3758 64.2301 10.5926 64.2301 9.89636C64.2301 8.24289 65.9706 6.5024 67.7981 6.5024C69.1905 6.5024 76.8487 9.28719 76.8487 13.2033C76.8487 14.0736 76.5006 14.9438 75.9784 15.64H80.1556C82.4183 15.64 83.5496 17.2935 83.5496 19.034C83.5496 20.7745 82.4183 22.515 80.1556 22.515H80.0686ZM42.3868 54.105C31.6828 54.105 30.4644 52.8866 30.4644 45.2284C30.4644 39.9199 31.2477 36.8741 37.5134 36.8741C39.515 36.8741 41.6906 36.787 43.7792 36.787C53.439 36.787 53.7001 38.7886 53.7001 45.9246C53.7001 51.9294 53.0909 54.105 42.3868 54.105ZM49.1748 82.4751C35.6859 82.4751 32.0309 79.8643 32.0309 72.5542C32.0309 63.9388 32.1179 63.0685 32.1179 62.3723C32.2919 59.7616 34.2935 58.5432 36.2951 58.5432C38.3837 58.5432 40.4723 59.9356 40.4723 62.2853C40.4723 64.722 40.3853 70.7267 40.3853 71.684C40.5593 74.7299 42.3868 75.4261 49.4358 75.4261C57.7032 75.4261 60.662 74.7299 60.662 70.7267C60.662 68.4641 62.4896 67.5068 64.4911 67.5068C66.7538 67.5068 69.1035 68.8122 69.1035 70.9008C69.1035 80.4735 63.7079 82.4751 49.1748 82.4751ZM36.9913 46.7949C36.9913 47.9262 37.5134 48.2743 42.7349 48.2743C46.8251 48.2743 47.2602 48.0132 47.2602 45.3155C47.2602 42.4437 47.1732 42.4436 42.0387 42.4436C38.0356 42.4436 37.0783 42.6177 36.9913 43.749C36.9913 43.749 36.9913 43.749 36.9913 46.7949Z" fill="#FFF100"/>
<path d="M15.4961 80.9076C12.6243 80.9076 10.8838 78.6449 10.8838 76.9044C10.8838 75.512 11.8411 74.0326 13.9297 73.1624C16.1053 72.2921 20.8916 68.0279 22.197 65.2431C22.9802 63.5896 24.1986 62.9805 25.591 62.9805C27.6796 62.9805 29.9422 64.721 29.9422 66.8966C29.9422 71.1608 20.1084 80.9076 15.4961 80.9076Z" fill="#00A0E9"/>
<path d="M32.5528 33.1319C30.4642 33.1319 29.4199 31.6525 29.4199 30.173C29.4199 28.6066 30.5512 26.9531 32.5528 26.9531H51.4372C53.4388 26.9531 54.4831 28.5196 54.4831 29.999C54.4831 31.5654 53.4388 33.1319 51.4372 33.1319H32.5528Z" fill="#00A0E9"/>
<path d="M79.0244 76.6443C76.5877 72.8152 72.7586 69.7693 70.0608 67.9418C68.8425 67.0715 68.3203 66.1143 68.3203 65.07C68.3203 63.2425 70.1478 61.502 72.4975 61.502C75.6304 61.502 86.8566 69.5082 86.8566 74.0335C86.8566 76.5573 84.594 78.5588 82.3313 78.5588C81.113 78.5588 79.8946 78.0367 79.0244 76.6443Z" fill="#00A0E9"/>
<path d="M148.562 59.5009C157.177 66.0278 165.967 69.6828 175.627 73.2509C177.628 74.0341 178.499 75.4265 178.499 76.8189C178.499 79.0815 176.41 81.4312 173.712 81.4312C171.363 81.4312 157.352 75.3395 144.211 64.2873L144.385 80.4739V80.561C144.385 82.7366 142.296 83.8679 140.295 83.8679C138.206 83.8679 136.204 82.7366 136.204 80.561V80.4739L136.379 64.4614C126.284 73.4249 109.923 81.8663 106.877 81.8663C104.353 81.8663 102.526 79.9518 102.526 77.9502C102.526 76.6448 103.396 75.2524 105.398 74.4692C115.754 70.4661 123.586 66.2889 131.592 59.5009H148.562ZM136.292 52.539L136.204 48.7099C136.117 46.0121 138.38 44.8808 140.295 44.8808C142.383 44.8808 144.385 46.0991 144.385 48.5358C144.385 48.6228 144.385 48.6228 144.385 48.7099L144.298 52.539H136.292ZM109.14 50.2763C106.79 50.2763 105.137 48.2747 105.137 46.2732C105.137 45.0548 105.746 43.8365 107.138 43.0532C112.795 39.7463 116.798 36.3523 120.801 31.9141C121.584 31.0438 122.542 30.6087 123.499 30.6087C125.326 30.6087 127.067 32.1751 127.067 34.1767C127.067 35.047 126.719 36.0913 125.849 37.0485C119.67 44.0105 112.099 50.2763 109.14 50.2763ZM169.883 30.6957C169.883 28.4331 171.711 27.3888 173.625 27.3888C175.54 27.3888 178.15 28.3461 178.15 31.3919C178.15 43.3143 173.538 45.2289 164.314 45.2289C156.307 45.2289 154.306 42.183 154.306 37.0485C154.306 33.8286 155.611 28.259 155.959 25.6483C155.959 25.4742 155.959 25.3002 155.959 25.1261C155.959 23.7337 155.089 23.2116 153.522 23.2116H150.041C148.301 33.4805 143.689 42.5311 130.722 47.3175C129.939 47.5785 129.33 47.7526 128.72 47.7526C126.11 47.7526 124.717 45.664 124.717 43.6624C124.717 42.27 125.413 40.9647 126.893 40.3555C136.379 36.7004 140.382 31.1308 141.861 23.2986C137.684 23.3856 133.681 23.4727 132.549 23.4727C130.287 23.4727 128.894 21.6451 128.894 19.8176C128.894 18.0771 130.2 16.3366 132.898 16.3366C134.725 16.3366 138.467 16.3366 142.557 16.2496C142.644 15.2923 142.644 14.4221 142.644 13.4648C142.644 12.5075 142.644 11.5503 142.557 10.593C142.557 10.506 142.557 10.506 142.557 10.4189C142.557 7.80819 144.559 6.58984 146.647 6.58984C148.823 6.58984 150.999 7.98224 150.999 10.593V10.68C150.999 12.5075 150.912 14.3351 150.825 16.1626H156.307C161.268 16.2496 164.662 17.9901 164.662 22.2543C164.662 22.8635 164.575 23.4727 164.488 24.0818C163.791 27.7369 162.66 33.8286 162.66 36.0042C162.66 36.0042 162.66 36.0913 162.66 36.1783C162.66 37.5707 162.747 38.1799 164.923 38.1799C168.143 38.1799 169.883 37.8318 169.883 31.4789C169.883 31.2179 169.883 31.0438 169.883 30.7827V30.6957Z" fill="#FFF100"/>
<path d="M114.188 30.0855C111.664 28.6061 109.227 27.6488 106.703 27.1267C104.963 26.7786 104.18 25.5602 104.18 24.2549C104.18 22.4274 105.833 20.4258 108.27 20.4258C110.794 20.4258 115.232 21.7312 117.756 23.0365C119.322 23.8197 119.931 25.2121 119.931 26.5175C119.931 28.6061 118.365 30.6947 116.189 30.6947C115.58 30.6947 114.884 30.5207 114.188 30.0855Z" fill="#00A0E9"/>
<path d="M119.409 18.599C117.32 16.5975 113.056 14.7699 111.316 13.9867C109.923 13.3775 109.314 12.4203 109.314 11.2889C109.314 9.46142 111.141 7.54688 113.404 7.54688C115.145 7.54688 121.759 10.4187 124.282 12.4203C125.327 13.2905 125.762 14.3348 125.762 15.3791C125.762 17.5547 123.934 19.6433 121.846 19.6433C121.062 19.6433 120.192 19.2952 119.409 18.599Z" fill="#00A0E9"/>
<path d="M148.562 59.501L173.451 59.8491H173.538C175.975 59.8491 177.193 58.0216 177.193 56.1941C177.193 54.3666 175.975 52.5391 173.451 52.5391H144.298H136.292H107.574C105.137 52.5391 103.832 54.4536 103.832 56.2811C103.832 58.1087 105.05 59.8491 107.487 59.8491H107.574L131.592 59.501H148.562Z" fill="#00A0E9"/>
<path d="M263.354 23.9085C256.044 23.8214 246.384 23.7344 237.333 23.7344C229.936 23.7344 222.887 23.8214 217.927 23.9085C215.142 23.9955 213.924 25.3008 213.924 27.4765C213.924 27.5635 213.924 27.6505 213.924 27.7375C214.185 32.4369 214.359 37.2233 214.359 42.0096C214.359 55.8466 212.444 69.2484 203.655 79.8654C202.436 81.3448 201.044 81.867 199.652 81.867C197.302 81.867 195.213 80.0395 195.213 78.0379C195.213 77.2547 195.474 76.4715 196.084 75.7753C202.088 68.6392 204.699 61.0681 205.83 52.9747C204.003 54.2801 199.303 57.413 196.954 57.413C194.517 57.413 192.951 55.0633 192.951 52.8877C192.951 51.4083 193.734 50.0159 195.474 49.4938C199.739 48.2754 203.046 46.796 206.44 44.7074C206.44 43.9242 206.44 43.228 206.44 42.4447C206.44 37.4843 206.178 32.4369 205.917 27.1284C205.917 26.6932 205.917 26.3451 205.917 25.997C205.917 19.4702 209.485 16.5113 216.97 16.4243C220.973 16.3373 225.759 16.2503 230.806 16.2503V10.3326C230.806 7.46076 232.982 6.06836 235.245 6.06836C237.42 6.06836 239.683 7.46076 239.683 10.3326V16.2503C248.211 16.2503 256.914 16.2503 263.441 16.4243C266.313 16.5113 267.705 18.3389 267.705 20.0794C267.705 21.9939 266.226 23.9085 263.441 23.9085H263.354ZM221.837 73.1645V48.6235C221.837 46.2738 223.752 45.1425 225.754 45.1425C227.668 45.1425 229.67 46.2738 229.67 48.6235V73.1645H221.837ZM245.769 73.1645V57.7611H258.388C260.912 57.7611 262.13 55.9336 262.13 54.1061C262.13 52.1915 260.912 50.364 258.388 50.364H245.769V38.0935H237.676V73.1645H245.769Z" fill="#FFF100"/>
<path d="M198.254 38.529C197.21 35.9182 195.817 33.5685 194.599 32.2632C193.816 31.3929 193.468 30.6097 193.468 29.8265C193.468 27.999 195.469 26.5195 197.384 26.5195C200.604 26.5195 205.477 34.0037 205.477 36.6144C205.477 38.9641 203.389 40.7916 201.3 40.7916C200.082 40.7916 198.863 40.0954 198.254 38.529Z" fill="#00A0E9"/>
<path d="M245.769 73.1641H264.479C267.003 73.1641 268.222 74.9916 268.222 76.7321C268.222 78.5596 267.003 80.3871 264.392 80.3871H214.179C211.655 80.3871 210.437 78.5596 210.437 76.7321C210.437 74.9916 211.655 73.1641 214.179 73.1641H221.837H245.769Z" fill="#00A0E9"/>
<path d="M237.676 38.0922H222.36C219.749 38.0922 218.444 36.2647 218.444 34.5242C218.444 32.6967 219.749 30.8691 222.36 30.8691H261.26C263.958 30.8691 265.263 32.6967 265.263 34.5242C265.263 36.2647 263.958 38.0922 261.26 38.0922H245.77H237.676Z" fill="#00A0E9"/>
<path d="M309.999 49.319C312.174 42.6181 313.654 35.8302 314.524 29.6514H317.657C318.44 29.6514 319.136 29.3904 319.658 29.0423C319.658 29.1293 319.658 29.3033 319.658 29.3904C319.658 31.3049 320.877 33.1324 323.749 33.1324H343.068V68.2905C343.068 72.0325 340.631 73.8601 336.019 73.8601C333.843 73.8601 331.233 73.4249 328.1 72.6417C327.665 72.5547 327.317 72.4676 326.969 72.4676C324.706 72.4676 323.401 74.4692 323.401 76.4708C323.401 78.3853 324.532 80.2999 327.056 80.9091C330.537 81.6923 333.582 82.0404 336.28 82.0404C346.81 82.0404 351.597 76.6448 351.597 69.7699C351.597 69.6829 351.597 69.6828 351.597 69.5958L351.423 57.0643V33.1324H358.907C361.691 33.1324 363.084 31.2179 363.084 29.3033C363.084 27.3888 361.691 25.4742 358.907 25.4742H351.423V10.767C351.423 7.98224 349.334 6.67687 347.245 6.67687C345.157 6.67687 343.068 7.98224 343.068 10.767V25.4742H323.749C322.791 25.4742 321.921 25.7353 321.312 26.1704C321.312 26.0834 321.312 25.9094 321.312 25.8223C321.312 23.9078 320.094 22.0803 317.657 22.0803H308.606L308.693 10.2449C308.693 7.80819 306.518 6.58984 304.429 6.58984C302.341 6.58984 300.252 7.80819 300.252 10.2449L300.339 22.0803H289.548C287.024 22.0803 285.719 24.0818 285.719 25.9964C285.719 27.8239 286.937 29.6514 289.548 29.6514H306.17C305.56 34.6989 304.516 39.9204 303.037 44.9678L300.426 52.713C296.858 61.6766 291.811 69.7699 285.284 75.2524C284.239 76.1227 283.804 77.167 283.804 78.1243C283.804 80.2999 285.893 82.2144 288.329 82.2144C293.029 82.2144 301.557 70.5531 306.866 57.6734L309.999 49.319Z" fill="#FFF100"/>
<path d="M309.999 49.3188C317.918 55.0624 318.266 57.4121 318.266 58.7175C318.266 61.1542 316.09 63.3298 313.828 63.3298C312.697 63.3298 311.565 62.8077 310.608 61.5893C309.564 60.2839 308.345 58.9786 306.866 57.6732L300.426 52.7128C297.293 50.6242 294.073 48.7096 291.288 47.4043C289.722 46.7081 289.113 45.5767 289.113 44.3584C289.113 42.4438 290.94 40.5293 293.203 40.5293C293.899 40.5293 295.292 40.6163 303.037 44.9676L309.999 49.3188Z" fill="#00A0E9"/>
<path d="M331.755 56.6306C329.58 53.4107 325.838 50.1037 322.27 48.0151C320.877 47.2319 320.355 46.1006 320.355 44.9693C320.355 43.2288 321.921 41.4883 324.184 41.4883C327.23 41.4883 339.326 49.0594 339.326 53.9328C339.326 56.3695 337.151 58.3711 334.888 58.3711C333.757 58.3711 332.625 57.8489 331.755 56.6306Z" fill="#00A0E9"/>
<path d="M410.083 80.8234L410.344 60.7206C403.382 68.6399 395.201 74.8186 384.062 80.6493C383.105 81.1715 382.235 81.3455 381.452 81.3455C379.102 81.3455 377.361 79.431 377.361 77.4294C377.361 75.95 378.232 74.4706 380.32 73.5133C393.374 67.5956 401.641 61.3298 410.431 49.2333V48.015C405.992 48.015 401.728 48.102 398.073 48.189C395.201 48.2761 394.853 49.2333 394.853 54.6289C394.853 56.5434 394.94 58.545 395.027 60.1985C395.027 60.2855 395.027 60.3725 395.027 60.3725C395.027 62.5481 393.026 63.6795 391.024 63.6795C388.936 63.6795 386.76 62.4611 386.673 60.1985C386.673 58.7191 386.586 56.8915 386.586 54.977C386.586 53.1495 386.673 51.1479 386.673 49.4944C386.847 44.0989 389.719 41.8362 396.246 41.7492C400.336 41.6622 405.209 41.6622 410.344 41.6622L410.257 37.2239L383.627 37.398C381.103 37.398 379.798 35.5704 379.798 33.7429C379.798 31.9154 381.103 30.0879 383.627 30.0879L410.17 30.1749V28.1733C410.17 26.6939 410.953 25.6496 411.997 25.1275C410.779 24.5183 409.822 23.2999 409.822 22.0816C409.822 21.1243 410.344 20.167 411.475 19.2968C416.174 15.9028 418.263 13.5532 421.744 7.28737C422.44 6.06902 423.484 5.54688 424.616 5.54688C426.617 5.54688 428.619 7.20035 428.619 9.28894C428.619 10.4203 427.314 12.5089 427.053 12.857H447.242C449.505 12.857 450.549 14.5104 450.549 16.1639C450.549 17.8174 449.505 19.4708 447.242 19.4708H422.179C420.526 21.3854 418.611 23.1259 416.435 24.6923C416.348 24.7794 416.174 24.7794 416.087 24.8664C417.48 25.3885 418.611 26.5199 418.611 28.1733V30.1749L445.502 30.0879C448.113 30.0879 449.331 31.9154 449.331 33.7429C449.331 35.5704 448.113 37.398 445.502 37.398L418.524 37.2239L418.437 41.6622C423.746 41.6622 428.967 41.6622 433.579 41.7492C439.758 41.8362 442.63 44.447 442.804 49.5814C442.804 50.5387 442.891 52.8884 442.891 54.1938C442.891 58.9801 440.454 62.7222 434.102 62.7222C433.318 62.7222 432.448 62.6352 431.578 62.5481C431.317 62.5481 430.969 62.4611 430.708 62.3741C436.277 66.6383 442.195 69.6842 448.896 72.643C450.897 73.5133 451.681 74.9927 451.681 76.4721C451.681 78.8218 449.679 81.0844 446.981 81.0844C443.239 81.0844 427.836 70.9896 418.437 60.3725L418.611 80.8234C418.611 80.8234 418.611 80.8234 418.611 80.9104C418.611 82.999 416.435 84.1303 414.26 84.1303C412.171 84.1303 410.083 83.086 410.083 80.9104V80.8234ZM392.417 19.4708C391.024 21.4724 385.716 29.3047 381.887 29.3047C379.711 29.3047 377.709 27.5642 377.709 25.5626C377.709 24.6923 378.058 23.7351 379.102 22.8648C384.758 17.9914 387.282 14.2494 390.415 7.46142C391.024 6.06902 392.156 5.54688 393.374 5.54688C395.375 5.54688 397.638 7.28737 397.638 9.55002C397.638 10.2462 397.551 10.4203 396.333 12.857H409.212C411.475 12.857 412.519 14.5104 412.519 16.1639C412.519 17.8174 411.475 19.4708 409.212 19.4708H392.417ZM418.35 49.8425C421.657 54.1067 424.964 57.6748 428.532 60.6336C428.271 60.1115 428.184 59.5893 428.184 58.9801C428.184 57.3267 429.228 55.7602 431.143 55.7602C431.404 55.7602 431.665 55.7602 431.926 55.8472C432.361 55.9343 432.796 56.0213 433.144 56.0213C434.102 56.0213 434.798 55.5862 434.798 53.6716C434.798 53.5846 434.798 53.4976 434.798 53.4105C434.798 53.4105 434.798 52.0181 434.711 51.0609C434.624 49.4074 433.753 48.2761 431.404 48.189C427.401 48.102 422.875 48.015 418.35 48.015V49.8425Z" fill="#FFF100"/>
<path d="M402.251 29.0439C401.555 29.0439 400.858 28.7828 400.336 28.1736C399.031 26.6072 397.638 25.911 396.072 25.3018C394.941 24.8667 394.418 23.9964 394.418 23.1262C394.418 21.5597 395.985 19.9062 398.161 19.9062C398.596 19.9062 405.906 21.6467 405.906 25.4758C405.906 27.3904 403.991 29.0439 402.251 29.0439Z" fill="#00A0E9"/>
<path d="M433.579 29.0439C432.883 29.0439 432.187 28.7828 431.665 28.1736C430.359 26.6072 428.967 25.911 427.401 25.3018C426.269 24.8667 425.747 23.9964 425.747 23.1262C425.747 21.5597 427.314 19.9062 429.489 19.9062C429.924 19.9062 437.234 21.6467 437.234 25.4758C437.234 27.3904 435.32 29.0439 433.579 29.0439Z" fill="#00A0E9"/>
</svg>
