<?xml version="1.0" encoding="utf-8"?>
<!-- Generator: Adobe Illustrator 25.0.0, SVG Export Plug-In . SVG Version: 6.00 Build 0)  -->
<svg version="1.1" id="圖層_1" xmlns="http://www.w3.org/2000/svg" xmlns:xlink="http://www.w3.org/1999/xlink" x="0px" y="0px"
	 viewBox="0 0 1344.6 889" style="enable-background:new 0 0 1344.6 889;" xml:space="preserve">
<style type="text/css">
	.st0{fill:#FFF3D2;stroke:#000000;stroke-width:10;stroke-linejoin:round;}
	.st1{fill-rule:evenodd;clip-rule:evenodd;}
	.st2{fill:#FFF3D2;stroke:#000000;stroke-width:10;stroke-linejoin:round;stroke-miterlimit:10.4714;}
	.st3{fill:none;stroke:#FF2626;stroke-width:5;stroke-linecap:round;stroke-miterlimit:10;}
	.st4{fill:none;stroke:#FC983B;stroke-width:5;stroke-linecap:round;stroke-miterlimit:10;}
	.st5{fill:none;stroke:#00B5D3;stroke-width:5;stroke-linecap:round;stroke-miterlimit:10;}
</style>
<path class="st0" d="M5,5l1334.5,86v565.5L5,861.5V5z"/>
<path class="st1" d="M71.7,795.8L59,264.5V811l13-2.5l0-0.2l248-40.8L71.7,795.8z"/>
<path class="st2" d="M1339.5,694.5V881H83L1339.5,694.5z"/>
<path d="M1320.5,592.1l-1.9,45.7l-48.9,12.8L1320.5,592.1z"/>
<path d="M1320.7,529.1l-1.9,45.7l-48.9,12.8L1320.7,529.1z"/>
<path d="M1323.9,466l-1.9,45.7l-48.9,12.8L1323.9,466z"/>
<path class="st1" d="M1292.6,146.4l12.5,217.1V134.3l-10.4-0.3l-250.9-21.8L1292.6,146.4z"/>
<path class="st3" d="M206,653c16.1,0,16.1-20,32.3-20c16.1,0,16.1,20,32.3,20s16.1-20,32.3-20c16.1,0,16.1,20,32.3,20
	s16.1-20,32.3-20c16.1,0,16.1,20,32.3,20c16.1,0,16.1-20,32.3-20c16.1,0,16.1,20,32.3,20s16.1-20,32.3-20c16.1,0,16.1,20,32.3,20
	s16.1-20,32.3-20c16.1,0,16.1,20,32.3,20"/>
<path class="st4" d="M206,680c16.1,0,16.1-20,32.3-20c16.1,0,16.1,20,32.3,20s16.1-20,32.3-20c16.1,0,16.1,20,32.3,20
	s16.1-20,32.3-20c16.1,0,16.1,20,32.3,20c16.1,0,16.1-20,32.3-20c16.1,0,16.1,20,32.3,20s16.1-20,32.3-20c16.1,0,16.1,20,32.3,20
	s16.1-20,32.3-20c16.1,0,16.1,20,32.3,20"/>
<path class="st5" d="M206,707c16.1,0,16.1-20,32.3-20c16.1,0,16.1,20,32.3,20s16.1-20,32.3-20c16.1,0,16.1,20,32.3,20
	s16.1-20,32.3-20c16.1,0,16.1,20,32.3,20c16.1,0,16.1-20,32.3-20c16.1,0,16.1,20,32.3,20s16.1-20,32.3-20c16.1,0,16.1,20,32.3,20
	s16.1-20,32.3-20c16.1,0,16.1,20,32.3,20"/>
</svg>
