<svg width="1354" height="889" viewBox="0 0 1354 889" fill="none" xmlns="http://www.w3.org/2000/svg">
<path d="M5 5L1339.5 91V656.5L5 861.5V5Z" fill="#FFF3D2" stroke="black" stroke-width="10" stroke-linejoin="round"/>
<path fill-rule="evenodd" clip-rule="evenodd" d="M71.6923 795.822L59 264.5V811L71.9951 808.5L71.9911 808.331L319.995 767.5L71.6923 795.822Z" fill="black"/>
<path d="M1341.74 697.5V884H83L1341.74 697.5Z" fill="#FFF3D2" stroke="black" stroke-width="10" stroke-miterlimit="10.4714" stroke-linejoin="round"/>
<path d="M1320.52 592.111L1318.6 637.853L1269.66 650.676L1320.52 592.111Z" fill="black"/>
<path d="M1320.7 529.135L1318.78 574.877L1269.84 587.7L1320.7 529.135Z" fill="black"/>
<path d="M1323.88 466.017L1321.95 511.759L1273.01 524.582L1323.88 466.017Z" fill="black"/>
<path fill-rule="evenodd" clip-rule="evenodd" d="M1292.62 146.418L1305.13 363.5L1305.13 134.288L1294.75 133.994L1043.89 112.21L1292.62 146.418Z" fill="black"/>
<path d="M206 653C222.143 653 222.143 633 238.28 633C254.423 633 254.423 653 270.566 653C286.709 653 286.709 633 302.853 633C318.996 633 318.996 653 335.139 653C351.282 653 351.282 633 367.425 633C383.568 633 383.568 653 399.712 653C415.855 653 415.855 633 431.998 633C448.141 633 448.141 653 464.284 653C480.427 653 480.427 633 496.571 633C512.714 633 512.714 653 528.857 653C545 653 545 633 561.15 633C577.293 633 577.293 653 593.442 653" stroke="#FF2626" stroke-width="5" stroke-miterlimit="10" stroke-linecap="round"/>
<path d="M206 680C222.143 680 222.143 660 238.28 660C254.423 660 254.423 680 270.566 680C286.709 680 286.709 660 302.853 660C318.996 660 318.996 680 335.139 680C351.282 680 351.282 660 367.425 660C383.568 660 383.568 680 399.712 680C415.855 680 415.855 660 431.998 660C448.141 660 448.141 680 464.284 680C480.427 680 480.427 660 496.571 660C512.714 660 512.714 680 528.857 680C545 680 545 660 561.15 660C577.293 660 577.293 680 593.442 680" stroke="#FC983B" stroke-width="5" stroke-miterlimit="10" stroke-linecap="round"/>
<path d="M206 707C222.143 707 222.143 687 238.28 687C254.423 687 254.423 707 270.566 707C286.709 707 286.709 687 302.853 687C318.996 687 318.996 707 335.139 707C351.282 707 351.282 687 367.425 687C383.568 687 383.568 707 399.712 707C415.855 707 415.855 687 431.998 687C448.141 687 448.141 707 464.284 707C480.427 707 480.427 687 496.571 687C512.714 687 512.714 707 528.857 707C545 707 545 687 561.15 687C577.293 687 577.293 707 593.442 707" stroke="#00B5D3" stroke-width="5" stroke-miterlimit="10" stroke-linecap="round"/>
</svg>
