<svg width="189" height="325" viewBox="0 0 189 325" fill="none" xmlns="http://www.w3.org/2000/svg">
<path d="M136.085 14.7497C133.05 11.8871 128.8 10.2687 123.795 10.0692L123.754 10.0674C118.363 9.91397 113.68 9.83859 109.438 9.83859C101.802 9.83859 94.8996 9.99822 92.2864 10.0665L92.2482 10.0674C86.9816 10.2616 82.5898 11.9208 79.5454 14.8641C79.4441 14.9617 79.3445 15.0619 79.2468 15.1621C79.1508 15.2552 79.0574 15.3492 78.9641 15.4441C78.8681 15.5372 78.7748 15.6304 78.6815 15.7261C78.5855 15.8192 78.4921 15.9132 78.3988 16.0081C78.3028 16.1012 78.2095 16.1953 78.1161 16.2901C78.0201 16.3833 77.9268 16.4773 77.8335 16.5721C77.7375 16.6653 77.6442 16.7584 77.5508 16.8542C77.4548 16.9473 77.3615 17.0413 77.2682 17.1362C77.1722 17.2293 77.0788 17.3224 76.9855 17.4182C76.8895 17.5113 76.7962 17.6053 76.7028 17.7002C76.6069 17.7933 76.5135 17.8873 76.4202 17.9822C76.3242 18.0753 76.2309 18.1693 76.1375 18.2642C76.0415 18.3573 75.9482 18.4504 75.8549 18.5462C75.7589 18.6393 75.6655 18.7333 75.5722 18.8282C75.4762 18.9213 75.3829 19.0153 75.2896 19.1102C75.1936 19.2033 75.1002 19.2973 75.0069 19.3922C74.9109 19.4853 74.8176 19.5793 74.7242 19.6742C74.6282 19.7673 74.5349 19.8613 74.4416 19.9562C74.3465 20.0493 74.2523 20.1424 74.1589 20.2382C74.0629 20.3313 73.9696 20.4245 73.8763 20.5202C73.7803 20.6133 73.6869 20.7073 73.5936 20.8022C73.4976 20.8953 73.4043 20.9893 73.311 21.0842C73.215 21.1774 73.1216 21.2714 73.0283 21.3662C70.1084 24.1987 68.488 28.1131 68.3422 32.6952C68.1244 40.0833 68 50.4182 68 61.051C68 73.2704 68.1253 84.3928 68.3422 91.5609C68.4827 96.402 70.2497 100.483 73.4514 103.363C76.5491 106.15 80.9498 107.729 86.1799 107.93C90.9237 108.161 95.9858 108.161 101.345 108.161C106.58 108.161 111.993 108.161 117.074 107.931C122.206 107.729 126.544 106.011 129.619 102.962C129.678 102.903 129.736 102.844 129.794 102.784C129.83 102.75 129.867 102.715 129.902 102.68C129.961 102.621 130.018 102.562 130.075 102.503C130.112 102.468 130.148 102.433 130.185 102.398C130.243 102.339 130.3 102.28 130.358 102.221C130.395 102.186 130.431 102.151 130.467 102.116C130.526 102.057 130.583 101.999 130.641 101.939C130.677 101.904 130.714 101.869 130.75 101.834C130.809 101.775 130.866 101.716 130.923 101.657C130.96 101.622 130.996 101.587 131.033 101.552C131.091 101.493 131.148 101.434 131.206 101.375C131.243 101.34 131.279 101.306 131.315 101.27C131.373 101.211 131.43 101.152 131.488 101.093C131.524 101.058 131.561 101.023 131.597 100.988C131.656 100.929 131.713 100.87 131.771 100.811C131.807 100.776 131.843 100.741 131.88 100.706C131.939 100.647 131.995 100.588 132.053 100.529C132.09 100.494 132.126 100.459 132.162 100.424C132.221 100.365 132.278 100.307 132.336 100.247C132.372 100.212 132.409 100.177 132.445 100.142C132.504 100.083 132.561 100.024 132.618 99.9651C132.655 99.9297 132.691 99.8951 132.728 99.8596C132.786 99.8011 132.843 99.7417 132.901 99.6832C132.938 99.6477 132.974 99.614 133.01 99.5785C133.068 99.52 133.125 99.4606 133.183 99.402C133.219 99.3666 133.256 99.332 133.292 99.2965C133.351 99.238 133.408 99.1786 133.466 99.12C133.502 99.0846 133.538 99.05 133.575 99.0145C133.634 98.956 133.69 98.8974 133.748 98.838C133.785 98.8025 133.821 98.768 133.858 98.7325C133.916 98.674 133.973 98.6145 134.031 98.556C134.067 98.5205 134.104 98.486 134.14 98.4505C134.199 98.392 134.256 98.3325 134.314 98.274C134.35 98.2385 134.386 98.204 134.423 98.1685C134.482 98.11 134.538 98.0505 134.596 97.992C134.633 97.9565 134.669 97.9228 134.705 97.8874C134.763 97.8288 134.82 97.7694 134.878 97.7109C134.914 97.6754 134.951 97.6408 134.987 97.6053C135.046 97.5468 135.103 97.4874 135.161 97.4289C135.197 97.3934 135.234 97.3588 135.27 97.3233C135.329 97.2648 135.386 97.2063 135.443 97.1469C135.48 97.1114 135.516 97.0768 135.553 97.0413C135.611 96.9828 135.668 96.9234 135.726 96.8649C135.762 96.8294 135.799 96.7948 135.835 96.7593C135.894 96.7008 135.951 96.6414 136.009 96.5829C136.045 96.5474 136.081 96.5128 136.118 96.4773C139.142 93.4781 140.798 89.3447 140.959 84.5231C141.152 78.7234 141.302 67.6134 141.302 54.7946C141.302 43.3645 141.176 32.9436 140.959 26.2073C140.819 21.5862 139.133 17.6248 136.085 14.7497ZM101.804 28.8492C107.098 28.8492 112.405 28.9618 115.314 29.0735L115.338 29.0744C117.703 29.1489 119.278 29.6038 120.017 30.4259C120.668 31.1487 121.027 32.5294 121.116 34.6551C121.246 37.5922 121.342 41.5252 121.397 46.1455H87.6341C87.6598 39.2754 87.7621 33.3346 87.9283 29.0602C91.3388 28.9556 96.6311 28.8492 101.804 28.8492ZM121.119 88.6956C118.229 88.8064 112.893 88.8064 107.732 88.8064C102.739 88.8064 97.5742 88.8064 95.0356 88.6965L94.9903 88.6947C92.1602 88.6078 90.2269 88.1289 89.242 87.2705C88.6954 86.7934 87.9558 85.8241 87.8518 82.9109C87.6981 78.8466 87.6492 72.4297 87.6341 65.3831H121.448C121.426 74.9615 121.306 83.4873 121.119 88.6956Z" fill="#580077"/>
<path d="M108.583 22.0864C113.877 22.0864 119.184 22.199 122.093 22.3108L122.117 22.3116C124.482 22.3861 126.056 22.8411 126.796 23.6631C127.447 24.3859 127.806 25.7667 127.895 27.8923C128.083 32.1233 128.199 38.4188 128.226 45.8644H87.9171C87.9447 38.5048 88.0602 32.2102 88.2487 27.8897L88.2495 27.8693C88.3269 25.819 88.7686 24.4418 89.5997 23.6587C90.461 22.8464 92.0308 22.3941 94.2663 22.3125C97.6484 22.2026 103.182 22.0864 108.583 22.0864ZM136.368 14.4678C133.334 11.6052 129.083 9.98674 124.078 9.78633L124.037 9.78455C118.646 9.63113 113.963 9.55576 109.721 9.55576C102.085 9.55576 95.1827 9.71538 92.5694 9.78367L92.5312 9.78455C87.2647 9.97876 82.8728 11.638 79.8285 14.5813C76.8979 17.4156 75.2722 21.3353 75.1264 25.9272C74.9086 33.3152 74.7842 43.6501 74.7842 54.2829C74.7842 66.5023 74.9095 77.6247 75.1264 84.7928C75.2668 89.6339 77.0339 93.715 80.2356 96.5953C83.3333 99.3817 87.734 100.961 92.9641 101.162C97.7079 101.393 102.77 101.393 108.129 101.393C113.364 101.393 118.778 101.393 123.858 101.163C128.991 100.961 133.328 99.2433 136.404 96.1936C139.428 93.1944 141.101 89.061 141.244 84.2394C141.459 78.4405 141.587 67.3297 141.587 54.5108C141.587 43.0807 141.462 32.6598 141.244 25.9236C141.102 21.3042 139.415 17.3428 136.368 14.4678ZM95.2733 88.4127C92.4432 88.3258 90.5099 87.8469 89.5251 86.9885C88.9784 86.5114 88.2389 85.5421 88.1349 82.6289C87.9349 77.3427 87.9127 68.0746 87.91 58.6203H128.227C128.203 68.2812 128.082 76.8735 127.893 82.0694C127.807 84.4682 127.361 86.0565 126.529 86.9247C125.659 87.8327 123.944 88.3338 121.434 88.4136L121.41 88.4145C118.522 88.5253 113.179 88.5253 108.014 88.5253C103.021 88.5253 97.8564 88.5253 95.3178 88.4154L95.2733 88.4127Z" fill="#00C9EB"/>
<path d="M113.933 15.5306C119.227 15.5306 124.533 15.6433 127.443 15.755L127.467 15.7559C129.832 15.8304 131.406 16.2853 132.146 17.1074C132.796 17.8301 133.155 19.2109 133.244 21.3366C133.433 25.5676 133.548 31.863 133.576 39.3087H93.2667C93.2943 31.949 93.4098 25.6545 93.5983 21.3339L93.5992 21.3135C93.6765 19.2632 94.1183 17.886 94.9493 17.1029C95.8106 16.2906 97.3804 15.8384 99.6159 15.7568C102.998 15.6468 108.531 15.5306 113.933 15.5306ZM141.718 7.91204C138.683 5.04942 134.433 3.43099 129.427 3.23057L129.387 3.2288C123.996 3.07538 119.312 3 115.071 3C107.434 3 100.532 3.15963 97.919 3.22791L97.8808 3.2288C92.6143 3.42301 88.2224 5.08223 85.1781 8.02556C82.2475 10.8598 80.6218 14.7795 80.476 19.3714C80.2582 26.7594 80.1338 37.0943 80.1338 47.7272C80.1338 59.9465 80.2591 71.0689 80.476 78.237C80.6164 83.0781 82.3835 87.1592 85.5852 90.0396C88.6829 92.8259 93.0836 94.4053 98.3137 94.6066C103.058 94.8372 108.12 94.8372 113.479 94.8372C118.714 94.8372 124.127 94.8372 129.208 94.6075C134.34 94.4053 138.678 92.6876 141.753 89.6378C144.777 86.6387 146.451 82.5052 146.594 77.6836C146.809 71.8848 146.937 60.7739 146.937 47.9551C146.937 36.525 146.812 26.1041 146.594 19.3679C146.451 14.7485 144.765 10.7871 141.718 7.91204ZM100.623 81.857C97.7928 81.7701 95.8595 81.2912 94.8747 80.4327C94.328 79.9556 93.5885 78.9864 93.4845 76.0732C93.2845 70.7869 93.2623 61.5189 93.2596 52.0646H133.577C133.553 61.7255 133.432 70.3178 133.242 75.5136C133.156 77.9124 132.711 79.5007 131.879 80.3689C131.009 81.277 129.294 81.778 126.784 81.8579L126.76 81.8587C123.871 81.9696 118.529 81.9696 113.364 81.9696C108.37 81.9696 103.206 81.9696 100.667 81.8596L100.623 81.857Z" stroke="black" stroke-width="5" stroke-miterlimit="10"/>
<path d="M112.111 18.591C117.406 18.591 122.712 18.7037 125.621 18.8154L125.645 18.8163C128.011 18.8908 129.585 19.3457 130.324 20.1678C130.975 20.8905 131.334 22.2713 131.423 24.397C131.611 28.6279 131.727 34.9234 131.754 42.3691H91.4454C91.473 35.0094 91.5885 28.7149 91.777 24.3943L91.7779 24.3739C91.8552 22.3236 92.297 20.9464 93.1281 20.1633C93.9894 19.351 95.5591 18.8988 97.7946 18.8172C101.177 18.7072 106.71 18.591 112.111 18.591ZM139.896 10.9724C136.862 8.10981 132.611 6.49138 127.606 6.29097L127.565 6.28919C122.174 6.13577 117.491 6.06039 113.249 6.06039C105.613 6.06039 98.711 6.22002 96.0977 6.28831L96.0595 6.28919C90.793 6.4834 86.4011 8.14263 83.3568 11.0859C80.4262 13.9202 78.8005 17.8399 78.6547 22.4318C78.4369 29.8198 78.3125 40.1547 78.3125 50.7876C78.3125 63.0069 78.4378 74.1293 78.6547 81.2974C78.7952 86.1385 80.5622 90.2196 83.7639 93.1C86.8616 95.8863 91.2623 97.4657 96.4924 97.667C101.236 97.8976 106.298 97.8976 111.657 97.8976C116.893 97.8976 122.306 97.8976 127.387 97.6679C132.519 97.4657 136.857 95.748 139.932 92.6982C142.956 89.699 144.63 85.5656 144.773 80.744C144.988 74.9452 145.116 63.8343 145.116 51.0155C145.116 39.5854 144.99 29.1645 144.773 22.4283C144.63 17.8089 142.943 13.8475 139.896 10.9724ZM98.8017 84.9174C95.9715 84.8305 94.0382 84.3516 93.0534 83.4931C92.5067 83.016 91.7672 82.0468 91.6632 79.1336C91.4632 73.8473 91.441 64.5793 91.4383 55.125H131.755C131.731 64.7859 131.61 73.3782 131.421 78.574C131.335 80.9728 130.89 82.5611 130.058 83.4293C129.187 84.3374 127.473 84.8384 124.963 84.9183L124.939 84.9191C122.05 85.03 116.708 85.03 111.543 85.03C106.549 85.03 101.385 85.03 98.8461 84.92L98.8017 84.9174Z" stroke="white" stroke-width="5" stroke-miterlimit="10"/>
<path d="M102.284 184.798H82.5522C82.7246 184.663 82.8953 184.524 83.0597 184.38C83.3104 184.161 83.5495 183.932 83.7797 183.696C83.8757 183.604 83.9699 183.51 84.0623 183.414C84.1583 183.322 84.2526 183.228 84.345 183.132C84.441 183.04 84.5352 182.946 84.6276 182.85C84.7236 182.758 84.8179 182.664 84.9103 182.568C85.0063 182.476 85.1005 182.382 85.193 182.286C85.289 182.194 85.3832 182.1 85.4756 182.004C85.5716 181.912 85.6659 181.818 85.7583 181.722C85.8543 181.63 85.9485 181.536 86.041 181.44C86.1369 181.348 86.2312 181.254 86.3236 181.158C86.4196 181.066 86.5138 180.972 86.6063 180.876C86.7023 180.784 86.7965 180.69 86.8889 180.594C86.9849 180.502 87.0791 180.408 87.1716 180.312C87.2676 180.22 87.3618 180.126 87.4542 180.03C87.5502 179.938 87.6445 179.844 87.7369 179.748C87.8329 179.656 87.9271 179.562 88.0196 179.466C88.1156 179.374 88.2098 179.28 88.3022 179.184C88.3982 179.092 88.4924 178.998 88.5849 178.902C88.6809 178.81 88.7751 178.716 88.8675 178.62C88.9635 178.528 89.0577 178.434 89.1502 178.338C89.2462 178.246 89.3404 178.152 89.4328 178.056C89.5288 177.964 89.6231 177.87 89.7155 177.774C89.8115 177.682 89.9057 177.588 89.9982 177.492C92.2123 175.358 93.5474 172.473 93.7749 169.301L93.7776 169.256C93.8647 167.776 94.0114 164.823 94.0114 161.673C94.0114 157.707 93.8496 153.887 93.7794 152.428L93.7767 152.376C93.6318 150.069 92.6488 147.799 91.0257 145.941C92.8541 145.938 94.4469 145.219 95.5544 144.036C95.6522 143.946 95.7464 143.852 95.8371 143.754C95.934 143.664 96.0282 143.57 96.1198 143.472C96.2166 143.382 96.3109 143.288 96.4024 143.19C96.5002 143.1 96.5944 143.006 96.6851 142.908C96.7829 142.818 96.8771 142.724 96.9677 142.626C97.0646 142.536 97.1588 142.442 97.2504 142.344C97.3473 142.254 97.4415 142.16 97.5331 142.062C97.6308 141.972 97.7242 141.878 97.8157 141.78C97.9135 141.69 98.0068 141.596 98.0984 141.498C98.1961 141.408 98.2904 141.314 98.381 141.216C98.4788 141.126 98.573 141.032 98.6637 140.934C98.7606 140.844 98.8548 140.75 98.9463 140.652C99.0441 140.562 99.1374 140.468 99.229 140.37C99.3268 140.28 99.4201 140.186 99.5117 140.088C99.6094 139.998 99.7037 139.904 99.7943 139.806C99.8912 139.716 99.9854 139.622 100.077 139.524C100.175 139.434 100.269 139.34 100.36 139.242C100.457 139.152 100.551 139.058 100.642 138.96C100.74 138.87 100.834 138.776 100.925 138.678C101.022 138.588 101.116 138.494 101.208 138.396C101.305 138.306 101.4 138.212 101.49 138.114C101.588 138.024 101.682 137.93 101.773 137.832C102.96 136.725 103.682 135.133 103.682 133.304C103.682 131.75 103.103 130.28 102.051 129.164C100.899 127.941 99.2894 127.267 97.5162 127.267L63.311 127.37V123.101C63.311 119.53 60.5626 116.837 56.9183 116.837C55.3583 116.837 53.8597 117.374 52.6989 118.351C52.5122 118.508 52.338 118.673 52.1744 118.847C52.0766 118.939 51.9824 119.033 51.8918 119.129C51.794 119.221 51.6998 119.315 51.6091 119.411C51.5113 119.503 51.4171 119.597 51.3264 119.693C51.2287 119.785 51.1345 119.879 51.0438 119.975C50.946 120.067 50.8518 120.161 50.7611 120.257C50.6634 120.349 50.5691 120.443 50.4785 120.539C50.3807 120.631 50.2865 120.725 50.1958 120.821C50.098 120.913 50.0038 121.007 49.9132 121.103C49.8154 121.195 49.7212 121.289 49.6305 121.385C49.5327 121.477 49.4385 121.571 49.3478 121.667C49.2501 121.759 49.1558 121.853 49.0652 121.949C48.9674 122.041 48.8732 122.135 48.7825 122.231C48.6847 122.323 48.5905 122.417 48.4999 122.513C48.4021 122.605 48.3079 122.699 48.2172 122.795C48.1194 122.887 48.0252 122.981 47.9345 123.077C47.8368 123.169 47.7426 123.263 47.6519 123.359C47.5541 123.451 47.4599 123.545 47.3692 123.641C47.2715 123.733 47.1772 123.827 47.0866 123.923C46.9888 124.015 46.8946 124.109 46.8039 124.205C46.7061 124.297 46.6119 124.391 46.5213 124.487C46.4235 124.579 46.3293 124.673 46.2386 124.769C46.1408 124.861 46.0466 124.955 45.9559 125.051C45.2591 125.701 44.74 126.488 44.4155 127.364L17.1221 127.281H17.1115C15.3391 127.281 13.7285 127.955 12.5765 129.178C12.5712 129.184 12.5658 129.19 12.5596 129.196C12.469 129.281 12.3801 129.368 12.2938 129.46C12.2885 129.466 12.2832 129.472 12.277 129.478C12.1863 129.563 12.0974 129.65 12.0112 129.742C12.0059 129.748 12.0005 129.754 11.9943 129.76C11.9036 129.845 11.8147 129.932 11.7285 130.024C11.7232 130.03 11.7179 130.036 11.7116 130.042C11.621 130.127 11.5321 130.214 11.4459 130.306C11.4405 130.312 11.4352 130.318 11.429 130.324C11.3383 130.409 11.2494 130.496 11.1632 130.588C11.1579 130.594 11.1525 130.6 11.1463 130.606C11.0557 130.691 10.9668 130.778 10.8806 130.87C10.8752 130.876 10.8699 130.882 10.8637 130.888C10.773 130.973 10.6841 131.06 10.5979 131.152C10.5926 131.158 10.5872 131.164 10.581 131.17C10.4903 131.256 10.4015 131.342 10.3152 131.434C10.3099 131.44 10.3046 131.446 10.2984 131.452C10.2077 131.538 10.1188 131.624 10.0326 131.716C10.0273 131.722 10.0219 131.728 10.0157 131.734C9.92503 131.82 9.83614 131.906 9.74992 131.998C9.74459 132.004 9.73926 132.01 9.73304 132.016C9.64237 132.102 9.55349 132.188 9.46727 132.28C9.46194 132.286 9.4566 132.292 9.45038 132.298C9.35971 132.384 9.27083 132.47 9.18461 132.562C9.17927 132.568 9.17395 132.574 9.16772 132.58C9.07706 132.666 8.98816 132.752 8.90194 132.844C8.89661 132.85 8.89128 132.856 8.88506 132.862C8.7944 132.948 8.70551 133.034 8.61929 133.126C8.61396 133.132 8.60862 133.138 8.6024 133.144C8.51173 133.23 8.42285 133.316 8.33663 133.408C8.3313 133.414 8.32597 133.42 8.31975 133.426C8.22908 133.512 8.1402 133.598 8.05398 133.69C8.04864 133.696 8.04331 133.702 8.03708 133.708C7.94642 133.794 7.85753 133.88 7.77131 133.972C7.76598 133.978 7.76065 133.984 7.75443 133.99C7.66377 134.076 7.57488 134.162 7.48866 134.254C7.48333 134.26 7.47799 134.266 7.47177 134.272C7.3811 134.358 7.29222 134.444 7.206 134.536C7.20067 134.542 7.19534 134.548 7.18912 134.554C7.09845 134.64 7.00957 134.726 6.92335 134.818C6.91801 134.824 6.91268 134.83 6.90645 134.836C6.81579 134.922 6.7269 135.008 6.64068 135.1C6.63535 135.106 6.63002 135.112 6.6238 135.118C6.53314 135.204 6.44424 135.29 6.35802 135.382C6.35269 135.388 6.34736 135.394 6.34114 135.4C6.25047 135.486 6.16159 135.572 6.07537 135.664C5.02385 136.78 4.44431 138.252 4.44431 139.805C4.44431 143.312 7.0949 145.956 10.6095 145.956L23.3611 145.917C23.33 145.949 23.298 145.98 23.2669 146.012C23.1709 146.105 23.0766 146.198 22.9842 146.294C22.8882 146.387 22.794 146.48 22.7015 146.576C22.6055 146.669 22.5113 146.762 22.4189 146.858C22.3229 146.95 22.2287 147.044 22.1362 147.14C22.0402 147.233 21.946 147.326 21.8536 147.422C21.7576 147.514 21.6633 147.608 21.5709 147.704C21.4749 147.797 21.3807 147.89 21.2882 147.986C21.1922 148.079 21.098 148.172 21.0056 148.268C20.9096 148.361 20.8154 148.454 20.7229 148.55C20.6269 148.642 20.5327 148.736 20.4403 148.832C20.3443 148.924 20.25 149.018 20.1576 149.114C20.0616 149.207 19.9674 149.3 19.875 149.396C19.779 149.489 19.6847 149.582 19.5923 149.678C19.4963 149.771 19.4021 149.864 19.3096 149.96C19.2136 150.053 19.1194 150.146 19.027 150.242C18.931 150.334 18.8368 150.428 18.7443 150.524C18.6483 150.616 18.5541 150.71 18.4617 150.806C18.3657 150.899 18.2715 150.992 18.179 151.088C18.083 151.181 17.9888 151.274 17.8963 151.37C17.8003 151.463 17.7061 151.556 17.6137 151.652C15.4671 153.73 14.2218 156.517 14.0005 159.764L13.9987 159.797C13.8787 161.829 13.8787 164.691 13.8787 167.719C13.8787 170.605 13.8787 173.589 13.9969 175.946C14.1622 179.51 15.6511 182.531 18.3043 184.68C18.3648 184.728 18.4261 184.776 18.4874 184.824L12.6663 184.814C10.9214 184.814 9.33838 185.488 8.18553 186.711C8.08864 186.802 7.99442 186.896 7.90286 186.993C7.80598 187.084 7.71177 187.178 7.62021 187.275C7.52333 187.366 7.4291 187.46 7.33755 187.557C7.24066 187.648 7.14645 187.742 7.0549 187.839C6.95801 187.93 6.86379 188.024 6.77223 188.121C6.67535 188.212 6.58114 188.306 6.48958 188.403C6.3927 188.494 6.29847 188.588 6.20692 188.685C6.11003 188.776 6.01581 188.87 5.92426 188.967C5.82737 189.058 5.73316 189.152 5.6416 189.249C5.54472 189.34 5.45049 189.434 5.35894 189.531C5.26206 189.622 5.16784 189.716 5.07629 189.813C4.9794 189.904 4.88518 189.998 4.79363 190.095C4.69674 190.186 4.60253 190.28 4.51097 190.377C4.41409 190.468 4.31986 190.562 4.22831 190.659C4.13143 190.75 4.03721 190.844 3.94566 190.941C3.84877 191.032 3.75455 191.126 3.663 191.223C3.56611 191.314 3.47189 191.408 3.38033 191.505C3.28345 191.596 3.18923 191.69 3.09768 191.787C3.0008 191.878 2.90657 191.972 2.81502 192.069C2.71813 192.16 2.62392 192.254 2.53237 192.351C2.43548 192.442 2.34126 192.536 2.2497 192.633C2.15282 192.724 2.0586 192.818 1.96705 192.915C1.82661 193.047 1.69061 193.184 1.56084 193.33C0.554644 194.463 0 195.927 0 197.451C0 200.957 2.65059 203.602 6.16515 203.602L22.7975 203.539C21.962 204.649 21.4927 205.992 21.4927 207.321C21.4927 209.841 22.9771 211.905 25.369 212.713C31.1164 214.722 35.4994 217.036 38.0486 219.406C39.1828 220.513 40.5837 221.074 42.2138 221.074C43.3418 221.074 44.4475 220.749 45.4208 220.151C45.2395 220.769 45.1453 221.416 45.1453 222.071C45.1453 224.467 46.1942 226.297 48.2625 227.508C50.4163 228.769 53.8055 229.357 58.9298 229.357C64.574 229.357 68.8921 227.844 71.7881 224.857C71.8832 224.764 71.9783 224.67 72.0707 224.575C72.1658 224.482 72.2609 224.388 72.3534 224.293C72.4485 224.2 72.5436 224.106 72.636 224.011C72.7311 223.918 72.8262 223.824 72.9187 223.729C73.0138 223.636 73.1089 223.542 73.2013 223.447C73.2964 223.354 73.3916 223.26 73.484 223.165C73.5791 223.072 73.6742 222.978 73.7666 222.883C73.8618 222.79 73.9569 222.696 74.0493 222.601C74.1444 222.508 74.2395 222.414 74.332 222.319C74.4271 222.226 74.5222 222.132 74.6146 222.037C74.7106 221.944 74.8048 221.85 74.8973 221.755C74.9924 221.662 75.0875 221.568 75.1799 221.473C75.275 221.38 75.3702 221.286 75.4626 221.191C75.5577 221.098 75.6528 221.004 75.7453 220.909C75.8404 220.816 75.9355 220.722 76.0279 220.627C76.123 220.534 76.2181 220.44 76.3106 220.344C76.4057 220.252 76.5008 220.158 76.5932 220.062C76.6883 219.97 76.7835 219.876 76.8759 219.78C76.971 219.688 77.0661 219.594 77.1586 219.498C77.2537 219.406 77.3488 219.312 77.4412 219.216C77.5372 219.124 77.6314 219.03 77.7239 218.934C77.819 218.842 77.9141 218.748 78.0065 218.652C78.4003 218.271 78.7701 217.865 79.114 217.433C81.1433 214.883 82.1726 211.589 82.1726 207.644V207.134L82.0562 203.468L95.7473 203.598H95.7811C97.5259 203.598 99.109 202.924 100.262 201.7C100.359 201.61 100.453 201.516 100.545 201.418C100.641 201.328 100.736 201.234 100.827 201.136C100.924 201.046 101.018 200.952 101.11 200.854C101.207 200.764 101.301 200.67 101.392 200.572C101.489 200.482 101.584 200.388 101.675 200.29C101.772 200.2 101.866 200.106 101.958 200.008C102.055 199.918 102.149 199.824 102.24 199.726C102.337 199.636 102.432 199.542 102.523 199.444C102.62 199.354 102.714 199.26 102.806 199.162C102.903 199.072 102.997 198.978 103.088 198.88C103.185 198.79 103.28 198.696 103.371 198.598C103.468 198.508 103.562 198.414 103.654 198.316C103.751 198.226 103.845 198.132 103.936 198.034C104.033 197.944 104.128 197.85 104.219 197.752C104.316 197.662 104.41 197.568 104.502 197.47C104.599 197.38 104.693 197.286 104.784 197.188C104.881 197.098 104.975 197.004 105.067 196.906C105.164 196.816 105.258 196.722 105.35 196.624C105.447 196.534 105.541 196.44 105.632 196.342C105.729 196.252 105.823 196.158 105.915 196.06C106.012 195.97 106.106 195.876 106.198 195.778C106.295 195.688 106.389 195.594 106.48 195.496C106.621 195.365 106.758 195.227 106.887 195.082C107.893 193.949 108.447 192.484 108.447 190.961C108.449 187.443 105.799 184.798 102.284 184.798ZM62.6701 209.883C61.6346 209.744 60.4951 209.541 59.2551 209.273L58.8827 209.192H58.8151C58.5769 209.139 58.2285 209.078 57.8187 209.078C56.7752 209.078 55.7654 209.352 54.8748 209.857C55.1068 209.144 55.2277 208.392 55.2277 207.629C55.2277 206.061 54.7246 204.623 53.7637 203.403L62.6701 203.369V209.883Z" fill="#580077"/>
<path d="M63.4717 155.131V152.23C68.5658 152.234 73.6438 152.251 78.0348 152.342C80.2356 152.394 80.9103 152.815 81.0649 152.943C81.3716 153.198 81.472 154.045 81.5049 154.484C81.5058 154.694 81.5103 154.909 81.5165 155.131H63.4717ZM81.5627 166.526C81.5032 167.645 81.3814 168.547 81.1272 169.042C80.8107 169.657 78.8766 169.755 78.0597 169.768H78.049C73.7736 169.85 68.6475 169.948 63.4717 169.983V166.527H81.5627V166.526ZM53.048 202.071L53.0302 202.056C51.2801 200.548 47.4064 198.549 44.3647 197.182C43.995 197.016 43.6341 196.856 43.2812 196.704L69.4493 196.605V206.325C69.4493 207.145 69.3515 208.608 68.7 209.177C68.2262 209.59 67.2085 209.818 65.8352 209.818C64.1863 209.818 62.0682 209.54 59.5385 208.992L59.1661 208.911H59.0985C58.8603 208.858 58.5118 208.797 58.1021 208.797C57.0586 208.797 56.0488 209.071 55.1582 209.576C55.3902 208.863 55.5111 208.111 55.5111 207.347C55.5111 205.302 54.6595 203.478 53.048 202.071ZM102.567 184.516H82.2347V181.01C85.2479 180.516 87.8416 179.364 89.8389 177.617C92.3144 175.452 93.8112 172.399 94.053 169.023L94.0557 168.979C94.1428 167.499 94.2894 164.546 94.2894 161.396C94.2894 157.43 94.1277 153.609 94.0574 152.151L94.0548 152.098C93.8752 149.234 92.4033 146.425 90.0167 144.392C87.4496 142.206 84.024 141.015 80.1121 140.949C74.498 140.851 68.9906 140.761 63.5846 140.732V139.08L97.7791 139.183H97.7898C101.304 139.183 103.955 136.538 103.955 133.032C103.955 131.478 103.375 130.008 102.324 128.891C101.172 127.668 99.5622 126.994 97.7889 126.994L63.5837 127.097V122.821C63.5837 119.25 60.8353 116.557 57.191 116.557C55.631 116.557 54.1324 117.094 52.9716 118.07C51.5698 119.248 50.7983 120.935 50.7983 122.822V127.098L17.3993 126.995H17.3887C15.6163 126.995 14.0056 127.669 12.8537 128.892C11.8022 130.009 11.2226 131.48 11.2226 133.034C11.2226 136.54 13.8732 139.185 17.3878 139.185L50.7974 139.082V140.734C45.2438 140.764 39.9666 140.859 35.4032 140.951C31.0771 141.02 27.5786 142.155 25.0053 144.325C22.4854 146.449 21.0259 149.445 20.7841 152.988L20.7823 153.021C20.6623 155.053 20.6623 157.915 20.6623 160.943C20.6623 163.829 20.6623 166.813 20.7805 169.17C20.9459 172.734 22.4347 175.755 25.088 177.904C27.6835 180.007 31.2167 181.141 35.5908 181.275C43.2021 181.506 50.6774 181.618 58.4425 181.618C61.99 181.618 65.6005 181.586 69.3355 181.521V184.625L12.9541 184.518C11.1471 184.518 9.51155 185.239 8.34892 186.548C7.34273 187.682 6.78809 189.146 6.78809 190.669C6.78809 194.176 9.43867 196.82 12.9532 196.82L29.5856 196.757C28.7501 197.867 28.2808 199.211 28.2808 200.539C28.2808 203.06 29.7652 205.123 32.1571 205.932C37.9045 207.941 42.2874 210.254 44.8367 212.625C45.9709 213.732 47.3717 214.293 49.0019 214.293C50.1299 214.293 51.2356 213.967 52.2089 213.37C52.0276 213.988 51.9334 214.634 51.9334 215.29C51.9334 217.686 52.9822 219.515 55.0506 220.727C57.2043 221.988 60.5936 222.576 65.7179 222.576C71.9257 222.576 76.5291 220.746 79.401 217.138C81.4303 214.587 82.4596 211.294 82.4596 207.348V206.838L82.232 199.691V196.629L102.53 196.821H102.564C104.371 196.821 106.006 196.1 107.169 194.791C108.175 193.658 108.73 192.194 108.73 190.67C108.733 187.161 106.082 184.516 102.567 184.516ZM50.913 166.526V169.983C46.0953 169.952 41.3657 169.864 36.5659 169.768H36.5552C34.1019 169.726 33.8068 169.142 33.6806 168.893C33.4175 168.371 33.2753 167.505 33.198 166.526H50.913ZM33.2664 155.131C33.3624 154.387 33.5144 153.761 33.7517 153.336C33.8904 153.089 34.2584 152.432 36.7098 152.342C40.9364 152.251 45.7718 152.234 50.913 152.23V155.131H33.2664Z" fill="#00C9EB"/>
<path d="M68.8202 148.575V145.675C73.9143 145.678 78.9924 145.695 83.3834 145.786C85.5842 145.838 86.2588 146.259 86.4135 146.388C86.7201 146.642 86.8206 147.489 86.8535 147.928C86.8544 148.138 86.8588 148.354 86.865 148.575H68.8202ZM86.9121 159.97C86.8526 161.089 86.7308 161.991 86.4766 162.486C86.1602 163.101 84.226 163.199 83.4092 163.212H83.3985C79.123 163.295 73.997 163.392 68.8211 163.427V159.97H86.9121ZM58.3966 195.516L58.3788 195.501C56.6286 193.993 52.755 191.995 49.7133 190.627C49.3435 190.461 48.9826 190.302 48.6306 190.149L74.7987 190.051V199.77C74.7987 200.59 74.701 202.053 74.0494 202.622C73.5757 203.035 72.5579 203.263 71.1846 203.263C69.5358 203.263 67.4176 202.985 64.8879 202.437L64.5155 202.356H64.4479C64.2097 202.304 63.8613 202.242 63.4515 202.242C62.408 202.242 61.3982 202.516 60.5076 203.021C60.7396 202.308 60.8605 201.556 60.8605 200.792C60.8605 198.747 60.0081 196.923 58.3966 195.516ZM107.916 177.961H87.5841V174.454C90.5974 173.96 93.1911 172.808 95.1884 171.061C97.6638 168.896 99.1607 165.843 99.4024 162.467L99.4051 162.423C99.4922 160.943 99.6389 157.99 99.6389 154.84C99.6389 150.874 99.4771 147.054 99.4069 145.595L99.4042 145.542C99.2247 142.678 97.7527 139.87 95.3652 137.836C92.7982 135.65 89.3725 134.459 85.4606 134.394C79.8466 134.295 74.3392 134.205 68.9331 134.176V132.523L103.128 132.626H103.138C106.653 132.626 109.303 129.982 109.303 126.475C109.303 124.921 108.724 123.451 107.672 122.335C106.52 121.112 104.911 120.438 103.137 120.438L68.9314 120.541V116.264C68.9314 112.693 66.183 110 62.5387 110C60.9787 110 59.4801 110.537 58.3192 111.514C56.9175 112.691 56.146 114.378 56.146 116.265V120.542L22.747 120.439H22.7363C20.9639 120.439 19.3533 121.113 18.2013 122.336C17.1498 123.452 16.5703 124.923 16.5703 126.477C16.5703 129.983 19.2209 132.628 22.7354 132.628L56.1451 132.525V134.177C50.5915 134.207 45.3143 134.302 40.7509 134.394C36.4248 134.464 32.9271 135.599 30.353 137.769C27.833 139.893 26.3735 142.888 26.1318 146.431L26.13 146.464C26.01 148.496 26.01 151.358 26.01 154.387C26.01 157.272 26.01 160.256 26.1282 162.614C26.2935 166.178 27.7824 169.198 30.4356 171.347C33.0311 173.45 36.5643 174.585 40.9384 174.719C48.5498 174.949 56.0251 175.061 63.7902 175.061C67.3376 175.061 70.9482 175.029 74.6832 174.964V178.068L18.3018 177.962C16.4947 177.962 14.8592 178.683 13.6966 179.992C12.6904 181.125 12.1357 182.589 12.1357 184.113C12.1357 187.619 14.7863 190.263 18.3009 190.263L34.9333 190.2C34.0977 191.311 33.6284 192.654 33.6284 193.983C33.6284 196.503 35.1128 198.567 37.5048 199.375C43.2521 201.384 47.6351 203.698 50.1844 206.068C51.3186 207.175 52.7194 207.736 54.3496 207.736C55.4775 207.736 56.5833 207.411 57.5566 206.813C57.3753 207.431 57.281 208.078 57.281 208.733C57.281 211.129 58.3299 212.959 60.3983 214.17C62.552 215.431 65.9412 216.019 71.0655 216.019C77.2733 216.019 81.8767 214.19 84.7487 210.581C86.7779 208.031 87.8072 204.737 87.8072 200.792V200.282L87.5797 193.134V190.072L107.878 190.264H107.912C109.719 190.264 111.354 189.543 112.517 188.234C113.523 187.101 114.078 185.637 114.078 184.113C114.082 180.605 111.431 177.961 107.916 177.961ZM56.2624 159.97V163.427C51.4448 163.396 46.7151 163.308 41.9153 163.212H41.9046C39.4514 163.171 39.1563 162.586 39.03 162.337C38.7669 161.815 38.6247 160.949 38.5474 159.97H56.2624ZM38.6158 148.575C38.7118 147.831 38.8638 147.205 39.1011 146.78C39.2398 146.533 39.6078 145.876 42.0593 145.786C46.2858 145.695 51.1212 145.678 56.2624 145.675V148.575H38.6158Z" stroke="black" stroke-width="5" stroke-miterlimit="10"/>
<path d="M66.999 151.636V148.735C72.093 148.739 77.1711 148.755 81.5621 148.847C83.7629 148.898 84.4375 149.319 84.5922 149.448C84.8989 149.703 84.9993 150.549 85.0322 150.988C85.0331 151.199 85.0375 151.414 85.0437 151.636H66.999ZM85.0909 163.03C85.0313 164.15 84.9095 165.051 84.6553 165.546C84.3389 166.162 82.4047 166.259 81.5879 166.273H81.5772C77.3018 166.355 72.1757 166.453 66.9998 166.487V163.03H85.0909ZM56.5753 198.576L56.5575 198.561C54.8073 197.054 50.9337 195.055 47.892 193.687C47.5222 193.522 47.1613 193.362 46.8093 193.209L72.9774 193.111V202.83C72.9774 203.651 72.8797 205.113 72.2281 205.682C71.7544 206.096 70.7366 206.324 69.3633 206.324C67.7145 206.324 65.5963 206.045 63.0666 205.497L62.6942 205.416H62.6267C62.3884 205.364 62.04 205.303 61.6302 205.303C60.5867 205.303 59.577 205.576 58.6863 206.082C58.9183 205.369 59.0392 204.617 59.0392 203.852C59.0392 201.807 58.1868 199.983 56.5753 198.576ZM106.095 181.021H85.7628V177.515C88.7761 177.021 91.3698 175.869 93.3671 174.122C95.8425 171.956 97.3394 168.904 97.5812 165.528L97.5838 165.483C97.6709 164.003 97.8176 161.05 97.8176 157.9C97.8176 153.934 97.6558 150.114 97.5856 148.655L97.5829 148.603C97.4034 145.739 95.9314 142.93 93.5439 140.897C90.9769 138.711 87.5512 137.52 83.6393 137.454C78.0253 137.355 72.5179 137.266 67.1118 137.237V135.584L101.306 135.687H101.317C104.832 135.687 107.482 133.042 107.482 129.536C107.482 127.982 106.903 126.512 105.851 125.395C104.699 124.172 103.089 123.498 101.316 123.498L67.1101 123.601V119.325C67.1101 115.754 64.3617 113.06 60.7174 113.06C59.1574 113.06 57.6588 113.598 56.4979 114.574C55.0962 115.752 54.3247 117.439 54.3247 119.326V123.602L20.9257 123.499H20.915C19.1426 123.499 17.532 124.173 16.38 125.396C15.3285 126.512 14.749 127.984 14.749 129.537C14.749 133.044 17.3996 135.688 20.9141 135.688L54.3238 135.585V137.238C48.7702 137.268 43.493 137.363 38.9296 137.455C34.6035 137.524 31.1058 138.659 28.5317 140.829C26.0118 142.953 24.5522 145.949 24.3105 149.491L24.3087 149.524C24.1887 151.557 24.1887 154.419 24.1887 157.447C24.1887 160.333 24.1887 163.317 24.3069 165.674C24.4723 169.238 25.9611 172.259 28.6143 174.407C31.2098 176.511 34.7431 177.645 39.1171 177.779C46.7285 178.01 54.2038 178.121 61.9689 178.121C65.5163 178.121 69.1269 178.089 72.8619 178.025V181.128L16.4805 181.022C14.6734 181.022 13.0379 181.743 11.8753 183.052C10.8691 184.185 10.3145 185.649 10.3145 187.173C10.3145 190.679 12.965 193.324 16.4796 193.324L33.112 193.261C32.2765 194.371 31.8071 195.715 31.8071 197.043C31.8071 199.563 33.2915 201.627 35.6835 202.436C41.4308 204.444 45.8138 206.758 48.3631 209.129C49.4973 210.235 50.8981 210.797 52.5283 210.797C53.6563 210.797 54.762 210.471 55.7353 209.874C55.554 210.492 55.4598 211.138 55.4598 211.793C55.4598 214.19 56.5086 216.019 58.577 217.231C60.7307 218.492 64.1199 219.08 69.2442 219.08C75.452 219.08 80.0554 217.25 82.9274 213.642C84.9566 211.091 85.9859 207.798 85.9859 203.852V203.342L85.7584 196.194V193.132L106.056 193.325H106.09C107.897 193.325 109.533 192.604 110.695 191.295C111.702 190.162 112.256 188.697 112.256 187.174C112.261 183.666 109.61 181.021 106.095 181.021ZM54.4411 163.03V166.487C49.6235 166.456 44.8939 166.368 40.094 166.273H40.0833C37.6301 166.231 37.335 165.647 37.2088 165.397C36.9457 164.876 36.8034 164.009 36.7261 163.03H54.4411ZM36.7945 151.636C36.8905 150.892 37.0425 150.266 37.2799 149.841C37.4185 149.593 37.7865 148.936 40.238 148.847C44.4645 148.755 49.2999 148.739 54.4411 148.735V151.636H36.7945Z" stroke="white" stroke-width="5" stroke-miterlimit="10"/>
<path d="M180.323 271.82C180.323 269.418 178.951 267.238 176.654 265.987L176.493 265.905C169.493 262.546 163.148 258.346 157.586 253.396C161.979 248.986 167.626 242.639 170.578 238.46L170.595 238.436C172.029 236.37 172.818 233.961 172.818 231.654C172.818 228.99 171.747 226.615 169.803 224.969C167.821 223.29 165.078 222.44 161.65 222.44H143.227C141.425 222.44 139.856 223.147 138.767 224.313C138.669 224.404 138.575 224.498 138.484 224.595C138.387 224.686 138.292 224.78 138.201 224.877C138.104 224.968 138.009 225.062 137.919 225.159C137.908 225.169 137.898 225.179 137.888 225.189C137.661 224.625 137.439 224.06 137.225 223.49L137.198 223.419C136.255 221.066 134.121 219.603 131.627 219.603C130.112 219.603 128.574 220.166 127.407 221.145C127.221 221.301 127.047 221.467 126.884 221.64C126.786 221.732 126.692 221.826 126.601 221.922C126.503 222.014 126.41 222.108 126.318 222.204C126.22 222.296 126.127 222.39 126.036 222.487C125.938 222.578 125.844 222.672 125.753 222.769C125.655 222.86 125.562 222.954 125.47 223.051C125.372 223.142 125.279 223.236 125.188 223.333C125.09 223.424 124.997 223.518 124.905 223.615C124.807 223.706 124.714 223.8 124.622 223.897C124.525 223.988 124.43 224.082 124.34 224.179C124.242 224.27 124.149 224.364 124.057 224.461C123.959 224.552 123.866 224.646 123.774 224.743C123.677 224.834 123.583 224.928 123.492 225.025C123.472 225.043 123.453 225.062 123.434 225.08C121.892 224.534 120.107 224.258 118.091 224.258H117.863C115.863 224.258 113.828 224.286 111.745 224.328C112.388 222.993 112.543 222.173 112.543 221.333C112.543 219.638 111.815 217.959 110.546 216.726C109.314 215.529 107.671 214.841 106.036 214.841C104.294 214.841 102.706 215.566 101.537 216.802C101.44 216.893 101.346 216.987 101.254 217.084C101.157 217.175 101.063 217.269 100.971 217.366C100.875 217.457 100.78 217.551 100.689 217.648C100.592 217.739 100.498 217.833 100.406 217.93C100.309 218.021 100.215 218.115 100.123 218.212C100.027 218.303 99.9324 218.397 99.8408 218.494C99.7439 218.585 99.6497 218.679 99.5582 218.776C99.4613 218.867 99.3671 218.961 99.2755 219.058C99.1786 219.149 99.0844 219.243 98.9929 219.34C98.896 219.431 98.8017 219.525 98.7102 219.622C98.6133 219.713 98.5191 219.807 98.4275 219.904C98.3306 219.995 98.2364 220.089 98.1449 220.186C98.048 220.277 97.9538 220.371 97.8622 220.468C97.7653 220.559 97.6711 220.653 97.5796 220.75C97.4827 220.841 97.3885 220.935 97.2969 221.032C97.2 221.123 97.1058 221.217 97.0142 221.314C96.9174 221.405 96.8231 221.499 96.7316 221.596C96.6347 221.687 96.5405 221.781 96.4489 221.878C96.352 221.969 96.2578 222.063 96.1663 222.16C96.0694 222.251 95.9752 222.345 95.8836 222.442C95.7867 222.533 95.6925 222.627 95.6009 222.724C95.5574 222.765 95.5147 222.807 95.473 222.848C94.8001 223.435 94.2392 224.172 93.8348 225.034C91.0633 230.556 87.7203 235.684 83.8973 240.278C83.5 240.755 83.0991 241.222 82.6956 241.683C81.356 242.838 79.9952 243.908 78.6157 244.886L78.5419 244.941C78.1659 245.222 77.8264 245.523 77.5233 245.842C77.4255 245.935 77.3313 246.029 77.2406 246.124C77.1429 246.217 77.0486 246.311 76.958 246.406C76.8602 246.499 76.766 246.593 76.6753 246.688C76.5775 246.781 76.4833 246.875 76.3926 246.97C76.2949 247.063 76.2007 247.157 76.11 247.252C76.0122 247.345 75.918 247.439 75.8273 247.534C75.7295 247.627 75.6353 247.721 75.5447 247.816C75.4469 247.909 75.3527 248.003 75.262 248.098C75.1642 248.191 75.07 248.285 74.9793 248.38C74.8816 248.473 74.7874 248.567 74.6967 248.662C74.5989 248.755 74.5047 248.849 74.414 248.944C74.3163 249.037 74.2221 249.131 74.1314 249.227C74.0336 249.319 73.9394 249.413 73.8487 249.509C73.7509 249.601 73.6567 249.695 73.5661 249.791C73.4683 249.883 73.3741 249.977 73.2834 250.073C73.1856 250.165 73.0914 250.259 73.0007 250.355C72.903 250.447 72.8088 250.541 72.7181 250.637C72.6203 250.729 72.527 250.823 72.4354 250.919C72.3377 251.011 72.2443 251.105 72.1528 251.201C72.055 251.293 71.9608 251.387 71.8701 251.483C71.7723 251.575 71.6781 251.669 71.5875 251.765C71.4897 251.857 71.3955 251.951 71.3048 252.047C69.9768 253.304 69.256 254.868 69.256 256.529C69.256 259.984 72.1234 262.794 75.6487 262.794C77.0184 262.794 78.4895 262.237 80.3179 261.01C80.5525 263.344 82.0991 265.237 84.3924 265.93C85.539 266.283 86.9337 266.814 88.4163 267.453C85.3355 269.237 82.1667 270.686 78.9712 271.764C77.8388 272.142 76.8744 272.762 76.1331 273.548C76.0353 273.64 75.9411 273.734 75.8504 273.83C75.7527 273.922 75.6584 274.016 75.5678 274.112C75.47 274.204 75.3758 274.298 75.2851 274.394C75.1874 274.486 75.0931 274.58 75.0025 274.676C74.9047 274.768 74.8105 274.862 74.7198 274.958C74.622 275.05 74.5278 275.144 74.4372 275.24C74.3394 275.332 74.2452 275.426 74.1545 275.522C74.0567 275.614 73.9625 275.708 73.8718 275.804C73.7741 275.896 73.6798 275.99 73.5892 276.086C73.4914 276.178 73.3972 276.272 73.3065 276.368C73.2087 276.46 73.1145 276.554 73.0238 276.65C72.9261 276.742 72.8319 276.836 72.7412 276.932C72.6434 277.024 72.5492 277.118 72.4585 277.214C72.3608 277.306 72.2666 277.4 72.1759 277.496C72.0781 277.588 71.9839 277.682 71.8932 277.778C71.7954 277.87 71.7012 277.964 71.6106 278.06C71.5128 278.152 71.4186 278.246 71.3279 278.342C71.2301 278.434 71.1359 278.528 71.0452 278.624C70.9475 278.716 70.8533 278.81 70.7626 278.906C70.6648 278.998 70.5706 279.092 70.4799 279.188C70.3822 279.28 70.2879 279.374 70.1973 279.47C70.0995 279.562 70.0053 279.656 69.9146 279.752C68.7066 280.884 68 282.422 68 284.104C68 287.558 70.8675 290.368 74.3927 290.368C75.1225 290.368 75.7242 290.21 76.1642 290.094C76.2362 290.076 76.3118 290.055 76.3909 290.036L76.5446 289.998L76.6949 289.945C79.9019 288.834 83.0733 287.418 86.1879 285.708C86.3888 286.785 86.8697 287.797 87.5896 288.635C88.7381 289.973 90.3522 290.709 92.1326 290.709L99.3537 290.679C99.264 290.764 99.1786 290.851 99.0968 290.937C98.9973 291.03 98.904 291.124 98.8142 291.219C98.7146 291.312 98.6213 291.406 98.5315 291.501C98.432 291.594 98.3386 291.688 98.2489 291.783C98.1493 291.876 98.056 291.97 97.9662 292.065C97.8916 292.135 97.8196 292.206 97.7502 292.277C97.4089 292.587 97.1271 292.915 96.8978 293.228C96.76 293.409 96.6196 293.589 96.4774 293.769C92.8446 296.653 88.6661 299.04 84.4173 300.63L84.3897 300.64C83.3115 301.054 82.4067 301.655 81.708 302.395C81.6103 302.487 81.516 302.581 81.4254 302.677C81.3276 302.769 81.2334 302.863 81.1427 302.959C81.0449 303.051 80.9507 303.145 80.8601 303.241C80.7623 303.333 80.6681 303.427 80.5774 303.523C80.4796 303.615 80.3854 303.709 80.2947 303.805C80.197 303.897 80.1028 303.991 80.0121 304.087C79.9143 304.179 79.8201 304.273 79.7294 304.369C79.6317 304.461 79.5374 304.555 79.4468 304.651C79.349 304.743 79.2548 304.837 79.1641 304.933C79.0663 305.025 78.9721 305.119 78.8815 305.215C78.7837 305.307 78.6895 305.401 78.5988 305.497C78.501 305.589 78.4068 305.683 78.3161 305.779C78.2184 305.871 78.1241 305.965 78.0335 306.061C77.9357 306.153 77.8415 306.247 77.7508 306.343C77.6531 306.435 77.5588 306.529 77.4682 306.625C77.3704 306.717 77.2762 306.811 77.1855 306.907C77.0877 306.999 76.9935 307.093 76.9029 307.189C76.8051 307.281 76.7109 307.375 76.6202 307.471C76.5224 307.563 76.4282 307.657 76.3375 307.753C76.2398 307.845 76.1455 307.939 76.0549 308.035C75.9571 308.127 75.8629 308.221 75.7722 308.317C75.6745 308.409 75.5802 308.503 75.4896 308.599C74.2567 309.753 73.5661 311.3 73.5661 313.041C73.5661 314.746 74.2709 316.443 75.4993 317.7C76.7997 319.028 78.5446 319.76 80.4139 319.76C81.6707 319.76 83.86 319.466 88.3381 316.929C90.9406 315.455 93.9832 313.395 96.9067 311.129C99.4977 309.121 101.891 307.031 103.744 305.165C103.839 305.071 103.934 304.976 104.026 304.883C104.122 304.789 104.217 304.695 104.309 304.601C104.404 304.507 104.498 304.413 104.591 304.32C104.686 304.225 104.781 304.131 104.874 304.038C104.969 303.943 105.064 303.849 105.156 303.756C105.251 303.662 105.346 303.568 105.438 303.474C105.533 303.38 105.628 303.286 105.721 303.192C105.816 303.098 105.911 303.004 106.003 302.91C106.098 302.816 106.193 302.722 106.285 302.629C106.38 302.534 106.475 302.44 106.568 302.347C106.663 302.252 106.758 302.158 106.85 302.065C106.945 301.971 107.04 301.877 107.132 301.784C107.227 301.69 107.322 301.596 107.415 301.502C107.51 301.408 107.604 301.314 107.697 301.221C107.792 301.126 107.887 301.032 107.979 300.939C108.074 300.845 108.169 300.751 108.262 300.657C108.357 300.562 108.452 300.468 108.545 300.375C108.64 300.281 108.734 300.187 108.826 300.094C108.921 300 109.017 299.906 109.109 299.812C109.204 299.718 109.298 299.624 109.391 299.531C109.486 299.436 109.581 299.342 109.673 299.249C109.769 299.155 109.864 299.061 109.956 298.967C110.287 298.64 110.603 298.318 110.9 298.005C113.71 295.043 114.909 292.92 114.909 290.904C114.909 290.81 114.905 290.715 114.901 290.621L115.983 290.617V305.084C114.599 304.957 113.062 304.697 111.387 304.305C110.611 304.04 109.911 304.04 109.538 304.04C107.798 304.04 106.214 304.724 105.042 305.974C104.945 306.064 104.85 306.158 104.759 306.256C104.662 306.346 104.568 306.44 104.476 306.538C104.379 306.628 104.285 306.722 104.194 306.82C104.097 306.91 104.002 307.004 103.911 307.102C103.814 307.192 103.72 307.286 103.628 307.384C103.531 307.474 103.437 307.568 103.346 307.666C103.249 307.756 103.155 307.85 103.063 307.948C102.966 308.038 102.872 308.132 102.78 308.23C102.683 308.32 102.589 308.414 102.498 308.512C102.401 308.602 102.307 308.696 102.215 308.794C102.118 308.884 102.024 308.978 101.932 309.076C101.835 309.166 101.741 309.26 101.65 309.358C101.553 309.448 101.459 309.542 101.367 309.64C101.27 309.73 101.176 309.824 101.084 309.922C100.987 310.012 100.893 310.106 100.802 310.204C100.705 310.294 100.611 310.388 100.519 310.486C100.422 310.576 100.328 310.67 100.236 310.768C100.139 310.858 100.045 310.952 99.9537 311.05C99.8568 311.14 99.7626 311.234 99.671 311.332C99.5742 311.422 99.4799 311.516 99.3884 311.614C99.2915 311.704 99.1973 311.798 99.1057 311.896C99.0089 311.986 98.9146 312.08 98.8231 312.178C98.6489 312.342 98.4818 312.516 98.3235 312.703C97.3147 313.893 96.7591 315.425 96.7591 317.019C96.7591 318.682 97.3858 321.705 101.582 323.249C103.749 324.046 106.777 324.417 111.112 324.417C117.186 324.417 121.846 322.793 124.973 319.587C125.069 319.495 125.163 319.401 125.256 319.305C125.352 319.213 125.445 319.119 125.539 319.023C125.635 318.931 125.728 318.837 125.821 318.741C125.917 318.649 126.011 318.555 126.104 318.459C126.2 318.367 126.293 318.273 126.387 318.177C126.483 318.085 126.576 317.991 126.669 317.895C126.765 317.803 126.859 317.709 126.952 317.613C127.048 317.521 127.141 317.427 127.235 317.331C127.33 317.239 127.424 317.145 127.517 317.049C127.613 316.957 127.707 316.863 127.8 316.767C127.896 316.675 127.989 316.581 128.083 316.485C128.179 316.393 128.272 316.299 128.365 316.203C128.461 316.111 128.555 316.017 128.648 315.921C128.744 315.829 128.837 315.735 128.931 315.639C129.027 315.547 129.12 315.453 129.213 315.357C129.309 315.265 129.403 315.171 129.496 315.075C129.592 314.983 129.685 314.889 129.779 314.793C129.874 314.701 129.968 314.607 130.061 314.511C130.157 314.419 130.251 314.325 130.344 314.229C130.44 314.137 130.533 314.043 130.627 313.947C130.723 313.855 130.816 313.761 130.909 313.665C131.005 313.573 131.099 313.479 131.192 313.383C131.407 313.174 131.616 312.96 131.817 312.738C134.044 310.282 135.327 307.009 135.565 303.214C144.194 307.261 150.357 311.571 154.4 316.388C155.672 318.028 157.548 318.967 159.563 318.967C161.406 318.967 163.135 318.124 164.394 316.805C164.491 316.714 164.585 316.62 164.677 316.523C164.774 316.432 164.867 316.338 164.96 316.241C165.057 316.15 165.15 316.056 165.242 315.959C165.339 315.868 165.433 315.774 165.525 315.677C165.622 315.586 165.715 315.492 165.808 315.395C165.905 315.304 165.998 315.21 166.09 315.113C166.187 315.022 166.281 314.928 166.373 314.831C166.47 314.74 166.563 314.646 166.656 314.549C166.753 314.458 166.846 314.364 166.938 314.267C167.035 314.176 167.129 314.082 167.221 313.985C167.318 313.894 167.411 313.8 167.504 313.703C167.601 313.612 167.694 313.518 167.786 313.421C167.883 313.33 167.977 313.236 168.069 313.139C168.166 313.048 168.259 312.954 168.352 312.857C168.449 312.766 168.542 312.672 168.634 312.575C168.731 312.484 168.825 312.39 168.917 312.293C169.014 312.202 169.107 312.108 169.2 312.011C169.296 311.92 169.39 311.826 169.482 311.729C169.579 311.638 169.672 311.544 169.765 311.447C169.862 311.356 169.955 311.262 170.048 311.165C170.144 311.074 170.238 310.98 170.33 310.883C170.427 310.792 170.52 310.698 170.613 310.601C172.008 309.289 172.911 307.421 172.911 305.423C172.911 303.043 171.436 300.628 168.267 297.818C165.673 295.52 162.332 293.309 159.987 291.86C159.153 291.345 158.299 290.835 157.437 290.337C158.248 290.03 158.963 289.544 159.547 288.918C159.643 288.828 159.739 288.734 159.829 288.636C159.926 288.546 160.021 288.452 160.112 288.354C160.209 288.264 160.303 288.17 160.395 288.072C160.491 287.982 160.587 287.888 160.677 287.79C160.774 287.7 160.869 287.606 160.96 287.508C161.057 287.418 161.152 287.324 161.243 287.226C161.339 287.136 161.435 287.042 161.525 286.944C161.622 286.854 161.717 286.76 161.808 286.662C161.905 286.572 162 286.478 162.09 286.38C162.187 286.29 162.283 286.196 162.373 286.098C162.47 286.008 162.565 285.914 162.656 285.816C162.753 285.726 162.847 285.632 162.938 285.534C163.035 285.444 163.13 285.35 163.221 285.252C163.318 285.162 163.413 285.068 163.504 284.97C163.601 284.88 163.696 284.786 163.786 284.688C163.811 284.665 163.836 284.642 163.861 284.618C164.875 285.046 165.84 285.262 166.735 285.262C168.657 285.262 170.457 284.506 171.803 283.133C171.829 283.107 171.853 283.08 171.878 283.053C171.948 282.986 172.017 282.92 172.086 282.851C172.112 282.825 172.136 282.798 172.16 282.771C172.231 282.704 172.3 282.638 172.368 282.569C172.394 282.543 172.418 282.516 172.443 282.489C172.513 282.422 172.584 282.356 172.651 282.287C172.677 282.261 172.701 282.234 172.726 282.207C172.796 282.14 172.865 282.074 172.934 282.005C172.959 281.979 172.984 281.952 173.008 281.925C173.079 281.858 173.148 281.792 173.216 281.723C173.242 281.697 173.266 281.67 173.291 281.643C173.361 281.576 173.431 281.51 173.499 281.441C173.525 281.415 173.549 281.388 173.574 281.361C173.644 281.294 173.713 281.228 173.782 281.159C173.807 281.133 173.831 281.106 173.856 281.079C173.927 281.012 173.996 280.946 174.064 280.877C174.09 280.851 174.114 280.824 174.139 280.797C174.209 280.73 174.279 280.664 174.347 280.595C174.373 280.569 174.397 280.542 174.422 280.515C174.492 280.448 174.562 280.382 174.63 280.313C174.655 280.287 174.679 280.26 174.704 280.233C174.775 280.166 174.845 280.1 174.912 280.031C174.938 280.005 174.962 279.978 174.987 279.951C175.057 279.884 175.127 279.818 175.195 279.749C175.221 279.723 175.245 279.696 175.27 279.669C175.34 279.602 175.41 279.536 175.478 279.467C175.503 279.441 175.527 279.414 175.552 279.387C175.623 279.32 175.692 279.254 175.76 279.185C175.786 279.159 175.81 279.132 175.835 279.105C175.905 279.038 175.975 278.972 176.043 278.903C176.069 278.877 176.093 278.85 176.118 278.823C176.188 278.756 176.258 278.69 176.326 278.621C176.351 278.595 176.375 278.568 176.4 278.541C176.471 278.474 176.54 278.408 176.608 278.339C176.634 278.313 176.658 278.286 176.683 278.259C176.753 278.192 176.822 278.126 176.891 278.057C176.917 278.031 176.941 278.004 176.966 277.977C177.036 277.91 177.105 277.844 177.174 277.775C177.199 277.749 177.223 277.722 177.248 277.695C177.318 277.628 177.388 277.562 177.456 277.493C177.482 277.467 177.506 277.439 177.531 277.413C177.601 277.346 177.671 277.28 177.739 277.211C177.765 277.185 177.789 277.157 177.814 277.131C177.884 277.064 177.953 276.998 178.022 276.929C178.047 276.903 178.071 276.875 178.096 276.849C178.166 276.782 178.236 276.716 178.304 276.647C179.591 275.335 180.323 273.579 180.323 271.82ZM135.516 291.637V290.618L136.531 290.621C136.477 290.674 136.425 290.728 136.372 290.783C136.275 290.874 136.181 290.969 136.09 291.065C135.993 291.156 135.898 291.251 135.807 291.347C135.71 291.438 135.616 291.533 135.524 291.629C135.522 291.632 135.52 291.635 135.516 291.637ZM127.999 251.816C128.856 253.125 129.747 254.415 130.668 255.685H119.004C121.246 252.678 123.245 249.618 124.893 246.719C125.797 248.316 126.828 250.026 127.999 251.816ZM151.311 240.896C150.742 241.677 149.941 242.706 148.815 244.04C148.012 243.021 147.236 241.984 146.488 240.93L151.311 240.896ZM144.005 271.909C144.006 271.908 144.006 271.908 144.007 271.908C144.103 271.818 144.198 271.723 144.289 271.626C144.386 271.535 144.48 271.441 144.572 271.344C144.621 271.298 144.67 271.253 144.718 271.205C144.982 271.44 145.246 271.676 145.512 271.908H144.005V271.909Z" fill="#580077"/>
<path d="M111.206 297.7C114.016 294.739 115.215 292.616 115.215 290.6C115.215 288.847 114.455 287.121 113.131 285.864C111.879 284.677 110.226 283.995 108.595 283.995C106.035 283.995 104.521 285.318 103.695 286.45C99.1711 292.389 92.0798 297.577 84.7182 300.332L84.6907 300.342C81.9841 301.381 80.3682 303.592 80.3682 306.257C80.3682 307.962 81.073 309.659 82.3014 310.916C83.6018 312.244 85.3467 312.976 87.216 312.976C88.4728 312.976 90.6621 312.682 95.1402 310.145C97.7427 308.671 100.785 306.611 103.709 304.345C106.619 302.088 109.282 299.729 111.206 297.7Z" fill="#00C9EB"/>
<path d="M149.391 244.131C146.877 240.979 144.626 237.656 142.647 234.179C142.927 234.215 143.214 234.234 143.507 234.234L158.088 234.132C157.247 235.288 155.899 236.981 153.743 239.412C152.261 241.085 150.712 242.747 149.391 244.131ZM129.638 236.153C130.918 238.697 132.612 241.744 134.777 245.053C137.136 248.658 139.749 252.12 142.59 255.403H119.287C124.537 248.359 128.466 241.02 129.638 236.153ZM176.935 265.706L176.774 265.624C169.774 262.264 163.429 258.065 157.867 253.115C162.261 248.705 167.908 242.358 170.859 238.179L170.876 238.155C172.31 236.088 173.099 233.68 173.099 231.373C173.099 228.709 172.028 226.334 170.084 224.688C168.102 223.009 165.359 222.158 161.931 222.158H143.508C141.203 222.158 139.276 223.317 138.252 225.113C137.995 224.482 137.747 223.848 137.507 223.208L137.479 223.137C136.536 220.784 134.402 219.321 131.909 219.321C130.393 219.321 128.855 219.884 127.688 220.863C126.307 222.023 125.515 223.703 125.515 225.472C125.515 225.52 125.515 225.567 125.516 225.616C123.624 224.525 121.23 223.973 118.375 223.973H118.147C116.146 223.973 114.112 224 112.029 224.043C112.672 222.707 112.827 221.887 112.827 221.047C112.827 219.353 112.099 217.674 110.83 216.44C109.598 215.243 107.955 214.556 106.32 214.556C103.87 214.556 101.693 215.975 100.619 218.264C97.8475 223.785 94.5045 228.913 90.6815 233.507C86.99 237.943 83.0275 241.674 78.904 244.596L78.8303 244.651C77.0348 245.994 76.0454 247.807 76.0454 249.753C76.0454 253.207 78.9129 256.018 82.4382 256.018C83.8079 256.018 85.279 255.461 87.1074 254.234C87.342 256.568 88.8886 258.461 91.1819 259.153C92.7614 259.639 94.8093 260.464 96.9133 261.443C91.413 265.974 85.3883 269.405 79.264 271.469C76.5486 272.374 74.7939 274.672 74.7939 277.324C74.7939 280.778 77.6614 283.589 81.1866 283.589C81.9164 283.589 82.5181 283.43 82.9581 283.315C83.0301 283.296 83.1057 283.276 83.1848 283.256L83.3386 283.218L83.4888 283.166C86.6958 282.054 89.8673 280.638 92.9818 278.928C93.1827 280.005 93.6636 281.017 94.3836 281.856C95.532 283.193 97.1462 283.929 98.9265 283.929L122.784 283.831V300.356C122.784 301.558 122.616 303.153 121.817 303.925C121.009 304.706 119.374 304.87 118.146 304.87C116.329 304.87 114.158 304.578 111.692 304C110.916 303.736 110.216 303.736 109.844 303.736C107.994 303.736 106.319 304.509 105.129 305.912C104.12 307.102 103.565 308.635 103.565 310.228C103.565 311.892 104.191 314.914 108.388 316.458C110.555 317.256 113.583 317.627 117.918 317.627C124.217 317.627 128.997 315.88 132.121 312.434C134.6 309.701 135.91 305.956 135.91 301.605V301.265L135.797 292.732V283.83L162.142 283.93H162.155C165.475 283.93 167.979 281.286 167.979 277.779C167.979 277.268 167.928 276.777 167.832 276.311C168.506 276.705 169.184 277.092 169.868 277.471L170.005 277.544C171.257 278.168 172.442 278.485 173.526 278.485C175.449 278.485 177.249 277.729 178.594 276.356C179.87 275.055 180.601 273.299 180.601 271.54C180.605 269.137 179.233 266.957 176.935 265.706ZM114.736 267.478H146.009C147.841 267.478 149.447 266.722 150.531 265.348C150.806 265 151.041 264.617 151.231 264.209C154.173 266.854 157.284 269.331 160.545 271.626H103.794C106.064 269.79 108.268 267.806 110.394 265.685C111.486 266.798 113.017 267.478 114.736 267.478ZM104.535 235.8C104.539 235.796 104.542 235.79 104.546 235.785C106.229 235.755 108.02 235.735 109.768 235.715C112.291 235.687 114.683 235.659 116.356 235.605C116.03 236.526 115.458 237.919 114.475 239.832C113.135 239.144 111.687 238.455 110.263 237.832C107.292 236.529 105.564 236.009 104.535 235.8ZM97.5213 244.488C98.2155 245.986 99.5301 247.119 101.246 247.599C102.93 248.099 105.289 248.977 107.769 250.167C107.21 250.902 106.661 251.596 106.121 252.254C103.901 251.076 101.64 250.085 100.255 249.508C97.3559 248.299 95.6884 247.766 94.6991 247.532C95.636 246.563 96.5817 245.541 97.5213 244.488Z" fill="#00C9EB"/>
<path d="M168.568 297.518C165.974 295.219 162.633 293.008 160.287 291.559C157.472 289.82 154.418 288.134 151.687 286.811C147.046 284.562 145.808 284.562 145.213 284.562C141.688 284.562 138.82 287.475 138.82 291.054C138.82 293.349 140.211 295.453 142.366 296.428C150.996 300.475 157.159 304.786 161.204 309.603C162.476 311.243 164.351 312.182 166.366 312.182C170.014 312.182 173.214 308.883 173.214 305.123C173.213 302.743 171.737 300.327 168.568 297.518Z" fill="#00C9EB"/>
<path d="M116.557 291.145C119.367 288.183 120.566 286.06 120.566 284.044C120.566 282.291 119.806 280.565 118.481 279.308C117.23 278.12 115.577 277.438 113.945 277.438C111.386 277.438 109.872 278.761 109.046 279.893C104.522 285.833 97.4304 291.021 90.0689 293.775L90.0413 293.786C87.3347 294.824 85.7188 297.036 85.7188 299.701C85.7188 301.405 86.4236 303.102 87.652 304.359C88.9524 305.688 90.6973 306.419 92.5665 306.419C93.8234 306.419 96.0127 306.126 100.491 303.588C103.093 302.115 106.136 300.055 109.059 297.789C111.97 295.533 114.633 293.173 116.557 291.145Z" stroke="black" stroke-width="5" stroke-miterlimit="10"/>
<path d="M154.741 237.575C152.228 234.423 149.976 231.101 147.998 227.623C148.278 227.66 148.565 227.678 148.857 227.678L163.439 227.576C162.598 228.732 161.25 230.426 159.093 232.856C157.612 234.529 156.062 236.191 154.741 237.575ZM134.988 229.597C136.269 232.141 137.962 235.188 140.128 238.497C142.487 242.102 145.1 245.564 147.941 248.847H124.637C129.888 241.803 133.817 234.465 134.988 229.597ZM182.285 259.15L182.125 259.068C175.125 255.709 168.78 251.51 163.218 246.559C167.611 242.149 173.258 235.802 176.21 231.623L176.227 231.599C177.661 229.533 178.45 227.124 178.45 224.817C178.45 222.153 177.379 219.779 175.435 218.132C173.453 216.453 170.71 215.603 167.281 215.603H148.859C146.553 215.603 144.627 216.762 143.602 218.557C143.345 217.926 143.097 217.292 142.857 216.653L142.83 216.581C141.887 214.228 139.753 212.766 137.259 212.766C135.744 212.766 134.206 213.328 133.039 214.307C131.658 215.467 130.866 217.147 130.866 218.917C130.866 218.965 130.866 219.012 130.867 219.06C128.975 217.97 126.58 217.417 123.725 217.417H123.498C121.497 217.417 119.462 217.445 117.38 217.487C118.023 216.152 118.177 215.331 118.177 214.491C118.177 212.797 117.449 211.118 116.181 209.884C114.949 208.687 113.305 208 111.671 208C109.221 208 107.043 209.419 105.97 211.708C103.198 217.229 99.855 222.357 96.032 226.951C92.3406 231.387 88.3781 235.118 84.2546 238.041L84.1809 238.095C82.3854 239.438 81.3961 241.251 81.3961 243.198C81.3961 246.652 84.2635 249.462 87.7887 249.462C89.1585 249.462 90.6295 248.905 92.4579 247.679C92.6926 250.012 94.2392 251.905 96.5325 252.598C98.112 253.084 100.16 253.908 102.264 254.887C96.7636 259.418 90.7389 262.849 84.6146 264.914C81.8991 265.818 80.1445 268.116 80.1445 270.768C80.1445 274.223 83.012 277.033 86.5372 277.033C87.267 277.033 87.8688 276.874 88.3087 276.759C88.3807 276.74 88.4563 276.72 88.5354 276.7L88.6892 276.662L88.8394 276.61C92.0464 275.499 95.2179 274.082 98.3324 272.373C98.5333 273.449 99.0142 274.461 99.7342 275.3C100.883 276.637 102.497 277.373 104.277 277.373L128.134 277.275V293.801C128.134 295.002 127.966 296.597 127.167 297.369C126.359 298.151 124.725 298.315 123.496 298.315C121.679 298.315 119.509 298.022 117.043 297.445C116.267 297.18 115.567 297.18 115.194 297.18C113.344 297.18 111.67 297.953 110.48 299.357C109.471 300.547 108.915 302.079 108.915 303.673C108.915 305.336 109.542 308.359 113.738 309.903C115.905 310.7 118.934 311.071 123.269 311.071C129.568 311.071 134.347 309.324 137.472 305.878C139.951 303.145 141.261 299.4 141.261 295.049V294.709L141.147 286.176V277.274L167.492 277.374H167.505C170.825 277.374 173.329 274.73 173.329 271.223C173.329 270.713 173.279 270.221 173.183 269.756C173.856 270.149 174.535 270.536 175.219 270.916L175.356 270.988C176.607 271.613 177.792 271.929 178.877 271.929C180.799 271.929 182.599 271.173 183.945 269.8C185.22 268.499 185.952 266.743 185.952 264.984C185.955 262.581 184.583 260.401 182.285 259.15ZM109.886 229.244C109.889 229.24 109.893 229.235 109.897 229.229C111.579 229.199 113.371 229.179 115.119 229.159C117.641 229.131 120.033 229.103 121.707 229.049C121.381 229.971 120.809 231.363 119.825 233.276C118.486 232.589 117.038 231.9 115.615 231.276C112.642 229.973 110.914 229.453 109.886 229.244ZM102.872 237.933C103.566 239.43 104.881 240.563 106.597 241.043C108.281 241.544 110.64 242.422 113.12 243.612C112.56 244.346 112.012 245.04 111.472 245.698C109.251 244.52 106.991 243.529 105.606 242.952C102.707 241.743 101.039 241.21 100.05 240.976C100.987 240.007 101.932 238.986 102.872 237.933Z" stroke="black" stroke-width="5" stroke-miterlimit="10"/>
<path d="M164.896 267.072H108.146C110.416 265.236 112.619 263.252 114.745 261.131C115.837 262.242 117.367 262.923 119.087 262.923H150.359C152.192 262.923 153.797 262.168 154.883 260.793C155.157 260.446 155.391 260.063 155.582 259.654C158.524 262.298 161.635 264.776 164.896 267.072Z" fill="white" stroke="black" stroke-width="5" stroke-miterlimit="10"/>
<path d="M173.918 290.962C171.325 288.663 167.984 286.453 165.638 285.004C162.823 283.265 159.769 281.579 157.038 280.256C152.396 278.007 151.158 278.007 150.564 278.007C147.038 278.007 144.171 280.919 144.171 284.498C144.171 286.793 145.561 288.898 147.717 289.872C156.347 293.92 162.51 298.23 166.554 303.048C167.826 304.687 169.702 305.626 171.717 305.626C175.365 305.626 178.565 302.327 178.565 298.567C178.563 296.187 177.087 293.771 173.918 290.962Z" stroke="black" stroke-width="5" stroke-miterlimit="10"/>
<path d="M114.735 294.205C117.544 291.243 118.743 289.12 118.743 287.104C118.743 285.351 117.983 283.625 116.659 282.368C115.408 281.181 113.754 280.499 112.123 280.499C109.563 280.499 108.05 281.822 107.224 282.953C102.699 288.893 95.6081 294.081 88.2466 296.835L88.219 296.846C85.5124 297.885 83.8965 300.096 83.8965 302.761C83.8965 304.466 84.6014 306.163 85.8298 307.42C87.1302 308.748 88.875 309.48 90.7443 309.48C92.0011 309.48 94.1904 309.186 98.6685 306.649C101.271 305.175 104.314 303.115 107.237 300.849C110.147 298.593 112.81 296.233 114.735 294.205Z" stroke="white" stroke-width="5" stroke-miterlimit="10"/>
<path d="M152.92 240.636C150.406 237.484 148.155 234.161 146.176 230.684C146.456 230.72 146.743 230.739 147.036 230.739L161.618 230.637C160.777 231.792 159.428 233.486 157.272 235.917C155.79 237.589 154.241 239.251 152.92 240.636ZM133.167 232.658C134.448 235.201 136.141 238.248 138.306 241.558C140.665 245.163 143.279 248.625 146.119 251.908H122.816C128.067 244.864 131.995 237.526 133.167 232.658ZM180.464 262.211L180.303 262.128C173.303 258.769 166.959 254.57 161.396 249.62C165.79 245.21 171.437 238.863 174.389 234.683L174.406 234.659C175.839 232.593 176.629 230.184 176.629 227.878C176.629 225.214 175.558 222.839 173.614 221.192C171.632 219.514 168.888 218.663 165.46 218.663H147.038C144.732 218.663 142.806 219.822 141.781 221.618C141.524 220.986 141.276 220.352 141.036 219.713L141.008 219.641C140.065 217.288 137.931 215.826 135.438 215.826C133.922 215.826 132.385 216.388 131.218 217.367C129.836 218.527 129.044 220.208 129.044 221.977C129.044 222.025 129.044 222.072 129.045 222.121C127.154 221.03 124.759 220.477 121.904 220.477H121.677C119.676 220.477 117.641 220.505 115.559 220.548C116.201 219.212 116.356 218.392 116.356 217.552C116.356 215.857 115.628 214.178 114.359 212.945C113.128 211.748 111.484 211.06 109.849 211.06C107.4 211.06 105.222 212.479 104.148 214.768C101.377 220.289 98.0338 225.418 94.2108 230.012C90.5193 234.447 86.5568 238.178 82.4333 241.101L82.3596 241.155C80.5641 242.499 79.5748 244.311 79.5748 246.258C79.5748 249.712 82.4422 252.522 85.9675 252.522C87.3372 252.522 88.8083 251.965 90.6366 250.739C90.8713 253.072 92.4179 254.966 94.7112 255.658C96.2907 256.144 98.3386 256.969 100.443 257.948C94.9423 262.479 88.9176 265.91 82.7933 267.974C80.0779 268.879 78.3232 271.176 78.3232 273.829C78.3232 277.283 81.1907 280.093 84.716 280.093C85.4457 280.093 86.0475 279.935 86.4874 279.819C86.5594 279.801 86.635 279.78 86.7141 279.761L86.8679 279.723L87.0181 279.67C90.2251 278.559 93.3966 277.143 96.5111 275.433C96.712 276.51 97.1929 277.522 97.9129 278.36C99.0613 279.698 100.675 280.434 102.456 280.434L126.313 280.335V296.861C126.313 298.063 126.145 299.657 125.346 300.43C124.538 301.211 122.903 301.375 121.675 301.375C119.858 301.375 117.687 301.082 115.222 300.505C114.446 300.241 113.745 300.241 113.373 300.241C111.523 300.241 109.849 301.013 108.658 302.417C107.649 303.607 107.094 305.14 107.094 306.733C107.094 308.397 107.721 311.419 111.917 312.963C114.084 313.76 117.112 314.132 121.447 314.132C127.747 314.132 132.526 312.385 135.65 308.939C138.129 306.205 139.44 302.46 139.44 298.11V297.769L139.326 289.236V280.335L165.671 280.435H165.684C169.004 280.435 171.508 277.79 171.508 274.284C171.508 273.773 171.457 273.282 171.361 272.816C172.035 273.21 172.713 273.597 173.398 273.976L173.535 274.049C174.786 274.673 175.971 274.99 177.055 274.99C178.978 274.99 180.778 274.233 182.124 272.86C183.399 271.56 184.131 269.804 184.131 268.044C184.133 265.642 182.762 263.461 180.464 262.211ZM108.065 232.305C108.068 232.3 108.072 232.295 108.075 232.29C109.758 232.26 111.55 232.239 113.297 232.22C115.82 232.191 118.212 232.164 119.886 232.11C119.559 233.031 118.988 234.423 118.004 236.336C116.664 235.649 115.216 234.96 113.793 234.337C110.821 233.034 109.093 232.513 108.065 232.305ZM101.051 240.993C101.745 242.491 103.059 243.623 104.776 244.104C106.459 244.604 108.818 245.482 111.298 246.672C110.739 247.406 110.191 248.101 109.65 248.759C107.43 247.58 105.17 246.59 103.785 246.012C100.885 244.804 99.2177 244.271 98.2284 244.036C99.1653 243.067 100.111 242.046 101.051 240.993Z" stroke="white" stroke-width="5" stroke-miterlimit="10"/>
<path d="M164.074 268.132H107.324C109.594 266.296 111.798 264.313 113.924 262.191C115.016 263.302 116.546 263.984 118.265 263.984H149.538C151.371 263.984 152.976 263.228 154.061 261.853C154.335 261.507 154.57 261.124 154.761 260.715C157.702 263.358 160.814 265.836 164.074 268.132Z" fill="white" stroke="white" stroke-width="5" stroke-miterlimit="10"/>
<path d="M172.097 294.022C169.503 291.724 166.162 289.513 163.817 288.064C161.001 286.325 157.947 284.639 155.217 283.316C150.575 281.067 149.337 281.067 148.742 281.067C145.217 281.067 142.35 283.979 142.35 287.559C142.35 289.854 143.74 291.958 145.895 292.933C154.525 296.98 160.689 301.291 164.733 306.108C166.005 307.748 167.88 308.687 169.895 308.687C173.543 308.687 176.743 305.388 176.743 301.628C176.741 299.248 175.266 296.832 172.097 294.022Z" stroke="white" stroke-width="5" stroke-miterlimit="10"/>
</svg>
