<svg width="271" height="116" viewBox="0 0 271 116" fill="none" xmlns="http://www.w3.org/2000/svg">
<path d="M269.192 54.9887H266.473H265.59H265.572H264.664H263.791H263.764H261.989H261.063H261.045H260.162H259.263H259.236H258.362H257.462H256.561H255.635H253.835H252.033V59.4778V64.3956C252.033 64.7233 252.033 65.0466 252.033 65.363C252.033 65.6773 252.033 65.9982 252.033 66.3304V80.3858L236.566 58.8157L236.181 58.2792L235.151 56.8427L233.798 54.9528H231.461H224.392V46.6704V42.1813H219.865H199.494V39.8874H209.355C209.583 39.8874 209.78 39.8919 210.034 39.8919C210.276 39.8919 210.525 39.8919 210.779 39.8919H213.413H217.941V38.0985V36.3141V35.4028V34.5274V34.5095V33.6094V32.743V32.7161V31.825V30.9563V30.9339V30.0383V30.0204V29.145V28.2539V28.227V27.3606V26.4672V26.4448V25.5739V24.6559V22.8715V21.0848H213.413H208.452C208.121 21.0848 207.795 21.0848 207.476 21.0848C207.159 21.0848 206.835 21.0848 206.503 21.0848H199.494V18.8582H219.865H224.392V14.3691V4.54025V0.0511475H219.865H185.978H181.451H177.123H167.21H162.683V4.54025V6.04634C162.683 12.0528 159.193 17.3072 154.027 19.8032V4.54025V0.0511475H149.5H139.587H135.06V4.54025V10.8946C130.596 4.36068 123.049 0.0578811 114.508 0.0578811C108.695 0.0578811 103.188 2.0286 98.7602 5.64905V4.54025V0.0511475H94.233H71.5604H67.4473H56.5502C56.2672 0.0511475 55.9911 0.0511475 55.7217 0.0511475C55.4501 0.0511475 55.1829 0.0511475 54.9068 0.0511475H50.7258H46.1986V1.83781V3.62222V4.54025V5.41113V5.43358V6.32691V7.1933V7.22024V8.11132V8.9867V9.00465V9.90023V9.92267V10.7913V11.6824V11.7093V12.5757V13.4758V13.4938V14.3691V15.2804V17.0648V18.8582H50.7258H52.9465C53.157 18.8582 53.3652 18.8537 53.5712 18.8537C53.7682 18.8537 53.9538 18.8537 54.1462 18.8537H62.9201H62.997V36.8393V41.3284H63.0016V52.4883C63.0016 52.715 62.997 52.9395 62.997 53.1617C62.997 53.4131 62.997 53.6487 62.997 53.9001V56.5128V57.0874C62.8838 57.1323 62.7707 57.1772 62.6484 57.2288L62.6258 57.2355L62.5647 57.2602C62.5239 57.2759 62.4854 57.2916 62.4447 57.3096C62.4424 57.3118 62.4379 57.3118 62.4356 57.3141C62.3451 57.3522 62.25 57.3926 62.1527 57.433H62.0893L61.2676 57.8303C61.245 57.8416 61.2223 57.8528 61.1974 57.8617L60.4912 58.1939L60.4572 58.2276C60.2965 58.3084 60.1516 58.387 60.0135 58.461C59.9909 58.4723 59.966 58.4857 59.9434 58.4992C59.8845 58.5284 59.8279 58.5598 59.7736 58.5935C59.6831 58.6429 59.5948 58.6922 59.5065 58.7416C59.4884 58.7528 59.4703 58.7618 59.4522 58.773C56.9441 60.1108 55.2961 61.5518 54.1802 62.6606H54.0738L53.7071 63.0758L53.612 63.123L53.2204 63.628L52.9623 63.9198C52.9601 63.922 52.9578 63.9243 52.9555 63.9265L52.7224 64.1622L52.6839 64.2138L52.5617 64.335L52.4779 64.4675C52.419 64.5348 52.3579 64.6066 52.2923 64.6807C52.2221 64.7615 52.1565 64.84 52.0931 64.9164C51.9822 65.0465 51.8826 65.1678 51.7875 65.2845C51.7558 65.3226 51.7286 65.3563 51.7037 65.3877C51.672 65.4259 51.6381 65.4708 51.6019 65.5179C51.5294 65.6077 51.4412 65.7199 51.3483 65.8434C50.9092 66.2878 50.5946 66.7412 50.375 67.1856C49.422 68.5884 48.5844 70.0923 47.8669 71.6725C44.5235 62.0052 35.2652 55.0381 24.3952 55.0381C17.7696 55.0381 11.5423 57.5969 6.85656 62.2431C3.25285 65.8164 0.898664 70.2898 0 75.1493V79.6384V84.1275V111.414V115.904H4.11529H14.0278H18.555V111.414V103.408C18.6252 103.41 18.6954 103.417 18.7678 103.417H30.2241V110.023C30.2241 110.216 30.2196 110.404 30.2196 110.593C30.2196 110.795 30.2196 111.001 30.2196 111.212V111.412V115.901H32.0282H33.8278H34.7468H35.6296H35.6478H36.5555H37.4292H37.4564H38.3551H39.2311H39.2537H40.1569H40.175H41.0579H41.9565H41.9837H42.8574H43.7584H43.781H44.6593H45.5851H47.3847H49.1866V111.412V109.269C49.1866 108.995 49.1866 108.725 49.1866 108.461C49.1866 108.194 49.1866 107.92 49.1866 107.639V104.322L49.1911 101.877C49.8091 102.95 50.4904 103.98 51.2352 104.961C53.861 108.418 57.1455 111.118 60.9982 112.986C64.9845 114.92 69.4846 115.901 74.3718 115.901H83.2634H87.7906V111.412V101.363V96.8743H83.2634H73.4324C70.4783 96.679 68.1015 95.5522 66.3698 93.5254C64.3145 91.1215 63.3139 87.5594 63.692 83.9883C63.6942 83.9681 63.6965 83.9501 63.6987 83.9299V83.9277L63.7033 83.8783C63.7055 83.8626 63.7055 83.8469 63.7078 83.8312C63.7101 83.82 63.7123 83.8065 63.7146 83.7953L63.7644 83.5506V83.5349C63.8142 83.2678 63.8731 82.9154 63.941 82.453L63.9455 82.4328C63.9613 82.3588 63.9794 82.2892 63.9953 82.2196C64.0089 82.1702 64.0202 82.1253 64.0292 82.0827C64.036 82.058 64.0428 82.0311 64.0496 82.0064C64.07 81.93 64.0881 81.8605 64.1085 81.7909L64.2149 81.4183C64.2466 81.315 64.2782 81.214 64.3122 81.1153L64.319 81.0973C64.3552 80.9963 64.3892 80.8953 64.4276 80.7943L64.439 80.7651L64.4503 80.7359C64.4593 80.7135 64.4684 80.6866 64.4797 80.6574L64.4842 80.6484L64.5612 80.4509C64.5974 80.3566 64.6268 80.287 64.6517 80.2332L64.6653 80.204L64.6766 80.1748C64.7197 80.076 64.7627 79.9773 64.8102 79.8763C64.8396 79.8112 64.8713 79.7416 64.9053 79.6743L64.9392 79.6069L64.9483 79.5867L64.9551 79.5733L65.0003 79.488L65.1656 79.2141L65.1837 79.1625C65.7904 78.157 66.6437 77.1357 67.7235 76.1234C69.4891 74.7385 71.7279 74.036 74.3786 74.036H84.4925H89.0198V74.0405H90.181H92.4017C92.6122 74.0405 92.7955 74.036 93.0264 74.036C93.2392 74.036 93.409 74.036 93.6014 74.036H102.375H102.452V91.7836V96.2727H102.457V107.433C102.457 107.659 102.452 107.884 102.452 108.106C102.452 108.353 102.452 108.593 102.452 108.844V111.457V115.946H104.261H106.06H106.979H107.862H109.662H111.464H112.39H113.291H114.189H115.09H115.991H116.892H117.818H119.617H121.419V111.457V106.537C121.419 106.209 121.419 105.906 121.419 105.57C121.419 105.258 121.419 104.934 121.419 104.604V91.7836V86.9444V73.8025H133.69H138.218V69.3134V60.9996H138.673H138.917V69.2685V73.7576H143.444H145.962V81.2769V85.766H145.966V96.9259C145.966 96.982 145.971 97.0381 145.973 97.0942H143.456H138.928V101.583V111.412V115.901H143.456H167.437H171.964V111.412V101.583V99.5206C172.971 101.067 174.151 102.522 175.495 103.855C180.459 108.777 187.06 111.489 194.08 111.489C201.099 111.489 207.7 108.777 212.664 103.855C215.19 101.348 217.139 98.4207 218.443 95.2335V96.2301H218.441V107.39C218.441 107.617 218.436 107.852 218.436 108.066C218.436 108.306 218.436 108.55 218.436 108.8V111.412V115.901H220.245H222.045H226.572H227.471H231.998H232.876H237.403V111.412V106.492C237.403 106.164 237.403 105.839 237.403 105.522C237.403 105.211 237.403 104.89 237.403 104.56V92.4368L252.033 112.84V115.897L256.561 115.901H266.473H271V111.412V108.268V79.1513V74.6622H270.996V63.5023C270.996 63.2756 271 63.0579 271 62.8289C271 62.5888 271 62.3419 271 62.0905V59.4778V54.9887H269.192ZM18.555 84.6168V79.6406C18.5573 76.4511 21.1741 73.8542 24.3907 73.8542C27.6073 73.8542 30.2263 76.4489 30.2286 79.6406V84.6168H18.555ZM81.964 50.6276C81.964 50.3133 81.964 49.9924 81.964 49.6624V36.8393V32.0001V18.8582H90.3984C89.9434 20.7347 89.7079 22.6762 89.7079 24.6536V29.1427V54.9977H85.6492H84.488H81.9618V51.5927C81.964 51.2673 81.964 50.944 81.964 50.6276ZM155.227 39.232C155.272 39.3397 155.317 39.4497 155.372 39.5552L155.385 39.5821L155.399 39.6091L163.405 54.9506H163.258C162.982 54.9506 162.71 54.9775 162.443 55.0201C162.174 54.9753 161.898 54.9506 161.615 54.9506H154.025V51.5905C154.025 51.2628 153.991 50.9396 153.93 50.6231C153.991 50.3111 154.025 49.9879 154.025 49.6579V39.4924C154.43 39.4138 154.828 39.3263 155.227 39.232ZM108.675 29.6298V24.6536V24.5751C108.72 21.4215 111.321 18.8694 114.511 18.8694C117.73 18.8694 120.346 21.4641 120.349 24.6559V29.6298H108.675ZM108.885 48.4324H120.344V54.9977H111.011H108.673V48.4234C108.745 48.4279 108.815 48.4324 108.885 48.4324ZM171.969 69.2708V68.3954V68.3775V67.4774V66.611V66.5841V65.693V64.8243V64.8019V63.9063V63.8884V63.013V62.1219V62.095V61.2286V61.0019H180.475H184.88C181.394 62.2902 178.198 64.3148 175.491 67.0016C174.151 68.3303 172.976 69.7781 171.971 71.3178V70.1821V69.2708H171.969ZM194.075 78.1749C198.109 78.1749 201.389 81.4273 201.389 85.4271C201.389 89.4268 198.109 92.6814 194.075 92.6814C190.041 92.6814 186.759 89.4268 186.759 85.4271C186.759 81.4295 190.039 78.1749 194.075 78.1749ZM180.532 41.2521V46.8522L171.738 30.0024C173.698 28.0339 175.43 25.8163 176.881 23.381C178.504 20.6584 179.724 17.727 180.525 14.6856V36.763V41.2521H180.532ZM212.657 67.0016C209.941 64.3081 206.731 62.2768 203.234 60.9907H218.436V64.5572V75.6229C217.133 72.4356 215.186 69.5087 212.657 67.0016ZM167.43 97.0965H164.924V96.0325C164.924 95.7048 164.924 95.3816 164.924 95.0651C164.924 94.7419 164.924 94.4299 164.924 94.1V81.2791V76.4399V73.7509C165.021 73.7576 165.121 73.7599 165.221 73.7599H167.441H170.558C168.747 77.3377 167.79 81.3083 167.79 85.4271C167.79 89.5458 168.747 93.5187 170.558 97.0965H167.43Z" fill="white"/>
<path d="M54.9065 4.54031C55.031 4.54031 55.1442 4.58969 55.2257 4.6705C55.3072 4.7513 55.357 4.86353 55.357 4.98698C55.357 5.23388 55.1555 5.43364 54.9065 5.43364H50.7256V4.54031H54.9065Z" fill="#E4007F"/>
<path d="M54.8001 6.45718C54.8816 6.53798 54.9314 6.65021 54.9314 6.77366C54.9314 7.02056 54.73 7.22033 54.481 7.22033H50.7256V6.327H54.481C54.6055 6.327 54.7186 6.37638 54.8001 6.45718Z" fill="#E4007F"/>
<path d="M55.7758 8.24157C55.8573 8.32238 55.9071 8.4346 55.9071 8.55805C55.9071 8.80496 55.7056 9.00472 55.4566 9.00472H50.7256V8.11139H55.4566C55.5811 8.11139 55.6943 8.16077 55.7758 8.24157Z" fill="#E4007F"/>
<path d="M54.4425 11.8126C54.524 11.8935 54.5738 12.0057 54.5738 12.1291C54.5738 12.376 54.3723 12.5758 54.1233 12.5758H50.7256V11.6825H54.1233C54.2478 11.6825 54.361 11.7318 54.4425 11.8126Z" fill="#E4007F"/>
<path d="M53.2654 13.606C53.3469 13.6868 53.3967 13.7991 53.3967 13.9225C53.3967 14.1694 53.1952 14.3692 52.9462 14.3692H50.7256V13.4759H52.9462C53.0707 13.4759 53.1839 13.5252 53.2654 13.606Z" fill="#E4007F"/>
<path d="M60.3302 9.45363C60.3302 9.33018 60.2804 9.21795 60.1989 9.13715C60.1174 9.05635 60.0042 9.00697 59.8797 9.00697H56.5567C56.4322 9.00697 56.319 8.95759 56.2375 8.87678C56.1561 8.79598 56.1063 8.68375 56.1063 8.5603C56.1063 8.3134 56.3077 8.11364 56.5567 8.11364H58.7004C58.9494 8.11364 59.1508 7.91387 59.1508 7.66697C59.1508 7.54352 59.101 7.43129 59.0196 7.35049C58.9381 7.26969 58.8249 7.22031 58.7004 7.22031H55.7939C55.6694 7.22031 55.5562 7.17093 55.4747 7.09012C55.3932 7.00932 55.3434 6.89709 55.3434 6.77364C55.3434 6.52674 55.5449 6.32697 55.7939 6.32697H59.8797C60.1287 6.32697 60.3302 6.12721 60.3302 5.88031C60.3302 5.75686 60.2804 5.64463 60.1989 5.56383C60.1174 5.48302 60.0042 5.43364 59.8797 5.43364H56.5499C56.4254 5.43364 56.3122 5.38426 56.2308 5.30346C56.1493 5.22266 56.0995 5.11043 56.0995 4.98698C56.0995 4.74008 56.3009 4.54031 56.5499 4.54031H67.4471H71.5601H94.235V14.3692H67.4471V14.3647H54.1459C54.0214 14.3647 53.9083 14.3153 53.8268 14.2345C53.7453 14.1537 53.6955 14.0415 53.6955 13.918C53.6955 13.6711 53.8969 13.4714 54.1459 13.4714H58.1684C58.4174 13.4714 58.6189 13.2716 58.6189 13.0247C58.6189 12.9013 58.5691 12.789 58.4876 12.7082C58.4061 12.6274 58.2929 12.578 58.1684 12.578H55.3117C55.1872 12.578 55.074 12.5287 54.9925 12.4479C54.9111 12.3671 54.8613 12.2548 54.8613 12.1314C54.8613 11.8845 55.0627 11.6847 55.3117 11.6847H59.8797C60.1287 11.6847 60.3302 11.4849 60.3302 11.238C60.3302 11.1168 60.2804 11.0046 60.1989 10.9238C60.1174 10.843 60.0042 10.7914 59.8797 10.7914H50.7256V9.9003H59.8797C60.1287 9.9003 60.3302 9.69829 60.3302 9.45363ZM59.8752 7.22031C59.6262 7.22031 59.4225 7.42231 59.4225 7.66921C59.4225 7.89367 59.5855 8.07772 59.8005 8.11364H59.9522C60.1672 8.07772 60.3302 7.89367 60.3302 7.66921C60.3302 7.42231 60.1265 7.22031 59.8752 7.22031ZM59.9227 12.578H59.8299C59.6013 12.6005 59.4225 12.7935 59.4225 13.0247C59.4225 13.2537 59.5923 13.4422 59.8141 13.4714C59.8345 13.4736 59.8548 13.4759 59.8752 13.4759C59.8956 13.4759 59.9182 13.4736 59.9386 13.4714C60.1604 13.4422 60.3302 13.2537 60.3302 13.0247C60.3302 12.7935 60.1514 12.6005 59.9227 12.578Z" fill="#E4007F"/>
<path d="M77.4361 51.595C77.4361 51.4491 77.3863 51.3145 77.3048 51.2202C77.2233 51.1237 77.1101 51.0653 76.9856 51.0653C76.7366 51.0653 76.5352 51.3032 76.5352 51.595V56.5151H77.4361V51.595Z" fill="#E4007F"/>
<path d="M75.504 51.7185C75.4225 51.622 75.3093 51.5636 75.1848 51.5636C74.9358 51.5636 74.7344 51.8016 74.7344 52.0933V56.5129H75.6353V52.0933C75.6353 51.9474 75.5855 51.815 75.504 51.7185Z" fill="#E4007F"/>
<path d="M73.7023 50.5715C73.6208 50.475 73.5076 50.4166 73.3831 50.4166C73.1341 50.4166 72.9326 50.6545 72.9326 50.9463V56.5128H73.8335V50.9463C73.8335 50.8004 73.7837 50.668 73.7023 50.5715Z" fill="#E4007F"/>
<path d="M70.1026 52.1404C70.0212 52.0439 69.908 51.9856 69.7835 51.9856C69.5345 51.9856 69.333 52.2235 69.333 52.5153V56.5128H70.2339V52.5153C70.2339 52.3694 70.1841 52.237 70.1026 52.1404Z" fill="#E4007F"/>
<path d="M68.2931 53.5254C68.2116 53.4289 68.0984 53.3705 67.9739 53.3705C67.7249 53.3705 67.5234 53.6084 67.5234 53.9002V56.5129H68.4244V53.9002C68.4244 53.7543 68.3746 53.6197 68.2931 53.5254Z" fill="#E4007F"/>
<path d="M72.4808 45.2138C72.6053 45.2138 72.7185 45.2721 72.8 45.3687C72.8815 45.4652 72.9313 45.5976 72.9313 45.7435V49.6535C72.9313 49.7994 72.9811 49.9341 73.0626 50.0283C73.144 50.1249 73.2572 50.1832 73.3817 50.1832C73.6307 50.1832 73.8322 49.9453 73.8322 49.6535V47.1306C73.8322 46.8366 74.0337 46.6009 74.2827 46.6009C74.4072 46.6009 74.5203 46.6593 74.6018 46.7558C74.6833 46.8523 74.7331 46.9847 74.7331 47.1306V50.5491C74.7331 50.695 74.7829 50.8296 74.8644 50.9239C74.9459 51.0182 75.0591 51.0788 75.1836 51.0788C75.4326 51.0788 75.6341 50.8409 75.6341 50.5491V45.7412C75.6341 45.4472 75.8355 45.2115 76.0845 45.2115C76.209 45.2115 76.3222 45.2699 76.4037 45.3664C76.4852 45.4629 76.535 45.5954 76.535 45.7412V49.658C76.535 49.8039 76.5848 49.9386 76.6663 50.0328C76.7478 50.1293 76.8609 50.1877 76.9854 50.1877C77.2344 50.1877 77.4359 49.9498 77.4359 49.658V36.8371V31.9979V9.45139H67.5234V36.8371H67.528V52.4861C67.528 52.632 67.5778 52.7667 67.6593 52.861C67.7407 52.9575 67.8539 53.0158 67.9784 53.0158C68.2274 53.0158 68.4289 52.7779 68.4289 52.4861V47.7546C68.4289 47.4606 68.6304 47.2249 68.8794 47.2249C69.0039 47.2249 69.117 47.2833 69.1985 47.3798C69.28 47.4763 69.3298 47.6087 69.3298 47.7546V51.1147C69.3298 51.2606 69.3796 51.3953 69.4611 51.4895C69.5426 51.5838 69.6558 51.6444 69.7803 51.6444C70.0293 51.6444 70.2308 51.4065 70.2308 51.1147V45.7412C70.2308 45.4472 70.4322 45.2115 70.6812 45.2115C70.8035 45.2115 70.9166 45.2699 70.9981 45.3664C71.0796 45.4629 71.1317 45.5954 71.1317 45.7412V56.5106H72.0303V45.7412C72.0303 45.4495 72.2341 45.2138 72.4808 45.2138ZM74.7331 45.748C74.7331 46.042 74.5294 46.2799 74.2804 46.2799C74.054 46.2799 73.8684 46.0892 73.8322 45.8355V45.6582C73.8684 45.4046 74.054 45.2138 74.2804 45.2138C74.5294 45.2138 74.7331 45.4539 74.7331 45.748ZM69.3298 45.6919V45.8019C69.3072 46.0712 69.1125 46.2822 68.8794 46.2822C68.6485 46.2822 68.4583 46.0824 68.4289 45.8221C68.4266 45.7974 68.4244 45.7749 68.4244 45.7502C68.4244 45.7255 68.4266 45.6986 68.4289 45.6762C68.4583 45.4158 68.6485 45.216 68.8794 45.216C69.1125 45.2138 69.3072 45.4248 69.3298 45.6919Z" fill="#E4007F"/>
<path d="M159.276 36.2917C159.165 36.3478 159.043 36.3568 158.932 36.3209C158.821 36.285 158.726 36.2087 158.667 36.0987L157.848 34.5297C158.133 34.431 158.42 34.3277 158.703 34.2222L159.468 35.6879C159.584 35.9079 159.498 36.1772 159.276 36.2917Z" fill="#E4007F"/>
<path d="M160.683 35.0953C160.572 35.1515 160.449 35.1604 160.338 35.1268C160.228 35.0909 160.132 35.0145 160.074 34.9046L159.544 33.89C159.822 33.7733 160.099 33.6543 160.37 33.5331L160.873 34.4938C160.988 34.7138 160.902 34.9831 160.683 35.0953Z" fill="#E4007F"/>
<path d="M162.728 35.1357C162.617 35.1918 162.495 35.2008 162.384 35.1649C162.273 35.129 162.178 35.0527 162.122 34.9427L161.185 33.1493C161.454 33.0191 161.723 32.8844 161.988 32.7453L162.921 34.5319C163.036 34.7519 162.948 35.0212 162.728 35.1357Z" fill="#E4007F"/>
<path d="M165.316 32.3188C165.205 32.375 165.081 32.3839 164.97 32.3503C164.859 32.3144 164.766 32.238 164.707 32.1281L164.322 31.3851C164.574 31.2213 164.825 31.0552 165.072 30.8846L165.506 31.7173C165.622 31.9373 165.536 32.2066 165.316 32.3188Z" fill="#E4007F"/>
<path d="M166.379 30.4603C166.269 30.5164 166.146 30.5254 166.035 30.4895C165.954 30.4648 165.881 30.4154 165.827 30.3481C166.069 30.1685 166.307 29.989 166.545 29.8027L166.572 29.8565C166.687 30.0765 166.601 30.3459 166.379 30.4603Z" fill="#E4007F"/>
<path d="M167.119 30.916C167.063 30.8038 166.968 30.7297 166.857 30.6938C166.748 30.6579 166.623 30.6668 166.513 30.7229C166.291 30.8374 166.205 31.1068 166.32 31.3245L168.17 34.8686C168.283 35.0864 168.197 35.3557 167.975 35.4702C167.864 35.524 167.742 35.5353 167.633 35.4993C167.522 35.4657 167.425 35.3871 167.368 35.2771L166.055 32.761C165.999 32.651 165.901 32.5747 165.793 32.541C165.682 32.5074 165.56 32.5141 165.449 32.5702C165.227 32.6824 165.141 32.954 165.254 33.174L167.355 37.1962C167.468 37.4139 167.382 37.6833 167.162 37.7978C167.054 37.8516 166.929 37.8606 166.818 37.8269C166.709 37.791 166.612 37.7147 166.553 37.6047L163.556 31.8609C163.3 32.0158 163.04 32.1662 162.78 32.3143L165.756 38.0155C165.87 38.2355 165.781 38.5048 165.562 38.617C165.453 38.6754 165.329 38.6821 165.22 38.6485C165.109 38.6125 165.014 38.5362 164.955 38.4262L163.429 35.4993C163.371 35.3894 163.273 35.3131 163.167 35.2794C163.056 35.2435 162.931 35.2502 162.821 35.3086C162.601 35.423 162.515 35.6901 162.63 35.9101L163.615 37.8C163.728 38.0177 163.642 38.2871 163.42 38.3993C163.309 38.4554 163.187 38.4644 163.079 38.4307C162.968 38.3948 162.87 38.3185 162.814 38.2085L161.478 35.6497C161.422 35.5398 161.324 35.4612 161.213 35.4275C161.105 35.3916 160.98 35.4028 160.872 35.4567C160.65 35.5712 160.564 35.8405 160.677 36.0582L162.556 39.6585C162.671 39.8785 162.583 40.1456 162.361 40.26C162.25 40.3161 162.128 40.3251 162.019 40.2892C161.908 40.2555 161.811 40.177 161.757 40.0692L160.224 37.1356C160.168 37.0256 160.07 36.9493 159.962 36.9134C159.851 36.8797 159.728 36.8865 159.617 36.9448C159.396 37.0571 159.312 37.3264 159.423 37.5464L169.322 56.5128H180.477L167.119 30.916ZM163.964 39.4385C163.744 39.5508 163.47 39.4655 163.352 39.2433C163.239 39.0233 163.325 38.7517 163.547 38.6395C163.749 38.5362 163.986 38.5946 164.12 38.7674L164.188 38.8998C164.256 39.1063 164.165 39.3353 163.964 39.4385ZM168.763 36.9763C168.554 37.084 168.299 37.0144 168.174 36.8236L168.131 36.7406C168.047 36.5296 168.136 36.2827 168.344 36.1772C168.55 36.0717 168.797 36.1346 168.923 36.3164C168.935 36.3343 168.948 36.35 168.955 36.368C168.966 36.3859 168.975 36.4061 168.982 36.4241C169.059 36.6351 168.966 36.8708 168.763 36.9763Z" fill="#E4007F"/>
<path d="M149.5 51.5951C149.5 51.4492 149.45 51.3145 149.368 51.2202C149.287 51.1237 149.174 51.0653 149.049 51.0653C148.8 51.0653 148.599 51.3033 148.599 51.5951V56.5151H149.5V51.5951Z" fill="#E4007F"/>
<path d="M147.568 51.7185C147.487 51.622 147.374 51.5636 147.249 51.5636C147 51.5636 146.799 51.8015 146.799 52.0933V56.5128H147.7V52.0933C147.7 51.9474 147.65 51.815 147.568 51.7185Z" fill="#E4007F"/>
<path d="M145.767 50.5715C145.685 50.475 145.572 50.4166 145.448 50.4166C145.199 50.4166 144.997 50.6545 144.997 50.9463V56.5128H145.898V50.9463C145.898 50.8004 145.848 50.668 145.767 50.5715Z" fill="#E4007F"/>
<path d="M142.167 52.1404C142.086 52.0439 141.972 51.9855 141.848 51.9855C141.599 51.9855 141.397 52.2235 141.397 52.5152V56.5128H142.298V52.5152C142.298 52.3694 142.249 52.2369 142.167 52.1404Z" fill="#E4007F"/>
<path d="M140.358 53.5254C140.276 53.4288 140.163 53.3705 140.038 53.3705C139.789 53.3705 139.588 53.6084 139.588 53.9002V56.5129H140.489V53.9002C140.489 53.7543 140.439 53.6196 140.358 53.5254Z" fill="#E4007F"/>
<path d="M139.588 4.54028V36.8393H139.592V52.4883C139.592 52.6342 139.642 52.7667 139.724 52.8632C139.805 52.9597 139.918 53.0181 140.043 53.0181C140.292 53.0181 140.493 52.7801 140.493 52.4883V47.7546C140.493 47.4628 140.695 47.2249 140.944 47.2249C141.068 47.2249 141.181 47.2832 141.263 47.3797C141.344 47.4763 141.394 47.6087 141.394 47.7546V51.1169C141.394 51.2628 141.444 51.3952 141.526 51.4918C141.607 51.5883 141.72 51.6466 141.845 51.6466C142.094 51.6466 142.295 51.4087 142.295 51.1169V45.7412C142.295 45.4494 142.497 45.2115 142.746 45.2115C142.868 45.2115 142.981 45.2699 143.063 45.3664C143.144 45.4629 143.196 45.5953 143.196 45.7412V56.5128H144.095V45.7412C144.095 45.4494 144.299 45.2115 144.545 45.2115C144.67 45.2115 144.783 45.2699 144.864 45.3664C144.946 45.4629 144.996 45.5953 144.996 45.7412V49.6512C144.996 49.7971 145.046 49.9318 145.127 50.0261C145.208 50.1226 145.322 50.1809 145.446 50.1809C145.695 50.1809 145.897 49.9453 145.897 49.6512V47.1306C145.897 46.8366 146.098 46.6009 146.347 46.6009C146.472 46.6009 146.585 46.6592 146.666 46.7535C146.748 46.85 146.798 46.9825 146.798 47.1306V50.549C146.798 50.6949 146.847 50.8296 146.929 50.9239C147.01 51.0204 147.124 51.0788 147.248 51.0788C147.497 51.0788 147.698 50.8431 147.698 50.549V45.7412C147.698 45.4494 147.9 45.2115 148.149 45.2115C148.273 45.2115 148.387 45.2699 148.468 45.3664C148.55 45.4629 148.599 45.5953 148.599 45.7412V49.6602C148.599 49.8061 148.649 49.9385 148.731 50.035C148.812 50.1316 148.925 50.1899 149.05 50.1899C149.299 50.1899 149.5 49.952 149.5 49.6602V4.54028H139.588ZM141.394 45.8018C141.372 46.0689 141.177 46.2799 140.944 46.2799C140.713 46.2799 140.523 46.0802 140.493 45.8198C140.491 45.7951 140.489 45.7726 140.489 45.748C140.489 45.7233 140.491 45.6963 140.493 45.6739C140.523 45.4113 140.713 45.2115 140.944 45.2115C141.177 45.2115 141.372 45.4225 141.394 45.6918V45.8018ZM146.345 46.2799C146.118 46.2799 145.933 46.0891 145.897 45.8355V45.6582C145.933 45.4045 146.118 45.2115 146.345 45.2115C146.594 45.2115 146.798 45.4517 146.798 45.748C146.798 46.0397 146.594 46.2799 146.345 46.2799Z" fill="#E4007F"/>
<path d="M177.122 4.54028V6.04638C177.122 11.5433 175.612 16.6878 172.984 21.0983C168.145 29.2169 159.507 34.8484 149.499 35.5869V25.7131C159.466 24.6066 167.21 16.2254 167.21 6.04638V4.54028H177.122Z" fill="#E4007F"/>
<path d="M219.864 4.54031H185.978V14.3692H219.864V4.54031Z" fill="#E4007F"/>
<path d="M219.864 46.6727H195.883V56.5016H219.864V46.6727Z" fill="#E4007F"/>
<path d="M194.967 51.5187C194.967 51.3728 194.918 51.2382 194.836 51.1439C194.755 51.0474 194.641 50.989 194.517 50.989C194.268 50.989 194.066 51.2269 194.066 51.5187V56.4388H194.967V51.5187Z" fill="#E4007F"/>
<path d="M193.035 51.6421C192.954 51.5456 192.841 51.4873 192.716 51.4873C192.467 51.4873 192.266 51.7252 192.266 52.017V56.4365H193.167V52.017C193.167 51.8711 193.117 51.7387 193.035 51.6421Z" fill="#E4007F"/>
<path d="M191.234 50.4953C191.152 50.3988 191.039 50.3404 190.914 50.3404C190.665 50.3404 190.464 50.5783 190.464 50.8701V56.4366H191.365V50.8701C191.365 50.7242 191.315 50.5918 191.234 50.4953Z" fill="#E4007F"/>
<path d="M187.634 52.0641C187.552 51.9675 187.439 51.9092 187.315 51.9092C187.066 51.9092 186.864 52.1471 186.864 52.4389V56.4364H187.765V52.4389C187.765 52.293 187.715 52.1583 187.634 52.0641Z" fill="#E4007F"/>
<path d="M185.824 53.449C185.743 53.3525 185.63 53.2941 185.505 53.2941C185.256 53.2941 185.055 53.5321 185.055 53.8238V56.4365H185.956V53.8238C185.956 53.6779 185.906 53.5433 185.824 53.449Z" fill="#E4007F"/>
<path d="M190.012 45.1375C190.137 45.1375 190.25 45.1958 190.331 45.2923C190.413 45.3889 190.463 45.5213 190.463 45.6672V49.5772C190.463 49.7231 190.512 49.8578 190.594 49.952C190.675 50.0485 190.788 50.1069 190.913 50.1069C191.162 50.1069 191.363 49.869 191.363 49.5772V47.0543C191.363 46.7603 191.565 46.5246 191.814 46.5246C191.938 46.5246 192.052 46.583 192.133 46.6795C192.215 46.776 192.264 46.9084 192.264 47.0543V50.4728C192.264 50.6187 192.314 50.7533 192.396 50.8476C192.477 50.9419 192.59 51.0025 192.715 51.0025C192.964 51.0025 193.165 50.7646 193.165 50.4728V45.6649C193.165 45.3709 193.367 45.1352 193.616 45.1352C193.74 45.1352 193.853 45.1936 193.935 45.2901C194.016 45.3866 194.066 45.519 194.066 45.6649V49.5817C194.066 49.7276 194.116 49.8622 194.198 49.9565C194.279 50.053 194.392 50.1114 194.517 50.1114C194.766 50.1114 194.967 49.8735 194.967 49.5817V36.7608V31.9238V4.54031H185.055V36.7631H185.059V52.4121C185.059 52.558 185.109 52.6926 185.191 52.7869C185.272 52.8812 185.385 52.9418 185.51 52.9418C185.759 52.9418 185.96 52.7038 185.96 52.4121V47.6805C185.96 47.3865 186.162 47.1508 186.411 47.1508C186.535 47.1508 186.648 47.2092 186.73 47.3057C186.811 47.4022 186.861 47.5347 186.861 47.6805V51.0406C186.861 51.1865 186.911 51.3212 186.992 51.4155C187.074 51.512 187.187 51.5704 187.312 51.5704C187.561 51.5704 187.762 51.3324 187.762 51.0406V45.6672C187.762 45.3731 187.963 45.1375 188.212 45.1375C188.335 45.1375 188.448 45.1958 188.529 45.2923C188.611 45.3889 188.663 45.5213 188.663 45.6672V56.4365H189.562V45.6672C189.562 45.3731 189.765 45.1375 190.012 45.1375ZM192.264 45.6717C192.264 45.9657 192.061 46.2036 191.812 46.2036C191.585 46.2036 191.4 46.0128 191.363 45.7592V45.5819C191.4 45.3283 191.585 45.1375 191.812 45.1375C192.061 45.1375 192.264 45.3776 192.264 45.6717ZM186.861 45.6156V45.7255C186.838 45.9949 186.644 46.2059 186.411 46.2059C186.18 46.2059 185.99 46.0061 185.96 45.7457C185.958 45.7211 185.956 45.6986 185.956 45.6739C185.956 45.6492 185.958 45.6223 185.96 45.5998C185.99 45.3395 186.18 45.1397 186.411 45.1397C186.644 45.1375 186.838 45.3485 186.861 45.6156Z" fill="#E4007F"/>
<path d="M208.451 25.5739C208.304 25.5739 208.168 25.6233 208.073 25.7041C207.976 25.7849 207.917 25.8972 207.917 26.0206C207.917 26.2675 208.157 26.4673 208.451 26.4673H213.413V25.5739H208.451Z" fill="#E4007F"/>
<path d="M208.577 27.4908C208.48 27.5716 208.421 27.6838 208.421 27.8073C208.421 28.0542 208.661 28.254 208.955 28.254H213.412V27.3606H208.955C208.808 27.3606 208.674 27.41 208.577 27.4908Z" fill="#E4007F"/>
<path d="M207.421 29.2752C207.324 29.356 207.265 29.4682 207.265 29.5917C207.265 29.8386 207.505 30.0384 207.799 30.0384H213.413V29.145H207.799C207.652 29.145 207.518 29.1944 207.421 29.2752Z" fill="#E4007F"/>
<path d="M209.004 32.8463C208.907 32.9271 208.848 33.0394 208.848 33.1628C208.848 33.4097 209.088 33.6095 209.382 33.6095H213.413V32.7162H209.382C209.235 32.7162 209.099 32.7655 209.004 32.8463Z" fill="#E4007F"/>
<path d="M210.4 34.6397C210.303 34.7205 210.244 34.8327 210.244 34.9562C210.244 35.2031 210.484 35.4028 210.778 35.4028H213.413V34.5095H210.778C210.631 34.5095 210.495 34.5589 210.4 34.6397Z" fill="#E4007F"/>
<path d="M202.018 30.4873C202.018 30.3638 202.076 30.2516 202.174 30.1708C202.271 30.09 202.405 30.0406 202.552 30.0406H206.495C206.642 30.0406 206.778 29.9912 206.873 29.9104C206.97 29.8296 207.029 29.7174 207.029 29.5939C207.029 29.347 206.789 29.1473 206.495 29.1473H203.951C203.654 29.1473 203.417 28.9475 203.417 28.7006C203.417 28.5772 203.475 28.4649 203.573 28.3841C203.67 28.3033 203.804 28.2539 203.951 28.2539H207.398C207.545 28.2539 207.681 28.2046 207.776 28.1238C207.874 28.0429 207.932 27.9307 207.932 27.8073C207.932 27.5604 207.693 27.3606 207.398 27.3606H202.55C202.253 27.3606 202.015 27.1608 202.015 26.9139C202.015 26.7905 202.074 26.6783 202.172 26.5975C202.269 26.5167 202.402 26.4673 202.55 26.4673H206.5C206.647 26.4673 206.783 26.4179 206.878 26.3371C206.975 26.2563 207.034 26.1441 207.034 26.0206C207.034 25.7737 206.794 25.5739 206.5 25.5739H193.57H188.689H185.181V35.4028H193.57V35.3983H209.352C209.499 35.3983 209.635 35.349 209.73 35.2681C209.827 35.1873 209.886 35.0751 209.886 34.9517C209.886 34.7048 209.646 34.505 209.352 34.505H204.58C204.284 34.505 204.046 34.3052 204.046 34.0583C204.046 33.9349 204.105 33.8227 204.202 33.7419C204.299 33.6611 204.433 33.6117 204.58 33.6117H207.969C208.116 33.6117 208.252 33.5623 208.347 33.4815C208.444 33.4007 208.503 33.2885 208.503 33.165C208.503 32.9181 208.263 32.7183 207.969 32.7183H202.55C202.253 32.7183 202.015 32.5186 202.015 32.2717C202.015 32.1505 202.074 32.0382 202.172 31.9574C202.269 31.8766 202.402 31.825 202.55 31.825H213.41V30.9339H202.55C202.255 30.9339 202.018 30.7319 202.018 30.4873ZM202.556 28.2539C202.853 28.2539 203.093 28.4559 203.093 28.7028C203.093 28.9273 202.9 29.1114 202.645 29.1473H202.466C202.21 29.1114 202.018 28.9273 202.018 28.7028C202.018 28.4559 202.26 28.2539 202.556 28.2539ZM202.5 33.6117H202.611C202.882 33.6341 203.095 33.8271 203.095 34.0583C203.095 34.2873 202.894 34.4758 202.631 34.505C202.606 34.5072 202.584 34.5095 202.559 34.5095C202.534 34.5095 202.507 34.5072 202.484 34.505C202.221 34.4758 202.02 34.2873 202.02 34.0583C202.018 33.8271 202.228 33.6341 202.5 33.6117Z" fill="#E4007F"/>
<path d="M107.243 43.0523H105.081V43.9457H107.243C107.367 43.9457 107.481 43.8963 107.562 43.8155C107.643 43.7347 107.693 43.6225 107.693 43.499C107.693 43.2521 107.492 43.0523 107.243 43.0523Z" fill="#E4007F"/>
<path d="M105.081 42.159H106.817C106.942 42.159 107.055 42.1096 107.136 42.0288C107.218 41.948 107.268 41.8358 107.268 41.7123C107.268 41.4654 107.066 41.2657 106.817 41.2657H105.081V42.159Z" fill="#E4007F"/>
<path d="M108.112 40.2444C108.194 40.1636 108.243 40.0514 108.243 39.9279C108.243 39.681 108.042 39.4813 107.793 39.4813H105.081V40.3746H107.793C107.917 40.3746 108.031 40.3252 108.112 40.2444Z" fill="#E4007F"/>
<path d="M105.081 36.8035H106.46C106.584 36.8035 106.697 36.7541 106.779 36.6733C106.86 36.5925 106.91 36.4803 106.91 36.3569C106.91 36.11 106.709 35.9102 106.46 35.9102H105.081V36.8035Z" fill="#E4007F"/>
<path d="M105.733 34.5635C105.733 34.3166 105.532 34.1168 105.283 34.1168H105.081V35.0102H105.283C105.407 35.0102 105.52 34.9608 105.602 34.88C105.683 34.7992 105.733 34.6869 105.733 34.5635Z" fill="#E4007F"/>
<path d="M106.161 34.2492C106.08 34.33 106.03 34.4422 106.03 34.5657C106.03 34.8126 106.231 35.0123 106.48 35.0123H110.503C110.752 35.0123 110.953 35.2121 110.953 35.459C110.953 35.5824 110.903 35.6947 110.822 35.7755C110.74 35.8563 110.627 35.9057 110.503 35.9057H107.646C107.522 35.9057 107.408 35.955 107.327 36.0358C107.245 36.1166 107.196 36.2289 107.196 36.3523C107.196 36.5992 107.397 36.799 107.646 36.799H112.214C112.463 36.799 112.665 36.9987 112.665 37.2456C112.665 37.3669 112.615 37.4791 112.533 37.5599C112.452 37.6407 112.339 37.6923 112.214 37.6923H105.079V38.5834H112.214C112.463 38.5834 112.665 38.7854 112.665 39.0301C112.665 39.1535 112.615 39.2657 112.533 39.3465C112.452 39.4273 112.339 39.4767 112.214 39.4767H108.891C108.767 39.4767 108.653 39.5261 108.572 39.6069C108.49 39.6877 108.441 39.7999 108.441 39.9234C108.441 40.1703 108.642 40.3701 108.891 40.3701H111.035C111.284 40.3701 111.485 40.5698 111.485 40.8167C111.485 40.9402 111.435 41.0524 111.354 41.1332C111.272 41.214 111.159 41.2634 111.035 41.2634H108.128C108.004 41.2634 107.891 41.3128 107.809 41.3936C107.728 41.4744 107.678 41.5866 107.678 41.7101C107.678 41.957 107.879 42.1567 108.128 42.1567H112.214C112.463 42.1567 112.665 42.3565 112.665 42.6034C112.665 42.7268 112.615 42.8391 112.533 42.9199C112.452 43.0007 112.339 43.05 112.214 43.05H108.884C108.76 43.05 108.647 43.0994 108.565 43.1802C108.484 43.261 108.434 43.3733 108.434 43.4967C108.434 43.7436 108.635 43.9434 108.884 43.9434H123.897V34.119H106.48C106.356 34.119 106.243 34.1684 106.161 34.2492ZM112.21 41.2634C111.961 41.2634 111.757 41.0614 111.757 40.8145C111.757 40.59 111.92 40.406 112.135 40.3701H112.287C112.502 40.406 112.665 40.59 112.665 40.8145C112.665 41.0614 112.461 41.2634 112.21 41.2634ZM112.148 35.0123C112.169 35.0101 112.189 35.0078 112.21 35.0078C112.23 35.0078 112.253 35.0101 112.273 35.0123C112.495 35.0415 112.665 35.23 112.665 35.459C112.665 35.6902 112.486 35.8832 112.257 35.9057H112.164C111.936 35.8832 111.757 35.6902 111.757 35.459C111.757 35.23 111.927 35.0415 112.148 35.0123Z" fill="#E4007F"/>
<path d="M134.328 53.8396C134.079 53.8396 133.878 54.0394 133.878 54.2863V56.4298H134.779V54.2863C134.779 54.1628 134.729 54.0506 134.648 53.9698C134.566 53.889 134.453 53.8396 134.328 53.8396Z" fill="#E4007F"/>
<path d="M132.527 54.2616C132.278 54.2616 132.076 54.4614 132.076 54.7083V56.4299H132.977V54.7083C132.977 54.5848 132.927 54.4726 132.846 54.3918C132.764 54.311 132.651 54.2616 132.527 54.2616Z" fill="#E4007F"/>
<path d="M130.727 53.2942C130.478 53.2942 130.276 53.494 130.276 53.7409V56.4298H131.177V53.7409C131.177 53.6174 131.127 53.5052 131.046 53.4244C130.965 53.3436 130.851 53.2942 130.727 53.2942Z" fill="#E4007F"/>
<path d="M127.125 54.6163C126.876 54.6163 126.675 54.816 126.675 55.0629V56.4299H127.576V55.0629C127.576 54.9395 127.526 54.8273 127.444 54.7465C127.363 54.6656 127.25 54.6163 127.125 54.6163Z" fill="#E4007F"/>
<path d="M125.318 55.7834C125.069 55.7834 124.867 55.9831 124.867 56.23V56.4298H125.768V56.23C125.768 56.1066 125.718 55.9943 125.637 55.9135C125.555 55.8327 125.442 55.7834 125.318 55.7834Z" fill="#E4007F"/>
<path d="M114.508 4.54709C103.31 4.54709 94.2324 13.55 94.2324 24.6538V56.4298H104.145V24.6538C104.147 18.9795 108.785 14.3805 114.508 14.3805C120.233 14.3805 124.871 18.9795 124.873 24.6538V37.7709H124.871V55.0405C124.871 55.1639 124.921 55.2761 125.002 55.3569C125.084 55.4377 125.197 55.4871 125.321 55.4871C125.57 55.4871 125.772 55.2874 125.772 55.0405V51.0519C125.772 50.805 125.973 50.6052 126.222 50.6052C126.347 50.6052 126.46 50.6546 126.541 50.7354C126.623 50.8162 126.673 50.9284 126.673 51.0519V53.8845C126.673 54.008 126.722 54.1202 126.804 54.201C126.885 54.2818 126.999 54.3312 127.123 54.3312C127.372 54.3312 127.574 54.1314 127.574 53.8845V49.355C127.574 49.1081 127.775 48.9084 128.024 48.9084C128.146 48.9084 128.259 48.9577 128.341 49.0385C128.422 49.1193 128.474 49.2316 128.474 49.355V56.4298H129.373V49.355C129.373 49.1081 129.577 48.9084 129.824 48.9084C129.948 48.9084 130.061 48.9577 130.143 49.0385C130.224 49.1193 130.274 49.2316 130.274 49.355V52.65C130.274 52.7735 130.324 52.8857 130.405 52.9665C130.487 53.0473 130.6 53.0967 130.725 53.0967C130.974 53.0967 131.175 52.8969 131.175 52.65V50.5244C131.175 50.2775 131.376 50.0778 131.625 50.0778C131.75 50.0778 131.863 50.1271 131.945 50.208C132.026 50.2888 132.076 50.401 132.076 50.5244V53.4064C132.076 53.5299 132.126 53.6421 132.207 53.7229C132.289 53.8037 132.402 53.8531 132.526 53.8531C132.775 53.8531 132.977 53.6533 132.977 53.4064V49.355C132.977 49.1081 133.178 48.9084 133.427 48.9084C133.552 48.9084 133.665 48.9577 133.746 49.0385C133.828 49.1193 133.878 49.2316 133.878 49.355V52.6567C133.878 52.7802 133.928 52.8924 134.009 52.9732C134.091 53.054 134.204 53.1034 134.328 53.1034C134.577 53.1034 134.779 52.9037 134.779 52.6567V44.8502H134.785V24.6538C134.785 13.55 125.706 4.54709 114.508 4.54709ZM107.323 15.3456C105.858 16.3489 105.202 16.9954 104.222 18.5845C104.129 18.7326 104.014 18.8494 103.898 18.9144C103.78 18.9818 103.663 18.9997 103.57 18.9459C103.387 18.8426 103.38 18.4902 103.574 18.1737C104.853 16.102 105.766 15.3007 107.78 14.1672C108.088 13.9944 108.262 13.7206 108.163 13.5365C108.111 13.4445 108 13.3929 107.86 13.3884C107.717 13.3839 107.545 13.4288 107.382 13.5208C104.874 14.9259 102.925 17.1592 101.906 19.8347C101.831 20.03 101.73 20.1938 101.621 20.3016C101.512 20.4093 101.397 20.4587 101.297 20.425C101.1 20.3532 101.046 19.9492 101.202 19.5407C104.394 13.2806 109.36 10.8341 116.339 11.0585C116.733 11.1034 117.079 10.9912 117.118 10.7869C117.136 10.6859 117.073 10.5804 116.948 10.4929C116.826 10.4054 116.642 10.3403 116.436 10.3156C110.035 10.1046 105.569 11.8531 101.635 16.9415C101.519 17.1278 101.383 17.2782 101.252 17.3702C101.123 17.4622 100.996 17.4959 100.903 17.4443C100.722 17.341 100.747 16.9213 100.987 16.533C103.862 12.7823 106.721 10.9867 111.257 9.75669C112.212 9.65119 113.141 9.59732 114.046 9.59732C120.364 9.59732 125.423 12.2077 128.837 18.0323C129.036 18.4633 129.018 18.8965 128.825 18.9773C128.728 19.0199 128.606 18.9706 128.486 18.8583C128.366 18.7484 128.246 18.5755 128.151 18.3713C127.141 16.1873 126.41 15.2783 124.719 13.8238C124.561 13.6891 124.386 13.5994 124.235 13.5679C124.085 13.5365 123.959 13.5634 123.893 13.6442C123.759 13.8081 123.906 14.1336 124.205 14.3917C125.79 15.6845 127.229 17.7809 127.877 19.7045C128.029 20.1175 127.972 20.5215 127.773 20.5889C127.673 20.6248 127.558 20.5709 127.449 20.4609C127.343 20.351 127.243 20.1849 127.171 19.9896C126.494 18.1491 125.989 17.3545 124.787 16.0257C124.66 15.8843 124.509 15.7878 124.373 15.7474C124.237 15.707 124.115 15.7227 124.04 15.7968C123.888 15.9449 123.972 16.2659 124.212 16.533C125.108 17.5251 125.498 18.0952 126.095 19.388C126.256 19.736 126.213 20.0973 126.018 20.1804C125.921 20.223 125.806 20.1894 125.697 20.1063C125.588 20.0233 125.486 19.8886 125.41 19.727C121.229 13.0764 114.211 11.7027 107.33 15.3434C107.328 15.3434 107.325 15.3456 107.323 15.3456ZM127.77 11.9541C127.696 12.0282 127.553 12.0237 127.383 11.9608C127.216 11.8957 127.017 11.7723 126.829 11.6084C126.048 10.9306 125.631 10.6231 124.76 10.0754C124.549 9.94298 124.332 9.86218 124.155 9.83974C123.979 9.81729 123.843 9.85096 123.789 9.94074C123.678 10.1203 123.927 10.4503 124.332 10.7061C126.89 12.311 128.945 14.6251 130.206 17.3567C130.423 17.8258 130.421 18.295 130.227 18.378C130.131 18.4184 130.005 18.36 129.88 18.2343C129.753 18.1109 129.624 17.9201 129.52 17.6957C126.023 11.6713 121.138 9.09006 114.209 8.71297C111.173 8.97558 108.625 9.60855 106.375 10.7847C104.127 11.9608 102.176 13.6824 100.342 16.1222C100.217 16.3265 100.068 16.4948 99.93 16.5981C99.7919 16.7036 99.6629 16.744 99.5723 16.6923C99.3867 16.5891 99.432 16.1402 99.6946 15.7115C101.664 12.6701 104.643 10.1921 108.133 9.04292C108.584 8.88356 108.901 8.61421 108.833 8.41669C108.801 8.31793 108.674 8.25733 108.498 8.24162C108.319 8.2259 108.09 8.25733 107.855 8.34262C106.071 8.97334 105.211 9.3998 103.656 10.4727C103.45 10.6141 103.242 10.7151 103.065 10.76C102.891 10.8049 102.75 10.7914 102.683 10.7106C102.549 10.549 102.771 10.163 103.192 9.86667C111.203 5.17556 119.861 5.50551 127.343 11.0428C127.739 11.3862 127.92 11.8037 127.77 11.9541ZM129.21 14.1807C129.188 14.147 129.165 14.1178 129.133 14.0774C128.864 13.6869 128.755 13.3031 128.907 13.1751C129.058 13.0494 129.421 13.2223 129.724 13.5881C129.753 13.6218 129.781 13.6555 129.808 13.6914C129.833 13.725 129.86 13.7655 129.885 13.8036C130.147 14.2009 130.213 14.6049 130.05 14.7149C129.885 14.8249 129.543 14.6004 129.249 14.2301C129.237 14.2166 129.226 14.2031 129.217 14.1897V14.1874C129.215 14.1852 129.212 14.1829 129.21 14.1807ZM100.627 21.4418C100.747 21.0625 100.978 20.8246 101.159 20.8829C101.361 20.9458 101.426 21.3341 101.333 21.765C101.238 22.2005 101.014 22.5349 100.808 22.4967C100.62 22.4608 100.516 22.1219 100.568 21.7201C100.573 21.673 100.582 21.6259 100.591 21.5765C100.602 21.5316 100.614 21.4867 100.627 21.4418ZM100.387 12.2863C100.462 12.2077 100.498 12.1673 100.575 12.0888C100.917 11.77 101.29 11.6444 101.426 11.7835C101.567 11.9249 101.415 12.2885 101.109 12.6387C101.091 12.6589 101.069 12.6813 101.046 12.706C101.026 12.7285 101.003 12.7532 100.978 12.7756C100.648 13.1011 100.285 13.2784 100.131 13.1527C99.9821 13.027 100.086 12.6477 100.387 12.2863ZM128.239 22.6808C128.033 22.7167 127.811 22.3755 127.721 21.9379C127.632 21.5024 127.705 21.1119 127.906 21.0513C128.087 20.9974 128.316 21.2376 128.431 21.6236C128.431 21.6259 128.431 21.6304 128.434 21.6326C128.456 21.7358 128.465 21.7875 128.486 21.8907C128.486 21.8952 128.488 21.8975 128.488 21.9019C128.533 22.306 128.427 22.6471 128.239 22.6808ZM131.234 16.8472C131.055 16.9348 130.747 16.6542 130.5 16.23C130.482 16.2008 130.466 16.1716 130.451 16.1402C130.435 16.111 130.419 16.0818 130.408 16.0549C130.19 15.6172 130.129 15.2087 130.297 15.1032C130.464 14.9977 130.799 15.2267 131.055 15.6441C131.078 15.6845 131.103 15.7227 131.123 15.7631C131.146 15.8035 131.166 15.8484 131.186 15.8888C131.397 16.3377 131.408 16.7619 131.234 16.8472Z" fill="#E4007F"/>
<path d="M120.541 13.8036C121.426 14.2301 121.849 14.486 122.635 15.083C122.854 15.2491 122.961 15.3366 123.171 15.5162C123.305 15.6307 123.454 15.7092 123.588 15.7384C123.782 15.7833 123.947 15.7272 123.986 15.5409C124.02 15.3703 123.882 15.1189 123.669 14.9371C123.452 14.7508 123.341 14.661 123.114 14.4904C122.284 13.8575 121.835 13.5859 120.898 13.1347C119.959 12.6813 119.465 12.4995 118.458 12.2257C115.717 11.4895 112.79 11.5366 110.076 12.3671C109.775 12.4591 109.539 12.6656 109.537 12.8474C109.535 12.9978 109.657 13.0921 109.831 13.1258C109.967 13.1504 110.132 13.137 110.302 13.0854C112.869 12.2953 115.642 12.2481 118.239 12.9462C119.189 13.2043 119.656 13.3749 120.541 13.8036Z" fill="#E4007F"/>
<path d="M118.715 11.5186C119.385 11.7027 119.786 11.8329 120.32 12.0551C120.325 12.0573 120.329 12.0596 120.334 12.0596C120.338 12.0596 120.341 12.0618 120.343 12.0641C120.357 12.0708 120.368 12.0753 120.379 12.0775C120.388 12.082 120.397 12.0865 120.406 12.091C120.409 12.091 120.411 12.0932 120.413 12.0932C120.42 12.0955 120.424 12.0977 120.431 12.1C120.44 12.1022 120.452 12.1067 120.463 12.1134C120.472 12.1179 120.481 12.1202 120.488 12.1247C120.504 12.1291 120.517 12.1359 120.533 12.1426C120.612 12.174 120.687 12.2055 120.759 12.2369C120.83 12.2683 120.898 12.2997 120.97 12.3312C121.122 12.4007 121.28 12.4793 121.472 12.5758C121.649 12.6633 121.826 12.7127 121.975 12.715C122.124 12.7195 122.244 12.6791 122.301 12.5893C122.412 12.412 122.21 12.0977 121.841 11.9114C121.536 11.7565 121.314 11.6511 121.076 11.55C121.047 11.5388 121.017 11.5254 120.99 11.5141C120.977 11.5074 120.963 11.5007 120.95 11.4962C120.938 11.4917 120.927 11.4872 120.916 11.4805C120.893 11.4737 120.873 11.4648 120.852 11.4558C120.845 11.4535 120.839 11.449 120.832 11.4468C120.814 11.4401 120.798 11.4333 120.78 11.4266C120.768 11.4199 120.757 11.4154 120.746 11.4109C120.119 11.146 119.691 11.0069 118.937 10.8004C118.537 10.6881 118.165 10.7802 118.113 10.9822C118.088 11.0809 118.145 11.1909 118.254 11.2874C118.362 11.3817 118.525 11.467 118.715 11.5186Z" fill="#E4007F"/>
<path d="M112.273 7.33702C111.775 7.39314 111.404 7.62208 111.44 7.82634C111.458 7.92959 111.571 8.0059 111.739 8.05079C111.906 8.09568 112.128 8.1069 112.368 8.08221C115.132 7.96325 117.142 8.1316 119.845 8.71069C120.866 9.00472 121.364 9.18878 122.326 9.62646C122.543 9.72522 122.758 9.78358 122.932 9.79256C123.107 9.80378 123.238 9.76563 123.29 9.6736C123.394 9.49179 123.12 9.15735 122.668 8.95086C121.737 8.52664 121.219 8.33136 120.298 8.05977C120.307 8.06201 120.316 8.06201 120.322 8.06426C120.304 8.05977 120.289 8.05528 120.275 8.05079C120.275 8.05079 120.273 8.05079 120.27 8.05079C120.257 8.0463 120.245 8.04181 120.234 8.03957C120.212 8.03059 120.187 8.02386 120.157 8.01712C120.169 8.02161 120.182 8.02386 120.193 8.02835C117.633 7.27642 114.926 7.04748 112.273 7.33702Z" fill="#E4007F"/>
<path d="M57.3877 86.9354C57.3877 86.9624 57.39 86.9893 57.3922 87.0162C57.3945 87.0432 57.3967 87.0701 57.4013 87.0925C57.3967 87.0387 57.3922 86.987 57.3877 86.9354Z" fill="#E4007F"/>
<path d="M53.732 95.4422C53.8338 95.2358 53.7795 94.825 53.6414 94.4434C53.5237 94.1202 53.4128 93.7925 53.3087 93.4626C52.9261 92.2528 52.6341 91.0115 52.4304 89.7523C52.2289 88.4931 52.1157 87.216 52.0954 85.9366C52.075 84.6976 52.1384 83.4586 52.2855 82.2308C52.3398 81.7707 52.2765 81.3195 52.0976 81.1759C51.9528 81.0592 51.783 81.1445 51.6472 81.3644C51.5408 81.535 51.457 81.7842 51.4231 82.067C51.2669 83.3554 51.199 84.6572 51.2193 85.9568C51.242 87.2856 51.3574 88.6143 51.5679 89.9229C51.7785 91.2315 52.0818 92.5221 52.4802 93.779C52.5911 94.1292 52.7088 94.4771 52.8356 94.8228C52.9329 95.0899 53.0687 95.3076 53.2113 95.4445C53.4173 95.6398 53.6233 95.6645 53.732 95.4422Z" fill="#E4007F"/>
<path d="M57.1615 88.8051C57.3991 88.758 57.5372 88.3854 57.4874 87.9701C57.3991 87.2451 57.3493 86.5156 57.338 85.7862C57.338 85.7615 57.338 85.7368 57.338 85.7121C57.3335 85.2924 57.1479 84.9467 56.9057 84.9377C56.7857 84.9332 56.6725 85.0185 56.591 85.1599C56.5095 85.3013 56.4597 85.5034 56.462 85.7256C56.471 86.5201 56.5231 87.3147 56.6182 88.1025C56.6453 88.3225 56.72 88.5133 56.8196 88.6412C56.9192 88.7647 57.0415 88.8275 57.1615 88.8051Z" fill="#E4007F"/>
<path d="M59.203 83.3845C59.2121 83.3037 59.2211 83.2229 59.2324 83.1443C59.2324 83.1309 59.2347 83.1196 59.237 83.1084C59.237 83.1039 59.237 83.0994 59.2392 83.0972C59.289 82.857 59.3682 82.4463 59.4746 81.7056V81.7033C59.4882 81.6225 59.5063 81.544 59.5244 81.4632C59.5493 81.3509 59.5765 81.2365 59.6037 81.1242C59.6105 81.1018 59.615 81.0793 59.6195 81.0569C59.6263 81.03 59.6331 81.003 59.6399 80.9761C59.6467 80.9492 59.6557 80.92 59.6625 80.8908C59.692 80.7808 59.7214 80.6708 59.7531 80.5609C59.7531 80.5541 59.7553 80.5474 59.7576 80.5407C59.7983 80.3948 59.8391 80.2511 59.8844 80.1075C59.9274 79.9705 59.9704 79.8336 60.0157 79.699C60.0202 79.6855 60.0247 79.672 60.0292 79.6586C60.0768 79.5216 60.1243 79.387 60.1741 79.2523C60.2194 79.1243 60.2692 78.9964 60.319 78.8707C60.3235 78.8572 60.328 78.846 60.3348 78.8326C60.3892 78.6934 60.4457 78.5542 60.5069 78.4173C60.5657 78.2804 60.6268 78.1435 60.6902 78.0066C60.7423 77.8943 60.7943 77.7821 60.8509 77.6699C60.8758 77.616 60.9053 77.5599 60.9347 77.5038C60.9505 77.4679 60.9686 77.432 60.989 77.396C60.9981 77.3758 61.0094 77.3556 61.0207 77.3354C61.023 77.3287 61.0275 77.3242 61.0298 77.3175C61.779 75.964 62.929 74.413 64.7467 72.7341C64.7376 72.7408 64.7263 72.7476 64.7172 72.7566C64.7331 72.7409 64.7512 72.7274 64.767 72.7139C64.7602 72.7206 64.7534 72.7274 64.7467 72.7341C67.1733 70.7701 70.3831 69.5491 74.3739 69.5491H84.4878V59.5317H74.3739C73.5115 59.5317 72.6694 59.5676 71.8522 59.6349C71.8296 59.6372 71.8069 59.6394 71.7843 59.6417C71.5738 59.6596 71.3655 59.6798 71.1573 59.7023C70.9603 59.7225 70.7634 59.7472 70.5665 59.7718C70.4872 59.7831 70.4103 59.792 70.3333 59.8033C70.1749 59.8257 70.0187 59.8482 69.8647 59.8728C69.8036 59.8818 69.7402 59.8908 69.6769 59.9043C69.5659 59.92 69.455 59.9379 69.3441 59.9604C69.2603 59.9739 69.1766 59.9896 69.0928 60.0053C69.0498 60.012 69.0046 60.021 68.9615 60.03C68.8212 60.0547 68.6831 60.0838 68.545 60.113C68.5043 60.122 68.4635 60.1287 68.4228 60.1399C68.3934 60.1444 68.3662 60.1512 68.3368 60.1579C68.1851 60.1893 68.0357 60.223 67.8863 60.2612C67.8433 60.2701 67.8003 60.2791 67.7573 60.2926C67.4562 60.3622 67.162 60.4407 66.8699 60.5238C66.75 60.5574 66.63 60.5911 66.5123 60.627C66.4534 60.6427 66.3968 60.6607 66.3403 60.6786C66.2588 60.7033 66.1795 60.728 66.1003 60.7527L65.9305 60.8066C65.7721 60.8582 65.6159 60.9121 65.4597 60.9659C65.4461 60.9704 65.4303 60.9772 65.4144 60.9817C65.3918 60.9906 65.3669 60.9996 65.342 61.0086C65.2084 61.0557 65.0749 61.1029 64.9436 61.1545C64.8961 61.1702 64.8463 61.1904 64.7987 61.2084C64.7919 61.2106 64.7851 61.2128 64.7783 61.2151C64.6063 61.2824 64.4365 61.3498 64.2668 61.4216C64.2554 61.4238 64.2419 61.4283 64.2305 61.4351C64.2238 61.4351 64.2192 61.4395 64.2124 61.4418C64.0336 61.5159 63.857 61.5899 63.6827 61.6685C63.4994 61.7493 63.3183 61.8323 63.1372 61.9176C63.1349 61.9199 63.1327 61.9221 63.1304 61.9221C62.9493 62.0097 62.7682 62.0972 62.5894 62.1892C62.4423 62.2633 62.2951 62.3396 62.1525 62.4182C62.1208 62.4339 62.0891 62.4518 62.0597 62.4675C62.0507 62.472 62.0439 62.4743 62.0371 62.481C61.9284 62.5394 61.8198 62.6 61.7134 62.6606C61.7043 62.6651 61.6953 62.6696 61.6885 62.6763C59.0378 64.0702 57.6139 65.5695 56.6225 66.6132C56.6021 66.6357 56.5794 66.6581 56.5591 66.6806C56.5545 66.6828 56.5523 66.6873 56.55 66.6895L56.5296 66.7097C56.4074 66.8377 56.292 66.9589 56.181 67.0711C56.1629 67.0958 56.1426 67.1227 56.1245 67.1474C56.1222 67.1497 56.1222 67.1519 56.1199 67.1519C56.0882 67.1878 56.0565 67.2237 56.0271 67.2597C55.923 67.3741 55.8211 67.4909 55.7215 67.6076C55.674 67.6614 55.6265 67.7175 55.5834 67.7714C55.4839 67.8881 55.3865 68.0048 55.2914 68.1238C55.2756 68.1418 55.262 68.1597 55.2484 68.1777C55.2258 68.2046 55.2054 68.2293 55.1873 68.2562C55.1013 68.3617 55.0175 68.4672 54.9383 68.575C54.8908 68.6356 54.8432 68.6962 54.798 68.7568C54.7866 68.7702 54.7753 68.7837 54.7663 68.7994C54.4652 69.1069 54.4041 69.1204 54.4494 69.2304C45.6574 81.5148 48.5028 101.933 62.9878 108.954C66.2067 110.517 70.0028 111.414 74.3739 111.414H83.2655V101.366H73.2919C62.9991 100.775 58.2998 91.7656 59.1917 83.4833C59.1962 83.4496 59.1985 83.4182 59.203 83.3845ZM60.199 76.9786C60.1673 77.0392 60.1356 77.0998 60.1062 77.1626C59.9251 77.4566 59.6512 77.6138 59.4497 77.5083C59.246 77.4005 59.1962 77.0392 59.3479 76.6845C59.3569 76.6643 59.3683 76.6396 59.3796 76.6172C59.3932 76.5925 59.4045 76.57 59.418 76.5476C59.6105 76.2177 59.9206 76.065 60.113 76.193C60.3054 76.3187 60.3303 76.6553 60.199 76.9786ZM60.4593 66.8085C60.8985 66.4606 61.3851 66.3686 61.5255 66.5796C61.6545 66.7703 61.4734 67.1272 61.1339 67.4392C61.0954 67.4751 61.0569 67.511 61.0094 67.547C60.9686 67.5806 60.9256 67.6121 60.8826 67.6412C60.5046 67.8994 60.1288 67.9824 59.984 67.8073C59.8232 67.6121 60.027 67.1542 60.4593 66.8085ZM60.0179 100.654C59.9319 100.746 59.7848 100.757 59.615 100.699C59.4475 100.638 59.2573 100.504 59.0943 100.315C57.632 98.6362 56.4776 96.7171 55.6242 94.6566C55.5291 94.4254 55.4024 94.2346 55.2711 94.1134C55.1375 93.9922 55.0017 93.9406 54.8885 93.99C54.6644 94.0843 54.6259 94.5646 54.8274 95.0472C55.88 97.5947 57.3785 99.938 59.3252 101.898C59.6919 102.268 59.8776 102.71 59.7169 102.903C59.6354 103 59.4837 103.015 59.2981 102.957C59.1147 102.896 58.9019 102.762 58.7118 102.569C57.2019 101.049 55.9524 99.3118 54.9587 97.4264C54.8342 97.1885 54.6803 96.9932 54.5309 96.872C54.3837 96.753 54.2389 96.7081 54.1302 96.7665C53.9151 96.8855 53.9333 97.3972 54.1981 97.8978C55.013 99.442 55.9932 100.892 57.1408 102.212C57.5098 102.636 57.6886 103.114 57.5189 103.298C57.4328 103.388 57.2721 103.388 57.0865 103.307C56.8986 103.226 56.6836 103.067 56.4912 102.845C50.4812 95.9383 48.8763 85.5527 51.6764 76.7878C51.6787 76.7833 51.6787 76.781 51.6809 76.7765C52.48 74.2784 53.639 71.9104 55.1534 69.7938C55.3231 69.5558 55.5223 69.3763 55.6989 69.2798C55.8755 69.1832 56.0339 69.1675 56.1267 69.2506C56.3123 69.4189 56.1788 69.9082 55.8528 70.3661C54.06 72.8665 52.7879 75.7328 52.0363 78.7518C51.8982 79.3039 51.9956 79.8044 52.231 79.8628C52.3487 79.892 52.48 79.8112 52.5954 79.6541C52.7109 79.4992 52.8128 79.2702 52.8784 79.0054C53.8586 75.0842 55.7464 71.43 58.5466 68.5435C58.7367 68.3483 58.9472 68.2113 59.1306 68.1507C59.3117 68.0879 59.4656 68.1036 59.5471 68.1979C59.7101 68.3909 59.5312 68.8331 59.1691 69.2079C54.7029 73.8115 52.6475 80.4441 53.0052 86.9129C53.0074 86.9309 53.0052 86.9444 53.0074 86.9623C53.0459 87.6357 53.1093 88.3068 53.1998 88.9757C53.2406 89.2719 53.2859 89.566 53.3357 89.86C53.3945 90.2012 53.4602 90.5401 53.5326 90.8768C53.5892 91.1349 53.6888 91.3549 53.8065 91.4985C53.9242 91.6444 54.0555 91.7118 54.1709 91.6759C54.4041 91.6018 54.4901 91.1484 54.3837 90.6568C54.3158 90.3336 54.2524 90.0082 54.1958 89.6827C54.1483 89.3999 54.103 89.1171 54.0645 88.832C54.0419 88.6637 54.0215 88.4931 54.0012 88.3225C53.9989 88.3068 54.0012 88.2911 53.9989 88.2754C53.356 82.5989 54.6735 76.6531 57.9512 72.0765C58.0961 71.8745 58.2704 71.7241 58.4311 71.65C58.5918 71.5737 58.739 71.5714 58.8318 71.6545C59.0151 71.8228 58.9268 72.2605 58.6507 72.6466C55.9819 76.3748 54.6689 81.0524 54.7165 85.7143C54.7414 88.2619 55.1737 90.8072 56.0113 93.1864C56.8488 95.5679 58.0938 97.7878 59.744 99.6844C60.0564 100.044 60.1877 100.472 60.0179 100.654ZM61.7179 104.501C61.5798 104.714 61.0886 104.627 60.6472 104.283C60.2081 103.945 59.9998 103.487 60.1583 103.291C60.3009 103.112 60.6789 103.193 61.0592 103.449C61.0637 103.451 61.066 103.453 61.0705 103.455C61.1475 103.516 61.2267 103.576 61.3059 103.637C61.3082 103.639 61.3127 103.644 61.315 103.646C61.659 103.954 61.8447 104.31 61.7179 104.501ZM61.8266 96.5263C61.8492 96.551 61.8696 96.5757 61.8899 96.6004C61.9103 96.6251 61.9307 96.6543 61.9488 96.6812C62.1457 96.973 62.1865 97.3097 62.0212 97.4735C61.8537 97.6374 61.5164 97.5498 61.2607 97.267C61.2425 97.2491 61.2267 97.2266 61.2086 97.2064C61.1927 97.1862 61.1769 97.166 61.1656 97.1458C60.946 96.8316 60.9256 96.4657 61.1067 96.3176C61.2878 96.1739 61.5911 96.2727 61.8266 96.5263ZM60.1311 94.7846C60.3235 94.6611 60.6132 94.7935 60.8192 95.0719C60.8373 95.0988 60.8577 95.1235 60.8736 95.1527C60.8894 95.1796 60.9075 95.211 60.9234 95.2402C61.0841 95.5522 61.0886 95.8889 60.9075 96.0325C60.7242 96.1784 60.4027 96.055 60.1809 95.7452C60.165 95.725 60.1515 95.7026 60.1379 95.6801V95.6779C60.1243 95.6554 60.1107 95.6353 60.0994 95.615C59.9183 95.2761 59.9364 94.9103 60.1311 94.7846ZM59.1306 79.5643C57.752 83.8177 57.9218 88.648 59.6399 92.7577C59.7893 93.1214 59.7508 93.5052 59.5358 93.6264C59.4271 93.6847 59.2958 93.6645 59.1691 93.5792C59.0423 93.4962 58.9223 93.3458 58.8408 93.1528C58.5669 92.4929 58.3292 91.8173 58.13 91.1282C58.0712 90.9262 57.9761 90.7578 57.8652 90.6501C57.7543 90.5401 57.6275 90.4885 57.5121 90.5244C57.2767 90.5917 57.1725 90.9935 57.2948 91.4177C58.0418 93.9967 59.2936 96.4074 61.0433 98.4207C61.3286 98.7484 61.4372 99.1502 61.2652 99.3343C61.1792 99.424 61.0388 99.442 60.8804 99.3926C60.7219 99.3432 60.5431 99.2265 60.3937 99.0537C57.9195 96.2099 56.4006 92.6141 55.837 88.8455C55.0243 83.4114 56.1946 77.6205 59.3479 73.2167C59.4814 73.0304 59.6467 72.898 59.7983 72.8351C59.95 72.77 60.0903 72.7745 60.1832 72.8576C60.3688 73.0237 60.2986 73.4344 60.0473 73.7868C58.13 76.4668 56.9801 79.6832 56.6021 83.0074C56.5523 83.4473 56.7221 83.8222 56.962 83.8424C57.082 83.8559 57.1974 83.7795 57.288 83.6494C57.3785 83.5192 57.4464 83.3351 57.4691 83.1264C57.6207 81.8088 57.8969 80.507 58.3021 79.2523C58.3677 79.0548 58.4741 78.8932 58.5941 78.7966C58.7118 78.7001 58.8431 78.6687 58.954 78.7181C59.1781 78.8168 59.246 79.1917 59.1306 79.5643Z" fill="#E4007F"/>
<path d="M167.43 101.586H143.449V111.414H167.43V101.586Z" fill="#E4007F"/>
<path d="M163.259 59.4419C163.135 59.4419 163.021 59.4912 162.94 59.572C162.858 59.6528 162.809 59.7651 162.809 59.8885C162.809 60.1354 163.01 60.3352 163.259 60.3352H167.44V59.4419H163.259Z" fill="#E4007F"/>
<path d="M163.366 61.3587C163.284 61.4395 163.234 61.5518 163.234 61.6752C163.234 61.9221 163.436 62.1219 163.685 62.1219H167.44V61.2285H163.685C163.56 61.2285 163.447 61.2779 163.366 61.3587Z" fill="#E4007F"/>
<path d="M162.39 63.1431C162.309 63.2239 162.259 63.3362 162.259 63.4596C162.259 63.7065 162.46 63.9063 162.709 63.9063H167.44V63.0129H162.709C162.585 63.0129 162.472 63.0623 162.39 63.1431Z" fill="#E4007F"/>
<path d="M163.723 66.7142C163.642 66.795 163.592 66.9072 163.592 67.0307C163.592 67.2776 163.793 67.4773 164.042 67.4773H167.44V66.584H164.042C163.918 66.584 163.805 66.6334 163.723 66.7142Z" fill="#E4007F"/>
<path d="M164.9 68.5076C164.818 68.5884 164.769 68.7006 164.769 68.8241C164.769 69.071 164.97 69.2707 165.219 69.2707H167.44V68.3774H165.219C165.095 68.3774 164.981 68.4268 164.9 68.5076Z" fill="#E4007F"/>
<path d="M157.835 64.3552C157.835 64.2317 157.885 64.1195 157.966 64.0387C158.048 63.9579 158.161 63.9085 158.285 63.9085H161.608C161.733 63.9085 161.846 63.8591 161.928 63.7783C162.009 63.6975 162.059 63.5853 162.059 63.4619C162.059 63.215 161.857 63.0152 161.608 63.0152H159.465C159.216 63.0152 159.014 62.8154 159.014 62.5685C159.014 62.4451 159.064 62.3328 159.146 62.252C159.227 62.1712 159.34 62.1219 159.465 62.1219H162.371C162.496 62.1219 162.609 62.0725 162.69 61.9917C162.772 61.9109 162.822 61.7986 162.822 61.6752C162.822 61.4283 162.62 61.2285 162.371 61.2285H158.285C158.036 61.2285 157.835 61.0288 157.835 60.7819C157.835 60.6584 157.885 60.5462 157.966 60.4654C158.048 60.3846 158.161 60.3352 158.285 60.3352H161.615C161.74 60.3352 161.853 60.2858 161.934 60.205C162.016 60.1242 162.066 60.012 162.066 59.8885C162.066 59.6416 161.864 59.4419 161.615 59.4419H150.718H146.605H143.44V69.2707H150.72V69.2663H164.021C164.146 69.2663 164.259 69.2169 164.341 69.1361C164.422 69.0553 164.472 68.943 164.472 68.8196C164.472 68.5727 164.27 68.3729 164.021 68.3729H159.999C159.75 68.3729 159.548 68.1732 159.548 67.9263C159.548 67.8028 159.598 67.6906 159.68 67.6098C159.761 67.529 159.874 67.4796 159.999 67.4796H162.856C162.98 67.4796 163.093 67.4302 163.175 67.3494C163.256 67.2686 163.306 67.1564 163.306 67.0329C163.306 66.786 163.105 66.5863 162.856 66.5863H158.288C158.039 66.5863 157.837 66.3865 157.837 66.1396C157.837 66.0184 157.887 65.9062 157.968 65.8254C158.05 65.7446 158.163 65.6929 158.288 65.6929H167.442V64.8018H158.288C158.036 64.8018 157.835 64.5998 157.835 64.3552ZM158.29 62.1219C158.539 62.1219 158.743 62.3239 158.743 62.5708C158.743 62.7952 158.58 62.9793 158.365 63.0152H158.213C157.998 62.9793 157.835 62.7952 157.835 62.5708C157.835 62.3239 158.039 62.1219 158.29 62.1219ZM158.242 67.4796H158.335C158.564 67.502 158.743 67.6951 158.743 67.9263C158.743 68.1552 158.573 68.3437 158.351 68.3729C158.331 68.3752 158.31 68.3774 158.29 68.3774C158.27 68.3774 158.247 68.3752 158.227 68.3729C158.005 68.3437 157.835 68.1552 157.835 67.9263C157.835 67.6951 158.014 67.502 158.242 67.4796Z" fill="#E4007F"/>
<path d="M160.396 96.0325C160.396 95.8866 160.346 95.7519 160.265 95.6577C160.183 95.5611 160.07 95.5028 159.946 95.5028C159.697 95.5028 159.495 95.7407 159.495 96.0325V100.953H160.396V96.0325Z" fill="#E4007F"/>
<path d="M158.464 96.1583C158.382 96.0617 158.269 96.0034 158.145 96.0034C157.896 96.0034 157.694 96.2413 157.694 96.5331V100.953H158.595V96.5331C158.595 96.3872 158.545 96.2548 158.464 96.1583Z" fill="#E4007F"/>
<path d="M156.662 95.0112C156.581 94.9147 156.468 94.8563 156.343 94.8563C156.094 94.8563 155.893 95.0942 155.893 95.386V100.953H156.794V95.386C156.794 95.2401 156.744 95.1077 156.662 95.0112Z" fill="#E4007F"/>
<path d="M153.063 96.5802C152.981 96.4837 152.868 96.4253 152.743 96.4253C152.494 96.4253 152.293 96.6632 152.293 96.955V100.953H153.194V96.955C153.194 96.8091 153.144 96.6744 153.063 96.5802Z" fill="#E4007F"/>
<path d="M151.253 97.9651C151.172 97.8686 151.058 97.8102 150.934 97.8102C150.685 97.8102 150.483 98.0482 150.483 98.34V100.953H151.384V98.34C151.384 98.1941 151.335 98.0594 151.253 97.9651Z" fill="#E4007F"/>
<path d="M155.441 89.6535C155.565 89.6535 155.678 89.7118 155.76 89.8084C155.841 89.9049 155.891 90.0373 155.891 90.1832V94.0932C155.891 94.2391 155.941 94.3738 156.023 94.468C156.104 94.5646 156.217 94.6229 156.342 94.6229C156.591 94.6229 156.792 94.385 156.792 94.0932V91.5703C156.792 91.2763 156.994 91.0406 157.243 91.0406C157.367 91.0406 157.48 91.099 157.562 91.1955C157.643 91.292 157.693 91.4244 157.693 91.5703V94.9888C157.693 95.1347 157.743 95.2694 157.824 95.3636C157.906 95.4601 158.019 95.5185 158.144 95.5185C158.393 95.5185 158.594 95.2806 158.594 94.9888V90.181C158.594 89.8869 158.795 89.6512 159.044 89.6512C159.169 89.6512 159.282 89.7096 159.364 89.8061C159.445 89.9026 159.495 90.0351 159.495 90.181V94.0977C159.495 94.2436 159.545 94.3783 159.626 94.4725C159.708 94.5691 159.821 94.6274 159.945 94.6274C160.194 94.6274 160.396 94.3895 160.396 94.0977V81.2768V76.4376V69.2685H150.483V81.2768H150.488V96.9258C150.488 97.0717 150.538 97.2064 150.619 97.3007C150.701 97.3972 150.814 97.4555 150.938 97.4555C151.187 97.4555 151.389 97.2176 151.389 96.9258V92.1943C151.389 91.9003 151.59 91.6646 151.839 91.6646C151.964 91.6646 152.077 91.723 152.158 91.8195C152.24 91.916 152.29 92.0484 152.29 92.1943V95.5544C152.29 95.7003 152.34 95.835 152.421 95.9292C152.503 96.0258 152.616 96.0841 152.74 96.0841C152.989 96.0841 153.191 95.8462 153.191 95.5544V90.181C153.191 89.8869 153.392 89.6512 153.641 89.6512C153.763 89.6512 153.877 89.7096 153.958 89.8061C154.04 89.9026 154.092 90.0351 154.092 90.181V100.95H154.99V90.181C154.99 89.8892 155.194 89.6535 155.441 89.6535ZM157.693 90.1877C157.693 90.4817 157.489 90.7197 157.24 90.7197C157.014 90.7197 156.828 90.5289 156.792 90.2752V90.0979C156.828 89.8443 157.014 89.6535 157.24 89.6535C157.489 89.6535 157.693 89.8937 157.693 90.1877ZM152.29 90.1316V90.2416C152.267 90.5109 152.072 90.7219 151.839 90.7219C151.608 90.7219 151.418 90.5221 151.389 90.2618C151.387 90.2371 151.384 90.2146 151.384 90.1899C151.384 90.1652 151.387 90.1383 151.389 90.1159C151.418 89.8555 151.608 89.6557 151.839 89.6557C152.072 89.6535 152.267 89.8622 152.29 90.1316Z" fill="#E4007F"/>
<path d="M232.427 105.965C232.178 105.965 231.977 106.203 231.977 106.494V111.414H232.877V106.494C232.877 106.348 232.828 106.214 232.746 106.12C232.665 106.025 232.552 105.965 232.427 105.965Z" fill="#E4007F"/>
<path d="M230.626 106.467C230.377 106.467 230.176 106.705 230.176 106.997V111.417H231.077V106.997C231.077 106.851 231.027 106.717 230.945 106.622C230.864 106.526 230.751 106.467 230.626 106.467Z" fill="#E4007F"/>
<path d="M228.827 105.318C228.578 105.318 228.377 105.556 228.377 105.848V111.414H229.278V105.848C229.278 105.702 229.228 105.567 229.147 105.473C229.065 105.377 228.952 105.318 228.827 105.318Z" fill="#E4007F"/>
<path d="M225.225 106.887C224.976 106.887 224.774 107.125 224.774 107.417V111.414H225.675V107.417C225.675 107.271 225.626 107.136 225.544 107.042C225.463 106.946 225.349 106.887 225.225 106.887Z" fill="#E4007F"/>
<path d="M223.416 108.272C223.167 108.272 222.966 108.51 222.966 108.802V111.414H223.867V108.802C223.867 108.656 223.817 108.521 223.735 108.427C223.654 108.33 223.541 108.272 223.416 108.272Z" fill="#E4007F"/>
<path d="M266.469 63.5023C266.469 63.3564 266.419 63.2217 266.337 63.1274C266.256 63.0309 266.143 62.9726 266.018 62.9726C265.769 62.9726 265.568 63.2082 265.568 63.5023V68.2338C265.568 68.5278 265.366 68.7635 265.117 68.7635C264.993 68.7635 264.88 68.7051 264.798 68.6086C264.717 68.5144 264.667 68.3797 264.667 68.2338V64.8737C264.667 64.7278 264.617 64.5931 264.536 64.4989C264.454 64.4023 264.341 64.344 264.216 64.344C263.967 64.344 263.766 64.5797 263.766 64.8737V70.2472C263.766 70.5412 263.564 70.7769 263.315 70.7769C263.193 70.7769 263.08 70.7185 262.999 70.622C262.917 70.5277 262.865 70.393 262.865 70.2472V59.4778H261.966V70.2472C261.966 70.5412 261.763 70.7769 261.516 70.7769C261.391 70.7769 261.278 70.7185 261.197 70.622C261.115 70.5277 261.065 70.393 261.065 70.2472V66.3371C261.065 66.1913 261.016 66.0588 260.934 65.9623C260.853 65.8658 260.739 65.8074 260.615 65.8074C260.366 65.8074 260.164 66.0454 260.164 66.3371V68.86C260.164 69.1518 259.963 69.3897 259.714 69.3897C259.59 69.3897 259.476 69.3314 259.395 69.2349C259.313 69.1406 259.264 69.0059 259.264 68.86V65.4416C259.264 65.2934 259.214 65.161 259.132 65.0645C259.051 64.9702 258.938 64.9096 258.813 64.9096C258.564 64.9096 258.363 65.1475 258.363 65.4416V70.2472C258.363 70.5412 258.161 70.7769 257.912 70.7769C257.788 70.7769 257.674 70.7185 257.593 70.622C257.511 70.5277 257.462 70.393 257.462 70.2472V66.3304C257.462 66.1845 257.412 66.0498 257.33 65.9556C257.249 65.8591 257.136 65.8007 257.011 65.8007C256.762 65.8007 256.561 66.0364 256.561 66.3304V94.4479L256.174 93.9069L232.876 61.4171L232.489 60.8762L231.462 59.4419H222.964V64.555V91.741H222.968V107.39C222.968 107.536 223.018 107.668 223.1 107.765C223.181 107.861 223.294 107.92 223.419 107.92C223.668 107.92 223.869 107.682 223.869 107.39V102.656C223.869 102.364 224.071 102.126 224.32 102.126C224.444 102.126 224.557 102.185 224.639 102.281C224.72 102.378 224.77 102.51 224.77 102.656V106.019C224.77 106.164 224.82 106.297 224.902 106.393C224.983 106.49 225.096 106.548 225.221 106.548C225.47 106.548 225.671 106.31 225.671 106.019V100.643C225.671 100.351 225.873 100.113 226.122 100.113C226.244 100.113 226.357 100.171 226.439 100.268C226.52 100.365 226.572 100.497 226.572 100.643V111.414H227.471V100.643C227.471 100.351 227.675 100.113 227.921 100.113C228.046 100.113 228.159 100.171 228.24 100.268C228.322 100.365 228.372 100.497 228.372 100.643V104.553C228.372 104.699 228.422 104.833 228.503 104.928C228.584 105.024 228.698 105.083 228.822 105.083C229.071 105.083 229.273 104.847 229.273 104.553V102.032C229.273 101.738 229.474 101.5 229.723 101.5C229.848 101.5 229.961 101.561 230.042 101.655C230.124 101.752 230.174 101.884 230.174 102.032V105.451C230.174 105.597 230.223 105.731 230.305 105.826C230.386 105.922 230.5 105.98 230.624 105.98C230.873 105.98 231.074 105.745 231.074 105.451V100.643C231.074 100.351 231.276 100.113 231.525 100.113C231.649 100.113 231.763 100.171 231.844 100.268C231.926 100.365 231.975 100.497 231.975 100.643V104.562C231.975 104.708 232.025 104.84 232.107 104.937C232.188 105.033 232.301 105.092 232.426 105.092C232.675 105.092 232.876 104.854 232.876 104.562V78.3792L256.174 110.869L256.561 111.41V111.414H256.565H266.473V108.27V79.1513H266.469V63.5023ZM224.77 100.703C224.748 100.971 224.553 101.182 224.32 101.182C224.089 101.182 223.899 100.982 223.869 100.721C223.867 100.697 223.865 100.674 223.865 100.65C223.865 100.625 223.867 100.598 223.869 100.575C223.899 100.313 224.089 100.113 224.32 100.113C224.553 100.113 224.748 100.324 224.77 100.593V100.703ZM229.721 101.182C229.494 101.182 229.309 100.991 229.273 100.737V100.558C229.309 100.306 229.494 100.113 229.721 100.113C229.97 100.113 230.174 100.353 230.174 100.65C230.174 100.941 229.97 101.182 229.721 101.182ZM264.667 70.1888C264.689 69.9195 264.884 69.7085 265.117 69.7085C265.348 69.7085 265.538 69.9082 265.568 70.1708C265.57 70.1933 265.572 70.218 265.572 70.2427C265.572 70.2651 265.57 70.292 265.568 70.3167C265.538 70.5771 265.348 70.7769 265.117 70.7769C264.884 70.7769 264.689 70.5659 264.667 70.2988V70.1888ZM259.716 69.7085C259.943 69.7085 260.128 69.9015 260.164 70.1551V70.3324C260.128 70.5861 259.943 70.7769 259.716 70.7769C259.467 70.7769 259.264 70.5367 259.264 70.2427C259.264 69.9486 259.467 69.7085 259.716 69.7085Z" fill="#E4007F"/>
<path d="M257.012 64.9276C257.261 64.9276 257.462 64.6897 257.462 64.3956V59.4778H256.562V64.3956C256.562 64.5438 256.611 64.6762 256.693 64.7727C256.774 64.867 256.887 64.9276 257.012 64.9276Z" fill="#E4007F"/>
<path d="M258.812 64.4248C259.061 64.4248 259.262 64.1891 259.262 63.8951V59.4778H258.361V63.8951C258.361 64.0432 258.411 64.1757 258.493 64.2722C258.574 64.3664 258.687 64.4248 258.812 64.4248Z" fill="#E4007F"/>
<path d="M260.614 65.574C260.863 65.574 261.064 65.3361 261.064 65.0443V59.4778H260.163V65.0443C260.163 65.1902 260.213 65.3226 260.294 65.4191C260.376 65.5157 260.489 65.574 260.614 65.574Z" fill="#E4007F"/>
<path d="M264.213 64.0051C264.462 64.0051 264.664 63.7671 264.664 63.4754V59.4778H263.763V63.4754C263.763 63.6213 263.813 63.7559 263.894 63.8502C263.975 63.9467 264.089 64.0051 264.213 64.0051Z" fill="#E4007F"/>
<path d="M265.572 59.4778V62.0905C265.572 62.2364 265.622 62.371 265.704 62.4653C265.785 62.5618 265.898 62.6202 266.023 62.6202C266.272 62.6202 266.473 62.3823 266.473 62.0905V59.4778H265.572Z" fill="#E4007F"/>
<path d="M17.1247 98.9303C17.2492 98.9303 17.3623 98.8809 17.4438 98.8001C17.5253 98.7193 17.5751 98.6071 17.5751 98.4837C17.5751 98.2368 17.3737 98.037 17.1247 98.037H14.9629V98.9303H17.1247Z" fill="#E4007F"/>
<path d="M17.0183 97.0135C17.0998 96.9326 17.1496 96.8204 17.1496 96.697C17.1496 96.4501 16.9481 96.2503 16.6991 96.2503H14.9629V97.1436H16.6991C16.8236 97.1436 16.9368 97.0943 17.0183 97.0135Z" fill="#E4007F"/>
<path d="M17.9939 95.229C18.0754 95.1482 18.1252 95.036 18.1252 94.9125C18.1252 94.6656 17.9237 94.4659 17.6747 94.4659H14.9629V95.3592H17.6747C17.7992 95.3592 17.9124 95.3098 17.9939 95.229Z" fill="#E4007F"/>
<path d="M16.6606 91.658C16.7421 91.5771 16.7919 91.4649 16.7919 91.3415C16.7919 91.0946 16.5904 90.8948 16.3414 90.8948H14.9629V91.7881H16.3414C16.4659 91.7881 16.5791 91.7388 16.6606 91.658Z" fill="#E4007F"/>
<path d="M15.4835 89.8646C15.565 89.7838 15.6148 89.6716 15.6148 89.5481C15.6148 89.3012 15.4134 89.1014 15.1644 89.1014H14.9629V89.9948H15.1644C15.2889 89.9948 15.402 89.9454 15.4835 89.8646Z" fill="#E4007F"/>
<path d="M22.5483 94.017C22.5483 94.1404 22.4985 94.2526 22.417 94.3334C22.3356 94.4142 22.2224 94.4636 22.0979 94.4636H18.7749C18.6504 94.4636 18.5372 94.513 18.4557 94.5938C18.3742 94.6746 18.3244 94.7868 18.3244 94.9103C18.3244 95.1572 18.5259 95.357 18.7749 95.357H20.9185C21.1675 95.357 21.369 95.5567 21.369 95.8036C21.369 95.9271 21.3192 96.0393 21.2377 96.1201C21.1562 96.2009 21.043 96.2503 20.9185 96.2503H18.012C17.8875 96.2503 17.7743 96.2997 17.6928 96.3805C17.6113 96.4613 17.5615 96.5735 17.5615 96.697C17.5615 96.9439 17.763 97.1436 18.012 97.1436H22.0979C22.3469 97.1436 22.5483 97.3434 22.5483 97.5903C22.5483 97.7137 22.4985 97.826 22.417 97.9068C22.3356 97.9876 22.2224 98.037 22.0979 98.037H18.7681C18.6436 98.037 18.5304 98.0863 18.4489 98.1671C18.3674 98.2479 18.3176 98.3602 18.3176 98.4836C18.3176 98.7305 18.5191 98.9303 18.7681 98.9303H33.7782V89.1059H16.3641C16.2396 89.1059 16.1264 89.1553 16.0449 89.2361C15.9634 89.3169 15.9136 89.4291 15.9136 89.5526C15.9136 89.7995 16.1151 89.9992 16.3641 89.9992H20.3866C20.6356 89.9992 20.837 90.199 20.837 90.4459C20.837 90.5693 20.7872 90.6816 20.7057 90.7624C20.6242 90.8432 20.5111 90.8926 20.3866 90.8926H17.5299C17.4054 90.8926 17.2922 90.9419 17.2107 91.0227C17.1292 91.1035 17.0794 91.2158 17.0794 91.3392C17.0794 91.5861 17.2809 91.7859 17.5299 91.7859H22.0979C22.3469 91.7859 22.5483 91.9857 22.5483 92.2326C22.5483 92.3538 22.4985 92.466 22.417 92.5468C22.3356 92.6276 22.2224 92.6792 22.0979 92.6792H14.9629V93.5703H22.0979C22.3469 93.5703 22.5483 93.7723 22.5483 94.017ZM22.0933 96.2503C21.8443 96.2503 21.6406 96.0483 21.6406 95.8014C21.6406 95.5769 21.8036 95.3929 22.0186 95.357H22.1703C22.3854 95.3929 22.5483 95.5769 22.5483 95.8014C22.5483 96.0483 22.3446 96.2503 22.0933 96.2503ZM22.1409 90.8926H22.0481C21.8194 90.8701 21.6406 90.6771 21.6406 90.4459C21.6406 90.2169 21.8104 90.0284 22.0322 89.9992C22.0526 89.997 22.073 89.9947 22.0933 89.9947C22.1137 89.9947 22.1364 89.997 22.1567 89.9992C22.3786 90.0284 22.5483 90.2169 22.5483 90.4459C22.5483 90.6771 22.3695 90.8701 22.1409 90.8926Z" fill="#E4007F"/>
<path d="M4.11426 79.6395L4.11426 111.416H14.0267L14.0267 79.6395H4.11426Z" fill="#E4007F"/>
<path d="M44.2102 108.824C43.9612 108.824 43.7598 109.024 43.7598 109.271V111.414H44.6607V109.271C44.6607 109.147 44.6109 109.035 44.5294 108.954C44.4479 108.873 44.3347 108.824 44.2102 108.824Z" fill="#E4007F"/>
<path d="M42.4085 109.246C42.1595 109.246 41.958 109.446 41.958 109.693V111.414H42.8589V109.693C42.8589 109.569 42.8091 109.457 42.7276 109.376C42.6462 109.296 42.533 109.246 42.4085 109.246Z" fill="#E4007F"/>
<path d="M40.6087 108.279C40.3597 108.279 40.1582 108.479 40.1582 108.725V111.414H41.0591V108.725C41.0591 108.602 41.0093 108.49 40.9278 108.409C40.8463 108.328 40.7332 108.279 40.6087 108.279Z" fill="#E4007F"/>
<path d="M37.0081 109.601C36.7591 109.601 36.5576 109.801 36.5576 110.047V111.414H37.4585V110.047C37.4585 109.924 37.4087 109.812 37.3273 109.731C37.2458 109.65 37.1326 109.601 37.0081 109.601Z" fill="#E4007F"/>
<path d="M35.1995 110.768C34.9505 110.768 34.749 110.968 34.749 111.215V111.414H35.65V111.215C35.65 111.091 35.6002 110.979 35.5187 110.898C35.4372 110.817 35.324 110.768 35.1995 110.768Z" fill="#E4007F"/>
<path d="M14.0267 79.6406C14.029 73.9664 18.6672 69.3673 24.3897 69.3673C30.1144 69.3673 34.7526 73.9664 34.7549 79.6406V92.7577H34.7503V110.025C34.7503 110.148 34.8001 110.261 34.8816 110.342C34.9631 110.422 35.0763 110.472 35.2008 110.472C35.4498 110.472 35.6513 110.272 35.6513 110.025V106.036C35.6513 105.79 35.8527 105.59 36.1017 105.59C36.2262 105.59 36.3394 105.639 36.4209 105.72C36.5024 105.801 36.5522 105.913 36.5522 106.036V108.869C36.5522 108.993 36.602 109.105 36.6835 109.186C36.765 109.266 36.8781 109.316 37.0026 109.316C37.2516 109.316 37.4531 109.116 37.4531 108.869V104.34C37.4531 104.093 37.6546 103.893 37.9036 103.893C38.0258 103.893 38.139 103.942 38.2205 104.023C38.302 104.104 38.354 104.216 38.354 104.34V111.414H39.2527V104.34C39.2527 104.093 39.4564 103.893 39.7032 103.893C39.8277 103.893 39.9408 103.942 40.0223 104.023C40.1038 104.104 40.1536 104.216 40.1536 104.34V107.635C40.1536 107.758 40.2034 107.87 40.2849 107.951C40.3664 108.032 40.4796 108.081 40.6041 108.081C40.8531 108.081 41.0546 107.882 41.0546 107.635V105.509C41.0546 105.262 41.256 105.062 41.505 105.062C41.6295 105.062 41.7427 105.112 41.8242 105.193C41.9057 105.273 41.9555 105.386 41.9555 105.509V108.391C41.9555 108.514 42.0053 108.627 42.0868 108.708C42.1683 108.788 42.2814 108.838 42.4059 108.838C42.6549 108.838 42.8564 108.638 42.8564 108.391V104.34C42.8564 104.093 43.0579 103.893 43.3069 103.893C43.4314 103.893 43.5446 103.942 43.626 104.023C43.7075 104.104 43.7573 104.216 43.7573 104.34V107.641C43.7573 107.765 43.8071 107.877 43.8886 107.958C43.9701 108.039 44.0833 108.088 44.2078 108.088C44.4568 108.088 44.6583 107.888 44.6583 107.641V99.8348H44.6673V79.6383C44.6673 68.5346 35.5879 59.5317 24.3897 59.5317C13.1914 59.5317 4.11426 68.5346 4.11426 79.6383H14.0267V79.6406Z" fill="#E4007F"/>
<path d="M36.5549 104.389C36.5322 104.616 36.3376 104.793 36.1044 104.793C35.8735 104.793 35.6834 104.625 35.6539 104.405C35.6517 104.384 35.6494 104.364 35.6494 104.344C35.6494 104.324 35.6517 104.301 35.6539 104.281C35.6834 104.061 35.8735 103.893 36.1044 103.893C36.3376 103.893 36.5322 104.07 36.5549 104.297V104.389Z" fill="#E4007F"/>
<path d="M41.5058 104.793C41.2795 104.793 41.0938 104.631 41.0576 104.418V104.268C41.0938 104.054 41.2795 103.893 41.5058 103.893C41.7548 103.893 41.9585 104.095 41.9585 104.344C41.9585 104.591 41.7548 104.793 41.5058 104.793Z" fill="#E4007F"/>
<path d="M194.075 63.8569C182.06 63.8569 172.319 73.5152 172.319 85.427C172.319 97.3411 182.06 106.999 194.075 106.999C206.091 106.999 215.829 97.3411 215.829 85.427C215.829 73.5152 206.091 63.8569 194.075 63.8569ZM196.171 105.253H196.162C193.77 105.509 192.52 105.451 190.012 104.847C189.777 104.791 189.573 104.694 189.435 104.591C189.297 104.488 189.226 104.373 189.249 104.281C189.299 104.093 189.704 104.05 190.157 104.158C192.62 104.564 194.904 104.874 197.391 104.364C197.815 104.286 198.12 104.052 198.08 103.862C198.061 103.767 197.96 103.7 197.815 103.666C197.67 103.633 197.477 103.63 197.274 103.668C193.91 104.283 190.981 103.68 187.789 102.663C187.569 102.573 187.384 102.452 187.264 102.331C187.144 102.21 187.092 102.088 187.13 101.999C187.205 101.821 187.606 101.835 188.029 102.005C194.784 104.099 200.167 102.993 205.744 98.7282C206.041 98.4679 206.168 98.1312 206.038 97.9898C205.973 97.9202 205.855 97.909 205.722 97.9471C205.588 97.9853 205.434 98.0751 205.291 98.1985C201.015 101.96 196.103 102.943 190.594 102.097C190.39 102.048 190.216 101.96 190.1 101.864C189.982 101.765 189.926 101.657 189.949 101.563C189.998 101.377 190.351 101.316 190.739 101.408C194.222 102.34 198.009 101.678 201.199 100.136C207.154 96.5196 210.647 91.1708 210.647 85.0073C210.647 82.8884 210.235 80.6753 209.368 78.4016C209.192 78.0492 209.176 77.6923 209.348 77.607C209.436 77.5621 209.556 77.5958 209.676 77.6856C209.798 77.7776 209.921 77.928 210.013 78.112C210.987 80.0828 211.267 81.1108 211.496 83.1443C211.519 83.3351 211.573 83.5034 211.648 83.6224C211.722 83.7436 211.815 83.8132 211.913 83.8065C212.11 83.7907 212.248 83.4563 212.202 83.059C212.014 81.0008 211.227 78.644 210.152 76.8775C209.932 76.4982 209.871 76.1144 210.038 76.0179C210.124 75.9685 210.249 76.0022 210.385 76.0964C210.52 76.1929 210.663 76.3523 210.776 76.5498C211.849 78.4061 212.209 79.3735 212.632 81.3105C212.678 81.5148 212.755 81.6943 212.843 81.82C212.931 81.9435 213.033 82.0108 213.128 81.9951C213.323 81.9614 213.422 81.5888 213.33 81.1624C212.981 79.5777 212.712 78.7854 211.949 77.2456C211.745 76.8304 211.7 76.4286 211.874 76.3411C211.96 76.2984 212.087 76.3411 212.22 76.4533C212.352 76.5633 212.49 76.7406 212.596 76.9561C217.714 89.8331 209.665 102.759 196.171 105.253ZM207.109 79.4139C207.277 79.3398 207.528 79.4969 207.671 79.7775C207.68 79.7955 207.689 79.8156 207.698 79.8358C207.707 79.856 207.716 79.874 207.72 79.892C207.827 80.186 207.768 80.4621 207.594 80.5204C207.422 80.581 207.202 80.4262 207.068 80.1703C207.057 80.1478 207.046 80.1232 207.034 80.0985C207.023 80.0738 207.014 80.0468 207.005 80.0222C206.908 79.7528 206.944 79.4879 207.109 79.4139ZM198.731 99.6597C199.048 99.552 199.245 99.3051 199.18 99.1233C199.146 99.0312 199.057 98.9729 198.937 98.9482C198.817 98.9257 198.67 98.9392 198.519 98.9908C197.376 99.3836 196.778 99.5205 195.558 99.6462C195.397 99.662 195.245 99.635 195.137 99.5789C195.026 99.5228 194.958 99.4375 194.951 99.341C194.942 99.1479 195.18 98.9796 195.483 98.9459C203.365 97.2378 207.99 91.5479 207.963 83.5192C207.929 83.2161 208.044 82.9446 208.239 82.9131C208.334 82.8974 208.433 82.9446 208.513 83.0388C208.592 83.1331 208.651 83.2723 208.669 83.4316C208.746 84.0893 208.762 84.4192 208.755 85.0746C208.753 85.234 208.787 85.3776 208.848 85.4831C208.907 85.5886 208.993 85.656 209.09 85.6582C209.285 85.6649 209.461 85.4001 209.463 85.0679C209.536 83.0949 208.997 80.7269 208.078 78.9807C207.917 78.6552 207.913 78.3253 208.087 78.2377C208.173 78.1951 208.289 78.222 208.406 78.3028C208.522 78.3859 208.639 78.5205 208.723 78.6911C211.602 86.446 209.192 93.0787 202.937 98.2838C199.795 100.122 197.154 100.953 193.982 100.953C193.009 100.953 191.986 100.874 190.883 100.724C190.698 100.679 190.537 100.593 190.433 100.499C190.327 100.405 190.275 100.297 190.299 100.205C190.347 100.017 190.673 99.9515 191.028 100.037C194.062 100.448 195.766 100.376 198.731 99.6597ZM192.74 99.2736C192.758 99.0941 192.989 98.9751 193.269 98.9729C193.335 98.9774 193.369 98.9796 193.435 98.9841C193.713 99.0267 193.923 99.1771 193.921 99.3589C193.917 99.5407 193.679 99.6889 193.373 99.6866C193.355 99.6866 193.333 99.6844 193.312 99.6844C193.292 99.6822 193.269 99.6799 193.249 99.6777C192.946 99.6373 192.722 99.4555 192.74 99.2736ZM208.209 81.223V81.2297C208.212 81.232 208.212 81.2342 208.212 81.2365C208.212 81.2365 208.212 81.2387 208.214 81.2387C208.221 81.2611 208.225 81.2813 208.234 81.3105C208.304 81.6046 208.209 81.8672 208.03 81.9098C207.854 81.9525 207.655 81.7796 207.555 81.5193C207.546 81.4946 207.537 81.4699 207.53 81.4452C207.523 81.4205 207.517 81.3936 207.51 81.3689C207.449 81.0973 207.519 80.8437 207.691 80.7853C207.865 80.7292 208.092 80.9065 208.198 81.1916V81.1938C208.205 81.205 208.207 81.214 208.209 81.223ZM209.065 75.2255C209.063 75.2211 209.06 75.2188 209.058 75.2166C208.997 75.1335 208.965 75.0931 208.902 75.0101C208.9 75.0078 208.897 75.0033 208.895 75.0011C208.678 74.6689 208.594 74.3457 208.734 74.2379C208.888 74.1212 209.271 74.3345 209.561 74.7183C209.848 75.0999 209.927 75.5016 209.762 75.6026C209.613 75.6969 209.323 75.5263 209.065 75.2255ZM185.095 100.917C185.184 100.764 185.532 100.811 185.908 100.988C185.951 101.009 185.994 101.029 186.042 101.056C186.082 101.078 186.123 101.103 186.164 101.128C186.515 101.35 186.734 101.615 186.662 101.774C186.583 101.949 186.157 101.92 185.72 101.68C185.279 101.437 185 101.083 185.095 100.917ZM194.075 73.6858C200.615 73.6858 205.916 78.9425 205.916 85.427C205.916 91.9138 200.615 97.1705 194.075 97.1705C187.536 97.1705 182.232 91.9138 182.232 85.427C182.232 78.9425 187.536 73.6858 194.075 73.6858Z" fill="#E4007F"/>
<path d="M205.919 98.5644C205.887 98.5935 205.86 98.6227 205.833 98.6519C205.905 98.5868 205.939 98.5554 206.012 98.4903C205.98 98.5127 205.948 98.5397 205.919 98.5644Z" fill="#E4007F"/>
<path d="M213.691 83.7413C213.677 83.5259 213.621 83.3351 213.544 83.2026C213.467 83.0702 213.37 82.9961 213.272 83.0074C213.075 83.0298 212.955 83.3822 212.982 83.7952C213.053 84.9422 213.037 85.5168 212.917 86.6503C212.795 87.786 212.686 88.3472 212.387 89.447C212.281 89.842 212.331 90.1989 212.518 90.2505C212.613 90.2752 212.724 90.2191 212.824 90.1024C212.926 89.9879 213.019 89.8106 213.073 89.6063C213.383 88.4661 213.496 87.8825 213.623 86.7064C213.748 85.528 213.766 84.9332 213.691 83.7413Z" fill="#E4007F"/>
<path d="M211.945 91.4693C211.78 91.5232 211.592 91.7723 211.47 92.0529C208.864 97.1368 205.609 100.367 200.394 102.791C200.07 102.914 199.794 103.121 199.764 103.298C199.742 103.444 199.862 103.534 200.056 103.552C200.206 103.567 200.403 103.538 200.602 103.462C206.035 100.946 209.421 97.5857 212.131 92.2931C212.214 92.0978 212.253 91.9048 212.244 91.7544C212.233 91.5367 212.126 91.411 211.945 91.4693Z" fill="#E4007F"/>
<path d="M207.05 97.3253C207.184 97.2759 207.336 97.1682 207.467 97.0201C208.051 96.3647 208.325 96.0212 208.834 95.3075C209.325 94.6139 209.554 94.2525 209.968 93.5118C211.161 90.9845 211.765 89.1058 212.234 86.354C212.252 86.1565 212.227 85.9769 212.171 85.8467C212.114 85.7165 212.028 85.6357 211.931 85.6335C211.734 85.629 211.562 85.932 211.528 86.3091C211.075 88.9532 210.498 90.76 209.35 93.1886C208.952 93.9001 208.732 94.2458 208.259 94.9124C207.77 95.5993 207.508 95.9292 206.946 96.5577C206.693 96.8427 206.591 97.1727 206.729 97.3074C206.799 97.3725 206.914 97.377 207.05 97.3253Z" fill="#E4007F"/>
<path d="M201.061 98.515C201.185 98.5194 201.335 98.479 201.48 98.3938C205.301 95.6666 207.431 92.8856 209.011 88.4526C209.194 87.7411 209.264 87.3775 209.357 86.6503C209.377 86.4842 209.355 86.3315 209.3 86.2193C209.246 86.1071 209.162 86.0375 209.065 86.033C208.87 86.0218 208.692 86.2687 208.651 86.5829C208.563 87.2787 208.497 87.6222 208.323 88.3023C207.816 90.4525 206.546 92.8385 205.061 94.4882C205.04 94.5107 205.024 94.5264 205.002 94.5533C205.018 94.5399 205.031 94.5241 205.045 94.5084C203.707 96.0617 202.901 96.7463 201.14 97.7832C200.866 97.9448 200.708 98.2052 200.796 98.378C200.839 98.4633 200.936 98.5127 201.061 98.515Z" fill="#E4007F"/>
<path d="M94.3557 59.4868C94.4802 59.4868 94.5934 59.5362 94.6749 59.617C94.7564 59.6978 94.8062 59.8101 94.8062 59.9335C94.8062 60.1804 94.6047 60.3802 94.3557 60.3802H90.1748V59.4868H94.3557Z" fill="#E4007F"/>
<path d="M94.2494 61.4037C94.3308 61.4845 94.3806 61.5967 94.3806 61.7202C94.3806 61.9671 94.1792 62.1669 93.9302 62.1669H90.1748V61.2735H93.9302C94.0547 61.2735 94.1679 61.3229 94.2494 61.4037Z" fill="#E4007F"/>
<path d="M95.225 63.1881C95.3065 63.2689 95.3563 63.3811 95.3563 63.5046C95.3563 63.7515 95.1548 63.9513 94.9058 63.9513H90.1748V63.0579H94.9058C95.0303 63.0579 95.1435 63.1073 95.225 63.1881Z" fill="#E4007F"/>
<path d="M93.8917 66.7592C93.9732 66.84 94.023 66.9522 94.023 67.0757C94.023 67.3226 93.8215 67.5223 93.5725 67.5223H90.1748V66.629H93.5725C93.697 66.629 93.8102 66.6784 93.8917 66.7592Z" fill="#E4007F"/>
<path d="M92.7146 68.5526C92.7961 68.6334 92.8459 68.7456 92.8459 68.8691C92.8459 69.116 92.6444 69.3157 92.3954 69.3157H90.1748V68.4224H92.3954C92.5199 68.4224 92.6331 68.4718 92.7146 68.5526Z" fill="#E4007F"/>
<path d="M99.7794 64.4002C99.7794 64.2767 99.7296 64.1645 99.6481 64.0837C99.5666 64.0029 99.4535 63.9535 99.329 63.9535H96.0059C95.8814 63.9535 95.7683 63.9041 95.6868 63.8233C95.6053 63.7425 95.5555 63.6303 95.5555 63.5068C95.5555 63.2599 95.7569 63.0602 96.0059 63.0602H98.1496C98.3986 63.0602 98.6001 62.8604 98.6001 62.6135C98.6001 62.4901 98.5503 62.3778 98.4688 62.297C98.3873 62.2162 98.2741 62.1668 98.1496 62.1668H95.2431C95.1186 62.1668 95.0054 62.1175 94.9239 62.0367C94.8424 61.9559 94.7926 61.8436 94.7926 61.7202C94.7926 61.4733 94.9941 61.2735 95.2431 61.2735H99.329C99.578 61.2735 99.7794 61.0737 99.7794 60.8268C99.7794 60.7034 99.7296 60.5912 99.6481 60.5104C99.5666 60.4296 99.4535 60.3802 99.329 60.3802H95.9991C95.8746 60.3802 95.7615 60.3308 95.68 60.25C95.5985 60.1692 95.5487 60.057 95.5487 59.9335C95.5487 59.6866 95.7501 59.4868 95.9991 59.4868H106.896H111.009H133.682V69.3157H106.896V69.3112H93.5952C93.4707 69.3112 93.3575 69.2619 93.276 69.1811C93.1945 69.1003 93.1447 68.988 93.1447 68.8646C93.1447 68.6177 93.3462 68.4179 93.5952 68.4179H97.6176C97.8666 68.4179 98.0681 68.2181 98.0681 67.9712C98.0681 67.8478 98.0183 67.7356 97.9368 67.6548C97.8553 67.574 97.7421 67.5246 97.6176 67.5246H94.7609C94.6364 67.5246 94.5233 67.4752 94.4418 67.3944C94.3603 67.3136 94.3105 67.2014 94.3105 67.0779C94.3105 66.831 94.5119 66.6313 94.7609 66.6313H99.329C99.578 66.6313 99.7794 66.4315 99.7794 66.1846C99.7794 66.0634 99.7296 65.9511 99.6481 65.8703C99.5666 65.7895 99.4535 65.7379 99.329 65.7379H90.1748V64.8468H99.329C99.578 64.8468 99.7794 64.6448 99.7794 64.4002ZM99.3244 62.1668C99.0754 62.1668 98.8717 62.3688 98.8717 62.6157C98.8717 62.8402 99.0347 63.0243 99.2497 63.0602H99.4014C99.6164 63.0243 99.7794 62.8402 99.7794 62.6157C99.7794 62.3688 99.5757 62.1668 99.3244 62.1668ZM99.372 67.5246H99.2792C99.0505 67.547 98.8717 67.7401 98.8717 67.9712C98.8717 68.2002 99.0415 68.3887 99.2633 68.4179C99.2837 68.4202 99.3041 68.4224 99.3244 68.4224C99.3448 68.4224 99.3674 68.4202 99.3878 68.4179C99.6096 68.3887 99.7794 68.2002 99.7794 67.9712C99.7794 67.7401 99.6006 67.547 99.372 67.5246Z" fill="#E4007F"/>
<path d="M116.883 106.542C116.883 106.396 116.834 106.261 116.752 106.167C116.671 106.07 116.557 106.012 116.433 106.012C116.184 106.012 115.982 106.25 115.982 106.542V111.462H116.883V106.542Z" fill="#E4007F"/>
<path d="M114.952 106.667C114.871 106.571 114.758 106.512 114.633 106.512C114.384 106.512 114.183 106.75 114.183 107.042V111.462H115.084V107.042C115.084 106.896 115.034 106.762 114.952 106.667Z" fill="#E4007F"/>
<path d="M113.15 105.518C113.069 105.422 112.956 105.363 112.831 105.363C112.582 105.363 112.381 105.601 112.381 105.893V111.459H113.282V105.893C113.282 105.747 113.232 105.615 113.15 105.518Z" fill="#E4007F"/>
<path d="M109.551 107.087C109.469 106.99 109.356 106.932 109.232 106.932C108.983 106.932 108.781 107.17 108.781 107.462V111.459H109.682V107.462C109.682 107.316 109.632 107.184 109.551 107.087Z" fill="#E4007F"/>
<path d="M107.741 108.472C107.66 108.375 107.547 108.317 107.422 108.317C107.173 108.317 106.972 108.555 106.972 108.847V111.459H107.873V108.847C107.873 108.701 107.823 108.568 107.741 108.472Z" fill="#E4007F"/>
<path d="M111.929 100.16C112.054 100.16 112.167 100.219 112.248 100.315C112.33 100.412 112.38 100.544 112.38 100.69V104.6C112.38 104.746 112.429 104.881 112.511 104.975C112.592 105.071 112.705 105.13 112.83 105.13C113.079 105.13 113.28 104.892 113.28 104.6V102.077C113.28 101.783 113.482 101.547 113.731 101.547C113.855 101.547 113.969 101.606 114.05 101.702C114.132 101.799 114.181 101.931 114.181 102.077V105.496C114.181 105.642 114.231 105.776 114.313 105.87C114.394 105.967 114.507 106.025 114.632 106.025C114.881 106.025 115.082 105.787 115.082 105.496V100.688C115.082 100.394 115.284 100.158 115.533 100.158C115.657 100.158 115.77 100.216 115.852 100.313C115.933 100.409 115.983 100.542 115.983 100.688V104.605C115.983 104.75 116.033 104.885 116.115 104.979C116.196 105.076 116.309 105.134 116.434 105.134C116.683 105.134 116.884 104.896 116.884 104.605V91.7837V86.9444V64.3979H106.972V91.7837H106.976V107.433C106.976 107.579 107.026 107.713 107.107 107.807C107.189 107.902 107.302 107.962 107.427 107.962C107.676 107.962 107.877 107.724 107.877 107.433V102.701C107.877 102.407 108.079 102.171 108.328 102.171C108.452 102.171 108.565 102.23 108.647 102.326C108.728 102.423 108.778 102.555 108.778 102.701V106.061C108.778 106.207 108.828 106.342 108.909 106.436C108.991 106.533 109.104 106.591 109.229 106.591C109.478 106.591 109.679 106.353 109.679 106.061V100.688C109.679 100.394 109.88 100.158 110.129 100.158C110.252 100.158 110.365 100.216 110.446 100.313C110.528 100.409 110.58 100.542 110.58 100.688V111.457H111.479V100.688C111.479 100.398 111.682 100.16 111.929 100.16ZM114.181 100.697C114.181 100.991 113.978 101.229 113.729 101.229C113.502 101.229 113.317 101.038 113.28 100.784V100.607C113.317 100.353 113.502 100.163 113.729 100.163C113.978 100.16 114.181 100.4 114.181 100.697ZM108.778 100.641V100.751C108.755 101.02 108.561 101.231 108.328 101.231C108.097 101.231 107.907 101.031 107.877 100.771C107.875 100.746 107.873 100.724 107.873 100.699C107.873 100.674 107.875 100.647 107.877 100.625C107.907 100.365 108.097 100.165 108.328 100.165C108.561 100.16 108.755 100.371 108.778 100.641Z" fill="#E4007F"/>
</svg>
