<svg width="390" height="425" viewBox="0 0 390 425" fill="none" xmlns="http://www.w3.org/2000/svg">
<path fill-rule="evenodd" clip-rule="evenodd" d="M-205.529 0L-161.33 44.1994H-160.722L-116.523 0L-72.3234 44.1994H-71.7156L-27.5162 0L16.6833 44.1994H17.291L61.4905 0L105.69 44.1994H106.298L150.497 0L194.697 44.1994H195.304L239.504 0L283.703 44.1994H284.31L328.51 0L372.709 44.1994H373.317L417.516 0L461.716 44.1994H462.324L506.523 0L550.723 44.1994H551.33L595.53 0L639.729 44.1994H640L640 44.4706L640 238.26H-250V44.4707L-250 44.4706L-250 44.4704V44.1994H-249.729L-205.529 0Z" fill="#0038FF"/>
<mask id="path-2-outside-1_408_1245" maskUnits="userSpaceOnUse" x="-265" y="18.375" width="916" height="448" fill="black">
<rect fill="white" x="-265" y="18.375" width="916" height="448"/>
<path fill-rule="evenodd" clip-rule="evenodd" d="M-205.529 33.375L-161.33 77.5744H-160.722L-116.523 33.375L-72.3234 77.5744H-71.7156L-27.5162 33.375L16.6833 77.5744H17.291L61.4905 33.375L105.69 77.5744H106.298L150.497 33.375L194.697 77.5744H195.304L239.504 33.375L283.703 77.5744H284.31L328.51 33.375L372.709 77.5744H373.317L417.516 33.375L461.716 77.5744H462.324L506.523 33.375L550.723 77.5744H551.33L595.53 33.375L639.729 77.5744H640L640 77.8456L640 456H-250V77.8457L-250 77.8456L-250 77.8454V77.5744H-249.729L-205.529 33.375Z"/>
</mask>
<path fill-rule="evenodd" clip-rule="evenodd" d="M-205.529 33.375L-161.33 77.5744H-160.722L-116.523 33.375L-72.3234 77.5744H-71.7156L-27.5162 33.375L16.6833 77.5744H17.291L61.4905 33.375L105.69 77.5744H106.298L150.497 33.375L194.697 77.5744H195.304L239.504 33.375L283.703 77.5744H284.31L328.51 33.375L372.709 77.5744H373.317L417.516 33.375L461.716 77.5744H462.324L506.523 33.375L550.723 77.5744H551.33L595.53 33.375L639.729 77.5744H640L640 77.8456L640 456H-250V77.8457L-250 77.8456L-250 77.8454V77.5744H-249.729L-205.529 33.375Z" fill="#FFF500"/>
<path d="M-161.33 77.5744L-168.401 84.6455L-165.472 87.5744H-161.33V77.5744ZM-205.529 33.375L-198.458 26.3039L-205.529 19.2329L-212.601 26.3039L-205.529 33.375ZM-160.722 77.5744V87.5744H-156.58L-153.651 84.6455L-160.722 77.5744ZM-116.523 33.375L-109.452 26.3039L-116.523 19.2329L-123.594 26.3039L-116.523 33.375ZM-72.3234 77.5744L-79.3945 84.6455L-76.4655 87.5744H-72.3234V77.5744ZM-71.7156 77.5744V87.5744H-67.5735L-64.6445 84.6455L-71.7156 77.5744ZM-27.5162 33.375L-20.4451 26.3039L-27.5162 19.2329L-34.5872 26.3039L-27.5162 33.375ZM16.6833 77.5744L9.61218 84.6455L12.5411 87.5744H16.6833V77.5744ZM17.291 77.5744V87.5744H21.4332L24.3621 84.6455L17.291 77.5744ZM61.4905 33.375L68.5616 26.3039L61.4905 19.2329L54.4194 26.3039L61.4905 33.375ZM105.69 77.5744L98.6188 84.6455L101.548 87.5744H105.69V77.5744ZM106.298 77.5744V87.5744H110.44L113.369 84.6455L106.298 77.5744ZM150.497 33.375L157.568 26.3039L150.497 19.2329L143.426 26.3039L150.497 33.375ZM194.697 77.5744L187.625 84.6455L190.554 87.5744H194.697V77.5744ZM195.304 77.5744V87.5744H199.446L202.375 84.6455L195.304 77.5744ZM239.504 33.375L246.575 26.3039L239.504 19.2329L232.433 26.3039L239.504 33.375ZM283.703 77.5744L276.632 84.6455L279.561 87.5744H283.703V77.5744ZM284.31 77.5744V87.5744H288.452L291.381 84.6455L284.31 77.5744ZM328.51 33.375L335.581 26.3039L328.51 19.2329L321.439 26.3039L328.51 33.375ZM372.709 77.5744L365.638 84.6455L368.567 87.5744H372.709V77.5744ZM373.317 77.5744V87.5744H377.459L380.388 84.6455L373.317 77.5744ZM417.516 33.375L424.587 26.3039L417.516 19.2329L410.445 26.3039L417.516 33.375ZM461.716 77.5744L454.645 84.6455L457.574 87.5744H461.716V77.5744ZM462.324 77.5744V87.5744H466.466L469.395 84.6455L462.324 77.5744ZM506.523 33.375L513.594 26.3039L506.523 19.2329L499.452 26.3039L506.523 33.375ZM550.723 77.5744L543.651 84.6455L546.58 87.5744H550.723V77.5744ZM551.33 77.5744V87.5744H555.472L558.401 84.6455L551.33 77.5744ZM595.53 33.375L602.601 26.3039L595.53 19.2329L588.459 26.3039L595.53 33.375ZM639.729 77.5744L632.658 84.6455L635.587 87.5744H639.729V77.5744ZM640 77.5744L650 77.5677L649.993 67.5744H640V77.5744ZM640 77.8456L650 77.8456V77.8388L640 77.8456ZM640 456V466H650V456H640ZM-250 456H-260V466H-250V456ZM-250 77.8457H-240V73.6884L-242.947 70.7563L-250 77.8457ZM-250 77.8456L-257.053 70.7562L-264.179 77.8456L-257.053 84.9349L-250 77.8456ZM-250 77.8454L-242.947 84.9348L-240 82.0027V77.8454H-250ZM-250 77.5744V67.5744H-260V77.5744H-250ZM-249.729 77.5744V87.5744H-245.587L-242.658 84.6455L-249.729 77.5744ZM-154.259 70.5034L-198.458 26.3039L-212.601 40.4461L-168.401 84.6455L-154.259 70.5034ZM-160.722 67.5744H-161.33V87.5744H-160.722V67.5744ZM-123.594 26.3039L-167.793 70.5034L-153.651 84.6455L-109.452 40.4461L-123.594 26.3039ZM-65.2523 70.5034L-109.452 26.3039L-123.594 40.4461L-79.3945 84.6455L-65.2523 70.5034ZM-71.7156 67.5744H-72.3234V87.5744H-71.7156V67.5744ZM-34.5872 26.3039L-78.7867 70.5034L-64.6445 84.6455L-20.4451 40.4461L-34.5872 26.3039ZM23.7543 70.5034L-20.4451 26.3039L-34.5872 40.4461L9.61218 84.6455L23.7543 70.5034ZM17.291 67.5744H16.6833V87.5744H17.291V67.5744ZM54.4194 26.3039L10.22 70.5034L24.3621 84.6455L68.5616 40.4461L54.4194 26.3039ZM112.761 70.5034L68.5616 26.3039L54.4194 40.4461L98.6188 84.6455L112.761 70.5034ZM106.298 67.5744H105.69V87.5744H106.298V67.5744ZM143.426 26.3039L99.2266 70.5034L113.369 84.6455L157.568 40.4461L143.426 26.3039ZM201.768 70.5034L157.568 26.3039L143.426 40.4461L187.625 84.6455L201.768 70.5034ZM195.304 67.5744H194.697V87.5744H195.304V67.5744ZM232.433 26.3039L188.233 70.5034L202.375 84.6455L246.575 40.4461L232.433 26.3039ZM290.774 70.5034L246.575 26.3039L232.433 40.4461L276.632 84.6455L290.774 70.5034ZM284.31 67.5744H283.703V87.5744H284.31V67.5744ZM321.439 26.3039L277.239 70.5033L291.381 84.6455L335.581 40.4461L321.439 26.3039ZM379.78 70.5033L335.581 26.3039L321.439 40.4461L365.638 84.6455L379.78 70.5033ZM373.317 67.5744H372.709V87.5744H373.317V67.5744ZM410.445 26.3039L366.246 70.5033L380.388 84.6455L424.587 40.4461L410.445 26.3039ZM468.787 70.5033L424.587 26.3039L410.445 40.4461L454.645 84.6455L468.787 70.5033ZM462.324 67.5744H461.716V87.5744H462.324V67.5744ZM499.452 26.3039L455.253 70.5033L469.395 84.6455L513.594 40.4461L499.452 26.3039ZM557.794 70.5033L513.594 26.3039L499.452 40.4461L543.651 84.6455L557.794 70.5033ZM551.33 67.5744H550.723V87.5744H551.33V67.5744ZM558.401 84.6455L602.601 40.4461L588.459 26.3039L544.259 70.5033L558.401 84.6455ZM588.459 40.4461L632.658 84.6455L646.8 70.5033L602.601 26.3039L588.459 40.4461ZM640 67.5744H639.729V87.5744H640V67.5744ZM650 77.8388L650 77.5677L630 77.5812L630 77.8523L650 77.8388ZM650 456L650 77.8456L630 77.8455L630 456H650ZM-250 466H640V446H-250V466ZM-260 77.8457V456H-240V77.8457H-260ZM-257.053 84.9349L-257.053 84.935L-242.947 70.7563L-242.947 70.7562L-257.053 84.9349ZM-257.053 70.7561L-257.053 70.7562L-242.947 84.9349L-242.947 84.9348L-257.053 70.7561ZM-260 77.5744V77.8454H-240V77.5744H-260ZM-249.729 67.5744H-250V87.5744H-249.729V67.5744ZM-212.601 26.3039L-256.8 70.5034L-242.658 84.6455L-198.458 40.4461L-212.601 26.3039Z" fill="black" mask="url(#path-2-outside-1_408_1245)"/>
</svg>
