<svg width="316" height="109" viewBox="0 0 316 109" fill="none" xmlns="http://www.w3.org/2000/svg">
<path d="M5 25.01C30.44 25.01 30.44 5 55.88 5C81.32 5 81.32 25.01 106.76 25.01C132.2 25.01 132.2 5 157.64 5C183.08 5 183.08 25.01 208.52 25.01C233.96 25.01 233.96 5 259.41 5C284.85 5 284.85 25.01 310.3 25.01" stroke="#BD00FF" stroke-width="10" stroke-miterlimit="10" stroke-linecap="round"/>
<path d="M5 64.0198C30.44 64.0198 30.44 44.0098 55.88 44.0098C81.32 44.0098 81.32 64.0198 106.76 64.0198C132.2 64.0198 132.2 44.0098 157.64 44.0098C183.08 44.0098 183.08 64.0198 208.52 64.0198C233.96 64.0198 233.96 44.0098 259.41 44.0098C284.85 44.0098 284.85 64.0198 310.3 64.0198" stroke="#FF00B8" stroke-width="10" stroke-miterlimit="10" stroke-linecap="round"/>
<path d="M5 103.03C30.44 103.03 30.44 83.0195 55.88 83.0195C81.32 83.0195 81.32 103.03 106.76 103.03C132.2 103.03 132.2 83.0195 157.64 83.0195C183.08 83.0195 183.08 103.03 208.52 103.03C233.96 103.03 233.96 83.0195 259.41 83.0195C284.85 83.0195 284.85 103.03 310.3 103.03" stroke="#00E309" stroke-width="10" stroke-miterlimit="10" stroke-linecap="round"/>
</svg>
