<svg width="621" height="109" viewBox="0 0 621 109" fill="none" xmlns="http://www.w3.org/2000/svg">
<path d="M5 25.01C30.44 25.01 30.44 5 55.87 5C81.31 5 81.31 25.01 106.75 25.01C132.19 25.01 132.19 5 157.63 5C183.07 5 183.07 25.01 208.51 25.01C233.95 25.01 233.95 5 259.39 5C284.83 5 284.83 25.01 310.27 25.01C335.71 25.01 335.71 5 361.15 5C386.59 5 386.59 25.01 412.03 25.01C437.47 25.01 437.47 5 462.91 5C488.35 5 488.35 25.01 513.79 25.01C539.23 25.01 539.23 5 564.68 5C590.12 5 590.12 25.01 615.57 25.01" stroke="#FF2626" stroke-width="10" stroke-miterlimit="10" stroke-linecap="round"/>
<path d="M5 64.0198C30.44 64.0198 30.44 44.0098 55.87 44.0098C81.31 44.0098 81.31 64.0198 106.75 64.0198C132.19 64.0198 132.19 44.0098 157.63 44.0098C183.07 44.0098 183.07 64.0198 208.51 64.0198C233.95 64.0198 233.95 44.0098 259.39 44.0098C284.83 44.0098 284.83 64.0198 310.27 64.0198C335.71 64.0198 335.71 44.0098 361.15 44.0098C386.59 44.0098 386.59 64.0198 412.03 64.0198C437.47 64.0198 437.47 44.0098 462.91 44.0098C488.35 44.0098 488.35 64.0198 513.79 64.0198C539.23 64.0198 539.23 44.0098 564.68 44.0098C590.12 44.0098 590.12 64.0198 615.57 64.0198" stroke="#00A0E9" stroke-width="10" stroke-miterlimit="10" stroke-linecap="round"/>
<path d="M5 103.03C30.44 103.03 30.44 83.0195 55.87 83.0195C81.31 83.0195 81.31 103.03 106.75 103.03C132.19 103.03 132.19 83.0195 157.63 83.0195C183.07 83.0195 183.07 103.03 208.51 103.03C233.95 103.03 233.95 83.0195 259.39 83.0195C284.83 83.0195 284.83 103.03 310.27 103.03C335.71 103.03 335.71 83.0195 361.15 83.0195C386.59 83.0195 386.59 103.03 412.03 103.03C437.47 103.03 437.47 83.0195 462.91 83.0195C488.35 83.0195 488.35 103.03 513.79 103.03C539.23 103.03 539.23 83.0195 564.68 83.0195C590.12 83.0195 590.12 103.03 615.57 103.03" stroke="#FF31D2" stroke-width="10" stroke-miterlimit="10" stroke-linecap="round"/>
</svg>
