<?xml version="1.0" encoding="utf-8"?>
<!-- Generator: Adobe Illustrator 27.7.0, SVG Export Plug-In . SVG Version: 6.00 Build 0)  -->
<svg version="1.1" id="レイヤー_1" xmlns="http://www.w3.org/2000/svg" xmlns:xlink="http://www.w3.org/1999/xlink" x="0px"
	 y="0px" viewBox="0 0 329 61.3" style="enable-background:new 0 0 329 61.3;" xml:space="preserve">
<style type="text/css">
	.st0{fill:#580077;}
	.st1{fill:#FFFFFF;}
	.st2{fill:#00C9EB;}
</style>
<path class="st0" d="M34.2,45c-0.1,2.8-2.1,4.8-5,5c-1.8,0.1-3.9,0.1-6,0.1c-2.1,0-4.2,0-5.8-0.1c-3.5-0.1-5.2-1.9-5.3-4.8
	c-0.1-2.6-0.1-7-0.1-11.3c0-3.9,0-7.8,0.1-10.5c0.1-2.6,2-4.2,5-4.4c1.5,0,4.1-0.1,6.7-0.1c2.1,0,4.2,0,5.6,0.1
	c2.4,0.1,4.8,1.8,4.9,4.7c0.1,2.4,0.1,6.4,0.1,10.4C34.3,38.5,34.3,42.9,34.2,45z M15.7,31.6h14.7c0-2.5,0-4.8-0.1-6.4
	c-0.1-2.8-0.7-2.8-7.1-2.8c-6.8,0-7.3,0-7.4,2.8C15.8,26.8,15.7,29,15.7,31.6z M30.4,35.1H15.7c0,3.4,0,6.6,0.1,8.5
	c0.1,2.6,0.5,2.8,7.3,2.8c1.6,0,3.2,0,4.2,0c2.2-0.1,2.9-1.1,3-2.8C30.4,41.4,30.4,38.3,30.4,35.1z M69.6,42.9h-4.8v6.9
	c0,1.1-1,1.6-1.9,1.6S61,50.9,61,49.8v-6.9h-4.7c-1.2,0-1.8-0.8-1.8-1.6c0-0.9,0.6-1.8,1.8-1.8H61v-1l0.1-7.8
	c-3.1,5.2-7.5,10.2-12.6,14c-0.5,0.4-1,0.5-1.4,0.5c-1.1,0-2-0.9-2-1.9c0-0.6,0.3-1.2,1-1.7c5.2-3.5,9.8-8.4,13.2-14.2l-11.1,0.2h0
	c-1.2,0-1.8-0.8-1.8-1.7c0-0.9,0.6-1.9,1.8-1.9H61v-6.7c0-1.2,0.9-1.7,1.9-1.7c1,0,2,0.6,2,1.7V24h12.7c1.2,0,1.7,0.9,1.7,1.8
	c0,0.9-0.6,1.8-1.7,1.8h0l-11.1-0.2c3.5,5.8,8.5,10,13.3,13.1c0.7,0.5,1,1,1,1.6c0,1.1-1,2.2-2.3,2.2c-0.4,0-0.9-0.2-1.4-0.5
	c-4.2-3.1-9-8.2-12.2-13.4l0.1,8v1h4.8c1.2,0,1.7,0.8,1.7,1.7C71.4,42.1,70.8,42.9,69.6,42.9z M113.3,27.6h-5.7
	c-1,0-1.4-0.6-1.4-1.2c0-0.6,0.5-1.2,1.4-1.2h5.7c1,0,1.4,0.6,1.4,1.2C114.7,27,114.2,27.6,113.3,27.6z M113.8,31.3h-6.2
	c-1,0-1.4-0.6-1.4-1.2c0-0.6,0.5-1.2,1.4-1.2h6.2c1,0,1.4,0.6,1.4,1.2C115.2,30.7,114.8,31.3,113.8,31.3z M116,27.8v-2.4
	c0-1.2-0.6-1.4-2.2-1.4c-2.4,0-5.6-0.1-9-0.1v6c0,1.3-0.9,2-1.9,2c-0.9,0-1.9-0.7-1.9-2v-6c-3.4,0-6.6,0-8.9,0.1
	c-2.2,0-2.3,0.6-2.3,1.6c0,0,0,0,0,2.3v0c0,1-1,1.5-1.9,1.5c-0.9,0-1.8-0.5-1.8-1.6c0-0.5,0-1,0-1.5c0-0.5,0-1.1,0-1.7
	c0.1-1.8,1.2-3.3,4.2-3.3c3.2,0,6.9-0.1,10.6-0.1v-1.6h-9.4c-1.1,0-1.7-0.8-1.7-1.6c0-0.8,0.6-1.6,1.7-1.6h22.8
	c1.1,0,1.6,0.8,1.6,1.6c0,0.8-0.6,1.6-1.6,1.6h-9.6v1.6c3.6,0,7.1,0,10.2,0.1c2.2,0,4.6,0.9,4.7,3.2c0,0.5,0,1.2,0,1.9
	c0,1.6,0,2.9-2,2.9C116.9,29.4,116,28.9,116,27.8C116,27.9,116,27.9,116,27.8z M98.2,27.6h-5.7c-0.9,0-1.4-0.6-1.4-1.2
	c0-0.6,0.5-1.2,1.4-1.2h5.7c1,0,1.4,0.6,1.4,1.2C99.7,27,99.2,27.6,98.2,27.6z M98.2,31.3H92c-0.9,0-1.4-0.6-1.4-1.2
	c0-0.6,0.5-1.2,1.4-1.2h6.3c1,0,1.4,0.6,1.4,1.2C99.7,30.7,99.2,31.3,98.2,31.3z M104.6,45.2V46c0.1,1.6,0.7,1.7,5.3,1.7
	c4.4,0,6.4-0.1,6.4-3.2c0-1.1,0.9-1.6,1.8-1.6c1,0,2,0.6,2,1.6c0,6.2-5.5,6.3-10.2,6.3c-5.3,0-8.8,0-8.8-4.4v-1.2
	c-1.8,0-3.6,0-5.7-0.1c-2.9-0.1-4.4-1.4-4.4-3.3c0-1,0-2,0-2.9c0-1,0-1.9,0-2.8c0.1-1.6,1.2-3.2,4.3-3.2c1.7,0,4-0.1,6.6-0.1
	c3.1,0,6.4,0,8.9,0.1c2.4,0,4,1.5,4.1,3c0.1,0.9,0.1,1.8,0.1,2.7c0,1,0,2.1-0.1,3.1c-0.1,1.8-1.8,3.3-4.4,3.4
	C108.4,45.1,106.5,45.2,104.6,45.2z M104.6,37.6h6.7c0-0.2,0-0.5,0-0.8c0-0.9-0.5-1.4-1.8-1.4c-1.2,0-3,0-4.8,0
	C104.7,35.9,104.6,36.7,104.6,37.6z M111.3,40h-6.7v2.4c1.7,0,3.3,0,4.8,0c1.1,0,1.7-0.4,1.8-1.4C111.3,40.6,111.3,40.3,111.3,40z
	 M101.2,37.6v-2.2c-1.8,0-3.5,0-4.8,0c-1.7,0-1.9,1.2-1.9,2.2H101.2z M101.2,42.4l0-2.4h-6.7c0,0.3,0,0.6,0,0.9
	c0,1.1,0.7,1.4,1.9,1.4C97.8,42.4,99.4,42.4,101.2,42.4z M158.7,35.2l-10.3,0c0.1,0.6,0.1,1.3,0.1,2c0,1.9-0.2,4.1-0.8,6.4
	c-1,4.1-4.5,7.4-9.5,7.4c-4,0-5.1-1.3-5.1-2.6c0-1,0.7-2,1.9-2c0.2,0,0.5,0,0.8,0.1c0.9,0.3,1.8,0.4,2.6,0.4c2.6,0,4.6-1.5,5.5-4.4
	c0.5-1.8,0.8-3.6,0.8-5.3c0-0.7,0-1.4-0.1-2l-16.8,0.2h0c-1.2,0-1.8-0.9-1.8-1.8c0-1,0.6-1.9,1.8-1.9l15.9-0.1
	c-0.8-1.8-2-3.2-3.4-4.1c-0.6-0.3-0.8-0.7-0.8-1.2c0-0.9,1-1.7,2.1-1.7c0.3,0,0.7,0.1,1.1,0.2c0.6,0.3,1.1,0.6,1.7,1.1
	c0.9-0.6,4.9-3.8,4.9-4.4c0-0.2-0.2-0.2-0.7-0.2c-1,0-2.2,0-3.5,0c-3.5,0-7.6,0.1-11,0.2c0,0,0,0-0.1,0c-1.2,0-1.8-0.9-1.8-1.8
	c0-0.9,0.6-1.8,1.9-1.8c2.5-0.1,5.6-0.1,8.6-0.1s6,0,8.2,0.1c2.4,0,3.6,1.4,3.6,2.8c0,0.8-0.3,1.6-1,2.3c-1.2,1.3-4.8,4.3-6.7,5.6
	c0.5,0.8,0.9,1.8,1.3,2.9l11-0.1h0c1.1,0,1.6,0.9,1.6,1.8C160.4,34.3,159.8,35.2,158.7,35.2z M198.4,42.5L198.4,42.5l-7.1-0.2v1
	l0,3.1c0,0,0,0,0,0.1c0,2.1-1.4,4.8-5.8,4.8c-3.1,0-3.9-0.8-3.9-2c0-0.9,0.6-1.8,1.6-1.8c0.1,0,0.2,0,0.4,0c0.7,0.2,1.4,0.3,2.1,0.3
	c1.2,0,2-0.4,2-2c0,0,0,0,0-0.1l0-3.4l-20,0.2h0c-1.1,0-1.6-0.8-1.6-1.6s0.6-1.7,1.6-1.7l20,0l0-1.4c0-0.4,0.1-0.7,0.2-0.9
	c-1.2,0-2.5,0-3.8,0c-3,0-6.1-0.1-9.1-0.1c-2.7-0.1-4.1-1.4-4.2-3.4c0-1.2,0-2.2,0-3.1c0-1,0-1.9,0-2.9c0.1-1.6,1.1-3.2,4.1-3.3
	c1.4,0,3.7,0,6.1,0v-2l-11.6,0c-1.2,0-1.8-0.8-1.8-1.6s0.6-1.6,1.8-1.6l11.6,0v-1.6c0-1.2,1-1.8,1.9-1.8c1,0,1.9,0.6,1.9,1.8V19
	l11.9,0c1.1,0,1.6,0.8,1.6,1.6s-0.5,1.6-1.6,1.6l-11.9,0v2c2.4,0,4.8,0,6.5,0c2.2,0,3.8,1.6,3.9,3c0,0.9,0.1,1.8,0.1,2.7
	c0,1.2,0,2.3-0.1,3.4c-0.1,1.8-1.6,3.4-4.1,3.4H191c0.2,0.2,0.3,0.6,0.3,1l0,1.4l7.1,0c1.1,0,1.7,0.8,1.7,1.6S199.5,42.5,198.4,42.5
	z M179.5,48.3c-0.4,0-0.7-0.1-1-0.4c-1.2-1.1-2.6-1.6-3.9-2c-0.6-0.2-0.8-0.7-0.8-1.2c0-0.9,0.7-1.9,1.7-1.9c0.7,0,5.9,1.1,5.9,3.4
	C181.4,47.4,180.5,48.3,179.5,48.3z M184.6,29.1h7.2c0-0.3,0-0.6,0-0.9c-0.1-1.6-0.6-1.6-7.2-1.6V29.1z M191.8,31.6h-7.2v2.6
	c2,0,3.9,0,5.4,0c1,0,1.7-0.4,1.8-1.5C191.8,32.3,191.8,32,191.8,31.6z M181.2,29.1v-2.4c-2.1,0-4.1,0-5.4,0.1
	c-1.2,0-1.7,0.7-1.8,1.5c0,0.3-0.1,0.6-0.1,0.9H181.2z M181.2,34.2v-2.6H174c0,0.3,0.1,0.7,0.1,1c0.1,1.2,0.6,1.5,1.8,1.5
	C177.2,34.2,179.2,34.2,181.2,34.2z M235.4,31.4c-0.7,0-1.8,0.1-2.9,0.1c-4.8,0-8,0-8.2-3.6c0-0.8,0-1.8,0-2.8c0-1.5,0-3.2,0.1-4.6
	c0.1-1.9,1.4-3.2,3.4-3.3c0.8,0,2.5,0,4.1,0c1.2,0,2.3,0,3,0c3,0.2,4.2,1.8,4.2,3.7c0,1,0,2.1,0,3.1c0,6.2,0.1,11.9,0.1,17
	c0,1.9,0,3.6,0,5c0,2.8-1.4,5.3-6,5.3c-2.8,0-4.2-0.4-4.2-2.1c0-0.9,0.6-1.8,1.6-1.8c0.1,0,0.2,0,0.3,0c0.8,0.1,1.5,0.2,2.1,0.2
	c1.3,0,2.3-0.5,2.4-2.4c0-1.6,0.1-3.2,0.1-4.8c0-2.4,0-4.8,0-7.3C235.4,32.5,235.4,32,235.4,31.4z M207.1,21.2
	c0-4.1,2.8-4.1,6.9-4.1c1.6,0,3.2,0,4,0c2,0.1,3.4,1.4,3.5,3.3c0,1.4,0.1,3.1,0.1,4.6c0,5.5,0,6.4-8,6.4c-1,0-2,0-2.8-0.1
	c0,1.1,0,2.3,0,3.6c0,4.1,0,9-0.2,14.7c0,1.2-1,1.7-1.9,1.7c-1,0-1.9-0.6-1.9-1.6c0,0,0,0,0-0.1C207.1,42.3,207,30.3,207.1,21.2z
	 M227.8,22.9h7.5c0-2.7,0-2.8-3.8-2.8c-2.8,0-3.6,0-3.7,1.4C227.8,22,227.8,22.4,227.8,22.9z M235.4,28.4v-2.6h-7.6
	c0,0.5,0,0.9,0,1.3c0,1.3,0.4,1.4,4.4,1.4C233.6,28.5,234.8,28.5,235.4,28.4z M210.8,22.9h7.2c0-0.5,0-1,0-1.4
	c-0.1-1.3-0.6-1.4-3.5-1.4c-3.2,0-3.6,0.2-3.6,1.7C210.8,22.2,210.8,22.5,210.8,22.9z M218,25.8h-7.2v2.6c0.6,0,1.8,0,3,0
	c3.9,0,4.2-0.1,4.2-1.4C218,26.7,218,26.3,218,25.8z M265.6,20.5c0,1.1-1.2,2-2.2,2c-0.6,0-1.1-0.3-1.4-1c-0.6-1.5-1.4-2.4-2.4-3.4
	c-0.2-0.3-0.4-0.6-0.4-0.9c0-0.8,1-1.6,2-1.6C263.4,15.6,265.6,19.6,265.6,20.5z M274.7,30.2V28c0-1.7-0.9-2-2.5-2
	c-3.2,0-6.8-0.1-10.3-0.1c-2.8,0-5.6,0-8.1,0.1c-2.2,0-2.6,0.6-2.7,2c0,0,0,0,0,2.3v0c0,1.1-1,1.8-2,1.8c-0.9,0-1.9-0.6-1.9-1.8
	c0-0.5,0-1.1,0-1.8c0-0.7,0-1.4,0-2c0.1-1.9,1.6-3.8,4.7-3.8l3.4,0c-0.2-0.1-0.4-0.3-0.5-0.6c-0.8-1.4-1.7-1.9-2.8-2.9
	c-0.4-0.3-0.5-0.7-0.5-1c0-0.9,1-1.7,2-1.7c1.5,0,4.6,3,4.6,4.4c0,0.7-0.5,1.4-1.2,1.8c3.5,0,7,0,10.5,0c1.2-1.3,2.2-3.6,2.8-5.3
	c0.4-0.9,1.1-1.3,1.8-1.3c1.1,0,2.3,0.8,2.3,2c0,0.8-1.3,2.7-2.9,4.6c0.9,0,1.9,0,2.8,0c2.4,0,4.6,1.3,4.6,3.8c0,0.6,0,1.4,0,2.2
	c0,0.6,0,1.1,0,1.5c-0.1,1.2-1.1,1.8-2.1,1.8C275.6,31.9,274.7,31.4,274.7,30.2C274.7,30.2,274.7,30.2,274.7,30.2z M278.8,40.8
	l-10.7,0c0.1,0.6,0.1,1.2,0.1,1.8c0,3.6-1.7,9-8.6,9c-3.1,0-4.8-0.8-4.8-2.4c0-1,0.8-1.9,1.9-1.9c0.2,0,0.4,0,0.6,0.1
	c0.9,0.3,1.8,0.4,2.6,0.4c4.5,0,4.5-5.4,4.5-5.7c0-0.5,0-0.9-0.1-1.4l-17,0.1c-1.2,0-1.8-0.9-1.8-1.8c0-0.9,0.6-1.8,1.8-1.8
	l14.8,0.1c-0.5-0.3-1-0.6-1.6-0.8c-0.8-0.3-1.2-0.8-1.2-1.3c0-0.8,0.9-1.7,2.1-1.7c0.9,0,1.7,0.4,2.4,0.8c1-0.7,3.2-2.2,3.2-2.6
	c0-0.2-0.2-0.2-0.4-0.2c-0.4,0-1.2,0-2.1,0c-2.6,0-6.4,0.1-9.2,0.2c0,0,0,0-0.1,0c-1.2,0-1.8-0.8-1.8-1.7c0-0.8,0.6-1.6,1.8-1.7
	c1.7-0.1,3.9-0.1,6-0.1c2.9,0,5.8,0,7.7,0.1c2.3,0,3.2,1.2,3.2,2.4c0,2-2.1,3.6-5.7,5.8c0.2,0.3,0.4,0.6,0.6,0.8l11.9-0.1
	c1.2,0,1.8,0.9,1.8,1.8C280.5,39.9,280,40.8,278.8,40.8z M318.3,25.2h-18.5c-1.2,0-1.8-0.8-1.8-1.7c0-0.8,0.6-1.7,1.8-1.7l6.7,0
	l0-3.7c0-1.2,1-1.7,2-1.7s2,0.6,2,1.7l0,3.7l7.9,0c1.3,0,1.9,0.9,1.9,1.7S319.6,25.2,318.3,25.2z M317,33.8c-0.5,0-1-0.2-1.5-0.8
	c-1.4-1.7-3.1-3.1-4.9-4.2c-0.6-0.3-0.8-0.8-0.8-1.2c0-0.8,0.8-1.6,1.8-1.6c1.2,0,7.4,3.7,7.4,5.9C318.9,32.9,318,33.8,317,33.8z
	 M307,27.7c0,1.6-5.2,6.7-7.1,6.7c-1,0-1.8-0.9-1.8-1.8c0-0.6,0.3-1.2,1-1.5c2.1-1.1,3.5-2.4,4.7-4.5c0.3-0.5,0.8-0.8,1.2-0.8
	C306,25.8,307,26.7,307,27.7z M308.4,45.5c-5,4.9-10.8,5.6-11,5.6c-1.2,0-2-1-2-2c0-0.7,0.4-1.4,1.5-1.6c4-0.7,7.1-2.3,9.4-4.7
	c-1-1.5-1.8-3.1-2.3-4.8c-1.3,2-2,2.6-2.8,2.6c-1,0-1.8-0.8-1.8-1.8c0-0.5,0.2-1,0.9-1.4c1.5-1,2.6-2.4,3.1-3.5
	c0.2-0.5,0.8-0.8,1.4-0.8c0.8,0,1.5,0.4,1.5,1.2c0,0.1,0,0.2,0,0.4c0,0,0,0.1,0,0.2c0.4,2,1.2,3.8,2.2,5.3c1.1-1.8,2-3.8,2.6-6
	c0.2-0.9,1-1.3,1.7-1.3c1,0,1.9,0.6,1.9,1.6c0,0.1-0.7,4.2-3.9,8.4c2.3,2.2,5.4,3.6,9,4c1.1,0.1,1.6,0.9,1.6,1.7c0,1-0.8,2.2-2,2.2
	C318.2,50.9,312.7,49.9,308.4,45.5z M294.7,49.7L294.7,49.7c0,1.2-1,1.7-2,1.7c-1,0-2-0.6-2-1.7v0l0.2-14.4c-1,1.8-2.2,3.6-3.4,5
	c-0.5,0.6-1.1,0.8-1.6,0.8c-1,0-1.9-0.8-1.9-1.8c0-0.5,0.2-1,0.6-1.4c2-2.1,4.7-5.8,6.3-9.6v-0.9l-3.6,0.1h0c-1.1,0-1.7-0.9-1.7-1.8
	c0-0.9,0.6-1.8,1.7-1.8h3.6l-0.1-6.6v0c0-1.2,1-1.7,2-1.7c1,0,1.9,0.6,1.9,1.7v0c0,0-0.1,3-0.1,6.6h2.3c1.2,0,1.8,0.9,1.8,1.8
	c0,0.9-0.6,1.8-1.7,1.8c0,0,0,0-0.1,0l-2.4,0c0,1.4,0,2.8,0,4c0.2,0,0.3,0,0.5,0.1c0.9,0.4,4,2.3,4,3.8c0,0.9-0.8,1.8-1.7,1.8
	c-0.4,0-0.8-0.2-1.2-0.6c-0.4-0.6-1-1.3-1.6-1.9C294.6,40.9,294.7,49.7,294.7,49.7z"/>
<g>
	<path class="st0" d="M324.7,44.5c-1.2-1.4-2.8-2.2-4.5-2.3l0,0c-1-0.1-2-0.3-2.8-0.7c0.4-0.9,0.8-1.7,1-2.4
		c0.1-0.2,0.1-0.3,0.2-0.4c2.9-0.7,5.4-3.4,5.4-6.8c0-1.4-0.5-2.6-0.9-3.3c0,0,0-0.1-0.1-0.1c0.1-0.1,0.2-0.2,0.3-0.2
		c1.3-1.3,2-3,2-4.7c0-3.5-2.8-6.7-6.9-6.7h0l0,0l0,3.4h0l0-3.4l-3,0c-0.3-1.6-1.2-3-2.5-3.9c-1.4-1.1-3-1.4-4.4-1.4
		c-1.4,0-3,0.4-4.4,1.4c-1.2,0.9-2.1,2.3-2.5,3.9l-1.8,0l0,2.9l0,0l0-2.9l0,0h0c0,0-0.1,0-0.1,0c-0.2-1.9-1.1-3.5-2.5-4.6
		c-1.4-1.1-3-1.5-4.4-1.5c-1.4,0-3,0.4-4.4,1.4c-1.6,1.2-2.6,3.1-2.6,5.3v0v0l0,0l0,1.7c-1.4,0.3-2.6,1-3.6,2.1
		c0,0.1-0.1,0.1-0.1,0.2c-0.5-0.7-1.1-1.3-1.8-1.8c-0.4-0.3-0.7-0.5-1.1-0.7c0-0.3,0.1-0.6,0.1-1c0-2.4-1.2-4.2-2.6-5.3
		c-1.3-1.1-3-1.7-4.7-1.7c-1.8,0-3.7,0.7-5,2.2c-0.3-0.3-0.7-0.7-1.1-1c-0.9-0.7-2.5-1.7-4.6-1.7c-1.6,0-3.2,0.5-4.4,1.5
		c-0.1,0.1-0.2,0.1-0.3,0.2c-0.8-0.4-1.9-0.8-3.3-0.8c-1.8,0-3.4,0.7-4.6,1.7c-1.1,1-2.4,2.7-2.4,5c0,0.3,0,0.7,0.1,1
		c-0.5,0.3-1,0.7-1.5,1.1c-0.3,0.3-0.6,0.6-0.8,0.9c0,0,0,0,0,0c0,0,0,0,0,0c0,0,0,0,0,0c0,0,0,0,0,0c0,0,0,0,0,0c0,0,0,0,0,0
		c0,0,0,0,0,0c0,0,0,0,0,0c0,0,0,0,0,0c0,0,0,0,0,0c0,0,0,0,0,0c0,0,0,0,0,0c0,0,0,0,0,0c0,0,0,0,0,0c0,0,0,0,0,0c0,0,0,0,0,0
		c0,0,0,0,0,0c0,0,0,0,0,0c0,0,0,0,0,0c0,0,0,0,0,0s0,0,0,0s0,0,0,0s0,0,0,0s0,0,0,0s0,0,0,0s0,0,0,0c0,0,0,0,0,0c0,0,0,0,0,0
		c0,0,0,0,0,0c0,0,0,0,0,0c0,0,0,0,0,0c0,0,0,0,0,0c0,0,0,0,0,0c0,0,0,0,0,0c0,0,0,0,0,0s0,0,0,0c0,0,0,0,0,0c0,0,0,0,0,0
		c0,0,0,0,0,0c0,0,0,0,0,0c0,0,0,0,0,0c0,0,0,0,0,0c0,0,0,0,0,0c0,0,0,0,0,0c0,0,0,0,0,0c0,0,0,0,0,0c0,0,0,0,0,0c0,0,0,0,0,0
		c0,0,0,0,0,0c0,0,0,0,0,0s0,0,0,0s0,0,0,0s0,0,0,0c0-2.1-0.7-4.3-2.5-6.1c-1.8-1.7-4.1-2.5-6.4-2.7l0,0c0,0,0,0,0,0c0,0,0,0,0,0v0
		c-0.9,0-2.2,0-3.3,0c-1.5,0-3.4,0-4.3,0v0c0,0,0,0,0,0c0,0,0,0-0.1,0l0,0c-1.6,0.1-3.3,0.6-4.6,1.6c-1.3-0.9-2.9-1.5-4.6-1.6l0,0
		c0,0,0,0-0.1,0c0,0,0,0,0,0v0c-0.9,0-2.7,0-4.2,0c-1,0-2.1,0-3.2,0.1c-1,0.1-2.4,0.3-3.7,0.8c-1.4,0.6-2.9,1.7-3.8,3.3
		c-0.2,0.4-0.4,0.9-0.6,1.3c-0.3-0.5-0.6-1-1-1.5c-1.3-1.4-3.1-2.2-5-2.2h0h0l-7.8,0c-0.4-0.7-0.9-1.3-1.5-1.8
		c-1.4-1.1-3-1.6-4.5-1.6s-3.1,0.4-4.5,1.6c-0.6,0.5-1.1,1.1-1.5,1.8l-7.5,0l0,3.2h0l0-3.2h0h0c-4,0-6.8,3.1-6.8,6.6
		c0,2.3,1.2,4.5,3.3,5.7c-0.1,0.3-0.1,0.6-0.1,0.9l0,0l0,0c0,1.1,0,2.1,0,3.1c0,1,0,2,0,3.3l0,0v0c0,0.2,0,0.5,0.1,0.7
		c-0.2,0-0.4,0.1-0.6,0.2c0.1-0.4,0.1-0.8,0.1-1.1c0-1.3-0.4-2.9-1.5-4.3c-1.2-1.6-3.1-2.5-5.2-2.5h0h0l0,0l-1.9,0c0,0,0,0,0,0
		c0,0,0,0,0,0l0,0c1.4-1.6,2.3-3.6,2.3-5.7c0-2.1-0.8-4.2-2.6-5.7c-1.7-1.5-3.8-2.1-5.9-2.1v0c0,0,0,0,0,0h0c-2.3,0-5.2-0.1-8.3-0.1
		c-3,0-6.2,0-8.7,0.1v0c0,0,0,0,0,0c0,0,0,0,0,0v0c-1.8,0.1-3.6,0.8-4.9,2.2c-1.3,1.4-1.8,3.1-1.8,4.6c0,3.3,2.6,6.8,6.8,6.8
		c0,0,0,0,0,0h0c0,0,0,0,0,0h0c0,0,0,0,0,0h0h0c0,0,0,0,0,0c0,0,0,0,0,0c0,0,0,0,0,0c0,0,0,0,0,0h0c0,0,0,0,0,0c0,0,0,0,0,0s0,0,0,0
		h0c0,0,0,0,0,0c0,0,0,0,0,0c0,0,0,0,0,0c0,0,0,0,0,0h0c0,0,0,0,0,0h0c0,0,0,0,0,0c0,0,0,0,0,0c0,0,0,0,0,0h0h0c0,0,0,0,0,0h0h0
		c0,0,0,0,0,0c0,0,0,0,0,0c0,0,0,0,0,0h0c0,0,0,0,0,0s0,0,0,0s0,0,0,0c0,0,0,0,0,0s0,0,0,0c0,0,0,0,0,0s0,0,0,0c0,0,0,0,0,0s0,0,0,0
		c0,0,0,0,0,0h0h0c0,0,0,0,0,0c0,0,0,0,0,0h0h0c0,0,0,0,0,0h0h0c0,0,0,0,0,0c0,0,0,0,0,0c0,0,0,0,0,0h0c0,0,0,0,0,0h0c0,0,0,0,0,0
		c0,0,0,0,0,0c0,0,0,0,0,0c0,0,0,0,0,0h0c0,0,0,0,0,0s0,0,0,0s0,0,0,0h0c0,0,0,0,0,0c0,0,0,0,0,0c0,0,0,0,0,0c0,0,0,0,0,0h0h0
		c0,0,0,0,0,0h0c0,0,0,0,0,0h0c0,0,0,0,0,0h0.1l0.1,0c0.1,0,0.2,0,0.2,0c0,0,0,0.1,0,0.1l-6.7,0v0c-0.9,0-1.9,0.2-2.7,0.5
		c0-0.3,0-0.6,0-0.8c0-0.5,0-1.3,0-2h0c0,0,0,0,0,0c0-0.1,0-0.1,0-0.2l0,0c-0.2-2.9-1.8-5-3.7-6.2c0-1.5-0.6-3.1-1.8-4.4
		c-1.3-1.4-3.1-2-4.9-2H91.6c-1.7,0-3.5,0.6-4.8,1.9c-1.2,1.2-1.8,2.8-1.9,4.3c-0.4,0.2-0.7,0.5-1.1,0.8c-0.7,0.7-1.3,1.4-1.7,2.1
		c-1.2-1.2-2.9-1.8-4.6-1.8h-7.7v-1.7c0-2.2-1.1-4.1-2.5-5.2c-1.4-1.1-3-1.5-4.4-1.5c-1.4,0-3,0.4-4.5,1.5c-1.5,1.3-2.4,3.1-2.4,5.2
		V19h-7.8c-4.6,0-6.8,3.9-6.8,6.9c0,1.5,0.5,3.2,1.8,4.6c1.4,1.4,3.2,2.1,5,2.1h0h0l0,0l0.9,0c-1.8,1.9-3.8,3.5-5.9,5l0,0
		c-1.9,1.3-3.2,3.4-3.2,5.9c0,4,3.3,6.9,7,6.9c1.6,0,3.2-0.6,4.4-1.5l0,0l0,0l-2.4-3.1c0,0,0,0,0,0l2.4,3.1c0.6-0.5,1.2-0.9,1.8-1.4
		c0.8,0.4,1.7,0.6,2.6,0.6v1.9c0,2.2,1.1,4,2.6,5.2c1.4,1.1,3,1.4,4.4,1.4c1.4,0,3-0.4,4.4-1.4c1.5-1.2,2.6-3,2.6-5.2v-1.9
		c1.1,0,2.1-0.3,3.1-0.8c0.4,0.3,0.8,0.6,1.1,0.9l0.1,0.1l0.1,0.1c1.1,0.7,2.5,1.3,4.2,1.3c3.9,0,7.3-3.2,7.3-7.2
		c0-2.5-1.3-4.5-3.1-5.7l-0.1,0l-0.1,0c-1.7-1.1-3.4-2.4-5-3.8l0,0l0,0h0h0c1.6,0,3.2-0.6,4.4-1.6c0.4,0.8,1,1.5,1.7,2
		c0.8,0.6,1.7,1,2.5,1.2c-0.1,0.5-0.2,1.1-0.2,1.6l0,0l0,0l3.5,0.2v0L86,35.8c0,1,0,2.1,0,3c0,0.9,0,2,0,3.1l3.5-0.1v0L86,41.9l0,0
		c0.1,2.3,1.1,4.5,3.1,6.1c1.8,1.4,4.1,2,6.2,2l0,0l0,0c0.5,0,1,0,1.5,0c0.2,0.5,0.5,1.1,0.8,1.6c1.1,1.7,2.7,2.7,4.2,3.3
		c1.4,0.5,2.9,0.7,4.1,0.8c1.3,0.1,2.6,0.1,3.9,0.1c2.1,0,5.7,0.1,8.8-1.2c1.7-0.7,3.4-1.8,4.7-3.7c1.3-1.9,1.8-4.1,1.8-6.4
		c0-2.5-1.4-4.3-2.8-5.3c-0.7-0.5-1.5-0.8-2.3-1.1c0-0.9,0-1.9-0.1-2.8l0,0c0,0,0,0,0,0c0,0,0,0,0,0l0,0c0-0.4-0.1-0.8-0.2-1.2
		c0.3-0.1,0.7-0.2,1-0.3c0,1.4,0.5,3,1.7,4.3c1.3,1.5,3.1,2.3,5.1,2.3h0h0l0,0l11.6-0.1c-0.1,0.3-0.1,0.6-0.2,0.9
		c-0.2,0.6-0.4,0.8-0.3,0.7c0,0,0,0,0,0c0,0-0.1,0-0.3,0c-0.3,0-0.6,0-1.1-0.2l0,0l0,0c-0.6-0.2-1.3-0.3-2.1-0.3
		c-4.5,0-6.9,3.8-6.9,7c0,2.3,1.1,4.6,3.4,6c1.9,1.2,4.3,1.6,6.7,1.6c7.5,0,12.9-5,14.4-11.2l0,0l0,0l-4-0.9l0,0l4,0.9
		c0.4-1.6,0.6-3.1,0.8-4.6l5.4,0v0c0.8,0,1.6-0.2,2.3-0.4c-0.1,0.3-0.1,0.7-0.1,1c0,1.4,0.4,3,1.6,4.4c1.3,1.5,3.1,2.2,5,2.2h0h0
		l0,0l1.7,0c0.1,0.2,0.2,0.5,0.4,0.7c0.8,1.2,2,2.1,3.3,2.5l0,0l0,0c1.2,0.4,1.7,0.6,2.1,1l0,0c0.8,0.7,1.6,1.1,2.6,1.4
		c0.6,0.8,1.3,1.5,2.1,2c1.8,1.1,4,1.2,5.7,1.2c3.3,0,6.2-1,8.2-3.2c1.7-1.7,2.4-3.8,2.6-5.7l2,0l0.1,0h0.1h0c1.4,0,2.5-0.4,3.5-0.9
		c0,1-0.1,2-0.1,2.9l0,0.1v0.1c0,0,0,0,0,0c0,0,0,0,0,0c0,0,0,0,0,0c0,0,0,0,0,0c0,0,0,0,0,0c0,0,0,0,0,0c0,0,0,0,0,0s0,0,0,0
		c0,0,0,0,0,0c0,0,0,0,0,0c0,0,0,0,0,0c0,0,0,0,0,0c0,0,0,0,0,0c0,0,0,0,0,0c0,0,0,0,0,0c0,0,0,0,0,0c0,0,0,0,0,0c0,0,0,0,0,0
		c0,0,0,0,0,0c0,0,0,0,0,0c0,0,0,0,0,0c0,0,0,0,0,0c0,0,0,0,0,0c0,0,0,0,0,0c0,0,0,0,0,0c0,0,0,0,0,0c0,0,0,0,0,0s0,0,0,0
		c0,0,0,0,0,0c0,0,0,0,0,0c0,0,0,0,0,0c0,0,0,0,0,0c0,0,0,0,0,0c0,0,0,0,0,0c0,0,0,0,0,0c0,0,0,0,0,0c0,0,0,0,0,0c0,0,0,0,0,0
		c0,0,0,0,0,0c0,0,0,0,0,0c0,0,0,0,0,0c0,0,0,0,0,0c0,0,0,0,0,0c0,0,0,0,0,0c0,0,0,0,0,0c0,0,0,0,0,0c0,0,0,0,0,0c0,0,0,0,0,0
		c0,0,0,0,0,0c0,0,0,0,0,0v0c0,0,0,0,0,0c0,0,0,0,0,0c0,0,0,0,0,0c0,0,0,0,0,0c0,0,0,0,0,0s0,0,0,0c0,0,0,0,0,0c0,0,0,0,0,0v0
		c0,0,0,0,0,0c0,0,0,0,0,0c0,0,0,0,0,0c0,0,0,0,0,0c0,0,0,0,0,0v0c0,0,0,0,0,0c0,0,0,0,0,0c0,0,0,0,0,0c0,0,0,0,0,0v0c0,0,0,0,0,0
		c0,0,0,0,0,0s0,0,0,0c0,0,0,0,0,0v0c0,0,0,0,0,0c0,0,0,0,0,0c0,0,0,0,0,0v0c0,0,0,0,0,0c0,0,0,0,0,0v0c0,0,0,0,0,0c0,0,0,0,0,0
		c0,0,0,0,0,0v0c0,0,0,0,0,0c0,0,0,0,0,0v0c0,0,0,0,0,0c0,0,0,0,0,0v0c0,0,0,0,0,0v0c0,0,0,0,0,0c0,0,0,0,0,0v0c0,0,0,0,0,0
		c0,0,0,0,0,0v0c0,0,0,0,0,0v0c0,0,0,0,0,0c0,0,0,0,0,0v0c0,0,0,0,0,0v0c0,0,0,0,0,0v0c0,0,0,0,0,0v0c0,0,0,0,0,0c0,0,0,0,0,0v0
		c0,0,0,0,0,0v0c0,0,0,0,0,0v0c0,0,0,0,0,0v0c0,0,0,0,0,0v0c0,0,0,0,0,0v0c0,0,0,0,0,0v0c0,0,0,0,0,0c0,0,0,0,0,0v0c0,0,0,0,0,0v0
		c0,0,0,0,0,0v0c0,0,0,0,0,0v0c0,0,0,0,0,0c0,0,0,0,0,0v0c0,0,0,0,0,0v0c0,0,0,0,0,0v0v0c0,0,0,0,0,0v0c0,0,0,0,0,0c0,0,0,0,0,0v0
		c0,0,0,0,0,0v0c0,0,0,0,0,0c0,0,0,0,0,0v0c0,0,0,0,0,0c0,0,0,0,0,0v0c0,0,0,0,0,0c0,0,0,0,0,0v0c0,0,0,0,0,0c0,0,0,0,0,0v0
		c0,0,0,0,0,0c0,0,0,0,0,0v0c0,0,0,0,0,0c0,0,0,0,0,0v0c0,0,0,0,0,0c0,0,0,0,0,0v0v0c0,0,0,0,0,0c0,0,0,0,0,0v0c0,0,0,0,0,0
		c0,0,0,0,0,0v0v0c0,0,0,0,0,0c0,0,0,0,0,0v0c0,0,0,0,0,0c0,0,0,0,0,0v0v0c0,0,0,0,0,0c0,0,0,0,0,0v0v0c0,0,0,0,0,0c0,0,0,0,0,0v0v0
		c0,0,0,0,0,0c0,0,0,0,0,0c0,0,0,0,0,0v0c0,0,0,0,0,0c0,0,0,0,0,0c0,0,0,0,0,0v0v0c0,0,0,0,0,0c0,0,0,0,0,0c0,0,0,0,0,0v0
		c0,0,0,0,0,0c0,0,0,0,0,0c0,0,0,0,0,0v0v0c0,0,0,0,0,0c0,0,0,0,0,0c0,0,0,0,0,0v0v0c0,0,0,0,0,0c0,0,0,0,0,0c0,0,0,0,0,0v0v0
		c0,0,0,0,0,0c0,0,0,0,0,0c0,0,0,0,0,0c0,0,0,0,0,0v0v0c0,0,0,0,0,0c0,0,0,0,0,0c0,0,0,0,0,0v0v0c0,0,0,0,0,0c0,0,0,0,0,0
		c0,0,0,0,0,0c0,0,0,0,0,0v0v0c0,0,0,0,0,0c0,0,0,0,0,0c0,0,0,0,0,0v0v0v0c0,0,0,0,0,0c0,0,0,0,0,0c0,0,0,0,0,0v0v0c0,0,0,0,0,0
		c0,0,0,0,0,0c0,0,0,0,0,0c0,0,0,0,0,0v0v0c0,0,0,0,0,0c0,0,0,0,0,0c0,0,0,0,0,0c0,0,0,0,0,0v0v0c0,0,0,0,0,0c0,0,0,0,0,0
		c0,0,0,0,0,0v0v0v0c0,0,0,0,0,0c0,0,0,0,0,0c0,0,0,0,0,0v0v0c0,0,0,0,0,0c0,0,0,0,0,0c0,0,0,0,0,0c0,0,0,0,0,0v0v0c0,0,0,0,0,0
		c0,0,0,0,0,0c0,0,0,0,0,0v0v0c0,0,0,0,0,0c0,0,0,0,0,0c0,0,0,0,0,0c0,0,0,0,0,0v0v0c0,0,0,0,0,0c0,0,0,0,0,0c0,0,0,0,0,0v0v0
		c0,0,0,0,0,0c0,0,0,0,0,0c0,0,0,0,0,0v0v0c0,0,0,0,0,0c0,0,0,0,0,0v0v0c0,0,0,0,0,0c0,0,0,0,0,0c0,0,0,0,0,0v0v0c0,0,0,0,0,0
		c0,0,0,0,0,0c0,0,0,0,0,0v0c0,0,0,0,0,0c0,0,0,0,0,0c0,0,0,0,0,0v0v0c0,0,0,0,0,0c0,0,0,0,0,0v0v0c0,0,0,0,0,0c0,0,0,0,0,0v0
		c0,0,0,0,0,0c0,0,0,0,0,0c0,0,0,0,0,0v0c0,0,0,0,0,0c0,0,0,0,0,0v0v0c0,0,0,0,0,0c0,0,0,0,0,0v0c0,0,0,0,0,0c0,0,0,0,0,0v0v0
		c0,0,0,0,0,0c0,0,0,0,0,0v0c0,0,0,0,0,0c0,0,0,0,0,0v0c0,0,0,0,0,0c0,0,0,0,0,0v0c0,0,0,0,0,0c0,0,0,0,0,0v0c0,0,0,0,0,0
		c0,0,0,0,0,0v0c0,0,0,0,0,0c0,0,0,0,0,0v0c0,0,0,0,0,0c0,0,0,0,0,0v0c0,0,0,0,0,0v0c0,0,0,0,0,0c0,0,0,0,0,0v0c0,0,0,0,0,0v0v0
		c0,0,0,0,0,0v0c0,0,0,0,0,0v0c0,0,0,0,0,0c0,0,0,0,0,0v0c0,0,0,0,0,0v0c0,0,0,0,0,0v0c0,0,0,0,0,0v0c0,0,0,0,0,0c0,0,0,0,0,0v0
		c0,0,0,0,0,0v0c0,0,0,0,0,0v0c0,0,0,0,0,0v0c0,0,0,0,0,0v0c0,0,0,0,0,0v0c0,0,0,0,0,0v0c0,0,0,0,0,0c0,0,0,0,0,0v0c0,0,0,0,0,0v0
		c0,0,0,0,0,0v0c0,0,0,0,0,0v0c0,0,0,0,0,0c0,0,0,0,0,0v0c0,0,0,0,0,0v0c0,0,0,0,0,0c0,0,0,0,0,0v0c0,0,0,0,0,0c0,0,0,0,0,0v0
		c0,0,0,0,0,0v0c0,0,0,0,0,0c0,0,0,0,0,0v0c0,0,0,0,0,0c0,0,0,0,0,0c0,0,0,0,0,0v0c0,0,0,0,0,0c0,0,0,0,0,0v0c0,0,0,0,0,0
		c0,0,0,0,0,0v0c0,0,0,0,0,0c0,0,0,0,0,0s0,0,0,0v0c0,0,0,0,0,0c0,0,0,0,0,0c0,0,0,0,0,0c0,0,0,0,0,0v0c0,0,0,0,0,0c0,0,0,0,0,0
		s0,0,0,0c0,0,0,0,0,0v0c0,0,0,0,0,0c0,0,0,0,0,0s0,0,0,0c0,0,0,0,0,0c0,0,0,0,0,0v0c0,0,0,0,0,0c0,0,0,0,0,0c0,0,0,0,0,0
		c0,0,0,0,0,0c0,0,0,0,0,0c0,0,0,0,0,0c0,0,0,0,0,0c0,0,0,0,0,0c0,0,0,0,0,0v0c0,0,0,0,0,0c0,0,0,0,0,0c0,0,0,0,0,0c0,0,0,0,0,0
		c0,0,0,0,0,0c0,0,0,0,0,0c0,0,0,0,0,0c0,0,0,0,0,0c0,0,0,0,0,0c0,0,0,0,0,0c0,0,0,0,0,0c0,0,0,0,0,0c0,0,0,0,0,0c0,0,0,0,0,0
		c0,0,0,0,0,0c0,0,0,0,0,0c0,0,0,0,0,0c0,0,0,0,0,0c0,0,0,0,0,0c0,0,0,0,0,0c0,0,0,0,0,0s0,0,0,0c0,0,0,0,0,0c0,0,0,0,0,0
		c0,0,0,0,0,0c0,0,0,0,0,0c0,0,0,0,0,0c0,0,0,0,0,0c0,0,0,0,0,0c0,0,0,0,0,0s0,0,0,0c0,0,0,0,0,0c0,0,0,0,0,0c0,0,0,0,0,0
		c0,0,0,0,0,0s0,0,0,0c0,0,0,0,0,0c0,0,0,0,0,0c0,0,0,0,0,0c0,0,0,0,0,0c0,0,0,0,0,0c0,0,0,0,0,0c0,0,0,0,0,0c0,0,0,0,0,0
		c0,0,0,0,0,0c0,0,0,0,0,0s0,0,0,0c0,0,0,0,0,0c0,0,0,0,0,0c0,2.2,1.1,4,2.6,5.2c1.4,1.1,3,1.4,4.4,1.4c1.4,0,3-0.4,4.4-1.5
		c1.5-1.2,2.5-3,2.5-5.1l0,0c0.1-5,0.2-9.5,0.2-13.3c1.1,0,2.2-0.1,3.1-0.3c1.2-0.2,2.7-0.5,4-1.4c0.7,0.5,1.5,0.8,2.2,1
		c1.6,0.5,3.6,0.7,5.3,0.7c0,0.1,0,0.2,0,0.3c0,1.2,0,2.4,0,3.6c0,0.7,0,1.3,0,2c-2,0-3.7,0.9-4.9,2.4c-1.1,1.4-1.5,3-1.5,4.4
		c0,1.1,0.2,2.5,1,3.8c0.8,1.3,2,2.1,3,2.5c1.8,0.8,3.8,0.8,5.2,0.8c3.2,0,6.2-0.9,8.3-3.2c2.1-2.2,2.6-5,2.6-7.2c0-0.3,0-0.5,0-0.8
		c1,0.5,2,0.7,3.1,0.7h0l0,0l3.3,0c-0.6,1-0.9,2.2-0.9,3.3c0,3.1,1.9,5.2,4,6.3c1.8,0.9,3.9,1.1,5.8,1.1c5,0,8.7-2.1,11-5.3
		c1.3-1.8,2-3.7,2.3-5.5l5.9,0h0h0c1.2,0,2.3-0.3,3.3-0.8c1.1,0.7,2.5,1.2,3.8,1.2l0,3.5l3.9,0c0,0,0,0,0,0l-3.9,0v0v0v0
		c0,2.2,1,4,2.6,5.2c1.4,1.1,3,1.5,4.4,1.5c0.9,0,1.9-0.2,2.8-0.6c0.6,0.1,1.2,0.2,1.8,0.2c0.6,0,1.5-0.1,2.2-0.3
		c0.9-0.2,2-0.5,3.3-1c1.6-0.6,3.5-1.5,5.5-2.9c1.7,1.1,3.3,2,4.8,2.5c2.4,0.9,4.6,1.4,6,1.4c4.8,0,7-4.1,7-7.2
		C326.2,47.4,325.8,45.8,324.7,44.5z M318.3,21.8L318.3,21.8l0-1.6L318.3,21.8z M319.1,30.1l-0.8,0.7h0L319.1,30.1z M49.3,45.6
		l-0.7-0.9l0,0L49.3,45.6L49.3,45.6z M76.9,44.6C76.9,44.6,76.9,44.6,76.9,44.6C76.9,44.6,76.9,44.6,76.9,44.6L76.9,44.6z
		 M76.6,44.5L76.6,44.5l0.4-0.5l0,0L76.6,44.5z M134.3,51.5L134.3,51.5C134.3,51.5,134.4,51.5,134.3,51.5
		C134.3,51.5,134.3,51.5,134.3,51.5z M169.4,19L169.4,19l0-1.8h0L169.4,19z M176.8,47.6c-0.1,0-0.1,0.1-0.2,0.1
		c0-0.1-0.1-0.2-0.1-0.3l0.4,0C176.9,47.5,176.9,47.5,176.8,47.6z M198.4,42.5l0,1.6h0L198.4,42.5L198.4,42.5z M198.4,39.1l0-0.8
		L198.4,39.1L198.4,39.1z M202,35.2c-0.6-0.4-1.3-0.7-1.9-0.8c0-0.2,0.1-0.5,0.1-0.7l-3.4-0.1v0l3.4,0.1l0,0l0,0
		c0-1.1,0.1-2.4,0.1-3.6c0-1,0-2.1-0.1-2.9l0-0.1l0-0.1c0-0.2,0-0.4-0.1-0.5c0.6-0.3,1.1-0.7,1.6-1.3c0.2-0.2,0.3-0.3,0.4-0.5
		C202,27.9,202,31.6,202,35.2z M206.8,49.6l-1.2,0L206.8,49.6L206.8,49.6z M231.2,45.1l-0.4,2.3v0L231.2,45.1L231.2,45.1L231.2,45.1
		z M247.3,40.8L247.3,40.8l0,1.4L247.3,40.8z M263.9,34.5L263.9,34.5L263.9,34.5L263.9,34.5z M264.2,17.6c-0.6,0-1.2,0-1.8,0
		c0.3-0.1,0.6-0.2,1-0.2C263.6,17.5,263.9,17.5,264.2,17.6C264.3,17.6,264.3,17.6,264.2,17.6z M277,30L277,30l1.8,0.1L277,30z
		 M285.5,38.8C285.5,38.8,285.5,38.8,285.5,38.8l0.4,0.4L285.5,38.8z M289.7,17.5l1.1,0h0L289.7,17.5z M304.1,38
		C304.1,38,304.1,38,304.1,38L304.1,38L304.1,38z M319.1,52.1C319.1,52.1,319.1,52.1,319.1,52.1C319.1,52.1,319.1,52.1,319.1,52.1
		L319.1,52.1z"/>
	<path class="st0" d="M39.2,23.5L39.2,23.5C39.2,23.5,39.2,23.5,39.2,23.5C39.2,23.5,39.2,23.5,39.2,23.5L39.2,23.5
		C39,17.4,34,14.1,29.5,14l0,0l0,0c-1.4,0-3.5-0.1-5.7-0.1c-2.6,0-5.2,0-6.8,0.1l0,0l0,0c-2.4,0.1-4.8,0.8-6.7,2.5
		c-2,1.7-3,4.1-3.1,6.7l0,0C7,25.9,7,29.9,7,33.8c0,4.4,0,8.8,0.1,11.5l0,0l0,0c0.1,2.4,0.9,5,3,6.9c2,1.9,4.6,2.6,7.1,2.7l0,0
		c0,0,0,0,0.1,0c0,0,0,0,0,0v0c1.8,0.1,4,0.1,6,0.1c2.1,0,4.4,0,6.2-0.1v0c0,0,0,0,0,0c0,0,0,0,0,0l0,0c5.4-0.2,9.5-4.3,9.7-9.8l0,0
		c0,0,0,0,0,0c0,0,0,0,0,0h0c0.1-2.2,0.1-6.7,0.1-11.1C39.3,30.1,39.3,26,39.2,23.5z M25.4,41.3c-0.7,0-1.5,0-2.3,0
		c-1,0-1.7,0-2.4,0c0-0.4,0-0.8,0-1.2h4.7C25.4,40.5,25.4,40.9,25.4,41.3z"/>
</g>
<g>
	<path class="st1" d="M327.7,39.5c-1.2-1.4-2.8-2.2-4.5-2.3l0,0c-1-0.1-2-0.3-2.8-0.7c0.4-0.9,0.8-1.7,1-2.4
		c0.1-0.2,0.1-0.3,0.2-0.4c2.9-0.7,5.4-3.4,5.4-6.8c0-1.4-0.5-2.6-0.9-3.3c0,0,0-0.1-0.1-0.1c0.1-0.1,0.2-0.2,0.3-0.2
		c1.3-1.3,2-3,2-4.7c0-3.5-2.8-6.7-6.9-6.7h0l0,0l0,3.4h0l0-3.4l-3,0c-0.3-1.6-1.2-3-2.5-3.9c-1.4-1.1-3-1.4-4.4-1.4
		c-1.4,0-3,0.4-4.4,1.4c-1.2,0.9-2.1,2.3-2.5,3.9l-1.8,0l0,2.9l0,0l0-2.9l0,0h0c0,0-0.1,0-0.1,0c-0.2-1.9-1.1-3.5-2.5-4.6
		c-1.4-1.1-3-1.5-4.4-1.5c-1.4,0-3,0.4-4.4,1.4c-1.6,1.2-2.6,3.1-2.6,5.3v0v0l0,0l0,1.7c-1.4,0.3-2.6,1-3.6,2.1
		c0,0.1-0.1,0.1-0.1,0.2c-0.5-0.7-1.1-1.3-1.8-1.8c-0.4-0.3-0.7-0.5-1.1-0.7c0-0.3,0.1-0.6,0.1-1c0-2.4-1.2-4.2-2.6-5.3
		c-1.3-1.1-3-1.7-4.7-1.7c-1.8,0-3.7,0.7-5,2.2c-0.3-0.3-0.7-0.7-1.1-1c-0.9-0.7-2.5-1.7-4.6-1.7c-1.6,0-3.2,0.5-4.4,1.5
		c-0.1,0.1-0.2,0.1-0.3,0.2c-0.8-0.4-1.9-0.8-3.3-0.8c-1.8,0-3.4,0.7-4.6,1.7c-1.1,1-2.4,2.7-2.4,5c0,0.3,0,0.7,0.1,1
		c-0.5,0.3-1,0.7-1.5,1.1c-0.3,0.3-0.6,0.6-0.8,0.9c0,0,0,0,0,0c0,0,0,0,0,0c0,0,0,0,0,0c0,0,0,0,0,0c0,0,0,0,0,0c0,0,0,0,0,0
		c0,0,0,0,0,0c0,0,0,0,0,0c0,0,0,0,0,0c0,0,0,0,0,0c0,0,0,0,0,0c0,0,0,0,0,0c0,0,0,0,0,0c0,0,0,0,0,0c0,0,0,0,0,0c0,0,0,0,0,0
		c0,0,0,0,0,0c0,0,0,0,0,0c0,0,0,0,0,0c0,0,0,0,0,0s0,0,0,0s0,0,0,0s0,0,0,0s0,0,0,0s0,0,0,0s0,0,0,0c0,0,0,0,0,0c0,0,0,0,0,0
		c0,0,0,0,0,0c0,0,0,0,0,0c0,0,0,0,0,0c0,0,0,0,0,0c0,0,0,0,0,0c0,0,0,0,0,0c0,0,0,0,0,0s0,0,0,0c0,0,0,0,0,0c0,0,0,0,0,0
		c0,0,0,0,0,0c0,0,0,0,0,0c0,0,0,0,0,0c0,0,0,0,0,0c0,0,0,0,0,0c0,0,0,0,0,0c0,0,0,0,0,0c0,0,0,0,0,0c0,0,0,0,0,0c0,0,0,0,0,0
		c0,0,0,0,0,0c0,0,0,0,0,0s0,0,0,0s0,0,0,0s0,0,0,0c0-2.1-0.7-4.3-2.5-6.1c-1.8-1.7-4.1-2.5-6.4-2.7l0,0c0,0,0,0,0,0c0,0,0,0,0,0v0
		c-0.9,0-2.2,0-3.3,0c-1.5,0-3.4,0-4.3,0v0c0,0,0,0,0,0c0,0,0,0-0.1,0l0,0c-1.6,0.1-3.3,0.6-4.6,1.6c-1.3-0.9-2.9-1.5-4.6-1.6l0,0
		c0,0,0,0-0.1,0c0,0,0,0,0,0v0c-0.9,0-2.7,0-4.2,0c-1,0-2.1,0-3.2,0.1c-1,0.1-2.4,0.3-3.7,0.8c-1.4,0.6-2.9,1.7-3.8,3.3
		c-0.2,0.4-0.4,0.9-0.6,1.3c-0.3-0.5-0.6-1-1-1.5c-1.3-1.4-3.1-2.2-5-2.2h0h0l-7.8,0c-0.4-0.7-0.9-1.3-1.5-1.8
		c-1.4-1.1-3-1.6-4.5-1.6s-3.1,0.4-4.5,1.6c-0.6,0.5-1.1,1.1-1.5,1.8l-7.5,0l0,3.2h0l0-3.2h0h0c-4,0-6.8,3.1-6.8,6.6
		c0,2.3,1.2,4.5,3.3,5.7c-0.1,0.3-0.1,0.6-0.1,0.9l0,0l0,0c0,1.1,0,2.1,0,3.1c0,1,0,2,0,3.3l0,0v0c0,0.2,0,0.5,0.1,0.7
		c-0.2,0-0.4,0.1-0.6,0.2c0.1-0.4,0.1-0.8,0.1-1.1c0-1.3-0.4-2.9-1.5-4.3c-1.2-1.6-3.1-2.5-5.2-2.5h0h0l0,0l-1.9,0c0,0,0,0,0,0
		c0,0,0,0,0,0l0,0c1.4-1.6,2.3-3.6,2.3-5.7c0-2.1-0.8-4.2-2.6-5.7c-1.7-1.5-3.8-2.1-5.9-2.1v0c0,0,0,0,0,0h0c-2.3,0-5.2-0.1-8.3-0.1
		c-3,0-6.2,0-8.7,0.1v0c0,0,0,0,0,0c0,0,0,0,0,0v0c-1.8,0.1-3.6,0.8-4.9,2.2c-1.3,1.4-1.8,3.1-1.8,4.6c0,3.3,2.6,6.8,6.8,6.8
		c0,0,0,0,0,0h0c0,0,0,0,0,0h0c0,0,0,0,0,0h0h0c0,0,0,0,0,0c0,0,0,0,0,0c0,0,0,0,0,0c0,0,0,0,0,0h0c0,0,0,0,0,0c0,0,0,0,0,0s0,0,0,0
		h0c0,0,0,0,0,0c0,0,0,0,0,0c0,0,0,0,0,0c0,0,0,0,0,0h0c0,0,0,0,0,0h0c0,0,0,0,0,0c0,0,0,0,0,0c0,0,0,0,0,0h0h0c0,0,0,0,0,0h0h0
		c0,0,0,0,0,0c0,0,0,0,0,0c0,0,0,0,0,0h0c0,0,0,0,0,0s0,0,0,0s0,0,0,0c0,0,0,0,0,0s0,0,0,0c0,0,0,0,0,0s0,0,0,0c0,0,0,0,0,0s0,0,0,0
		c0,0,0,0,0,0h0h0c0,0,0,0,0,0c0,0,0,0,0,0h0h0c0,0,0,0,0,0h0h0c0,0,0,0,0,0c0,0,0,0,0,0c0,0,0,0,0,0h0c0,0,0,0,0,0h0c0,0,0,0,0,0
		c0,0,0,0,0,0c0,0,0,0,0,0c0,0,0,0,0,0h0c0,0,0,0,0,0s0,0,0,0s0,0,0,0h0c0,0,0,0,0,0c0,0,0,0,0,0c0,0,0,0,0,0c0,0,0,0,0,0h0h0
		c0,0,0,0,0,0h0c0,0,0,0,0,0h0c0,0,0,0,0,0h0.1l0.1,0c0.1,0,0.2,0,0.2,0c0,0,0,0.1,0,0.1l-6.7,0v0c-0.9,0-1.9,0.2-2.7,0.5
		c0-0.3,0-0.6,0-0.8c0-0.5,0-1.3,0-2h0c0,0,0,0,0,0c0-0.1,0-0.1,0-0.2l0,0c-0.2-2.9-1.8-5-3.7-6.2c0-1.5-0.6-3.1-1.8-4.4
		c-1.3-1.4-3.1-2-4.9-2H94.6c-1.7,0-3.5,0.6-4.8,1.9c-1.2,1.2-1.8,2.8-1.9,4.3c-0.4,0.2-0.7,0.5-1.1,0.8c-0.7,0.7-1.3,1.4-1.7,2.1
		c-1.2-1.2-2.9-1.8-4.6-1.8h-7.7v-1.7c0-2.2-1.1-4.1-2.5-5.2c-1.4-1.1-3-1.5-4.4-1.5c-1.4,0-3,0.4-4.5,1.5c-1.5,1.3-2.4,3.1-2.4,5.2
		V14h-7.8c-4.6,0-6.8,3.9-6.8,6.9c0,1.5,0.5,3.2,1.8,4.6c1.4,1.4,3.2,2.1,5,2.1h0h0l0,0l0.9,0c-1.8,1.9-3.8,3.5-5.9,5l0,0
		c-1.9,1.3-3.2,3.4-3.2,5.9c0,4,3.3,6.9,7,6.9c1.6,0,3.2-0.6,4.4-1.5l0,0l0,0l-2.4-3.1c0,0,0,0,0,0l2.4,3.1c0.6-0.5,1.2-0.9,1.8-1.4
		c0.8,0.4,1.7,0.6,2.6,0.6v1.9c0,2.2,1.1,4,2.6,5.2c1.4,1.1,3,1.4,4.4,1.4c1.4,0,3-0.4,4.4-1.4c1.5-1.2,2.6-3,2.6-5.2v-1.9
		c1.1,0,2.1-0.3,3.1-0.8c0.4,0.3,0.8,0.6,1.1,0.9l0.1,0.1l0.1,0.1c1.1,0.7,2.5,1.3,4.2,1.3c3.9,0,7.3-3.2,7.3-7.2
		c0-2.5-1.3-4.5-3.1-5.7l-0.1,0l-0.1,0c-1.7-1.1-3.4-2.4-5-3.8l0,0l0,0h0h0c1.6,0,3.2-0.6,4.4-1.6c0.4,0.8,1,1.5,1.7,2
		c0.8,0.6,1.7,1,2.5,1.2c-0.1,0.5-0.2,1.1-0.2,1.6l0,0l0,0l3.5,0.2v0L89,30.8c0,1,0,2.1,0,3c0,0.9,0,2,0,3.1l3.5-0.1v0L89,36.9l0,0
		c0.1,2.3,1.1,4.5,3.1,6.1c1.8,1.4,4.1,2,6.2,2l0,0l0,0c0.5,0,1,0,1.5,0c0.2,0.5,0.5,1.1,0.8,1.6c1.1,1.7,2.7,2.7,4.2,3.3
		c1.4,0.5,2.9,0.7,4.1,0.8c1.3,0.1,2.6,0.1,3.9,0.1c2.1,0,5.7,0.1,8.8-1.2c1.7-0.7,3.4-1.8,4.7-3.7c1.3-1.9,1.8-4.1,1.8-6.4
		c0-2.5-1.4-4.3-2.8-5.3c-0.7-0.5-1.5-0.8-2.3-1.1c0-0.9,0-1.9-0.1-2.8l0,0c0,0,0,0,0,0c0,0,0,0,0,0l0,0c0-0.4-0.1-0.8-0.2-1.2
		c0.3-0.1,0.7-0.2,1-0.3c0,1.4,0.5,3,1.7,4.3c1.3,1.5,3.1,2.3,5.1,2.3h0h0l0,0l11.6-0.1c-0.1,0.3-0.1,0.6-0.2,0.9
		c-0.2,0.6-0.4,0.8-0.3,0.7c0,0,0,0,0,0c0,0-0.1,0-0.3,0c-0.3,0-0.6,0-1.1-0.2l0,0l0,0c-0.6-0.2-1.3-0.3-2.1-0.3
		c-4.5,0-6.9,3.8-6.9,7c0,2.3,1.1,4.6,3.4,6c1.9,1.2,4.3,1.6,6.7,1.6c7.5,0,12.9-5,14.4-11.2l0,0l0,0l-4-0.9l0,0l4,0.9
		c0.4-1.6,0.6-3.1,0.8-4.6l5.4,0v0c0.8,0,1.6-0.2,2.3-0.4c-0.1,0.3-0.1,0.7-0.1,1c0,1.4,0.4,3,1.6,4.4c1.3,1.5,3.1,2.2,5,2.2h0h0
		l0,0l1.7,0c0.1,0.2,0.2,0.5,0.4,0.7c0.8,1.2,2,2.1,3.3,2.5l0,0l0,0c1.2,0.4,1.7,0.6,2.1,1l0,0c0.8,0.7,1.6,1.1,2.6,1.4
		c0.6,0.8,1.3,1.5,2.1,2c1.8,1.1,4,1.2,5.7,1.2c3.3,0,6.2-1,8.2-3.2c1.7-1.7,2.4-3.8,2.6-5.7l2,0l0.1,0h0.1h0c1.4,0,2.5-0.4,3.5-0.9
		c0,1-0.1,2-0.1,2.9l0,0.1v0.1c0,0,0,0,0,0c0,0,0,0,0,0c0,0,0,0,0,0c0,0,0,0,0,0c0,0,0,0,0,0c0,0,0,0,0,0c0,0,0,0,0,0s0,0,0,0
		c0,0,0,0,0,0c0,0,0,0,0,0c0,0,0,0,0,0c0,0,0,0,0,0c0,0,0,0,0,0c0,0,0,0,0,0c0,0,0,0,0,0c0,0,0,0,0,0c0,0,0,0,0,0c0,0,0,0,0,0
		c0,0,0,0,0,0c0,0,0,0,0,0c0,0,0,0,0,0c0,0,0,0,0,0c0,0,0,0,0,0c0,0,0,0,0,0c0,0,0,0,0,0c0,0,0,0,0,0c0,0,0,0,0,0s0,0,0,0
		c0,0,0,0,0,0c0,0,0,0,0,0c0,0,0,0,0,0c0,0,0,0,0,0c0,0,0,0,0,0c0,0,0,0,0,0c0,0,0,0,0,0c0,0,0,0,0,0c0,0,0,0,0,0c0,0,0,0,0,0
		c0,0,0,0,0,0c0,0,0,0,0,0c0,0,0,0,0,0c0,0,0,0,0,0c0,0,0,0,0,0c0,0,0,0,0,0c0,0,0,0,0,0c0,0,0,0,0,0c0,0,0,0,0,0c0,0,0,0,0,0
		c0,0,0,0,0,0c0,0,0,0,0,0v0c0,0,0,0,0,0c0,0,0,0,0,0c0,0,0,0,0,0c0,0,0,0,0,0c0,0,0,0,0,0s0,0,0,0c0,0,0,0,0,0c0,0,0,0,0,0v0
		c0,0,0,0,0,0c0,0,0,0,0,0c0,0,0,0,0,0c0,0,0,0,0,0c0,0,0,0,0,0v0c0,0,0,0,0,0c0,0,0,0,0,0c0,0,0,0,0,0c0,0,0,0,0,0v0c0,0,0,0,0,0
		c0,0,0,0,0,0s0,0,0,0c0,0,0,0,0,0v0c0,0,0,0,0,0c0,0,0,0,0,0c0,0,0,0,0,0v0c0,0,0,0,0,0c0,0,0,0,0,0v0c0,0,0,0,0,0c0,0,0,0,0,0
		c0,0,0,0,0,0v0c0,0,0,0,0,0c0,0,0,0,0,0v0c0,0,0,0,0,0c0,0,0,0,0,0v0c0,0,0,0,0,0v0c0,0,0,0,0,0c0,0,0,0,0,0v0c0,0,0,0,0,0
		c0,0,0,0,0,0v0c0,0,0,0,0,0v0c0,0,0,0,0,0c0,0,0,0,0,0v0c0,0,0,0,0,0v0c0,0,0,0,0,0v0c0,0,0,0,0,0v0c0,0,0,0,0,0c0,0,0,0,0,0v0
		c0,0,0,0,0,0v0c0,0,0,0,0,0v0c0,0,0,0,0,0v0c0,0,0,0,0,0v0c0,0,0,0,0,0v0c0,0,0,0,0,0v0c0,0,0,0,0,0c0,0,0,0,0,0v0c0,0,0,0,0,0v0
		c0,0,0,0,0,0v0c0,0,0,0,0,0v0c0,0,0,0,0,0c0,0,0,0,0,0v0c0,0,0,0,0,0v0c0,0,0,0,0,0v0v0c0,0,0,0,0,0v0c0,0,0,0,0,0c0,0,0,0,0,0v0
		c0,0,0,0,0,0v0c0,0,0,0,0,0c0,0,0,0,0,0v0c0,0,0,0,0,0c0,0,0,0,0,0v0c0,0,0,0,0,0c0,0,0,0,0,0v0c0,0,0,0,0,0c0,0,0,0,0,0v0
		c0,0,0,0,0,0c0,0,0,0,0,0v0c0,0,0,0,0,0c0,0,0,0,0,0v0c0,0,0,0,0,0c0,0,0,0,0,0v0v0c0,0,0,0,0,0c0,0,0,0,0,0v0c0,0,0,0,0,0
		c0,0,0,0,0,0v0v0c0,0,0,0,0,0c0,0,0,0,0,0v0c0,0,0,0,0,0c0,0,0,0,0,0v0v0c0,0,0,0,0,0c0,0,0,0,0,0v0v0c0,0,0,0,0,0c0,0,0,0,0,0v0v0
		c0,0,0,0,0,0c0,0,0,0,0,0c0,0,0,0,0,0v0c0,0,0,0,0,0c0,0,0,0,0,0c0,0,0,0,0,0v0v0c0,0,0,0,0,0c0,0,0,0,0,0c0,0,0,0,0,0v0
		c0,0,0,0,0,0c0,0,0,0,0,0c0,0,0,0,0,0v0v0c0,0,0,0,0,0c0,0,0,0,0,0c0,0,0,0,0,0v0v0c0,0,0,0,0,0c0,0,0,0,0,0c0,0,0,0,0,0v0v0
		c0,0,0,0,0,0c0,0,0,0,0,0c0,0,0,0,0,0c0,0,0,0,0,0v0v0c0,0,0,0,0,0c0,0,0,0,0,0c0,0,0,0,0,0v0v0c0,0,0,0,0,0c0,0,0,0,0,0
		c0,0,0,0,0,0c0,0,0,0,0,0v0v0c0,0,0,0,0,0c0,0,0,0,0,0c0,0,0,0,0,0v0v0v0c0,0,0,0,0,0c0,0,0,0,0,0c0,0,0,0,0,0v0v0c0,0,0,0,0,0
		c0,0,0,0,0,0c0,0,0,0,0,0c0,0,0,0,0,0v0v0c0,0,0,0,0,0c0,0,0,0,0,0c0,0,0,0,0,0c0,0,0,0,0,0v0v0c0,0,0,0,0,0c0,0,0,0,0,0
		c0,0,0,0,0,0v0v0v0c0,0,0,0,0,0c0,0,0,0,0,0c0,0,0,0,0,0v0v0c0,0,0,0,0,0c0,0,0,0,0,0c0,0,0,0,0,0c0,0,0,0,0,0v0v0c0,0,0,0,0,0
		c0,0,0,0,0,0c0,0,0,0,0,0v0v0c0,0,0,0,0,0c0,0,0,0,0,0c0,0,0,0,0,0c0,0,0,0,0,0v0v0c0,0,0,0,0,0c0,0,0,0,0,0c0,0,0,0,0,0v0v0
		c0,0,0,0,0,0c0,0,0,0,0,0c0,0,0,0,0,0v0v0c0,0,0,0,0,0c0,0,0,0,0,0v0v0c0,0,0,0,0,0c0,0,0,0,0,0c0,0,0,0,0,0v0v0c0,0,0,0,0,0
		c0,0,0,0,0,0c0,0,0,0,0,0v0c0,0,0,0,0,0c0,0,0,0,0,0c0,0,0,0,0,0v0v0c0,0,0,0,0,0c0,0,0,0,0,0v0v0c0,0,0,0,0,0c0,0,0,0,0,0v0
		c0,0,0,0,0,0c0,0,0,0,0,0c0,0,0,0,0,0v0c0,0,0,0,0,0c0,0,0,0,0,0v0v0c0,0,0,0,0,0c0,0,0,0,0,0v0c0,0,0,0,0,0c0,0,0,0,0,0v0v0
		c0,0,0,0,0,0c0,0,0,0,0,0v0c0,0,0,0,0,0c0,0,0,0,0,0v0c0,0,0,0,0,0c0,0,0,0,0,0v0c0,0,0,0,0,0c0,0,0,0,0,0v0c0,0,0,0,0,0
		c0,0,0,0,0,0v0c0,0,0,0,0,0c0,0,0,0,0,0v0c0,0,0,0,0,0c0,0,0,0,0,0v0c0,0,0,0,0,0v0c0,0,0,0,0,0c0,0,0,0,0,0v0c0,0,0,0,0,0v0v0
		c0,0,0,0,0,0v0c0,0,0,0,0,0v0c0,0,0,0,0,0c0,0,0,0,0,0v0c0,0,0,0,0,0v0c0,0,0,0,0,0v0c0,0,0,0,0,0v0c0,0,0,0,0,0c0,0,0,0,0,0v0
		c0,0,0,0,0,0v0c0,0,0,0,0,0v0c0,0,0,0,0,0v0c0,0,0,0,0,0v0c0,0,0,0,0,0v0c0,0,0,0,0,0v0c0,0,0,0,0,0c0,0,0,0,0,0v0c0,0,0,0,0,0v0
		c0,0,0,0,0,0v0c0,0,0,0,0,0v0c0,0,0,0,0,0c0,0,0,0,0,0v0c0,0,0,0,0,0v0c0,0,0,0,0,0c0,0,0,0,0,0v0c0,0,0,0,0,0c0,0,0,0,0,0v0
		c0,0,0,0,0,0v0c0,0,0,0,0,0c0,0,0,0,0,0v0c0,0,0,0,0,0c0,0,0,0,0,0c0,0,0,0,0,0v0c0,0,0,0,0,0c0,0,0,0,0,0v0c0,0,0,0,0,0
		c0,0,0,0,0,0v0c0,0,0,0,0,0c0,0,0,0,0,0s0,0,0,0v0c0,0,0,0,0,0c0,0,0,0,0,0c0,0,0,0,0,0c0,0,0,0,0,0v0c0,0,0,0,0,0c0,0,0,0,0,0
		s0,0,0,0c0,0,0,0,0,0v0c0,0,0,0,0,0c0,0,0,0,0,0s0,0,0,0c0,0,0,0,0,0c0,0,0,0,0,0v0c0,0,0,0,0,0c0,0,0,0,0,0c0,0,0,0,0,0
		c0,0,0,0,0,0c0,0,0,0,0,0c0,0,0,0,0,0c0,0,0,0,0,0c0,0,0,0,0,0c0,0,0,0,0,0v0c0,0,0,0,0,0c0,0,0,0,0,0c0,0,0,0,0,0c0,0,0,0,0,0
		c0,0,0,0,0,0c0,0,0,0,0,0c0,0,0,0,0,0c0,0,0,0,0,0c0,0,0,0,0,0c0,0,0,0,0,0c0,0,0,0,0,0c0,0,0,0,0,0c0,0,0,0,0,0c0,0,0,0,0,0
		c0,0,0,0,0,0c0,0,0,0,0,0c0,0,0,0,0,0c0,0,0,0,0,0c0,0,0,0,0,0c0,0,0,0,0,0c0,0,0,0,0,0s0,0,0,0c0,0,0,0,0,0c0,0,0,0,0,0
		c0,0,0,0,0,0c0,0,0,0,0,0c0,0,0,0,0,0c0,0,0,0,0,0c0,0,0,0,0,0c0,0,0,0,0,0s0,0,0,0c0,0,0,0,0,0c0,0,0,0,0,0c0,0,0,0,0,0
		c0,0,0,0,0,0s0,0,0,0c0,0,0,0,0,0c0,0,0,0,0,0c0,0,0,0,0,0c0,0,0,0,0,0c0,0,0,0,0,0c0,0,0,0,0,0c0,0,0,0,0,0c0,0,0,0,0,0
		c0,0,0,0,0,0c0,0,0,0,0,0s0,0,0,0c0,0,0,0,0,0c0,0,0,0,0,0c0,2.2,1.1,4,2.6,5.2c1.4,1.1,3,1.4,4.4,1.4c1.4,0,3-0.4,4.4-1.5
		c1.5-1.2,2.5-3,2.5-5.1l0,0c0.1-5,0.2-9.5,0.2-13.3c1.1,0,2.2-0.1,3.1-0.3c1.2-0.2,2.7-0.5,4-1.4c0.7,0.5,1.5,0.8,2.2,1
		c1.6,0.5,3.6,0.7,5.3,0.7c0,0.1,0,0.2,0,0.3c0,1.2,0,2.4,0,3.6c0,0.7,0,1.3,0,2c-2,0-3.7,0.9-4.9,2.4c-1.1,1.4-1.5,3-1.5,4.4
		c0,1.1,0.2,2.5,1,3.8c0.8,1.3,2,2.1,3,2.5c1.8,0.8,3.8,0.8,5.2,0.8c3.2,0,6.2-0.9,8.3-3.2c2.1-2.2,2.6-5,2.6-7.2c0-0.3,0-0.5,0-0.8
		c1,0.5,2,0.7,3.1,0.7h0l0,0l3.3,0c-0.6,1-0.9,2.2-0.9,3.3c0,3.1,1.9,5.2,4,6.3c1.8,0.9,3.9,1.1,5.8,1.1c5,0,8.7-2.1,11-5.3
		c1.3-1.8,2-3.7,2.3-5.5l5.9,0h0h0c1.2,0,2.3-0.3,3.3-0.8c1.1,0.7,2.5,1.2,3.8,1.2l0,3.5l3.9,0c0,0,0,0,0,0l-3.9,0v0v0v0
		c0,2.2,1,4,2.6,5.2c1.4,1.1,3,1.5,4.4,1.5c0.9,0,1.9-0.2,2.8-0.6c0.6,0.1,1.2,0.2,1.8,0.2c0.6,0,1.5-0.1,2.2-0.3
		c0.9-0.2,2-0.5,3.3-1c1.6-0.6,3.5-1.5,5.5-2.9c1.7,1.1,3.3,2,4.8,2.5c2.4,0.9,4.6,1.4,6,1.4c4.8,0,7-4.1,7-7.2
		C329.2,42.4,328.8,40.8,327.7,39.5z M321.3,16.8L321.3,16.8l0-1.6L321.3,16.8z M322.1,25.1l-0.8,0.7h0L322.1,25.1z M52.3,40.6
		l-0.7-0.9l0,0L52.3,40.6L52.3,40.6z M79.9,39.6C79.9,39.6,79.9,39.6,79.9,39.6C79.9,39.6,79.9,39.6,79.9,39.6L79.9,39.6z
		 M79.6,39.5L79.6,39.5l0.4-0.5l0,0L79.6,39.5z M137.3,46.5L137.3,46.5C137.3,46.5,137.4,46.5,137.3,46.5
		C137.3,46.5,137.3,46.5,137.3,46.5z M172.4,14L172.4,14l0-1.8h0L172.4,14z M179.8,42.6c-0.1,0-0.1,0.1-0.2,0.1
		c0-0.1-0.1-0.2-0.1-0.3l0.4,0C179.9,42.5,179.9,42.5,179.8,42.6z M201.4,37.5l0,1.6h0L201.4,37.5L201.4,37.5z M201.4,34.1l0-0.8
		L201.4,34.1L201.4,34.1z M205,30.2c-0.6-0.4-1.3-0.7-1.9-0.8c0-0.2,0.1-0.5,0.1-0.7l0,0l0,0c0-1.1,0.1-2.4,0.1-3.6
		c0-1,0-2.1-0.1-2.9l0-0.1l0-0.1c0-0.2,0-0.4-0.1-0.5c0.6-0.3,1.1-0.7,1.6-1.3c0.2-0.2,0.3-0.3,0.4-0.5C205,22.9,205,26.6,205,30.2z
		 M209.8,44.6l-1.2,0L209.8,44.6L209.8,44.6z M234.2,40.1l-0.4,2.3v0L234.2,40.1L234.2,40.1L234.2,40.1z M250.3,35.8L250.3,35.8
		l0,1.4L250.3,35.8z M266.9,29.5L266.9,29.5L266.9,29.5L266.9,29.5z M267.2,12.6c-0.6,0-1.2,0-1.8,0c0.3-0.1,0.6-0.2,1-0.2
		C266.6,12.5,266.9,12.5,267.2,12.6C267.3,12.6,267.3,12.6,267.2,12.6z M280,25L280,25l1.8,0.1l0,0L280,25z M288.5,33.8
		C288.5,33.8,288.5,33.8,288.5,33.8l0.4,0.4L288.5,33.8z M292.7,12.5l1.1,0h0L292.7,12.5z M307.1,33C307.1,33,307.1,33,307.1,33
		L307.1,33L307.1,33z M322.1,47.1C322.1,47.1,322.1,47.1,322.1,47.1C322.1,47.1,322.1,47.1,322.1,47.1L322.1,47.1z"/>
	<path class="st1" d="M42.2,18.5L42.2,18.5C42.2,18.5,42.2,18.5,42.2,18.5C42.2,18.5,42.2,18.5,42.2,18.5L42.2,18.5
		C42,12.4,37,9.1,32.5,9l0,0l0,0c-1.4,0-3.5-0.1-5.7-0.1c-2.6,0-5.2,0-6.8,0.1l0,0l0,0c-2.4,0.1-4.8,0.8-6.7,2.5
		c-2,1.7-3,4.1-3.1,6.7l0,0C10,20.9,10,24.9,10,28.8c0,4.4,0,8.8,0.1,11.5l0,0l0,0c0.1,2.4,0.9,5,3,6.9c2,1.9,4.6,2.6,7.1,2.7l0,0
		c0,0,0,0,0.1,0c0,0,0,0,0,0v0c1.8,0.1,4,0.1,6,0.1c2.1,0,4.4,0,6.2-0.1v0c0,0,0,0,0,0c0,0,0,0,0,0l0,0c5.4-0.2,9.5-4.3,9.7-9.8l0,0
		c0,0,0,0,0,0c0,0,0,0,0,0h0c0.1-2.2,0.1-6.7,0.1-11.1C42.3,25.1,42.3,21,42.2,18.5z M28.4,36.3c-0.7,0-1.5,0-2.3,0
		c-1,0-1.7,0-2.4,0c0-0.4,0-0.8,0-1.2h4.7C28.4,35.5,28.4,35.9,28.4,36.3z"/>
</g>
<path class="st2" d="M37.2,40c-0.1,2.8-2.1,4.8-5,5c-1.8,0.1-3.9,0.1-6,0.1c-2.1,0-4.2,0-5.8-0.1c-3.5-0.1-5.2-1.9-5.3-4.8
	c-0.1-2.6-0.1-7-0.1-11.3c0-3.9,0-7.8,0.1-10.5c0.1-2.6,2-4.2,5-4.4c1.5,0,4.1-0.1,6.7-0.1c2.1,0,4.2,0,5.6,0.1
	c2.4,0.1,4.8,1.8,4.9,4.7c0.1,2.4,0.1,6.4,0.1,10.4C37.3,33.5,37.3,37.9,37.2,40z M18.7,26.6h14.7c0-2.5,0-4.8-0.1-6.4
	c-0.1-2.8-0.7-2.8-7.1-2.8c-6.8,0-7.3,0-7.4,2.8C18.8,21.8,18.7,24,18.7,26.6z M33.4,30.1H18.7c0,3.4,0,6.6,0.1,8.5
	c0.1,2.6,0.5,2.8,7.3,2.8c1.6,0,3.2,0,4.2,0c2.2-0.1,2.9-1.1,3-2.8C33.4,36.4,33.4,33.3,33.4,30.1z M72.6,37.9h-4.8v6.9
	c0,1.1-1,1.6-1.9,1.6S64,45.9,64,44.8v-6.9h-4.7c-1.2,0-1.8-0.8-1.8-1.6c0-0.9,0.6-1.8,1.8-1.8H64v-1l0.1-7.8
	c-3.1,5.2-7.5,10.2-12.6,14c-0.5,0.4-1,0.5-1.4,0.5c-1.1,0-2-0.9-2-1.9c0-0.6,0.3-1.2,1-1.7c5.2-3.5,9.8-8.4,13.2-14.2l-11.1,0.2h0
	c-1.2,0-1.8-0.8-1.8-1.7c0-0.9,0.6-1.9,1.8-1.9H64v-6.7c0-1.2,0.9-1.7,1.9-1.7s2,0.6,2,1.7V19h12.7c1.2,0,1.7,0.9,1.7,1.8
	c0,0.9-0.6,1.8-1.7,1.8h0l-11.1-0.2c3.5,5.8,8.5,10,13.3,13.1c0.7,0.5,1,1,1,1.6c0,1.1-1,2.2-2.3,2.2c-0.4,0-0.9-0.2-1.4-0.5
	c-4.2-3.1-9-8.2-12.2-13.4l0.1,8v1h4.8c1.2,0,1.7,0.8,1.7,1.7C74.4,37.1,73.8,37.9,72.6,37.9z M116.3,22.6h-5.7
	c-1,0-1.4-0.6-1.4-1.2c0-0.6,0.5-1.2,1.4-1.2h5.7c1,0,1.4,0.6,1.4,1.2C117.7,22,117.2,22.6,116.3,22.6z M116.8,26.3h-6.2
	c-1,0-1.4-0.6-1.4-1.2c0-0.6,0.5-1.2,1.4-1.2h6.2c1,0,1.4,0.6,1.4,1.2C118.2,25.7,117.8,26.3,116.8,26.3z M119,22.8v-2.4
	c0-1.2-0.6-1.4-2.2-1.4c-2.4,0-5.6-0.1-9-0.1v6c0,1.3-0.9,2-1.9,2c-0.9,0-1.9-0.7-1.9-2v-6c-3.4,0-6.6,0-8.9,0.1
	c-2.2,0-2.3,0.6-2.3,1.6c0,0,0,0,0,2.3v0c0,1-1,1.5-1.9,1.5c-0.9,0-1.8-0.5-1.8-1.6c0-0.5,0-1,0-1.5c0-0.5,0-1.1,0-1.7
	c0.1-1.8,1.2-3.3,4.2-3.3c3.2,0,6.9-0.1,10.6-0.1v-1.6h-9.4c-1.1,0-1.7-0.8-1.7-1.6c0-0.8,0.6-1.6,1.7-1.6h22.8
	c1.1,0,1.6,0.8,1.6,1.6c0,0.8-0.6,1.6-1.6,1.6h-9.6v1.6c3.6,0,7.1,0,10.2,0.1c2.2,0,4.6,0.9,4.7,3.2c0,0.5,0,1.2,0,1.9
	c0,1.6,0,2.9-2,2.9C119.9,24.4,119,23.9,119,22.8C119,22.9,119,22.9,119,22.8z M101.2,22.6h-5.7c-0.9,0-1.4-0.6-1.4-1.2
	c0-0.6,0.5-1.2,1.4-1.2h5.7c1,0,1.4,0.6,1.4,1.2C102.7,22,102.2,22.6,101.2,22.6z M101.2,26.3H95c-0.9,0-1.4-0.6-1.4-1.2
	c0-0.6,0.5-1.2,1.4-1.2h6.3c1,0,1.4,0.6,1.4,1.2C102.7,25.7,102.2,26.3,101.2,26.3z M107.6,40.2V41c0.1,1.6,0.7,1.7,5.3,1.7
	c4.4,0,6.4-0.1,6.4-3.2c0-1.1,0.9-1.6,1.8-1.6c1,0,2,0.6,2,1.6c0,6.2-5.5,6.3-10.2,6.3c-5.3,0-8.8,0-8.8-4.4v-1.2
	c-1.8,0-3.6,0-5.7-0.1c-2.9-0.1-4.4-1.4-4.4-3.3c0-1,0-2,0-2.9c0-1,0-1.9,0-2.8c0.1-1.6,1.2-3.2,4.3-3.2c1.7,0,4-0.1,6.6-0.1
	c3.1,0,6.4,0,8.9,0.1c2.4,0,4,1.5,4.1,3c0.1,0.9,0.1,1.8,0.1,2.7c0,1,0,2.1-0.1,3.1c-0.1,1.8-1.8,3.3-4.4,3.4
	C111.4,40.1,109.5,40.2,107.6,40.2z M107.6,32.6h6.7c0-0.2,0-0.5,0-0.8c0-0.9-0.5-1.4-1.8-1.4c-1.2,0-3,0-4.8,0
	C107.7,30.9,107.6,31.7,107.6,32.6z M114.3,35h-6.7v2.4c1.7,0,3.3,0,4.8,0c1.1,0,1.7-0.4,1.8-1.4C114.3,35.6,114.3,35.3,114.3,35z
	 M104.2,32.6v-2.2c-1.8,0-3.5,0-4.8,0c-1.7,0-1.9,1.2-1.9,2.2H104.2z M104.2,37.4l0-2.4h-6.7c0,0.3,0,0.6,0,0.9
	c0,1.1,0.7,1.4,1.9,1.4C100.8,37.4,102.4,37.4,104.2,37.4z M161.7,30.2l-10.3,0c0.1,0.6,0.1,1.3,0.1,2c0,1.9-0.2,4.1-0.8,6.4
	c-1,4.1-4.5,7.4-9.5,7.4c-4,0-5.1-1.3-5.1-2.6c0-1,0.7-2,1.9-2c0.2,0,0.5,0,0.8,0.1c0.9,0.3,1.8,0.4,2.6,0.4c2.6,0,4.6-1.5,5.5-4.4
	c0.5-1.8,0.8-3.6,0.8-5.3c0-0.7,0-1.4-0.1-2l-16.8,0.2h0c-1.2,0-1.8-0.9-1.8-1.8c0-1,0.6-1.9,1.8-1.9l15.9-0.1
	c-0.8-1.8-2-3.2-3.4-4.1c-0.6-0.3-0.8-0.7-0.8-1.2c0-0.9,1-1.7,2.1-1.7c0.3,0,0.7,0.1,1.1,0.2c0.6,0.3,1.1,0.6,1.7,1.1
	c0.9-0.6,4.9-3.8,4.9-4.4c0-0.2-0.2-0.2-0.7-0.2c-1,0-2.2,0-3.5,0c-3.5,0-7.6,0.1-11,0.2c0,0,0,0-0.1,0c-1.2,0-1.8-0.9-1.8-1.8
	c0-0.9,0.6-1.8,1.9-1.8c2.5-0.1,5.6-0.1,8.6-0.1s6,0,8.2,0.1c2.4,0,3.6,1.4,3.6,2.8c0,0.8-0.3,1.6-1,2.3c-1.2,1.3-4.8,4.3-6.7,5.6
	c0.5,0.8,0.9,1.8,1.3,2.9l11-0.1h0c1.1,0,1.6,0.9,1.6,1.8S162.8,30.2,161.7,30.2z M201.4,37.5L201.4,37.5l-7.1-0.2v1l0,3.1
	c0,0,0,0,0,0.1c0,2.1-1.4,4.8-5.8,4.8c-3.1,0-3.9-0.8-3.9-2c0-0.9,0.6-1.8,1.6-1.8c0.1,0,0.2,0,0.4,0c0.7,0.2,1.4,0.3,2.1,0.3
	c1.2,0,2-0.4,2-2c0,0,0,0,0-0.1l0-3.4l-20,0.2h0c-1.1,0-1.6-0.8-1.6-1.6s0.6-1.7,1.6-1.7l20,0l0-1.4c0-0.4,0.1-0.7,0.2-0.9
	c-1.2,0-2.5,0-3.8,0c-3,0-6.1-0.1-9.1-0.1c-2.7-0.1-4.1-1.4-4.2-3.4c0-1.2,0-2.2,0-3.1c0-1,0-1.9,0-2.9c0.1-1.6,1.1-3.2,4.1-3.3
	c1.4,0,3.7,0,6.1,0v-2l-11.6,0c-1.2,0-1.8-0.8-1.8-1.6s0.6-1.6,1.8-1.6l11.6,0v-1.6c0-1.2,1-1.8,1.9-1.8c1,0,1.9,0.6,1.9,1.8V14
	l11.9,0c1.1,0,1.6,0.8,1.6,1.6s-0.5,1.6-1.6,1.6l-11.9,0v2c2.4,0,4.8,0,6.5,0c2.2,0,3.8,1.6,3.9,3c0,0.9,0.1,1.8,0.1,2.7
	c0,1.2,0,2.3-0.1,3.4c-0.1,1.8-1.6,3.4-4.1,3.4H194c0.2,0.2,0.3,0.6,0.3,1l0,1.4l7.1,0c1.1,0,1.7,0.8,1.7,1.6S202.5,37.5,201.4,37.5
	z M182.5,43.3c-0.4,0-0.7-0.1-1-0.4c-1.2-1.1-2.6-1.6-3.9-2c-0.6-0.2-0.8-0.7-0.8-1.2c0-0.9,0.7-1.9,1.7-1.9c0.7,0,5.9,1.1,5.9,3.4
	C184.4,42.4,183.5,43.3,182.5,43.3z M187.6,24.1h7.2c0-0.3,0-0.6,0-0.9c-0.1-1.6-0.6-1.6-7.2-1.6V24.1z M194.8,26.6h-7.2v2.6
	c2,0,3.9,0,5.4,0c1,0,1.7-0.4,1.8-1.5C194.8,27.3,194.8,27,194.8,26.6z M184.2,24.1v-2.4c-2.1,0-4.1,0-5.4,0.1
	c-1.2,0-1.7,0.7-1.8,1.5c0,0.3-0.1,0.6-0.1,0.9H184.2z M184.2,29.2v-2.6H177c0,0.3,0.1,0.7,0.1,1c0.1,1.2,0.6,1.5,1.8,1.5
	C180.2,29.2,182.2,29.2,184.2,29.2z M238.4,26.4c-0.7,0-1.8,0.1-2.9,0.1c-4.8,0-8,0-8.2-3.6c0-0.8,0-1.8,0-2.8c0-1.5,0-3.2,0.1-4.6
	c0.1-1.9,1.4-3.2,3.4-3.3c0.8,0,2.5,0,4.1,0c1.2,0,2.3,0,3,0c3,0.2,4.2,1.8,4.2,3.7c0,1,0,2.1,0,3.1c0,6.2,0.1,11.9,0.1,17
	c0,1.9,0,3.6,0,5c0,2.8-1.4,5.3-6,5.3c-2.8,0-4.2-0.4-4.2-2.1c0-0.9,0.6-1.8,1.6-1.8c0.1,0,0.2,0,0.3,0c0.8,0.1,1.5,0.2,2.1,0.2
	c1.3,0,2.3-0.5,2.4-2.4c0-1.6,0.1-3.2,0.1-4.8c0-2.4,0-4.8,0-7.3C238.4,27.5,238.4,27,238.4,26.4z M210.1,16.2
	c0-4.1,2.8-4.1,6.9-4.1c1.6,0,3.2,0,4,0c2,0.1,3.4,1.4,3.5,3.3c0,1.4,0.1,3.1,0.1,4.6c0,5.5,0,6.4-8,6.4c-1,0-2,0-2.8-0.1
	c0,1.1,0,2.3,0,3.6c0,4.1,0,9-0.2,14.7c0,1.2-1,1.7-1.9,1.7c-1,0-1.9-0.6-1.9-1.6c0,0,0,0,0-0.1C210.1,37.3,210,25.3,210.1,16.2z
	 M230.8,17.9h7.5c0-2.7,0-2.8-3.8-2.8c-2.8,0-3.6,0-3.7,1.4C230.8,17,230.8,17.4,230.8,17.9z M238.4,23.4v-2.6h-7.6
	c0,0.5,0,0.9,0,1.3c0,1.3,0.4,1.4,4.4,1.4C236.6,23.5,237.8,23.5,238.4,23.4z M213.8,17.9h7.2c0-0.5,0-1,0-1.4
	c-0.1-1.3-0.6-1.4-3.5-1.4c-3.2,0-3.6,0.2-3.6,1.7C213.8,17.2,213.8,17.5,213.8,17.9z M221,20.8h-7.2v2.6c0.6,0,1.8,0,3,0
	c3.9,0,4.2-0.1,4.2-1.4C221,21.7,221,21.3,221,20.8z M268.6,15.5c0,1.1-1.2,2-2.2,2c-0.6,0-1.1-0.3-1.4-1c-0.6-1.5-1.4-2.4-2.4-3.4
	c-0.2-0.3-0.4-0.6-0.4-0.9c0-0.8,1-1.6,2-1.6C266.4,10.6,268.6,14.6,268.6,15.5z M277.7,25.2V23c0-1.7-0.9-2-2.5-2
	c-3.2,0-6.8-0.1-10.3-0.1c-2.8,0-5.6,0-8.1,0.1c-2.2,0-2.6,0.6-2.7,2c0,0,0,0,0,2.3v0c0,1.1-1,1.8-2,1.8c-0.9,0-1.9-0.6-1.9-1.8
	c0-0.5,0-1.1,0-1.8c0-0.7,0-1.4,0-2c0.1-1.9,1.6-3.8,4.7-3.8l3.4,0c-0.2-0.1-0.4-0.3-0.5-0.6c-0.8-1.4-1.7-1.9-2.8-2.9
	c-0.4-0.3-0.5-0.7-0.5-1c0-0.9,1-1.7,2-1.7c1.5,0,4.6,3,4.6,4.4c0,0.7-0.5,1.4-1.2,1.8c3.5,0,7,0,10.5,0c1.2-1.3,2.2-3.6,2.8-5.3
	c0.4-0.9,1.1-1.3,1.8-1.3c1.1,0,2.3,0.8,2.3,2c0,0.8-1.3,2.7-2.9,4.6c0.9,0,1.9,0,2.8,0c2.4,0,4.6,1.3,4.6,3.8c0,0.6,0,1.4,0,2.2
	c0,0.6,0,1.1,0,1.5c-0.1,1.2-1.1,1.8-2.1,1.8C278.6,26.9,277.7,26.4,277.7,25.2C277.7,25.2,277.7,25.2,277.7,25.2z M281.8,35.8
	l-10.7,0c0.1,0.6,0.1,1.2,0.1,1.8c0,3.6-1.7,9-8.6,9c-3.1,0-4.8-0.8-4.8-2.4c0-1,0.8-1.9,1.9-1.9c0.2,0,0.4,0,0.6,0.1
	c0.9,0.3,1.8,0.4,2.6,0.4c4.5,0,4.5-5.4,4.5-5.7c0-0.5,0-0.9-0.1-1.4l-17,0.1c-1.2,0-1.8-0.9-1.8-1.8c0-0.9,0.6-1.8,1.8-1.8
	l14.8,0.1c-0.5-0.3-1-0.6-1.6-0.8c-0.8-0.3-1.2-0.8-1.2-1.3c0-0.8,0.9-1.7,2.1-1.7c0.9,0,1.7,0.4,2.4,0.8c1-0.7,3.2-2.2,3.2-2.6
	c0-0.2-0.2-0.2-0.4-0.2c-0.4,0-1.2,0-2.1,0c-2.6,0-6.4,0.1-9.2,0.2c0,0,0,0-0.1,0c-1.2,0-1.8-0.8-1.8-1.7c0-0.8,0.6-1.6,1.8-1.7
	c1.7-0.1,3.9-0.1,6-0.1c2.9,0,5.8,0,7.7,0.1c2.3,0,3.2,1.2,3.2,2.4c0,2-2.1,3.6-5.7,5.8c0.2,0.3,0.4,0.6,0.6,0.8l11.9-0.1
	c1.2,0,1.8,0.9,1.8,1.8C283.5,34.9,283,35.8,281.8,35.8z M321.3,20.2h-18.5c-1.2,0-1.8-0.8-1.8-1.7c0-0.8,0.6-1.7,1.8-1.7l6.7,0
	l0-3.7c0-1.2,1-1.7,2-1.7s2,0.6,2,1.7l0,3.7l7.9,0c1.3,0,1.9,0.9,1.9,1.7S322.6,20.2,321.3,20.2z M320,28.8c-0.5,0-1-0.2-1.5-0.8
	c-1.4-1.7-3.1-3.1-4.9-4.2c-0.6-0.3-0.8-0.8-0.8-1.2c0-0.8,0.8-1.6,1.8-1.6c1.2,0,7.4,3.7,7.4,5.9C321.9,27.9,321,28.8,320,28.8z
	 M310,22.7c0,1.6-5.2,6.7-7.1,6.7c-1,0-1.8-0.9-1.8-1.8c0-0.6,0.3-1.2,1-1.5c2.1-1.1,3.5-2.4,4.7-4.5c0.3-0.5,0.8-0.8,1.2-0.8
	C309,20.8,310,21.7,310,22.7z M311.4,40.5c-5,4.9-10.8,5.6-11,5.6c-1.2,0-2-1-2-2c0-0.7,0.4-1.4,1.5-1.6c4-0.7,7.1-2.3,9.4-4.7
	c-1-1.5-1.8-3.1-2.3-4.8c-1.3,2-2,2.6-2.8,2.6c-1,0-1.8-0.8-1.8-1.8c0-0.5,0.2-1,0.9-1.4c1.5-1,2.6-2.4,3.1-3.5
	c0.2-0.5,0.8-0.8,1.4-0.8c0.8,0,1.5,0.4,1.5,1.2c0,0.1,0,0.2,0,0.4c0,0,0,0.1,0,0.2c0.4,2,1.2,3.8,2.2,5.3c1.1-1.8,2-3.8,2.6-6
	c0.2-0.9,1-1.3,1.7-1.3c1,0,1.9,0.6,1.9,1.6c0,0.1-0.7,4.2-3.9,8.4c2.3,2.2,5.4,3.6,9,4c1.1,0.1,1.6,0.9,1.6,1.7c0,1-0.8,2.2-2,2.2
	C321.2,45.9,315.7,44.9,311.4,40.5z M297.7,44.7L297.7,44.7c0,1.2-1,1.7-2,1.7c-1,0-2-0.6-2-1.7v0l0.2-14.4c-1,1.8-2.2,3.6-3.4,5
	c-0.5,0.6-1.1,0.8-1.6,0.8c-1,0-1.9-0.8-1.9-1.8c0-0.5,0.2-1,0.6-1.4c2-2.1,4.7-5.8,6.3-9.6v-0.9l-3.6,0.1h0c-1.1,0-1.7-0.9-1.7-1.8
	c0-0.9,0.6-1.8,1.7-1.8h3.6l-0.1-6.6v0c0-1.2,1-1.7,2-1.7c1,0,1.9,0.6,1.9,1.7v0c0,0-0.1,3-0.1,6.6h2.3c1.2,0,1.8,0.9,1.8,1.8
	c0,0.9-0.6,1.8-1.7,1.8c0,0,0,0-0.1,0l-2.4,0c0,1.4,0,2.8,0,4c0.2,0,0.3,0,0.5,0.1c0.9,0.4,4,2.3,4,3.8c0,0.9-0.8,1.8-1.7,1.8
	c-0.4,0-0.8-0.2-1.2-0.6c-0.4-0.6-1-1.3-1.6-1.9C297.6,35.9,297.7,44.7,297.7,44.7z"/>
</svg>
