<svg width="617" height="229" viewBox="0 0 617 229" fill="none" xmlns="http://www.w3.org/2000/svg">
<path d="M128.414 44.4296C122.69 39.0305 114.673 35.978 105.233 35.6017L105.156 35.5983C94.9883 35.309 86.155 35.1668 78.155 35.1668C63.7525 35.1668 50.7348 35.4679 45.806 35.5967L45.7339 35.5983C35.8008 35.9646 27.5174 39.094 21.7756 44.6454C21.5844 44.8294 21.3967 45.0184 21.2123 45.2074C21.0312 45.383 20.8552 45.5603 20.6792 45.7393C20.4981 45.9149 20.3221 46.0905 20.146 46.2711C19.965 46.4468 19.789 46.6241 19.6129 46.803C19.4319 46.9786 19.2558 47.1559 19.0798 47.3349C18.8987 47.5105 18.7227 47.6878 18.5467 47.8668C18.3656 48.0424 18.1896 48.218 18.0136 48.3987C17.8325 48.5743 17.6565 48.7516 17.4805 48.9306C17.2994 49.1062 17.1234 49.2818 16.9473 49.4624C16.7663 49.6381 16.5903 49.8154 16.4142 49.9943C16.2332 50.17 16.0571 50.3472 15.8811 50.5262C15.7001 50.7018 15.524 50.8791 15.348 51.0581C15.1669 51.2337 14.9909 51.4093 14.8149 51.59C14.6338 51.7656 14.4578 51.9429 14.2818 52.1219C14.1007 52.2975 13.9247 52.4748 13.7487 52.6537C13.5676 52.8294 13.3916 53.0067 13.2155 53.1856C13.0345 53.3613 12.8585 53.5385 12.6824 53.7175C12.5014 53.8931 12.3253 54.0704 12.1493 54.2494C11.9699 54.425 11.7922 54.6006 11.6162 54.7813C11.4351 54.9569 11.2591 55.1325 11.0831 55.3132C10.902 55.4888 10.726 55.6661 10.55 55.8451C10.3689 56.0207 10.1929 56.198 10.0169 56.3769C9.8358 56.5526 9.65977 56.7299 9.48374 56.9088C3.97657 62.2511 0.920378 69.6339 0.645438 78.2762C0.234705 92.2106 0 111.703 0 131.757C0 154.804 0.236381 175.782 0.645438 189.301C0.910319 198.432 4.24312 206.129 10.2817 211.562C16.1242 216.817 24.4244 219.796 34.2887 220.176C43.2359 220.61 52.7834 220.61 62.8908 220.61C72.7651 220.61 82.9748 220.61 92.5574 220.177C102.237 219.796 110.418 216.556 116.219 210.804C116.33 210.694 116.439 210.582 116.548 210.47C116.616 210.404 116.685 210.339 116.752 210.272C116.863 210.162 116.97 210.05 117.079 209.939C117.148 209.872 117.216 209.807 117.285 209.74C117.396 209.63 117.503 209.518 117.612 209.407C117.681 209.341 117.75 209.275 117.818 209.208C117.929 209.098 118.036 208.988 118.145 208.876C118.214 208.809 118.283 208.743 118.351 208.677C118.462 208.566 118.569 208.454 118.678 208.344C118.747 208.277 118.816 208.212 118.885 208.145C118.995 208.034 119.103 207.922 119.211 207.812C119.28 207.745 119.349 207.681 119.416 207.613C119.527 207.502 119.634 207.39 119.743 207.28C119.812 207.213 119.88 207.148 119.949 207.081C120.06 206.97 120.167 206.858 120.276 206.748C120.345 206.681 120.414 206.616 120.482 206.549C120.593 206.439 120.7 206.327 120.809 206.216C120.878 206.149 120.947 206.084 121.015 206.017C121.126 205.907 121.233 205.796 121.342 205.684C121.411 205.617 121.48 205.552 121.548 205.485C121.659 205.375 121.766 205.263 121.875 205.152C121.944 205.085 122.013 205.02 122.082 204.953C122.192 204.843 122.3 204.731 122.409 204.62C122.477 204.554 122.546 204.49 122.613 204.423C122.724 204.313 122.831 204.201 122.94 204.09C123.009 204.023 123.077 203.958 123.146 203.891C123.257 203.781 123.364 203.669 123.473 203.558C123.542 203.491 123.611 203.426 123.679 203.359C123.79 203.249 123.897 203.139 124.006 203.026C124.075 202.96 124.144 202.894 124.212 202.827C124.323 202.717 124.43 202.605 124.539 202.495C124.608 202.428 124.677 202.362 124.745 202.296C124.856 202.185 124.963 202.073 125.072 201.963C125.141 201.896 125.21 201.831 125.279 201.764C125.389 201.653 125.497 201.541 125.606 201.431C125.674 201.364 125.743 201.3 125.81 201.233C125.921 201.123 126.028 201.011 126.137 200.901C126.206 200.834 126.274 200.768 126.343 200.702C126.454 200.591 126.561 200.479 126.67 200.369C126.739 200.302 126.808 200.237 126.876 200.17C126.987 200.059 127.094 199.949 127.203 199.837C127.272 199.77 127.341 199.705 127.409 199.638C127.52 199.527 127.627 199.415 127.736 199.305C127.805 199.238 127.874 199.173 127.943 199.106C128.053 198.996 128.16 198.883 128.269 198.773C128.338 198.706 128.407 198.641 128.476 198.574C134.179 192.917 137.302 185.121 137.606 176.027C137.971 165.089 138.253 144.135 138.253 119.957C138.253 98.3991 138.016 78.7445 137.606 66.0395C137.342 57.3236 134.162 49.8522 128.414 44.4296ZM63.7575 71.0222C73.7425 71.0222 83.751 71.2346 89.238 71.4453L89.2833 71.447C93.7444 71.5875 96.7134 72.4455 98.1082 73.996C99.3354 75.3592 100.013 77.9634 100.18 81.9726C100.427 87.5122 100.608 94.9302 100.712 103.644H37.0314C37.08 90.6868 37.2728 79.4821 37.5863 71.4202C44.0188 71.2229 54.0005 71.0222 63.7575 71.0222ZM100.187 183.897C94.7352 184.106 84.6714 184.106 74.9378 184.106C65.5195 184.106 55.7792 184.106 50.9912 183.899L50.9058 183.895C45.5679 183.731 41.9216 182.828 40.0641 181.209C39.0331 180.309 37.6382 178.481 37.4421 172.987C37.1521 165.321 37.0599 153.218 37.0314 139.928H100.807C100.765 157.994 100.539 174.074 100.187 183.897Z" fill="#580077"/>
<path d="M373.933 144.303H336.717C337.042 144.048 337.364 143.785 337.674 143.514C338.147 143.101 338.598 142.669 339.032 142.224C339.214 142.05 339.391 141.873 339.566 141.693C339.747 141.519 339.924 141.341 340.099 141.161C340.28 140.987 340.457 140.809 340.632 140.629C340.813 140.455 340.991 140.278 341.165 140.097C341.346 139.923 341.524 139.746 341.698 139.565C341.879 139.391 342.057 139.214 342.231 139.033C342.412 138.859 342.59 138.682 342.764 138.501C342.945 138.327 343.123 138.15 343.297 137.969C343.478 137.795 343.656 137.618 343.83 137.437C344.012 137.263 344.189 137.086 344.364 136.906C344.545 136.732 344.722 136.554 344.897 136.374C345.078 136.2 345.255 136.022 345.43 135.842C345.611 135.668 345.789 135.491 345.963 135.31C346.144 135.136 346.322 134.959 346.496 134.778C346.677 134.604 346.855 134.427 347.029 134.246C347.21 134.072 347.388 133.895 347.562 133.714C347.743 133.54 347.921 133.363 348.095 133.182C348.276 133.008 348.454 132.831 348.629 132.65C348.81 132.477 348.987 132.299 349.162 132.119C349.343 131.945 349.52 131.767 349.695 131.587C349.876 131.413 350.054 131.235 350.228 131.055C350.409 130.881 350.587 130.704 350.761 130.523C354.937 126.499 357.455 121.056 357.884 115.073L357.889 114.99C358.054 112.198 358.33 106.628 358.33 100.687C358.33 93.2074 358.025 86.0019 357.893 83.2505L357.888 83.1518C357.614 78.8014 355.76 74.5195 352.699 71.0155C356.147 71.0104 359.152 69.654 361.241 67.4227C361.425 67.2521 361.603 67.0748 361.774 66.8909C361.956 66.7202 362.134 66.543 362.307 66.359C362.489 66.1884 362.667 66.0111 362.84 65.8271C363.024 65.6565 363.202 65.4792 363.373 65.2952C363.557 65.1246 363.735 64.9473 363.906 64.7633C364.089 64.5927 364.267 64.4154 364.439 64.2314C364.622 64.0608 364.8 63.8835 364.972 63.6995C365.157 63.5289 365.333 63.3516 365.505 63.1677C365.69 62.9971 365.866 62.8198 366.039 62.6358C366.223 62.4652 366.401 62.2879 366.572 62.1039C366.756 61.9333 366.934 61.756 367.105 61.572C367.288 61.4014 367.465 61.2241 367.638 61.0401C367.822 60.8695 367.998 60.6922 368.171 60.5082C368.355 60.3376 368.531 60.1603 368.704 59.9764C368.889 59.8058 369.066 59.6285 369.237 59.4445C369.42 59.2739 369.598 59.0966 369.77 58.9126C369.955 58.742 370.132 58.5647 370.303 58.3807C370.488 58.2101 370.664 58.0328 370.837 57.8488C371.021 57.6782 371.199 57.5009 371.37 57.3169C371.552 57.1463 371.73 56.969 371.903 56.785C372.087 56.6144 372.265 56.4371 372.436 56.2532C372.62 56.0826 372.798 55.9053 372.969 55.7213C375.209 53.6339 376.57 50.6299 376.57 47.181C376.57 44.2506 375.477 41.4775 373.494 39.3717C371.321 37.0652 368.285 35.794 364.94 35.794L300.427 35.988V27.9378C300.427 21.2023 295.243 16.1227 288.37 16.1227C285.428 16.1227 282.601 17.1362 280.412 18.9778C280.06 19.2738 279.731 19.5866 279.423 19.9144C279.238 20.0867 279.06 20.264 278.889 20.4463C278.705 20.6186 278.527 20.7959 278.356 20.9782C278.172 21.1505 277.994 21.3278 277.823 21.5101C277.639 21.6824 277.461 21.8596 277.29 22.042C277.106 22.2142 276.928 22.3915 276.757 22.5738C276.573 22.7461 276.395 22.9234 276.224 23.1057C276.039 23.278 275.862 23.4553 275.691 23.6376C275.506 23.8099 275.329 23.9872 275.158 24.1695C274.973 24.3418 274.795 24.5191 274.624 24.7014C274.44 24.8737 274.262 25.051 274.091 25.2333C273.907 25.4055 273.729 25.5828 273.558 25.7652C273.374 25.9374 273.196 26.1147 273.025 26.297C272.841 26.4693 272.663 26.6466 272.492 26.8289C272.308 27.0012 272.13 27.1785 271.959 27.3608C271.774 27.5331 271.597 27.7104 271.426 27.8927C271.241 28.065 271.064 28.2423 270.893 28.4246C270.708 28.5969 270.531 28.7741 270.36 28.9565C270.175 29.1287 269.997 29.306 269.826 29.4883C269.642 29.6606 269.464 29.8379 269.293 30.0202C269.109 30.1925 268.931 30.3698 268.76 30.5521C268.576 30.7244 268.398 30.9017 268.227 31.084C268.043 31.2563 267.865 31.4336 267.694 31.6159C266.38 32.8419 265.401 34.3255 264.789 35.978L213.311 35.8208H213.291C209.948 35.8208 206.911 37.0919 204.738 39.3985C204.728 39.4102 204.718 39.4219 204.706 39.4336C204.535 39.5941 204.367 39.7581 204.205 39.9303C204.195 39.942 204.185 39.9538 204.173 39.9655C204.002 40.126 203.834 40.2899 203.672 40.4622C203.662 40.4739 203.651 40.4856 203.64 40.4973C203.469 40.6579 203.301 40.8218 203.138 40.9941C203.128 41.0058 203.118 41.0175 203.107 41.0292C202.936 41.1898 202.768 41.3537 202.605 41.526C202.595 41.5377 202.585 41.5494 202.574 41.5611C202.403 41.7217 202.235 41.8856 202.072 42.0579C202.062 42.0696 202.052 42.0813 202.04 42.093C201.869 42.2536 201.702 42.4175 201.539 42.5898C201.529 42.6015 201.519 42.6132 201.507 42.6249C201.336 42.7854 201.169 42.9494 201.006 43.1216C200.996 43.1333 200.986 43.1451 200.974 43.1568C200.803 43.3173 200.636 43.4813 200.473 43.6535C200.463 43.6652 200.453 43.6769 200.441 43.6887C200.27 43.8492 200.102 44.0131 199.94 44.1854C199.93 44.1971 199.92 44.2088 199.908 44.2205C199.737 44.3811 199.569 44.545 199.407 44.7173C199.397 44.729 199.387 44.7407 199.375 44.7524C199.204 44.913 199.036 45.0769 198.874 45.2492C198.864 45.2609 198.853 45.2726 198.842 45.2843C198.671 45.4449 198.503 45.6088 198.34 45.7811C198.33 45.7928 198.32 45.8045 198.309 45.8162C198.138 45.9768 197.97 46.1407 197.807 46.3129C197.797 46.3247 197.787 46.3364 197.775 46.3481C197.604 46.5086 197.437 46.6726 197.274 46.8448C197.264 46.8565 197.254 46.8682 197.242 46.88C197.071 47.0405 196.904 47.2044 196.741 47.3767C196.731 47.3884 196.721 47.4001 196.709 47.4118C196.538 47.5724 196.371 47.7363 196.208 47.9086C196.198 47.9203 196.188 47.932 196.176 47.9437C196.005 48.1043 195.837 48.2682 195.675 48.4405C195.665 48.4522 195.655 48.4639 195.643 48.4756C195.472 48.6362 195.304 48.8001 195.142 48.9724C195.132 48.9841 195.122 48.9958 195.11 49.0075C194.939 49.1681 194.771 49.332 194.609 49.5043C194.599 49.516 194.589 49.5277 194.577 49.5394C194.406 49.7 194.238 49.8639 194.076 50.0361C194.065 50.0478 194.055 50.0596 194.044 50.0713C193.873 50.2318 193.705 50.3957 193.542 50.568C193.532 50.5797 193.522 50.5914 193.511 50.6031C193.34 50.7637 193.172 50.9276 193.009 51.0999C192.999 51.1116 192.989 51.1233 192.977 51.135C192.806 51.2956 192.639 51.4595 192.476 51.6318C190.493 53.7376 189.4 56.5124 189.4 59.4428C189.4 66.0562 194.399 71.0439 201.028 71.0439L225.078 70.9703C225.02 71.0305 224.959 71.0891 224.901 71.1493C224.72 71.3249 224.542 71.5005 224.368 71.6812C224.186 71.8568 224.009 72.0324 223.834 72.213C223.653 72.3887 223.476 72.5643 223.301 72.7449C223.12 72.9189 222.943 73.0962 222.768 73.2768C222.587 73.4524 222.409 73.6281 222.235 73.8087C222.054 73.9826 221.876 74.1599 221.702 74.3406C221.521 74.5162 221.343 74.6918 221.169 74.8725C220.988 75.0481 220.81 75.2237 220.636 75.4043C220.455 75.58 220.277 75.7556 220.103 75.9362C219.922 76.1102 219.744 76.2875 219.569 76.4681C219.388 76.6421 219.211 76.8194 219.036 77C218.855 77.1756 218.678 77.3512 218.503 77.5319C218.322 77.7075 218.144 77.8831 217.97 78.0638C217.789 78.2394 217.611 78.415 217.437 78.5957C217.256 78.7713 217.078 78.9469 216.904 79.1275C216.723 79.3015 216.545 79.4788 216.371 79.6594C216.19 79.8334 216.012 80.0107 215.838 80.1913C215.657 80.3669 215.479 80.5425 215.305 80.7232C215.124 80.8988 214.946 81.0744 214.771 81.2551C214.59 81.4307 214.413 81.6063 214.238 81.787C210.19 85.7058 207.841 90.9628 207.424 97.0862L207.42 97.148C207.194 100.982 207.194 106.379 207.194 112.091C207.194 117.534 207.194 123.162 207.417 127.608C207.729 134.33 210.537 140.027 215.541 144.079C215.655 144.171 215.771 144.262 215.886 144.352L204.907 144.332C201.616 144.332 198.63 145.603 196.456 147.911C196.273 148.082 196.096 148.259 195.923 148.443C195.74 148.614 195.563 148.791 195.39 148.975C195.207 149.146 195.029 149.323 194.857 149.507C194.674 149.677 194.496 149.855 194.324 150.039C194.141 150.209 193.963 150.387 193.791 150.571C193.608 150.741 193.43 150.919 193.257 151.103C193.075 151.273 192.897 151.45 192.724 151.634C192.542 151.805 192.364 151.982 192.191 152.166C192.008 152.337 191.831 152.514 191.658 152.698C191.475 152.869 191.298 153.046 191.125 153.23C190.942 153.401 190.765 153.578 190.592 153.762C190.409 153.933 190.231 154.11 190.059 154.294C189.876 154.464 189.698 154.642 189.526 154.826C189.343 154.996 189.165 155.174 188.992 155.358C188.81 155.528 188.632 155.705 188.459 155.889C188.277 156.06 188.099 156.237 187.926 156.421C187.744 156.592 187.566 156.769 187.393 156.953C187.21 157.124 187.033 157.301 186.86 157.485C186.677 157.656 186.5 157.833 186.327 158.017C186.144 158.188 185.966 158.365 185.794 158.549C185.611 158.72 185.433 158.897 185.261 159.081C185.078 159.251 184.9 159.429 184.728 159.613C184.463 159.86 184.206 160.119 183.961 160.394C182.064 162.531 181.018 165.293 181.018 168.166C181.018 174.78 186.017 179.767 192.646 179.767L224.015 179.649C222.44 181.743 221.554 184.277 221.554 186.782C221.554 191.536 224.354 195.428 228.865 196.953C239.705 200.742 247.972 205.106 252.78 209.576C254.919 211.664 257.561 212.722 260.636 212.722C262.763 212.722 264.849 212.109 266.685 210.981C266.343 212.147 266.165 213.366 266.165 214.602C266.165 219.122 268.143 222.572 272.044 224.857C276.106 227.236 282.499 228.345 292.164 228.345C302.809 228.345 310.953 225.491 316.415 219.856C316.595 219.682 316.774 219.505 316.948 219.324C317.128 219.15 317.307 218.973 317.482 218.792C317.661 218.618 317.84 218.441 318.015 218.26C318.194 218.086 318.373 217.909 318.548 217.729C318.727 217.555 318.907 217.377 319.081 217.197C319.26 217.023 319.44 216.845 319.614 216.665C319.793 216.491 319.973 216.314 320.147 216.133C320.326 215.959 320.506 215.782 320.68 215.601C320.86 215.427 321.039 215.25 321.213 215.069C321.393 214.895 321.572 214.718 321.746 214.537C321.928 214.363 322.105 214.186 322.28 214.005C322.459 213.831 322.638 213.654 322.813 213.473C322.992 213.3 323.171 213.122 323.346 212.942C323.525 212.768 323.705 212.59 323.879 212.41C324.058 212.236 324.238 212.058 324.412 211.878C324.591 211.704 324.771 211.527 324.945 211.346C325.125 211.172 325.304 210.995 325.478 210.814C325.658 210.64 325.837 210.463 326.011 210.282C326.191 210.108 326.37 209.931 326.544 209.75C326.724 209.576 326.903 209.399 327.078 209.218C327.259 209.044 327.436 208.867 327.611 208.687C327.79 208.513 327.969 208.335 328.144 208.155C328.887 207.435 329.584 206.669 330.233 205.855C334.06 201.044 336.001 194.832 336.001 187.391V186.429L335.782 179.515L361.604 179.761H361.668C364.959 179.761 367.945 178.49 370.119 176.181C370.302 176.011 370.479 175.833 370.652 175.649C370.835 175.479 371.013 175.302 371.185 175.118C371.368 174.947 371.546 174.77 371.718 174.586C371.901 174.415 372.079 174.238 372.252 174.054C372.434 173.883 372.612 173.706 372.785 173.522C372.967 173.351 373.145 173.174 373.318 172.99C373.501 172.819 373.678 172.642 373.851 172.458C374.034 172.288 374.211 172.11 374.384 171.926C374.567 171.756 374.744 171.578 374.917 171.394C375.1 171.224 375.278 171.047 375.45 170.863C375.633 170.692 375.811 170.515 375.983 170.331C376.166 170.16 376.344 169.983 376.516 169.799C376.699 169.628 376.877 169.451 377.05 169.267C377.232 169.096 377.41 168.919 377.583 168.735C377.765 168.564 377.943 168.387 378.116 168.203C378.299 168.033 378.476 167.855 378.649 167.671C378.832 167.501 379.009 167.323 379.182 167.139C379.365 166.969 379.542 166.791 379.715 166.607C379.898 166.437 380.076 166.26 380.248 166.076C380.431 165.905 380.609 165.728 380.781 165.544C380.964 165.373 381.142 165.196 381.314 165.012C381.497 164.841 381.675 164.664 381.848 164.48C382.112 164.232 382.371 163.973 382.614 163.699C384.511 161.561 385.558 158.8 385.558 155.926C385.561 149.291 380.562 144.303 373.933 144.303ZM299.218 191.614C297.265 191.353 295.116 190.97 292.777 190.464L292.075 190.311H291.947C291.498 190.211 290.841 190.097 290.068 190.097C288.1 190.097 286.195 190.612 284.516 191.566C284.953 190.221 285.181 188.803 285.181 187.363C285.181 184.406 284.232 181.694 282.42 179.393L299.218 179.329V191.614Z" fill="#580077"/>
<path d="M601.979 126.373C601.979 121.844 599.392 117.731 595.058 115.373L594.755 115.217C581.553 108.881 569.586 100.962 559.095 91.6252C567.382 83.3074 578.032 71.3366 583.6 63.4537L583.632 63.4085C586.336 59.5114 587.824 54.9686 587.824 50.6182C587.824 45.5937 585.804 41.1145 582.138 38.0085C578.399 34.8423 573.226 33.2383 566.76 33.2383H532.013C528.615 33.2383 525.655 34.573 523.601 36.7725C523.416 36.9431 523.239 37.1204 523.068 37.3044C522.885 37.475 522.706 37.6523 522.535 37.8363C522.35 38.0069 522.173 38.1842 522.002 38.3681C521.981 38.3865 521.963 38.4049 521.943 38.4233C521.515 37.3612 521.096 36.2941 520.694 35.2203L520.642 35.0848C518.863 30.6475 514.838 27.8893 510.136 27.8893C507.277 27.8893 504.377 28.9498 502.176 30.7963C501.825 31.0907 501.497 31.4035 501.188 31.7313C501.004 31.9036 500.828 32.0809 500.655 32.2632C500.471 32.4355 500.295 32.6127 500.122 32.7951C499.938 32.9673 499.762 33.1446 499.589 33.3269C499.405 33.4992 499.229 33.6765 499.056 33.8588C498.871 34.0311 498.695 34.2084 498.523 34.3907C498.338 34.563 498.162 34.7403 497.99 34.9226C497.805 35.0949 497.629 35.2722 497.456 35.4545C497.272 35.6268 497.096 35.8041 496.923 35.9864C496.739 36.1586 496.561 36.3359 496.39 36.5183C496.206 36.6905 496.03 36.8678 495.857 37.0501C495.673 37.2224 495.497 37.3997 495.324 37.582C495.14 37.7543 494.964 37.9316 494.791 38.1139C494.754 38.149 494.719 38.1842 494.682 38.2193C491.773 37.189 488.407 36.6688 484.605 36.6688H484.176C480.402 36.6688 476.564 36.7206 472.636 36.8009C473.849 34.282 474.14 32.7348 474.14 31.1509C474.14 27.9546 472.767 24.7884 470.375 22.4618C468.051 20.2038 464.952 18.9075 461.869 18.9075C458.583 18.9075 455.587 20.274 453.382 22.6056C453.2 22.7762 453.022 22.9535 452.849 23.1375C452.666 23.3081 452.489 23.4854 452.316 23.6694C452.133 23.84 451.956 24.0173 451.783 24.2013C451.6 24.3719 451.423 24.5492 451.25 24.7332C451.067 24.9038 450.889 25.0811 450.717 25.265C450.534 25.4357 450.356 25.6129 450.184 25.7969C450.001 25.9675 449.823 26.1448 449.65 26.3288C449.468 26.4994 449.29 26.6767 449.117 26.8607C448.935 27.0313 448.757 27.2086 448.584 27.3926C448.402 27.5632 448.224 27.7405 448.051 27.9245C447.868 28.0951 447.691 28.2724 447.518 28.4564C447.335 28.627 447.158 28.8043 446.985 28.9882C446.802 29.1588 446.625 29.3361 446.452 29.5201C446.269 29.6907 446.091 29.868 445.919 30.052C445.736 30.2226 445.558 30.3999 445.386 30.5839C445.203 30.7545 445.025 30.9318 444.852 31.1158C444.67 31.2864 444.492 31.4637 444.319 31.6477C444.137 31.8183 443.959 31.9956 443.786 32.1795C443.603 32.3502 443.426 32.5274 443.253 32.7114C443.07 32.882 442.893 33.0593 442.72 33.2433C442.537 33.4139 442.36 33.5912 442.187 33.7752C442.105 33.8521 442.024 33.9308 441.945 34.0094C440.676 35.1149 439.619 36.5065 438.856 38.1323C433.629 48.5459 427.323 58.2185 420.113 66.8825C419.364 67.7824 418.607 68.6638 417.846 69.5336C415.32 71.7113 412.753 73.7301 410.151 75.575L410.012 75.677C409.303 76.2072 408.663 76.7759 408.091 77.378C407.907 77.552 407.729 77.7293 407.558 77.9099C407.374 78.0838 407.196 78.2611 407.025 78.4418C406.84 78.6157 406.663 78.793 406.492 78.9737C406.307 79.1476 406.13 79.3249 405.959 79.5055C405.774 79.6795 405.596 79.8568 405.425 80.0374C405.241 80.2114 405.063 80.3887 404.892 80.5693C404.708 80.7433 404.53 80.9206 404.359 81.1012C404.175 81.2752 403.997 81.4524 403.826 81.6331C403.642 81.807 403.464 81.9843 403.293 82.165C403.109 82.3389 402.931 82.5162 402.76 82.6969C402.575 82.8708 402.398 83.0481 402.227 83.2287C402.042 83.4027 401.865 83.58 401.694 83.7606C401.509 83.9346 401.332 84.1119 401.161 84.2925C400.976 84.4665 400.798 84.6437 400.627 84.8244C400.443 84.9983 400.265 85.1756 400.094 85.3563C399.91 85.5302 399.732 85.7075 399.561 85.8882C399.377 86.0621 399.199 86.2394 399.028 86.4201C398.844 86.594 398.668 86.7713 398.495 86.9519C398.311 87.1259 398.135 87.3032 397.962 87.4838C397.777 87.6578 397.6 87.8351 397.429 88.0157C397.244 88.1897 397.067 88.3669 396.896 88.5476C396.711 88.7215 396.534 88.8988 396.363 89.0795C393.858 91.4512 392.498 94.4 392.498 97.5344C392.498 104.049 397.907 109.35 404.555 109.35C407.139 109.35 409.913 108.299 413.362 105.986C413.804 110.387 416.721 113.958 421.047 115.264C423.209 115.93 425.84 116.931 428.636 118.137C422.825 121.501 416.849 124.236 410.822 126.268C408.686 126.98 406.867 128.15 405.469 129.633C405.285 129.805 405.107 129.983 404.936 130.165C404.752 130.337 404.574 130.515 404.403 130.697C404.218 130.869 404.041 131.046 403.87 131.229C403.685 131.401 403.508 131.578 403.337 131.761C403.152 131.933 402.974 132.11 402.803 132.293C402.619 132.465 402.441 132.642 402.27 132.824C402.086 132.997 401.908 133.174 401.737 133.356C401.553 133.529 401.375 133.706 401.204 133.888C401.02 134.061 400.842 134.238 400.671 134.42C400.487 134.592 400.309 134.77 400.138 134.952C399.953 135.124 399.776 135.302 399.605 135.484C399.42 135.656 399.243 135.833 399.072 136.016C398.887 136.188 398.71 136.365 398.539 136.548C398.354 136.72 398.176 136.897 398.005 137.08C397.821 137.252 397.643 137.429 397.472 137.611C397.288 137.784 397.11 137.961 396.939 138.143C396.755 138.316 396.577 138.493 396.406 138.675C396.222 138.847 396.044 139.025 395.873 139.207C395.689 139.379 395.511 139.557 395.34 139.739C395.155 139.911 394.978 140.089 394.807 140.271C394.622 140.443 394.445 140.62 394.274 140.803C394.089 140.975 393.911 141.152 393.74 141.335C391.462 143.469 390.129 146.371 390.129 149.542C390.129 156.057 395.538 161.357 402.187 161.357C403.563 161.357 404.698 161.058 405.528 160.84C405.664 160.805 405.806 160.767 405.955 160.73L406.245 160.658L406.529 160.559C412.577 158.464 418.559 155.792 424.433 152.568C424.812 154.598 425.719 156.507 427.077 158.089C429.243 160.611 432.287 161.999 435.645 161.999L449.265 161.943C449.096 162.103 448.935 162.267 448.78 162.429C448.593 162.605 448.417 162.782 448.247 162.961C448.06 163.137 447.884 163.314 447.714 163.493C447.526 163.669 447.35 163.846 447.181 164.025C446.993 164.201 446.817 164.378 446.648 164.557C446.507 164.689 446.371 164.823 446.241 164.957C445.597 165.542 445.065 166.161 444.633 166.751C444.373 167.093 444.108 167.432 443.84 167.772C436.988 173.211 429.107 177.712 421.094 180.711L421.042 180.731C419.008 181.512 417.302 182.644 415.984 184.041C415.799 184.213 415.622 184.39 415.451 184.573C415.266 184.745 415.089 184.922 414.918 185.105C414.733 185.277 414.555 185.454 414.384 185.637C414.2 185.809 414.022 185.986 413.851 186.168C413.667 186.341 413.489 186.518 413.318 186.7C413.134 186.873 412.956 187.05 412.785 187.232C412.601 187.405 412.423 187.582 412.252 187.764C412.068 187.936 411.89 188.114 411.719 188.296C411.534 188.468 411.357 188.646 411.186 188.828C411.001 189 410.824 189.177 410.653 189.36C410.468 189.532 410.291 189.709 410.12 189.892C409.935 190.064 409.757 190.241 409.586 190.424C409.402 190.596 409.224 190.773 409.053 190.955C408.869 191.128 408.691 191.305 408.52 191.487C408.336 191.66 408.158 191.837 407.987 192.019C407.803 192.191 407.625 192.369 407.454 192.551C407.27 192.723 407.092 192.901 406.921 193.083C406.736 193.255 406.559 193.433 406.388 193.615C406.203 193.787 406.026 193.964 405.855 194.147C405.67 194.319 405.493 194.496 405.322 194.679C405.137 194.851 404.959 195.028 404.788 195.21C404.604 195.383 404.426 195.56 404.255 195.742C401.93 197.918 400.627 200.835 400.627 204.12C400.627 207.335 401.957 210.536 404.274 212.907C406.726 215.412 410.017 216.792 413.543 216.792C415.913 216.792 420.043 216.238 428.489 211.453C433.397 208.673 439.136 204.788 444.65 200.514C449.537 196.726 454.051 192.784 457.545 189.264C457.724 189.087 457.904 188.908 458.078 188.733C458.257 188.555 458.437 188.378 458.611 188.201C458.791 188.023 458.968 187.846 459.143 187.67C459.322 187.491 459.501 187.314 459.676 187.139C459.855 186.96 460.034 186.782 460.209 186.607C460.388 186.429 460.566 186.252 460.74 186.076C460.92 185.899 461.099 185.722 461.273 185.545C461.453 185.367 461.632 185.188 461.807 185.013C461.986 184.835 462.164 184.658 462.338 184.482C462.517 184.304 462.697 184.126 462.871 183.951C463.05 183.772 463.23 183.594 463.404 183.419C463.584 183.241 463.761 183.064 463.936 182.888C464.115 182.711 464.294 182.534 464.469 182.357C464.648 182.179 464.826 182.002 465 181.826C465.18 181.647 465.359 181.47 465.533 181.295C465.713 181.117 465.892 180.94 466.066 180.763C466.246 180.584 466.425 180.406 466.6 180.231C466.779 180.053 466.957 179.876 467.131 179.701C467.31 179.523 467.49 179.346 467.664 179.169C467.843 178.991 468.021 178.814 468.196 178.638C468.375 178.459 468.554 178.282 468.729 178.107C468.908 177.929 469.087 177.752 469.262 177.575C469.885 176.957 470.482 176.35 471.042 175.76C476.341 170.173 478.603 166.169 478.603 162.367C478.603 162.19 478.596 162.011 478.588 161.834L480.628 161.826V189.112C478.018 188.873 475.119 188.381 471.961 187.642C470.497 187.144 469.176 187.144 468.474 187.144C465.191 187.144 462.204 188.433 459.993 190.79C459.81 190.96 459.632 191.138 459.459 191.322C459.277 191.492 459.099 191.67 458.926 191.854C458.744 192.024 458.566 192.201 458.393 192.385C458.211 192.556 458.033 192.733 457.86 192.917C457.677 193.088 457.5 193.265 457.327 193.449C457.144 193.62 456.967 193.797 456.794 193.981C456.611 194.152 456.433 194.329 456.261 194.513C456.078 194.684 455.9 194.861 455.728 195.045C455.545 195.216 455.367 195.393 455.195 195.577C455.012 195.747 454.834 195.925 454.661 196.109C454.479 196.279 454.301 196.457 454.128 196.641C453.946 196.811 453.768 196.988 453.595 197.172C453.412 197.343 453.235 197.52 453.062 197.704C452.879 197.875 452.702 198.052 452.529 198.236C452.346 198.407 452.169 198.584 451.996 198.768C451.813 198.939 451.635 199.116 451.463 199.3C451.28 199.471 451.102 199.648 450.93 199.832C450.747 200.002 450.569 200.18 450.397 200.364C450.214 200.534 450.036 200.712 449.863 200.896C449.681 201.066 449.503 201.244 449.33 201.427C449.148 201.598 448.97 201.775 448.797 201.959C448.614 202.13 448.437 202.307 448.264 202.491C447.935 202.801 447.62 203.129 447.322 203.481C445.419 205.726 444.371 208.616 444.371 211.622C444.371 214.76 445.553 220.46 453.468 223.372C457.555 224.876 463.267 225.576 471.443 225.576C482.898 225.576 491.688 222.512 497.586 216.466C497.767 216.292 497.943 216.115 498.119 215.934C498.3 215.76 498.476 215.583 498.652 215.402C498.833 215.228 499.009 215.051 499.185 214.87C499.366 214.696 499.542 214.519 499.718 214.338C499.899 214.164 500.075 213.987 500.251 213.806C500.432 213.632 500.608 213.455 500.784 213.274C500.965 213.101 501.141 212.923 501.317 212.743C501.498 212.569 501.674 212.391 501.85 212.211C502.03 212.037 502.208 211.859 502.384 211.679C502.565 211.505 502.741 211.328 502.917 211.147C503.098 210.973 503.274 210.796 503.45 210.615C503.631 210.441 503.807 210.264 503.983 210.083C504.164 209.909 504.34 209.732 504.516 209.551C504.697 209.377 504.873 209.2 505.049 209.019C505.23 208.845 505.406 208.668 505.582 208.488C505.763 208.314 505.939 208.136 506.115 207.956C506.296 207.782 506.472 207.604 506.648 207.424C506.828 207.25 507.006 207.072 507.182 206.892C507.363 206.718 507.539 206.541 507.715 206.36C507.896 206.186 508.072 206.009 508.248 205.828C508.429 205.654 508.605 205.477 508.781 205.296C508.962 205.122 509.138 204.945 509.314 204.764C509.72 204.371 510.114 203.966 510.493 203.548C514.694 198.915 517.113 192.743 517.562 185.585C533.837 193.218 545.46 201.347 553.086 210.433C555.485 213.525 559.023 215.297 562.823 215.297C566.3 215.297 569.561 213.706 571.937 211.219C572.119 211.047 572.295 210.869 572.47 210.687C572.652 210.515 572.828 210.337 573.003 210.155C573.186 209.983 573.362 209.806 573.536 209.623C573.719 209.451 573.895 209.274 574.069 209.091C574.252 208.919 574.428 208.742 574.602 208.559C574.785 208.387 574.961 208.21 575.135 208.028C575.318 207.855 575.494 207.678 575.668 207.496C575.851 207.323 576.027 207.146 576.202 206.964C576.384 206.792 576.56 206.614 576.735 206.432C576.917 206.26 577.093 206.082 577.268 205.9C577.45 205.728 577.627 205.55 577.801 205.368C577.984 205.196 578.16 205.019 578.334 204.836C578.517 204.664 578.693 204.487 578.867 204.304C579.05 204.132 579.226 203.955 579.4 203.772C579.583 203.6 579.759 203.423 579.933 203.241C580.116 203.068 580.292 202.891 580.466 202.709C580.649 202.536 580.825 202.359 581 202.177C581.182 202.005 581.358 201.827 581.533 201.645C581.715 201.473 581.891 201.295 582.066 201.113C582.249 200.941 582.425 200.763 582.599 200.581C582.782 200.409 582.958 200.232 583.132 200.049C583.315 199.877 583.491 199.7 583.665 199.517C586.296 197.044 588 193.519 588 189.751C588 185.264 585.218 180.707 579.241 175.409C574.349 171.073 568.047 166.904 563.623 164.171C562.051 163.199 560.439 162.237 558.815 161.299C560.344 160.718 561.693 159.802 562.793 158.623C562.976 158.452 563.155 158.275 563.326 158.091C563.509 157.92 563.688 157.743 563.859 157.559C564.042 157.388 564.22 157.211 564.393 157.027C564.575 156.856 564.755 156.679 564.926 156.495C565.108 156.324 565.288 156.147 565.459 155.963C565.642 155.792 565.821 155.615 565.992 155.431C566.175 155.261 566.354 155.083 566.525 154.899C566.708 154.729 566.887 154.551 567.058 154.367C567.241 154.197 567.42 154.02 567.591 153.836C567.774 153.665 567.953 153.488 568.124 153.304C568.307 153.133 568.486 152.956 568.657 152.772C568.84 152.601 569.018 152.424 569.191 152.24C569.373 152.069 569.553 151.892 569.724 151.708C569.906 151.537 570.086 151.36 570.257 151.176C570.44 151.006 570.619 150.828 570.79 150.644C570.837 150.601 570.884 150.557 570.931 150.512C572.844 151.318 574.663 151.726 576.351 151.726C579.977 151.726 583.372 150.3 585.91 147.711C585.959 147.662 586.004 147.61 586.051 147.56C586.183 147.435 586.314 147.309 586.443 147.179C586.492 147.13 586.537 147.078 586.584 147.028C586.716 146.903 586.847 146.777 586.976 146.647C587.025 146.598 587.07 146.546 587.117 146.496C587.249 146.371 587.382 146.245 587.509 146.115C587.558 146.066 587.603 146.015 587.65 145.964C587.783 145.839 587.913 145.713 588.042 145.583C588.091 145.534 588.136 145.483 588.183 145.432C588.316 145.307 588.446 145.182 588.576 145.051C588.624 145.003 588.669 144.951 588.716 144.901C588.849 144.775 588.98 144.65 589.109 144.519C589.157 144.471 589.203 144.419 589.249 144.369C589.382 144.243 589.513 144.118 589.642 143.987C589.69 143.939 589.736 143.887 589.783 143.837C589.915 143.711 590.046 143.586 590.175 143.455C590.223 143.407 590.269 143.355 590.316 143.305C590.448 143.179 590.581 143.054 590.708 142.924C590.757 142.875 590.802 142.823 590.849 142.773C590.981 142.648 591.114 142.522 591.241 142.392C591.29 142.343 591.335 142.291 591.382 142.241C591.514 142.116 591.647 141.99 591.774 141.86C591.823 141.811 591.868 141.759 591.915 141.709C592.047 141.584 592.178 141.458 592.307 141.328C592.356 141.279 592.401 141.228 592.448 141.177C592.581 141.052 592.713 140.926 592.84 140.796C592.889 140.748 592.934 140.696 592.981 140.646C593.114 140.52 593.244 140.395 593.374 140.264C593.422 140.216 593.467 140.164 593.514 140.114C593.647 139.988 593.778 139.863 593.907 139.732C593.955 139.684 594.001 139.632 594.047 139.582C594.18 139.456 594.312 139.331 594.44 139.2C594.488 139.152 594.534 139.1 594.581 139.05C594.713 138.924 594.844 138.799 594.973 138.668C595.021 138.62 595.067 138.568 595.114 138.518C595.246 138.393 595.377 138.267 595.506 138.137C595.555 138.088 595.6 138.036 595.647 137.986C595.779 137.861 595.91 137.735 596.039 137.605C596.088 137.556 596.133 137.504 596.18 137.454C596.312 137.329 596.443 137.203 596.572 137.073C596.621 137.024 596.666 136.972 596.713 136.922C596.845 136.797 596.978 136.671 597.105 136.541C597.154 136.492 597.199 136.441 597.246 136.39C597.379 136.265 597.509 136.14 597.638 136.009C597.687 135.961 597.732 135.909 597.779 135.859C597.912 135.733 598.042 135.608 598.172 135.477C600.599 133.003 601.979 129.692 601.979 126.373ZM517.47 163.751V161.827L519.385 161.834C519.282 161.934 519.183 162.036 519.085 162.14C518.902 162.311 518.724 162.49 518.551 162.672C518.369 162.842 518.191 163.021 518.018 163.204C517.836 163.374 517.658 163.553 517.485 163.736C517.482 163.741 517.477 163.746 517.47 163.751ZM503.292 88.6446C504.908 91.1133 506.588 93.547 508.327 95.9421H486.326C490.554 90.2704 494.325 84.4999 497.433 79.0322C499.14 82.0429 501.084 85.2693 503.292 88.6446ZM547.261 68.0483C546.188 69.5218 544.676 71.4621 542.553 73.9793C541.038 72.0558 539.574 70.1006 538.164 68.1118L547.261 68.0483ZM533.48 126.542C533.482 126.541 533.482 126.541 533.484 126.539C533.666 126.37 533.844 126.191 534.017 126.007C534.199 125.836 534.377 125.659 534.55 125.475C534.642 125.39 534.734 125.304 534.825 125.214C535.323 125.657 535.821 126.102 536.324 126.541H533.48V126.542Z" fill="#580077"/>
<path d="M76.5424 58.267C86.5274 58.267 96.5359 58.4794 102.023 58.6901L102.068 58.6918C106.529 58.8323 109.498 59.6903 110.893 61.2408C112.12 62.604 112.798 65.2082 112.965 69.2174C113.321 77.1974 113.539 89.0711 113.59 103.114H37.5646C37.6166 89.2333 37.8345 77.3613 38.19 69.2124L38.1916 69.1739C38.3375 65.3069 39.1707 62.7094 40.7382 61.2325C42.3627 59.7004 45.3233 58.8474 49.5396 58.6935C55.9185 58.4861 66.3562 58.267 76.5424 58.267ZM128.947 43.8977C123.223 38.4986 115.207 35.4461 105.766 35.0681L105.689 35.0648C95.5216 34.7754 86.6883 34.6332 78.6882 34.6332C64.2858 34.6332 51.268 34.9343 46.3392 35.0631L46.2672 35.0648C36.3341 35.4311 28.0507 38.5605 22.3088 44.1118C16.7815 49.4574 13.7153 56.8503 13.4404 65.511C13.0296 79.4453 12.7949 98.9377 12.7949 118.992C12.7949 142.039 13.0313 163.016 13.4404 176.536C13.7052 185.667 17.038 193.364 23.0767 198.796C28.9191 204.052 37.2193 207.031 47.0836 207.41C56.0309 207.845 65.5783 207.845 75.6857 207.845C85.5601 207.845 95.7697 207.845 105.352 207.412C115.032 207.031 123.213 203.791 129.014 198.039C134.717 192.382 137.874 184.586 138.144 175.492C138.55 164.555 138.791 143.599 138.791 119.422C138.791 97.8639 138.555 78.2093 138.144 65.5043C137.876 56.7917 134.694 49.3203 128.947 43.8977ZM51.439 183.363C46.1012 183.2 42.4549 182.296 40.5974 180.677C39.5663 179.777 38.1715 177.949 37.9754 172.455C37.5982 162.485 37.5563 145.004 37.5512 127.173H113.592C113.547 145.394 113.319 161.6 112.962 171.399C112.799 175.924 111.959 178.919 110.39 180.557C108.749 182.27 105.515 183.215 100.781 183.365L100.735 183.367C95.2869 183.576 85.2113 183.576 75.4694 183.576C66.0511 183.576 56.3108 183.576 51.5229 183.368L51.439 183.363Z" fill="#00C9EB"/>
<path d="M300.728 88.3485V82.8775C310.336 82.8842 319.914 82.916 328.196 83.0882C332.347 83.1853 333.619 83.9797 333.911 84.2223C334.489 84.7023 334.678 86.2996 334.74 87.1276C334.742 87.524 334.751 87.9304 334.762 88.3485H300.728ZM334.849 109.84C334.737 111.95 334.507 113.652 334.028 114.585C333.431 115.746 329.783 115.93 328.243 115.955H328.222C320.159 116.11 310.49 116.294 300.728 116.359V109.841H334.849V109.84ZM281.069 176.881L281.035 176.852C277.734 174.009 270.428 170.239 264.691 167.66C263.994 167.347 263.313 167.046 262.648 166.758L312.003 166.572V184.904C312.003 186.451 311.818 189.209 310.589 190.283C309.696 191.062 307.776 191.492 305.186 191.492C302.076 191.492 298.081 190.967 293.31 189.933L292.608 189.781H292.48C292.031 189.681 291.374 189.567 290.601 189.567C288.633 189.567 286.728 190.082 285.049 191.036C285.486 189.691 285.714 188.273 285.714 186.831C285.714 182.975 284.108 179.535 281.069 176.881ZM374.464 143.772H336.117V137.158C341.8 136.227 346.692 134.054 350.459 130.759C355.128 126.674 357.951 120.917 358.407 114.55L358.412 114.466C358.576 111.675 358.853 106.105 358.853 100.164C358.853 92.6839 358.548 85.4784 358.415 82.727L358.41 82.6283C358.072 77.2258 355.296 71.9287 350.794 68.0935C345.953 63.9705 339.492 61.7242 332.113 61.6004C321.525 61.4148 311.138 61.2459 300.941 61.1907V58.0746L365.435 58.2686H365.455C372.084 58.2686 377.083 53.281 377.083 46.6675C377.083 43.7372 375.99 40.964 374.007 38.8582C371.834 36.5517 368.798 35.2805 365.453 35.2805L300.94 35.4746V27.4093C300.94 20.6738 295.756 15.5941 288.883 15.5941C285.94 15.5941 283.114 16.6077 280.924 18.4492C278.281 20.6704 276.825 23.8517 276.825 27.411V35.4762L213.832 35.2822H213.812C210.469 35.2822 207.432 36.5534 205.259 38.8599C203.276 40.9657 202.183 43.7405 202.183 46.6709C202.183 53.2843 207.182 58.272 213.811 58.272L276.824 58.078V61.194C266.349 61.2509 256.396 61.4298 247.789 61.6038C239.63 61.7343 233.031 63.8752 228.178 67.968C223.425 71.9739 220.672 77.6239 220.216 84.3059L220.213 84.3678C219.987 88.2014 219.987 93.5988 219.987 99.3107C219.987 104.753 219.987 110.382 220.21 114.827C220.522 121.55 223.33 127.246 228.334 131.299C233.229 135.266 239.893 137.406 248.143 137.658C262.498 138.093 276.597 138.304 291.243 138.304C297.934 138.304 304.744 138.244 311.788 138.122V143.976L205.448 143.775C202.04 143.775 198.956 145.135 196.763 147.603C194.865 149.741 193.819 152.502 193.819 155.376C193.819 161.989 198.818 166.977 205.447 166.977L236.817 166.858C235.241 168.952 234.356 171.486 234.356 173.992C234.356 178.745 237.155 182.638 241.667 184.163C252.507 187.951 260.773 192.315 265.581 196.786C267.721 198.873 270.363 199.932 273.437 199.932C275.565 199.932 277.65 199.318 279.486 198.191C279.144 199.357 278.966 200.576 278.966 201.812C278.966 206.332 280.945 209.782 284.846 212.067C288.908 214.445 295.3 215.554 304.965 215.554C316.673 215.554 325.356 212.104 330.772 205.298C334.6 200.487 336.541 194.276 336.541 186.834V185.872L336.112 172.391V166.616L374.396 166.979H374.459C377.867 166.979 380.952 165.619 383.145 163.15C385.043 161.013 386.089 158.251 386.089 155.378C386.094 148.759 381.095 143.772 374.464 143.772ZM277.042 109.84V116.359C267.955 116.301 259.035 116.135 249.982 115.955H249.962C245.335 115.876 244.778 114.774 244.54 114.304C244.044 113.32 243.776 111.686 243.63 109.84H277.042ZM243.759 88.3485C243.94 86.9452 244.227 85.7644 244.674 84.9632C244.936 84.4966 245.63 83.2572 250.254 83.0882C258.225 82.916 267.345 82.8842 277.042 82.8775V88.3485H243.759Z" fill="#00C9EB"/>
<path d="M471.621 175.186C476.92 169.6 479.182 165.596 479.182 161.794C479.182 158.487 477.748 155.232 475.25 152.862C472.89 150.623 469.772 149.336 466.695 149.336C461.867 149.336 459.012 151.832 457.455 153.966C448.921 165.169 435.547 174.954 421.662 180.149L421.61 180.169C416.505 182.127 413.458 186.299 413.458 191.325C413.458 194.54 414.787 197.741 417.104 200.111C419.556 202.617 422.847 203.997 426.373 203.997C428.744 203.997 432.873 203.443 441.319 198.658C446.227 195.878 451.966 191.992 457.48 187.719C462.968 183.462 467.991 179.011 471.621 175.186Z" fill="#00C9EB"/>
<path d="M543.64 74.1499C538.899 68.2055 534.652 61.9383 530.92 55.3801C531.448 55.4487 531.99 55.4838 532.542 55.4838L560.044 55.2914C558.458 57.4708 555.915 60.6655 551.848 65.25C549.053 68.4046 546.131 71.539 543.64 74.1499ZM506.384 59.1033C508.799 63.9003 511.993 69.6473 516.077 75.8894C520.526 82.6885 525.455 89.2183 530.813 95.4102H486.861C496.764 82.1248 504.174 68.2825 506.384 59.1033ZM595.59 114.842L595.286 114.687C582.084 108.351 570.118 100.431 559.626 91.0949C567.913 82.7771 578.564 70.8064 584.131 62.9235L584.163 62.8783C586.867 58.9812 588.356 54.4384 588.356 50.088C588.356 45.0635 586.336 40.5843 582.669 37.4783C578.931 34.3121 573.757 32.7081 567.291 32.7081H532.545C528.196 32.7081 524.563 34.8942 522.63 38.2812C522.146 37.0903 521.678 35.8944 521.225 34.6884L521.173 34.553C519.395 30.1156 515.369 27.3575 510.667 27.3575C507.809 27.3575 504.908 28.4179 502.707 30.2644C500.102 32.4522 498.608 35.6217 498.608 38.9586C498.608 39.0489 498.608 39.1375 498.61 39.2295C495.042 37.1722 490.526 36.1302 485.141 36.1302H484.712C480.938 36.1302 477.101 36.1821 473.173 36.2623C474.385 33.7434 474.677 32.1963 474.677 30.6123C474.677 27.416 473.304 24.2498 470.911 21.9232C468.588 19.6652 465.488 18.3689 462.405 18.3689C457.785 18.3689 453.677 21.0451 451.652 25.3621C446.425 35.7756 440.12 45.4482 432.909 54.1123C425.947 62.4786 418.473 69.5152 410.696 75.028L410.557 75.1301C407.171 77.664 405.305 81.0828 405.305 84.7541C405.305 91.2689 410.713 96.5693 417.362 96.5693C419.945 96.5693 422.72 95.519 426.168 93.2058C426.611 97.6063 429.528 101.177 433.853 102.484C436.832 103.4 440.695 104.956 444.663 106.802C434.289 115.348 422.926 121.819 411.375 125.713C406.254 127.419 402.944 131.752 402.944 136.755C402.944 143.27 408.353 148.57 415.001 148.57C416.378 148.57 417.513 148.271 418.343 148.053C418.478 148.018 418.621 147.98 418.77 147.943L419.06 147.871L419.343 147.772C425.392 145.677 431.374 143.006 437.248 139.781C437.627 141.811 438.534 143.72 439.892 145.302C442.058 147.824 445.102 149.213 448.46 149.213L493.456 149.027V180.196C493.456 182.462 493.14 185.469 491.632 186.926C490.109 188.4 487.026 188.709 484.709 188.709C481.282 188.709 477.188 188.157 472.538 187.068C471.074 186.57 469.753 186.57 469.051 186.57C465.562 186.57 462.403 188.027 460.159 190.674C458.256 192.919 457.208 195.809 457.208 198.815C457.208 201.953 458.39 207.653 466.305 210.565C470.392 212.069 476.103 212.769 484.28 212.769C496.161 212.769 505.175 209.474 511.068 202.975C515.743 197.82 518.214 190.756 518.214 182.551V181.908L518 165.815V149.025L567.689 149.214H567.714C573.975 149.214 578.698 144.227 578.698 137.613C578.698 136.65 578.602 135.723 578.421 134.845C579.692 135.588 580.971 136.317 582.262 137.033L582.52 137.17C584.881 138.347 587.115 138.944 589.161 138.944C592.787 138.944 596.182 137.518 598.72 134.929C601.126 132.475 602.505 129.163 602.505 125.845C602.512 121.314 599.923 117.201 595.59 114.842ZM478.278 118.184H537.261C540.716 118.184 543.745 116.758 545.791 114.167C546.309 113.511 546.751 112.788 547.11 112.019C552.659 117.007 558.527 121.678 564.678 126.009H457.641C461.922 122.545 466.078 118.803 470.088 114.802C472.149 116.901 475.036 118.184 478.278 118.184ZM459.039 58.4376C459.045 58.4292 459.052 58.4192 459.059 58.4091C462.232 58.3523 465.612 58.3138 468.908 58.277C473.666 58.2235 478.177 58.1716 481.334 58.0696C480.719 59.8074 479.641 62.4334 477.785 66.0412C475.258 64.7449 472.528 63.4453 469.842 62.2695C464.237 59.8124 460.978 58.8306 459.039 58.4376ZM445.81 74.824C447.119 77.649 449.599 79.7849 452.836 80.6914C456.011 81.6348 460.46 83.2906 465.138 85.5352C464.083 86.9202 463.049 88.2298 462.03 89.4709C457.842 87.248 453.578 85.3797 450.967 84.2908C445.498 82.0111 442.353 81.0059 440.487 80.5643C442.254 78.7362 444.038 76.8093 445.81 74.824Z" fill="#00C9EB"/>
<path d="M579.809 174.842C574.917 170.506 568.616 166.337 564.191 163.603C558.882 160.324 553.122 157.144 547.972 154.648C539.217 150.407 536.882 150.407 535.76 150.407C529.111 150.407 523.703 155.9 523.703 162.65C523.703 166.979 526.325 170.948 530.391 172.786C546.667 180.42 558.292 188.55 565.92 197.636C568.319 200.728 571.856 202.5 575.657 202.5C582.537 202.5 588.572 196.278 588.572 189.186C588.57 184.697 585.786 180.14 579.809 174.842Z" fill="#00C9EB"/>
<path d="M85.7474 47.6745C95.7324 47.6745 105.741 47.8869 111.228 48.0977L111.273 48.0994C115.734 48.2399 118.703 49.0979 120.098 50.6484C121.325 52.0116 122.003 54.6158 122.17 58.625C122.526 66.6049 122.744 78.4787 122.796 92.5217H46.7697C46.8217 78.6409 47.0396 66.7688 47.395 58.62L47.3967 58.5815C47.5426 54.7145 48.3758 52.1169 49.9433 50.64C51.5678 49.1079 54.5284 48.2549 58.7447 48.101C65.1236 47.8936 75.5596 47.6745 85.7474 47.6745ZM138.152 33.3053C132.429 27.9062 124.412 24.8537 114.972 24.4757L114.894 24.4723C104.727 24.183 95.8934 24.0408 87.8933 24.0408C73.4908 24.0408 60.4731 24.3419 55.5443 24.4706L55.4722 24.4723C45.5392 24.8386 37.2558 27.968 31.5139 33.5194C25.9866 38.865 22.9204 46.2578 22.6454 54.9185C22.2347 68.8529 22 88.3453 22 108.4C22 131.446 22.2364 152.424 22.6454 165.944C22.9103 175.074 26.2431 182.771 32.2817 188.204C38.1242 193.459 46.4244 196.438 56.2887 196.818C65.2359 197.253 74.7834 197.253 84.8908 197.253C94.7651 197.253 104.975 197.253 114.557 196.82C124.237 196.438 132.418 193.198 138.219 187.446C143.922 181.79 147.079 173.994 147.349 164.9C147.755 153.963 147.996 133.007 147.996 108.83C147.996 87.2715 147.76 67.6168 147.349 54.9118C147.079 46.1993 143.899 38.7278 138.152 33.3053ZM60.6441 172.771C55.3063 172.607 51.66 171.704 49.8024 170.085C48.7714 169.185 47.3766 167.357 47.1804 161.862C46.8032 151.892 46.7613 134.412 46.7563 116.58H122.797C122.752 134.802 122.524 151.007 122.167 160.807C122.004 165.331 121.164 168.327 119.595 169.964C117.954 171.677 114.72 172.622 109.986 172.773L109.94 172.774C104.492 172.983 94.4164 172.983 84.6745 172.983C75.2561 172.983 65.5159 172.983 60.7279 172.776L60.6441 172.771Z" stroke="black" stroke-width="10" stroke-miterlimit="10"/>
<path d="M309.932 77.7561V72.285C319.54 72.2917 329.118 72.3235 337.399 72.4958C341.55 72.5928 342.823 73.3873 343.114 73.6298C343.693 74.1098 343.882 75.7072 343.944 76.5351C343.946 76.9315 343.954 77.3379 343.966 77.7561H309.932ZM344.055 99.2472C343.943 101.358 343.713 103.059 343.234 103.992C342.637 105.153 338.989 105.337 337.448 105.362H337.428C329.364 105.518 319.696 105.702 309.934 105.767V99.2472H344.055ZM290.272 166.29L290.239 166.261C286.938 163.418 279.632 159.648 273.895 157.069C273.198 156.756 272.517 156.455 271.853 156.167L321.208 155.982V174.313C321.208 175.86 321.024 178.618 319.795 179.692C318.901 180.472 316.982 180.902 314.392 180.902C311.282 180.902 307.287 180.376 302.516 179.343L301.813 179.19H301.686C301.236 179.092 300.579 178.976 299.806 178.976C297.838 178.976 295.934 179.492 294.254 180.445C294.692 179.1 294.92 177.682 294.92 176.24C294.92 172.383 293.312 168.943 290.272 166.29ZM383.67 133.179H345.322V126.566C351.006 125.634 355.898 123.461 359.665 120.166C364.333 116.082 367.157 110.325 367.613 103.957L367.618 103.874C367.782 101.082 368.059 95.5123 368.059 89.5713C368.059 82.0915 367.753 74.8859 367.621 72.1345L367.616 72.0358C367.277 66.6334 364.501 61.3363 359.998 57.501C355.157 53.3781 348.695 51.1318 341.317 51.008C330.729 50.8223 320.341 50.6534 310.145 50.5982V47.4805L374.639 47.6745H374.659C381.288 47.6745 386.287 42.6869 386.287 36.0734C386.287 33.143 385.194 30.3699 383.21 28.2641C381.038 25.9576 378.002 24.6864 374.657 24.6864L310.142 24.8804V16.8152C310.142 10.0797 304.958 5 298.085 5C295.143 5 292.316 6.01359 290.127 7.85512C287.483 10.0763 286.028 13.2576 286.028 16.8169V24.8821L223.035 24.6881H223.014C219.672 24.6881 216.634 25.9593 214.461 28.2658C212.478 30.3716 211.385 33.1464 211.385 36.0768C211.385 42.6902 216.384 47.6779 223.013 47.6779L286.026 47.4838V50.5999C275.551 50.6568 265.598 50.8357 256.991 51.0097C248.832 51.1401 242.235 53.2811 237.38 57.3739C232.627 61.3797 229.875 67.0298 229.419 73.7118L229.415 73.7737C229.189 77.6072 229.189 83.0047 229.189 88.7166C229.189 94.1592 229.189 99.7875 229.412 104.233C229.724 110.955 232.532 116.652 237.536 120.705C242.431 124.672 249.095 126.812 257.345 127.064C271.701 127.499 285.8 127.71 300.445 127.71C307.136 127.71 313.946 127.65 320.99 127.527V133.382L214.651 133.181C211.242 133.181 208.158 134.541 205.965 137.009C204.067 139.147 203.021 141.908 203.021 144.782C203.021 151.395 208.02 156.383 214.649 156.383L246.019 156.264C244.443 158.358 243.558 160.892 243.558 163.398C243.558 168.151 246.358 172.043 250.869 173.569C261.709 177.357 269.976 181.721 274.784 186.192C276.923 188.279 279.565 189.338 282.64 189.338C284.767 189.338 286.852 188.724 288.688 187.597C288.346 188.763 288.168 189.982 288.168 191.218C288.168 195.737 290.147 199.188 294.048 201.473C298.11 203.851 304.502 204.96 314.167 204.96C325.875 204.96 334.558 201.51 339.974 194.704C343.802 189.893 345.743 183.681 345.743 176.24V175.278L345.314 161.797V156.022L383.598 156.385H383.661C387.07 156.385 390.154 155.025 392.347 152.556C394.245 150.419 395.291 147.657 395.291 144.784C395.299 138.167 390.3 133.179 383.67 133.179ZM286.247 99.2472V105.767C277.161 105.708 268.24 105.543 259.187 105.362H259.167C254.54 105.284 253.984 104.181 253.746 103.711C253.249 102.728 252.981 101.094 252.835 99.2472H286.247ZM252.964 77.7561C253.146 76.3528 253.432 75.1719 253.88 74.3708C254.141 73.9041 254.835 72.6647 259.459 72.4958C267.431 72.3235 276.551 72.2917 286.247 72.285V77.7561H252.964Z" stroke="black" stroke-width="10" stroke-miterlimit="10"/>
<path d="M480.826 164.594C486.125 159.007 488.387 155.003 488.387 151.201C488.387 147.895 486.953 144.64 484.455 142.268C482.095 140.028 478.977 138.742 475.9 138.742C471.072 138.742 468.217 141.238 466.66 143.372C458.126 154.575 444.752 164.36 430.867 169.555L430.815 169.575C425.71 171.533 422.663 175.705 422.663 180.731C422.663 183.946 423.992 187.147 426.309 189.517C428.762 192.023 432.052 193.402 435.578 193.402C437.949 193.402 442.078 192.849 450.524 188.064C455.432 185.284 461.171 181.398 466.685 177.125C472.174 172.87 477.196 168.419 480.826 164.594Z" stroke="black" stroke-width="10" stroke-miterlimit="10"/>
<path d="M552.845 63.5575C548.104 57.6131 543.857 51.3459 540.125 44.7876C540.654 44.8562 541.195 44.8913 541.747 44.8913L569.249 44.699C567.663 46.8784 565.12 50.073 561.053 54.6576C558.258 57.8121 555.336 60.9465 552.845 63.5575ZM515.589 48.5108C518.005 53.3078 521.198 59.0548 525.282 65.297C529.731 72.096 534.66 78.6258 540.018 84.8178H496.066C505.969 71.5324 513.379 57.6917 515.589 48.5108ZM604.795 104.25L604.491 104.094C591.289 97.7586 579.323 89.8389 568.831 80.5025C577.118 72.1847 587.769 60.2139 593.336 52.331L593.368 52.2859C596.072 48.3887 597.561 43.846 597.561 39.4955C597.561 34.4711 595.541 29.9919 591.874 26.8859C588.136 23.7197 582.962 22.1156 576.496 22.1156H541.75C537.401 22.1156 533.768 24.3017 531.835 27.6887C531.351 26.4978 530.883 25.3019 530.43 24.096L530.378 23.9605C528.6 19.5231 524.575 16.765 519.872 16.765C517.014 16.765 514.113 17.8254 511.912 19.672C509.307 21.8597 507.813 25.0293 507.813 28.3661C507.813 28.4564 507.813 28.5451 507.815 28.6371C504.248 26.5798 499.731 25.5378 494.346 25.5378H493.917C490.143 25.5378 486.306 25.5896 482.378 25.6699C483.59 23.151 483.882 21.6038 483.882 20.0199C483.882 16.8236 482.509 13.6573 480.117 11.3308C477.793 9.07276 474.693 7.7765 471.61 7.7765C466.99 7.7765 462.882 10.4526 460.857 14.7696C455.63 25.1832 449.325 34.8558 442.114 43.5198C435.152 51.8861 427.678 58.9227 419.901 64.4356L419.762 64.5376C416.376 67.0716 414.51 70.4904 414.51 74.1617C414.51 80.6764 419.918 85.9769 426.567 85.9769C429.15 85.9769 431.925 84.9265 435.373 82.6133C435.816 87.0139 438.733 90.5849 443.058 91.8912C446.037 92.8078 449.9 94.3633 453.868 96.2098C443.494 104.755 432.131 111.226 420.58 115.12C415.459 116.826 412.149 121.16 412.149 126.163C412.149 132.677 417.558 137.978 424.207 137.978C425.583 137.978 426.718 137.678 427.548 137.461C427.684 137.426 427.826 137.387 427.975 137.351L428.265 137.279L428.549 137.18C434.597 135.084 440.579 132.413 446.453 129.188C446.832 131.219 447.739 133.127 449.097 134.71C451.263 137.232 454.307 138.62 457.665 138.62L502.662 138.434V169.603C502.662 171.87 502.345 174.877 500.838 176.334C499.314 177.807 496.231 178.117 493.914 178.117C490.487 178.117 486.393 177.565 481.743 176.476C480.279 175.977 478.958 175.977 478.256 175.977C474.767 175.977 471.608 177.434 469.364 180.082C467.461 182.327 466.413 185.217 466.413 188.222C466.413 191.36 467.595 197.06 475.51 199.972C479.597 201.476 485.309 202.177 493.485 202.177C505.366 202.177 514.38 198.882 520.273 192.382C524.948 187.227 527.42 180.164 527.42 171.958V171.316L527.205 155.222V138.433L576.894 138.622H576.919C583.18 138.622 587.903 133.634 587.903 127.021C587.903 126.057 587.807 125.131 587.626 124.252C588.897 124.995 590.176 125.724 591.467 126.44L591.725 126.577C594.086 127.755 596.32 128.352 598.366 128.352C601.992 128.352 605.387 126.925 607.925 124.336C610.331 121.882 611.71 118.571 611.71 115.252C611.715 110.721 609.129 106.608 604.795 104.25ZM468.244 47.8451C468.251 47.8368 468.257 47.8267 468.264 47.8167C471.437 47.7598 474.817 47.7214 478.113 47.6846C482.871 47.631 487.382 47.5792 490.539 47.4772C489.924 49.215 488.846 51.8409 486.99 55.4487C484.464 54.1525 481.733 52.8529 479.049 51.677C473.443 49.22 470.183 48.2382 468.244 47.8451ZM455.015 64.2315C456.324 67.0565 458.804 69.1924 462.041 70.099C465.216 71.0423 469.665 72.6982 474.343 74.9428C473.288 76.3277 472.254 77.6373 471.235 78.8784C467.047 76.6555 462.784 74.7872 460.172 73.6984C454.703 71.4186 451.558 70.4134 449.692 69.9719C451.459 68.1437 453.243 66.2186 455.015 64.2315Z" stroke="black" stroke-width="10" stroke-miterlimit="10"/>
<path d="M573.883 115.418H466.848C471.129 111.956 475.285 108.214 479.295 104.213C481.354 106.309 484.241 107.593 487.483 107.593H546.466C549.923 107.593 552.951 106.168 554.998 103.576C555.514 102.922 555.957 102.199 556.317 101.428C561.864 106.414 567.734 111.088 573.883 115.418Z" fill="white" stroke="black" stroke-width="10" stroke-miterlimit="10"/>
<path d="M589.014 164.249C584.122 159.914 577.821 155.744 573.396 153.011C568.087 149.731 562.327 146.551 557.177 144.056C548.422 139.814 546.087 139.814 544.965 139.814C538.316 139.814 532.908 145.307 532.908 152.058C532.908 156.386 535.53 160.355 539.596 162.194C555.872 169.827 567.497 177.958 575.125 187.043C577.524 190.136 581.061 191.907 584.862 191.907C591.742 191.907 597.777 185.685 597.777 178.593C597.774 174.104 594.991 169.548 589.014 164.249Z" stroke="black" stroke-width="10" stroke-miterlimit="10"/>
<path d="M83.1972 51.6745C93.1822 51.6745 103.191 51.8869 108.678 52.0977L108.723 52.0994C113.184 52.2399 116.153 53.0979 117.548 54.6484C118.775 56.0116 119.452 58.6158 119.62 62.625C119.975 70.6049 120.193 82.4787 120.245 96.5217H44.2194C44.2714 82.6409 44.4893 70.7688 44.8447 62.62L44.8464 62.5815C44.9923 58.7145 45.8255 56.1169 47.393 54.64C49.0175 53.1079 51.9781 52.2549 56.1944 52.101C62.5733 51.8936 73.0093 51.6745 83.1972 51.6745ZM135.602 37.3053C129.878 31.9062 121.861 28.8537 112.421 28.4757L112.344 28.4723C102.176 28.183 93.3431 28.0408 85.343 28.0408C70.9405 28.0408 57.9228 28.3419 52.994 28.4706L52.9219 28.4723C42.9889 28.8386 34.7055 31.968 28.9636 37.5194C23.4363 42.865 20.3701 50.2578 20.0951 58.9185C19.6844 72.8529 19.4497 92.3453 19.4497 112.4C19.4497 135.446 19.6861 156.424 20.0951 169.944C20.36 179.074 23.6928 186.771 29.7314 192.204C35.5739 197.459 43.8741 200.438 53.7384 200.818C62.6856 201.253 72.2331 201.253 82.3405 201.253C92.2148 201.253 102.424 201.253 112.007 200.82C121.687 200.438 129.868 197.198 135.669 191.446C141.372 185.79 144.529 177.994 144.799 168.9C145.204 157.963 145.446 137.007 145.446 112.83C145.446 91.2715 145.209 71.6168 144.799 58.9118C144.529 50.1993 141.349 42.7278 135.602 37.3053ZM58.0938 176.771C52.756 176.607 49.1097 175.704 47.2521 174.085C46.2211 173.185 44.8263 171.357 44.6302 165.862C44.253 155.892 44.211 138.412 44.206 120.58H120.247C120.202 138.802 119.974 155.007 119.617 164.807C119.454 169.331 118.614 172.327 117.045 173.964C115.404 175.677 112.17 176.622 107.435 176.773L107.39 176.774C101.942 176.983 91.8661 176.983 82.1242 176.983C72.7059 176.983 62.9656 176.983 58.1776 176.776L58.0938 176.771Z" stroke="white" stroke-width="10" stroke-miterlimit="10"/>
<path d="M307.382 81.7561V76.285C316.99 76.2917 326.567 76.3235 334.849 76.4958C339 76.5928 340.272 77.3873 340.564 77.6298C341.143 78.1098 341.332 79.7072 341.394 80.5351C341.396 80.9315 341.404 81.3379 341.416 81.7561H307.382ZM341.505 103.247C341.392 105.358 341.163 107.059 340.683 107.992C340.086 109.153 336.438 109.337 334.898 109.362H334.878C326.814 109.518 317.146 109.702 307.384 109.767V103.247H341.505ZM287.722 170.29L287.689 170.261C284.388 167.418 277.082 163.648 271.345 161.069C270.647 160.756 269.967 160.455 269.303 160.167L318.658 159.982V178.313C318.658 179.86 318.473 182.618 317.245 183.692C316.351 184.472 314.432 184.902 311.841 184.902C308.732 184.902 304.737 184.376 299.965 183.343L299.263 183.19H299.135C298.686 183.092 298.029 182.976 297.256 182.976C295.288 182.976 293.384 183.492 291.704 184.445C292.141 183.1 292.369 181.682 292.369 180.24C292.369 176.383 290.762 172.943 287.722 170.29ZM381.119 137.179H342.772V130.566C348.455 129.634 353.347 127.461 357.114 124.166C361.783 120.082 364.606 114.325 365.062 107.957L365.067 107.874C365.232 105.082 365.508 99.5123 365.508 93.5713C365.508 86.0915 365.203 78.8859 365.071 76.1345L365.066 76.0358C364.727 70.6334 361.951 65.3363 357.448 61.501C352.606 57.3781 346.145 55.1318 338.767 55.008C328.178 54.8223 317.791 54.6534 307.595 54.5982V51.4805L372.088 51.6745H372.109C378.737 51.6745 383.736 46.6869 383.736 40.0734C383.736 37.143 382.643 34.3699 380.66 32.2641C378.487 29.9576 375.451 28.6864 372.107 28.6864L307.592 28.8804V20.8152C307.592 14.0797 302.408 9 295.534 9C292.592 9 289.766 10.0136 287.576 11.8551C284.932 14.0763 283.477 17.2576 283.477 20.8169V28.8821L220.484 28.6881H220.464C217.121 28.6881 214.084 29.9593 211.911 32.2658C209.928 34.3716 208.835 37.1464 208.835 40.0768C208.835 46.6902 213.834 51.6779 220.463 51.6779L283.476 51.4838V54.5999C273.001 54.6568 263.048 54.8357 254.441 55.0097C246.282 55.1401 239.685 57.2811 234.83 61.3739C230.077 65.3797 227.324 71.0298 226.868 77.7118L226.865 77.7737C226.639 81.6072 226.639 87.0047 226.639 92.7166C226.639 98.1592 226.639 103.787 226.862 108.233C227.173 114.955 229.981 120.652 234.986 124.705C239.881 128.672 246.545 130.812 254.795 131.064C269.15 131.499 283.249 131.71 297.895 131.71C304.586 131.71 311.395 131.65 318.44 131.527V137.382L212.1 137.181C208.692 137.181 205.607 138.541 203.415 141.009C201.517 143.147 200.471 145.908 200.471 148.782C200.471 155.395 205.47 160.383 212.099 160.383L243.469 160.264C241.893 162.358 241.008 164.892 241.008 167.398C241.008 172.151 243.807 176.043 248.319 177.569C259.159 181.357 267.425 185.721 272.233 190.192C274.372 192.279 277.015 193.338 280.089 193.338C282.217 193.338 284.302 192.724 286.138 191.597C285.796 192.763 285.618 193.982 285.618 195.218C285.618 199.737 287.596 203.188 291.498 205.473C295.56 207.851 301.952 208.96 311.617 208.96C323.325 208.96 332.008 205.51 337.424 198.704C341.252 193.893 343.193 187.681 343.193 180.24V179.278L342.764 165.797V160.022L381.047 160.385H381.111C384.519 160.385 387.604 159.025 389.797 156.556C391.695 154.419 392.741 151.657 392.741 148.784C392.749 142.167 387.75 137.179 381.119 137.179ZM283.697 103.247V109.767C274.611 109.708 265.69 109.543 256.637 109.362H256.617C251.99 109.284 251.433 108.181 251.195 107.711C250.699 106.728 250.431 105.094 250.285 103.247H283.697ZM250.414 81.7561C250.595 80.3528 250.882 79.1719 251.33 78.3708C251.591 77.9041 252.285 76.6647 256.909 76.4958C264.88 76.3235 274 76.2917 283.697 76.285V81.7561H250.414Z" stroke="white" stroke-width="10" stroke-miterlimit="10"/>
<path d="M478.275 168.594C483.575 163.007 485.836 159.003 485.836 155.201C485.836 151.895 484.403 148.64 481.905 146.268C479.545 144.028 476.426 142.742 473.35 142.742C468.522 142.742 465.667 145.238 464.109 147.372C455.576 158.575 442.201 168.36 428.317 173.555L428.265 173.575C423.16 175.533 420.112 179.705 420.112 184.731C420.112 187.946 421.442 191.147 423.759 193.517C426.211 196.023 429.502 197.402 433.028 197.402C435.398 197.402 439.527 196.849 447.973 192.064C452.882 189.284 458.621 185.398 464.135 181.125C469.623 176.87 474.646 172.419 478.275 168.594Z" stroke="white" stroke-width="10" stroke-miterlimit="10"/>
<path d="M550.294 67.5575C545.553 61.6131 541.307 55.3459 537.575 48.7876C538.103 48.8562 538.645 48.8913 539.196 48.8913L566.699 48.699C565.113 50.8784 562.569 54.073 558.502 58.6576C555.708 61.8121 552.786 64.9465 550.294 67.5575ZM513.038 52.5108C515.454 57.3078 518.648 63.0548 522.732 69.297C527.181 76.096 532.11 82.6258 537.468 88.8178H493.516C503.419 75.5324 510.829 61.6917 513.038 52.5108ZM602.245 108.25L601.941 108.094C588.739 101.759 576.772 93.8389 566.281 84.5025C574.568 76.1847 585.218 64.2139 590.786 56.331L590.818 56.2859C593.522 52.3887 595.011 47.846 595.011 43.4955C595.011 38.4711 592.991 33.9919 589.324 30.8859C585.586 27.7197 580.412 26.1156 573.946 26.1156H539.2C534.851 26.1156 531.218 28.3017 529.285 31.6887C528.801 30.4978 528.333 29.3019 527.88 28.096L527.828 27.9605C526.049 23.5231 522.024 20.765 517.322 20.765C514.463 20.765 511.563 21.8254 509.362 23.672C506.757 25.8597 505.263 29.0293 505.263 32.3661C505.263 32.4564 505.263 32.5451 505.265 32.6371C501.697 30.5798 497.181 29.5378 491.796 29.5378H491.367C487.593 29.5378 483.756 29.5896 479.828 29.6699C481.04 27.151 481.332 25.6038 481.332 24.0199C481.332 20.8236 479.959 17.6573 477.566 15.3308C475.243 13.0728 472.143 11.7765 469.06 11.7765C464.44 11.7765 460.332 14.4526 458.307 18.7696C453.08 29.1832 446.775 38.8558 439.564 47.5198C432.602 55.8861 425.128 62.9227 417.351 68.4356L417.212 68.5376C413.826 71.0716 411.96 74.4904 411.96 78.1617C411.96 84.6764 417.368 89.9769 424.017 89.9769C426.6 89.9769 429.375 88.9265 432.823 86.6133C433.266 91.0139 436.183 94.5849 440.508 95.8912C443.487 96.8078 447.35 98.3633 451.318 100.21C440.944 108.755 429.581 115.226 418.03 119.12C412.908 120.826 409.599 125.16 409.599 130.163C409.599 136.677 415.007 141.978 421.656 141.978C423.033 141.978 424.168 141.678 424.997 141.461C425.133 141.426 425.276 141.387 425.425 141.351L425.715 141.279L425.998 141.18C432.047 139.084 438.029 136.413 443.903 133.188C444.282 135.219 445.189 137.127 446.547 138.71C448.713 141.232 451.757 142.62 455.115 142.62L500.111 142.434V173.603C500.111 175.87 499.794 178.877 498.287 180.334C496.763 181.807 493.68 182.117 491.363 182.117C487.937 182.117 483.843 181.565 479.192 180.476C477.729 179.977 476.408 179.977 475.705 179.977C472.217 179.977 469.058 181.434 466.813 184.082C464.911 186.327 463.863 189.217 463.863 192.222C463.863 195.36 465.045 201.06 472.959 203.972C477.047 205.476 482.758 206.177 490.934 206.177C502.815 206.177 511.83 202.882 517.722 196.382C522.398 191.227 524.869 184.164 524.869 175.958V175.316L524.655 159.222V142.433L574.343 142.622H574.368C580.63 142.622 585.353 137.634 585.353 131.021C585.353 130.057 585.257 129.131 585.076 128.252C586.347 128.995 587.626 129.724 588.917 130.44L589.175 130.577C591.535 131.755 593.77 132.352 595.815 132.352C599.442 132.352 602.836 130.925 605.375 128.336C607.78 125.882 609.16 122.571 609.16 119.252C609.165 114.721 606.578 110.608 602.245 108.25ZM465.694 51.8451C465.7 51.8368 465.707 51.8267 465.714 51.8167C468.887 51.7598 472.267 51.7214 475.563 51.6846C480.321 51.631 484.832 51.5792 487.989 51.4772C487.374 53.215 486.296 55.8409 484.44 59.4487C481.913 58.1525 479.182 56.8529 476.498 55.677C470.892 53.22 467.633 52.2382 465.694 51.8451ZM452.465 68.2315C453.774 71.0565 456.253 73.1924 459.491 74.099C462.666 75.0423 467.115 76.6982 471.792 78.9428C470.738 80.3277 469.704 81.6373 468.684 82.8784C464.497 80.6555 460.233 78.7872 457.621 77.6984C452.153 75.4186 449.008 74.4134 447.142 73.9719C448.909 72.1437 450.693 70.2186 452.465 68.2315Z" stroke="white" stroke-width="10" stroke-miterlimit="10"/>
<path d="M571.332 119.418H464.297C468.579 115.956 472.735 112.214 476.745 108.213C478.803 110.309 481.69 111.593 484.932 111.593H543.915C547.372 111.593 550.4 110.168 552.447 107.576C552.963 106.922 553.406 106.199 553.766 105.428C559.314 110.414 565.183 115.088 571.332 119.418Z" fill="white" stroke="white" stroke-width="10" stroke-miterlimit="10"/>
<path d="M586.464 168.249C581.572 163.914 575.27 159.744 570.846 157.011C565.537 153.731 559.776 150.551 554.626 148.056C545.872 143.814 543.537 143.814 542.415 143.814C535.766 143.814 530.358 149.307 530.358 156.058C530.358 160.386 532.98 164.355 537.045 166.194C553.322 173.827 564.947 181.958 572.575 191.043C574.974 194.136 578.511 195.907 582.311 195.907C589.192 195.907 595.227 189.685 595.227 182.593C595.224 178.104 592.441 173.548 586.464 168.249Z" stroke="white" stroke-width="10" stroke-miterlimit="10"/>
</svg>
