<svg width="100" height="84" viewBox="0 0 100 84" fill="none" xmlns="http://www.w3.org/2000/svg">
<path d="M74.8383 6.32682V43.1374H7.52734V6.32682C7.52734 2.83206 10.3594 0 13.8542 0H68.5115C72.0063 0 74.8383 2.83206 74.8383 6.32682Z" fill="#8A4984"/>
<path d="M74.8383 43.1373H7.52734V48.3472H74.8383V43.1373Z" fill="white"/>
<path d="M45.8718 7.60638C45.8718 9.04429 44.7048 10.2113 43.2669 10.2113H39.0991C37.6611 10.2113 36.4941 9.04429 36.4941 7.60638C36.4941 6.16847 37.6611 5.00146 39.0991 5.00146H43.2669C44.7048 5.00146 45.8718 6.16847 45.8718 7.60638Z" fill="white"/>
<path d="M74.8388 48.3472V59.6005H2.3576C0.294508 59.6005 -0.770381 57.1331 0.646693 55.6327L7.52784 48.3472H74.8388Z" fill="#428DCC"/>
<path d="M74.8388 48.3472V59.6005H2.3576C0.294508 59.6005 -0.770381 57.1331 0.646693 55.6327L7.52784 48.3472H74.8388Z" fill="#8A4984"/>
<path d="M67.0446 83.9825H94.4045C97.495 83.9825 99.9999 81.4776 99.9999 78.3871V18.3074C99.9999 15.2169 97.495 12.712 94.4045 12.712H67.0446C63.9541 12.712 61.4492 15.2169 61.4492 18.3074V78.3851C61.4492 81.4776 63.9541 83.9825 67.0446 83.9825Z" fill="#81B7C8"/>
<path d="M67.8057 70.2284H93.6464V19.1721L67.8057 70.2284Z" fill="white"/>
<path d="M93.6464 19.1721H67.8057V70.2284L93.6464 19.1721Z" fill="#8A4984"/>
<path d="M85.4666 76.1677C85.4666 77.6056 84.2996 78.7726 82.8616 78.7726H78.6938C77.2559 78.7726 76.0889 77.6056 76.0889 76.1677C76.0889 74.7297 77.2559 73.5627 78.6938 73.5627H82.8616C84.2996 73.5627 85.4666 74.7297 85.4666 76.1677Z" fill="white"/>
</svg>
